solid Design - Rolled
facet normal -1.0 -2.608448715739152e-20 1.5015360291130284e-08
  outer loop
    vertex 263.6604788575722 29.136275132033425 23.089466669069193
    vertex 263.66047911765423 19.736275130055176 40.41053435403675
    vertex 263.6604791176543 29.136275130055388 40.41053435618378
  endloop
endfacet
facet normal -1.0 -2.608448715739152e-20 1.5015360291130284e-08
  outer loop
    vertex 263.66047911765423 19.736275130055176 40.41053435403675
    vertex 263.6604788575722 29.136275132033425 23.089466669069193
    vertex 263.6604788575722 19.736275132033214 23.08946666692214
  endloop
endfacet
facet normal 1.0 0.0 -1.5015360291130284e-08
  outer loop
    vertex 273.06047885757215 19.736275132033214 23.08946652685129
    vertex 273.06047911765427 29.136275130055388 40.41053421396588
    vertex 273.06047911765427 19.736275130055176 40.41053421396588
  endloop
endfacet
facet normal 1.0 0.0 -1.5015360291130284e-08
  outer loop
    vertex 273.06047911765427 29.136275130055388 40.41053421396588
    vertex 273.06047885757215 19.736275132033214 23.08946652685129
    vertex 273.06047885757215 29.136275132033425 23.08946652685129
  endloop
endfacet
facet normal 1.7278543609387716e-18 1.0 1.1420384260023831e-10
  outer loop
    vertex 263.6604791176543 29.136275130055388 40.41053435618378
    vertex 266.8615903126825 29.136275130553507 36.04876287506385
    vertex 266.81047904633107 29.136275130597905 35.66053430817169
  endloop
endfacet
facet normal 1.7278543609387716e-18 1.0 1.1420384260023831e-10
  outer loop
    vertex 266.8615903126825 29.136275130553507 36.04876287506385
    vertex 263.6604791176543 29.136275130055388 40.41053435618378
    vertex 267.0114409518303 29.13627513051218 36.410534305177116
  endloop
endfacet
facet normal 1.7278543609387716e-18 1.0 1.1420384260023831e-10
  outer loop
    vertex 267.0114409518303 29.13627513051218 36.410534305177116
    vertex 263.6604791176543 29.136275130055388 40.41053435618378
    vertex 267.2498188903563 29.136275130476804 36.72119447340484
  endloop
endfacet
facet normal 1.7278543609387716e-18 1.0 1.1420384260023831e-10
  outer loop
    vertex 267.2498188903563 29.136275130476804 36.72119447340484
    vertex 263.6604791176543 29.136275130055388 40.41053435618378
    vertex 267.56047906568824 29.13627513044955 36.95957240267248
  endloop
endfacet
facet normal 1.7278543609387716e-18 1.0 1.1420384260023831e-10
  outer loop
    vertex 267.56047906568824 29.13627513044955 36.95957240267248
    vertex 263.6604791176543 29.136275130055388 40.41053435618378
    vertex 273.06047911765427 29.136275130055388 40.41053421396588
  endloop
endfacet
facet normal 1.7278543609387716e-18 1.0 1.1420384260023831e-10
  outer loop
    vertex 267.56047906568824 29.13627513044955 36.95957240267248
    vertex 273.06047911765427 29.136275130055388 40.41053421396588
    vertex 267.9222505002674 29.136275130432406 37.10942303103861
  endloop
endfacet
facet normal 1.7278543609387716e-18 1.0 1.1420384260023831e-10
  outer loop
    vertex 267.9222505002674 29.136275130432406 37.10942303103861
    vertex 273.06047911765427 29.136275130055388 40.41053421396588
    vertex 268.3104790686828 29.136275130426633 37.16053428581995
  endloop
endfacet
facet normal 1.7278543609387716e-18 1.0 1.1420384260023831e-10
  outer loop
    vertex 268.3104790686828 29.136275130426633 37.16053428581995
    vertex 273.06047911765427 29.136275130055388 40.41053421396588
    vertex 268.698707635575 29.136275130432406 37.1094230194685
  endloop
endfacet
facet normal 1.7278543609387716e-18 1.0 1.1420384260023831e-10
  outer loop
    vertex 268.698707635575 29.136275130432406 37.1094230194685
    vertex 273.06047911765427 29.136275130055388 40.41053421396588
    vertex 269.06047906568824 29.13627513044955 36.959572380320736
  endloop
endfacet
facet normal 1.7278543609387716e-18 1.0 1.1420384260023831e-10
  outer loop
    vertex 269.06047906568824 29.13627513044955 36.959572380320736
    vertex 273.06047911765427 29.136275130055388 40.41053421396588
    vertex 269.3711392339159 29.136275130476804 36.721194441794715
  endloop
endfacet
facet normal 1.7278543609387716e-18 1.0 1.1420384260023831e-10
  outer loop
    vertex 269.3711392339159 29.136275130476804 36.721194441794715
    vertex 273.06047911765427 29.136275130055388 40.41053421396588
    vertex 269.6095171631836 29.13627513051236 36.41053426646279
  endloop
endfacet
facet normal 1.7278543609387716e-18 1.0 1.1420384260023831e-10
  outer loop
    vertex 269.6095171631836 29.13627513051236 36.41053426646279
    vertex 273.06047911765427 29.136275130055388 40.41053421396588
    vertex 269.7593677915497 29.136275130553507 36.048762831883614
  endloop
endfacet
facet normal 1.7278543609387716e-18 1.0 1.1420384260023831e-10
  outer loop
    vertex 269.7593677915497 29.136275130553507 36.048762831883614
    vertex 273.06047911765427 29.136275130055388 40.41053421396588
    vertex 269.81047904633107 29.136275130597905 35.660534263468215
  endloop
endfacet
facet normal 1.7278543609387716e-18 1.0 1.1420384260023831e-10
  outer loop
    vertex 269.81047904633107 29.136275130597905 35.660534263468215
    vertex 273.06047911765427 29.136275130055388 40.41053421396588
    vertex 273.06047885757215 29.136275132033425 23.08946652685129
  endloop
endfacet
facet normal 1.7278543609387716e-18 1.0 1.1420384260023831e-10
  outer loop
    vertex 263.6604791176543 29.136275130055388 40.41053435618378
    vertex 273.06047885757215 29.136275132033425 23.08946652685129
    vertex 263.6604788575722 29.136275132033425 23.089466669069193
  endloop
endfacet
facet normal 1.7278543609387716e-18 1.0 1.1420384260023831e-10
  outer loop
    vertex 273.06047885757215 29.136275132033425 23.08946652685129
    vertex 263.6604791176543 29.136275130055388 40.41053435618378
    vertex 267.0114409294785 29.13627513068345 34.91053430517712
  endloop
endfacet
facet normal 1.7278543609387716e-18 1.0 1.1420384260023831e-10
  outer loop
    vertex 267.0114409294785 29.13627513068345 34.91053430517712
    vertex 263.6604791176543 29.136275130055388 40.41053435618378
    vertex 266.8615903011124 29.136275130642304 35.2723057397563
  endloop
endfacet
facet normal 1.7278543609387716e-18 1.0 1.1420384260023831e-10
  outer loop
    vertex 266.8615903011124 29.136275130642304 35.2723057397563
    vertex 263.6604791176543 29.136275130055388 40.41053435618378
    vertex 266.81047904633107 29.136275130597905 35.66053430817169
  endloop
endfacet
facet normal 1.7278543609387716e-18 1.0 1.1420384260023831e-10
  outer loop
    vertex 273.06047885757215 29.136275132033425 23.08946652685129
    vertex 267.0114409294785 29.13627513068345 34.91053430517712
    vertex 267.2498188587462 29.136275130719007 34.5998741298452
  endloop
endfacet
facet normal 1.7278543609387716e-18 1.0 1.1420384260023831e-10
  outer loop
    vertex 273.06047885757215 29.136275132033425 23.08946652685129
    vertex 267.2498188587462 29.136275130719007 34.5998741298452
    vertex 267.5604790269739 29.136275130746256 34.361496191319176
  endloop
endfacet
facet normal 1.7278543609387716e-18 1.0 1.1420384260023831e-10
  outer loop
    vertex 273.06047885757215 29.136275132033425 23.08946652685129
    vertex 267.5604790269739 29.136275130746256 34.361496191319176
    vertex 267.92225045708716 29.1362751307634 34.211645552171404
  endloop
endfacet
facet normal 1.7278543609387716e-18 1.0 1.1420384260023831e-10
  outer loop
    vertex 273.06047885757215 29.136275132033425 23.08946652685129
    vertex 267.92225045708716 29.1362751307634 34.211645552171404
    vertex 268.3104790239793 29.136275130769178 34.160534285819956
  endloop
endfacet
facet normal 1.7278543609387716e-18 1.0 1.1420384260023831e-10
  outer loop
    vertex 273.06047885757215 29.136275132033425 23.08946652685129
    vertex 268.3104790239793 29.136275130769178 34.160534285819956
    vertex 268.6987075923947 29.1362751307634 34.211645540601296
  endloop
endfacet
facet normal 1.7278543609387716e-18 1.0 1.1420384260023831e-10
  outer loop
    vertex 273.06047885757215 29.136275132033425 23.08946652685129
    vertex 268.6987075923947 29.1362751307634 34.211645540601296
    vertex 269.06047902697395 29.136275130746256 34.36149616896744
  endloop
endfacet
facet normal 1.7278543609387716e-18 1.0 1.1420384260023831e-10
  outer loop
    vertex 273.06047885757215 29.136275132033425 23.08946652685129
    vertex 269.06047902697395 29.136275130746256 34.36149616896744
    vertex 269.3711392023058 29.136275130719007 34.59987409823506
  endloop
endfacet
facet normal 1.7278543609387716e-18 1.0 1.1420384260023831e-10
  outer loop
    vertex 273.06047885757215 29.136275132033425 23.08946652685129
    vertex 269.3711392023058 29.136275130719007 34.59987409823506
    vertex 269.6095171408318 29.136275130683632 34.91053426646279
  endloop
endfacet
facet normal 1.7278543609387716e-18 1.0 1.1420384260023831e-10
  outer loop
    vertex 273.06047885757215 29.136275132033425 23.08946652685129
    vertex 269.6095171408318 29.136275130683632 34.91053426646279
    vertex 269.75936777997964 29.136275130642304 35.272305696576055
  endloop
endfacet
facet normal 1.7278543609387716e-18 1.0 1.1420384260023831e-10
  outer loop
    vertex 273.06047885757215 29.136275132033425 23.08946652685129
    vertex 269.75936777997964 29.136275130642304 35.272305696576055
    vertex 269.81047904633107 29.136275130597905 35.660534263468215
  endloop
endfacet
facet normal -1.7017693256094509e-18 -1.0 -1.1420384260023831e-10
  outer loop
    vertex 273.06047885757215 19.736275132033214 23.08946652685129
    vertex 263.66047911765423 19.736275130055176 40.41053435403675
    vertex 263.6604788575722 19.736275132033214 23.08946666692214
  endloop
endfacet
facet normal -1.7017693256094509e-18 -1.0 -1.1420384260023831e-10
  outer loop
    vertex 263.66047911765423 19.736275130055176 40.41053435403675
    vertex 273.06047885757215 19.736275132033214 23.08946652685129
    vertex 267.01144092947874 19.736275130683058 34.91053430410355
  endloop
endfacet
facet normal -1.7017693256094509e-18 -1.0 -1.1420384260023831e-10
  outer loop
    vertex 263.66047911765423 19.736275130055176 40.41053435403675
    vertex 267.01144092947874 19.736275130683058 34.91053430410355
    vertex 266.86159030111264 19.73627513064191 35.272305738682725
  endloop
endfacet
facet normal -1.7017693256094509e-18 -1.0 -1.1420384260023831e-10
  outer loop
    vertex 263.66047911765423 19.736275130055176 40.41053435403675
    vertex 266.86159030111264 19.73627513064191 35.272305738682725
    vertex 266.8104790463313 19.736275130597512 35.66053430709812
  endloop
endfacet
facet normal -1.7017693256094509e-18 -1.0 -1.1420384260023831e-10
  outer loop
    vertex 267.01144092947874 19.736275130683058 34.91053430410355
    vertex 273.06047885757215 19.736275132033214 23.08946652685129
    vertex 267.24981885874644 19.736275130718614 34.599874128771624
  endloop
endfacet
facet normal -1.7017693256094509e-18 -1.0 -1.1420384260023831e-10
  outer loop
    vertex 267.24981885874644 19.736275130718614 34.599874128771624
    vertex 273.06047885757215 19.736275132033214 23.08946652685129
    vertex 267.5604790269741 19.736275130745867 34.3614961902456
  endloop
endfacet
facet normal -1.7017693256094509e-18 -1.0 -1.1420384260023831e-10
  outer loop
    vertex 267.5604790269741 19.736275130745867 34.3614961902456
    vertex 273.06047885757215 19.736275132033214 23.08946652685129
    vertex 267.9222504570874 19.736275130763012 34.21164555109783
  endloop
endfacet
facet normal -1.7017693256094509e-18 -1.0 -1.1420384260023831e-10
  outer loop
    vertex 267.9222504570874 19.736275130763012 34.21164555109783
    vertex 273.06047885757215 19.736275132033214 23.08946652685129
    vertex 268.31047902397955 19.736275130768785 34.16053428474638
  endloop
endfacet
facet normal -1.7017693256094509e-18 -1.0 -1.1420384260023831e-10
  outer loop
    vertex 268.31047902397955 19.736275130768785 34.16053428474638
    vertex 273.06047885757215 19.736275132033214 23.08946652685129
    vertex 268.69870759239495 19.736275130763012 34.21164553952772
  endloop
endfacet
facet normal -1.7017693256094509e-18 -1.0 -1.1420384260023831e-10
  outer loop
    vertex 268.69870759239495 19.736275130763012 34.21164553952772
    vertex 273.06047885757215 19.736275132033214 23.08946652685129
    vertex 269.0604790269742 19.736275130745867 34.36149616789387
  endloop
endfacet
facet normal -1.7017693256094509e-18 -1.0 -1.1420384260023831e-10
  outer loop
    vertex 269.0604790269742 19.736275130745867 34.36149616789387
    vertex 273.06047885757215 19.736275132033214 23.08946652685129
    vertex 269.37113920230604 19.736275130718614 34.59987409716149
  endloop
endfacet
facet normal -1.7017693256094509e-18 -1.0 -1.1420384260023831e-10
  outer loop
    vertex 269.37113920230604 19.736275130718614 34.59987409716149
    vertex 273.06047885757215 19.736275132033214 23.08946652685129
    vertex 269.60951714083205 19.73627513068324 34.91053426538922
  endloop
endfacet
facet normal -1.7017693256094509e-18 -1.0 -1.1420384260023831e-10
  outer loop
    vertex 269.60951714083205 19.73627513068324 34.91053426538922
    vertex 273.06047885757215 19.736275132033214 23.08946652685129
    vertex 269.75936777997987 19.73627513064191 35.27230569550248
  endloop
endfacet
facet normal -1.7017693256094509e-18 -1.0 -1.1420384260023831e-10
  outer loop
    vertex 269.75936777997987 19.73627513064191 35.27230569550248
    vertex 273.06047885757215 19.736275132033214 23.08946652685129
    vertex 269.8104790463313 19.736275130597512 35.66053426239465
  endloop
endfacet
facet normal -1.7017693256094509e-18 -1.0 -1.1420384260023831e-10
  outer loop
    vertex 263.66047911765423 19.736275130055176 40.41053435403675
    vertex 267.5604790656884 19.73627513044916 36.959572401598905
    vertex 273.06047911765427 19.736275130055176 40.41053421396588
  endloop
endfacet
facet normal -1.7017693256094509e-18 -1.0 -1.1420384260023831e-10
  outer loop
    vertex 267.5604790656884 19.73627513044916 36.959572401598905
    vertex 263.66047911765423 19.736275130055176 40.41053435403675
    vertex 267.24981889035655 19.73627513047641 36.72119447233127
  endloop
endfacet
facet normal -1.7017693256094509e-18 -1.0 -1.1420384260023831e-10
  outer loop
    vertex 267.24981889035655 19.73627513047641 36.72119447233127
    vertex 263.66047911765423 19.736275130055176 40.41053435403675
    vertex 267.01144095183054 19.736275130511785 36.41053430410354
  endloop
endfacet
facet normal -1.7017693256094509e-18 -1.0 -1.1420384260023831e-10
  outer loop
    vertex 267.01144095183054 19.736275130511785 36.41053430410354
    vertex 263.66047911765423 19.736275130055176 40.41053435403675
    vertex 266.8615903126827 19.736275130553114 36.04876287399028
  endloop
endfacet
facet normal -1.7017693256094509e-18 -1.0 -1.1420384260023831e-10
  outer loop
    vertex 266.8615903126827 19.736275130553114 36.04876287399028
    vertex 263.66047911765423 19.736275130055176 40.41053435403675
    vertex 266.8104790463313 19.736275130597512 35.66053430709812
  endloop
endfacet
facet normal -1.7017693256094509e-18 -1.0 -1.1420384260023831e-10
  outer loop
    vertex 273.06047911765427 19.736275130055176 40.41053421396588
    vertex 267.5604790656884 19.73627513044916 36.959572401598905
    vertex 267.92225050026764 19.736275130432016 37.109423029965036
  endloop
endfacet
facet normal -1.7017693256094509e-18 -1.0 -1.1420384260023831e-10
  outer loop
    vertex 273.06047911765427 19.736275130055176 40.41053421396588
    vertex 267.92225050026764 19.736275130432016 37.109423029965036
    vertex 268.31047906868304 19.73627513042624 37.160534284746376
  endloop
endfacet
facet normal -1.7017693256094509e-18 -1.0 -1.1420384260023831e-10
  outer loop
    vertex 273.06047911765427 19.736275130055176 40.41053421396588
    vertex 268.31047906868304 19.73627513042624 37.160534284746376
    vertex 268.6987076355752 19.736275130432016 37.10942301839493
  endloop
endfacet
facet normal -1.7017693256094509e-18 -1.0 -1.1420384260023831e-10
  outer loop
    vertex 273.06047911765427 19.736275130055176 40.41053421396588
    vertex 268.6987076355752 19.736275130432016 37.10942301839493
    vertex 269.06047906568847 19.73627513044916 36.95957237924717
  endloop
endfacet
facet normal -1.7017693256094509e-18 -1.0 -1.1420384260023831e-10
  outer loop
    vertex 273.06047911765427 19.736275130055176 40.41053421396588
    vertex 269.06047906568847 19.73627513044916 36.95957237924717
    vertex 269.37113923391615 19.73627513047641 36.72119444072114
  endloop
endfacet
facet normal -1.7017693256094509e-18 -1.0 -1.1420384260023831e-10
  outer loop
    vertex 273.06047911765427 19.736275130055176 40.41053421396588
    vertex 269.37113923391615 19.73627513047641 36.72119444072114
    vertex 269.60951716318385 19.736275130511967 36.41053426538922
  endloop
endfacet
facet normal -1.7017693256094509e-18 -1.0 -1.1420384260023831e-10
  outer loop
    vertex 273.06047911765427 19.736275130055176 40.41053421396588
    vertex 269.60951716318385 19.736275130511967 36.41053426538922
    vertex 269.75936779154995 19.736275130553114 36.04876283081004
  endloop
endfacet
facet normal -1.7017693256094509e-18 -1.0 -1.1420384260023831e-10
  outer loop
    vertex 273.06047911765427 19.736275130055176 40.41053421396588
    vertex 269.75936779154995 19.736275130553114 36.04876283081004
    vertex 269.8104790463313 19.736275130597512 35.66053426239465
  endloop
endfacet
facet normal -1.7017693256094509e-18 -1.0 -1.1420384260023831e-10
  outer loop
    vertex 273.06047911765427 19.736275130055176 40.41053421396588
    vertex 269.8104790463313 19.736275130597512 35.66053426239465
    vertex 273.06047885757215 19.736275132033214 23.08946652685129
  endloop
endfacet
facet normal 1.5015360291130284e-08 -1.1420384260023831e-10 1.0
  outer loop
    vertex 273.06047911765427 19.736275130055176 40.41053421396588
    vertex 269.1369362529618 21.538497651187985 40.41053427254835
    vertex 263.66047911765423 19.736275130055176 40.41053435403675
  endloop
endfacet
facet normal 1.5015360291130284e-08 -1.1420384260023831e-10 1.0
  outer loop
    vertex 269.1369362529618 21.538497651187985 40.41053427254835
    vertex 273.06047911765427 19.736275130055176 40.41053421396588
    vertex 269.8604791176542 21.838198918701845 40.410534261718304
  endloop
endfacet
facet normal 1.5015360291130284e-08 -1.1420384260023831e-10 1.0
  outer loop
    vertex 269.8604791176542 21.838198918701845 40.410534261718304
    vertex 273.06047911765427 19.736275130055176 40.41053421396588
    vertex 270.4817994612139 22.314954786495587 40.4105342524434
  endloop
endfacet
facet normal 1.5015360291130284e-08 -1.1420384260023831e-10 1.0
  outer loop
    vertex 270.4817994612139 22.314954786495587 40.4105342524434
    vertex 273.06047911765427 19.736275130055176 40.41053421396588
    vertex 270.95855532900754 22.936275130055172 40.4105342453557
  endloop
endfacet
facet normal 1.5015360291130284e-08 -1.1420384260023831e-10 1.0
  outer loop
    vertex 270.95855532900754 22.936275130055172 40.4105342453557
    vertex 273.06047911765427 19.736275130055176 40.41053421396588
    vertex 271.2582565965214 23.659817994747588 40.41053424093822
  endloop
endfacet
facet normal 1.5015360291130284e-08 -1.1420384260023831e-10 1.0
  outer loop
    vertex 271.2582565965214 23.659817994747588 40.41053424093822
    vertex 273.06047911765427 19.736275130055176 40.41053421396588
    vertex 273.06047911765427 29.136275130055388 40.41053421396588
  endloop
endfacet
facet normal 1.5015360291130284e-08 -1.1420384260023831e-10 1.0
  outer loop
    vertex 263.66047911765423 19.736275130055176 40.41053435403675
    vertex 269.1369362529618 21.538497651187985 40.41053427254835
    vertex 268.36047911765417 21.43627513005515 40.41053428419543
  endloop
endfacet
facet normal 1.5015360291130284e-08 -1.1420384260023831e-10 1.0
  outer loop
    vertex 271.2582565965214 23.659817994747588 40.41053424093822
    vertex 273.06047911765427 29.136275130055388 40.41053421396588
    vertex 271.3604791176542 24.43627513005519 40.41053423949195
  endloop
endfacet
facet normal 1.5015360291130284e-08 -1.1420384260023831e-10 1.0
  outer loop
    vertex 271.3604791176542 24.43627513005519 40.41053423949195
    vertex 273.06047911765427 29.136275130055388 40.41053421396588
    vertex 271.2582565965214 25.212732265362792 40.410534241115535
  endloop
endfacet
facet normal 1.5015360291130284e-08 -1.1420384260023831e-10 1.0
  outer loop
    vertex 271.2582565965214 25.212732265362792 40.410534241115535
    vertex 273.06047911765427 29.136275130055388 40.41053421396588
    vertex 270.95855532900754 25.936275130055215 40.410534245698294
  endloop
endfacet
facet normal 1.5015360291130284e-08 -1.1420384260023831e-10 1.0
  outer loop
    vertex 270.95855532900754 25.936275130055215 40.410534245698294
    vertex 273.06047911765427 29.136275130055388 40.41053421396588
    vertex 270.4817994612139 26.557595473614796 40.41053425292789
  endloop
endfacet
facet normal 1.5015360291130284e-08 -1.1420384260023831e-10 1.0
  outer loop
    vertex 270.4817994612139 26.557595473614796 40.41053425292789
    vertex 273.06047911765427 29.136275130055388 40.41053421396588
    vertex 269.8604791176542 27.034351341408538 40.41053426231172
  endloop
endfacet
facet normal 1.5015360291130284e-08 -1.1420384260023831e-10 1.0
  outer loop
    vertex 269.8604791176542 27.034351341408538 40.41053426231172
    vertex 273.06047911765427 29.136275130055388 40.41053421396588
    vertex 269.1369362529618 27.3340526089224 40.41053427321016
  endloop
endfacet
facet normal 1.5015360291130284e-08 -1.1420384260023831e-10 1.0
  outer loop
    vertex 269.1369362529618 27.3340526089224 40.41053427321016
    vertex 273.06047911765427 29.136275130055388 40.41053421396588
    vertex 268.36047911765417 27.436275130055233 40.41053428488061
  endloop
endfacet
facet normal 1.5015360291130284e-08 -1.1420384260023831e-10 1.0
  outer loop
    vertex 263.66047911765423 19.736275130055176 40.41053435403675
    vertex 265.462701638787 23.659817994747588 40.41053432796051
    vertex 263.6604791176543 29.136275130055388 40.41053435618378
  endloop
endfacet
facet normal 1.5015360291130284e-08 -1.1420384260023831e-10 1.0
  outer loop
    vertex 265.462701638787 23.659817994747588 40.41053432796051
    vertex 263.66047911765423 19.736275130055176 40.41053435403675
    vertex 265.76240290630096 22.936275130055172 40.41053432337775
  endloop
endfacet
facet normal 1.5015360291130284e-08 -1.1420384260023831e-10 1.0
  outer loop
    vertex 265.76240290630096 22.936275130055172 40.41053432337775
    vertex 263.66047911765423 19.736275130055176 40.41053435403675
    vertex 266.2391587740946 22.314954786495587 40.41053431614816
  endloop
endfacet
facet normal 1.5015360291130284e-08 -1.1420384260023831e-10 1.0
  outer loop
    vertex 266.2391587740946 22.314954786495587 40.41053431614816
    vertex 263.66047911765423 19.736275130055176 40.41053435403675
    vertex 266.8604791176542 21.838198918701845 40.410534306764376
  endloop
endfacet
facet normal 1.5015360291130284e-08 -1.1420384260023831e-10 1.0
  outer loop
    vertex 266.8604791176542 21.838198918701845 40.410534306764376
    vertex 263.66047911765423 19.736275130055176 40.41053435403675
    vertex 267.58402198234666 21.538497651187985 40.410534295865894
  endloop
endfacet
facet normal 1.5015360291130284e-08 -1.1420384260023831e-10 1.0
  outer loop
    vertex 267.58402198234666 21.538497651187985 40.410534295865894
    vertex 263.66047911765423 19.736275130055176 40.41053435403675
    vertex 268.36047911765417 21.43627513005515 40.41053428419543
  endloop
endfacet
facet normal 1.5015360291130284e-08 -1.1420384260023831e-10 1.0
  outer loop
    vertex 263.6604791176543 29.136275130055388 40.41053435618378
    vertex 265.462701638787 23.659817994747588 40.41053432796051
    vertex 265.3604791176542 24.43627513005519 40.410534329584095
  endloop
endfacet
facet normal 1.5015360291130284e-08 -1.1420384260023831e-10 1.0
  outer loop
    vertex 263.6604791176543 29.136275130055388 40.41053435618378
    vertex 265.3604791176542 24.43627513005519 40.410534329584095
    vertex 265.462701638787 25.212732265362792 40.41053432813788
  endloop
endfacet
facet normal 1.5015360291130284e-08 -1.1420384260023831e-10 1.0
  outer loop
    vertex 263.6604791176543 29.136275130055388 40.41053435618378
    vertex 265.462701638787 25.212732265362792 40.41053432813788
    vertex 265.76240290630096 25.936275130055215 40.41053432372039
  endloop
endfacet
facet normal 1.5015360291130284e-08 -1.1420384260023831e-10 1.0
  outer loop
    vertex 263.6604791176543 29.136275130055388 40.41053435618378
    vertex 265.76240290630096 25.936275130055215 40.41053432372039
    vertex 266.2391587740946 26.557595473614796 40.41053431663265
  endloop
endfacet
facet normal 1.5015360291130284e-08 -1.1420384260023831e-10 1.0
  outer loop
    vertex 263.6604791176543 29.136275130055388 40.41053435618378
    vertex 266.2391587740946 26.557595473614796 40.41053431663265
    vertex 266.8604791176542 27.034351341408538 40.410534307357786
  endloop
endfacet
facet normal 1.5015360291130284e-08 -1.1420384260023831e-10 1.0
  outer loop
    vertex 263.6604791176543 29.136275130055388 40.41053435618378
    vertex 266.8604791176542 27.034351341408538 40.410534307357786
    vertex 267.58402198234666 27.3340526089224 40.41053429652775
  endloop
endfacet
facet normal 1.5015360291130284e-08 -1.1420384260023831e-10 1.0
  outer loop
    vertex 263.6604791176543 29.136275130055388 40.41053435618378
    vertex 267.58402198234666 27.3340526089224 40.41053429652775
    vertex 268.36047911765417 27.436275130055233 40.41053428488061
  endloop
endfacet
facet normal 1.5015360291130284e-08 -1.1420384260023831e-10 1.0
  outer loop
    vertex 263.6604791176543 29.136275130055388 40.41053435618378
    vertex 268.36047911765417 27.436275130055233 40.41053428488061
    vertex 273.06047911765427 29.136275130055388 40.41053421396588
  endloop
endfacet
facet normal 0.8660254112350133 -5.7086448948468236e-11 0.4999999870952261
  outer loop
    vertex 267.01144092947874 19.736275130683058 34.91053430410355
    vertex 267.2498188587462 29.136275130719007 34.5998741298452
    vertex 267.0114409294785 29.13627513068345 34.91053430517712
  endloop
endfacet
facet normal 0.707106791723239 -8.074141988719729e-11 0.707106770649856
  outer loop
    vertex 267.2498188587462 29.136275130719007 34.5998741298452
    vertex 267.01144092947874 19.736275130683058 34.91053430410355
    vertex 267.24981885874644 19.736275130718614 34.599874128771624
  endloop
endfacet
facet normal 0.5000000129047787 -9.889399649211601e-11 0.8660253963338611
  outer loop
    vertex 267.5604790269741 19.736275130745867 34.3614961902456
    vertex 267.2498188587462 29.136275130719007 34.5998741298452
    vertex 267.24981885874644 19.736275130718614 34.599874128771624
  endloop
endfacet
facet normal 0.707106791723239 -8.074141988719729e-11 0.707106770649856
  outer loop
    vertex 267.2498188587462 29.136275130719007 34.5998741298452
    vertex 267.5604790269741 19.736275130745867 34.3614961902456
    vertex 267.5604790269739 29.136275130746256 34.361496191319176
  endloop
endfacet
facet normal 0.25881905949594036 -1.1030711066615503e-10 0.965925822432363
  outer loop
    vertex 267.9222504570874 19.736275130763012 34.21164555109783
    vertex 267.5604790269739 29.136275130746256 34.361496191319176
    vertex 267.5604790269741 19.736275130745867 34.3614961902456
  endloop
endfacet
facet normal 0.5000000129047709 -9.889399649211654e-11 0.8660253963338657
  outer loop
    vertex 267.5604790269739 29.136275130746256 34.361496191319176
    vertex 267.9222504570874 19.736275130763012 34.21164555109783
    vertex 267.92225045708716 29.1362751307634 34.211645552171404
  endloop
endfacet
facet normal 1.4901156852412901e-08 -1.1420297753941558e-10 1.0
  outer loop
    vertex 268.31047902397955 19.736275130768785 34.16053428474638
    vertex 267.92225045708716 29.1362751307634 34.211645552171404
    vertex 267.9222504570874 19.736275130763012 34.21164555109783
  endloop
endfacet
facet normal 0.2588190594959505 -1.1030711066615474e-10 0.9659258224323602
  outer loop
    vertex 267.92225045708716 29.1362751307634 34.211645552171404
    vertex 268.31047902397955 19.736275130768785 34.16053428474638
    vertex 268.3104790239793 29.136275130769178 34.160534285819956
  endloop
endfacet
facet normal -0.25881903070910783 -1.103161002227085e-10 0.9659258301457716
  outer loop
    vertex 268.6987075923947 29.1362751307634 34.211645540601296
    vertex 268.31047902397955 19.736275130768785 34.16053428474638
    vertex 268.69870759239495 19.736275130763012 34.21164553952772
  endloop
endfacet
facet normal 1.4901156852412901e-08 -1.1420297753941558e-10 1.0
  outer loop
    vertex 268.31047902397955 19.736275130768785 34.16053428474638
    vertex 268.6987075923947 29.1362751307634 34.211645540601296
    vertex 268.3104790239793 29.136275130769178 34.160534285819956
  endloop
endfacet
facet normal -0.49999998709520943 -9.891136298179987e-11 0.866025411235023
  outer loop
    vertex 269.06047902697395 29.136275130746256 34.36149616896744
    vertex 268.69870759239495 19.736275130763012 34.21164553952772
    vertex 269.0604790269742 19.736275130745867 34.36149616789387
  endloop
endfacet
facet normal -0.25881903070910506 -1.1031610022270858e-10 0.9659258301457724
  outer loop
    vertex 268.69870759239495 19.736275130763012 34.21164553952772
    vertex 269.06047902697395 29.136275130746256 34.36149616896744
    vertex 268.6987075923947 29.1362751307634 34.211645540601296
  endloop
endfacet
facet normal -0.7071067706498545 -8.076597981243434e-11 0.7071067917232405
  outer loop
    vertex 269.3711392023058 29.136275130719007 34.59987409823506
    vertex 269.0604790269742 19.736275130745867 34.36149616789387
    vertex 269.37113920230604 19.736275130718614 34.59987409716149
  endloop
endfacet
facet normal -0.4999999870952233 -9.891136298179898e-11 0.866025411235015
  outer loop
    vertex 269.0604790269742 19.736275130745867 34.36149616789387
    vertex 269.3711392023058 29.136275130719007 34.59987409823506
    vertex 269.06047902697395 29.136275130746256 34.36149616896744
  endloop
endfacet
facet normal -0.7071067706498545 -8.076597981243434e-11 0.7071067917232405
  outer loop
    vertex 269.3711392023058 29.136275130719007 34.59987409823506
    vertex 269.60951714083205 19.73627513068324 34.91053426538922
    vertex 269.6095171408318 29.136275130683632 34.91053426646279
  endloop
endfacet
facet normal -0.8660253963338589 -5.7116528590948335e-11 0.5000000129047828
  outer loop
    vertex 269.60951714083205 19.73627513068324 34.91053426538922
    vertex 269.3711392023058 29.136275130719007 34.59987409823506
    vertex 269.37113920230604 19.736275130718614 34.59987409716149
  endloop
endfacet
facet normal -0.866025396333868 -5.7116528590946507e-11 0.5000000129047669
  outer loop
    vertex 269.6095171408318 29.136275130683632 34.91053426646279
    vertex 269.75936777997987 19.73627513064191 35.27230569550248
    vertex 269.75936777997964 29.136275130642304 35.272305696576055
  endloop
endfacet
facet normal -0.9659258224323638 -2.957468033551376e-11 0.25881905949593775
  outer loop
    vertex 269.75936777997987 19.73627513064191 35.27230569550248
    vertex 269.6095171408318 29.136275130683632 34.91053426646279
    vertex 269.60951714083205 19.73627513068324 34.91053426538922
  endloop
endfacet
facet normal -0.9659258224323597 -2.957468033551552e-11 0.25881905949595313
  outer loop
    vertex 269.75936777997964 29.136275130642304 35.272305696576055
    vertex 269.8104790463313 19.736275130597512 35.66053426239465
    vertex 269.81047904633107 29.136275130597905 35.660534263468215
  endloop
endfacet
facet normal -1.0 -1.7366489682079078e-14 1.4901146426414323e-08
  outer loop
    vertex 269.8104790463313 19.736275130597512 35.66053426239465
    vertex 269.75936777997964 29.136275130642304 35.272305696576055
    vertex 269.75936777997987 19.73627513064191 35.27230569550248
  endloop
endfacet
facet normal -1.0 -1.7366489684917305e-14 1.4901171270588712e-08
  outer loop
    vertex 269.81047904633107 29.136275130597905 35.660534263468215
    vertex 269.75936779154995 19.736275130553114 36.04876283081004
    vertex 269.7593677915497 29.136275130553507 36.048762831883614
  endloop
endfacet
facet normal -0.9659258301457753 2.954113085371752e-11 -0.2588190307090945
  outer loop
    vertex 269.75936779154995 19.736275130553114 36.04876283081004
    vertex 269.81047904633107 29.136275130597905 35.660534263468215
    vertex 269.8104790463313 19.736275130597512 35.66053426239465
  endloop
endfacet
facet normal -0.9659258301457688 2.9541130853720245e-11 -0.25881903070911844
  outer loop
    vertex 269.7593677915497 29.136275130553507 36.048762831883614
    vertex 269.60951716318385 19.736275130511967 36.41053426538922
    vertex 269.6095171631836 29.13627513051236 36.41053426646279
  endloop
endfacet
facet normal -0.8660254112350245 5.708644894846602e-11 -0.49999998709520654
  outer loop
    vertex 269.60951716318385 19.736275130511967 36.41053426538922
    vertex 269.7593677915497 29.136275130553507 36.048762831883614
    vertex 269.75936779154995 19.736275130553114 36.04876283081004
  endloop
endfacet
facet normal -0.8660254112350133 5.7086448948468236e-11 -0.4999999870952261
  outer loop
    vertex 269.6095171631836 29.13627513051236 36.41053426646279
    vertex 269.37113923391615 19.73627513047641 36.72119444072114
    vertex 269.3711392339159 29.136275130476804 36.721194441794715
  endloop
endfacet
facet normal -0.707106791723239 8.074141988719729e-11 -0.707106770649856
  outer loop
    vertex 269.37113923391615 19.73627513047641 36.72119444072114
    vertex 269.6095171631836 29.13627513051236 36.41053426646279
    vertex 269.60951716318385 19.736275130511967 36.41053426538922
  endloop
endfacet
facet normal -0.5000000129047787 9.889399649211601e-11 -0.8660253963338611
  outer loop
    vertex 269.06047906568824 29.13627513044955 36.959572380320736
    vertex 269.37113923391615 19.73627513047641 36.72119444072114
    vertex 269.06047906568847 19.73627513044916 36.95957237924717
  endloop
endfacet
facet normal -0.707106791723239 8.074141988719729e-11 -0.707106770649856
  outer loop
    vertex 269.37113923391615 19.73627513047641 36.72119444072114
    vertex 269.06047906568824 29.13627513044955 36.959572380320736
    vertex 269.3711392339159 29.136275130476804 36.721194441794715
  endloop
endfacet
facet normal -0.25881905949594036 1.1030711066615503e-10 -0.965925822432363
  outer loop
    vertex 268.698707635575 29.136275130432406 37.1094230194685
    vertex 269.06047906568847 19.73627513044916 36.95957237924717
    vertex 268.6987076355752 19.736275130432016 37.10942301839493
  endloop
endfacet
facet normal -0.5000000129047709 9.889399649211654e-11 -0.8660253963338657
  outer loop
    vertex 269.06047906568847 19.73627513044916 36.95957237924717
    vertex 268.698707635575 29.136275130432406 37.1094230194685
    vertex 269.06047906568824 29.13627513044955 36.959572380320736
  endloop
endfacet
facet normal -1.4901156852412901e-08 1.1420297753941558e-10 -1.0
  outer loop
    vertex 268.3104790686828 29.136275130426633 37.16053428581995
    vertex 268.6987076355752 19.736275130432016 37.10942301839493
    vertex 268.31047906868304 19.73627513042624 37.160534284746376
  endloop
endfacet
facet normal -0.2588190594959505 1.1030711066615474e-10 -0.9659258224323602
  outer loop
    vertex 268.6987076355752 19.736275130432016 37.10942301839493
    vertex 268.3104790686828 29.136275130426633 37.16053428581995
    vertex 268.698707635575 29.136275130432406 37.1094230194685
  endloop
endfacet
facet normal 0.25881903070910783 1.103161002227085e-10 -0.9659258301457716
  outer loop
    vertex 267.92225050026764 19.736275130432016 37.109423029965036
    vertex 268.3104790686828 29.136275130426633 37.16053428581995
    vertex 268.31047906868304 19.73627513042624 37.160534284746376
  endloop
endfacet
facet normal -1.4901156852412901e-08 1.1420297753941558e-10 -1.0
  outer loop
    vertex 268.3104790686828 29.136275130426633 37.16053428581995
    vertex 267.92225050026764 19.736275130432016 37.109423029965036
    vertex 267.9222505002674 29.136275130432406 37.10942303103861
  endloop
endfacet
facet normal 0.49999998709520943 9.891136298179987e-11 -0.866025411235023
  outer loop
    vertex 267.5604790656884 19.73627513044916 36.959572401598905
    vertex 267.9222505002674 29.136275130432406 37.10942303103861
    vertex 267.92225050026764 19.736275130432016 37.109423029965036
  endloop
endfacet
facet normal 0.25881903070910506 1.1031610022270858e-10 -0.9659258301457724
  outer loop
    vertex 267.9222505002674 29.136275130432406 37.10942303103861
    vertex 267.5604790656884 19.73627513044916 36.959572401598905
    vertex 267.56047906568824 29.13627513044955 36.95957240267248
  endloop
endfacet
facet normal 0.7071067706498545 8.076597981243434e-11 -0.7071067917232405
  outer loop
    vertex 267.24981889035655 19.73627513047641 36.72119447233127
    vertex 267.56047906568824 29.13627513044955 36.95957240267248
    vertex 267.5604790656884 19.73627513044916 36.959572401598905
  endloop
endfacet
facet normal 0.4999999870952233 9.891136298179898e-11 -0.866025411235015
  outer loop
    vertex 267.56047906568824 29.13627513044955 36.95957240267248
    vertex 267.24981889035655 19.73627513047641 36.72119447233127
    vertex 267.2498188903563 29.136275130476804 36.72119447340484
  endloop
endfacet
facet normal 0.7071067706498545 8.076597981243434e-11 -0.7071067917232405
  outer loop
    vertex 267.24981889035655 19.73627513047641 36.72119447233127
    vertex 267.0114409518303 29.13627513051218 36.410534305177116
    vertex 267.2498188903563 29.136275130476804 36.72119447340484
  endloop
endfacet
facet normal 0.8660253963338589 5.7116528590948335e-11 -0.5000000129047828
  outer loop
    vertex 267.0114409518303 29.13627513051218 36.410534305177116
    vertex 267.24981889035655 19.73627513047641 36.72119447233127
    vertex 267.01144095183054 19.736275130511785 36.41053430410354
  endloop
endfacet
facet normal 0.866025396333868 5.7116528590946507e-11 -0.5000000129047669
  outer loop
    vertex 267.01144095183054 19.736275130511785 36.41053430410354
    vertex 266.8615903126825 29.136275130553507 36.04876287506385
    vertex 267.0114409518303 29.13627513051218 36.410534305177116
  endloop
endfacet
facet normal 0.9659258224323638 2.957468033551376e-11 -0.25881905949593775
  outer loop
    vertex 266.8615903126825 29.136275130553507 36.04876287506385
    vertex 267.01144095183054 19.736275130511785 36.41053430410354
    vertex 266.8615903126827 19.736275130553114 36.04876287399028
  endloop
endfacet
facet normal 0.9659258224323597 2.957468033551552e-11 -0.25881905949595313
  outer loop
    vertex 266.8615903126827 19.736275130553114 36.04876287399028
    vertex 266.81047904633107 29.136275130597905 35.66053430817169
    vertex 266.8615903126825 29.136275130553507 36.04876287506385
  endloop
endfacet
facet normal 1.0 1.7366489682079078e-14 -1.4901146426414323e-08
  outer loop
    vertex 266.81047904633107 29.136275130597905 35.66053430817169
    vertex 266.8615903126827 19.736275130553114 36.04876287399028
    vertex 266.8104790463313 19.736275130597512 35.66053430709812
  endloop
endfacet
facet normal 1.0 1.7366489684917305e-14 -1.4901171270588712e-08
  outer loop
    vertex 266.8104790463313 19.736275130597512 35.66053430709812
    vertex 266.8615903011124 29.136275130642304 35.2723057397563
    vertex 266.81047904633107 29.136275130597905 35.66053430817169
  endloop
endfacet
facet normal 0.9659258301457753 -2.954113085371752e-11 0.2588190307090945
  outer loop
    vertex 266.8615903011124 29.136275130642304 35.2723057397563
    vertex 266.8104790463313 19.736275130597512 35.66053430709812
    vertex 266.86159030111264 19.73627513064191 35.272305738682725
  endloop
endfacet
facet normal 0.9659258301457688 -2.9541130853720245e-11 0.25881903070911844
  outer loop
    vertex 266.86159030111264 19.73627513064191 35.272305738682725
    vertex 267.0114409294785 29.13627513068345 34.91053430517712
    vertex 266.8615903011124 29.136275130642304 35.2723057397563
  endloop
endfacet
facet normal 0.8660254112350245 -5.708644894846602e-11 0.49999998709520654
  outer loop
    vertex 267.0114409294785 29.13627513068345 34.91053430517712
    vertex 266.86159030111264 19.73627513064191 35.272305738682725
    vertex 267.01144092947874 19.736275130683058 34.91053430410355
  endloop
endfacet
facet normal 1.5015356003012483e-08 -1.1419886657578868e-10 1.0
  outer loop
    vertex 269.13693667339174 21.53849764799046 68.41053427201159
    vertex 267.5840224027766 21.53849764799046 68.41053429532917
    vertex 268.3604795380842 21.436275126857627 68.4105342836587
  endloop
endfacet
facet normal 1.5015356003012483e-08 -1.1419886657578868e-10 1.0
  outer loop
    vertex 267.5840224027766 21.53849764799046 68.41053429532917
    vertex 269.13693667339174 21.53849764799046 68.41053427201159
    vertex 269.8604795380841 21.838198915504318 68.41053426118157
  endloop
endfacet
facet normal 1.5015356003012483e-08 -1.1419886657578868e-10 1.0
  outer loop
    vertex 267.5840224027766 21.53849764799046 68.41053429532917
    vertex 269.8604795380841 21.838198915504318 68.41053426118157
    vertex 266.8604795380842 21.838198915504318 68.41053430622762
  endloop
endfacet
facet normal 1.5015356003012483e-08 -1.1419886657578868e-10 1.0
  outer loop
    vertex 266.8604795380842 21.838198915504318 68.41053430622762
    vertex 269.8604795380841 21.838198915504318 68.41053426118157
    vertex 270.48179988164384 22.314954783298063 68.41053425190667
  endloop
endfacet
facet normal 1.5015356003012483e-08 -1.1419886657578868e-10 1.0
  outer loop
    vertex 266.8604795380842 21.838198915504318 68.41053430622762
    vertex 270.48179988164384 22.314954783298063 68.41053425190667
    vertex 266.2391591945245 22.314954783298063 68.41053431561143
  endloop
endfacet
facet normal 1.5015356003012483e-08 -1.1419886657578868e-10 1.0
  outer loop
    vertex 266.2391591945245 22.314954783298063 68.41053431561143
    vertex 270.48179988164384 22.314954783298063 68.41053425190667
    vertex 270.9585557494375 22.936275126857645 68.41053424481895
  endloop
endfacet
facet normal 1.5015356003012483e-08 -1.1419886657578868e-10 1.0
  outer loop
    vertex 266.2391591945245 22.314954783298063 68.41053431561143
    vertex 270.9585557494375 22.936275126857645 68.41053424481895
    vertex 265.76240332673086 22.936275126857645 68.41053432284103
  endloop
endfacet
facet normal 1.5015356003012483e-08 -1.1419886657578868e-10 1.0
  outer loop
    vertex 265.76240332673086 22.936275126857645 68.41053432284103
    vertex 270.9585557494375 22.936275126857645 68.41053424481895
    vertex 271.25825701695135 23.659817991550064 68.41053424040147
  endloop
endfacet
facet normal 1.5015356003012483e-08 -1.1419886657578868e-10 1.0
  outer loop
    vertex 265.76240332673086 22.936275126857645 68.41053432284103
    vertex 271.25825701695135 23.659817991550064 68.41053424040147
    vertex 265.46270205921695 23.659817991550064 68.41053432742379
  endloop
endfacet
facet normal 1.5015356003012483e-08 -1.1419886657578868e-10 1.0
  outer loop
    vertex 265.46270205921695 23.659817991550064 68.41053432742379
    vertex 271.25825701695135 23.659817991550064 68.41053424040147
    vertex 271.3604795380842 24.436275126857666 68.41053423895522
  endloop
endfacet
facet normal 1.5015356003012483e-08 -1.1419886657578868e-10 1.0
  outer loop
    vertex 265.46270205921695 23.659817991550064 68.41053432742379
    vertex 271.3604795380842 24.436275126857666 68.41053423895522
    vertex 265.3604795380842 24.436275126857666 68.41053432904738
  endloop
endfacet
facet normal 1.5015356003012483e-08 -1.1419886657578868e-10 1.0
  outer loop
    vertex 265.3604795380842 24.436275126857666 68.41053432904738
    vertex 271.3604795380842 24.436275126857666 68.41053423895522
    vertex 271.25825701695135 25.212732262165268 68.41053424057881
  endloop
endfacet
facet normal 1.5015356003012483e-08 -1.1419886657578868e-10 1.0
  outer loop
    vertex 265.3604795380842 24.436275126857666 68.41053432904738
    vertex 271.25825701695135 25.212732262165268 68.41053424057881
    vertex 265.46270205921695 25.212732262165268 68.41053432760113
  endloop
endfacet
facet normal 1.5015356003012483e-08 -1.1419886657578868e-10 1.0
  outer loop
    vertex 265.46270205921695 25.212732262165268 68.41053432760113
    vertex 271.25825701695135 25.212732262165268 68.41053424057881
    vertex 270.9585557494375 25.936275126857687 68.41053424516156
  endloop
endfacet
facet normal 1.5015356003012483e-08 -1.1419886657578868e-10 1.0
  outer loop
    vertex 265.46270205921695 25.212732262165268 68.41053432760113
    vertex 270.9585557494375 25.936275126857687 68.41053424516156
    vertex 265.76240332673086 25.936275126857687 68.41053432318365
  endloop
endfacet
facet normal 1.5015356003012483e-08 -1.1419886657578868e-10 1.0
  outer loop
    vertex 265.76240332673086 25.936275126857687 68.41053432318365
    vertex 270.9585557494375 25.936275126857687 68.41053424516156
    vertex 270.48179988164384 26.55759547041727 68.41053425239117
  endloop
endfacet
facet normal 1.5015356003012483e-08 -1.1419886657578868e-10 1.0
  outer loop
    vertex 265.76240332673086 25.936275126857687 68.41053432318365
    vertex 270.48179988164384 26.55759547041727 68.41053425239117
    vertex 266.2391591945245 26.55759547041727 68.41053431609592
  endloop
endfacet
facet normal 1.5015356003012483e-08 -1.1419886657578868e-10 1.0
  outer loop
    vertex 266.2391591945245 26.55759547041727 68.41053431609592
    vertex 270.48179988164384 26.55759547041727 68.41053425239117
    vertex 269.8604795380841 27.034351338211014 68.41053426177497
  endloop
endfacet
facet normal 1.5015356003012483e-08 -1.1419886657578868e-10 1.0
  outer loop
    vertex 266.2391591945245 26.55759547041727 68.41053431609592
    vertex 269.8604795380841 27.034351338211014 68.41053426177497
    vertex 266.8604795380842 27.034351338211014 68.41053430682103
  endloop
endfacet
facet normal 1.5015356003012483e-08 -1.1419886657578868e-10 1.0
  outer loop
    vertex 266.8604795380842 27.034351338211014 68.41053430682103
    vertex 269.8604795380841 27.034351338211014 68.41053426177497
    vertex 269.13693667339174 27.33405260572487 68.41053427267343
  endloop
endfacet
facet normal 1.5015356003012483e-08 -1.1419886657578868e-10 1.0
  outer loop
    vertex 266.8604795380842 27.034351338211014 68.41053430682103
    vertex 269.13693667339174 27.33405260572487 68.41053427267343
    vertex 267.5840224027766 27.33405260572487 68.41053429599101
  endloop
endfacet
facet normal 1.5015356003012483e-08 -1.1419886657578868e-10 1.0
  outer loop
    vertex 267.5840224027766 27.33405260572487 68.41053429599101
    vertex 269.13693667339174 27.33405260572487 68.41053427267343
    vertex 268.3604795380842 27.43627512685771 68.4105342843439
  endloop
endfacet
facet normal 0.7071067811865612 -0.7071067811865338 -1.0698210844620022e-08
  outer loop
    vertex 270.48179988164384 22.314954783298063 68.41053425190667
    vertex 270.95855532900754 22.936275130055172 40.4105342453557
    vertex 270.9585557494375 22.936275126857645 68.41053424481895
  endloop
endfacet
facet normal 0.8660254037844248 -0.5000000000000239 -1.3060779178763669e-08
  outer loop
    vertex 270.95855532900754 22.936275130055172 40.4105342453557
    vertex 270.48179988164384 22.314954783298063 68.41053425190667
    vertex 270.4817994612139 22.314954786495587 40.4105342524434
  endloop
endfacet
facet normal 0.7071067811865612 -0.7071067811865337 -1.0698210844620022e-08
  outer loop
    vertex 270.4817994612139 22.314954786495587 40.4105342524434
    vertex 269.8604795380841 21.838198915504318 68.41053426118157
    vertex 269.8604791176542 21.838198918701845 40.410534261718304
  endloop
endfacet
facet normal 0.5000000000000123 -0.8660254037844316 -7.606577121044448e-09
  outer loop
    vertex 269.8604795380841 21.838198915504318 68.41053426118157
    vertex 270.4817994612139 22.314954786495587 40.4105342524434
    vertex 270.48179988164384 22.314954783298063 68.41053425190667
  endloop
endfacet
facet normal 0.5000000000000129 -0.8660254037844313 -7.606577121044457e-09
  outer loop
    vertex 269.8604791176542 21.838198918701845 40.410534261718304
    vertex 269.13693667339174 21.53849764799046 68.41053427201159
    vertex 269.1369362529618 21.538497651187985 40.41053427254835
  endloop
endfacet
facet normal 0.2588190451025272 -0.9659258262890668 -3.996567737132683e-09
  outer loop
    vertex 269.13693667339174 21.53849764799046 68.41053427201159
    vertex 269.8604791176542 21.838198918701845 40.410534261718304
    vertex 269.8604795380841 21.838198915504318 68.41053426118157
  endloop
endfacet
facet normal 0.25881904510252746 -0.9659258262890666 -3.9965677371326874e-09
  outer loop
    vertex 269.1369362529618 21.538497651187985 40.41053427254835
    vertex 268.3604795380842 21.436275126857627 68.4105342836587
    vertex 268.36047911765417 21.43627513005515 40.41053428419543
  endloop
endfacet
facet normal -2.423016626336324e-16 -1.0 -1.1419886657578508e-10
  outer loop
    vertex 268.3604795380842 21.436275126857627 68.4105342836587
    vertex 269.1369362529618 21.538497651187985 40.41053427254835
    vertex 269.13693667339174 21.53849764799046 68.41053427201159
  endloop
endfacet
facet normal -9.641015641810466e-16 -1.0 -1.1419886657577425e-10
  outer loop
    vertex 268.36047911765417 21.43627513005515 40.41053428419543
    vertex 267.5840224027766 21.53849764799046 68.41053429532917
    vertex 267.58402198234666 21.538497651187985 40.410534295865894
  endloop
endfacet
facet normal -0.25881904510252723 -0.9659258262890665 3.7759524680156975e-09
  outer loop
    vertex 267.5840224027766 21.53849764799046 68.41053429532917
    vertex 268.36047911765417 21.43627513005515 40.41053428419543
    vertex 268.3604795380842 21.436275126857627 68.4105342836587
  endloop
endfacet
facet normal -0.2588190451025272 -0.9659258262890665 3.775952468015697e-09
  outer loop
    vertex 267.58402198234666 21.538497651187985 40.410534295865894
    vertex 266.8604795380842 21.838198915504318 68.41053430622762
    vertex 266.8604791176542 21.838198918701845 40.410534306764376
  endloop
endfacet
facet normal -0.500000000000012 -0.8660254037844319 7.408778881968399e-09
  outer loop
    vertex 266.8604795380842 21.838198915504318 68.41053430622762
    vertex 267.58402198234666 21.538497651187985 40.410534295865894
    vertex 267.5840224027766 21.53849764799046 68.41053429532917
  endloop
endfacet
facet normal -0.5000000000000122 -0.8660254037844316 7.4087788819684025e-09
  outer loop
    vertex 266.8604791176542 21.838198918701845 40.410534306764376
    vertex 266.2391591945245 22.314954783298063 68.41053431561143
    vertex 266.2391587740946 22.314954786495587 40.41053431614816
  endloop
endfacet
facet normal -0.7071067811865613 -0.7071067811865337 1.053670925870091e-08
  outer loop
    vertex 266.2391591945245 22.314954783298063 68.41053431561143
    vertex 266.8604791176542 21.838198918701845 40.410534306764376
    vertex 266.8604795380842 21.838198915504318 68.41053430622762
  endloop
endfacet
facet normal -0.8660254037844254 -0.500000000000023 1.2946580312187883e-08
  outer loop
    vertex 265.76240290630096 22.936275130055172 40.41053432337775
    vertex 266.2391591945245 22.314954783298063 68.41053431561143
    vertex 265.76240332673086 22.936275126857645 68.41053432284103
  endloop
endfacet
facet normal -0.7071067811865613 -0.7071067811865337 1.053670925870091e-08
  outer loop
    vertex 266.2391591945245 22.314954783298063 68.41053431561143
    vertex 265.76240290630096 22.936275130055172 40.41053432337775
    vertex 266.2391587740946 22.314954786495587 40.41053431614816
  endloop
endfacet
facet normal -0.9659258262890663 -0.25881904510252823 1.4474163312635388e-08
  outer loop
    vertex 265.462701638787 23.659817994747588 40.41053432796051
    vertex 265.76240332673086 22.936275126857645 68.41053432284103
    vertex 265.46270205921695 23.659817991550064 68.41053432742379
  endloop
endfacet
facet normal -0.8660254037844252 -0.5000000000000232 1.294658031218788e-08
  outer loop
    vertex 265.76240332673086 22.936275126857645 68.41053432284103
    vertex 265.462701638787 23.659817994747588 40.41053432796051
    vertex 265.76240290630096 22.936275130055172 40.41053432337775
  endloop
endfacet
facet normal -0.9999999999999999 -1.3901331437209257e-15 1.501535600301248e-08
  outer loop
    vertex 265.3604791176542 24.43627513005519 40.410534329584095
    vertex 265.46270205921695 23.659817991550064 68.41053432742379
    vertex 265.3604795380842 24.436275126857666 68.41053432904738
  endloop
endfacet
facet normal -0.9659258262890665 -0.25881904510252707 1.4474163312635391e-08
  outer loop
    vertex 265.46270205921695 23.659817991550064 68.41053432742379
    vertex 265.3604791176542 24.43627513005519 40.410534329584095
    vertex 265.462701638787 23.659817994747588 40.41053432796051
  endloop
endfacet
facet normal -0.9659258262890669 0.25881904510252585 1.4533276995833269e-08
  outer loop
    vertex 265.462701638787 25.212732265362792 40.41053432813788
    vertex 265.3604795380842 24.436275126857666 68.41053432904738
    vertex 265.46270205921695 25.212732262165268 68.41053432760113
  endloop
endfacet
facet normal -1.0 1.782221979129379e-16 1.5015356003012483e-08
  outer loop
    vertex 265.3604795380842 24.436275126857666 68.41053432904738
    vertex 265.462701638787 25.212732265362792 40.41053432813788
    vertex 265.3604791176542 24.43627513005519 40.410534329584095
  endloop
endfacet
facet normal -0.8660254037844245 0.5000000000000244 1.3060779178763664e-08
  outer loop
    vertex 265.76240290630096 25.936275130055215 40.41053432372039
    vertex 265.46270205921695 25.212732262165268 68.41053432760113
    vertex 265.76240332673086 25.936275126857687 68.41053432318365
  endloop
endfacet
facet normal -0.9659258262890662 0.25881904510252823 1.453327699583326e-08
  outer loop
    vertex 265.46270205921695 25.212732262165268 68.41053432760113
    vertex 265.76240290630096 25.936275130055215 40.41053432372039
    vertex 265.462701638787 25.212732265362792 40.41053432813788
  endloop
endfacet
facet normal -0.7071067811865611 0.7071067811865339 1.069821084462002e-08
  outer loop
    vertex 266.2391587740946 26.557595473614796 40.41053431663265
    vertex 265.76240332673086 25.936275126857687 68.41053432318365
    vertex 266.2391591945245 26.55759547041727 68.41053431609592
  endloop
endfacet
facet normal -0.8660254037844255 0.5000000000000228 1.3060779178763679e-08
  outer loop
    vertex 265.76240332673086 25.936275126857687 68.41053432318365
    vertex 266.2391587740946 26.557595473614796 40.41053431663265
    vertex 265.76240290630096 25.936275130055215 40.41053432372039
  endloop
endfacet
facet normal -0.7071067811865612 0.7071067811865338 1.0698210844620022e-08
  outer loop
    vertex 266.2391591945245 26.55759547041727 68.41053431609592
    vertex 266.8604791176542 27.034351341408538 40.410534307357786
    vertex 266.2391587740946 26.557595473614796 40.41053431663265
  endloop
endfacet
facet normal -0.5000000000000133 0.866025403784431 7.606577121044463e-09
  outer loop
    vertex 266.8604791176542 27.034351341408538 40.410534307357786
    vertex 266.2391591945245 26.55759547041727 68.41053431609592
    vertex 266.8604795380842 27.034351338211014 68.41053430682103
  endloop
endfacet
facet normal -0.5000000000000119 0.8660254037844317 7.606577121044442e-09
  outer loop
    vertex 266.8604795380842 27.034351338211014 68.41053430682103
    vertex 267.58402198234666 27.3340526089224 40.41053429652775
    vertex 266.8604791176542 27.034351341408538 40.410534307357786
  endloop
endfacet
facet normal -0.258819045102526 0.9659258262890669 3.996567737132666e-09
  outer loop
    vertex 267.58402198234666 27.3340526089224 40.41053429652775
    vertex 266.8604795380842 27.034351338211014 68.41053430682103
    vertex 267.5840224027766 27.33405260572487 68.41053429599101
  endloop
endfacet
facet normal -0.25881904510252857 0.9659258262890663 3.996567737132705e-09
  outer loop
    vertex 267.5840224027766 27.33405260572487 68.41053429599101
    vertex 268.36047911765417 27.436275130055233 40.41053428488061
    vertex 267.58402198234666 27.3340526089224 40.41053429652775
  endloop
endfacet
facet normal 1.4542126084416315e-15 1.0 1.1419886657576688e-10
  outer loop
    vertex 268.36047911765417 27.436275130055233 40.41053428488061
    vertex 267.5840224027766 27.33405260572487 68.41053429599101
    vertex 268.3604795380842 27.43627512685771 68.4105342843439
  endloop
endfacet
facet normal -2.3889827173130357e-16 1.0 1.1419886657579229e-10
  outer loop
    vertex 268.3604795380842 27.43627512685771 68.4105342843439
    vertex 269.1369362529618 27.3340526089224 40.41053427321016
    vertex 268.36047911765417 27.436275130055233 40.41053428488061
  endloop
endfacet
facet normal 0.2588190451025261 0.965925826289067 -3.775952468015681e-09
  outer loop
    vertex 269.1369362529618 27.3340526089224 40.41053427321016
    vertex 268.3604795380842 27.43627512685771 68.4105342843439
    vertex 269.13693667339174 27.33405260572487 68.41053427267343
  endloop
endfacet
facet normal 0.2588190451025284 0.9659258262890663 -3.775952468015715e-09
  outer loop
    vertex 269.13693667339174 27.33405260572487 68.41053427267343
    vertex 269.8604791176542 27.034351341408538 40.41053426231172
    vertex 269.1369362529618 27.3340526089224 40.41053427321016
  endloop
endfacet
facet normal 0.5000000000000121 0.8660254037844318 -7.408778881968401e-09
  outer loop
    vertex 269.8604791176542 27.034351341408538 40.41053426231172
    vertex 269.13693667339174 27.33405260572487 68.41053427267343
    vertex 269.8604795380841 27.034351338211014 68.41053426177497
  endloop
endfacet
facet normal 0.5000000000000122 0.8660254037844317 -7.4087788819684025e-09
  outer loop
    vertex 269.8604795380841 27.034351338211014 68.41053426177497
    vertex 270.4817994612139 26.557595473614796 40.41053425292789
    vertex 269.8604791176542 27.034351341408538 40.41053426231172
  endloop
endfacet
facet normal 0.7071067811865622 0.7071067811865329 -1.0536709258700924e-08
  outer loop
    vertex 270.4817994612139 26.557595473614796 40.41053425292789
    vertex 269.8604795380841 27.034351338211014 68.41053426177497
    vertex 270.48179988164384 26.55759547041727 68.41053425239117
  endloop
endfacet
facet normal 0.8660254037844254 0.500000000000023 -1.2946580312187883e-08
  outer loop
    vertex 270.9585557494375 25.936275126857687 68.41053424516156
    vertex 270.4817994612139 26.557595473614796 40.41053425292789
    vertex 270.48179988164384 26.55759547041727 68.41053425239117
  endloop
endfacet
facet normal 0.7071067811865622 0.7071067811865329 -1.0536709258700924e-08
  outer loop
    vertex 270.4817994612139 26.557595473614796 40.41053425292789
    vertex 270.9585557494375 25.936275126857687 68.41053424516156
    vertex 270.95855532900754 25.936275130055215 40.410534245698294
  endloop
endfacet
facet normal 0.9659258262890663 0.25881904510252823 -1.4474163312635388e-08
  outer loop
    vertex 271.25825701695135 25.212732262165268 68.41053424057881
    vertex 270.95855532900754 25.936275130055215 40.410534245698294
    vertex 270.9585557494375 25.936275126857687 68.41053424516156
  endloop
endfacet
facet normal 0.8660254037844252 0.5000000000000232 -1.294658031218788e-08
  outer loop
    vertex 270.95855532900754 25.936275130055215 40.410534245698294
    vertex 271.25825701695135 25.212732262165268 68.41053424057881
    vertex 271.2582565965214 25.212732265362792 40.410534241115535
  endloop
endfacet
facet normal 1.0 1.7822219791293754e-16 -1.5015356003012483e-08
  outer loop
    vertex 271.3604795380842 24.436275126857666 68.41053423895522
    vertex 271.2582565965214 25.212732265362792 40.410534241115535
    vertex 271.25825701695135 25.212732262165268 68.41053424057881
  endloop
endfacet
facet normal 0.9659258262890665 0.25881904510252707 -1.4474163312635391e-08
  outer loop
    vertex 271.2582565965214 25.212732265362792 40.410534241115535
    vertex 271.3604795380842 24.436275126857666 68.41053423895522
    vertex 271.3604791176542 24.43627513005519 40.41053423949195
  endloop
endfacet
facet normal 0.9659258262890664 -0.258819045102527 -1.4533276995833264e-08
  outer loop
    vertex 271.25825701695135 23.659817991550064 68.41053424040147
    vertex 271.3604791176542 24.43627513005519 40.41053423949195
    vertex 271.3604795380842 24.436275126857666 68.41053423895522
  endloop
endfacet
facet normal 1.0 1.0247776379994025e-15 -1.5015356003012483e-08
  outer loop
    vertex 271.3604791176542 24.43627513005519 40.41053423949195
    vertex 271.25825701695135 23.659817991550064 68.41053424040147
    vertex 271.2582565965214 23.659817994747588 40.41053424093822
  endloop
endfacet
facet normal 0.866025403784425 -0.5000000000000233 -1.3060779178763672e-08
  outer loop
    vertex 270.9585557494375 22.936275126857645 68.41053424481895
    vertex 271.2582565965214 23.659817994747588 40.41053424093822
    vertex 271.25825701695135 23.659817991550064 68.41053424040147
  endloop
endfacet
facet normal 0.9659258262890664 -0.25881904510252707 -1.4533276995833264e-08
  outer loop
    vertex 271.2582565965214 23.659817994747588 40.41053424093822
    vertex 270.9585557494375 22.936275126857645 68.41053424481895
    vertex 270.95855532900754 22.936275130055172 40.4105342453557
  endloop
endfacet
facet normal -1.4979530840177656e-08 1.0342150887755037e-10 -1.0
  outer loop
    vertex 263.6604788575722 19.736275132033214 23.08946666692214
    vertex 268.36047885757205 20.73627513203389 23.089466596886737
    vertex 273.06047885757215 19.736275132033214 23.08946652685129
  endloop
endfacet
facet normal -1.4979530840177656e-08 1.0342150887755037e-10 -1.0
  outer loop
    vertex 268.36047885757205 20.73627513203389 23.089466596886737
    vertex 263.6604788575722 19.736275132033214 23.08946666692214
    vertex 265.36047885757205 23.73627513203357 23.089466641818564
  endloop
endfacet
facet normal -1.4979530840177656e-08 1.0342150887755037e-10 -1.0
  outer loop
    vertex 265.36047885757205 23.73627513203357 23.089466641818564
    vertex 263.6604788575722 19.736275132033214 23.08946666692214
    vertex 263.6604788575722 29.136275132033425 23.089466669069193
  endloop
endfacet
facet normal -1.4979530840177656e-08 1.0342150887755037e-10 -1.0
  outer loop
    vertex 265.36047885757205 23.73627513203357 23.089466641818564
    vertex 263.6604788575722 29.136275132033425 23.089466669069193
    vertex 271.36047885757193 23.73627513203357 23.08946655241161
  endloop
endfacet
facet normal -1.4979530840177656e-08 1.0342150887755037e-10 -1.0
  outer loop
    vertex 273.06047885757215 19.736275132033214 23.08946652685129
    vertex 271.36047885757193 23.73627513203357 23.08946655241161
    vertex 273.06047885757215 29.136275132033425 23.08946652685129
  endloop
endfacet
facet normal -1.4979530840177656e-08 1.0342150887755037e-10 -1.0
  outer loop
    vertex 271.36047885757193 23.73627513203357 23.08946655241161
    vertex 273.06047885757215 19.736275132033214 23.08946652685129
    vertex 268.36047885757205 20.73627513203389 23.089466596886737
  endloop
endfacet
facet normal -1.4979530840177656e-08 1.0342150887755037e-10 -1.0
  outer loop
    vertex 273.06047885757215 29.136275132033425 23.08946652685129
    vertex 271.36047885757193 23.73627513203357 23.08946655241161
    vertex 263.6604788575722 29.136275132033425 23.089466669069193
  endloop
endfacet
facet normal -1.4901159090956901e-08 7.611653529693186e-11 -1.0
  outer loop
    vertex 271.36047888737426 23.736275131881424 25.08946657589699
    vertex 268.3604788873743 20.736275131881747 25.089466620372114
    vertex 265.36047888737437 23.736275131881424 25.089466665303938
  endloop
endfacet
facet normal -1.1342245834571542e-18 -1.0 -7.611653529693186e-11
  outer loop
    vertex 271.36047885757193 23.73627513203357 23.08946655241161
    vertex 265.36047888737437 23.736275131881424 25.089466665303938
    vertex 265.36047885757205 23.73627513203357 23.089466641818564
  endloop
endfacet
facet normal -1.1342245834571542e-18 -1.0 -7.611653529693186e-11
  outer loop
    vertex 265.36047888737437 23.736275131881424 25.089466665303938
    vertex 271.36047885757193 23.73627513203357 23.08946655241161
    vertex 271.36047888737426 23.736275131881424 25.08946657589699
  endloop
endfacet
facet normal -0.7071067811865183 0.7071067811865767 1.0590533159023647e-08
  outer loop
    vertex 271.36047888737426 23.736275131881424 25.08946657589699
    vertex 268.36047885757205 20.73627513203389 23.089466596886737
    vertex 268.3604788873743 20.736275131881747 25.089466620372114
  endloop
endfacet
facet normal -0.7071067811865183 0.7071067811865767 1.0590533159023647e-08
  outer loop
    vertex 268.36047885757205 20.73627513203389 23.089466596886737
    vertex 271.36047888737426 23.736275131881424 25.08946657589699
    vertex 271.36047885757193 23.73627513203357 23.08946655241161
  endloop
endfacet
facet normal 0.7071067811865156 0.7071067811865794 -1.048288812248583e-08
  outer loop
    vertex 268.3604788873743 20.736275131881747 25.089466620372114
    vertex 265.36047885757205 23.73627513203357 23.089466641818564
    vertex 265.36047888737437 23.736275131881424 25.089466665303938
  endloop
endfacet
facet normal 0.7071067811865156 0.7071067811865794 -1.048288812248583e-08
  outer loop
    vertex 265.36047885757205 23.73627513203357 23.089466641818564
    vertex 268.3604788873743 20.736275131881747 25.089466620372114
    vertex 268.36047885757205 20.73627513203389 23.089466596886737
  endloop
endfacet
endsolid Design - Rolled
