solid Design - Rolled
facet normal -1.0 4.535971363928006e-24 -5.4944448141547465e-11
  outer loop
    vertex 361.72350071178204 1298.252879174479 20.249999407898983
    vertex 361.72350071213924 1332.252877697026 13.749999409422053
    vertex 361.72350071213924 1298.2528791745335 13.749999409419244
  endloop
endfacet
facet normal -1.0 4.535971363928006e-24 -5.4944448141547465e-11
  outer loop
    vertex 361.72350071213924 1332.252877697026 13.749999409422053
    vertex 361.72350071178204 1298.252879174479 20.249999407898983
    vertex 361.72350071178204 1332.2528776969716 20.24999940790179
  endloop
endfacet
facet normal -6.060469999653929e-09 -1.0 -1.60101091291556e-10
  outer loop
    vertex 361.72350071213924 1298.2528791745335 13.749999409419244
    vertex 365.723500711782 1298.252879174479 20.249999407898983
    vertex 361.72350071178204 1298.252879174479 20.249999407898983
  endloop
endfacet
facet normal -6.060469999653929e-09 -1.0 -1.60101091291556e-10
  outer loop
    vertex 365.723500711782 1298.252879174479 20.249999407898983
    vertex 361.72350071213924 1298.2528791745335 13.749999409419244
    vertex 365.72350071202925 1298.2528791748462 15.749999410265216
  endloop
endfacet
facet normal -6.060469999653929e-09 -1.0 -1.60101091291556e-10
  outer loop
    vertex 365.72350071202925 1298.2528791748462 15.749999410265216
    vertex 361.72350071213924 1298.2528791745335 13.749999409419244
    vertex 407.23213018834497 1298.2528789058042 13.749999414224519
  endloop
endfacet
facet normal -6.060469999653929e-09 -1.0 -1.60101091291556e-10
  outer loop
    vertex 365.72350071202925 1298.2528791748462 15.749999410265216
    vertex 407.23213018834497 1298.2528789058042 13.749999414224519
    vertex 407.2321301918225 1298.2528789060475 15.749999414224757
  endloop
endfacet
facet normal -2.5206197093269613e-10 1.1570724974877162e-10 -1.0
  outer loop
    vertex 407.2321301910277 1332.2528776901422 13.749999411546668
    vertex 394.62350124209775 1315.332776696121 13.74999939400363
    vertex 392.80340022942187 1317.1528777087988 13.749999428780736
  endloop
endfacet
facet normal -2.5206197093269613e-10 1.1570724974877162e-10 -1.0
  outer loop
    vertex 394.62350124209775 1315.332776696121 13.74999939400363
    vertex 407.2321301910277 1332.2528776901422 13.749999411546668
    vertex 407.23213018834497 1298.2528789058042 13.749999414224519
  endloop
endfacet
facet normal -2.5206197093269613e-10 1.1570724974877162e-10 -1.0
  outer loop
    vertex 394.62350124209775 1315.332776696121 13.74999939400363
    vertex 407.23213018834497 1298.2528789058042 13.749999414224519
    vertex 394.6235012420989 1303.1729787214751 13.74999942877889
  endloop
endfacet
facet normal -2.5206197093269613e-10 1.1570724974877162e-10 -1.0
  outer loop
    vertex 394.6235012420989 1303.1729787214751 13.74999942877889
    vertex 407.23213018834497 1298.2528789058042 13.749999414224519
    vertex 392.80340022942136 1301.3528777087993 13.749999394002245
  endloop
endfacet
facet normal -2.5206197093269613e-10 1.1570724974877162e-10 -1.0
  outer loop
    vertex 392.80340022942136 1301.3528777087993 13.749999394002245
    vertex 407.23213018834497 1298.2528789058042 13.749999414224519
    vertex 380.6436022547752 1301.3528777087984 13.749999428779434
  endloop
endfacet
facet normal -2.5206197093269613e-10 1.1570724974877162e-10 -1.0
  outer loop
    vertex 380.6436022547752 1301.3528777087984 13.749999428779434
    vertex 407.23213018834497 1298.2528789058042 13.749999414224519
    vertex 361.72350071213924 1298.2528791745335 13.749999409419244
  endloop
endfacet
facet normal -2.5206197093269613e-10 1.1570724974877162e-10 -1.0
  outer loop
    vertex 361.72350071213924 1332.252877697026 13.749999409422053
    vertex 380.64360225477594 1317.1528777087972 13.749999394003781
    vertex 361.72350071213924 1298.2528791745335 13.749999409419244
  endloop
endfacet
facet normal -2.5206197093269613e-10 1.1570724974877162e-10 -1.0
  outer loop
    vertex 380.64360225477594 1317.1528777087972 13.749999394003781
    vertex 361.72350071213924 1332.252877697026 13.749999409422053
    vertex 407.2321301910277 1332.2528776901422 13.749999411546668
  endloop
endfacet
facet normal -2.5206197093269613e-10 1.1570724974877162e-10 -1.0
  outer loop
    vertex 380.64360225477594 1317.1528777087972 13.749999394003781
    vertex 407.2321301910277 1332.2528776901422 13.749999411546668
    vertex 392.80340022942187 1317.1528777087988 13.749999428780736
  endloop
endfacet
facet normal -2.5206197093269613e-10 1.1570724974877162e-10 -1.0
  outer loop
    vertex 361.72350071213924 1298.2528791745335 13.749999409419244
    vertex 380.64360225477594 1317.1528777087972 13.749999394003781
    vertex 378.8235012420985 1315.332776696122 13.749999428780587
  endloop
endfacet
facet normal -2.5206197093269613e-10 1.1570724974877162e-10 -1.0
  outer loop
    vertex 361.72350071213924 1298.2528791745335 13.749999409419244
    vertex 378.8235012420985 1315.332776696122 13.749999428780587
    vertex 378.8235012420993 1303.1729787214758 13.749999394002394
  endloop
endfacet
facet normal -2.5206197093269613e-10 1.1570724974877162e-10 -1.0
  outer loop
    vertex 361.72350071213924 1298.2528791745335 13.749999409419244
    vertex 378.8235012420993 1303.1729787214758 13.749999394002394
    vertex 380.6436022547752 1301.3528777087984 13.749999428779434
  endloop
endfacet
facet normal -5.494444814154752e-11 -8.365840127243263e-12 1.0
  outer loop
    vertex 361.72350071178204 1332.2528776969716 20.24999940790179
    vertex 365.24113880559037 1332.1847293500637 20.249999408286186
    vertex 364.7235007153852 1332.2528776974855 20.24999940826448
  endloop
endfacet
facet normal -5.494444814154752e-11 -8.365840127243263e-12 1.0
  outer loop
    vertex 365.24113880559037 1332.1847293500637 20.249999408286186
    vertex 361.72350071178204 1332.2528776969716 20.24999940790179
    vertex 361.72350071178204 1298.252879174479 20.249999407898983
  endloop
endfacet
facet normal -5.494444814154752e-11 -8.365840127243263e-12 1.0
  outer loop
    vertex 365.24113880559037 1332.1847293500637 20.249999408286186
    vertex 361.72350071178204 1298.252879174479 20.249999407898983
    vertex 365.7235007153853 1331.9849285050545 20.249999408305804
  endloop
endfacet
facet normal -5.494444814154752e-11 -8.365840127243263e-12 1.0
  outer loop
    vertex 365.7235007153853 1331.9849285050545 20.249999408305804
    vertex 361.72350071178204 1298.252879174479 20.249999407898983
    vertex 366.1377142777584 1331.6670912598586 20.24999940832195
  endloop
endfacet
facet normal -5.494444814154752e-11 -8.365840127243263e-12 1.0
  outer loop
    vertex 366.1377142777584 1331.6670912598586 20.24999940832195
    vertex 361.72350071178204 1298.252879174479 20.249999407898983
    vertex 366.45555152295407 1331.2528776974857 20.249999408333696
  endloop
endfacet
facet normal -5.494444814154752e-11 -8.365840127243263e-12 1.0
  outer loop
    vertex 366.45555152295407 1331.2528776974857 20.249999408333696
    vertex 361.72350071178204 1298.252879174479 20.249999407898983
    vertex 366.6553523679634 1330.7705157876906 20.249999408340127
  endloop
endfacet
facet normal -5.494444814154752e-11 -8.365840127243263e-12 1.0
  outer loop
    vertex 366.6553523679634 1330.7705157876906 20.249999408340127
    vertex 361.72350071178204 1298.252879174479 20.249999407898983
    vertex 366.7235007153852 1330.2528776974857 20.249999408340777
  endloop
endfacet
facet normal -5.494444814154752e-11 -8.365840127243263e-12 1.0
  outer loop
    vertex 366.7235007153852 1330.2528776974857 20.249999408340777
    vertex 361.72350071178204 1298.252879174479 20.249999407898983
    vertex 365.7235007164969 1323.1028777145618 20.249999407839585
  endloop
endfacet
facet normal -5.494444814154752e-11 -8.365840127243263e-12 1.0
  outer loop
    vertex 366.7235007153852 1330.2528776974857 20.249999408340777
    vertex 365.7235007164969 1323.1028777145618 20.249999407839585
    vertex 366.7235007201002 1324.102877715076 20.24999940825572
  endloop
endfacet
facet normal -5.494444814154752e-11 -8.365840127243263e-12 1.0
  outer loop
    vertex 365.7235007164969 1323.1028777145618 20.249999407839585
    vertex 361.72350071178204 1298.252879174479 20.249999407898983
    vertex 365.723500711782 1298.252879174479 20.249999407898983
  endloop
endfacet
facet normal 1.0 7.666639993173894e-10 5.494243201626089e-11
  outer loop
    vertex 366.7235007153852 1330.2528776974857 20.249999408340777
    vertex 366.7235007167593 1328.7831236376685 15.749999408267177
    vertex 366.72350071563244 1330.2528776975232 15.749999404632794
  endloop
endfacet
facet normal 1.0 7.666639993173894e-10 5.494243201626089e-11
  outer loop
    vertex 366.7235007167593 1328.7831236376685 15.749999408267177
    vertex 366.7235007153852 1330.2528776974857 20.249999408340777
    vertex 366.7235007201002 1324.102877715076 20.24999940825572
  endloop
endfacet
facet normal 1.0 7.666639993173894e-10 5.494243201626089e-11
  outer loop
    vertex 366.7235007201002 1324.102877715076 20.24999940825572
    vertex 366.7235007203475 1324.1028777151134 15.749999405380994
    vertex 366.7235007167593 1328.7831236376685 15.749999408267177
  endloop
endfacet
facet normal 0.7071067813906056 0.7071067809824896 7.506945132846626e-12
  outer loop
    vertex 366.1377142787878 1331.667091258877 15.749999408261408
    vertex 366.45555152295407 1331.2528776974857 20.249999408333696
    vertex 366.4555515232014 1331.2528776975232 15.749999404977084
  endloop
endfacet
facet normal 0.8660254037843343 0.5000000000001807 5.177423419555533e-11
  outer loop
    vertex 366.45555152295407 1331.2528776974857 20.249999408333696
    vertex 366.1377142787878 1331.667091258877 15.749999408261408
    vertex 366.1377142777584 1331.6670912598586 20.24999940832195
  endloop
endfacet
facet normal 0.2588190451016396 0.9659258262893043 2.230233900255183e-11
  outer loop
    vertex 365.24113880559037 1332.1847293500637 20.249999408286186
    vertex 364.7235007173079 1332.2528776973027 15.749999408203934
    vertex 364.7235007153852 1332.2528776974855 20.24999940826448
  endloop
endfacet
facet normal 0.13052619222002237 0.9914448613738143 1.5465766846831746e-11
  outer loop
    vertex 364.7235007173079 1332.2528776973027 15.749999408203934
    vertex 365.24113880559037 1332.1847293500637 20.249999408286186
    vertex 365.24113880583764 1332.1847293501014 15.74999940697518
  endloop
endfacet
facet normal 0.7071067800953863 -0.7071067822777088 3.339715694028459e-11
  outer loop
    vertex 365.7235007167443 1323.1028777145934 15.74999940724148
    vertex 366.7235007201002 1324.102877715076 20.24999940825572
    vertex 365.7235007164969 1323.1028777145618 20.249999407839585
  endloop
endfacet
facet normal 0.7071067800953863 -0.7071067822777088 3.339715694028459e-11
  outer loop
    vertex 366.7235007201002 1324.102877715076 20.24999940825572
    vertex 365.7235007167443 1323.1028777145934 15.74999940724148
    vertex 366.7235007203475 1324.1028777151134 15.749999405380994
  endloop
endfacet
facet normal 0.9659258262963589 0.25881904507531134 5.523856137673063e-11
  outer loop
    vertex 366.6553523682107 1330.7705157877283 15.749999404688507
    vertex 366.7235007153852 1330.2528776974857 20.249999408340777
    vertex 366.72350071563244 1330.2528776975232 15.749999404632794
  endloop
endfacet
facet normal 0.9914448613738187 0.13052619221998787 5.556407573061782e-11
  outer loop
    vertex 366.7235007153852 1330.2528776974857 20.249999408340777
    vertex 366.6553523682107 1330.7705157877283 15.749999404688507
    vertex 366.6553523679634 1330.7705157876906 20.249999408340127
  endloop
endfacet
facet normal 0.5000000000197339 0.8660254037730453 -2.5477669247538685e-12
  outer loop
    vertex 365.7235007153853 1331.9849285050545 20.249999408305804
    vertex 365.24113880583764 1332.1847293501014 15.74999940697518
    vertex 365.24113880559037 1332.1847293500637 20.249999408286186
  endloop
endfacet
facet normal 0.2588190451034051 0.9659258262888314 2.2302339002644877e-11
  outer loop
    vertex 365.24113880583764 1332.1847293501014 15.74999940697518
    vertex 365.7235007153853 1331.9849285050545 20.249999408305804
    vertex 365.7235007144455 1331.9849285055839 15.749999408245264
  endloop
endfacet
facet normal 0.866025403928674 0.49999999975017706 5.177423420138659e-11
  outer loop
    vertex 366.4555515232014 1331.2528776975232 15.749999404977084
    vertex 366.6553523679634 1330.7705157876906 20.249999408340127
    vertex 366.6553523682107 1330.7705157877283 15.749999404688507
  endloop
endfacet
facet normal 0.9659258262890897 0.25881904510244086 5.523856137655891e-11
  outer loop
    vertex 366.6553523679634 1330.7705157876906 20.249999408340127
    vertex 366.4555515232014 1331.2528776975232 15.749999404977084
    vertex 366.45555152295407 1331.2528776974857 20.249999408333696
  endloop
endfacet
facet normal 0.5000000000197339 0.8660254037730453 -2.5477669247538685e-12
  outer loop
    vertex 365.7235007153853 1331.9849285050545 20.249999408305804
    vertex 366.1377142787878 1331.667091258877 15.749999408261408
    vertex 365.7235007144455 1331.9849285055839 15.749999408245264
  endloop
endfacet
facet normal 0.7071067813906056 0.7071067809824896 7.506945132846626e-12
  outer loop
    vertex 366.1377142787878 1331.667091258877 15.749999408261408
    vertex 365.7235007153853 1331.9849285050545 20.249999408305804
    vertex 366.1377142777584 1331.6670912598586 20.24999940832195
  endloop
endfacet
facet normal 1.0 -1.897360531622109e-10 5.495029300958631e-11
  outer loop
    vertex 365.7235007164969 1323.1028777145618 20.249999407839585
    vertex 365.72350071202925 1298.2528791748462 15.749999410265216
    vertex 365.7235007167443 1323.1028777145934 15.74999940724148
  endloop
endfacet
facet normal 1.0 -1.897360531622109e-10 5.495029300958631e-11
  outer loop
    vertex 365.72350071202925 1298.2528791748462 15.749999410265216
    vertex 365.7235007164969 1323.1028777145618 20.249999407839585
    vertex 365.723500711782 1298.252879174479 20.249999407898983
  endloop
endfacet
facet normal 0.7071067811861269 -0.707106781186968 -1.1434457256562618e-09
  outer loop
    vertex 380.64360225477594 1317.1528777087972 13.749999394003781
    vertex 378.823501245576 1315.3327766963653 15.749999428780827
    vertex 378.8235012420985 1315.332776696122 13.749999428780587
  endloop
endfacet
facet normal 0.7071067811861269 -0.707106781186968 -1.1434457256562618e-09
  outer loop
    vertex 378.823501245576 1315.3327766963653 15.749999428780827
    vertex 380.64360225477594 1317.1528777087972 13.749999394003781
    vertex 380.6436022582535 1317.1528777090407 15.749999394003787
  endloop
endfacet
facet normal -1.0 -8.904808007148456e-14 1.7387526282653137e-09
  outer loop
    vertex 394.6235012420989 1303.1729787214751 13.74999942877889
    vertex 394.62350124557526 1315.3327766963644 15.749999394003638
    vertex 394.62350124209775 1315.332776696121 13.74999939400363
  endloop
endfacet
facet normal -1.0 -8.904808007148456e-14 1.7387526282653137e-09
  outer loop
    vertex 394.62350124557526 1315.3327766963644 15.749999394003638
    vertex 394.6235012420989 1303.1729787214751 13.74999942877889
    vertex 394.62350124557634 1303.1729787217187 15.749999428778898
  endloop
endfacet
facet normal 1.0 7.421585023614829e-14 -1.7387526282653116e-09
  outer loop
    vertex 378.8235012420985 1315.332776696122 13.749999428780587
    vertex 378.82350124557684 1303.1729787217193 15.749999394002403
    vertex 378.8235012420993 1303.1729787214758 13.749999394002394
  endloop
endfacet
facet normal 1.0 7.421585023614829e-14 -1.7387526282653116e-09
  outer loop
    vertex 378.82350124557684 1303.1729787217193 15.749999394002403
    vertex 378.8235012420985 1315.332776696122 13.749999428780587
    vertex 378.823501245576 1315.3327766963653 15.749999428780827
  endloop
endfacet
facet normal 0.7071067811868633 0.7071067811862319 -1.3155218228481219e-09
  outer loop
    vertex 378.82350124557684 1303.1729787217193 15.749999394002403
    vertex 380.6436022547752 1301.3528777087984 13.749999428779434
    vertex 378.8235012420993 1303.1729787214758 13.749999394002394
  endloop
endfacet
facet normal 0.7071067811868633 0.7071067811862319 -1.3155218228481219e-09
  outer loop
    vertex 380.6436022547752 1301.3528777087984 13.749999428779434
    vertex 378.82350124557684 1303.1729787217193 15.749999394002403
    vertex 380.6436022582527 1301.3528777090416 15.74999942877967
  endloop
endfacet
facet normal 1.7745850869066677e-09 5.07976806652573e-11 1.0
  outer loop
    vertex 365.24113880583764 1332.1847293501014 15.74999940697518
    vertex 398.72350046010314 1332.2528776473948 15.749999408344392
    vertex 364.7235007173079 1332.2528776973027 15.749999408203934
  endloop
endfacet
facet normal 1.7745850869066677e-09 5.07976806652573e-11 1.0
  outer loop
    vertex 398.72350046010314 1332.2528776473948 15.749999408344392
    vertex 365.24113880583764 1332.1847293501014 15.74999940697518
    vertex 398.2189018277401 1332.1864459834665 15.74999935154116
  endloop
endfacet
facet normal 1.7745850869066677e-09 5.07976806652573e-11 1.0
  outer loop
    vertex 398.2189018277401 1332.1864459834665 15.74999935154116
    vertex 365.24113880583764 1332.1847293501014 15.74999940697518
    vertex 398.2058623694488 1332.184729305639 15.749999350073312
  endloop
endfacet
facet normal 1.7745850869066677e-09 5.07976806652573e-11 1.0
  outer loop
    vertex 398.2058623694488 1332.184729305639 15.749999350073312
    vertex 365.24113880583764 1332.1847293501014 15.74999940697518
    vertex 365.7235007144455 1331.9849285055839 15.749999408245264
  endloop
endfacet
facet normal 1.7745850869066677e-09 5.07976806652573e-11 1.0
  outer loop
    vertex 398.2058623694488 1332.184729305639 15.749999350073312
    vertex 365.7235007144455 1331.9849285055839 15.749999408245264
    vertex 397.72350045965396 1331.9849284606298 15.749999350195964
  endloop
endfacet
facet normal 1.7745850869066677e-09 5.07976806652573e-11 1.0
  outer loop
    vertex 397.72350045965396 1331.9849284606298 15.749999350195964
    vertex 365.7235007144455 1331.9849285055839 15.749999408245264
    vertex 366.1377142787878 1331.667091258877 15.749999408261408
  endloop
endfacet
facet normal 1.7745850869066677e-09 5.07976806652573e-11 1.0
  outer loop
    vertex 397.72350045965396 1331.9849284606298 15.749999350195964
    vertex 366.1377142787878 1331.667091258877 15.749999408261408
    vertex 397.3092868972808 1331.667091215434 15.74999935030428
  endloop
endfacet
facet normal 1.7745850869066677e-09 5.07976806652573e-11 1.0
  outer loop
    vertex 397.3092868972808 1331.667091215434 15.74999935030428
    vertex 366.1377142787878 1331.667091258877 15.749999408261408
    vertex 366.4555515232014 1331.2528776975232 15.749999404977084
  endloop
endfacet
facet normal 1.7745850869066677e-09 5.07976806652573e-11 1.0
  outer loop
    vertex 397.3092868972808 1331.667091215434 15.74999935030428
    vertex 366.4555515232014 1331.2528776975232 15.749999404977084
    vertex 396.99144965208507 1331.2528776530608 15.749999350390414
  endloop
endfacet
facet normal 1.7745850869066677e-09 5.07976806652573e-11 1.0
  outer loop
    vertex 396.99144965208507 1331.2528776530608 15.749999350390414
    vertex 366.4555515232014 1331.2528776975232 15.749999404977084
    vertex 366.6553523682107 1330.7705157877283 15.749999404688507
  endloop
endfacet
facet normal 1.7745850869066677e-09 5.07976806652573e-11 1.0
  outer loop
    vertex 396.99144965208507 1331.2528776530608 15.749999350390414
    vertex 366.6553523682107 1330.7705157877283 15.749999404688507
    vertex 396.79164880707583 1330.7705157432658 15.749999350449052
  endloop
endfacet
facet normal 1.7745850869066677e-09 5.07976806652573e-11 1.0
  outer loop
    vertex 396.79164880707583 1330.7705157432658 15.749999350449052
    vertex 366.6553523682107 1330.7705157877283 15.749999404688507
    vertex 366.72350071563244 1330.2528776975232 15.749999404632794
  endloop
endfacet
facet normal 1.7745850869066677e-09 5.07976806652573e-11 1.0
  outer loop
    vertex 396.79164880707583 1330.7705157432658 15.749999350449052
    vertex 366.72350071563244 1330.2528776975232 15.749999404632794
    vertex 396.72350045965396 1330.252877653061 15.749999350475806
  endloop
endfacet
facet normal 1.7745850869066677e-09 5.07976806652573e-11 1.0
  outer loop
    vertex 396.72350045965396 1330.252877653061 15.749999350475806
    vertex 366.72350071563244 1330.2528776975232 15.749999404632794
    vertex 366.7235007167593 1328.7831236376685 15.749999408267177
  endloop
endfacet
facet normal 1.7745850869066677e-09 5.07976806652573e-11 1.0
  outer loop
    vertex 396.72350045965396 1330.252877653061 15.749999350475806
    vertex 366.7235007167593 1328.7831236376685 15.749999408267177
    vertex 396.72350045634477 1324.1028776802336 15.74999934998232
  endloop
endfacet
facet normal 1.7745850869066677e-09 5.07976806652573e-11 1.0
  outer loop
    vertex 396.72350045634477 1324.1028776802336 15.74999934998232
    vertex 366.7235007167593 1328.7831236376685 15.749999408267177
    vertex 366.7235007203475 1324.1028777151134 15.749999405380994
  endloop
endfacet
facet normal 1.7745850869066677e-09 5.07976806652573e-11 1.0
  outer loop
    vertex 396.72350045634477 1324.1028776802336 15.74999934998232
    vertex 366.7235007203475 1324.1028777151134 15.749999405380994
    vertex 365.7235007167443 1323.1028777145934 15.74999940724148
  endloop
endfacet
facet normal 1.7745850869066677e-09 5.07976806652573e-11 1.0
  outer loop
    vertex 396.72350045634477 1324.1028776802336 15.74999934998232
    vertex 365.7235007167443 1323.1028777145934 15.74999940724148
    vertex 398.22350049441513 1322.2528776962758 15.749999408387227
  endloop
endfacet
facet normal 1.7745850869066677e-09 5.07976806652573e-11 1.0
  outer loop
    vertex 398.22350049441513 1322.2528776962758 15.749999408387227
    vertex 365.7235007167443 1323.1028777145934 15.74999940724148
    vertex 380.6436022582535 1317.1528777090407 15.749999394003787
  endloop
endfacet
facet normal 1.7745850869066677e-09 5.07976806652573e-11 1.0
  outer loop
    vertex 380.6436022582535 1317.1528777090407 15.749999394003787
    vertex 365.7235007167443 1323.1028777145934 15.74999940724148
    vertex 378.823501245576 1315.3327766963653 15.749999428780827
  endloop
endfacet
facet normal 1.7745850869066677e-09 5.07976806652573e-11 1.0
  outer loop
    vertex 378.823501245576 1315.3327766963653 15.749999428780827
    vertex 365.7235007167443 1323.1028777145934 15.74999940724148
    vertex 365.72350071202925 1298.2528791748462 15.749999410265216
  endloop
endfacet
facet normal 1.7745850869066677e-09 5.07976806652573e-11 1.0
  outer loop
    vertex 398.22350049441513 1322.2528776962758 15.749999408387227
    vertex 380.6436022582535 1317.1528777090407 15.749999394003787
    vertex 399.0014011065271 1318.7356249960608 15.749999333993559
  endloop
endfacet
facet normal 1.7745850869066677e-09 5.07976806652573e-11 1.0
  outer loop
    vertex 399.0014011065271 1318.7356249960608 15.749999333993559
    vertex 380.6436022582535 1317.1528777090407 15.749999394003787
    vertex 399.22350049441525 1317.7314101749444 15.749999312753111
  endloop
endfacet
facet normal 1.7745850869066677e-09 5.07976806652573e-11 1.0
  outer loop
    vertex 399.22350049441525 1317.7314101749444 15.749999312753111
    vertex 380.6436022582535 1317.1528777090407 15.749999394003787
    vertex 399.5873806042212 1317.2571923831729 15.749999216250263
  endloop
endfacet
facet normal 1.7745850869066677e-09 5.07976806652573e-11 1.0
  outer loop
    vertex 399.5873806042212 1317.2571923831729 15.749999216250263
    vertex 380.6436022582535 1317.1528777090407 15.749999394003787
    vertex 392.8034002328994 1317.152877709042 15.749999428780976
  endloop
endfacet
facet normal 1.7745850869066677e-09 5.07976806652573e-11 1.0
  outer loop
    vertex 378.823501245576 1315.3327766963653 15.749999428780827
    vertex 365.72350071202925 1298.2528791748462 15.749999410265216
    vertex 378.82350124557684 1303.1729787217193 15.749999394002403
  endloop
endfacet
facet normal 1.7745850869066677e-09 5.07976806652573e-11 1.0
  outer loop
    vertex 378.82350124557684 1303.1729787217193 15.749999394002403
    vertex 365.72350071202925 1298.2528791748462 15.749999410265216
    vertex 380.6436022582527 1301.3528777090416 15.74999942877967
  endloop
endfacet
facet normal 1.7745850869066677e-09 5.07976806652573e-11 1.0
  outer loop
    vertex 392.8034002328994 1317.152877709042 15.749999428780976
    vertex 401.18664940110307 1313.3962159638606 15.749999283998271
    vertex 399.5873806042212 1317.2571923831729 15.749999216250263
  endloop
endfacet
facet normal 1.7745850869066677e-09 5.07976806652573e-11 1.0
  outer loop
    vertex 401.18664940110307 1313.3962159638606 15.749999283998271
    vertex 392.8034002328994 1317.152877709042 15.749999428780976
    vertex 394.62350124557526 1315.3327766963644 15.749999394003638
  endloop
endfacet
facet normal 1.7745850869066677e-09 5.07976806652573e-11 1.0
  outer loop
    vertex 401.18664940110307 1313.3962159638606 15.749999283998271
    vertex 394.62350124557526 1315.3327766963644 15.749999394003638
    vertex 394.62350124557634 1303.1729787217187 15.749999428778898
  endloop
endfacet
facet normal 1.7745850869066677e-09 5.07976806652573e-11 1.0
  outer loop
    vertex 401.18664940110307 1313.3962159638606 15.749999283998271
    vertex 394.62350124557634 1303.1729787217187 15.749999428778898
    vertex 401.5249694194179 1310.8264201032343 15.749999320265733
  endloop
endfacet
facet normal 1.7745850869066677e-09 5.07976806652573e-11 1.0
  outer loop
    vertex 401.5249694194179 1310.8264201032343 15.749999320265733
    vertex 394.62350124557634 1303.1729787217187 15.749999428778898
    vertex 401.73213020517966 1309.2528779028828 15.749999342472751
  endloop
endfacet
facet normal 1.7745850869066677e-09 5.07976806652573e-11 1.0
  outer loop
    vertex 401.73213020517966 1309.2528779028828 15.749999342472751
    vertex 394.62350124557634 1303.1729787217187 15.749999428778898
    vertex 407.23213019402937 1309.2528776324557 15.749999367383202
  endloop
endfacet
facet normal 1.7745850869066677e-09 5.07976806652573e-11 1.0
  outer loop
    vertex 407.23213019402937 1309.2528776324557 15.749999367383202
    vertex 394.62350124557634 1303.1729787217187 15.749999428778898
    vertex 407.2321301918225 1298.2528789060475 15.749999414224757
  endloop
endfacet
facet normal 1.7745850869066677e-09 5.07976806652573e-11 1.0
  outer loop
    vertex 407.2321301918225 1298.2528789060475 15.749999414224757
    vertex 394.62350124557634 1303.1729787217187 15.749999428778898
    vertex 392.8034002328988 1301.3528777090426 15.749999394002254
  endloop
endfacet
facet normal 1.7745850869066677e-09 5.07976806652573e-11 1.0
  outer loop
    vertex 407.2321301918225 1298.2528789060475 15.749999414224757
    vertex 392.8034002328988 1301.3528777090426 15.749999394002254
    vertex 380.6436022582527 1301.3528777090416 15.74999942877967
  endloop
endfacet
facet normal 1.7745850869066677e-09 5.07976806652573e-11 1.0
  outer loop
    vertex 407.2321301918225 1298.2528789060475 15.749999414224757
    vertex 380.6436022582527 1301.3528777090416 15.74999942877967
    vertex 365.72350071202925 1298.2528791748462 15.749999410265216
  endloop
endfacet
facet normal 1.1131596758778011e-13 -1.0 1.2167617520337182e-10
  outer loop
    vertex 392.80340022942187 1317.1528777087988 13.749999428780736
    vertex 380.6436022582535 1317.1528777090407 15.749999394003787
    vertex 380.64360225477594 1317.1528777087972 13.749999394003781
  endloop
endfacet
facet normal 1.1131596758778011e-13 -1.0 1.2167617520337182e-10
  outer loop
    vertex 380.6436022582535 1317.1528777090407 15.749999394003787
    vertex 392.80340022942187 1317.1528777087988 13.749999428780736
    vertex 392.8034002328994 1317.152877709042 15.749999428780976
  endloop
endfacet
facet normal -0.7071067811862848 0.7071067811868104 1.1434457256565553e-09
  outer loop
    vertex 392.8034002328988 1301.3528777090426 15.749999394002254
    vertex 394.6235012420989 1303.1729787214751 13.74999942877889
    vertex 392.80340022942136 1301.3528777087993 13.749999394002245
  endloop
endfacet
facet normal -0.7071067811862848 0.7071067811868104 1.1434457256565553e-09
  outer loop
    vertex 394.6235012420989 1303.1729787214751 13.74999942877889
    vertex 392.8034002328988 1301.3528777090426 15.749999394002254
    vertex 394.62350124557634 1303.1729787217187 15.749999428778898
  endloop
endfacet
facet normal -6.679013772387402e-14 1.0 -1.2167617520344922e-10
  outer loop
    vertex 380.6436022582527 1301.3528777090416 15.74999942877967
    vertex 392.80340022942136 1301.3528777087993 13.749999394002245
    vertex 380.6436022547752 1301.3528777087984 13.749999428779434
  endloop
endfacet
facet normal -6.679013772387402e-14 1.0 -1.2167617520344922e-10
  outer loop
    vertex 392.80340022942136 1301.3528777087993 13.749999394002245
    vertex 380.6436022582527 1301.3528777090416 15.74999942877967
    vertex 392.8034002328988 1301.3528777090426 15.749999394002254
  endloop
endfacet
facet normal -0.7071067811868806 -0.7071067811862143 1.31552182284815e-09
  outer loop
    vertex 394.62350124557526 1315.3327766963644 15.749999394003638
    vertex 392.80340022942187 1317.1528777087988 13.749999428780736
    vertex 394.62350124209775 1315.332776696121 13.74999939400363
  endloop
endfacet
facet normal -0.7071067811868806 -0.7071067811862143 1.31552182284815e-09
  outer loop
    vertex 392.80340022942187 1317.1528777087988 13.749999428780736
    vertex 394.62350124557526 1315.3327766963644 15.749999394003638
    vertex 392.8034002328994 1317.152877709042 15.749999428780976
  endloop
endfacet
facet normal -0.500000000006266 0.866025403780821 1.1504924203613948e-10
  outer loop
    vertex 397.72350046044255 1331.9849284604873 20.249999342697343
    vertex 398.2058623694488 1332.184729305639 15.749999350073312
    vertex 397.72350045965396 1331.9849284606298 15.749999350195964
  endloop
endfacet
facet normal -0.3826834323651242 0.9238795325112726 9.632154778980833e-11
  outer loop
    vertex 398.2058623694488 1332.184729305639 15.749999350073312
    vertex 397.72350046044255 1331.9849284604873 20.249999342697343
    vertex 398.2058623702375 1332.1847293054966 20.24999934257469
  endloop
endfacet
facet normal 6.56657851262162e-10 1.0 -7.437432484686266e-10
  outer loop
    vertex 364.7235007153852 1332.2528776974855 20.24999940826448
    vertex 361.72350071213924 1332.252877697026 13.749999409422053
    vertex 361.72350071178204 1332.2528776969716 20.24999940790179
  endloop
endfacet
facet normal 6.56657851262162e-10 1.0 -7.437432484686266e-10
  outer loop
    vertex 361.72350071213924 1332.252877697026 13.749999409422053
    vertex 364.7235007153852 1332.2528776974855 20.24999940826448
    vertex 364.7235007173079 1332.2528776973027 15.749999408203934
  endloop
endfacet
facet normal 6.56657851262162e-10 1.0 -7.437432484686266e-10
  outer loop
    vertex 361.72350071213924 1332.252877697026 13.749999409422053
    vertex 364.7235007173079 1332.2528776973027 15.749999408203934
    vertex 407.2321301910277 1332.2528776901422 13.749999411546668
  endloop
endfacet
facet normal 6.56657851262162e-10 1.0 -7.437432484686266e-10
  outer loop
    vertex 407.2321301910277 1332.2528776901422 13.749999411546668
    vertex 364.7235007173079 1332.2528776973027 15.749999408203934
    vertex 398.72350046010314 1332.2528776473948 15.749999408344392
  endloop
endfacet
facet normal 6.56657851262162e-10 1.0 -7.437432484686266e-10
  outer loop
    vertex 407.2321301910277 1332.2528776901422 13.749999411546668
    vertex 398.72350046010314 1332.2528776473948 15.749999408344392
    vertex 398.7235004604425 1332.2528776529184 20.24999934244579
  endloop
endfacet
facet normal 6.56657851262162e-10 1.0 -7.437432484686266e-10
  outer loop
    vertex 407.2321301910277 1332.2528776901422 13.749999411546668
    vertex 398.7235004604425 1332.2528776529184 20.24999934244579
    vertex 407.23213019279825 1332.252877690228 20.24999934014815
  endloop
endfacet
facet normal 1.0 -1.735362428111648e-11 -3.760546884879181e-10
  outer loop
    vertex 407.2321301910277 1332.2528776901422 13.749999411546668
    vertex 407.23213019402937 1309.2528776324557 15.749999367383202
    vertex 407.23213018834497 1298.2528789058042 13.749999414224519
  endloop
endfacet
facet normal 1.0 -1.735362428111648e-11 -3.760546884879181e-10
  outer loop
    vertex 407.23213019402937 1309.2528776324557 15.749999367383202
    vertex 407.2321301910277 1332.2528776901422 13.749999411546668
    vertex 407.23213019279825 1332.252877690228 20.24999934014815
  endloop
endfacet
facet normal 1.0 -1.735362428111648e-11 -3.760546884879181e-10
  outer loop
    vertex 407.23213019402937 1309.2528776324557 15.749999367383202
    vertex 407.23213019279825 1332.252877690228 20.24999934014815
    vertex 407.23213019279825 1309.2528779365941 20.24999934014625
  endloop
endfacet
facet normal 1.0 -1.735362428111648e-11 -3.760546884879181e-10
  outer loop
    vertex 407.2321301918225 1298.2528789060475 15.749999414224757
    vertex 407.23213018834497 1298.2528789058042 13.749999414224519
    vertex 407.23213019402937 1309.2528776324557 15.749999367383202
  endloop
endfacet
facet normal 2.723772727873924e-10 1.3172445530406921e-11 1.0
  outer loop
    vertex 398.7235004604425 1332.2528776529184 20.24999934244579
    vertex 407.23213019279825 1309.2528779365941 20.24999934014625
    vertex 407.23213019279825 1332.252877690228 20.24999934014815
  endloop
endfacet
facet normal 2.723772727873924e-10 1.3172445530406921e-11 1.0
  outer loop
    vertex 407.23213019279825 1309.2528779365941 20.24999934014625
    vertex 398.7235004604425 1332.2528776529184 20.24999934244579
    vertex 398.2058623702375 1332.1847293054966 20.24999934257469
  endloop
endfacet
facet normal 2.723772727873924e-10 1.3172445530406921e-11 1.0
  outer loop
    vertex 407.23213019279825 1309.2528779365941 20.24999934014625
    vertex 398.2058623702375 1332.1847293054966 20.24999934257469
    vertex 397.72350046044255 1331.9849284604873 20.249999342697343
  endloop
endfacet
facet normal 2.723772727873924e-10 1.3172445530406921e-11 1.0
  outer loop
    vertex 407.23213019279825 1309.2528779365941 20.24999934014625
    vertex 397.72350046044255 1331.9849284604873 20.249999342697343
    vertex 397.30928689806944 1331.6670912152915 20.249999342805662
  endloop
endfacet
facet normal 2.723772727873924e-10 1.3172445530406921e-11 1.0
  outer loop
    vertex 407.23213019279825 1309.2528779365941 20.24999934014625
    vertex 397.30928689806944 1331.6670912152915 20.249999342805662
    vertex 396.9914496528736 1331.2528776529184 20.24999934289179
  endloop
endfacet
facet normal 2.723772727873924e-10 1.3172445530406921e-11 1.0
  outer loop
    vertex 407.23213019279825 1309.2528779365941 20.24999934014625
    vertex 396.9914496528736 1331.2528776529184 20.24999934289179
    vertex 396.7916488078644 1330.7705157431233 20.249999342950428
  endloop
endfacet
facet normal 2.723772727873924e-10 1.3172445530406921e-11 1.0
  outer loop
    vertex 407.23213019279825 1309.2528779365941 20.24999934014625
    vertex 396.7916488078644 1330.7705157431233 20.249999342950428
    vertex 396.72350046044255 1330.2528776529184 20.249999342977183
  endloop
endfacet
facet normal 2.723772727873924e-10 1.3172445530406921e-11 1.0
  outer loop
    vertex 407.23213019279825 1309.2528779365941 20.24999934014625
    vertex 396.72350046044255 1330.2528776529184 20.249999342977183
    vertex 398.22350048807505 1322.2528776959093 20.249999342474073
  endloop
endfacet
facet normal 2.723772727873924e-10 1.3172445530406921e-11 1.0
  outer loop
    vertex 398.22350048807505 1322.2528776959093 20.249999342474073
    vertex 396.72350046044255 1330.2528776529184 20.249999342977183
    vertex 396.7235004571334 1324.102877680091 20.249999342483697
  endloop
endfacet
facet normal 2.723772727873924e-10 1.3172445530406921e-11 1.0
  outer loop
    vertex 407.23213019279825 1309.2528779365941 20.24999934014625
    vertex 398.22350048807505 1322.2528776959093 20.249999342474073
    vertex 399.2235004934082 1317.731410194987 20.249999342473703
  endloop
endfacet
facet normal 2.723772727873924e-10 1.3172445530406921e-11 1.0
  outer loop
    vertex 407.23213019279825 1309.2528779365941 20.24999934014625
    vertex 399.2235004934082 1317.731410194987 20.249999342473703
    vertex 399.58738060321417 1317.2571924032154 20.249999342473664
  endloop
endfacet
facet normal 2.723772727873924e-10 1.3172445530406921e-11 1.0
  outer loop
    vertex 407.23213019279825 1309.2528779365941 20.24999934014625
    vertex 399.58738060321417 1317.2571924032154 20.249999342473664
    vertex 401.1866494145063 1313.3962159840814 20.24999934247334
  endloop
endfacet
facet normal 2.723772727873924e-10 1.3172445530406921e-11 1.0
  outer loop
    vertex 407.23213019279825 1309.2528779365941 20.24999934014625
    vertex 401.1866494145063 1313.3962159840814 20.24999934247334
    vertex 401.7321301927982 1309.252877937315 20.249999342473
  endloop
endfacet
facet normal -0.7933533402912736 -0.6087614290086707 2.533838011296019e-09
  outer loop
    vertex 399.58738060321417 1317.2571924032154 20.249999342473664
    vertex 399.22350049441525 1317.7314101749444 15.749999312753111
    vertex 399.5873806042212 1317.2571923831729 15.749999216250263
  endloop
endfacet
facet normal -0.7933533402912736 -0.6087614290086707 2.533838011296019e-09
  outer loop
    vertex 399.22350049441525 1317.7314101749444 15.749999312753111
    vertex 399.58738060321417 1317.2571924032154 20.249999342473664
    vertex 399.2235004934082 1317.731410194987 20.249999342473703
  endloop
endfacet
facet normal -0.9238795318986047 -0.38268343384423503 2.9845246138519146e-09
  outer loop
    vertex 401.18664940110307 1313.3962159638606 15.749999283998271
    vertex 399.58738060321417 1317.2571924032154 20.249999342473664
    vertex 399.5873806042212 1317.2571923831729 15.749999216250263
  endloop
endfacet
facet normal -0.9238795318986047 -0.38268343384423503 2.9845246138519146e-09
  outer loop
    vertex 399.58738060321417 1317.2571924032154 20.249999342473664
    vertex 401.18664940110307 1313.3962159638606 15.749999283998271
    vertex 401.1866494145063 1313.3962159840814 20.24999934247334
  endloop
endfacet
facet normal -2.464978675585499e-08 -0.9999999999999991 3.761895430600795e-08
  outer loop
    vertex 401.73213020517966 1309.2528779028828 15.749999342472751
    vertex 407.23213019279825 1309.2528779365941 20.24999934014625
    vertex 401.7321301927982 1309.252877937315 20.249999342473
  endloop
endfacet
facet normal -2.464978675585499e-08 -0.9999999999999991 3.761895430600795e-08
  outer loop
    vertex 407.23213019279825 1309.2528779365941 20.24999934014625
    vertex 401.73213020517966 1309.2528779028828 15.749999342472751
    vertex 407.23213019402937 1309.2528776324557 15.749999367383202
  endloop
endfacet
facet normal -0.9914448618020538 -0.13052618896721865 2.621015409766123e-09
  outer loop
    vertex 401.5249694194179 1310.8264201032343 15.749999320265733
    vertex 401.1866494145063 1313.3962159840814 20.24999934247334
    vertex 401.18664940110307 1313.3962159638606 15.749999283998271
  endloop
endfacet
facet normal -0.9914448618020538 -0.13052618896721865 2.621015409766123e-09
  outer loop
    vertex 401.1866494145063 1313.3962159840814 20.24999934247334
    vertex 401.5249694194179 1310.8264201032343 15.749999320265733
    vertex 401.73213020517966 1309.2528779028828 15.749999342472751
  endloop
endfacet
facet normal -0.9914448618020538 -0.13052618896721865 2.621015409766123e-09
  outer loop
    vertex 401.1866494145063 1313.3962159840814 20.24999934247334
    vertex 401.73213020517966 1309.2528779028828 15.749999342472751
    vertex 401.7321301927982 1309.252877937315 20.249999342473
  endloop
endfacet
facet normal -0.9764047260958336 -0.21594863013624313 5.059094577805945e-09
  outer loop
    vertex 399.2235004934082 1317.731410194987 20.249999342473703
    vertex 399.0014011065271 1318.7356249960608 15.749999333993559
    vertex 399.22350049441525 1317.7314101749444 15.749999312753111
  endloop
endfacet
facet normal -0.9764047260958336 -0.21594863013624313 5.059094577805945e-09
  outer loop
    vertex 399.0014011065271 1318.7356249960608 15.749999333993559
    vertex 399.2235004934082 1317.731410194987 20.249999342473703
    vertex 398.22350049441513 1322.2528776962758 15.749999408387227
  endloop
endfacet
facet normal -0.9764047260958336 -0.21594863013624313 5.059094577805945e-09
  outer loop
    vertex 398.22350049441513 1322.2528776962758 15.749999408387227
    vertex 399.2235004934082 1317.731410194987 20.249999342473703
    vertex 398.22350048807505 1322.2528776959093 20.249999342474073
  endloop
endfacet
facet normal -0.7767557389789052 -0.6298019704346239 -5.147558369130627e-10
  outer loop
    vertex 398.22350049441513 1322.2528776962758 15.749999408387227
    vertex 396.7235004571334 1324.102877680091 20.249999342483697
    vertex 396.72350045634477 1324.1028776802336 15.74999934998232
  endloop
endfacet
facet normal -0.7767557389789052 -0.6298019704346239 -5.147558369130627e-10
  outer loop
    vertex 396.7235004571334 1324.102877680091 20.249999342483697
    vertex 398.22350049441513 1322.2528776962758 15.749999408387227
    vertex 398.22350048807505 1322.2528776959093 20.249999342474073
  endloop
endfacet
facet normal -0.9659258262876095 0.2588190451079647 1.7747548744061562e-10
  outer loop
    vertex 396.79164880707583 1330.7705157432658 15.749999350449052
    vertex 396.9914496528736 1331.2528776529184 20.24999934289179
    vertex 396.99144965208507 1331.2528776530608 15.749999350390414
  endloop
endfacet
facet normal -0.8660254037877654 0.49999999999423805 1.6760300939378584e-10
  outer loop
    vertex 396.9914496528736 1331.2528776529184 20.24999934289179
    vertex 396.79164880707583 1330.7705157432658 15.749999350449052
    vertex 396.7916488078644 1330.7705157431233 20.249999342950428
  endloop
endfacet
facet normal -0.8660254037811472 0.5000000000057007 1.6760300939298877e-10
  outer loop
    vertex 396.99144965208507 1331.2528776530608 15.749999350390414
    vertex 397.30928689806944 1331.6670912152915 20.249999342805662
    vertex 397.3092868972808 1331.667091215434 15.74999935030428
  endloop
endfacet
facet normal -0.7071067811916085 0.7071067811814865 1.4631048708179274e-10
  outer loop
    vertex 397.30928689806944 1331.6670912152915 20.249999342805662
    vertex 396.99144965208507 1331.2528776530608 15.749999350390414
    vertex 396.9914496528736 1331.2528776529184 20.24999934289179
  endloop
endfacet
facet normal -0.9914448613738019 0.13052619222011608 1.7788518456970344e-10
  outer loop
    vertex 396.72350045965396 1330.252877653061 15.749999350475806
    vertex 396.7916488078644 1330.7705157431233 20.249999342950428
    vertex 396.79164880707583 1330.7705157432658 15.749999350449052
  endloop
endfacet
facet normal -0.9659258262905221 0.25881904509709514 1.774754874407818e-10
  outer loop
    vertex 396.7916488078644 1330.7705157431233 20.249999342950428
    vertex 396.72350045965396 1330.252877653061 15.749999350475806
    vertex 396.72350046044255 1330.2528776529184 20.249999342977183
  endloop
endfacet
facet normal -1.0 5.380769723716311e-10 1.7525121651472561e-10
  outer loop
    vertex 396.7235004571334 1324.102877680091 20.249999342483697
    vertex 396.72350045965396 1330.252877653061 15.749999350475806
    vertex 396.72350045634477 1324.1028776802336 15.74999934998232
  endloop
endfacet
facet normal -1.0 5.380769723716311e-10 1.7525121651472561e-10
  outer loop
    vertex 396.72350045965396 1330.252877653061 15.749999350475806
    vertex 396.7235004571334 1324.102877680091 20.249999342483697
    vertex 396.72350046044255 1330.2528776529184 20.249999342977183
  endloop
endfacet
facet normal -0.7071067811916085 0.7071067811814865 1.4631048708179274e-10
  outer loop
    vertex 397.30928689806944 1331.6670912152915 20.249999342805662
    vertex 397.72350045965396 1331.9849284606298 15.749999350195964
    vertex 397.3092868972808 1331.667091215434 15.74999935030428
  endloop
endfacet
facet normal -0.4999999999937211 0.8660254037880638 1.1504924203417032e-10
  outer loop
    vertex 397.72350045965396 1331.9849284606298 15.749999350195964
    vertex 397.30928689806944 1331.6670912152915 20.249999342805662
    vertex 397.72350046044255 1331.9849284604873 20.249999342697343
  endloop
endfacet
facet normal -0.13052618575330108 0.9914448622251743 -4.436484169537246e-10
  outer loop
    vertex 398.2058623702375 1332.1847293054966 20.24999934257469
    vertex 398.2189018277401 1332.1864459834665 15.74999935154116
    vertex 398.2058623694488 1332.184729305639 15.749999350073312
  endloop
endfacet
facet normal -0.13052618575330108 0.9914448622251743 -4.436484169537246e-10
  outer loop
    vertex 398.2189018277401 1332.1864459834665 15.74999935154116
    vertex 398.2058623702375 1332.1847293054966 20.24999934257469
    vertex 398.7235004604425 1332.2528776529184 20.24999934244579
  endloop
endfacet
facet normal -0.13052618575330108 0.9914448622251743 -4.436484169537246e-10
  outer loop
    vertex 398.2189018277401 1332.1864459834665 15.74999935154116
    vertex 398.7235004604425 1332.2528776529184 20.24999934244579
    vertex 398.72350046010314 1332.2528776473948 15.749999408344392
  endloop
endfacet
endsolid Design - Rolled
