solid Design - Rolled
facet normal 1.8384611851907215e-09 1.3675164253060897e-09 1.0
  outer loop
    vertex 327.50979275880536 1458.4154613361802 23.499999967399418
    vertex 329.50979275880536 1459.2438884609273 23.49999997896774
    vertex 327.5097927588062 1472.2321135603192 23.500000014668394
  endloop
endfacet
facet normal 1.8384611851907215e-09 1.3675164253060897e-09 1.0
  outer loop
    vertex 329.50979275880536 1459.2438884609273 23.49999997896774
    vertex 327.50979275880536 1458.4154613361802 23.499999967399418
    vertex 330.50146664673696 1455.4237874482515 23.500000014668394
  endloop
endfacet
facet normal 1.8384611851907215e-09 1.3675164253060897e-09 1.0
  outer loop
    vertex 329.50979275880536 1459.2438884609273 23.49999997896774
    vertex 330.50146664673696 1455.4237874482515 23.500000014668394
    vertex 331.3298937714829 1457.4237874482515 23.5000000137448
  endloop
endfacet
facet normal 1.8384611851907215e-09 1.3675164253060897e-09 1.0
  outer loop
    vertex 331.3298937714829 1457.4237874482515 23.5000000137448
    vertex 330.50146664673696 1455.4237874482515 23.500000014668394
    vertex 344.3181188708759 1455.4237874482506 23.499999967399418
  endloop
endfacet
facet normal 1.8384611851907215e-09 1.3675164253060897e-09 1.0
  outer loop
    vertex 331.3298937714829 1457.4237874482515 23.5000000137448
    vertex 344.3181188708759 1455.4237874482506 23.499999967399418
    vertex 343.48969174612887 1457.4237874482506 23.49999997896774
  endloop
endfacet
facet normal 1.8384611851907215e-09 1.3675164253060897e-09 1.0
  outer loop
    vertex 343.48969174612887 1457.4237874482506 23.49999997896774
    vertex 344.3181188708759 1455.4237874482506 23.499999967399418
    vertex 345.30979275880475 1459.243888460928 23.5000000137448
  endloop
endfacet
facet normal 1.8384611851907215e-09 1.3675164253060897e-09 1.0
  outer loop
    vertex 345.30979275880475 1459.243888460928 23.5000000137448
    vertex 344.3181188708759 1455.4237874482506 23.499999967399418
    vertex 347.3097927588048 1458.415461336182 23.500000014668394
  endloop
endfacet
facet normal 1.8384611851907215e-09 1.3675164253060897e-09 1.0
  outer loop
    vertex 345.30979275880475 1459.243888460928 23.5000000137448
    vertex 347.3097927588048 1458.415461336182 23.500000014668394
    vertex 345.3097927588058 1471.403686435574 23.49999997896774
  endloop
endfacet
facet normal 1.8384611851907215e-09 1.3675164253060897e-09 1.0
  outer loop
    vertex 327.5097927588062 1472.2321135603192 23.500000014668394
    vertex 329.5097927588063 1471.4036864355733 23.5000000137448
    vertex 330.5014666467352 1475.2237874482507 23.499999967399418
  endloop
endfacet
facet normal 1.8384611851907215e-09 1.3675164253060897e-09 1.0
  outer loop
    vertex 329.5097927588063 1471.4036864355733 23.5000000137448
    vertex 327.5097927588062 1472.2321135603192 23.500000014668394
    vertex 329.50979275880536 1459.2438884609273 23.49999997896774
  endloop
endfacet
facet normal 1.8384611851907215e-09 1.3675164253060897e-09 1.0
  outer loop
    vertex 330.5014666467352 1475.2237874482507 23.499999967399418
    vertex 329.5097927588063 1471.4036864355733 23.5000000137448
    vertex 331.3298937714822 1473.2237874482507 23.49999997896774
  endloop
endfacet
facet normal 1.8384611851907215e-09 1.3675164253060897e-09 1.0
  outer loop
    vertex 330.5014666467352 1475.2237874482507 23.499999967399418
    vertex 331.3298937714822 1473.2237874482507 23.49999997896774
    vertex 344.31811887087423 1475.2237874482498 23.500000014668394
  endloop
endfacet
facet normal 1.8384611851907215e-09 1.3675164253060897e-09 1.0
  outer loop
    vertex 344.31811887087423 1475.2237874482498 23.500000014668394
    vertex 331.3298937714822 1473.2237874482507 23.49999997896774
    vertex 343.4896917461283 1473.2237874482498 23.5000000137448
  endloop
endfacet
facet normal 1.8384611851907215e-09 1.3675164253060897e-09 1.0
  outer loop
    vertex 344.31811887087423 1475.2237874482498 23.500000014668394
    vertex 343.4896917461283 1473.2237874482498 23.5000000137448
    vertex 345.3097927588058 1471.403686435574 23.49999997896774
  endloop
endfacet
facet normal 1.8384611851907215e-09 1.3675164253060897e-09 1.0
  outer loop
    vertex 344.31811887087423 1475.2237874482498 23.500000014668394
    vertex 345.3097927588058 1471.403686435574 23.49999997896774
    vertex 347.3097927588058 1472.232113560321 23.49999969989661
  endloop
endfacet
facet normal 1.8384611851907215e-09 1.3675164253060897e-09 1.0
  outer loop
    vertex 347.3097927588058 1472.232113560321 23.49999969989661
    vertex 345.3097927588058 1471.403686435574 23.49999997896774
    vertex 347.3097927588048 1458.415461336182 23.500000014668394
  endloop
endfacet
facet normal 0.7071067811868631 -0.7071067811862315 2.612531863067849e-08
  outer loop
    vertex 331.3298940293362 1473.2237871149562 7.49999998633839
    vertex 329.5097927588063 1471.4036864355733 23.5000000137448
    vertex 329.5097930166603 1471.4036861022787 7.5000000211154525
  endloop
endfacet
facet normal 0.7071067811868631 -0.7071067811862315 2.612531863067849e-08
  outer loop
    vertex 329.5097927588063 1471.4036864355733 23.5000000137448
    vertex 331.3298940293362 1473.2237871149562 7.49999998633839
    vertex 331.3298937714822 1473.2237874482507 23.49999997896774
  endloop
endfacet
facet normal 3.0745301344970668e-09 -0.9999999999999998 1.9346944066891734e-08
  outer loop
    vertex 343.4896914114094 1473.2237871861857 7.500000021204617
    vertex 331.3298937714822 1473.2237874482507 23.49999997896774
    vertex 331.3298940293362 1473.2237871149562 7.49999998633839
  endloop
endfacet
facet normal 3.0745301344970668e-09 -0.9999999999999998 1.9346944066891734e-08
  outer loop
    vertex 331.3298937714822 1473.2237874482507 23.49999997896774
    vertex 343.4896914114094 1473.2237871861857 7.500000021204617
    vertex 343.4896917461283 1473.2237874482498 23.5000000137448
  endloop
endfacet
facet normal 0.707106781186232 0.7071067811868631 2.3926273517903743e-09
  outer loop
    vertex 329.50979275880536 1459.2438884609273 23.49999997896774
    vertex 331.32989392301295 1457.4237873508603 7.500000102154236
    vertex 329.5097929103354 1459.2438883635361 7.500000067377169
  endloop
endfacet
facet normal 0.707106781186232 0.7071067811868631 2.3926273517903743e-09
  outer loop
    vertex 331.32989392301295 1457.4237873508603 7.500000102154236
    vertex 329.50979275880536 1459.2438884609273 23.49999997896774
    vertex 331.3298937714829 1457.4237874482515 23.5000000137448
  endloop
endfacet
facet normal -1.6743740170669394e-08 1.0 5.169889733743222e-09
  outer loop
    vertex 331.32989392301295 1457.4237873508603 7.500000102154236
    vertex 343.48969174612887 1457.4237874482506 23.49999997896774
    vertex 343.4896914861983 1457.4237877828887 7.4999999863618445
  endloop
endfacet
facet normal -1.6743740170669394e-08 1.0 5.169889733743222e-09
  outer loop
    vertex 343.48969174612887 1457.4237874482506 23.49999997896774
    vertex 331.32989392301295 1457.4237873508603 7.500000102154236
    vertex 331.3298937714829 1457.4237874482515 23.5000000137448
  endloop
endfacet
facet normal 1.0 -4.589470510600985e-09 1.1685709969187368e-08
  outer loop
    vertex 329.5097930166603 1471.4036861022787 7.5000000211154525
    vertex 329.50979275880536 1459.2438884609273 23.49999997896774
    vertex 329.5097929103354 1459.2438883635361 7.500000067377169
  endloop
endfacet
facet normal 1.0 -4.589470510600985e-09 1.1685709969187368e-08
  outer loop
    vertex 329.50979275880536 1459.2438884609273 23.49999997896774
    vertex 329.5097930166603 1471.4036861022787 7.5000000211154525
    vertex 329.5097927588063 1471.4036864355733 23.5000000137448
  endloop
endfacet
facet normal -0.7071067811862315 -0.7071067811868631 2.637432449104035e-08
  outer loop
    vertex 345.3097927588058 1471.403686435574 23.49999997896774
    vertex 343.4896914114094 1473.2237871861857 7.500000021204617
    vertex 345.30979242408694 1471.4036861735099 7.4999999864275555
  endloop
endfacet
facet normal -0.7071067811862315 -0.7071067811868631 2.637432449104035e-08
  outer loop
    vertex 343.4896914114094 1473.2237871861857 7.500000021204617
    vertex 345.3097927588058 1471.403686435574 23.49999997896774
    vertex 343.4896917461283 1473.2237874482498 23.5000000137448
  endloop
endfacet
facet normal -0.9999999999999998 -3.2281010696185015e-09 1.9361839131014348e-08
  outer loop
    vertex 345.3097927588058 1471.403686435574 23.49999997896774
    vertex 345.3097924988742 1459.2438887955661 7.500000021138907
    vertex 345.30979275880475 1459.243888460928 23.5000000137448
  endloop
endfacet
facet normal -0.9999999999999998 -3.2281010696185015e-09 1.9361839131014348e-08
  outer loop
    vertex 345.3097924988742 1459.2438887955661 7.500000021138907
    vertex 345.3097927588058 1471.403686435574 23.49999997896774
    vertex 345.30979242408694 1471.4036861735099 7.4999999864275555
  endloop
endfacet
facet normal -0.7071067811868631 0.7071067811862315 2.627647024413132e-08
  outer loop
    vertex 345.30979275880475 1459.243888460928 23.5000000137448
    vertex 343.4896914861983 1457.4237877828887 7.4999999863618445
    vertex 343.48969174612887 1457.4237874482506 23.49999997896774
  endloop
endfacet
facet normal -0.7071067811868631 0.7071067811862315 2.627647024413132e-08
  outer loop
    vertex 343.4896914861983 1457.4237877828887 7.4999999863618445
    vertex 345.30979275880475 1459.243888460928 23.5000000137448
    vertex 345.3097924988742 1459.2438887955661 7.500000021138907
  endloop
endfacet
facet normal -0.7071067811868461 0.7071067811862484 -3.2050869080994046e-08
  outer loop
    vertex 327.5097927588062 1472.2321135603192 23.500000014668394
    vertex 330.50146696547705 1475.2237870417646 7.4999999283884815
    vertex 327.50979307754807 1472.232113153833 7.499999975657459
  endloop
endfacet
facet normal -0.7071067811868461 0.7071067811862484 -3.2050869080994046e-08
  outer loop
    vertex 330.50146696547705 1475.2237870417646 7.4999999283884815
    vertex 327.5097927588062 1472.2321135603192 23.500000014668394
    vertex 330.5014666467352 1475.2237874482507 23.499999967399418
  endloop
endfacet
facet normal -1.0 4.872685420959267e-09 -8.145474429619199e-09
  outer loop
    vertex 327.50979275880536 1458.4154613361802 23.499999967399418
    vertex 327.50979307754807 1472.232113153833 7.499999975657459
    vertex 327.50979288612484 1458.4154612437746 7.500000061332681
  endloop
endfacet
facet normal -1.0 4.872685420959267e-09 -8.145474429619199e-09
  outer loop
    vertex 327.50979307754807 1472.232113153833 7.499999975657459
    vertex 327.50979275880536 1458.4154613361802 23.499999967399418
    vertex 327.5097927588062 1472.2321135603192 23.500000014668394
  endloop
endfacet
facet normal 3.11507126056549e-08 0.9999999999999991 -2.791747543855663e-08
  outer loop
    vertex 330.5014666467352 1475.2237874482507 23.499999967399418
    vertex 344.31811671297567 1475.2237858180085 7.500000088040338
    vertex 330.50146696547705 1475.2237870417646 7.4999999283884815
  endloop
endfacet
facet normal 3.11507126056549e-08 0.9999999999999991 -2.791747543855663e-08
  outer loop
    vertex 344.31811671297567 1475.2237858180085 7.500000088040338
    vertex 330.5014666467352 1475.2237874482507 23.499999967399418
    vertex 344.31811887087423 1475.2237874482498 23.500000014668394
  endloop
endfacet
facet normal -0.7071067811862383 -0.7071067811868568 -1.5429982402811762e-09
  outer loop
    vertex 330.5014667740564 1455.423787355846 7.500000108601658
    vertex 327.50979275880536 1458.4154613361802 23.499999967399418
    vertex 327.50979288612484 1458.4154612437746 7.500000061332681
  endloop
endfacet
facet normal -0.7071067811862383 -0.7071067811868568 -1.5429982402811762e-09
  outer loop
    vertex 327.50979275880536 1458.4154613361802 23.499999967399418
    vertex 330.5014667740564 1455.423787355846 7.500000108601658
    vertex 330.50146664673696 1455.4237874482515 23.500000014668394
  endloop
endfacet
facet normal 1.2938827533969756e-08 -1.0 -3.9144682002094776e-09
  outer loop
    vertex 344.3181188708759 1455.4237874482506 23.499999967399418
    vertex 330.5014667740564 1455.423787355846 7.500000108601658
    vertex 344.3181185396292 1455.4237878641495 7.4999998284466685
  endloop
endfacet
facet normal 1.2938827533969756e-08 -1.0 -3.9144682002094776e-09
  outer loop
    vertex 330.5014667740564 1455.423787355846 7.500000108601658
    vertex 344.3181188708759 1455.4237874482506 23.499999967399418
    vertex 330.50146664673696 1455.4237874482515 23.500000014668394
  endloop
endfacet
facet normal 0.7071067811868673 -0.7071067811862269 -3.301950359805293e-08
  outer loop
    vertex 344.3181185396292 1455.4237878641495 7.4999998284466685
    vertex 347.3097927588048 1458.415461336182 23.500000014668394
    vertex 344.3181188708759 1455.4237874482506 23.499999967399418
  endloop
endfacet
facet normal 0.7071067811868673 -0.7071067811862269 -3.301950359805293e-08
  outer loop
    vertex 347.3097927588048 1458.415461336182 23.500000014668394
    vertex 344.3181185396292 1455.4237878641495 7.4999998284466685
    vertex 347.30979242755814 1458.4154617520812 7.499999875715646
  endloop
endfacet
facet normal -5.69317059967083e-09 1.2025210005191348e-09 -1.0
  outer loop
    vertex 327.50979307754807 1472.232113153833 7.499999975657459
    vertex 329.5097930166603 1471.4036861022787 7.5000000211154525
    vertex 329.5097929103354 1459.2438883635361 7.500000067377169
  endloop
endfacet
facet normal -5.69317059967083e-09 1.2025210005191348e-09 -1.0
  outer loop
    vertex 329.5097930166603 1471.4036861022787 7.5000000211154525
    vertex 327.50979307754807 1472.232113153833 7.499999975657459
    vertex 330.50146696547705 1475.2237870417646 7.4999999283884815
  endloop
endfacet
facet normal -5.69317059967083e-09 1.2025210005191348e-09 -1.0
  outer loop
    vertex 329.5097930166603 1471.4036861022787 7.5000000211154525
    vertex 330.50146696547705 1475.2237870417646 7.4999999283884815
    vertex 331.3298940293362 1473.2237871149562 7.49999998633839
  endloop
endfacet
facet normal -5.69317059967083e-09 1.2025210005191348e-09 -1.0
  outer loop
    vertex 331.3298940293362 1473.2237871149562 7.49999998633839
    vertex 330.50146696547705 1475.2237870417646 7.4999999283884815
    vertex 344.31811671297567 1475.2237858180085 7.500000088040338
  endloop
endfacet
facet normal -5.69317059967083e-09 1.2025210005191348e-09 -1.0
  outer loop
    vertex 331.3298940293362 1473.2237871149562 7.49999998633839
    vertex 344.31811671297567 1475.2237858180085 7.500000088040338
    vertex 343.4896914114094 1473.2237871861857 7.500000021204617
  endloop
endfacet
facet normal -5.69317059967083e-09 1.2025210005191348e-09 -1.0
  outer loop
    vertex 343.4896914114094 1473.2237871861857 7.500000021204617
    vertex 344.31811671297567 1475.2237858180085 7.500000088040338
    vertex 345.30979242408694 1471.4036861735099 7.4999999864275555
  endloop
endfacet
facet normal -5.69317059967083e-09 1.2025210005191348e-09 -1.0
  outer loop
    vertex 345.30979242408694 1471.4036861735099 7.4999999864275555
    vertex 344.31811671297567 1475.2237858180085 7.500000088040338
    vertex 347.30979060090726 1472.2321119300796 7.49999977326855
  endloop
endfacet
facet normal -5.69317059967083e-09 1.2025210005191348e-09 -1.0
  outer loop
    vertex 345.30979242408694 1471.4036861735099 7.4999999864275555
    vertex 347.30979060090726 1472.2321119300796 7.49999977326855
    vertex 345.3097924988742 1459.2438887955661 7.500000021138907
  endloop
endfacet
facet normal -5.69317059967083e-09 1.2025210005191348e-09 -1.0
  outer loop
    vertex 327.50979288612484 1458.4154612437746 7.500000061332681
    vertex 329.5097929103354 1459.2438883635361 7.500000067377169
    vertex 330.5014667740564 1455.423787355846 7.500000108601658
  endloop
endfacet
facet normal -5.69317059967083e-09 1.2025210005191348e-09 -1.0
  outer loop
    vertex 329.5097929103354 1459.2438883635361 7.500000067377169
    vertex 327.50979288612484 1458.4154612437746 7.500000061332681
    vertex 327.50979307754807 1472.232113153833 7.499999975657459
  endloop
endfacet
facet normal -5.69317059967083e-09 1.2025210005191348e-09 -1.0
  outer loop
    vertex 330.5014667740564 1455.423787355846 7.500000108601658
    vertex 329.5097929103354 1459.2438883635361 7.500000067377169
    vertex 331.32989392301295 1457.4237873508603 7.500000102154236
  endloop
endfacet
facet normal -5.69317059967083e-09 1.2025210005191348e-09 -1.0
  outer loop
    vertex 330.5014667740564 1455.423787355846 7.500000108601658
    vertex 331.32989392301295 1457.4237873508603 7.500000102154236
    vertex 344.3181185396292 1455.4237878641495 7.4999998284466685
  endloop
endfacet
facet normal -5.69317059967083e-09 1.2025210005191348e-09 -1.0
  outer loop
    vertex 344.3181185396292 1455.4237878641495 7.4999998284466685
    vertex 331.32989392301295 1457.4237873508603 7.500000102154236
    vertex 343.4896914861983 1457.4237877828887 7.4999999863618445
  endloop
endfacet
facet normal -5.69317059967083e-09 1.2025210005191348e-09 -1.0
  outer loop
    vertex 344.3181185396292 1455.4237878641495 7.4999998284466685
    vertex 343.4896914861983 1457.4237877828887 7.4999999863618445
    vertex 345.3097924988742 1459.2438887955661 7.500000021138907
  endloop
endfacet
facet normal -5.69317059967083e-09 1.2025210005191348e-09 -1.0
  outer loop
    vertex 344.3181185396292 1455.4237878641495 7.4999998284466685
    vertex 345.3097924988742 1459.2438887955661 7.500000021138907
    vertex 347.30979242755814 1458.4154617520812 7.499999875715646
  endloop
endfacet
facet normal -5.69317059967083e-09 1.2025210005191348e-09 -1.0
  outer loop
    vertex 347.30979242755814 1458.4154617520812 7.499999875715646
    vertex 345.3097924988742 1459.2438887955661 7.500000021138907
    vertex 347.30979060090726 1472.2321119300796 7.49999977326855
  endloop
endfacet
facet normal 0.7071067811862143 0.707106781186861 -1.674137552698899e-07
  outer loop
    vertex 344.31811671297567 1475.2237858180085 7.500000088040338
    vertex 347.3097927588058 1472.232113560321 23.49999969989661
    vertex 347.30979060090726 1472.2321119300796 7.49999977326855
  endloop
endfacet
facet normal 0.7071067811862143 0.707106781186861 -1.674137552698899e-07
  outer loop
    vertex 347.3097927588058 1472.232113560321 23.49999969989661
    vertex 344.31811671297567 1475.2237858180085 7.500000088040338
    vertex 344.31811887087423 1475.2237874482498 23.500000014668394
  endloop
endfacet
facet normal 0.999999999999998 4.649732158832368e-08 -4.359696970331333e-08
  outer loop
    vertex 347.30979242755814 1458.4154617520812 7.499999875715646
    vertex 347.3097927588058 1472.232113560321 23.49999969989661
    vertex 347.3097927588048 1458.415461336182 23.500000014668394
  endloop
endfacet
facet normal 0.999999999999998 4.649732158832368e-08 -4.359696970331333e-08
  outer loop
    vertex 347.3097927588058 1472.232113560321 23.49999969989661
    vertex 347.30979242755814 1458.4154617520812 7.499999875715646
    vertex 347.30979060090726 1472.2321119300796 7.49999977326855
  endloop
endfacet
endsolid Design - Rolled
