solid Design - Rolled
facet normal -1.1417848876773209e-10 1.0 -5.1902900316738893e-14
  outer loop
    vertex 89.65408713448903 1235.044983607973 18.30000004199998
    vertex 89.6540871366361 1235.044983607974 27.700000042000188
    vertex 107.15408713502585 1235.0449836090074 18.300000040291806
  endloop
endfacet
facet normal -1.1417848876773209e-10 1.0 -5.1902900316738893e-14
  outer loop
    vertex 107.1540871371729 1235.0449836090077 27.700000040292014
    vertex 107.15408713502585 1235.0449836090074 18.300000040291806
    vertex 89.6540871366361 1235.044983607974 27.700000042000188
  endloop
endfacet
facet normal 1.1417848876773209e-10 -1.0 5.1902926401226056e-14
  outer loop
    vertex 89.65408713663584 1225.6449836079732 18.30000004200047
    vertex 107.15408713717262 1225.6449836090073 18.300000040292293
    vertex 89.65408713663587 1225.644983607974 27.70000004200068
  endloop
endfacet
facet normal 1.1417848876773209e-10 -1.0 5.1902926401226056e-14
  outer loop
    vertex 107.15408713717265 1225.6449836090076 27.70000004029251
    vertex 89.65408713663587 1225.644983607974 27.70000004200068
    vertex 107.15408713717262 1225.6449836090073 18.300000040292293
  endloop
endfacet
facet normal -1.0 -1.1417848876772616e-10 1.1420384260024424e-10
  outer loop
    vertex 89.6540871366361 1235.044983607974 27.700000042000188
    vertex 89.6540871365188 1229.568526472666 25.897777520867653
    vertex 89.65408713663587 1225.644983607974 27.70000004200068
  endloop
endfacet
facet normal -1.0 -1.1417848876772616e-10 1.1420384260024424e-10
  outer loop
    vertex 89.6540871365672 1228.8449836079737 25.59807625335385
    vertex 89.65408713663587 1225.644983607974 27.70000004200068
    vertex 89.6540871365188 1229.568526472666 25.897777520867653
  endloop
endfacet
facet normal -1.0 -1.1417848876772616e-10 1.1420384260024424e-10
  outer loop
    vertex 89.65408713658368 1228.2236632644142 25.12132038556013
    vertex 89.65408713663587 1225.644983607974 27.70000004200068
    vertex 89.6540871365672 1228.8449836079737 25.59807625335385
  endloop
endfacet
facet normal -1.0 -1.1417848876772616e-10 1.1420384260024424e-10
  outer loop
    vertex 89.65408713656717 1227.7469073966204 24.50000004200057
    vertex 89.65408713663587 1225.644983607974 27.70000004200068
    vertex 89.65408713658368 1228.2236632644142 25.12132038556013
  endloop
endfacet
facet normal -1.0 -1.1417848876772616e-10 1.1420384260024424e-10
  outer loop
    vertex 89.65408713651877 1227.447206129106 23.776457177308178
    vertex 89.65408713663587 1225.644983607974 27.70000004200068
    vertex 89.65408713656717 1227.7469073966204 24.50000004200057
  endloop
endfacet
facet normal -1.0 -1.1417848876772616e-10 1.1420384260024424e-10
  outer loop
    vertex 89.65408713663584 1225.6449836079732 18.30000004200047
    vertex 89.65408713663587 1225.644983607974 27.70000004200068
    vertex 89.65408713651877 1227.447206129106 23.776457177308178
  endloop
endfacet
facet normal -1.0 -1.1417848876772616e-10 1.1420384260024424e-10
  outer loop
    vertex 89.65408713644185 1230.3449836079735 26.000000042000465
    vertex 89.6540871365188 1229.568526472666 25.897777520867653
    vertex 89.6540871366361 1235.044983607974 27.700000042000188
  endloop
endfacet
facet normal -1.0 -1.1417848876772616e-10 1.1420384260024424e-10
  outer loop
    vertex 89.65408713644177 1227.344983607973 23.000000042000583
    vertex 89.65408713663584 1225.6449836079732 18.30000004200047
    vertex 89.65408713651877 1227.447206129106 23.776457177308178
  endloop
endfacet
facet normal -1.0 -1.1417848876772616e-10 1.1420384260024424e-10
  outer loop
    vertex 89.65408713634143 1227.4472061291062 22.223542906692973
    vertex 89.65408713663584 1225.6449836079732 18.30000004200047
    vertex 89.65408713644177 1227.344983607973 23.000000042000583
  endloop
endfacet
facet normal -1.0 -1.1417848876772616e-10 1.1420384260024424e-10
  outer loop
    vertex 89.65408713622458 1227.7469073966201 21.50000004200053
    vertex 89.65408713663584 1225.6449836079732 18.30000004200047
    vertex 89.65408713634143 1227.4472061291062 22.223542906692973
  endloop
endfacet
facet normal -1.0 -1.1417848876772616e-10 1.1420384260024424e-10
  outer loop
    vertex 89.65408713609919 1228.2236632644137 20.878679698440923
    vertex 89.65408713663584 1225.6449836079732 18.30000004200047
    vertex 89.65408713622458 1227.7469073966201 21.50000004200053
  endloop
endfacet
facet normal -1.0 -1.1417848876772616e-10 1.1420384260024424e-10
  outer loop
    vertex 89.6540871359738 1228.8449836079733 20.401923830647156
    vertex 89.65408713663584 1225.6449836079732 18.30000004200047
    vertex 89.65408713609919 1228.2236632644137 20.878679698440923
  endloop
endfacet
facet normal -1.0 -1.1417848876772616e-10 1.1420384260024424e-10
  outer loop
    vertex 89.65408713585698 1229.5685264726653 20.102222563133257
    vertex 89.65408713663584 1225.6449836079732 18.30000004200047
    vertex 89.6540871359738 1228.8449836079733 20.401923830647156
  endloop
endfacet
facet normal -1.0 -1.1417848876772616e-10 1.1420384260024424e-10
  outer loop
    vertex 89.65408713575665 1230.344983607973 20.000000042000387
    vertex 89.65408713663584 1225.6449836079732 18.30000004200047
    vertex 89.65408713585698 1229.5685264726653 20.102222563133257
  endloop
endfacet
facet normal -1.0 -1.1417848876772616e-10 1.1420384260024424e-10
  outer loop
    vertex 89.65408713448903 1235.044983607973 18.30000004199998
    vertex 89.6540871358571 1233.2427610868403 23.776457177307865
    vertex 89.6540871366361 1235.044983607974 27.700000042000188
  endloop
endfacet
facet normal -1.0 -1.1417848876772616e-10 1.1420384260024424e-10
  outer loop
    vertex 89.65408713597392 1232.943059819327 24.500000042000305
    vertex 89.6540871366361 1235.044983607974 27.700000042000188
    vertex 89.6540871358571 1233.2427610868403 23.776457177307865
  endloop
endfacet
facet normal -1.0 -1.1417848876772616e-10 1.1420384260024424e-10
  outer loop
    vertex 89.6540871360993 1232.4663039515333 25.121320385559915
    vertex 89.6540871366361 1235.044983607974 27.700000042000188
    vertex 89.65408713597392 1232.943059819327 24.500000042000305
  endloop
endfacet
facet normal -1.0 -1.1417848876772616e-10 1.1420384260024424e-10
  outer loop
    vertex 89.65408713622467 1231.8449836079735 25.598076253353675
    vertex 89.6540871366361 1235.044983607974 27.700000042000188
    vertex 89.6540871360993 1232.4663039515333 25.121320385559915
  endloop
endfacet
facet normal -1.0 -1.1417848876772616e-10 1.1420384260024424e-10
  outer loop
    vertex 89.6540871363415 1231.121440743281 25.897777520867585
    vertex 89.6540871366361 1235.044983607974 27.700000042000188
    vertex 89.65408713622467 1231.8449836079735 25.598076253353675
  endloop
endfacet
facet normal -1.0 -1.1417848876772616e-10 1.1420384260024424e-10
  outer loop
    vertex 89.65408713644185 1230.3449836079735 26.000000042000465
    vertex 89.6540871366361 1235.044983607974 27.700000042000188
    vertex 89.6540871363415 1231.121440743281 25.897777520867585
  endloop
endfacet
facet normal -1.0 -1.1417848876772616e-10 1.1420384260024424e-10
  outer loop
    vertex 89.65408713575673 1233.344983607973 23.000000042000256
    vertex 89.6540871358571 1233.2427610868403 23.776457177307865
    vertex 89.65408713448903 1235.044983607973 18.30000004199998
  endloop
endfacet
facet normal -1.0 -1.1417848876772616e-10 1.1420384260024424e-10
  outer loop
    vertex 89.6540871356797 1233.2427610868406 22.22354290669266
    vertex 89.65408713575673 1233.344983607973 23.000000042000256
    vertex 89.65408713448903 1235.044983607973 18.30000004199998
  endloop
endfacet
facet normal -1.0 -1.1417848876772616e-10 1.1420384260024424e-10
  outer loop
    vertex 89.65408713563129 1232.9430598193267 21.500000042000266
    vertex 89.6540871356797 1233.2427610868406 22.22354290669266
    vertex 89.65408713448903 1235.044983607973 18.30000004199998
  endloop
endfacet
facet normal -1.0 -1.1417848876772616e-10 1.1420384260024424e-10
  outer loop
    vertex 89.65408713561482 1232.466303951533 20.87867969844071
    vertex 89.65408713563129 1232.9430598193267 21.500000042000266
    vertex 89.65408713448903 1235.044983607973 18.30000004199998
  endloop
endfacet
facet normal -1.0 -1.1417848876772616e-10 1.1420384260024424e-10
  outer loop
    vertex 89.65408713563127 1231.8449836079733 20.401923830646997
    vertex 89.65408713561482 1232.466303951533 20.87867969844071
    vertex 89.65408713448903 1235.044983607973 18.30000004199998
  endloop
endfacet
facet normal -1.0 -1.1417848876772616e-10 1.1420384260024424e-10
  outer loop
    vertex 89.65408713567965 1231.1214407432803 20.102222563133168
    vertex 89.65408713563127 1231.8449836079733 20.401923830646997
    vertex 89.65408713448903 1235.044983607973 18.30000004199998
  endloop
endfacet
facet normal -1.0 -1.1417848876772616e-10 1.1420384260024424e-10
  outer loop
    vertex 89.65408713575665 1230.344983607973 20.000000042000387
    vertex 89.65408713567965 1231.1214407432803 20.102222563133168
    vertex 89.65408713448903 1235.044983607973 18.30000004199998
  endloop
endfacet
facet normal -1.0 -1.1417848876772616e-10 1.1420384260024424e-10
  outer loop
    vertex 89.65408713663584 1225.6449836079732 18.30000004200047
    vertex 89.65408713575665 1230.344983607973 20.000000042000387
    vertex 89.65408713448903 1235.044983607973 18.30000004199998
  endloop
endfacet
facet normal -0.608761429008649 -0.7933533402912902 6.954260333923175e-11
  outer loop
    vertex 96.40646030691333 1231.6940217111385 18.300000044426046
    vertex 96.71712047869318 1231.455643777242 18.300000044390504
    vertex 96.40646030798693 1231.694021711139 27.70000004442644
  endloop
endfacet
facet normal -0.608761429008649 -0.7933533402912902 6.954260333923175e-11
  outer loop
    vertex 96.71712047976676 1231.4556437772421 27.700000044390904
    vertex 96.40646030798693 1231.694021711139 27.70000004442644
    vertex 96.71712047869318 1231.455643777242 18.300000044390504
  endloop
endfacet
facet normal -0.7933533402912476 -0.6087614290087044 9.062186235760623e-11
  outer loop
    vertex 96.71712047976676 1231.4556437772421 27.700000044390904
    vertex 96.71712047869318 1231.455643777242 18.300000044390504
    vertex 96.95549841366356 1231.1449836054624 27.700000044363662
  endloop
endfacet
facet normal -0.7933533402912476 -0.6087614290087044 9.062186235760623e-11
  outer loop
    vertex 96.95549841258998 1231.144983605462 18.300000044363266
    vertex 96.95549841366356 1231.1449836054624 27.700000044363662
    vertex 96.71712047869318 1231.455643777242 18.300000044390504
  endloop
endfacet
facet normal -0.9238795325112936 -0.38268343236507313 1.0552906660709614e-10
  outer loop
    vertex 96.95549841366356 1231.1449836054624 27.700000044363662
    vertex 96.95549841258998 1231.144983605462 18.300000044363266
    vertex 97.1053490474205 1230.7832121731162 27.700000044346535
  endloop
endfacet
facet normal -0.9238795325112936 -0.38268343236507313 1.0552906660709614e-10
  outer loop
    vertex 97.1053490463469 1230.7832121731158 18.300000044346145
    vertex 97.1053490474205 1230.7832121731162 27.700000044346535
    vertex 96.95549841258998 1231.144983605462 18.300000044363266
  endloop
endfacet
facet normal -0.9914448613738108 -0.13052619222004921 1.1323879536922984e-10
  outer loop
    vertex 97.1053490474205 1230.7832121731162 27.700000044346535
    vertex 97.1053490463469 1230.7832121731158 18.300000044346145
    vertex 97.15646030798689 1230.3949836054624 27.70000004434078
  endloop
endfacet
facet normal -0.9914448613738108 -0.13052619222004921 1.1323879536922984e-10
  outer loop
    vertex 97.1564603069133 1230.394983605462 18.300000044340386
    vertex 97.15646030798689 1230.3949836054624 27.70000004434078
    vertex 97.1053490463469 1230.7832121731158 18.300000044346145
  endloop
endfacet
facet normal -0.9914448613738063 0.1305261922200836 1.1323148673311593e-10
  outer loop
    vertex 97.1053490474205 1230.0067550378087 27.700000044346563
    vertex 97.15646030798689 1230.3949836054624 27.70000004434078
    vertex 97.1053490463469 1230.006755037808 18.300000044346177
  endloop
endfacet
facet normal -0.9914448613738063 0.1305261922200836 1.1323148673311593e-10
  outer loop
    vertex 97.1564603069133 1230.394983605462 18.300000044340386
    vertex 97.1053490463469 1230.006755037808 18.300000044346177
    vertex 97.15646030798689 1230.3949836054624 27.70000004434078
  endloop
endfacet
facet normal -0.9238795325112688 0.38268343236513336 1.0550653051799625e-10
  outer loop
    vertex 96.95549841366352 1229.6449836054624 27.70000004436374
    vertex 97.1053490474205 1230.0067550378087 27.700000044346563
    vertex 96.95549841258995 1229.644983605462 18.30000004436335
  endloop
endfacet
facet normal -0.9238795325112688 0.38268343236513336 1.0550653051799625e-10
  outer loop
    vertex 97.1053490463469 1230.006755037808 18.300000044346177
    vertex 96.95549841258995 1229.644983605462 18.30000004436335
    vertex 97.1053490474205 1230.0067550378087 27.700000044346563
  endloop
endfacet
facet normal -0.7933533402912911 0.6087614290086479 9.059266833461324e-11
  outer loop
    vertex 96.71712047976669 1229.3343234336826 27.70000004439101
    vertex 96.95549841366352 1229.6449836054624 27.70000004436374
    vertex 96.7171204786931 1229.334323433682 18.300000044390615
  endloop
endfacet
facet normal -0.7933533402912911 0.6087614290086479 9.059266833461324e-11
  outer loop
    vertex 96.95549841258995 1229.644983605462 18.30000004436335
    vertex 96.7171204786931 1229.334323433682 18.300000044390615
    vertex 96.95549841366352 1229.6449836054624 27.70000004436374
  endloop
endfacet
facet normal -0.6087614290085761 0.793353340291346 6.94981803854038e-11
  outer loop
    vertex 96.40646030691326 1229.0959454997853 18.300000044426
    vertex 96.40646030798686 1229.0959454997858 27.700000044426396
    vertex 96.7171204786931 1229.334323433682 18.300000044390615
  endloop
endfacet
facet normal -0.6087614290085761 0.793353340291346 6.94981803854038e-11
  outer loop
    vertex 96.71712047976669 1229.3343234336826 27.70000004439101
    vertex 96.7171204786931 1229.334323433682 18.300000044390615
    vertex 96.40646030798686 1229.0959454997858 27.700000044426396
  endloop
endfacet
facet normal -0.38268343236522073 0.9238795325112327 4.3663529409493135e-11
  outer loop
    vertex 96.04468887456703 1228.946094866028 18.300000044467343
    vertex 96.04468887564063 1228.946094866029 27.700000044467735
    vertex 96.40646030691326 1229.0959454997853 18.300000044426
  endloop
endfacet
facet normal -0.38268343236522073 0.9238795325112327 4.3663529409493135e-11
  outer loop
    vertex 96.40646030798686 1229.0959454997858 27.700000044426396
    vertex 96.40646030691326 1229.0959454997853 18.300000044426
    vertex 96.04468887564063 1228.946094866029 27.700000044467735
  endloop
endfacet
facet normal -0.13052619222005662 0.9914448613738097 1.4860897051308047e-11
  outer loop
    vertex 95.65646030691326 1228.894983605462 18.300000044511773
    vertex 95.65646030798685 1228.8949836054624 27.70000004451218
    vertex 96.04468887456703 1228.946094866028 18.300000044467343
  endloop
endfacet
facet normal -0.13052619222005662 0.9914448613738097 1.4860897051308047e-11
  outer loop
    vertex 96.04468887564063 1228.946094866029 27.700000044467735
    vertex 96.04468887456703 1228.946094866028 18.300000044467343
    vertex 95.65646030798685 1228.8949836054624 27.70000004451218
  endloop
endfacet
facet normal 0.13052619221992118 0.9914448613738277 -1.4944963899514498e-11
  outer loop
    vertex 95.26823173925948 1228.946094866028 18.300000044556135
    vertex 95.26823174033306 1228.9460948660287 27.700000044556532
    vertex 95.65646030691326 1228.894983605462 18.300000044511773
  endloop
endfacet
facet normal 0.13052619221992118 0.9914448613738277 -1.4944963899514498e-11
  outer loop
    vertex 95.65646030798685 1228.8949836054624 27.70000004451218
    vertex 95.65646030691326 1228.894983605462 18.300000044511773
    vertex 95.26823174033306 1228.9460948660287 27.700000044556532
  endloop
endfacet
facet normal 0.3826834323652852 0.9238795325112059 -4.3750735928810054e-11
  outer loop
    vertex 94.90646030691326 1229.095945499785 18.300000044597272
    vertex 94.90646030798686 1229.0959454997858 27.70000004459767
    vertex 95.26823173925948 1228.946094866028 18.300000044556135
  endloop
endfacet
facet normal 0.3826834323652852 0.9238795325112059 -4.3750735928810054e-11
  outer loop
    vertex 95.26823174033306 1228.9460948660287 27.700000044556532
    vertex 95.26823173925948 1228.946094866028 18.300000044556135
    vertex 94.90646030798686 1229.0959454997858 27.70000004459767
  endloop
endfacet
facet normal 0.608761429008677 0.7933533402912688 -6.957306730376549e-11
  outer loop
    vertex 94.59580013513346 1229.334323433682 18.300000044632817
    vertex 94.59580013620705 1229.3343234336826 27.70000004463321
    vertex 94.90646030691326 1229.095945499785 18.300000044597272
  endloop
endfacet
facet normal 0.608761429008677 0.7933533402912688 -6.957306730376549e-11
  outer loop
    vertex 94.90646030798686 1229.0959454997858 27.70000004459767
    vertex 94.90646030691326 1229.095945499785 18.300000044597272
    vertex 94.59580013620705 1229.3343234336826 27.70000004463321
  endloop
endfacet
facet normal 0.7933533402912337 0.6087614290087225 -9.064428677733958e-11
  outer loop
    vertex 94.35742220231022 1229.6449836054624 27.700000044660445
    vertex 94.59580013620705 1229.3343234336826 27.70000004463321
    vertex 94.35742220123664 1229.6449836054617 18.300000044660056
  endloop
endfacet
facet normal 0.7933533402912337 0.6087614290087225 -9.064428677733958e-11
  outer loop
    vertex 94.59580013513346 1229.334323433682 18.300000044632817
    vertex 94.35742220123664 1229.6449836054617 18.300000044660056
    vertex 94.59580013620705 1229.3343234336826 27.70000004463321
  endloop
endfacet
facet normal 0.9238795325112834 0.3826834323650978 -1.0553530544166334e-10
  outer loop
    vertex 94.20757156855329 1230.0067550378085 27.70000004467756
    vertex 94.35742220231022 1229.6449836054624 27.700000044660445
    vertex 94.2075715674797 1230.006755037808 18.300000044677176
  endloop
endfacet
facet normal 0.9238795325112834 0.3826834323650978 -1.0553530544166334e-10
  outer loop
    vertex 94.35742220123664 1229.6449836054617 18.300000044660056
    vertex 94.2075715674797 1230.006755037808 18.300000044677176
    vertex 94.35742220231022 1229.6449836054624 27.700000044660445
  endloop
endfacet
facet normal 0.9914448613738183 0.13052619221999257 -1.1324130110360433e-10
  outer loop
    vertex 94.1564603079869 1230.3949836054624 27.70000004468333
    vertex 94.20757156855329 1230.0067550378085 27.70000004467756
    vertex 94.1564603069133 1230.3949836054617 18.300000044682932
  endloop
endfacet
facet normal 0.9914448613738183 0.13052619221999257 -1.1324130110360433e-10
  outer loop
    vertex 94.2075715674797 1230.006755037808 18.300000044677176
    vertex 94.1564603069133 1230.3949836054617 18.300000044682932
    vertex 94.20757156855329 1230.0067550378085 27.70000004467756
  endloop
endfacet
facet normal 0.9914448613738137 -0.13052619222002695 -1.1322898039965777e-10
  outer loop
    vertex 94.1564603079869 1230.3949836054624 27.70000004468333
    vertex 94.1564603069133 1230.3949836054617 18.300000044682932
    vertex 94.20757156855329 1230.783212173116 27.70000004467753
  endloop
endfacet
facet normal 0.9914448613738137 -0.13052619222002695 -1.1322898039965777e-10
  outer loop
    vertex 94.2075715674797 1230.7832121731155 18.30000004467714
    vertex 94.20757156855329 1230.783212173116 27.70000004467753
    vertex 94.1564603069133 1230.3949836054617 18.300000044682932
  endloop
endfacet
facet normal 0.9238795325112585 -0.38268343236515795 -1.0550029228931376e-10
  outer loop
    vertex 94.20757156855329 1230.783212173116 27.70000004467753
    vertex 94.2075715674797 1230.7832121731155 18.30000004467714
    vertex 94.35742220231026 1231.1449836054624 27.700000044660367
  endloop
endfacet
facet normal 0.9238795325112585 -0.38268343236515795 -1.0550029228931376e-10
  outer loop
    vertex 94.35742220123667 1231.1449836054617 18.300000044659974
    vertex 94.35742220231026 1231.1449836054624 27.700000044660367
    vertex 94.2075715674797 1230.7832121731155 18.30000004467714
  endloop
endfacet
facet normal 0.7933533402911919 -0.6087614290087773 -9.057608892913192e-11
  outer loop
    vertex 94.35742220231026 1231.1449836054624 27.700000044660367
    vertex 94.35742220123667 1231.1449836054617 18.300000044659974
    vertex 94.59580013620712 1231.4556437772421 27.700000044633104
  endloop
endfacet
facet normal 0.7933533402911919 -0.6087614290087773 -9.057608892913192e-11
  outer loop
    vertex 94.59580013513352 1231.4556437772414 18.300000044632707
    vertex 94.59580013620712 1231.4556437772421 27.700000044633104
    vertex 94.35742220123667 1231.1449836054617 18.300000044659974
  endloop
endfacet
facet normal 0.6087614290087492 -0.7933533402912133 -6.949056461814492e-11
  outer loop
    vertex 94.59580013513352 1231.4556437772414 18.300000044632707
    vertex 94.90646030691333 1231.6940217111385 18.30000004459732
    vertex 94.59580013620712 1231.4556437772421 27.700000044633104
  endloop
endfacet
facet normal 0.6087614290087492 -0.7933533402912133 -6.949056461814492e-11
  outer loop
    vertex 94.90646030798693 1231.694021711139 27.700000044597715
    vertex 94.59580013620712 1231.4556437772421 27.700000044633104
    vertex 94.90646030691333 1231.6940217111385 18.30000004459732
  endloop
endfacet
facet normal 0.3826834323650241 -0.9238795325113142 -4.367239904946884e-11
  outer loop
    vertex 94.90646030691333 1231.6940217111385 18.30000004459732
    vertex 95.26823173925955 1231.8438723448953 18.30000004455599
    vertex 94.90646030798693 1231.694021711139 27.700000044597715
  endloop
endfacet
facet normal 0.3826834323650241 -0.9238795325113142 -4.367239904946884e-11
  outer loop
    vertex 95.26823174033314 1231.8438723448958 27.70000004455637
    vertex 94.90646030798693 1231.694021711139 27.700000044597715
    vertex 95.26823173925955 1231.8438723448953 18.30000004455599
  endloop
endfacet
facet normal 0.13052619222005662 -0.9914448613738097 -1.486089716117147e-11
  outer loop
    vertex 95.26823173925955 1231.8438723448953 18.30000004455599
    vertex 95.65646030691332 1231.8949836054617 18.300000044511634
    vertex 95.26823174033314 1231.8438723448958 27.70000004455637
  endloop
endfacet
facet normal 0.13052619222005662 -0.9914448613738097 -1.486089716117147e-11
  outer loop
    vertex 95.65646030798692 1231.8949836054624 27.70000004451202
    vertex 95.26823174033314 1231.8438723448958 27.70000004455637
    vertex 95.65646030691332 1231.8949836054617 18.300000044511634
  endloop
endfacet
facet normal -0.13052619221992118 -0.9914448613738277 1.496399873154505e-11
  outer loop
    vertex 95.65646030691332 1231.8949836054617 18.300000044511634
    vertex 96.0446888745671 1231.8438723448953 18.300000044467193
    vertex 95.65646030798692 1231.8949836054624 27.70000004451202
  endloop
endfacet
facet normal -0.13052619221992118 -0.9914448613738277 1.496399873154505e-11
  outer loop
    vertex 96.0446888756407 1231.843872344896 27.700000044467572
    vertex 95.65646030798692 1231.8949836054624 27.70000004451202
    vertex 96.0446888745671 1231.8438723448953 18.300000044467193
  endloop
endfacet
facet normal -0.38268343236508856 -0.9238795325112874 4.374186775153025e-11
  outer loop
    vertex 96.0446888745671 1231.8438723448953 18.300000044467193
    vertex 96.40646030691333 1231.6940217111385 18.300000044426046
    vertex 96.0446888756407 1231.843872344896 27.700000044467572
  endloop
endfacet
facet normal -0.38268343236508856 -0.9238795325112874 4.374186775153025e-11
  outer loop
    vertex 96.40646030798693 1231.694021711139 27.70000004442644
    vertex 96.0446888756407 1231.843872344896 27.700000044467572
    vertex 96.40646030691333 1231.6940217111385 18.300000044426046
  endloop
endfacet
facet normal -1.0 -1.1417583871339961e-10 1.4326082573061719e-10
  outer loop
    vertex 34.91271622731431 1230.3449836017237 25.000000048251945
    vertex 34.91271622721397 1231.1214407370312 24.89777752711906
    vertex 34.91271622739127 1229.568526466416 24.897777527119143
  endloop
endfacet
facet normal -1.0 -1.1417583871339961e-10 1.4326082573061719e-10
  outer loop
    vertex 34.91271622743971 1228.8449836017235 24.59807625960533
    vertex 34.91271622739127 1229.568526466416 24.897777527119143
    vertex 34.91271622721397 1231.1214407370312 24.89777752711906
  endloop
endfacet
facet normal -1.0 -1.1417583871339961e-10 1.4326082573061719e-10
  outer loop
    vertex 34.912716227097185 1231.8449836017237 24.598076259605165
    vertex 34.91271622743971 1228.8449836017235 24.59807625960533
    vertex 34.91271622721397 1231.1214407370312 24.89777752711906
  endloop
endfacet
facet normal -1.0 -1.1417583871339961e-10 1.4326082573061719e-10
  outer loop
    vertex 34.912716227456166 1228.223663258164 24.121320391811615
    vertex 34.91271622743971 1228.8449836017235 24.59807625960533
    vertex 34.912716227097185 1231.8449836017237 24.598076259605165
  endloop
endfacet
facet normal -1.0 -1.1417583871339961e-10 1.4326082573061719e-10
  outer loop
    vertex 34.912716226971746 1232.4663039452835 24.1213203918114
    vertex 34.912716227456166 1228.223663258164 24.121320391811615
    vertex 34.912716227097185 1231.8449836017237 24.598076259605165
  endloop
endfacet
facet normal -1.0 -1.1417583871339961e-10 1.4326082573061719e-10
  outer loop
    vertex 34.9127162268464 1232.9430598130766 23.500000048251785
    vertex 34.912716227456166 1228.223663258164 24.121320391811615
    vertex 34.912716226971746 1232.4663039452835 24.1213203918114
  endloop
endfacet
facet normal -1.0 -1.1417583871339961e-10 1.4326082573061719e-10
  outer loop
    vertex 34.91271622743969 1227.7469073903699 23.500000048252048
    vertex 34.912716227456166 1228.223663258164 24.121320391811615
    vertex 34.9127162268464 1232.9430598130766 23.500000048251785
  endloop
endfacet
facet normal -1.0 -1.1417583871339961e-10 1.4326082573061719e-10
  outer loop
    vertex 34.91271622672954 1233.24276108059 22.776457183559344
    vertex 34.91271622743969 1227.7469073903699 23.500000048252048
    vertex 34.9127162268464 1232.9430598130766 23.500000048251785
  endloop
endfacet
facet normal -1.0 -1.1417583871339961e-10 1.4326082573061719e-10
  outer loop
    vertex 34.91271622739122 1227.4472061228557 22.776457183559657
    vertex 34.91271622743969 1227.7469073903699 23.500000048252048
    vertex 34.91271622672954 1233.24276108059 22.776457183559344
  endloop
endfacet
facet normal -1.0 -1.1417583871339961e-10 1.4326082573061719e-10
  outer loop
    vertex 34.912716227306724 1227.410809850517 22.500000048252744
    vertex 34.91271622739122 1227.4472061228557 22.776457183559657
    vertex 34.91271622672954 1233.24276108059 22.776457183559344
  endloop
endfacet
facet normal -1.0 -1.1417583871339961e-10 1.4326082573061719e-10
  outer loop
    vertex 34.91271622663672 1233.2791573529298 22.500000048251064
    vertex 34.912716227306724 1227.410809850517 22.500000048252744
    vertex 34.91271622672954 1233.24276108059 22.776457183559344
  endloop
endfacet
facet normal -1.0 -1.1417583871339961e-10 1.4326082573061719e-10
  outer loop
    vertex 34.91271622721389 1227.4472061228562 22.22354291294446
    vertex 34.912716227306724 1227.410809850517 22.500000048252744
    vertex 34.91271622663672 1233.2791573529298 22.500000048251064
  endloop
endfacet
facet normal -1.0 -1.1417583871339961e-10 1.4326082573061719e-10
  outer loop
    vertex 34.9127162265522 1233.2427610805905 22.223542912944144
    vertex 34.91271622721389 1227.4472061228562 22.22354291294446
    vertex 34.91271622663672 1233.2791573529298 22.500000048251064
  endloop
endfacet
facet normal -1.0 -1.1417583871339961e-10 1.4326082573061719e-10
  outer loop
    vertex 34.91271622709706 1227.74690739037 21.500000048252012
    vertex 34.91271622721389 1227.4472061228562 22.22354291294446
    vertex 34.9127162265522 1233.2427610805905 22.223542912944144
  endloop
endfacet
facet normal -1.0 -1.1417583871339961e-10 1.4326082573061719e-10
  outer loop
    vertex 34.91271622650379 1232.9430598130768 21.50000004825175
    vertex 34.91271622709706 1227.74690739037 21.500000048252012
    vertex 34.9127162265522 1233.2427610805905 22.223542912944144
  endloop
endfacet
facet normal -1.0 -1.1417583871339961e-10 1.4326082573061719e-10
  outer loop
    vertex 34.912716226487255 1232.466303945283 20.878679704692193
    vertex 34.91271622709706 1227.74690739037 21.500000048252012
    vertex 34.91271622650379 1232.9430598130768 21.50000004825175
  endloop
endfacet
facet normal -1.0 -1.1417583871339961e-10 1.4326082573061719e-10
  outer loop
    vertex 34.91271622697168 1228.2236632581637 20.878679704692413
    vertex 34.91271622709706 1227.74690739037 21.500000048252012
    vertex 34.912716226487255 1232.466303945283 20.878679704692193
  endloop
endfacet
facet normal -1.0 -1.1417583871339961e-10 1.4326082573061719e-10
  outer loop
    vertex 34.9127162268463 1228.8449836017228 20.401923836898643
    vertex 34.91271622697168 1228.2236632581637 20.878679704692413
    vertex 34.912716226487255 1232.466303945283 20.878679704692193
  endloop
endfacet
facet normal -1.0 -1.1417583871339961e-10 1.4326082573061719e-10
  outer loop
    vertex 34.912716226503775 1231.8449836017228 20.40192383689848
    vertex 34.9127162268463 1228.8449836017228 20.401923836898643
    vertex 34.912716226487255 1232.466303945283 20.878679704692193
  endloop
endfacet
facet normal -1.0 -1.1417583871339961e-10 1.4326082573061719e-10
  outer loop
    vertex 34.91271622672946 1229.5685264664155 20.10222256938474
    vertex 34.9127162268463 1228.8449836017228 20.401923836898643
    vertex 34.912716226503775 1231.8449836017228 20.40192383689848
  endloop
endfacet
facet normal -1.0 -1.1417583871339961e-10 1.4326082573061719e-10
  outer loop
    vertex 34.91271622655216 1231.1214407370305 20.10222256938465
    vertex 34.91271622672946 1229.5685264664155 20.10222256938474
    vertex 34.912716226503775 1231.8449836017228 20.40192383689848
  endloop
endfacet
facet normal -1.0 -1.1417583871339961e-10 1.4326082573061719e-10
  outer loop
    vertex 34.91271622662913 1230.3449836017228 20.00000004825187
    vertex 34.91271622672946 1229.5685264664155 20.10222256938474
    vertex 34.91271622655216 1231.1214407370305 20.10222256938465
  endloop
endfacet
facet normal -1.281012275855359e-10 0.9914448613738057 -0.13052619222008666
  outer loop
    vertex 34.9127162265522 1233.2427610805905 22.223542912944144
    vertex 34.91271622663672 1233.2791573529298 22.500000048251064
    vertex 89.6540871356797 1233.2427610868406 22.22354290669266
  endloop
endfacet
facet normal -1.281012275855359e-10 0.9914448613738057 -0.13052619222008666
  outer loop
    vertex 61.65408713573675 1233.279157355982 22.500000045617675
    vertex 89.6540871356797 1233.2427610868406 22.22354290669266
    vertex 34.91271622663672 1233.2791573529298 22.500000048251064
  endloop
endfacet
facet normal -1.281012275855359e-10 0.9914448613738057 -0.13052619222008666
  outer loop
    vertex 61.65408713572925 1233.3449836047755 23.000000045618357
    vertex 89.65408713575673 1233.344983607973 23.000000042000256
    vertex 61.65408713573675 1233.279157355982 22.500000045617675
  endloop
endfacet
facet normal -1.281012275855359e-10 0.9914448613738057 -0.13052619222008666
  outer loop
    vertex 89.6540871356797 1233.2427610868406 22.22354290669266
    vertex 61.65408713573675 1233.279157355982 22.500000045617675
    vertex 89.65408713575673 1233.344983607973 23.000000042000256
  endloop
endfacet
facet normal -1.4918522135473626e-10 0.9238795325112563 -0.38268343236516356
  outer loop
    vertex 34.91271622650379 1232.9430598130768 21.50000004825175
    vertex 34.9127162265522 1233.2427610805905 22.223542912944144
    vertex 89.65408713563129 1232.9430598193267 21.500000042000266
  endloop
endfacet
facet normal -1.4918522135473626e-10 0.9238795325112563 -0.38268343236516356
  outer loop
    vertex 89.6540871356797 1233.2427610868406 22.22354290669266
    vertex 89.65408713563129 1232.9430598193267 21.500000042000266
    vertex 34.9127162265522 1233.2427610805905 22.223542912944144
  endloop
endfacet
facet normal -1.6010034866855895e-10 0.793353340291188 -0.608761429008782
  outer loop
    vertex 34.912716226487255 1232.466303945283 20.878679704692193
    vertex 34.91271622650379 1232.9430598130768 21.50000004825175
    vertex 89.65408713561482 1232.466303951533 20.87867969844071
  endloop
endfacet
facet normal -1.6010034866855895e-10 0.793353340291188 -0.608761429008782
  outer loop
    vertex 89.65408713563129 1232.9430598193267 21.500000042000266
    vertex 89.65408713561482 1232.466303951533 20.87867969844071
    vertex 34.91271622650379 1232.9430598130768 21.50000004825175
  endloop
endfacet
facet normal -1.6010490179895726e-10 0.6087614290087304 -0.7933533402912277
  outer loop
    vertex 89.65408713561482 1232.466303951533 20.87867969844071
    vertex 89.65408713563127 1231.8449836079733 20.401923830646997
    vertex 34.912716226487255 1232.466303945283 20.878679704692193
  endloop
endfacet
facet normal -1.6010490179895726e-10 0.6087614290087304 -0.7933533402912277
  outer loop
    vertex 34.912716226503775 1231.8449836017228 20.40192383689848
    vertex 34.912716226487255 1232.466303945283 20.878679704692193
    vertex 89.65408713563127 1231.8449836079733 20.401923830646997
  endloop
endfacet
facet normal -1.4919857045761258e-10 0.3826834323650083 -0.9238795325113206
  outer loop
    vertex 89.65408713563127 1231.8449836079733 20.401923830646997
    vertex 89.65408713567965 1231.1214407432803 20.102222563133168
    vertex 34.912716226503775 1231.8449836017228 20.40192383689848
  endloop
endfacet
facet normal -1.4919857045761258e-10 0.3826834323650083 -0.9238795325113206
  outer loop
    vertex 34.91271622655216 1231.1214407370305 20.10222256938465
    vertex 34.912716226503775 1231.8449836017228 20.40192383689848
    vertex 89.65408713567965 1231.1214407432803 20.102222563133168
  endloop
endfacet
facet normal -1.281246031018878e-10 0.13052619222005069 -0.9914448613738105
  outer loop
    vertex 89.65408713567965 1231.1214407432803 20.102222563133168
    vertex 89.65408713575665 1230.344983607973 20.000000042000387
    vertex 34.91271622655216 1231.1214407370305 20.10222256938465
  endloop
endfacet
facet normal -1.281246031018878e-10 0.13052619222005069 -0.9914448613738105
  outer loop
    vertex 34.91271622662913 1230.3449836017228 20.00000004825187
    vertex 34.91271622655216 1231.1214407370305 20.10222256938465
    vertex 89.65408713575665 1230.344983607973 20.000000042000387
  endloop
endfacet
facet normal -9.83191557806688e-11 -0.1305261922201536 -0.991444861373797
  outer loop
    vertex 89.65408713575665 1230.344983607973 20.000000042000387
    vertex 89.65408713585698 1229.5685264726653 20.102222563133257
    vertex 34.91271622662913 1230.3449836017228 20.00000004825187
  endloop
endfacet
facet normal -9.83191557806688e-11 -0.1305261922201536 -0.991444861373797
  outer loop
    vertex 34.91271622672946 1229.5685264664155 20.10222256938474
    vertex 34.91271622662913 1230.3449836017228 20.00000004825187
    vertex 89.65408713585698 1229.5685264726653 20.102222563133257
  endloop
endfacet
facet normal -6.18134204731075e-11 -0.3826834323651042 -0.9238795325112809
  outer loop
    vertex 89.65408713585698 1229.5685264726653 20.102222563133257
    vertex 89.6540871359738 1228.8449836079733 20.401923830647156
    vertex 34.91271622672946 1229.5685264664155 20.10222256938474
  endloop
endfacet
facet normal -6.18134204731075e-11 -0.3826834323651042 -0.9238795325112809
  outer loop
    vertex 34.9127162268463 1228.8449836017228 20.401923836898643
    vertex 34.91271622672946 1229.5685264664155 20.10222256938474
    vertex 89.6540871359738 1228.8449836079733 20.401923830647156
  endloop
endfacet
facet normal -2.1095202711783905e-11 -0.6087614290088128 -0.7933533402911644
  outer loop
    vertex 89.6540871359738 1228.8449836079733 20.401923830647156
    vertex 89.65408713609919 1228.2236632644137 20.878679698440923
    vertex 34.9127162268463 1228.8449836017228 20.401923836898643
  endloop
endfacet
facet normal -2.1095202711783905e-11 -0.6087614290088128 -0.7933533402911644
  outer loop
    vertex 34.91271622697168 1228.2236632581637 20.878679704692413
    vertex 34.9127162268463 1228.8449836017228 20.401923836898643
    vertex 89.65408713609919 1228.2236632644137 20.878679698440923
  endloop
endfacet
facet normal 2.1060618252847646e-11 -0.7933533402912513 -0.6087614290086997
  outer loop
    vertex 34.91271622697168 1228.2236632581637 20.878679704692413
    vertex 89.65408713609919 1228.2236632644137 20.878679698440923
    vertex 34.91271622709706 1227.74690739037 21.500000048252012
  endloop
endfacet
facet normal 2.1060618252847646e-11 -0.7933533402912513 -0.6087614290086997
  outer loop
    vertex 89.65408713622458 1227.7469073966201 21.50000004200053
    vertex 34.91271622709706 1227.74690739037 21.500000048252012
    vertex 89.65408713609919 1228.2236632644137 20.878679698440923
  endloop
endfacet
facet normal 6.17811928878789e-11 -0.9238795325112961 -0.38268343236506763
  outer loop
    vertex 34.91271622709706 1227.74690739037 21.500000048252012
    vertex 89.65408713622458 1227.7469073966201 21.50000004200053
    vertex 34.91271622721389 1227.4472061228562 22.22354291294446
  endloop
endfacet
facet normal 6.17811928878789e-11 -0.9238795325112961 -0.38268343236506763
  outer loop
    vertex 89.65408713634143 1227.4472061291062 22.223542906692973
    vertex 34.91271622721389 1227.4472061228562 22.22354291294446
    vertex 89.65408713622458 1227.7469073966201 21.50000004200053
  endloop
endfacet
facet normal 9.82914048524995e-11 -0.9914448613738208 -0.1305261922199731
  outer loop
    vertex 34.91271622721389 1227.4472061228562 22.22354291294446
    vertex 89.65408713634143 1227.4472061291062 22.223542906692973
    vertex 34.912716227306724 1227.410809850517 22.500000048252744
  endloop
endfacet
facet normal 9.82914048524995e-11 -0.9914448613738208 -0.1305261922199731
  outer loop
    vertex 61.65408713640677 1227.4108098535694 22.50000004561936
    vertex 34.912716227306724 1227.410809850517 22.500000048252744
    vertex 89.65408713634143 1227.4472061291062 22.223542906692973
  endloop
endfacet
facet normal 9.82914048524995e-11 -0.9914448613738208 -0.1305261922199731
  outer loop
    vertex 61.65408713641429 1227.3449836047755 23.000000045618684
    vertex 61.65408713640677 1227.4108098535694 22.50000004561936
    vertex 89.65408713634143 1227.4472061291062 22.223542906692973
  endloop
endfacet
facet normal 9.82914048524995e-11 -0.9914448613738208 -0.1305261922199731
  outer loop
    vertex 89.65408713644177 1227.344983607973 23.000000042000583
    vertex 61.65408713641429 1227.3449836047755 23.000000045618684
    vertex 89.65408713634143 1227.4472061291062 22.223542906692973
  endloop
endfacet
facet normal 1.0 7.834903781510075e-11 -1.0342150887755445e-10
  outer loop
    vertex 107.15408713717274 1230.3449836090074 26.700000040291588
    vertex 107.15408713694448 1233.3449836090072 23.70000004029174
    vertex 107.1540871371729 1235.0449836090077 27.700000040292014
  endloop
endfacet
facet normal 1.0 7.834903781510075e-11 -1.0342150887755445e-10
  outer loop
    vertex 107.15408713502585 1235.0449836090074 18.300000040291806
    vertex 107.1540871371729 1235.0449836090077 27.700000040292014
    vertex 107.15408713694448 1233.3449836090072 23.70000004029174
  endloop
endfacet
facet normal 1.0 7.834903781510075e-11 -1.0342150887755445e-10
  outer loop
    vertex 107.15408713717262 1225.6449836090073 18.300000040292293
    vertex 107.15408713694434 1227.3449836090074 23.700000040292068
    vertex 107.15408713717265 1225.6449836090076 27.70000004029251
  endloop
endfacet
facet normal 1.0 7.834903781510075e-11 -1.0342150887755445e-10
  outer loop
    vertex 107.15408713717274 1230.3449836090074 26.700000040291588
    vertex 107.15408713717265 1225.6449836090076 27.70000004029251
    vertex 107.15408713694434 1227.3449836090074 23.700000040292068
  endloop
endfacet
facet normal 1.0 7.834903781510075e-11 -1.0342150887755445e-10
  outer loop
    vertex 107.1540871371729 1235.0449836090077 27.700000040292014
    vertex 107.15408713717265 1225.6449836090076 27.70000004029251
    vertex 107.15408713717274 1230.3449836090074 26.700000040291588
  endloop
endfacet
facet normal 1.0 7.834903781510075e-11 -1.0342150887755445e-10
  outer loop
    vertex 107.15408713694448 1233.3449836090072 23.70000004029174
    vertex 107.15408713694434 1227.3449836090074 23.700000040292068
    vertex 107.15408713717262 1225.6449836090073 18.300000040292293
  endloop
endfacet
facet normal 1.0 7.834903781510075e-11 -1.0342150887755445e-10
  outer loop
    vertex 107.15408713502585 1235.0449836090074 18.300000040291806
    vertex 107.15408713694448 1233.3449836090072 23.70000004029174
    vertex 107.15408713717262 1225.6449836090073 18.300000040292293
  endloop
endfacet
facet normal 1.0 -2.2711405653164985e-14 -7.611653529693186e-11
  outer loop
    vertex 105.15408717443292 1230.3449836068974 26.70000004117877
    vertex 105.1540871742045 1227.344983606897 23.70000004117925
    vertex 105.15408717420463 1233.344983606897 23.700000041178924
  endloop
endfacet
facet normal 7.611653529693186e-11 5.1902926399478887e-14 1.0
  outer loop
    vertex 107.15408713694448 1233.3449836090072 23.70000004029174
    vertex 105.15408717420463 1233.344983606897 23.700000041178924
    vertex 107.15408713694434 1227.3449836090074 23.700000040292068
  endloop
endfacet
facet normal 7.611653529693186e-11 5.1902926399478887e-14 1.0
  outer loop
    vertex 105.1540871742045 1227.344983606897 23.70000004117925
    vertex 107.15408713694434 1227.3449836090074 23.700000040292068
    vertex 105.15408717420463 1233.344983606897 23.700000041178924
  endloop
endfacet
facet normal -5.380645887994311e-11 0.7071067811864816 -0.7071067811866135
  outer loop
    vertex 107.15408713717274 1230.3449836090074 26.700000040291588
    vertex 107.15408713694434 1227.3449836090074 23.700000040292068
    vertex 105.15408717443292 1230.3449836068974 26.70000004117877
  endloop
endfacet
facet normal -5.380645887994311e-11 0.7071067811864816 -0.7071067811866135
  outer loop
    vertex 105.1540871742045 1227.344983606897 23.70000004117925
    vertex 105.15408717443292 1230.3449836068974 26.70000004117877
    vertex 107.15408713694434 1227.3449836090074 23.700000040292068
  endloop
endfacet
facet normal -5.383857765783299e-11 -0.7071067811865523 -0.7071067811865427
  outer loop
    vertex 107.15408713694448 1233.3449836090072 23.70000004029174
    vertex 107.15408713717274 1230.3449836090074 26.700000040291588
    vertex 105.15408717420463 1233.344983606897 23.700000041178924
  endloop
endfacet
facet normal -5.383857765783299e-11 -0.7071067811865523 -0.7071067811865427
  outer loop
    vertex 105.15408717443292 1230.3449836068974 26.70000004117877
    vertex 105.15408717420463 1233.344983606897 23.700000041178924
    vertex 107.15408713717274 1230.3449836090074 26.700000040291588
  endloop
endfacet
facet normal 1.3974903291738075e-10 -1.0395326979918797e-10 1.0
  outer loop
    vertex 89.6540871366361 1235.044983607974 27.700000042000188
    vertex 96.40646030798693 1231.694021711139 27.70000004442644
    vertex 107.1540871371729 1235.0449836090077 27.700000040292014
  endloop
endfacet
facet normal 1.3974903291738075e-10 -1.0395326979918797e-10 1.0
  outer loop
    vertex 107.15408713717265 1225.6449836090076 27.70000004029251
    vertex 107.1540871371729 1235.0449836090077 27.700000040292014
    vertex 96.40646030798693 1231.694021711139 27.70000004442644
  endloop
endfacet
facet normal 1.3974903291738075e-10 -1.0395326979918797e-10 1.0
  outer loop
    vertex 96.0446888756407 1231.843872344896 27.700000044467572
    vertex 96.40646030798693 1231.694021711139 27.70000004442644
    vertex 89.6540871366361 1235.044983607974 27.700000042000188
  endloop
endfacet
facet normal 1.3974903291738075e-10 -1.0395326979918797e-10 1.0
  outer loop
    vertex 95.65646030798692 1231.8949836054624 27.70000004451202
    vertex 96.0446888756407 1231.843872344896 27.700000044467572
    vertex 89.6540871366361 1235.044983607974 27.700000042000188
  endloop
endfacet
facet normal 1.3974903291738075e-10 -1.0395326979918797e-10 1.0
  outer loop
    vertex 96.71712047976676 1231.4556437772421 27.700000044390904
    vertex 107.15408713717265 1225.6449836090076 27.70000004029251
    vertex 96.40646030798693 1231.694021711139 27.70000004442644
  endloop
endfacet
facet normal 1.3974903291738075e-10 -1.0395326979918797e-10 1.0
  outer loop
    vertex 96.95549841366356 1231.1449836054624 27.700000044363662
    vertex 107.15408713717265 1225.6449836090076 27.70000004029251
    vertex 96.71712047976676 1231.4556437772421 27.700000044390904
  endloop
endfacet
facet normal 1.3974903291738075e-10 -1.0395326979918797e-10 1.0
  outer loop
    vertex 97.1053490474205 1230.7832121731162 27.700000044346535
    vertex 107.15408713717265 1225.6449836090076 27.70000004029251
    vertex 96.95549841366356 1231.1449836054624 27.700000044363662
  endloop
endfacet
facet normal 1.3974903291738075e-10 -1.0395326979918797e-10 1.0
  outer loop
    vertex 97.15646030798689 1230.3949836054624 27.70000004434078
    vertex 107.15408713717265 1225.6449836090076 27.70000004029251
    vertex 97.1053490474205 1230.7832121731162 27.700000044346535
  endloop
endfacet
facet normal 1.3974903291738075e-10 -1.0395326979918797e-10 1.0
  outer loop
    vertex 97.1053490474205 1230.0067550378087 27.700000044346563
    vertex 107.15408713717265 1225.6449836090076 27.70000004029251
    vertex 97.15646030798689 1230.3949836054624 27.70000004434078
  endloop
endfacet
facet normal 1.3974903291738075e-10 -1.0395326979918797e-10 1.0
  outer loop
    vertex 96.95549841366352 1229.6449836054624 27.70000004436374
    vertex 107.15408713717265 1225.6449836090076 27.70000004029251
    vertex 97.1053490474205 1230.0067550378087 27.700000044346563
  endloop
endfacet
facet normal 1.3974903291738075e-10 -1.0395326979918797e-10 1.0
  outer loop
    vertex 96.71712047976669 1229.3343234336826 27.70000004439101
    vertex 107.15408713717265 1225.6449836090076 27.70000004029251
    vertex 96.95549841366352 1229.6449836054624 27.70000004436374
  endloop
endfacet
facet normal 1.3974903291738075e-10 -1.0395326979918797e-10 1.0
  outer loop
    vertex 96.40646030798686 1229.0959454997858 27.700000044426396
    vertex 107.15408713717265 1225.6449836090076 27.70000004029251
    vertex 96.71712047976669 1229.3343234336826 27.70000004439101
  endloop
endfacet
facet normal 1.3974903291738075e-10 -1.0395326979918797e-10 1.0
  outer loop
    vertex 96.04468887564063 1228.946094866029 27.700000044467735
    vertex 107.15408713717265 1225.6449836090076 27.70000004029251
    vertex 96.40646030798686 1229.0959454997858 27.700000044426396
  endloop
endfacet
facet normal 1.3974903291738075e-10 -1.0395326979918797e-10 1.0
  outer loop
    vertex 95.65646030798685 1228.8949836054624 27.70000004451218
    vertex 107.15408713717265 1225.6449836090076 27.70000004029251
    vertex 96.04468887564063 1228.946094866029 27.700000044467735
  endloop
endfacet
facet normal 1.3974903291738075e-10 -1.0395326979918797e-10 1.0
  outer loop
    vertex 89.65408713663587 1225.644983607974 27.70000004200068
    vertex 94.59580013620712 1231.4556437772421 27.700000044633104
    vertex 89.6540871366361 1235.044983607974 27.700000042000188
  endloop
endfacet
facet normal 1.3974903291738075e-10 -1.0395326979918797e-10 1.0
  outer loop
    vertex 94.90646030798693 1231.694021711139 27.700000044597715
    vertex 89.6540871366361 1235.044983607974 27.700000042000188
    vertex 94.59580013620712 1231.4556437772421 27.700000044633104
  endloop
endfacet
facet normal 1.3974903291738075e-10 -1.0395326979918797e-10 1.0
  outer loop
    vertex 95.26823174033314 1231.8438723448958 27.70000004455637
    vertex 89.6540871366361 1235.044983607974 27.700000042000188
    vertex 94.90646030798693 1231.694021711139 27.700000044597715
  endloop
endfacet
facet normal 1.3974903291738075e-10 -1.0395326979918797e-10 1.0
  outer loop
    vertex 95.65646030798692 1231.8949836054624 27.70000004451202
    vertex 89.6540871366361 1235.044983607974 27.700000042000188
    vertex 95.26823174033314 1231.8438723448958 27.70000004455637
  endloop
endfacet
facet normal 1.3974903291738075e-10 -1.0395326979918797e-10 1.0
  outer loop
    vertex 94.35742220231026 1231.1449836054624 27.700000044660367
    vertex 94.59580013620712 1231.4556437772421 27.700000044633104
    vertex 89.65408713663587 1225.644983607974 27.70000004200068
  endloop
endfacet
facet normal 1.3974903291738075e-10 -1.0395326979918797e-10 1.0
  outer loop
    vertex 94.20757156855329 1230.783212173116 27.70000004467753
    vertex 94.35742220231026 1231.1449836054624 27.700000044660367
    vertex 89.65408713663587 1225.644983607974 27.70000004200068
  endloop
endfacet
facet normal 1.3974903291738075e-10 -1.0395326979918797e-10 1.0
  outer loop
    vertex 94.1564603079869 1230.3949836054624 27.70000004468333
    vertex 94.20757156855329 1230.783212173116 27.70000004467753
    vertex 89.65408713663587 1225.644983607974 27.70000004200068
  endloop
endfacet
facet normal 1.3974903291738075e-10 -1.0395326979918797e-10 1.0
  outer loop
    vertex 94.20757156855329 1230.0067550378085 27.70000004467756
    vertex 94.1564603079869 1230.3949836054624 27.70000004468333
    vertex 89.65408713663587 1225.644983607974 27.70000004200068
  endloop
endfacet
facet normal 1.3974903291738075e-10 -1.0395326979918797e-10 1.0
  outer loop
    vertex 94.35742220231022 1229.6449836054624 27.700000044660445
    vertex 94.20757156855329 1230.0067550378085 27.70000004467756
    vertex 89.65408713663587 1225.644983607974 27.70000004200068
  endloop
endfacet
facet normal 1.3974903291738075e-10 -1.0395326979918797e-10 1.0
  outer loop
    vertex 94.59580013620705 1229.3343234336826 27.70000004463321
    vertex 94.35742220231022 1229.6449836054624 27.700000044660445
    vertex 89.65408713663587 1225.644983607974 27.70000004200068
  endloop
endfacet
facet normal 1.3974903291738075e-10 -1.0395326979918797e-10 1.0
  outer loop
    vertex 94.90646030798686 1229.0959454997858 27.70000004459767
    vertex 94.59580013620705 1229.3343234336826 27.70000004463321
    vertex 89.65408713663587 1225.644983607974 27.70000004200068
  endloop
endfacet
facet normal 1.3974903291738075e-10 -1.0395326979918797e-10 1.0
  outer loop
    vertex 95.26823174033306 1228.9460948660287 27.700000044556532
    vertex 94.90646030798686 1229.0959454997858 27.70000004459767
    vertex 89.65408713663587 1225.644983607974 27.70000004200068
  endloop
endfacet
facet normal 1.3974903291738075e-10 -1.0395326979918797e-10 1.0
  outer loop
    vertex 95.65646030798685 1228.8949836054624 27.70000004451218
    vertex 95.26823174033306 1228.9460948660287 27.700000044556532
    vertex 89.65408713663587 1225.644983607974 27.70000004200068
  endloop
endfacet
facet normal 1.3974903291738075e-10 -1.0395326979918797e-10 1.0
  outer loop
    vertex 107.15408713717265 1225.6449836090076 27.70000004029251
    vertex 95.65646030798685 1228.8949836054624 27.70000004451218
    vertex 89.65408713663587 1225.644983607974 27.70000004200068
  endloop
endfacet
facet normal -2.151690287200089e-10 4.3797274820836625e-11 -1.0
  outer loop
    vertex 95.65646030691332 1231.8949836054617 18.300000044511634
    vertex 95.26823173925955 1231.8438723448953 18.30000004455599
    vertex 89.65408713448903 1235.044983607973 18.30000004199998
  endloop
endfacet
facet normal -2.151690287200089e-10 4.3797274820836625e-11 -1.0
  outer loop
    vertex 94.90646030691333 1231.6940217111385 18.30000004459732
    vertex 89.65408713448903 1235.044983607973 18.30000004199998
    vertex 95.26823173925955 1231.8438723448953 18.30000004455599
  endloop
endfacet
facet normal -2.151690287200089e-10 4.3797274820836625e-11 -1.0
  outer loop
    vertex 94.59580013513352 1231.4556437772414 18.300000044632707
    vertex 89.65408713448903 1235.044983607973 18.30000004199998
    vertex 94.90646030691333 1231.6940217111385 18.30000004459732
  endloop
endfacet
facet normal -2.151690287200089e-10 4.3797274820836625e-11 -1.0
  outer loop
    vertex 89.65408713663584 1225.6449836079732 18.30000004200047
    vertex 89.65408713448903 1235.044983607973 18.30000004199998
    vertex 94.59580013513352 1231.4556437772414 18.300000044632707
  endloop
endfacet
facet normal -2.151690287200089e-10 4.3797274820836625e-11 -1.0
  outer loop
    vertex 94.35742220123667 1231.1449836054617 18.300000044659974
    vertex 89.65408713663584 1225.6449836079732 18.30000004200047
    vertex 94.59580013513352 1231.4556437772414 18.300000044632707
  endloop
endfacet
facet normal -2.151690287200089e-10 4.3797274820836625e-11 -1.0
  outer loop
    vertex 94.2075715674797 1230.7832121731155 18.30000004467714
    vertex 89.65408713663584 1225.6449836079732 18.30000004200047
    vertex 94.35742220123667 1231.1449836054617 18.300000044659974
  endloop
endfacet
facet normal -2.151690287200089e-10 4.3797274820836625e-11 -1.0
  outer loop
    vertex 94.1564603069133 1230.3949836054617 18.300000044682932
    vertex 89.65408713663584 1225.6449836079732 18.30000004200047
    vertex 94.2075715674797 1230.7832121731155 18.30000004467714
  endloop
endfacet
facet normal -2.151690287200089e-10 4.3797274820836625e-11 -1.0
  outer loop
    vertex 94.2075715674797 1230.006755037808 18.300000044677176
    vertex 89.65408713663584 1225.6449836079732 18.30000004200047
    vertex 94.1564603069133 1230.3949836054617 18.300000044682932
  endloop
endfacet
facet normal -2.151690287200089e-10 4.3797274820836625e-11 -1.0
  outer loop
    vertex 94.35742220123664 1229.6449836054617 18.300000044660056
    vertex 89.65408713663584 1225.6449836079732 18.30000004200047
    vertex 94.2075715674797 1230.006755037808 18.300000044677176
  endloop
endfacet
facet normal -2.151690287200089e-10 4.3797274820836625e-11 -1.0
  outer loop
    vertex 94.59580013513346 1229.334323433682 18.300000044632817
    vertex 89.65408713663584 1225.6449836079732 18.30000004200047
    vertex 94.35742220123664 1229.6449836054617 18.300000044660056
  endloop
endfacet
facet normal -2.151690287200089e-10 4.3797274820836625e-11 -1.0
  outer loop
    vertex 94.90646030691326 1229.095945499785 18.300000044597272
    vertex 89.65408713663584 1225.6449836079732 18.30000004200047
    vertex 94.59580013513346 1229.334323433682 18.300000044632817
  endloop
endfacet
facet normal -2.151690287200089e-10 4.3797274820836625e-11 -1.0
  outer loop
    vertex 95.26823173925948 1228.946094866028 18.300000044556135
    vertex 89.65408713663584 1225.6449836079732 18.30000004200047
    vertex 94.90646030691326 1229.095945499785 18.300000044597272
  endloop
endfacet
facet normal -2.151690287200089e-10 4.3797274820836625e-11 -1.0
  outer loop
    vertex 95.65646030691326 1228.894983605462 18.300000044511773
    vertex 89.65408713663584 1225.6449836079732 18.30000004200047
    vertex 95.26823173925948 1228.946094866028 18.300000044556135
  endloop
endfacet
facet normal -2.151690287200089e-10 4.3797274820836625e-11 -1.0
  outer loop
    vertex 107.15408713717262 1225.6449836090073 18.300000040292293
    vertex 89.65408713663584 1225.6449836079732 18.30000004200047
    vertex 95.65646030691326 1228.894983605462 18.300000044511773
  endloop
endfacet
facet normal -2.151690287200089e-10 4.3797274820836625e-11 -1.0
  outer loop
    vertex 107.15408713717262 1225.6449836090073 18.300000040292293
    vertex 96.40646030691333 1231.6940217111385 18.300000044426046
    vertex 107.15408713502585 1235.0449836090074 18.300000040291806
  endloop
endfacet
facet normal -2.151690287200089e-10 4.3797274820836625e-11 -1.0
  outer loop
    vertex 89.65408713448903 1235.044983607973 18.30000004199998
    vertex 107.15408713502585 1235.0449836090074 18.300000040291806
    vertex 96.40646030691333 1231.6940217111385 18.300000044426046
  endloop
endfacet
facet normal -2.151690287200089e-10 4.3797274820836625e-11 -1.0
  outer loop
    vertex 96.0446888745671 1231.8438723448953 18.300000044467193
    vertex 89.65408713448903 1235.044983607973 18.30000004199998
    vertex 96.40646030691333 1231.6940217111385 18.300000044426046
  endloop
endfacet
facet normal -2.151690287200089e-10 4.3797274820836625e-11 -1.0
  outer loop
    vertex 95.65646030691332 1231.8949836054617 18.300000044511634
    vertex 89.65408713448903 1235.044983607973 18.30000004199998
    vertex 96.0446888745671 1231.8438723448953 18.300000044467193
  endloop
endfacet
facet normal -2.151690287200089e-10 4.3797274820836625e-11 -1.0
  outer loop
    vertex 96.71712047869318 1231.455643777242 18.300000044390504
    vertex 96.40646030691333 1231.6940217111385 18.300000044426046
    vertex 107.15408713717262 1225.6449836090073 18.300000040292293
  endloop
endfacet
facet normal -2.151690287200089e-10 4.3797274820836625e-11 -1.0
  outer loop
    vertex 96.95549841258998 1231.144983605462 18.300000044363266
    vertex 96.71712047869318 1231.455643777242 18.300000044390504
    vertex 107.15408713717262 1225.6449836090073 18.300000040292293
  endloop
endfacet
facet normal -2.151690287200089e-10 4.3797274820836625e-11 -1.0
  outer loop
    vertex 97.1053490463469 1230.7832121731158 18.300000044346145
    vertex 96.95549841258998 1231.144983605462 18.300000044363266
    vertex 107.15408713717262 1225.6449836090073 18.300000040292293
  endloop
endfacet
facet normal -2.151690287200089e-10 4.3797274820836625e-11 -1.0
  outer loop
    vertex 97.1564603069133 1230.394983605462 18.300000044340386
    vertex 97.1053490463469 1230.7832121731158 18.300000044346145
    vertex 107.15408713717262 1225.6449836090073 18.300000040292293
  endloop
endfacet
facet normal -2.151690287200089e-10 4.3797274820836625e-11 -1.0
  outer loop
    vertex 97.1053490463469 1230.006755037808 18.300000044346177
    vertex 97.1564603069133 1230.394983605462 18.300000044340386
    vertex 107.15408713717262 1225.6449836090073 18.300000040292293
  endloop
endfacet
facet normal -2.151690287200089e-10 4.3797274820836625e-11 -1.0
  outer loop
    vertex 96.95549841258995 1229.644983605462 18.30000004436335
    vertex 97.1053490463469 1230.006755037808 18.300000044346177
    vertex 107.15408713717262 1225.6449836090073 18.300000040292293
  endloop
endfacet
facet normal -2.151690287200089e-10 4.3797274820836625e-11 -1.0
  outer loop
    vertex 96.7171204786931 1229.334323433682 18.300000044390615
    vertex 96.95549841258995 1229.644983605462 18.30000004436335
    vertex 107.15408713717262 1225.6449836090073 18.300000040292293
  endloop
endfacet
facet normal -2.151690287200089e-10 4.3797274820836625e-11 -1.0
  outer loop
    vertex 96.40646030691326 1229.0959454997853 18.300000044426
    vertex 96.7171204786931 1229.334323433682 18.300000044390615
    vertex 107.15408713717262 1225.6449836090073 18.300000040292293
  endloop
endfacet
facet normal -2.151690287200089e-10 4.3797274820836625e-11 -1.0
  outer loop
    vertex 96.04468887456703 1228.946094866028 18.300000044467343
    vertex 96.40646030691326 1229.0959454997853 18.300000044426
    vertex 107.15408713717262 1225.6449836090073 18.300000040292293
  endloop
endfacet
facet normal -2.151690287200089e-10 4.3797274820836625e-11 -1.0
  outer loop
    vertex 95.65646030691326 1228.894983605462 18.300000044511773
    vertex 96.04468887456703 1228.946094866028 18.300000044467343
    vertex 107.15408713717262 1225.6449836090073 18.300000040292293
  endloop
endfacet
facet normal 1.4919857045761258e-10 -0.3826834323650083 0.9238795325113206
  outer loop
    vertex 89.6540871365188 1229.568526472666 25.897777520867653
    vertex 61.65408713649132 1229.5685264694685 25.89777752448578
    vertex 89.6540871365672 1228.8449836079737 25.59807625335385
  endloop
endfacet
facet normal 1.4919857045761258e-10 -0.3826834323650083 0.9238795325113206
  outer loop
    vertex 61.654087136539765 1228.844983604776 25.598076256971975
    vertex 89.6540871365672 1228.8449836079737 25.59807625335385
    vertex 61.65408713649132 1229.5685264694685 25.89777752448578
  endloop
endfacet
facet normal 1.281246031018878e-10 -0.13052619222005069 0.9914448613738105
  outer loop
    vertex 89.65408713644185 1230.3449836079735 26.000000042000465
    vertex 61.654087136414354 1230.344983604776 26.000000045618588
    vertex 89.6540871365188 1229.568526472666 25.897777520867653
  endloop
endfacet
facet normal 1.281246031018878e-10 -0.13052619222005069 0.9914448613738105
  outer loop
    vertex 61.65408713649132 1229.5685264694685 25.89777752448578
    vertex 89.6540871365188 1229.568526472666 25.897777520867653
    vertex 61.654087136414354 1230.344983604776 26.000000045618588
  endloop
endfacet
facet normal 9.83191557806688e-11 0.1305261922201536 0.991444861373797
  outer loop
    vertex 89.6540871363415 1231.121440743281 25.897777520867585
    vertex 61.65408713631405 1231.1214407400837 25.89777752448571
    vertex 89.65408713644185 1230.3449836079735 26.000000042000465
  endloop
endfacet
facet normal 9.83191557806688e-11 0.1305261922201536 0.991444861373797
  outer loop
    vertex 61.654087136414354 1230.344983604776 26.000000045618588
    vertex 89.65408713644185 1230.3449836079735 26.000000042000465
    vertex 61.65408713631405 1231.1214407400837 25.89777752448571
  endloop
endfacet
facet normal -6.17811928878789e-11 0.9238795325112961 0.38268343236506763
  outer loop
    vertex 61.654087135829585 1233.2427610836426 23.776457180925966
    vertex 61.654087135946455 1232.943059816129 24.500000045618407
    vertex 89.6540871358571 1233.2427610868403 23.776457177307865
  endloop
endfacet
facet normal -6.17811928878789e-11 0.9238795325112961 0.38268343236506763
  outer loop
    vertex 89.65408713597392 1232.943059819327 24.500000042000305
    vertex 89.6540871358571 1233.2427610868403 23.776457177307865
    vertex 61.654087135946455 1232.943059816129 24.500000045618407
  endloop
endfacet
facet normal 1.6010034866855895e-10 -0.793353340291188 0.608761429008782
  outer loop
    vertex 61.65408713653975 1227.7469073934226 24.50000004561867
    vertex 89.65408713656717 1227.7469073966204 24.50000004200057
    vertex 61.65408713655624 1228.2236632612162 25.12132038917823
  endloop
endfacet
facet normal 1.6010034866855895e-10 -0.793353340291188 0.608761429008782
  outer loop
    vertex 89.65408713658368 1228.2236632644142 25.12132038556013
    vertex 61.65408713655624 1228.2236632612162 25.12132038917823
    vertex 89.65408713656717 1227.7469073966204 24.50000004200057
  endloop
endfacet
facet normal 1.6010490179895726e-10 -0.6087614290087304 0.7933533402912277
  outer loop
    vertex 89.6540871365672 1228.8449836079737 25.59807625335385
    vertex 61.654087136539765 1228.844983604776 25.598076256971975
    vertex 89.65408713658368 1228.2236632644142 25.12132038556013
  endloop
endfacet
facet normal 1.6010490179895726e-10 -0.6087614290087304 0.7933533402912277
  outer loop
    vertex 61.65408713655624 1228.2236632612162 25.12132038917823
    vertex 89.65408713658368 1228.2236632644142 25.12132038556013
    vertex 61.654087136539765 1228.844983604776 25.598076256971975
  endloop
endfacet
facet normal -9.829148132585552e-11 0.991444861373819 0.13052619221998663
  outer loop
    vertex 61.65408713572925 1233.3449836047755 23.000000045618357
    vertex 61.654087135829585 1233.2427610836426 23.776457180925966
    vertex 89.65408713575673 1233.344983607973 23.000000042000256
  endloop
endfacet
facet normal -9.829148132585552e-11 0.991444861373819 0.13052619221998663
  outer loop
    vertex 89.6540871358571 1233.2427610868403 23.776457177307865
    vertex 89.65408713575673 1233.344983607973 23.000000042000256
    vertex 61.654087135829585 1233.2427610836426 23.776457180925966
  endloop
endfacet
facet normal 6.18134204731075e-11 0.3826834323651042 0.9238795325112809
  outer loop
    vertex 89.65408713622467 1231.8449836079735 25.598076253353675
    vertex 61.65408713619724 1231.844983604776 25.5980762569718
    vertex 89.6540871363415 1231.121440743281 25.897777520867585
  endloop
endfacet
facet normal 6.18134204731075e-11 0.3826834323651042 0.9238795325112809
  outer loop
    vertex 61.65408713631405 1231.1214407400837 25.89777752448571
    vertex 89.6540871363415 1231.121440743281 25.897777520867585
    vertex 61.65408713619724 1231.844983604776 25.5980762569718
  endloop
endfacet
facet normal 2.1095202711783905e-11 0.6087614290088128 0.7933533402911644
  outer loop
    vertex 89.6540871360993 1232.4663039515333 25.121320385559915
    vertex 61.654087136071794 1232.4663039483355 25.121320389178017
    vertex 89.65408713622467 1231.8449836079735 25.598076253353675
  endloop
endfacet
facet normal 2.1095202711783905e-11 0.6087614290088128 0.7933533402911644
  outer loop
    vertex 61.65408713619724 1231.844983604776 25.5980762569718
    vertex 89.65408713622467 1231.8449836079735 25.598076253353675
    vertex 61.654087136071794 1232.4663039483355 25.121320389178017
  endloop
endfacet
facet normal -2.1060618252847646e-11 0.7933533402912513 0.6087614290086997
  outer loop
    vertex 61.654087135946455 1232.943059816129 24.500000045618407
    vertex 61.654087136071794 1232.4663039483355 25.121320389178017
    vertex 89.65408713597392 1232.943059819327 24.500000042000305
  endloop
endfacet
facet normal -2.1060618252847646e-11 0.7933533402912513 0.6087614290086997
  outer loop
    vertex 89.6540871360993 1232.4663039515333 25.121320385559915
    vertex 89.65408713597392 1232.943059819327 24.500000042000305
    vertex 61.654087136071794 1232.4663039483355 25.121320389178017
  endloop
endfacet
facet normal 1.4918522135473626e-10 -0.9238795325112563 0.38268343236516356
  outer loop
    vertex 61.6540871364913 1227.4472061259082 23.77645718092628
    vertex 89.65408713651877 1227.447206129106 23.776457177308178
    vertex 61.65408713653975 1227.7469073934226 24.50000004561867
  endloop
endfacet
facet normal 1.4918522135473626e-10 -0.9238795325112563 0.38268343236516356
  outer loop
    vertex 89.65408713656717 1227.7469073966204 24.50000004200057
    vertex 61.65408713653975 1227.7469073934226 24.50000004561867
    vertex 89.65408713651877 1227.447206129106 23.776457177308178
  endloop
endfacet
facet normal 1.2810336774581927e-10 -0.9914448613738055 0.13052619222008954
  outer loop
    vertex 61.65408713641429 1227.3449836047755 23.000000045618684
    vertex 89.65408713644177 1227.344983607973 23.000000042000583
    vertex 61.6540871364913 1227.4472061259082 23.77645718092628
  endloop
endfacet
facet normal 1.2810336774581927e-10 -0.9914448613738055 0.13052619222008954
  outer loop
    vertex 89.65408713651877 1227.447206129106 23.776457177308178
    vertex 61.6540871364913 1227.4472061259082 23.77645718092628
    vertex 89.65408713644177 1227.344983607973 23.000000042000583
  endloop
endfacet
facet normal -1.0 -1.1417615789945229e-10 9.847574774194278e-11
  outer loop
    vertex 61.654087136414354 1230.3449836047757 25.000000045618556
    vertex 61.65408713649132 1229.5685264694682 24.89777752448576
    vertex 61.65408713655624 1228.2236632612162 25.12132038917823
  endloop
endfacet
facet normal -1.0 -1.1417615789945229e-10 9.847574774194278e-11
  outer loop
    vertex 61.65408713653975 1227.7469073934226 24.50000004561867
    vertex 61.65408713655624 1228.2236632612162 25.12132038917823
    vertex 61.65408713649132 1229.5685264694682 24.89777752448576
  endloop
endfacet
facet normal -1.0 -1.1417615789945229e-10 9.847574774194278e-11
  outer loop
    vertex 61.654087136539765 1228.8449836047757 24.598076256971947
    vertex 61.65408713653975 1227.7469073934226 24.50000004561867
    vertex 61.65408713649132 1229.5685264694682 24.89777752448576
  endloop
endfacet
facet normal -1.0 -1.1417615789945229e-10 9.847574774194278e-11
  outer loop
    vertex 61.65408713655622 1228.2236632612162 24.121320389178226
    vertex 61.65408713653975 1227.7469073934226 24.50000004561867
    vertex 61.654087136539765 1228.8449836047757 24.598076256971947
  endloop
endfacet
facet normal -1.0 -1.1417615789945229e-10 9.847574774194278e-11
  outer loop
    vertex 61.6540871364913 1227.4472061259082 23.77645718092628
    vertex 61.65408713653975 1227.7469073934226 24.50000004561867
    vertex 61.65408713655622 1228.2236632612162 24.121320389178226
  endloop
endfacet
facet normal -1.0 -1.1417615789945229e-10 9.847574774194278e-11
  outer loop
    vertex 61.65408713653975 1227.7469073934224 23.500000045618666
    vertex 61.6540871364913 1227.4472061259082 23.77645718092628
    vertex 61.65408713655622 1228.2236632612162 24.121320389178226
  endloop
endfacet
facet normal -1.0 -1.1417615789945229e-10 9.847574774194278e-11
  outer loop
    vertex 61.65408713641429 1227.3449836047755 23.000000045618684
    vertex 61.6540871364913 1227.4472061259082 23.77645718092628
    vertex 61.65408713653975 1227.7469073934224 23.500000045618666
  endloop
endfacet
facet normal -1.0 -1.1417615789945229e-10 9.847574774194278e-11
  outer loop
    vertex 61.6540871364913 1227.447206125908 22.776457180926275
    vertex 61.65408713641429 1227.3449836047755 23.000000045618684
    vertex 61.65408713653975 1227.7469073934224 23.500000045618666
  endloop
endfacet
facet normal -1.0 -1.1417615789945229e-10 9.847574774194278e-11
  outer loop
    vertex 61.65408713640677 1227.4108098535694 22.50000004561936
    vertex 61.65408713641429 1227.3449836047755 23.000000045618684
    vertex 61.6540871364913 1227.447206125908 22.776457180926275
  endloop
endfacet
facet normal -1.0 -1.1417615789945229e-10 9.847574774194278e-11
  outer loop
    vertex 61.654087136414354 1230.344983604776 26.000000045618588
    vertex 61.65408713631405 1231.1214407400837 25.89777752448571
    vertex 61.65408713649132 1229.5685264694685 25.89777752448578
  endloop
endfacet
facet normal -1.0 -1.1417615789945229e-10 9.847574774194278e-11
  outer loop
    vertex 61.65408713619724 1231.844983604776 25.5980762569718
    vertex 61.65408713649132 1229.5685264694685 25.89777752448578
    vertex 61.65408713631405 1231.1214407400837 25.89777752448571
  endloop
endfacet
facet normal -1.0 -1.1417615789945229e-10 9.847574774194278e-11
  outer loop
    vertex 61.654087136539765 1228.844983604776 25.598076256971975
    vertex 61.65408713649132 1229.5685264694685 25.89777752448578
    vertex 61.65408713619724 1231.844983604776 25.5980762569718
  endloop
endfacet
facet normal -1.0 -1.1417615789945229e-10 9.847574774194278e-11
  outer loop
    vertex 61.65408713655624 1228.2236632612162 25.12132038917823
    vertex 61.654087136539765 1228.844983604776 25.598076256971975
    vertex 61.65408713619724 1231.844983604776 25.5980762569718
  endloop
endfacet
facet normal -1.0 -1.1417615789945229e-10 9.847574774194278e-11
  outer loop
    vertex 61.654087136071794 1232.4663039483355 25.121320389178017
    vertex 61.65408713655624 1228.2236632612162 25.12132038917823
    vertex 61.65408713619724 1231.844983604776 25.5980762569718
  endloop
endfacet
facet normal -1.0 -1.1417615789945229e-10 9.847574774194278e-11
  outer loop
    vertex 61.654087136414354 1230.3449836047757 25.000000045618556
    vertex 61.65408713655624 1228.2236632612162 25.12132038917823
    vertex 61.654087136071794 1232.4663039483355 25.121320389178017
  endloop
endfacet
facet normal -1.0 -1.1417615789945229e-10 9.847574774194278e-11
  outer loop
    vertex 61.65408713631402 1231.1214407400835 24.89777752448568
    vertex 61.654087136414354 1230.3449836047757 25.000000045618556
    vertex 61.654087136071794 1232.4663039483355 25.121320389178017
  endloop
endfacet
facet normal -1.0 -1.1417615789945229e-10 9.847574774194278e-11
  outer loop
    vertex 61.654087135946455 1232.943059816129 24.500000045618407
    vertex 61.65408713631402 1231.1214407400835 24.89777752448568
    vertex 61.654087136071794 1232.4663039483355 25.121320389178017
  endloop
endfacet
facet normal -1.0 -1.1417615789945229e-10 9.847574774194278e-11
  outer loop
    vertex 61.65408713619724 1231.844983604776 24.598076256971783
    vertex 61.65408713631402 1231.1214407400835 24.89777752448568
    vertex 61.654087135946455 1232.943059816129 24.500000045618407
  endloop
endfacet
facet normal -1.0 -1.1417615789945229e-10 9.847574774194278e-11
  outer loop
    vertex 61.654087136071794 1232.4663039483355 24.121320389178013
    vertex 61.65408713619724 1231.844983604776 24.598076256971783
    vertex 61.654087135946455 1232.943059816129 24.500000045618407
  endloop
endfacet
facet normal -1.0 -1.1417615789945229e-10 9.847574774194278e-11
  outer loop
    vertex 61.654087135829585 1233.2427610836426 23.776457180925966
    vertex 61.654087136071794 1232.4663039483355 24.121320389178013
    vertex 61.654087135946455 1232.943059816129 24.500000045618407
  endloop
endfacet
facet normal -1.0 -1.1417615789945229e-10 9.847574774194278e-11
  outer loop
    vertex 61.654087135946455 1232.943059816129 23.500000045618403
    vertex 61.654087136071794 1232.4663039483355 24.121320389178013
    vertex 61.654087135829585 1233.2427610836426 23.776457180925966
  endloop
endfacet
facet normal -1.0 -1.1417615789945229e-10 9.847574774194278e-11
  outer loop
    vertex 61.65408713572925 1233.3449836047755 23.000000045618357
    vertex 61.654087135946455 1232.943059816129 23.500000045618403
    vertex 61.654087135829585 1233.2427610836426 23.776457180925966
  endloop
endfacet
facet normal -1.0 -1.1417615789945229e-10 9.847574774194278e-11
  outer loop
    vertex 61.654087135829585 1233.2427610836426 22.776457180925963
    vertex 61.654087135946455 1232.943059816129 23.500000045618403
    vertex 61.65408713572925 1233.3449836047755 23.000000045618357
  endloop
endfacet
facet normal -1.0 -1.1417615789945229e-10 9.847574774194278e-11
  outer loop
    vertex 61.65408713573675 1233.279157355982 22.500000045617675
    vertex 61.654087135829585 1233.2427610836426 22.776457180925963
    vertex 61.65408713572925 1233.3449836047755 23.000000045618357
  endloop
endfacet
facet normal -1.0034570066193128e-10 0.9914448613736859 0.13052619222099737
  outer loop
    vertex 34.91271622663672 1233.2791573529298 22.500000048251064
    vertex 34.91271622672954 1233.24276108059 22.776457183559344
    vertex 61.65408713573675 1233.279157355982 22.500000045617675
  endloop
endfacet
facet normal -1.0034570066193128e-10 0.9914448613736859 0.13052619222099737
  outer loop
    vertex 61.654087135829585 1233.2427610836426 22.776457180925963
    vertex 61.65408713573675 1233.279157355982 22.500000045617675
    vertex 34.91271622672954 1233.24276108059 22.776457183559344
  endloop
endfacet
facet normal -6.779997823353748e-11 0.923879532511463 0.38268343236466407
  outer loop
    vertex 34.91271622672954 1233.24276108059 22.776457183559344
    vertex 34.9127162268464 1232.9430598130766 23.500000048251785
    vertex 61.654087135829585 1233.2427610836426 22.776457180925963
  endloop
endfacet
facet normal -6.779997823353748e-11 0.923879532511463 0.38268343236466407
  outer loop
    vertex 61.654087135946455 1232.943059816129 23.500000045618403
    vertex 61.654087135829585 1233.2427610836426 22.776457180925963
    vertex 34.9127162268464 1232.9430598130766 23.500000048251785
  endloop
endfacet
facet normal -3.063379933310287e-11 0.7933533402914013 0.6087614290085042
  outer loop
    vertex 34.9127162268464 1232.9430598130766 23.500000048251785
    vertex 34.912716226971746 1232.4663039452835 24.1213203918114
    vertex 61.654087135946455 1232.943059816129 23.500000045618403
  endloop
endfacet
facet normal -3.063379933310287e-11 0.7933533402914013 0.6087614290085042
  outer loop
    vertex 61.654087136071794 1232.4663039483355 24.121320389178013
    vertex 61.654087135946455 1232.943059816129 23.500000045618403
    vertex 34.912716226971746 1232.4663039452835 24.1213203918114
  endloop
endfacet
facet normal 8.62002236715154e-12 0.6087614290087202 0.7933533402912357
  outer loop
    vertex 61.654087136071794 1232.4663039483355 24.121320389178013
    vertex 34.912716226971746 1232.4663039452835 24.1213203918114
    vertex 61.65408713619724 1231.844983604776 24.598076256971783
  endloop
endfacet
facet normal 8.62002236715154e-12 0.6087614290087202 0.7933533402912357
  outer loop
    vertex 34.912716227097185 1231.8449836017237 24.598076259605165
    vertex 61.65408713619724 1231.844983604776 24.598076256971783
    vertex 34.912716226971746 1232.4663039452835 24.1213203918114
  endloop
endfacet
facet normal 4.728640378830159e-11 0.38268343236510943 0.9238795325112785
  outer loop
    vertex 61.65408713619724 1231.844983604776 24.598076256971783
    vertex 34.912716227097185 1231.8449836017237 24.598076259605165
    vertex 61.65408713631402 1231.1214407400835 24.89777752448568
  endloop
endfacet
facet normal 4.728640378830159e-11 0.38268343236510943 0.9238795325112785
  outer loop
    vertex 34.91271622721397 1231.1214407370312 24.89777752711906
    vertex 61.65408713631402 1231.1214407400835 24.89777752448568
    vertex 34.912716227097185 1231.8449836017237 24.598076259605165
  endloop
endfacet
facet normal 8.273029493574921e-11 0.13052619222015133 0.9914448613737973
  outer loop
    vertex 61.65408713631402 1231.1214407400835 24.89777752448568
    vertex 34.91271622721397 1231.1214407370312 24.89777752711906
    vertex 61.654087136414354 1230.3449836047757 25.000000045618556
  endloop
endfacet
facet normal 8.273029493574921e-11 0.13052619222015133 0.9914448613737973
  outer loop
    vertex 34.91271622731431 1230.3449836017237 25.000000048251945
    vertex 61.654087136414354 1230.3449836047757 25.000000045618556
    vertex 34.91271622721397 1231.1214407370312 24.89777752711906
  endloop
endfacet
facet normal 1.125362532016237e-10 -0.1305261922200522 0.9914448613738103
  outer loop
    vertex 61.654087136414354 1230.3449836047757 25.000000045618556
    vertex 34.91271622731431 1230.3449836017237 25.000000048251945
    vertex 61.65408713649132 1229.5685264694682 24.89777752448576
  endloop
endfacet
facet normal 1.125362532016237e-10 -0.1305261922200522 0.9914448613738103
  outer loop
    vertex 34.91271622739127 1229.568526466416 24.897777527119143
    vertex 61.65408713649132 1229.5685264694682 24.89777752448576
    vertex 34.91271622731431 1230.3449836017237 25.000000048251945
  endloop
endfacet
facet normal 1.346730517867408e-10 -0.3826834323650141 0.923879532511318
  outer loop
    vertex 61.65408713649132 1229.5685264694682 24.89777752448576
    vertex 34.91271622739127 1229.568526466416 24.897777527119143
    vertex 61.654087136539765 1228.8449836047757 24.598076256971947
  endloop
endfacet
facet normal 1.346730517867408e-10 -0.3826834323650141 0.923879532511318
  outer loop
    vertex 34.91271622743971 1228.8449836017235 24.59807625960533
    vertex 61.654087136539765 1228.8449836047757 24.598076256971947
    vertex 34.91271622739127 1229.568526466416 24.897777527119143
  endloop
endfacet
facet normal 1.4763210445034606e-10 -0.6087614290087929 0.7933533402911797
  outer loop
    vertex 61.654087136539765 1228.8449836047757 24.598076256971947
    vertex 34.91271622743971 1228.8449836017235 24.59807625960533
    vertex 61.65408713655622 1228.2236632612162 24.121320389178226
  endloop
endfacet
facet normal 1.4763210445034606e-10 -0.6087614290087929 0.7933533402911797
  outer loop
    vertex 34.912716227456166 1228.223663258164 24.121320391811615
    vertex 61.65408713655622 1228.2236632612162 24.121320389178226
    vertex 34.91271622743971 1228.8449836017235 24.59807625960533
  endloop
endfacet
facet normal 1.5053027316924006e-10 -0.7933533402910434 0.6087614290089706
  outer loop
    vertex 34.91271622743969 1227.7469073903699 23.500000048252048
    vertex 61.65408713653975 1227.7469073934224 23.500000045618666
    vertex 34.912716227456166 1228.223663258164 24.121320391811615
  endloop
endfacet
facet normal 1.5053027316924006e-10 -0.7933533402910434 0.6087614290089706
  outer loop
    vertex 61.65408713655622 1228.2236632612162 24.121320389178226
    vertex 34.912716227456166 1228.223663258164 24.121320391811615
    vertex 61.65408713653975 1227.7469073934224 23.500000045618666
  endloop
endfacet
facet normal 1.4317005253470574e-10 -0.9238795325111288 0.38268343236547125
  outer loop
    vertex 34.91271622739122 1227.4472061228557 22.776457183559657
    vertex 61.6540871364913 1227.447206125908 22.776457180926275
    vertex 34.91271622743969 1227.7469073903699 23.500000048252048
  endloop
endfacet
facet normal 1.4317005253470574e-10 -0.9238795325111288 0.38268343236547125
  outer loop
    vertex 61.65408713653975 1227.7469073934224 23.500000045618666
    vertex 34.91271622743969 1227.7469073903699 23.500000048252048
    vertex 61.6540871364913 1227.447206125908 22.776457180926275
  endloop
endfacet
facet normal 1.2605302941956765e-10 -0.9914448613738535 0.13052619221972478
  outer loop
    vertex 34.912716227306724 1227.410809850517 22.500000048252744
    vertex 61.65408713640677 1227.4108098535694 22.50000004561936
    vertex 34.91271622739122 1227.4472061228557 22.776457183559657
  endloop
endfacet
facet normal 1.2605302941956765e-10 -0.9914448613738535 0.13052619221972478
  outer loop
    vertex 61.6540871364913 1227.447206125908 22.776457180926275
    vertex 34.91271622739122 1227.4472061228557 22.776457183559657
    vertex 61.65408713640677 1227.4108098535694 22.50000004561936
  endloop
endfacet
endsolid Design - Rolled
