solid Design - Rolled
facet normal 1.0 -6.424243613582851e-11 8.871645895293187e-29
  outer loop
    vertex 112.20862959700061 53.37724007663854 132.0000004097936
    vertex 112.20862959717842 56.145388467033705 137.4823623213797
    vertex 112.20862959700061 53.37724007663854 147.00000040321777
  endloop
endfacet
facet normal 1.0 -6.424243613582851e-11 8.871645895293187e-29
  outer loop
    vertex 112.20862959717842 56.145388467033705 137.4823623213797
    vertex 112.20862959700061 53.37724007663854 132.0000004097936
    vertex 112.20862959719126 56.345189312042955 137.00000041158472
  endloop
endfacet
facet normal 1.0 -6.424243613582851e-11 8.871645895293187e-29
  outer loop
    vertex 112.20862959719126 56.345189312042955 137.00000041158472
    vertex 112.20862959700061 53.37724007663854 132.0000004097936
    vertex 112.20862959721167 56.663026557238744 136.58578684921164
  endloop
endfacet
facet normal 1.0 -6.424243613582851e-11 8.871645895293187e-29
  outer loop
    vertex 112.20862959721167 56.663026557238744 136.58578684921164
    vertex 112.20862959700061 53.37724007663854 132.0000004097936
    vertex 112.2086295972383 57.07724011961184 136.26794960401585
  endloop
endfacet
facet normal 1.0 -6.424243613582851e-11 8.871645895293187e-29
  outer loop
    vertex 112.2086295972383 57.07724011961184 136.26794960401585
    vertex 112.20862959700061 53.37724007663854 132.0000004097936
    vertex 112.20862959760449 62.77724011963114 132.0000004183851
  endloop
endfacet
facet normal 1.0 -6.424243613582851e-11 8.871645895293187e-29
  outer loop
    vertex 112.20862959700061 53.37724007663854 147.00000040321777
    vertex 112.20862959717842 56.145388467033705 137.4823623213797
    vertex 112.20862959717404 56.07724011961184 138.00000041158472
  endloop
endfacet
facet normal 1.0 -6.424243613582851e-11 8.871645895293187e-29
  outer loop
    vertex 112.2086295972383 57.07724011961184 136.26794960401585
    vertex 112.20862959760449 62.77724011963114 132.0000004183851
    vertex 112.20862959726927 57.55960202940679 136.06814875900662
  endloop
endfacet
facet normal 1.0 -6.424243613582851e-11 8.871645895293187e-29
  outer loop
    vertex 112.20862959726927 57.55960202940679 136.06814875900662
    vertex 112.20862959760449 62.77724011963114 132.0000004183851
    vertex 112.20862959730252 58.07724011961184 136.00000041158472
  endloop
endfacet
facet normal 1.0 -6.424243613582851e-11 8.871645895293187e-29
  outer loop
    vertex 112.20862959730252 58.07724011961184 136.00000041158472
    vertex 112.20862959760449 62.77724011963114 132.0000004183851
    vertex 112.20862959733577 58.59487820981688 136.0681487590066
  endloop
endfacet
facet normal 1.0 -6.424243613582851e-11 8.871645895293187e-29
  outer loop
    vertex 112.20862959733577 58.59487820981688 136.0681487590066
    vertex 112.20862959760449 62.77724011963114 132.0000004183851
    vertex 112.20862959736677 59.07724011961183 136.26794960401585
  endloop
endfacet
facet normal 1.0 -6.424243613582851e-11 8.871645895293187e-29
  outer loop
    vertex 112.20862959736677 59.07724011961183 136.26794960401585
    vertex 112.20862959760449 62.77724011963114 132.0000004183851
    vertex 112.20862959739337 59.49145368198492 136.58578684921164
  endloop
endfacet
facet normal 1.0 -6.424243613582851e-11 8.871645895293187e-29
  outer loop
    vertex 112.20862959739337 59.49145368198492 136.58578684921164
    vertex 112.20862959760449 62.77724011963114 132.0000004183851
    vertex 112.20862959741379 59.80929092718071 137.00000041158472
  endloop
endfacet
facet normal 1.0 -6.424243613582851e-11 8.871645895293187e-29
  outer loop
    vertex 112.20862959741379 59.80929092718071 137.00000041158472
    vertex 112.20862959760449 62.77724011963114 132.0000004183851
    vertex 112.20862959742662 60.00909177218997 137.4823623213797
  endloop
endfacet
facet normal 1.0 -6.424243613582851e-11 8.871645895293187e-29
  outer loop
    vertex 112.20862959742662 60.00909177218997 137.4823623213797
    vertex 112.20862959760449 62.77724011963114 132.0000004183851
    vertex 112.208629597431 60.07724011961183 138.00000041158472
  endloop
endfacet
facet normal 1.0 -6.424243613582851e-11 8.871645895293187e-29
  outer loop
    vertex 112.20862959700061 53.37724007663854 147.00000040321777
    vertex 112.20862959721167 56.663026557238744 139.41421397395783
    vertex 112.20862959760449 62.77724011963114 147.00000041180928
  endloop
endfacet
facet normal 1.0 -6.424243613582851e-11 8.871645895293187e-29
  outer loop
    vertex 112.20862959721167 56.663026557238744 139.41421397395783
    vertex 112.20862959700061 53.37724007663854 147.00000040321777
    vertex 112.20862959719126 56.345189312042955 139.00000041158472
  endloop
endfacet
facet normal 1.0 -6.424243613582851e-11 8.871645895293187e-29
  outer loop
    vertex 112.20862959719126 56.345189312042955 139.00000041158472
    vertex 112.20862959700061 53.37724007663854 147.00000040321777
    vertex 112.20862959717842 56.145388467033705 138.51763850178978
  endloop
endfacet
facet normal 1.0 -6.424243613582851e-11 8.871645895293187e-29
  outer loop
    vertex 112.20862959717842 56.145388467033705 138.51763850178978
    vertex 112.20862959700061 53.37724007663854 147.00000040321777
    vertex 112.20862959717404 56.07724011961184 138.00000041158472
  endloop
endfacet
facet normal 1.0 -6.424243613582851e-11 8.871645895293187e-29
  outer loop
    vertex 112.20862959760449 62.77724011963114 147.00000041180928
    vertex 112.20862959721167 56.663026557238744 139.41421397395783
    vertex 112.2086295972383 57.07724011961184 139.7320512191536
  endloop
endfacet
facet normal 1.0 -6.424243613582851e-11 8.871645895293187e-29
  outer loop
    vertex 112.20862959760449 62.77724011963114 147.00000041180928
    vertex 112.2086295972383 57.07724011961184 139.7320512191536
    vertex 112.20862959726927 57.559602029406804 139.93185206416288
  endloop
endfacet
facet normal 1.0 -6.424243613582851e-11 8.871645895293187e-29
  outer loop
    vertex 112.20862959760449 62.77724011963114 147.00000041180928
    vertex 112.20862959726927 57.559602029406804 139.93185206416288
    vertex 112.20862959730252 58.07724011961184 140.00000041158472
  endloop
endfacet
facet normal 1.0 -6.424243613582851e-11 8.871645895293187e-29
  outer loop
    vertex 112.20862959760449 62.77724011963114 147.00000041180928
    vertex 112.20862959730252 58.07724011961184 140.00000041158472
    vertex 112.20862959733577 58.59487820981688 139.93185206416285
  endloop
endfacet
facet normal 1.0 -6.424243613582851e-11 8.871645895293187e-29
  outer loop
    vertex 112.20862959760449 62.77724011963114 147.00000041180928
    vertex 112.20862959733577 58.59487820981688 139.93185206416285
    vertex 112.20862959736677 59.07724011961183 139.7320512191536
  endloop
endfacet
facet normal 1.0 -6.424243613582851e-11 8.871645895293187e-29
  outer loop
    vertex 112.20862959760449 62.77724011963114 147.00000041180928
    vertex 112.20862959736677 59.07724011961183 139.7320512191536
    vertex 112.20862959739337 59.491453681984936 139.41421397395783
  endloop
endfacet
facet normal 1.0 -6.424243613582851e-11 8.871645895293187e-29
  outer loop
    vertex 112.20862959760449 62.77724011963114 147.00000041180928
    vertex 112.20862959739337 59.491453681984936 139.41421397395783
    vertex 112.20862959741379 59.80929092718071 139.00000041158472
  endloop
endfacet
facet normal 1.0 -6.424243613582851e-11 8.871645895293187e-29
  outer loop
    vertex 112.20862959760449 62.77724011963114 147.00000041180928
    vertex 112.20862959741379 59.80929092718071 139.00000041158472
    vertex 112.20862959742662 60.00909177218997 138.51763850178978
  endloop
endfacet
facet normal 1.0 -6.424243613582851e-11 8.871645895293187e-29
  outer loop
    vertex 112.20862959760449 62.77724011963114 147.00000041180928
    vertex 112.20862959742662 60.00909177218997 138.51763850178978
    vertex 112.208629597431 60.07724011961183 138.00000041158472
  endloop
endfacet
facet normal 1.0 -6.424243613582851e-11 8.871645895293187e-29
  outer loop
    vertex 112.20862959760449 62.77724011963114 147.00000041180928
    vertex 112.208629597431 60.07724011961183 138.00000041158472
    vertex 112.20862959760449 62.77724011963114 132.0000004183851
  endloop
endfacet
facet normal -1.0 6.424003616436499e-11 -3.0356845587450255e-28
  outer loop
    vertex 67.30000011598445 53.37724007663854 147.00000040321777
    vertex 67.30000011617511 56.345189312043004 139.00000041158472
    vertex 67.30000011598445 53.37724007663854 132.0000004032178
  endloop
endfacet
facet normal -1.0 6.424003616436499e-11 -3.0356845587450255e-28
  outer loop
    vertex 67.30000011617511 56.345189312043004 139.00000041158472
    vertex 67.30000011598445 53.37724007663854 147.00000040321777
    vertex 67.3000001161955 56.663026557238794 139.41421397395783
  endloop
endfacet
facet normal -1.0 6.424003616436499e-11 -3.0356845587450255e-28
  outer loop
    vertex 67.3000001161955 56.663026557238794 139.41421397395783
    vertex 67.30000011598445 53.37724007663854 147.00000040321777
    vertex 67.3000001165883 62.77724011963114 147.00000041180928
  endloop
endfacet
facet normal -1.0 6.424003616436499e-11 -3.0356845587450255e-28
  outer loop
    vertex 67.30000011598445 53.37724007663854 132.0000004032178
    vertex 67.30000011617511 56.345189312043004 139.00000041158472
    vertex 67.30000011616225 56.14538846703375 138.51763850178978
  endloop
endfacet
facet normal -1.0 6.424003616436499e-11 -3.0356845587450255e-28
  outer loop
    vertex 67.30000011598445 53.37724007663854 132.0000004032178
    vertex 67.30000011616225 56.14538846703375 138.51763850178978
    vertex 67.30000011615788 56.077240119611886 138.00000041158472
  endloop
endfacet
facet normal -1.0 6.424003616436499e-11 -3.0356845587450255e-28
  outer loop
    vertex 67.3000001161955 56.663026557238794 139.41421397395783
    vertex 67.3000001165883 62.77724011963114 147.00000041180928
    vertex 67.30000011622212 57.07724011961188 139.7320512191536
  endloop
endfacet
facet normal -1.0 6.424003616436499e-11 -3.0356845587450255e-28
  outer loop
    vertex 67.30000011622212 57.07724011961188 139.7320512191536
    vertex 67.3000001165883 62.77724011963114 147.00000041180928
    vertex 67.30000011625312 57.55960202940685 139.93185206416288
  endloop
endfacet
facet normal -1.0 6.424003616436499e-11 -3.0356845587450255e-28
  outer loop
    vertex 67.30000011625312 57.55960202940685 139.93185206416288
    vertex 67.3000001165883 62.77724011963114 147.00000041180928
    vertex 67.30000011628637 58.07724011961188 140.00000041158472
  endloop
endfacet
facet normal -1.0 6.424003616436499e-11 -3.0356845587450255e-28
  outer loop
    vertex 67.30000011628637 58.07724011961188 140.00000041158472
    vertex 67.3000001165883 62.77724011963114 147.00000041180928
    vertex 67.30000011631962 58.594878209816926 139.93185206416285
  endloop
endfacet
facet normal -1.0 6.424003616436499e-11 -3.0356845587450255e-28
  outer loop
    vertex 67.30000011631962 58.594878209816926 139.93185206416285
    vertex 67.3000001165883 62.77724011963114 147.00000041180928
    vertex 67.30000011635057 59.07724011961188 139.7320512191536
  endloop
endfacet
facet normal -1.0 6.424003616436499e-11 -3.0356845587450255e-28
  outer loop
    vertex 67.30000011635057 59.07724011961188 139.7320512191536
    vertex 67.3000001165883 62.77724011963114 147.00000041180928
    vertex 67.30000011637719 59.49145368198498 139.41421397395783
  endloop
endfacet
facet normal -1.0 6.424003616436499e-11 -3.0356845587450255e-28
  outer loop
    vertex 67.30000011637719 59.49145368198498 139.41421397395783
    vertex 67.3000001165883 62.77724011963114 147.00000041180928
    vertex 67.30000011639764 59.80929092718076 139.00000041158472
  endloop
endfacet
facet normal -1.0 6.424003616436499e-11 -3.0356845587450255e-28
  outer loop
    vertex 67.30000011639764 59.80929092718076 139.00000041158472
    vertex 67.3000001165883 62.77724011963114 147.00000041180928
    vertex 67.30000011641044 60.00909177219001 138.51763850178978
  endloop
endfacet
facet normal -1.0 6.424003616436499e-11 -3.0356845587450255e-28
  outer loop
    vertex 67.30000011641044 60.00909177219001 138.51763850178978
    vertex 67.3000001165883 62.77724011963114 147.00000041180928
    vertex 67.30000011641482 60.07724011961188 138.00000041158472
  endloop
endfacet
facet normal -1.0 6.424003616436499e-11 -3.0356845587450255e-28
  outer loop
    vertex 67.30000011598445 53.37724007663854 132.0000004032178
    vertex 67.30000011622212 57.07724011961188 136.26794960401585
    vertex 67.3000001165883 62.77724011963114 132.00000041180928
  endloop
endfacet
facet normal -1.0 6.424003616436499e-11 -3.0356845587450255e-28
  outer loop
    vertex 67.30000011622212 57.07724011961188 136.26794960401585
    vertex 67.30000011598445 53.37724007663854 132.0000004032178
    vertex 67.3000001161955 56.663026557238794 136.58578684921164
  endloop
endfacet
facet normal -1.0 6.424003616436499e-11 -3.0356845587450255e-28
  outer loop
    vertex 67.3000001161955 56.663026557238794 136.58578684921164
    vertex 67.30000011598445 53.37724007663854 132.0000004032178
    vertex 67.30000011617511 56.345189312043004 137.00000041158472
  endloop
endfacet
facet normal -1.0 6.424003616436499e-11 -3.0356845587450255e-28
  outer loop
    vertex 67.30000011617511 56.345189312043004 137.00000041158472
    vertex 67.30000011598445 53.37724007663854 132.0000004032178
    vertex 67.30000011616225 56.14538846703375 137.4823623213797
  endloop
endfacet
facet normal -1.0 6.424003616436499e-11 -3.0356845587450255e-28
  outer loop
    vertex 67.30000011616225 56.14538846703375 137.4823623213797
    vertex 67.30000011598445 53.37724007663854 132.0000004032178
    vertex 67.30000011615788 56.077240119611886 138.00000041158472
  endloop
endfacet
facet normal -1.0 6.424003616436499e-11 -3.0356845587450255e-28
  outer loop
    vertex 67.3000001165883 62.77724011963114 132.00000041180928
    vertex 67.30000011622212 57.07724011961188 136.26794960401585
    vertex 67.30000011625312 57.55960202940683 136.06814875900662
  endloop
endfacet
facet normal -1.0 6.424003616436499e-11 -3.0356845587450255e-28
  outer loop
    vertex 67.3000001165883 62.77724011963114 132.00000041180928
    vertex 67.30000011625312 57.55960202940683 136.06814875900662
    vertex 67.30000011628637 58.07724011961188 136.00000041158472
  endloop
endfacet
facet normal -1.0 6.424003616436499e-11 -3.0356845587450255e-28
  outer loop
    vertex 67.3000001165883 62.77724011963114 132.00000041180928
    vertex 67.30000011628637 58.07724011961188 136.00000041158472
    vertex 67.30000011631962 58.594878209816926 136.0681487590066
  endloop
endfacet
facet normal -1.0 6.424003616436499e-11 -3.0356845587450255e-28
  outer loop
    vertex 67.3000001165883 62.77724011963114 132.00000041180928
    vertex 67.30000011631962 58.594878209816926 136.0681487590066
    vertex 67.30000011635057 59.07724011961188 136.26794960401585
  endloop
endfacet
facet normal -1.0 6.424003616436499e-11 -3.0356845587450255e-28
  outer loop
    vertex 67.3000001165883 62.77724011963114 132.00000041180928
    vertex 67.30000011635057 59.07724011961188 136.26794960401585
    vertex 67.30000011637719 59.491453681984964 136.58578684921164
  endloop
endfacet
facet normal -1.0 6.424003616436499e-11 -3.0356845587450255e-28
  outer loop
    vertex 67.3000001165883 62.77724011963114 132.00000041180928
    vertex 67.30000011637719 59.491453681984964 136.58578684921164
    vertex 67.30000011639764 59.80929092718076 137.00000041158472
  endloop
endfacet
facet normal -1.0 6.424003616436499e-11 -3.0356845587450255e-28
  outer loop
    vertex 67.3000001165883 62.77724011963114 132.00000041180928
    vertex 67.30000011639764 59.80929092718076 137.00000041158472
    vertex 67.30000011641044 60.00909177219001 137.4823623213797
  endloop
endfacet
facet normal -1.0 6.424003616436499e-11 -3.0356845587450255e-28
  outer loop
    vertex 67.3000001165883 62.77724011963114 132.00000041180928
    vertex 67.30000011641044 60.00909177219001 137.4823623213797
    vertex 67.30000011641482 60.07724011961188 138.00000041158472
  endloop
endfacet
facet normal -1.0 6.424003616436499e-11 -3.0356845587450255e-28
  outer loop
    vertex 67.3000001165883 62.77724011963114 132.00000041180928
    vertex 67.30000011641482 60.07724011961188 138.00000041158472
    vertex 67.3000001165883 62.77724011963114 147.00000041180928
  endloop
endfacet
facet normal 1.4642672282180266e-10 9.139883323619314e-10 -1.0
  outer loop
    vertex 67.3000001165883 62.77724011963114 132.00000041180928
    vertex 112.20862959700061 53.37724007663854 132.0000004097936
    vertex 67.30000011598445 53.37724007663854 132.0000004032178
  endloop
endfacet
facet normal 1.4642672282180266e-10 9.139883323619314e-10 -1.0
  outer loop
    vertex 112.20862959700061 53.37724007663854 132.0000004097936
    vertex 67.3000001165883 62.77724011963114 132.00000041180928
    vertex 112.20862959760449 62.77724011963114 132.0000004183851
  endloop
endfacet
facet normal -1.0 6.423813539944735e-11 -5.10961643271805e-26
  outer loop
    vertex 75.30000011616225 56.14538846651983 138.51763850178978
    vertex 75.30000011616225 56.14538846651983 137.4823623213797
    vertex 75.30000011615788 56.07724011909797 138.00000041158472
  endloop
endfacet
facet normal -1.0 6.423813539944735e-11 -5.10961643271805e-26
  outer loop
    vertex 75.30000011616225 56.14538846651983 137.4823623213797
    vertex 75.30000011616225 56.14538846651983 138.51763850178978
    vertex 75.3000001161751 56.34518931152909 139.00000041158472
  endloop
endfacet
facet normal -1.0 6.423813539944735e-11 -5.10961643271805e-26
  outer loop
    vertex 75.30000011616225 56.14538846651983 137.4823623213797
    vertex 75.3000001161751 56.34518931152909 139.00000041158472
    vertex 75.3000001161751 56.34518931152909 137.00000041158472
  endloop
endfacet
facet normal -1.0 6.423813539944735e-11 -5.10961643271805e-26
  outer loop
    vertex 75.3000001161751 56.34518931152909 137.00000041158472
    vertex 75.3000001161751 56.34518931152909 139.00000041158472
    vertex 75.30000011619549 56.66302655672488 139.41421397395783
  endloop
endfacet
facet normal -1.0 6.423813539944735e-11 -5.10961643271805e-26
  outer loop
    vertex 75.3000001161751 56.34518931152909 137.00000041158472
    vertex 75.30000011619549 56.66302655672488 139.41421397395783
    vertex 75.30000011619549 56.66302655672488 136.58578684921164
  endloop
endfacet
facet normal -1.0 6.423813539944735e-11 -5.10961643271805e-26
  outer loop
    vertex 75.30000011619549 56.66302655672488 136.58578684921164
    vertex 75.30000011619549 56.66302655672488 139.41421397395783
    vertex 75.30000011622212 57.07724011909797 139.7320512191536
  endloop
endfacet
facet normal -1.0 6.423813539944735e-11 -5.10961643271805e-26
  outer loop
    vertex 75.30000011619549 56.66302655672488 136.58578684921164
    vertex 75.30000011622212 57.07724011909797 139.7320512191536
    vertex 75.30000011622212 57.07724011909797 136.26794960401585
  endloop
endfacet
facet normal -1.0 6.423813539944735e-11 -5.10961643271805e-26
  outer loop
    vertex 75.30000011622212 57.07724011909797 136.26794960401585
    vertex 75.30000011622212 57.07724011909797 139.7320512191536
    vertex 75.30000011625312 57.55960202889293 139.93185206416288
  endloop
endfacet
facet normal -1.0 6.423813539944735e-11 -5.10961643271805e-26
  outer loop
    vertex 75.30000011622212 57.07724011909797 136.26794960401585
    vertex 75.30000011625312 57.55960202889293 139.93185206416288
    vertex 75.30000011625312 57.559602028892925 136.06814875900662
  endloop
endfacet
facet normal -1.0 6.423813539944735e-11 -5.10961643271805e-26
  outer loop
    vertex 75.30000011625312 57.559602028892925 136.06814875900662
    vertex 75.30000011625312 57.55960202889293 139.93185206416288
    vertex 75.30000011628637 58.07724011909797 136.00000041158472
  endloop
endfacet
facet normal -1.0 6.423813539944735e-11 -5.10961643271805e-26
  outer loop
    vertex 75.30000011628637 58.07724011909797 136.00000041158472
    vertex 75.30000011625312 57.55960202889293 139.93185206416288
    vertex 75.30000011628637 58.07724011909797 140.00000041158472
  endloop
endfacet
facet normal -1.0 6.423813539944735e-11 -5.10961643271805e-26
  outer loop
    vertex 75.30000011628637 58.07724011909797 136.00000041158472
    vertex 75.30000011628637 58.07724011909797 140.00000041158472
    vertex 75.30000011631962 58.59487820930301 139.93185206416285
  endloop
endfacet
facet normal -1.0 6.423813539944735e-11 -5.10961643271805e-26
  outer loop
    vertex 75.30000011628637 58.07724011909797 136.00000041158472
    vertex 75.30000011631962 58.59487820930301 139.93185206416285
    vertex 75.30000011631962 58.59487820930301 136.0681487590066
  endloop
endfacet
facet normal -1.0 6.423813539944735e-11 -5.10961643271805e-26
  outer loop
    vertex 75.30000011631962 58.59487820930301 136.0681487590066
    vertex 75.30000011631962 58.59487820930301 139.93185206416285
    vertex 75.30000011635057 59.077240119097965 139.7320512191536
  endloop
endfacet
facet normal -1.0 6.423813539944735e-11 -5.10961643271805e-26
  outer loop
    vertex 75.30000011631962 58.59487820930301 136.0681487590066
    vertex 75.30000011635057 59.077240119097965 139.7320512191536
    vertex 75.30000011635057 59.077240119097965 136.26794960401585
  endloop
endfacet
facet normal -1.0 6.423813539944735e-11 -5.10961643271805e-26
  outer loop
    vertex 75.30000011635057 59.077240119097965 136.26794960401585
    vertex 75.30000011635057 59.077240119097965 139.7320512191536
    vertex 75.30000011637719 59.491453681471064 139.41421397395783
  endloop
endfacet
facet normal -1.0 6.423813539944735e-11 -5.10961643271805e-26
  outer loop
    vertex 75.30000011635057 59.077240119097965 136.26794960401585
    vertex 75.30000011637719 59.491453681471064 139.41421397395783
    vertex 75.30000011637719 59.49145368147106 136.58578684921164
  endloop
endfacet
facet normal -1.0 6.423813539944735e-11 -5.10961643271805e-26
  outer loop
    vertex 75.30000011637719 59.49145368147106 136.58578684921164
    vertex 75.30000011637719 59.491453681471064 139.41421397395783
    vertex 75.30000011639763 59.80929092666685 137.00000041158472
  endloop
endfacet
facet normal -1.0 6.423813539944735e-11 -5.10961643271805e-26
  outer loop
    vertex 75.30000011639763 59.80929092666685 137.00000041158472
    vertex 75.30000011637719 59.491453681471064 139.41421397395783
    vertex 75.30000011639763 59.80929092666685 139.00000041158472
  endloop
endfacet
facet normal -1.0 6.423813539944735e-11 -5.10961643271805e-26
  outer loop
    vertex 75.30000011639763 59.80929092666685 137.00000041158472
    vertex 75.30000011639763 59.80929092666685 139.00000041158472
    vertex 75.30000011641044 60.009091771676104 138.51763850178978
  endloop
endfacet
facet normal -1.0 6.423813539944735e-11 -5.10961643271805e-26
  outer loop
    vertex 75.30000011639763 59.80929092666685 137.00000041158472
    vertex 75.30000011641044 60.009091771676104 138.51763850178978
    vertex 75.30000011641044 60.009091771676104 137.4823623213797
  endloop
endfacet
facet normal -1.0 6.423813539944735e-11 -5.10961643271805e-26
  outer loop
    vertex 75.30000011641044 60.009091771676104 137.4823623213797
    vertex 75.30000011641044 60.009091771676104 138.51763850178978
    vertex 75.30000011641482 60.077240119097965 138.00000041158472
  endloop
endfacet
facet normal -2.4582870143396056e-11 -0.38268343236512276 0.9238795325112731
  outer loop
    vertex 75.30000011631962 58.59487820930301 136.0681487590066
    vertex 67.30000011635057 59.07724011961188 136.26794960401585
    vertex 67.30000011631962 58.594878209816926 136.0681487590066
  endloop
endfacet
facet normal -2.4582870143396056e-11 -0.38268343236512276 0.9238795325112731
  outer loop
    vertex 67.30000011635057 59.07724011961188 136.26794960401585
    vertex 75.30000011631962 58.59487820930301 136.0681487590066
    vertex 75.30000011635057 59.077240119097965 136.26794960401585
  endloop
endfacet
facet normal -3.910569910262257e-11 -0.6087614290087096 0.7933533402912437
  outer loop
    vertex 75.30000011635057 59.077240119097965 136.26794960401585
    vertex 67.30000011637719 59.491453681984964 136.58578684921164
    vertex 67.30000011635057 59.07724011961188 136.26794960401585
  endloop
endfacet
facet normal -3.910569910262257e-11 -0.6087614290087096 0.7933533402912437
  outer loop
    vertex 67.30000011637719 59.491453681984964 136.58578684921164
    vertex 75.30000011635057 59.077240119097965 136.26794960401585
    vertex 75.30000011637719 59.49145368147106 136.58578684921164
  endloop
endfacet
facet normal -5.096353929323195e-11 -0.793353340291231 0.6087614290087263
  outer loop
    vertex 75.30000011639763 59.80929092666685 137.00000041158472
    vertex 67.30000011637719 59.491453681984964 136.58578684921164
    vertex 75.30000011637719 59.49145368147106 136.58578684921164
  endloop
endfacet
facet normal -5.096353929323195e-11 -0.793353340291231 0.6087614290087263
  outer loop
    vertex 67.30000011637719 59.491453681984964 136.58578684921164
    vertex 75.30000011639763 59.80929092666685 137.00000041158472
    vertex 67.30000011639764 59.80929092718076 137.00000041158472
  endloop
endfacet
facet normal -5.934829850223828e-11 -0.9238795325112884 0.38268343236508595
  outer loop
    vertex 75.30000011641044 60.009091771676104 137.4823623213797
    vertex 67.30000011639764 59.80929092718076 137.00000041158472
    vertex 75.30000011639763 59.80929092666685 137.00000041158472
  endloop
endfacet
facet normal -5.934829850223828e-11 -0.9238795325112884 0.38268343236508595
  outer loop
    vertex 67.30000011639764 59.80929092718076 137.00000041158472
    vertex 75.30000011641044 60.009091771676104 137.4823623213797
    vertex 67.30000011641044 60.00909177219001 137.4823623213797
  endloop
endfacet
facet normal -6.368856924601716e-11 -0.9914448613738106 0.13052619222005077
  outer loop
    vertex 75.30000011641482 60.077240119097965 138.00000041158472
    vertex 67.30000011641044 60.00909177219001 137.4823623213797
    vertex 75.30000011641044 60.009091771676104 137.4823623213797
  endloop
endfacet
facet normal -6.368856924601716e-11 -0.9914448613738106 0.13052619222005077
  outer loop
    vertex 67.30000011641044 60.00909177219001 137.4823623213797
    vertex 75.30000011641482 60.077240119097965 138.00000041158472
    vertex 67.30000011641482 60.07724011961188 138.00000041158472
  endloop
endfacet
facet normal -6.368856924601713e-11 -0.9914448613738106 -0.13052619222005077
  outer loop
    vertex 75.30000011641044 60.009091771676104 138.51763850178978
    vertex 67.30000011641482 60.07724011961188 138.00000041158472
    vertex 75.30000011641482 60.077240119097965 138.00000041158472
  endloop
endfacet
facet normal -6.368856924601713e-11 -0.9914448613738106 -0.13052619222005077
  outer loop
    vertex 67.30000011641482 60.07724011961188 138.00000041158472
    vertex 75.30000011641044 60.009091771676104 138.51763850178978
    vertex 67.30000011641044 60.00909177219001 138.51763850178978
  endloop
endfacet
facet normal -5.934829850223824e-11 -0.9238795325112884 -0.38268343236508595
  outer loop
    vertex 75.30000011639763 59.80929092666685 139.00000041158472
    vertex 67.30000011641044 60.00909177219001 138.51763850178978
    vertex 75.30000011641044 60.009091771676104 138.51763850178978
  endloop
endfacet
facet normal -5.934829850223824e-11 -0.9238795325112884 -0.38268343236508595
  outer loop
    vertex 67.30000011641044 60.00909177219001 138.51763850178978
    vertex 75.30000011639763 59.80929092666685 139.00000041158472
    vertex 67.30000011639764 59.80929092718076 139.00000041158472
  endloop
endfacet
facet normal -5.096353929323256e-11 -0.7933533402912413 -0.6087614290087128
  outer loop
    vertex 75.30000011637719 59.491453681471064 139.41421397395783
    vertex 67.30000011639764 59.80929092718076 139.00000041158472
    vertex 75.30000011639763 59.80929092666685 139.00000041158472
  endloop
endfacet
facet normal -5.096353929323256e-11 -0.7933533402912413 -0.6087614290087128
  outer loop
    vertex 67.30000011639764 59.80929092718076 139.00000041158472
    vertex 75.30000011637719 59.491453681471064 139.41421397395783
    vertex 67.30000011637719 59.49145368198498 139.41421397395783
  endloop
endfacet
facet normal -3.910569910262183e-11 -0.6087614290086991 -0.7933533402912518
  outer loop
    vertex 67.30000011637719 59.49145368198498 139.41421397395783
    vertex 75.30000011635057 59.077240119097965 139.7320512191536
    vertex 67.30000011635057 59.07724011961188 139.7320512191536
  endloop
endfacet
facet normal -3.910569910262183e-11 -0.6087614290086991 -0.7933533402912518
  outer loop
    vertex 75.30000011635057 59.077240119097965 139.7320512191536
    vertex 67.30000011637719 59.49145368198498 139.41421397395783
    vertex 75.30000011637719 59.491453681471064 139.41421397395783
  endloop
endfacet
facet normal -2.4582870143393594e-11 -0.38268343236508595 -0.9238795325112884
  outer loop
    vertex 67.30000011635057 59.07724011961188 139.7320512191536
    vertex 75.30000011631962 58.59487820930301 139.93185206416285
    vertex 67.30000011631962 58.594878209816926 139.93185206416285
  endloop
endfacet
facet normal -2.4582870143393594e-11 -0.38268343236508595 -0.9238795325112884
  outer loop
    vertex 75.30000011631962 58.59487820930301 139.93185206416285
    vertex 67.30000011635057 59.07724011961188 139.7320512191536
    vertex 75.30000011635057 59.077240119097965 139.7320512191536
  endloop
endfacet
facet normal -8.384759209007225e-12 -0.13052619222007197 -0.9914448613738077
  outer loop
    vertex 67.30000011631962 58.594878209816926 139.93185206416285
    vertex 75.30000011628637 58.07724011909797 140.00000041158472
    vertex 67.30000011628637 58.07724011961188 140.00000041158472
  endloop
endfacet
facet normal -8.384759209007225e-12 -0.13052619222007197 -0.9914448613738077
  outer loop
    vertex 75.30000011628637 58.07724011909797 140.00000041158472
    vertex 67.30000011631962 58.594878209816926 139.93185206416285
    vertex 75.30000011631962 58.59487820930301 139.93185206416285
  endloop
endfacet
facet normal 8.384759209004777e-12 0.1305261922200323 -0.9914448613738129
  outer loop
    vertex 67.30000011628637 58.07724011961188 140.00000041158472
    vertex 75.30000011625312 57.55960202889293 139.93185206416288
    vertex 67.30000011625312 57.55960202940685 139.93185206416288
  endloop
endfacet
facet normal 8.384759209004777e-12 0.1305261922200323 -0.9914448613738129
  outer loop
    vertex 75.30000011625312 57.55960202889293 139.93185206416288
    vertex 67.30000011628637 58.07724011961188 140.00000041158472
    vertex 75.30000011628637 58.07724011909797 140.00000041158472
  endloop
endfacet
facet normal 2.4582870143395565e-11 0.3826834323651151 -0.9238795325112762
  outer loop
    vertex 67.30000011625312 57.55960202940685 139.93185206416288
    vertex 75.30000011622212 57.07724011909797 139.7320512191536
    vertex 67.30000011622212 57.07724011961188 139.7320512191536
  endloop
endfacet
facet normal 2.4582870143395565e-11 0.3826834323651151 -0.9238795325112762
  outer loop
    vertex 75.30000011622212 57.07724011909797 139.7320512191536
    vertex 67.30000011625312 57.55960202940685 139.93185206416288
    vertex 75.30000011625312 57.55960202889293 139.93185206416288
  endloop
endfacet
facet normal 3.910569910262257e-11 0.6087614290087096 -0.7933533402912437
  outer loop
    vertex 67.30000011622212 57.07724011961188 139.7320512191536
    vertex 75.30000011619549 56.66302655672488 139.41421397395783
    vertex 67.3000001161955 56.663026557238794 139.41421397395783
  endloop
endfacet
facet normal 3.910569910262257e-11 0.6087614290087096 -0.7933533402912437
  outer loop
    vertex 75.30000011619549 56.66302655672488 139.41421397395783
    vertex 67.30000011622212 57.07724011961188 139.7320512191536
    vertex 75.30000011622212 57.07724011909797 139.7320512191536
  endloop
endfacet
facet normal 5.096353929323195e-11 0.793353340291231 -0.6087614290087263
  outer loop
    vertex 67.3000001161955 56.663026557238794 139.41421397395783
    vertex 75.3000001161751 56.34518931152909 139.00000041158472
    vertex 67.30000011617511 56.345189312043004 139.00000041158472
  endloop
endfacet
facet normal 5.096353929323195e-11 0.793353340291231 -0.6087614290087263
  outer loop
    vertex 75.3000001161751 56.34518931152909 139.00000041158472
    vertex 67.3000001161955 56.663026557238794 139.41421397395783
    vertex 75.30000011619549 56.66302655672488 139.41421397395783
  endloop
endfacet
facet normal 5.934829850223828e-11 0.9238795325112884 -0.38268343236508595
  outer loop
    vertex 67.30000011617511 56.345189312043004 139.00000041158472
    vertex 75.30000011616225 56.14538846651983 138.51763850178978
    vertex 67.30000011616225 56.14538846703375 138.51763850178978
  endloop
endfacet
facet normal 5.934829850223828e-11 0.9238795325112884 -0.38268343236508595
  outer loop
    vertex 75.30000011616225 56.14538846651983 138.51763850178978
    vertex 67.30000011617511 56.345189312043004 139.00000041158472
    vertex 75.3000001161751 56.34518931152909 139.00000041158472
  endloop
endfacet
facet normal 6.368856924601716e-11 0.9914448613738106 -0.13052619222005077
  outer loop
    vertex 67.30000011616225 56.14538846703375 138.51763850178978
    vertex 75.30000011615788 56.07724011909797 138.00000041158472
    vertex 67.30000011615788 56.077240119611886 138.00000041158472
  endloop
endfacet
facet normal 6.368856924601716e-11 0.9914448613738106 -0.13052619222005077
  outer loop
    vertex 75.30000011615788 56.07724011909797 138.00000041158472
    vertex 67.30000011616225 56.14538846703375 138.51763850178978
    vertex 75.30000011616225 56.14538846651983 138.51763850178978
  endloop
endfacet
facet normal 6.368856924601713e-11 0.9914448613738106 0.13052619222005077
  outer loop
    vertex 67.30000011615788 56.077240119611886 138.00000041158472
    vertex 75.30000011616225 56.14538846651983 137.4823623213797
    vertex 67.30000011616225 56.14538846703375 137.4823623213797
  endloop
endfacet
facet normal 6.368856924601713e-11 0.9914448613738106 0.13052619222005077
  outer loop
    vertex 75.30000011616225 56.14538846651983 137.4823623213797
    vertex 67.30000011615788 56.077240119611886 138.00000041158472
    vertex 75.30000011615788 56.07724011909797 138.00000041158472
  endloop
endfacet
facet normal 5.934829850223824e-11 0.9238795325112884 0.38268343236508595
  outer loop
    vertex 67.30000011616225 56.14538846703375 137.4823623213797
    vertex 75.3000001161751 56.34518931152909 137.00000041158472
    vertex 67.30000011617511 56.345189312043004 137.00000041158472
  endloop
endfacet
facet normal 5.934829850223824e-11 0.9238795325112884 0.38268343236508595
  outer loop
    vertex 75.3000001161751 56.34518931152909 137.00000041158472
    vertex 67.30000011616225 56.14538846703375 137.4823623213797
    vertex 75.30000011616225 56.14538846651983 137.4823623213797
  endloop
endfacet
facet normal 5.0963539293231894e-11 0.793353340291231 0.6087614290087263
  outer loop
    vertex 67.30000011617511 56.345189312043004 137.00000041158472
    vertex 75.30000011619549 56.66302655672488 136.58578684921164
    vertex 67.3000001161955 56.663026557238794 136.58578684921164
  endloop
endfacet
facet normal 5.0963539293231894e-11 0.793353340291231 0.6087614290087263
  outer loop
    vertex 75.30000011619549 56.66302655672488 136.58578684921164
    vertex 67.30000011617511 56.345189312043004 137.00000041158472
    vertex 75.3000001161751 56.34518931152909 137.00000041158472
  endloop
endfacet
facet normal 3.9105699102622495e-11 0.6087614290087096 0.7933533402912437
  outer loop
    vertex 75.30000011619549 56.66302655672488 136.58578684921164
    vertex 67.30000011622212 57.07724011961188 136.26794960401585
    vertex 67.3000001161955 56.663026557238794 136.58578684921164
  endloop
endfacet
facet normal 3.9105699102622495e-11 0.6087614290087096 0.7933533402912437
  outer loop
    vertex 67.30000011622212 57.07724011961188 136.26794960401585
    vertex 75.30000011619549 56.66302655672488 136.58578684921164
    vertex 75.30000011622212 57.07724011909797 136.26794960401585
  endloop
endfacet
facet normal 2.4582870143393594e-11 0.38268343236508595 0.9238795325112884
  outer loop
    vertex 75.30000011622212 57.07724011909797 136.26794960401585
    vertex 67.30000011625312 57.55960202940683 136.06814875900662
    vertex 67.30000011622212 57.07724011961188 136.26794960401585
  endloop
endfacet
facet normal 2.4582870143393594e-11 0.38268343236508595 0.9238795325112884
  outer loop
    vertex 67.30000011625312 57.55960202940683 136.06814875900662
    vertex 75.30000011622212 57.07724011909797 136.26794960401585
    vertex 75.30000011625312 57.559602028892925 136.06814875900662
  endloop
endfacet
facet normal 8.384759209007225e-12 0.13052619222007197 0.9914448613738077
  outer loop
    vertex 75.30000011625312 57.559602028892925 136.06814875900662
    vertex 67.30000011628637 58.07724011961188 136.00000041158472
    vertex 67.30000011625312 57.55960202940683 136.06814875900662
  endloop
endfacet
facet normal 8.384759209007225e-12 0.13052619222007197 0.9914448613738077
  outer loop
    vertex 67.30000011628637 58.07724011961188 136.00000041158472
    vertex 75.30000011625312 57.559602028892925 136.06814875900662
    vertex 75.30000011628637 58.07724011909797 136.00000041158472
  endloop
endfacet
facet normal -8.384759209004598e-12 -0.13052619222002954 0.9914448613738135
  outer loop
    vertex 75.30000011628637 58.07724011909797 136.00000041158472
    vertex 67.30000011631962 58.594878209816926 136.0681487590066
    vertex 67.30000011628637 58.07724011961188 136.00000041158472
  endloop
endfacet
facet normal -8.384759209004598e-12 -0.13052619222002954 0.9914448613738135
  outer loop
    vertex 67.30000011631962 58.594878209816926 136.0681487590066
    vertex 75.30000011628637 58.07724011909797 136.00000041158472
    vertex 75.30000011631962 58.59487820930301 136.0681487590066
  endloop
endfacet
facet normal 1.0 -6.423907538827485e-11 4.9884925004858763e-26
  outer loop
    vertex 104.20862959717842 56.14538846754761 137.4823623213797
    vertex 104.20862959717842 56.14538846754761 138.51763850178978
    vertex 104.20862959717404 56.07724012012575 138.00000041158472
  endloop
endfacet
facet normal 1.0 -6.423907538827485e-11 4.9884925004858763e-26
  outer loop
    vertex 104.20862959717842 56.14538846754761 138.51763850178978
    vertex 104.20862959717842 56.14538846754761 137.4823623213797
    vertex 104.20862959719125 56.34518931255687 137.00000041158472
  endloop
endfacet
facet normal 1.0 -6.423907538827485e-11 4.9884925004858763e-26
  outer loop
    vertex 104.20862959717842 56.14538846754761 138.51763850178978
    vertex 104.20862959719125 56.34518931255687 137.00000041158472
    vertex 104.20862959719125 56.34518931255687 139.00000041158472
  endloop
endfacet
facet normal 1.0 -6.423907538827485e-11 4.9884925004858763e-26
  outer loop
    vertex 104.20862959719125 56.34518931255687 139.00000041158472
    vertex 104.20862959719125 56.34518931255687 137.00000041158472
    vertex 104.20862959721167 56.66302655775266 136.58578684921164
  endloop
endfacet
facet normal 1.0 -6.423907538827485e-11 4.9884925004858763e-26
  outer loop
    vertex 104.20862959719125 56.34518931255687 139.00000041158472
    vertex 104.20862959721167 56.66302655775266 136.58578684921164
    vertex 104.20862959721167 56.66302655775266 139.41421397395783
  endloop
endfacet
facet normal 1.0 -6.423907538827485e-11 4.9884925004858763e-26
  outer loop
    vertex 104.20862959721167 56.66302655775266 139.41421397395783
    vertex 104.20862959721167 56.66302655775266 136.58578684921164
    vertex 104.20862959723829 57.07724012012575 136.26794960401585
  endloop
endfacet
facet normal 1.0 -6.423907538827485e-11 4.9884925004858763e-26
  outer loop
    vertex 104.20862959721167 56.66302655775266 139.41421397395783
    vertex 104.20862959723829 57.07724012012575 136.26794960401585
    vertex 104.20862959723829 57.07724012012575 139.7320512191536
  endloop
endfacet
facet normal 1.0 -6.423907538827485e-11 4.9884925004858763e-26
  outer loop
    vertex 104.20862959723829 57.07724012012575 139.7320512191536
    vertex 104.20862959723829 57.07724012012575 136.26794960401585
    vertex 104.20862959726927 57.5596020299207 136.06814875900662
  endloop
endfacet
facet normal 1.0 -6.423907538827485e-11 4.9884925004858763e-26
  outer loop
    vertex 104.20862959723829 57.07724012012575 139.7320512191536
    vertex 104.20862959726927 57.5596020299207 136.06814875900662
    vertex 104.20862959726927 57.55960202992071 139.93185206416288
  endloop
endfacet
facet normal 1.0 -6.423907538827485e-11 4.9884925004858763e-26
  outer loop
    vertex 104.20862959726927 57.55960202992071 139.93185206416288
    vertex 104.20862959726927 57.5596020299207 136.06814875900662
    vertex 104.20862959730252 58.077240120125744 136.00000041158472
  endloop
endfacet
facet normal 1.0 -6.423907538827485e-11 4.9884925004858763e-26
  outer loop
    vertex 104.20862959726927 57.55960202992071 139.93185206416288
    vertex 104.20862959730252 58.077240120125744 136.00000041158472
    vertex 104.20862959730252 58.077240120125744 140.00000041158472
  endloop
endfacet
facet normal 1.0 -6.423907538827485e-11 4.9884925004858763e-26
  outer loop
    vertex 104.20862959730252 58.077240120125744 140.00000041158472
    vertex 104.20862959730252 58.077240120125744 136.00000041158472
    vertex 104.20862959733577 58.59487821033079 136.0681487590066
  endloop
endfacet
facet normal 1.0 -6.423907538827485e-11 4.9884925004858763e-26
  outer loop
    vertex 104.20862959730252 58.077240120125744 140.00000041158472
    vertex 104.20862959733577 58.59487821033079 136.0681487590066
    vertex 104.20862959733577 58.59487821033079 139.93185206416285
  endloop
endfacet
facet normal 1.0 -6.423907538827485e-11 4.9884925004858763e-26
  outer loop
    vertex 104.20862959733577 58.59487821033079 139.93185206416285
    vertex 104.20862959733577 58.59487821033079 136.0681487590066
    vertex 104.20862959736677 59.077240120125744 136.26794960401585
  endloop
endfacet
facet normal 1.0 -6.423907538827485e-11 4.9884925004858763e-26
  outer loop
    vertex 104.20862959733577 58.59487821033079 139.93185206416285
    vertex 104.20862959736677 59.077240120125744 136.26794960401585
    vertex 104.20862959736677 59.077240120125744 139.7320512191536
  endloop
endfacet
facet normal 1.0 -6.423907538827485e-11 4.9884925004858763e-26
  outer loop
    vertex 104.20862959736677 59.077240120125744 139.7320512191536
    vertex 104.20862959736677 59.077240120125744 136.26794960401585
    vertex 104.20862959739337 59.491453682498836 136.58578684921164
  endloop
endfacet
facet normal 1.0 -6.423907538827485e-11 4.9884925004858763e-26
  outer loop
    vertex 104.20862959736677 59.077240120125744 139.7320512191536
    vertex 104.20862959739337 59.491453682498836 136.58578684921164
    vertex 104.20862959739337 59.49145368249884 139.41421397395783
  endloop
endfacet
facet normal 1.0 -6.423907538827485e-11 4.9884925004858763e-26
  outer loop
    vertex 104.20862959739337 59.49145368249884 139.41421397395783
    vertex 104.20862959739337 59.491453682498836 136.58578684921164
    vertex 104.20862959741378 59.809290927694626 137.00000041158472
  endloop
endfacet
facet normal 1.0 -6.423907538827485e-11 4.9884925004858763e-26
  outer loop
    vertex 104.20862959739337 59.49145368249884 139.41421397395783
    vertex 104.20862959741378 59.809290927694626 137.00000041158472
    vertex 104.20862959741378 59.809290927694626 139.00000041158472
  endloop
endfacet
facet normal 1.0 -6.423907538827485e-11 4.9884925004858763e-26
  outer loop
    vertex 104.20862959741378 59.809290927694626 139.00000041158472
    vertex 104.20862959741378 59.809290927694626 137.00000041158472
    vertex 104.20862959742661 60.009091772703876 137.4823623213797
  endloop
endfacet
facet normal 1.0 -6.423907538827485e-11 4.9884925004858763e-26
  outer loop
    vertex 104.20862959741378 59.809290927694626 139.00000041158472
    vertex 104.20862959742661 60.009091772703876 137.4823623213797
    vertex 104.20862959742661 60.009091772703876 138.51763850178978
  endloop
endfacet
facet normal 1.0 -6.423907538827485e-11 4.9884925004858763e-26
  outer loop
    vertex 104.20862959742661 60.009091772703876 138.51763850178978
    vertex 104.20862959742661 60.009091772703876 137.4823623213797
    vertex 104.20862959743098 60.077240120125744 138.00000041158472
  endloop
endfacet
facet normal 8.384881902169609e-12 0.13052619222007197 0.9914448613738077
  outer loop
    vertex 112.20862959726927 57.55960202940679 136.06814875900662
    vertex 104.20862959730252 58.077240120125744 136.00000041158472
    vertex 104.20862959726927 57.5596020299207 136.06814875900662
  endloop
endfacet
facet normal 8.384881902169609e-12 0.13052619222007197 0.9914448613738077
  outer loop
    vertex 104.20862959730252 58.077240120125744 136.00000041158472
    vertex 112.20862959726927 57.55960202940679 136.06814875900662
    vertex 112.20862959730252 58.07724011961184 136.00000041158472
  endloop
endfacet
facet normal 2.458322986154449e-11 0.38268343236508595 0.9238795325112884
  outer loop
    vertex 112.2086295972383 57.07724011961184 136.26794960401585
    vertex 104.20862959726927 57.5596020299207 136.06814875900662
    vertex 104.20862959723829 57.07724012012575 136.26794960401585
  endloop
endfacet
facet normal 2.458322986154449e-11 0.38268343236508595 0.9238795325112884
  outer loop
    vertex 104.20862959726927 57.5596020299207 136.06814875900662
    vertex 112.2086295972383 57.07724011961184 136.26794960401585
    vertex 112.20862959726927 57.55960202940679 136.06814875900662
  endloop
endfacet
facet normal 3.9106271331564376e-11 0.6087614290087096 0.7933533402912437
  outer loop
    vertex 112.20862959721167 56.663026557238744 136.58578684921164
    vertex 104.20862959723829 57.07724012012575 136.26794960401585
    vertex 104.20862959721167 56.66302655775266 136.58578684921164
  endloop
endfacet
facet normal 3.9106271331564376e-11 0.6087614290087096 0.7933533402912437
  outer loop
    vertex 104.20862959723829 57.07724012012575 136.26794960401585
    vertex 112.20862959721167 56.663026557238744 136.58578684921164
    vertex 112.2086295972383 57.07724011961184 136.26794960401585
  endloop
endfacet
facet normal 5.0964285036508026e-11 0.793353340291231 0.6087614290087263
  outer loop
    vertex 104.20862959719125 56.34518931255687 137.00000041158472
    vertex 112.20862959721167 56.663026557238744 136.58578684921164
    vertex 104.20862959721167 56.66302655775266 136.58578684921164
  endloop
endfacet
facet normal 5.0964285036508026e-11 0.793353340291231 0.6087614290087263
  outer loop
    vertex 112.20862959721167 56.663026557238744 136.58578684921164
    vertex 104.20862959719125 56.34518931255687 137.00000041158472
    vertex 112.20862959719126 56.345189312042955 137.00000041158472
  endloop
endfacet
facet normal 5.934916693867676e-11 0.9238795325112884 0.38268343236508595
  outer loop
    vertex 104.20862959717842 56.14538846754761 137.4823623213797
    vertex 112.20862959719126 56.345189312042955 137.00000041158472
    vertex 104.20862959719125 56.34518931255687 137.00000041158472
  endloop
endfacet
facet normal 5.934916693867676e-11 0.9238795325112884 0.38268343236508595
  outer loop
    vertex 112.20862959719126 56.345189312042955 137.00000041158472
    vertex 104.20862959717842 56.14538846754761 137.4823623213797
    vertex 112.20862959717842 56.145388467033705 137.4823623213797
  endloop
endfacet
facet normal 6.368950119310992e-11 0.9914448613738106 0.13052619222005077
  outer loop
    vertex 104.20862959717404 56.07724012012575 138.00000041158472
    vertex 112.20862959717842 56.145388467033705 137.4823623213797
    vertex 104.20862959717842 56.14538846754761 137.4823623213797
  endloop
endfacet
facet normal 6.368950119310992e-11 0.9914448613738106 0.13052619222005077
  outer loop
    vertex 112.20862959717842 56.145388467033705 137.4823623213797
    vertex 104.20862959717404 56.07724012012575 138.00000041158472
    vertex 112.20862959717404 56.07724011961184 138.00000041158472
  endloop
endfacet
facet normal 6.368950119310995e-11 0.9914448613738106 -0.13052619222005077
  outer loop
    vertex 104.20862959717842 56.14538846754761 138.51763850178978
    vertex 112.20862959717404 56.07724011961184 138.00000041158472
    vertex 104.20862959717404 56.07724012012575 138.00000041158472
  endloop
endfacet
facet normal 6.368950119310995e-11 0.9914448613738106 -0.13052619222005077
  outer loop
    vertex 112.20862959717404 56.07724011961184 138.00000041158472
    vertex 104.20862959717842 56.14538846754761 138.51763850178978
    vertex 112.20862959717842 56.145388467033705 138.51763850178978
  endloop
endfacet
facet normal 5.93491669386768e-11 0.9238795325112884 -0.38268343236508595
  outer loop
    vertex 104.20862959719125 56.34518931255687 139.00000041158472
    vertex 112.20862959717842 56.145388467033705 138.51763850178978
    vertex 104.20862959717842 56.14538846754761 138.51763850178978
  endloop
endfacet
facet normal 5.93491669386768e-11 0.9238795325112884 -0.38268343236508595
  outer loop
    vertex 112.20862959717842 56.145388467033705 138.51763850178978
    vertex 104.20862959719125 56.34518931255687 139.00000041158472
    vertex 112.20862959719126 56.345189312042955 139.00000041158472
  endloop
endfacet
facet normal 5.0964285036508084e-11 0.793353340291231 -0.6087614290087263
  outer loop
    vertex 104.20862959721167 56.66302655775266 139.41421397395783
    vertex 112.20862959719126 56.345189312042955 139.00000041158472
    vertex 104.20862959719125 56.34518931255687 139.00000041158472
  endloop
endfacet
facet normal 5.0964285036508084e-11 0.793353340291231 -0.6087614290087263
  outer loop
    vertex 112.20862959719126 56.345189312042955 139.00000041158472
    vertex 104.20862959721167 56.66302655775266 139.41421397395783
    vertex 112.20862959721167 56.663026557238744 139.41421397395783
  endloop
endfacet
facet normal 3.910627133156446e-11 0.6087614290087096 -0.7933533402912437
  outer loop
    vertex 104.20862959723829 57.07724012012575 139.7320512191536
    vertex 112.20862959721167 56.663026557238744 139.41421397395783
    vertex 104.20862959721167 56.66302655775266 139.41421397395783
  endloop
endfacet
facet normal 3.910627133156446e-11 0.6087614290087096 -0.7933533402912437
  outer loop
    vertex 112.20862959721167 56.663026557238744 139.41421397395783
    vertex 104.20862959723829 57.07724012012575 139.7320512191536
    vertex 112.2086295972383 57.07724011961184 139.7320512191536
  endloop
endfacet
facet normal 2.4583229861546455e-11 0.3826834323651151 -0.9238795325112762
  outer loop
    vertex 104.20862959726927 57.55960202992071 139.93185206416288
    vertex 112.2086295972383 57.07724011961184 139.7320512191536
    vertex 104.20862959723829 57.07724012012575 139.7320512191536
  endloop
endfacet
facet normal 2.4583229861546455e-11 0.3826834323651151 -0.9238795325112762
  outer loop
    vertex 112.2086295972383 57.07724011961184 139.7320512191536
    vertex 104.20862959726927 57.55960202992071 139.93185206416288
    vertex 112.20862959726927 57.559602029406804 139.93185206416288
  endloop
endfacet
facet normal 8.384881902167158e-12 0.1305261922200323 -0.9914448613738129
  outer loop
    vertex 104.20862959730252 58.077240120125744 140.00000041158472
    vertex 112.20862959726927 57.559602029406804 139.93185206416288
    vertex 104.20862959726927 57.55960202992071 139.93185206416288
  endloop
endfacet
facet normal 8.384881902167158e-12 0.1305261922200323 -0.9914448613738129
  outer loop
    vertex 112.20862959726927 57.559602029406804 139.93185206416288
    vertex 104.20862959730252 58.077240120125744 140.00000041158472
    vertex 112.20862959730252 58.07724011961184 140.00000041158472
  endloop
endfacet
facet normal -8.384881902169609e-12 -0.13052619222007197 -0.9914448613738077
  outer loop
    vertex 104.20862959733577 58.59487821033079 139.93185206416285
    vertex 112.20862959730252 58.07724011961184 140.00000041158472
    vertex 104.20862959730252 58.077240120125744 140.00000041158472
  endloop
endfacet
facet normal -8.384881902169609e-12 -0.13052619222007197 -0.9914448613738077
  outer loop
    vertex 112.20862959730252 58.07724011961184 140.00000041158472
    vertex 104.20862959733577 58.59487821033079 139.93185206416285
    vertex 112.20862959733577 58.59487820981688 139.93185206416285
  endloop
endfacet
facet normal -2.458322986154449e-11 -0.38268343236508595 -0.9238795325112884
  outer loop
    vertex 104.20862959736677 59.077240120125744 139.7320512191536
    vertex 112.20862959733577 58.59487820981688 139.93185206416285
    vertex 104.20862959733577 58.59487821033079 139.93185206416285
  endloop
endfacet
facet normal -2.458322986154449e-11 -0.38268343236508595 -0.9238795325112884
  outer loop
    vertex 112.20862959733577 58.59487820981688 139.93185206416285
    vertex 104.20862959736677 59.077240120125744 139.7320512191536
    vertex 112.20862959736677 59.07724011961183 139.7320512191536
  endloop
endfacet
facet normal -3.910627133156371e-11 -0.6087614290086991 -0.7933533402912518
  outer loop
    vertex 104.20862959739337 59.49145368249884 139.41421397395783
    vertex 112.20862959736677 59.07724011961183 139.7320512191536
    vertex 104.20862959736677 59.077240120125744 139.7320512191536
  endloop
endfacet
facet normal -3.910627133156371e-11 -0.6087614290086991 -0.7933533402912518
  outer loop
    vertex 112.20862959736677 59.07724011961183 139.7320512191536
    vertex 104.20862959739337 59.49145368249884 139.41421397395783
    vertex 112.20862959739337 59.491453681984936 139.41421397395783
  endloop
endfacet
facet normal -5.096428503650869e-11 -0.7933533402912413 -0.6087614290087128
  outer loop
    vertex 112.20862959739337 59.491453681984936 139.41421397395783
    vertex 104.20862959741378 59.809290927694626 139.00000041158472
    vertex 112.20862959741379 59.80929092718071 139.00000041158472
  endloop
endfacet
facet normal -5.096428503650869e-11 -0.7933533402912413 -0.6087614290087128
  outer loop
    vertex 104.20862959741378 59.809290927694626 139.00000041158472
    vertex 112.20862959739337 59.491453681984936 139.41421397395783
    vertex 104.20862959739337 59.49145368249884 139.41421397395783
  endloop
endfacet
facet normal -5.934916693867676e-11 -0.9238795325112884 -0.38268343236508595
  outer loop
    vertex 112.20862959741379 59.80929092718071 139.00000041158472
    vertex 104.20862959742661 60.009091772703876 138.51763850178978
    vertex 112.20862959742662 60.00909177218997 138.51763850178978
  endloop
endfacet
facet normal -5.934916693867676e-11 -0.9238795325112884 -0.38268343236508595
  outer loop
    vertex 104.20862959742661 60.009091772703876 138.51763850178978
    vertex 112.20862959741379 59.80929092718071 139.00000041158472
    vertex 104.20862959741378 59.809290927694626 139.00000041158472
  endloop
endfacet
facet normal -6.368950119310992e-11 -0.9914448613738106 -0.13052619222005077
  outer loop
    vertex 112.20862959742662 60.00909177218997 138.51763850178978
    vertex 104.20862959743098 60.077240120125744 138.00000041158472
    vertex 112.208629597431 60.07724011961183 138.00000041158472
  endloop
endfacet
facet normal -6.368950119310992e-11 -0.9914448613738106 -0.13052619222005077
  outer loop
    vertex 104.20862959743098 60.077240120125744 138.00000041158472
    vertex 112.20862959742662 60.00909177218997 138.51763850178978
    vertex 104.20862959742661 60.009091772703876 138.51763850178978
  endloop
endfacet
facet normal -6.368950119310995e-11 -0.9914448613738106 0.13052619222005077
  outer loop
    vertex 112.208629597431 60.07724011961183 138.00000041158472
    vertex 104.20862959742661 60.009091772703876 137.4823623213797
    vertex 112.20862959742662 60.00909177218997 137.4823623213797
  endloop
endfacet
facet normal -6.368950119310995e-11 -0.9914448613738106 0.13052619222005077
  outer loop
    vertex 104.20862959742661 60.009091772703876 137.4823623213797
    vertex 112.208629597431 60.07724011961183 138.00000041158472
    vertex 104.20862959743098 60.077240120125744 138.00000041158472
  endloop
endfacet
facet normal -5.93491669386768e-11 -0.9238795325112884 0.38268343236508595
  outer loop
    vertex 112.20862959742662 60.00909177218997 137.4823623213797
    vertex 104.20862959741378 59.809290927694626 137.00000041158472
    vertex 112.20862959741379 59.80929092718071 137.00000041158472
  endloop
endfacet
facet normal -5.93491669386768e-11 -0.9238795325112884 0.38268343236508595
  outer loop
    vertex 104.20862959741378 59.809290927694626 137.00000041158472
    vertex 112.20862959742662 60.00909177218997 137.4823623213797
    vertex 104.20862959742661 60.009091772703876 137.4823623213797
  endloop
endfacet
facet normal -5.0964285036508084e-11 -0.793353340291231 0.6087614290087263
  outer loop
    vertex 112.20862959741379 59.80929092718071 137.00000041158472
    vertex 104.20862959739337 59.491453682498836 136.58578684921164
    vertex 112.20862959739337 59.49145368198492 136.58578684921164
  endloop
endfacet
facet normal -5.0964285036508084e-11 -0.793353340291231 0.6087614290087263
  outer loop
    vertex 104.20862959739337 59.491453682498836 136.58578684921164
    vertex 112.20862959741379 59.80929092718071 137.00000041158472
    vertex 104.20862959741378 59.809290927694626 137.00000041158472
  endloop
endfacet
facet normal -3.910627133156446e-11 -0.6087614290087096 0.7933533402912437
  outer loop
    vertex 112.20862959736677 59.07724011961183 136.26794960401585
    vertex 104.20862959739337 59.491453682498836 136.58578684921164
    vertex 104.20862959736677 59.077240120125744 136.26794960401585
  endloop
endfacet
facet normal -3.910627133156446e-11 -0.6087614290087096 0.7933533402912437
  outer loop
    vertex 104.20862959739337 59.491453682498836 136.58578684921164
    vertex 112.20862959736677 59.07724011961183 136.26794960401585
    vertex 112.20862959739337 59.49145368198492 136.58578684921164
  endloop
endfacet
facet normal -2.4583229861546946e-11 -0.38268343236512276 0.9238795325112731
  outer loop
    vertex 112.20862959733577 58.59487820981688 136.0681487590066
    vertex 104.20862959736677 59.077240120125744 136.26794960401585
    vertex 104.20862959733577 58.59487821033079 136.0681487590066
  endloop
endfacet
facet normal -2.4583229861546946e-11 -0.38268343236512276 0.9238795325112731
  outer loop
    vertex 104.20862959736677 59.077240120125744 136.26794960401585
    vertex 112.20862959733577 58.59487820981688 136.0681487590066
    vertex 112.20862959736677 59.07724011961183 136.26794960401585
  endloop
endfacet
facet normal -8.384881902166979e-12 -0.13052619222002954 0.9914448613738135
  outer loop
    vertex 112.20862959730252 58.07724011961184 136.00000041158472
    vertex 104.20862959733577 58.59487821033079 136.0681487590066
    vertex 104.20862959730252 58.077240120125744 136.00000041158472
  endloop
endfacet
facet normal -8.384881902166979e-12 -0.13052619222002954 0.9914448613738135
  outer loop
    vertex 104.20862959733577 58.59487821033079 136.0681487590066
    vertex 112.20862959730252 58.07724011961184 136.00000041158472
    vertex 112.20862959733577 58.59487820981688 136.0681487590066
  endloop
endfacet
facet normal 0.26024931402681695 -1.1178458412366752e-09 0.965541451491634
  outer loop
    vertex 89.98663586037122 53.37724001718501 139.6956523005969
    vertex 71.20000064781851 62.777240060177476 144.7593488719814
    vertex 71.20000064719812 53.377240017184896 144.7593488612757
  endloop
endfacet
facet normal 0.26024931402681695 -1.1178458412366752e-09 0.965541451491634
  outer loop
    vertex 71.20000064781851 62.777240060177476 144.7593488719814
    vertex 89.98663586037122 53.37724001718501 139.6956523005969
    vertex 89.98663586106305 62.77724006017822 139.69565231130386
  endloop
endfacet
facet normal -6.966638128654277e-18 -9.139883323713386e-10 1.0
  outer loop
    vertex 71.20000064719812 53.37724004691181 147.00000040321777
    vertex 67.3000001165883 62.77724011963114 147.00000041180928
    vertex 67.30000011598445 53.37724007663854 147.00000040321777
  endloop
endfacet
facet normal -6.966638128654277e-18 -9.139883323713386e-10 1.0
  outer loop
    vertex 67.3000001165883 62.77724011963114 147.00000041180928
    vertex 71.20000064719812 53.37724004691181 147.00000040321777
    vertex 71.20000064781851 62.777240089904396 147.00000041180928
  endloop
endfacet
facet normal 1.0 -6.599801526140234e-11 8.756012536994518e-19
  outer loop
    vertex 71.20000064781851 62.777240060177476 144.7593488719814
    vertex 71.20000064719812 53.37724004691181 147.00000040321777
    vertex 71.20000064719812 53.377240017184896 144.7593488612757
  endloop
endfacet
facet normal 1.0 -6.599801526140234e-11 8.756012536994518e-19
  outer loop
    vertex 71.20000064719812 53.37724004691181 147.00000040321777
    vertex 71.20000064781851 62.777240060177476 144.7593488719814
    vertex 71.20000064781851 62.777240089904396 147.00000041180928
  endloop
endfacet
facet normal 8.37585073663348e-11 1.0 9.913144094464019e-10
  outer loop
    vertex 67.3000001165883 62.77724011963114 132.00000041180928
    vertex 71.20000064781851 62.777240060177476 144.7593488719814
    vertex 112.20862959760449 62.77724011963114 132.0000004183851
  endloop
endfacet
facet normal 8.37585073663348e-11 1.0 9.913144094464019e-10
  outer loop
    vertex 71.20000064781851 62.777240060177476 144.7593488719814
    vertex 67.3000001165883 62.77724011963114 132.00000041180928
    vertex 67.3000001165883 62.77724011963114 147.00000041180928
  endloop
endfacet
facet normal 8.37585073663348e-11 1.0 9.913144094464019e-10
  outer loop
    vertex 112.20862959760449 62.77724011963114 132.0000004183851
    vertex 71.20000064781851 62.777240060177476 144.7593488719814
    vertex 89.98663586106305 62.77724006017822 139.69565231130386
  endloop
endfacet
facet normal 8.37585073663348e-11 1.0 9.913144094464019e-10
  outer loop
    vertex 71.20000064781851 62.777240060177476 144.7593488719814
    vertex 67.3000001165883 62.77724011963114 147.00000041180928
    vertex 71.20000064781851 62.777240089904396 147.00000041180928
  endloop
endfacet
facet normal 8.37585073663348e-11 1.0 9.913144094464019e-10
  outer loop
    vertex 112.20862959760449 62.77724011963114 132.0000004183851
    vertex 98.53579957302512 62.777240060177796 141.74756995822406
    vertex 112.20862959760449 62.77724011963114 147.00000041180928
  endloop
endfacet
facet normal 8.37585073663348e-11 1.0 9.913144094464019e-10
  outer loop
    vertex 98.53579957302512 62.777240060177796 141.74756995822406
    vertex 112.20862959760449 62.77724011963114 132.0000004183851
    vertex 94.41919924896587 62.77724006017824 140.2188348834293
  endloop
endfacet
facet normal 8.37585073663348e-11 1.0 9.913144094464019e-10
  outer loop
    vertex 94.41919924896587 62.77724006017824 140.2188348834293
    vertex 112.20862959760449 62.77724011963114 132.0000004183851
    vertex 89.98663586106305 62.77724006017822 139.69565231130386
  endloop
endfacet
facet normal 8.37585073663348e-11 1.0 9.913144094464019e-10
  outer loop
    vertex 112.20862959760449 62.77724011963114 147.00000041180928
    vertex 98.53579957302512 62.777240060177796 141.74756995822406
    vertex 102.07080441178265 62.77724006017822 144.17943627417702
  endloop
endfacet
facet normal 8.37585073663348e-11 1.0 9.913144094464019e-10
  outer loop
    vertex 112.20862959760449 62.77724011963114 147.00000041180928
    vertex 102.07080441178265 62.77724006017822 144.17943627417702
    vertex 104.48485986169854 62.77724008990446 147.00000041180888
  endloop
endfacet
facet normal -0.34812891514481586 -9.683450043660331e-10 0.9374466696511827
  outer loop
    vertex 98.53579957260506 53.37724001718458 141.7475699486295
    vertex 94.41919924896587 62.77724006017824 140.2188348834293
    vertex 94.41919924847748 53.37724001718503 140.2188348732669
  endloop
endfacet
facet normal -0.34812891514481586 -9.683450043660331e-10 0.9374466696511827
  outer loop
    vertex 94.41919924896587 62.77724006017824 140.2188348834293
    vertex 98.53579957260506 53.37724001718458 141.7475699486295
    vertex 98.53579957302512 62.777240060177796 141.74756995822406
  endloop
endfacet
facet normal -0.7597316682301384 -5.628224400930678e-10 0.650236720193693
  outer loop
    vertex 104.48485986102516 53.37724004691125 147.00000040321638
    vertex 102.07080441178265 62.77724006017822 144.17943627417702
    vertex 102.07080441129197 53.37724001718501 144.17943626513681
  endloop
endfacet
facet normal -0.7597316682301384 -5.628224400930678e-10 0.650236720193693
  outer loop
    vertex 102.07080441178265 62.77724006017822 144.17943627417702
    vertex 104.48485986102516 53.37724004691125 147.00000040321638
    vertex 104.48485986169854 62.77724008990446 147.00000041180888
  endloop
endfacet
facet normal -1.153688247095839e-13 -9.140423317292296e-10 1.0
  outer loop
    vertex 112.20862959700061 53.37724007663854 147.00000040321777
    vertex 104.48485986169854 62.77724008990446 147.00000041180888
    vertex 104.48485986102516 53.37724004691125 147.00000040321638
  endloop
endfacet
facet normal -1.153688247095839e-13 -9.140423317292296e-10 1.0
  outer loop
    vertex 104.48485986169854 62.77724008990446 147.00000041180888
    vertex 112.20862959700061 53.37724007663854 147.00000040321777
    vertex 112.20862959760449 62.77724011963114 147.00000041180928
  endloop
endfacet
facet normal -8.37663759403974e-11 -1.0 -9.913205123530725e-10
  outer loop
    vertex 112.20862959700061 53.37724007663854 132.0000004097936
    vertex 94.41919924847748 53.37724001718503 140.2188348732669
    vertex 89.98663586037122 53.37724001718501 139.6956523005969
  endloop
endfacet
facet normal -8.37663759403974e-11 -1.0 -9.913205123530725e-10
  outer loop
    vertex 94.41919924847748 53.37724001718503 140.2188348732669
    vertex 112.20862959700061 53.37724007663854 132.0000004097936
    vertex 98.53579957260506 53.37724001718458 141.7475699486295
  endloop
endfacet
facet normal -8.37663759403974e-11 -1.0 -9.913205123530725e-10
  outer loop
    vertex 98.53579957260506 53.37724001718458 141.7475699486295
    vertex 112.20862959700061 53.37724007663854 132.0000004097936
    vertex 112.20862959700061 53.37724007663854 147.00000040321777
  endloop
endfacet
facet normal -8.37663759403974e-11 -1.0 -9.913205123530725e-10
  outer loop
    vertex 98.53579957260506 53.37724001718458 141.7475699486295
    vertex 112.20862959700061 53.37724007663854 147.00000040321777
    vertex 102.07080441129197 53.37724001718501 144.17943626513681
  endloop
endfacet
facet normal -8.37663759403974e-11 -1.0 -9.913205123530725e-10
  outer loop
    vertex 102.07080441129197 53.37724001718501 144.17943626513681
    vertex 112.20862959700061 53.37724007663854 147.00000040321777
    vertex 104.48485986102516 53.37724004691125 147.00000040321638
  endloop
endfacet
facet normal -8.37663759403974e-11 -1.0 -9.913205123530725e-10
  outer loop
    vertex 67.30000011598445 53.37724007663854 132.0000004032178
    vertex 71.20000064719812 53.377240017184896 144.7593488612757
    vertex 67.30000011598445 53.37724007663854 147.00000040321777
  endloop
endfacet
facet normal -8.37663759403974e-11 -1.0 -9.913205123530725e-10
  outer loop
    vertex 71.20000064719812 53.377240017184896 144.7593488612757
    vertex 67.30000011598445 53.37724007663854 132.0000004032178
    vertex 112.20862959700061 53.37724007663854 132.0000004097936
  endloop
endfacet
facet normal -8.37663759403974e-11 -1.0 -9.913205123530725e-10
  outer loop
    vertex 71.20000064719812 53.377240017184896 144.7593488612757
    vertex 112.20862959700061 53.37724007663854 132.0000004097936
    vertex 89.98663586037122 53.37724001718501 139.6956523005969
  endloop
endfacet
facet normal -8.37663759403974e-11 -1.0 -9.913205123530725e-10
  outer loop
    vertex 67.30000011598445 53.37724007663854 147.00000040321777
    vertex 71.20000064719812 53.377240017184896 144.7593488612757
    vertex 71.20000064719812 53.37724004691181 147.00000040321777
  endloop
endfacet
facet normal -0.11721792109563887 -1.0950620485072545e-09 0.9931062173675165
  outer loop
    vertex 94.41919924847748 53.37724001718503 140.2188348732669
    vertex 89.98663586106305 62.77724006017822 139.69565231130386
    vertex 89.98663586037122 53.37724001718501 139.6956523005969
  endloop
endfacet
facet normal -0.11721792109563887 -1.0950620485072545e-09 0.9931062173675165
  outer loop
    vertex 89.98663586106305 62.77724006017822 139.69565231130386
    vertex 94.41919924847748 53.37724001718503 140.2188348732669
    vertex 94.41919924896587 62.77724006017824 140.2188348834293
  endloop
endfacet
facet normal -0.5667741770188431 -7.891770282132833e-10 0.8238731894318525
  outer loop
    vertex 102.07080441129197 53.37724001718501 144.17943626513681
    vertex 98.53579957302512 62.777240060177796 141.74756995822406
    vertex 98.53579957260506 53.37724001718458 141.7475699486295
  endloop
endfacet
facet normal -0.5667741770188431 -7.891770282132833e-10 0.8238731894318525
  outer loop
    vertex 98.53579957302512 62.777240060177796 141.74756995822406
    vertex 102.07080441129197 53.37724001718501 144.17943626513681
    vertex 102.07080441178265 62.77724006017822 144.17943627417702
  endloop
endfacet
endsolid Design - Rolled
