solid Design - Rolled
facet normal -0.9914448613738082 -0.13052619222006867 -1.6682298788642422e-10
  outer loop
    vertex 528.2626957986732 1379.7238107681671 17.999999124833348
    vertex 527.7172149917808 1383.8671488441412 22.99999906635768
    vertex 527.7172149945965 1383.8671488291452 17.999999066357553
  endloop
endfacet
facet normal -0.9914448613738082 -0.13052619222006867 -1.6682298788642422e-10
  outer loop
    vertex 527.7172149917808 1383.8671488441412 22.99999906635768
    vertex 528.2626957986732 1379.7238107681671 17.999999124833348
    vertex 528.2626957958576 1379.7238107831633 22.999999124833476
  endloop
endfacet
facet normal -1.0 -1.316489428212757e-22 -5.631192020264675e-10
  outer loop
    vertex 487.7540663332122 1361.7238119003996 22.999999161927146
    vertex 487.75406633602785 1367.7238117363916 17.99999916192562
    vertex 487.75406633602785 1361.7238118854036 17.99999916192702
  endloop
endfacet
facet normal -1.0 -1.316489428212757e-22 -5.631192020264675e-10
  outer loop
    vertex 487.75406633602785 1367.7238117363916 17.99999916192562
    vertex 487.7540663332122 1361.7238119003996 22.999999161927146
    vertex 487.7540663332122 1367.7238117513878 22.999999161925743
  endloop
endfacet
facet normal -0.9238795325112815 0.3826834323651022 -1.6680116358898514e-09
  outer loop
    vertex 526.1179461977147 1371.719496287814 17.999999241868792
    vertex 527.7172149917809 1375.5804727221225 22.9999991855878
    vertex 527.7172149945966 1375.5804727071263 17.999999185587676
  endloop
endfacet
facet normal -0.9238795325112815 0.3826834323651022 -1.6680116358898514e-09
  outer loop
    vertex 527.7172149917809 1375.5804727221225 22.9999991855878
    vertex 526.1179461977147 1371.719496287814 17.999999241868792
    vertex 526.117946194899 1371.7194963028103 22.999999241868917
  endloop
endfacet
facet normal -0.5000000000728139 0.8660254037423996 -2.878972819698907e-09
  outer loop
    vertex 520.2583811991009 1365.8599313070122 22.999999241870288
    vertex 516.3974047058625 1364.2606624633468 17.999999241870537
    vertex 516.397404703047 1364.260662478343 22.99999924187066
  endloop
endfacet
facet normal -0.3826834323650908 0.9238795325112864 -2.986427703328645e-09
  outer loop
    vertex 516.3974047058625 1364.2606624633468 17.999999241870537
    vertex 520.2583811991009 1365.8599313070122 22.999999241870288
    vertex 520.2583812019164 1365.859931292016 17.99999924187016
  endloop
endfacet
facet normal -0.11485229619874224 0.9933825799045786 -3.0440627812262335e-09
  outer loop
    vertex 516.397404703047 1364.260662478343 22.99999924187066
    vertex 511.75406687291564 1363.7238118854034 17.999999165124077
    vertex 511.7540668701 1363.7238119003998 22.999999165124205
  endloop
endfacet
facet normal -0.11485229619874224 0.9933825799045786 -3.0440627812262335e-09
  outer loop
    vertex 511.75406687291564 1363.7238118854034 17.999999165124077
    vertex 516.397404703047 1364.260662478343 22.99999924187066
    vertex 516.3974047058625 1364.2606624633468 17.999999241870537
  endloop
endfacet
facet normal 1.7054888479143202e-18 1.0 -2.9992344421079764e-09
  outer loop
    vertex 492.7540663394893 1367.7238117513878 22.99999916476917
    vertex 487.75406633602785 1367.7238117363916 17.99999916192562
    vertex 487.7540663332122 1367.7238117513878 22.999999161925743
  endloop
endfacet
facet normal 1.7054888479143202e-18 1.0 -2.9992344421079764e-09
  outer loop
    vertex 487.75406633602785 1367.7238117363916 17.99999916192562
    vertex 492.7540663394893 1367.7238117513878 22.99999916476917
    vertex 492.754066342305 1367.7238117363916 17.999999164769047
  endloop
endfacet
facet normal 9.145121151963717e-12 -1.0 2.999234442113126e-09
  outer loop
    vertex 487.75406633602785 1361.7238118854036 17.99999916192702
    vertex 533.2626958127921 1361.723811900816 22.99999916303077
    vertex 487.7540663332122 1361.7238119003996 22.999999161927146
  endloop
endfacet
facet normal 9.145121151963717e-12 -1.0 2.999234442113126e-09
  outer loop
    vertex 533.2626958127921 1361.723811900816 22.99999916303077
    vertex 487.75406633602785 1361.7238118854036 17.99999916192702
    vertex 533.2626958156077 1361.7238118858197 17.99999916303064
  endloop
endfacet
facet normal 1.0 -1.7843097870559828e-10 5.631192025616236e-10
  outer loop
    vertex 533.2626958201078 1402.7238101558717 22.99999910601328
    vertex 533.2626958156077 1361.7238118858197 17.99999916303064
    vertex 533.2626958229234 1402.7238101408755 17.999999106013156
  endloop
endfacet
facet normal 1.0 -1.7843097870559828e-10 5.631192025616236e-10
  outer loop
    vertex 533.2626958156077 1361.7238118858197 17.99999916303064
    vertex 533.2626958201078 1402.7238101558717 22.99999910601328
    vertex 533.2626958127921 1361.723811900816 22.99999916303077
  endloop
endfacet
facet normal -1.0082634948551068e-10 1.0 -2.9992344421647533e-09
  outer loop
    vertex 533.2626958201078 1402.7238101558717 22.99999910601328
    vertex 487.7540663359417 1402.723810136287 17.99999910558434
    vertex 487.75406633312605 1402.723810151283 22.999999105584465
  endloop
endfacet
facet normal -1.0082634948551068e-10 1.0 -2.9992344421647533e-09
  outer loop
    vertex 487.7540663359417 1402.723810136287 17.99999910558434
    vertex 533.2626958201078 1402.7238101558717 22.99999910601328
    vertex 533.2626958229234 1402.7238101408755 17.999999106013156
  endloop
endfacet
facet normal -1.0 -2.5346523376210835e-12 -5.631192020188653e-10
  outer loop
    vertex 487.75406633602785 1368.7238116139308 17.999999105632536
    vertex 487.75406633312605 1402.723810151283 22.999999105584465
    vertex 487.7540663359417 1402.723810136287 17.99999910558434
  endloop
endfacet
facet normal -1.0 -2.5346523376210835e-12 -5.631192020188653e-10
  outer loop
    vertex 487.75406633312605 1402.723810151283 22.999999105584465
    vertex 487.75406633602785 1368.7238116139308 17.999999105632536
    vertex 487.7540663332122 1368.723811628927 22.99999910563266
  endloop
endfacet
facet normal -0.976404723005147 -0.21594864411068243 9.784836266974418e-11
  outer loop
    vertex 525.754066085093 1388.2023430552247 22.999999095111484
    vertex 524.7540661227313 1392.7238101373025 17.9999991045825
    vertex 525.7540660879087 1388.2023430402287 17.999999095111356
  endloop
endfacet
facet normal -0.976404723005147 -0.21594864411068243 9.784836266974418e-11
  outer loop
    vertex 524.7540661227313 1392.7238101373025 17.9999991045825
    vertex 525.754066085093 1388.2023430552247 22.999999095111484
    vertex 524.7540661199156 1392.7238101522987 22.999999104582624
  endloop
endfacet
facet normal -4.851470352907006e-11 -1.0 2.9992344420806567e-09
  outer loop
    vertex 492.75406634221906 1394.7238118906967 17.999999106390057
    vertex 524.7540661199156 1394.7238119041403 22.999999104582155
    vertex 492.75406633940344 1394.7238119056929 22.999999106390185
  endloop
endfacet
facet normal -4.851470352907006e-11 -1.0 2.9992344420806567e-09
  outer loop
    vertex 524.7540661199156 1394.7238119041403 22.999999104582155
    vertex 492.75406634221906 1394.7238118906967 17.999999106390057
    vertex 524.7540661227313 1394.7238118891441 17.99999910458203
  endloop
endfacet
facet normal -0.7933533402912006 -0.6087614290087658 1.3790657450001469e-09
  outer loop
    vertex 526.117946194899 1387.7281252634534 22.99999899860864
    vertex 525.7540660879087 1388.2023430402287 17.999999095111356
    vertex 526.1179461977147 1387.7281252484572 17.999998998608515
  endloop
endfacet
facet normal -0.7933533402912006 -0.6087614290087658 1.3790657450001469e-09
  outer loop
    vertex 525.7540660879087 1388.2023430402287 17.999999095111356
    vertex 526.117946194899 1387.7281252634534 22.99999899860864
    vertex 525.754066085093 1388.2023430552247 22.999999095111484
  endloop
endfacet
facet normal -0.9914448613740672 0.1305261922181012 -9.497802904879415e-10
  outer loop
    vertex 527.7172149945966 1375.5804727071263 17.999999185587676
    vertex 528.2626957958576 1379.7238107831633 22.999999124833476
    vertex 528.2626957986732 1379.7238107681671 17.999999124833348
  endloop
endfacet
facet normal -0.9914448613740672 0.1305261922181012 -9.497802904879415e-10
  outer loop
    vertex 528.2626957958576 1379.7238107831633 22.999999124833476
    vertex 527.7172149945966 1375.5804727071263 17.999999185587676
    vertex 527.7172149917809 1375.5804727221225 22.9999991855878
  endloop
endfacet
facet normal -0.6087614290087209 0.793353340291235 -2.7222579130907646e-09
  outer loop
    vertex 523.5738768802362 1368.404000621675 22.99999924186969
    vertex 520.2583812019164 1365.859931292016 17.99999924187016
    vertex 520.2583811991009 1365.8599313070122 22.999999241870288
  endloop
endfacet
facet normal -0.4999999999271873 0.8660254038264772 -2.8789728198690703e-09
  outer loop
    vertex 520.2583812019164 1365.859931292016 17.99999924187016
    vertex 523.5738768802362 1368.404000621675 22.99999924186969
    vertex 523.5738768830519 1368.4040006066787 17.999999241869567
  endloop
endfacet
facet normal -0.793353340291233 0.6087614290087234 -2.2725707448196643e-09
  outer loop
    vertex 523.5738768802362 1368.404000621675 22.99999924186969
    vertex 526.1179461977147 1371.719496287814 17.999999241868792
    vertex 523.5738768830519 1368.4040006066787 17.999999241869567
  endloop
endfacet
facet normal -0.793353340291233 0.6087614290087234 -2.2725707448196643e-09
  outer loop
    vertex 526.1179461977147 1371.719496287814 17.999999241868792
    vertex 523.5738768802362 1368.404000621675 22.99999924186969
    vertex 526.117946194899 1371.7194963028103 22.999999241868917
  endloop
endfacet
facet normal 5.136129021922446e-10 -1.0 2.9992344423972014e-09
  outer loop
    vertex 487.75406633602785 1368.7238116139308 17.999999105632536
    vertex 492.75406633948927 1368.7238116314952 22.99999910643615
    vertex 487.7540663332122 1368.723811628927 22.99999910563266
  endloop
endfacet
facet normal 5.136129021922446e-10 -1.0 2.9992344423972014e-09
  outer loop
    vertex 492.75406633948927 1368.7238116314952 22.99999910643615
    vertex 487.75406633602785 1368.7238116139308 17.999999105632536
    vertex 492.7540663423049 1368.7238116164988 17.99999910643602
  endloop
endfacet
facet normal 0.2060104681919884 0.9785497876936655 -2.8188917761109177e-09
  outer loop
    vertex 511.7540668701 1363.7238119003998 22.999999165124205
    vertex 492.754066342305 1367.7238117363916 17.999999164769047
    vertex 492.7540663394893 1367.7238117513878 22.99999916476917
  endloop
endfacet
facet normal 0.2060104681919884 0.9785497876936655 -2.8188917761109177e-09
  outer loop
    vertex 492.754066342305 1367.7238117363916 17.999999164769047
    vertex 511.7540668701 1363.7238119003998 22.999999165124205
    vertex 511.75406687291564 1363.7238118854034 17.999999165124077
  endloop
endfacet
facet normal 1.0 3.300662273759485e-12 5.631192020165679e-10
  outer loop
    vertex 492.75406633940344 1394.7238119056929 22.999999106390185
    vertex 492.7540663423049 1368.7238116164988 17.99999910643602
    vertex 492.75406634221906 1394.7238118906967 17.999999106390057
  endloop
endfacet
facet normal 1.0 3.300662273759485e-12 5.631192020165679e-10
  outer loop
    vertex 492.7540663423049 1368.7238116164988 17.99999910643602
    vertex 492.75406633940344 1394.7238119056929 22.999999106390185
    vertex 492.75406633948927 1368.7238116314952 22.99999910643615
  endloop
endfacet
facet normal -1.0 -1.3164894282127567e-22 -5.631192020264674e-10
  outer loop
    vertex 524.7540661199156 1392.7238101522987 22.999999104582624
    vertex 524.7540661227313 1394.7238118891441 17.99999910458203
    vertex 524.7540661227313 1392.7238101373025 17.9999991045825
  endloop
endfacet
facet normal -1.0 -1.3164894282127567e-22 -5.631192020264674e-10
  outer loop
    vertex 524.7540661227313 1394.7238118891441 17.99999910458203
    vertex 524.7540661199156 1392.7238101522987 22.999999104582624
    vertex 524.7540661199156 1394.7238119041403 22.999999104582155
  endloop
endfacet
facet normal -0.9238795325112893 -0.38268343236508384 6.275030256571146e-10
  outer loop
    vertex 527.7172149945965 1383.8671488291452 17.999999066357553
    vertex 526.117946194899 1387.7281252634534 22.99999899860864
    vertex 526.1179461977147 1387.7281252484572 17.999998998608515
  endloop
endfacet
facet normal -0.9238795325112893 -0.38268343236508384 6.275030256571146e-10
  outer loop
    vertex 526.117946194899 1387.7281252634534 22.99999899860864
    vertex 527.7172149945965 1383.8671488291452 17.999999066357553
    vertex 527.7172149917808 1383.8671488441412 22.99999906635768
  endloop
endfacet
facet normal 5.631192020264674e-10 -2.999234442107976e-09 -1.0
  outer loop
    vertex 533.2626958229234 1402.7238101408755 17.999999106013156
    vertex 524.7540661227313 1394.7238118891441 17.99999910458203
    vertex 487.7540663359417 1402.723810136287 17.99999910558434
  endloop
endfacet
facet normal 5.631192020264674e-10 -2.999234442107976e-09 -1.0
  outer loop
    vertex 524.7540661227313 1394.7238118891441 17.99999910458203
    vertex 533.2626958229234 1402.7238101408755 17.999999106013156
    vertex 527.7172149945965 1383.8671488291452 17.999999066357553
  endloop
endfacet
facet normal 5.631192020264674e-10 -2.999234442107976e-09 -1.0
  outer loop
    vertex 527.7172149945965 1383.8671488291452 17.999999066357553
    vertex 533.2626958229234 1402.7238101408755 17.999999106013156
    vertex 533.2626958156077 1361.7238118858197 17.99999916303064
  endloop
endfacet
facet normal 5.631192020264674e-10 -2.999234442107976e-09 -1.0
  outer loop
    vertex 487.7540663359417 1402.723810136287 17.99999910558434
    vertex 524.7540661227313 1394.7238118891441 17.99999910458203
    vertex 492.75406634221906 1394.7238118906967 17.999999106390057
  endloop
endfacet
facet normal 5.631192020264674e-10 -2.999234442107976e-09 -1.0
  outer loop
    vertex 524.7540661227313 1394.7238118891441 17.99999910458203
    vertex 527.7172149945965 1383.8671488291452 17.999999066357553
    vertex 524.7540661227313 1392.7238101373025 17.9999991045825
  endloop
endfacet
facet normal 5.631192020264674e-10 -2.999234442107976e-09 -1.0
  outer loop
    vertex 524.7540661227313 1392.7238101373025 17.9999991045825
    vertex 527.7172149945965 1383.8671488291452 17.999999066357553
    vertex 526.1179461977147 1387.7281252484572 17.999998998608515
  endloop
endfacet
facet normal 5.631192020264674e-10 -2.999234442107976e-09 -1.0
  outer loop
    vertex 524.7540661227313 1392.7238101373025 17.9999991045825
    vertex 526.1179461977147 1387.7281252484572 17.999998998608515
    vertex 525.7540660879087 1388.2023430402287 17.999999095111356
  endloop
endfacet
facet normal 5.631192020264674e-10 -2.999234442107976e-09 -1.0
  outer loop
    vertex 527.7172149945965 1383.8671488291452 17.999999066357553
    vertex 533.2626958156077 1361.7238118858197 17.99999916303064
    vertex 528.2626957986732 1379.7238107681671 17.999999124833348
  endloop
endfacet
facet normal 5.631192020264674e-10 -2.999234442107976e-09 -1.0
  outer loop
    vertex 528.2626957986732 1379.7238107681671 17.999999124833348
    vertex 533.2626958156077 1361.7238118858197 17.99999916303064
    vertex 527.7172149945966 1375.5804727071263 17.999999185587676
  endloop
endfacet
facet normal 5.631192020264674e-10 -2.999234442107976e-09 -1.0
  outer loop
    vertex 527.7172149945966 1375.5804727071263 17.999999185587676
    vertex 533.2626958156077 1361.7238118858197 17.99999916303064
    vertex 526.1179461977147 1371.719496287814 17.999999241868792
  endloop
endfacet
facet normal 5.631192020264674e-10 -2.999234442107976e-09 -1.0
  outer loop
    vertex 526.1179461977147 1371.719496287814 17.999999241868792
    vertex 533.2626958156077 1361.7238118858197 17.99999916303064
    vertex 523.5738768830519 1368.4040006066787 17.999999241869567
  endloop
endfacet
facet normal 5.631192020264674e-10 -2.999234442107976e-09 -1.0
  outer loop
    vertex 523.5738768830519 1368.4040006066787 17.999999241869567
    vertex 533.2626958156077 1361.7238118858197 17.99999916303064
    vertex 520.2583812019164 1365.859931292016 17.99999924187016
  endloop
endfacet
facet normal 5.631192020264674e-10 -2.999234442107976e-09 -1.0
  outer loop
    vertex 520.2583812019164 1365.859931292016 17.99999924187016
    vertex 533.2626958156077 1361.7238118858197 17.99999916303064
    vertex 516.3974047058625 1364.2606624633468 17.999999241870537
  endloop
endfacet
facet normal 5.631192020264674e-10 -2.999234442107976e-09 -1.0
  outer loop
    vertex 516.3974047058625 1364.2606624633468 17.999999241870537
    vertex 533.2626958156077 1361.7238118858197 17.99999916303064
    vertex 511.75406687291564 1363.7238118854034 17.999999165124077
  endloop
endfacet
facet normal 5.631192020264674e-10 -2.999234442107976e-09 -1.0
  outer loop
    vertex 511.75406687291564 1363.7238118854034 17.999999165124077
    vertex 487.75406633602785 1367.7238117363916 17.99999916192562
    vertex 492.754066342305 1367.7238117363916 17.999999164769047
  endloop
endfacet
facet normal 5.631192020264674e-10 -2.999234442107976e-09 -1.0
  outer loop
    vertex 487.75406633602785 1367.7238117363916 17.99999916192562
    vertex 511.75406687291564 1363.7238118854034 17.999999165124077
    vertex 487.75406633602785 1361.7238118854036 17.99999916192702
  endloop
endfacet
facet normal 5.631192020264674e-10 -2.999234442107976e-09 -1.0
  outer loop
    vertex 487.75406633602785 1361.7238118854036 17.99999916192702
    vertex 511.75406687291564 1363.7238118854034 17.999999165124077
    vertex 533.2626958156077 1361.7238118858197 17.99999916303064
  endloop
endfacet
facet normal 5.631192020264674e-10 -2.999234442107976e-09 -1.0
  outer loop
    vertex 492.75406634221906 1394.7238118906967 17.999999106390057
    vertex 487.75406633602785 1368.7238116139308 17.999999105632536
    vertex 487.7540663359417 1402.723810136287 17.99999910558434
  endloop
endfacet
facet normal 5.631192020264674e-10 -2.999234442107976e-09 -1.0
  outer loop
    vertex 487.75406633602785 1368.7238116139308 17.999999105632536
    vertex 492.75406634221906 1394.7238118906967 17.999999106390057
    vertex 492.7540663423049 1368.7238116164988 17.99999910643602
  endloop
endfacet
facet normal -5.631192020264674e-10 2.999234442107976e-09 1.0
  outer loop
    vertex 487.7540663332122 1368.723811628927 22.99999910563266
    vertex 492.75406633940344 1394.7238119056929 22.999999106390185
    vertex 487.75406633312605 1402.723810151283 22.999999105584465
  endloop
endfacet
facet normal -5.631192020264674e-10 2.999234442107976e-09 1.0
  outer loop
    vertex 492.75406633940344 1394.7238119056929 22.999999106390185
    vertex 487.7540663332122 1368.723811628927 22.99999910563266
    vertex 492.75406633948927 1368.7238116314952 22.99999910643615
  endloop
endfacet
facet normal -5.631192020264674e-10 2.999234442107976e-09 1.0
  outer loop
    vertex 487.7540663332122 1361.7238119003996 22.999999161927146
    vertex 492.7540663394893 1367.7238117513878 22.99999916476917
    vertex 487.7540663332122 1367.7238117513878 22.999999161925743
  endloop
endfacet
facet normal -5.631192020264674e-10 2.999234442107976e-09 1.0
  outer loop
    vertex 492.7540663394893 1367.7238117513878 22.99999916476917
    vertex 487.7540663332122 1361.7238119003996 22.999999161927146
    vertex 511.7540668701 1363.7238119003998 22.999999165124205
  endloop
endfacet
facet normal -5.631192020264674e-10 2.999234442107976e-09 1.0
  outer loop
    vertex 511.7540668701 1363.7238119003998 22.999999165124205
    vertex 487.7540663332122 1361.7238119003996 22.999999161927146
    vertex 533.2626958127921 1361.723811900816 22.99999916303077
  endloop
endfacet
facet normal -5.631192020264674e-10 2.999234442107976e-09 1.0
  outer loop
    vertex 533.2626958201078 1402.7238101558717 22.99999910601328
    vertex 527.7172149917808 1383.8671488441412 22.99999906635768
    vertex 533.2626958127921 1361.723811900816 22.99999916303077
  endloop
endfacet
facet normal -5.631192020264674e-10 2.999234442107976e-09 1.0
  outer loop
    vertex 527.7172149917808 1383.8671488441412 22.99999906635768
    vertex 533.2626958201078 1402.7238101558717 22.99999910601328
    vertex 524.7540661199156 1394.7238119041403 22.999999104582155
  endloop
endfacet
facet normal -5.631192020264674e-10 2.999234442107976e-09 1.0
  outer loop
    vertex 524.7540661199156 1394.7238119041403 22.999999104582155
    vertex 533.2626958201078 1402.7238101558717 22.99999910601328
    vertex 487.75406633312605 1402.723810151283 22.999999105584465
  endloop
endfacet
facet normal -5.631192020264674e-10 2.999234442107976e-09 1.0
  outer loop
    vertex 524.7540661199156 1394.7238119041403 22.999999104582155
    vertex 487.75406633312605 1402.723810151283 22.999999105584465
    vertex 492.75406633940344 1394.7238119056929 22.999999106390185
  endloop
endfacet
facet normal -5.631192020264674e-10 2.999234442107976e-09 1.0
  outer loop
    vertex 527.7172149917808 1383.8671488441412 22.99999906635768
    vertex 524.7540661199156 1394.7238119041403 22.999999104582155
    vertex 524.7540661199156 1392.7238101522987 22.999999104582624
  endloop
endfacet
facet normal -5.631192020264674e-10 2.999234442107976e-09 1.0
  outer loop
    vertex 527.7172149917808 1383.8671488441412 22.99999906635768
    vertex 524.7540661199156 1392.7238101522987 22.999999104582624
    vertex 526.117946194899 1387.7281252634534 22.99999899860864
  endloop
endfacet
facet normal -5.631192020264674e-10 2.999234442107976e-09 1.0
  outer loop
    vertex 526.117946194899 1387.7281252634534 22.99999899860864
    vertex 524.7540661199156 1392.7238101522987 22.999999104582624
    vertex 525.754066085093 1388.2023430552247 22.999999095111484
  endloop
endfacet
facet normal -5.631192020264674e-10 2.999234442107976e-09 1.0
  outer loop
    vertex 533.2626958127921 1361.723811900816 22.99999916303077
    vertex 527.7172149917808 1383.8671488441412 22.99999906635768
    vertex 528.2626957958576 1379.7238107831633 22.999999124833476
  endloop
endfacet
facet normal -5.631192020264674e-10 2.999234442107976e-09 1.0
  outer loop
    vertex 533.2626958127921 1361.723811900816 22.99999916303077
    vertex 528.2626957958576 1379.7238107831633 22.999999124833476
    vertex 527.7172149917809 1375.5804727221225 22.9999991855878
  endloop
endfacet
facet normal -5.631192020264674e-10 2.999234442107976e-09 1.0
  outer loop
    vertex 533.2626958127921 1361.723811900816 22.99999916303077
    vertex 527.7172149917809 1375.5804727221225 22.9999991855878
    vertex 526.117946194899 1371.7194963028103 22.999999241868917
  endloop
endfacet
facet normal -5.631192020264674e-10 2.999234442107976e-09 1.0
  outer loop
    vertex 533.2626958127921 1361.723811900816 22.99999916303077
    vertex 526.117946194899 1371.7194963028103 22.999999241868917
    vertex 523.5738768802362 1368.404000621675 22.99999924186969
  endloop
endfacet
facet normal -5.631192020264674e-10 2.999234442107976e-09 1.0
  outer loop
    vertex 533.2626958127921 1361.723811900816 22.99999916303077
    vertex 523.5738768802362 1368.404000621675 22.99999924186969
    vertex 520.2583811991009 1365.8599313070122 22.999999241870288
  endloop
endfacet
facet normal -5.631192020264674e-10 2.999234442107976e-09 1.0
  outer loop
    vertex 533.2626958127921 1361.723811900816 22.99999916303077
    vertex 520.2583811991009 1365.8599313070122 22.999999241870288
    vertex 516.397404703047 1364.260662478343 22.99999924187066
  endloop
endfacet
facet normal -5.631192020264674e-10 2.999234442107976e-09 1.0
  outer loop
    vertex 533.2626958127921 1361.723811900816 22.99999916303077
    vertex 516.397404703047 1364.260662478343 22.99999924187066
    vertex 511.7540668701 1363.7238119003998 22.999999165124205
  endloop
endfacet
endsolid Design - Rolled
