solid Design - Rolled
facet normal 0.0 0.0 -1.0
  outer loop
    vertex 422.49042474251337 1202.9935106177804 45.00000112711805
    vertex 420.49042474251337 1070.9935106177804 45.00000112711805
    vertex 420.49042474251337 1202.9935106177804 45.00000112711805
  endloop
endfacet
facet normal 0.0 0.0 -1.0
  outer loop
    vertex 420.49042474251337 1070.9935106177804 45.00000112711805
    vertex 412.49042474251337 1068.9935106177802 45.00000112711805
    vertex 412.49042474251337 1070.9935106177804 45.00000112711805
  endloop
endfacet
facet normal 0.0 0.0 -1.0
  outer loop
    vertex 412.49042474251337 1068.9935106177802 45.00000112711805
    vertex 420.49042474251337 1070.9935106177804 45.00000112711805
    vertex 422.49042474251337 1068.9935106177802 45.00000112711805
  endloop
endfacet
facet normal 0.0 0.0 -1.0
  outer loop
    vertex 422.49042474251337 1068.9935106177802 45.00000112711805
    vertex 420.49042474251337 1070.9935106177804 45.00000112711805
    vertex 422.49042474251337 1202.9935106177804 45.00000112711805
  endloop
endfacet
facet normal 0.0 1.0 0.0
  outer loop
    vertex 420.49042474251337 1202.9935106177804 49.00000112711805
    vertex 422.49042474251337 1202.9935106177804 45.00000112711805
    vertex 420.49042474251337 1202.9935106177804 45.00000112711805
  endloop
endfacet
facet normal 0.0 1.0 0.0
  outer loop
    vertex 422.49042474251337 1202.9935106177804 45.00000112711805
    vertex 420.49042474251337 1202.9935106177804 49.00000112711805
    vertex 422.49042474251337 1202.9935106177804 49.00000112711805
  endloop
endfacet
facet normal -1.0 0.0 0.0
  outer loop
    vertex 412.49042474251337 1070.9935106177804 55.00000112711805
    vertex 412.49042474251337 1068.9935106177802 45.00000112711805
    vertex 412.49042474251337 1068.9935106177802 55.00000112711805
  endloop
endfacet
facet normal -1.0 0.0 0.0
  outer loop
    vertex 412.49042474251337 1068.9935106177802 45.00000112711805
    vertex 412.49042474251337 1070.9935106177804 55.00000112711805
    vertex 412.49042474251337 1070.9935106177804 45.00000112711805
  endloop
endfacet
facet normal -0.0 -1.0 -0.0
  outer loop
    vertex 422.49042474251337 1068.9935106177802 55.00000112711805
    vertex 412.49042474251337 1068.9935106177802 45.00000112711805
    vertex 422.49042474251337 1068.9935106177802 45.00000112711805
  endloop
endfacet
facet normal -0.0 -1.0 -0.0
  outer loop
    vertex 412.49042474251337 1068.9935106177802 45.00000112711805
    vertex 422.49042474251337 1068.9935106177802 55.00000112711805
    vertex 412.49042474251337 1068.9935106177802 55.00000112711805
  endloop
endfacet
facet normal 0.0 0.0 1.0
  outer loop
    vertex 422.49042474251337 1070.9935106177804 49.00000112711805
    vertex 420.49042474251337 1202.9935106177804 49.00000112711805
    vertex 420.49042474251337 1070.9935106177804 49.00000112711805
  endloop
endfacet
facet normal 0.0 0.0 1.0
  outer loop
    vertex 420.49042474251337 1202.9935106177804 49.00000112711805
    vertex 422.49042474251337 1070.9935106177804 49.00000112711805
    vertex 422.49042474251337 1202.9935106177804 49.00000112711805
  endloop
endfacet
facet normal -1.0 0.0 0.0
  outer loop
    vertex 420.49042474251337 1202.9935106177804 49.00000112711805
    vertex 420.49042474251337 1070.9935106177804 45.00000112711805
    vertex 420.49042474251337 1070.9935106177804 49.00000112711805
  endloop
endfacet
facet normal -1.0 0.0 0.0
  outer loop
    vertex 420.49042474251337 1070.9935106177804 45.00000112711805
    vertex 420.49042474251337 1202.9935106177804 49.00000112711805
    vertex 420.49042474251337 1202.9935106177804 45.00000112711805
  endloop
endfacet
facet normal 1.0 0.0 0.0
  outer loop
    vertex 422.49042474251337 1068.9935106177802 45.00000112711805
    vertex 422.49042474251337 1070.9935106177804 49.00000112711805
    vertex 422.49042474251337 1068.9935106177802 55.00000112711805
  endloop
endfacet
facet normal 1.0 0.0 0.0
  outer loop
    vertex 422.49042474251337 1070.9935106177804 49.00000112711805
    vertex 422.49042474251337 1068.9935106177802 45.00000112711805
    vertex 422.49042474251337 1202.9935106177804 45.00000112711805
  endloop
endfacet
facet normal 1.0 0.0 0.0
  outer loop
    vertex 422.49042474251337 1070.9935106177804 49.00000112711805
    vertex 422.49042474251337 1202.9935106177804 45.00000112711805
    vertex 422.49042474251337 1202.9935106177804 49.00000112711805
  endloop
endfacet
facet normal 1.0 0.0 0.0
  outer loop
    vertex 422.49042474251337 1070.9935106177804 55.00000112711805
    vertex 422.49042474251337 1068.9935106177802 55.00000112711805
    vertex 422.49042474251337 1070.9935106177804 49.00000112711805
  endloop
endfacet
facet normal 0.0 0.0 1.0
  outer loop
    vertex 422.49042474251337 1068.9935106177802 55.00000112711805
    vertex 412.49042474251337 1070.9935106177804 55.00000112711805
    vertex 412.49042474251337 1068.9935106177802 55.00000112711805
  endloop
endfacet
facet normal 0.0 0.0 1.0
  outer loop
    vertex 412.49042474251337 1070.9935106177804 55.00000112711805
    vertex 422.49042474251337 1068.9935106177802 55.00000112711805
    vertex 422.49042474251337 1070.9935106177804 55.00000112711805
  endloop
endfacet
facet normal 0.0 1.0 0.0
  outer loop
    vertex 412.49042474251337 1070.9935106177804 55.00000112711805
    vertex 420.49042474251337 1070.9935106177804 45.00000112711805
    vertex 412.49042474251337 1070.9935106177804 45.00000112711805
  endloop
endfacet
facet normal 0.0 1.0 0.0
  outer loop
    vertex 420.49042474251337 1070.9935106177804 45.00000112711805
    vertex 412.49042474251337 1070.9935106177804 55.00000112711805
    vertex 420.49042474251337 1070.9935106177804 49.00000112711805
  endloop
endfacet
facet normal 0.0 1.0 0.0
  outer loop
    vertex 420.49042474251337 1070.9935106177804 49.00000112711805
    vertex 412.49042474251337 1070.9935106177804 55.00000112711805
    vertex 422.49042474251337 1070.9935106177804 49.00000112711805
  endloop
endfacet
facet normal 0.0 1.0 0.0
  outer loop
    vertex 422.49042474251337 1070.9935106177804 49.00000112711805
    vertex 412.49042474251337 1070.9935106177804 55.00000112711805
    vertex 422.49042474251337 1070.9935106177804 55.00000112711805
  endloop
endfacet
endsolid Design - Rolled
