solid Design - Rolled
facet normal 0.41875822899709153 -5.6118634688638546e-05 -0.9080977604299653
  outer loop
    vertex 388.36101032625555 875.9114556399057 -18.21149850517116
    vertex 393.10081869233005 872.5114556116627 -16.025583456132146
    vertex 388.3610386780699 872.511455611603 -18.211275317839547
  endloop
endfacet
facet normal 0.41875822899709153 -5.6118634688638546e-05 -0.9080977604299653
  outer loop
    vertex 393.10081869233005 872.5114556116627 -16.025583456132146
    vertex 388.36101032625555 875.9114556399057 -18.21149850517116
    vertex 393.1007903405157 875.9114556399655 -16.025806643461866
  endloop
endfacet
facet normal 0.7016705349509541 -4.091990735138251e-05 -0.7125015499682813
  outer loop
    vertex 397.3940790349606 875.9114556400182 -13.057568835594317
    vertex 401.11298078492035 872.5114556117627 -9.395004300644715
    vertex 397.3941073867753 872.5114556117154 -13.057345648263723
  endloop
endfacet
facet normal 0.7016705349509541 -4.091990735138251e-05 -0.7125015499682813
  outer loop
    vertex 401.11298078492035 872.5114556117627 -9.395004300644715
    vertex 397.3940790349606 875.9114556400182 -13.057568835594317
    vertex 401.1129524331058 875.9114556400657 -9.395227487975625
  endloop
endfacet
facet normal 0.2563522729972725 -6.131209413558691e-05 -0.9665834202850571
  outer loop
    vertex 383.3159667432733 875.9114556398431 -19.549518962304475
    vertex 388.3610386780699 872.511455611603 -18.211275317839547
    vertex 383.31599509508766 872.5114556115403 -19.549295774973878
  endloop
endfacet
facet normal 0.2563522729972725 -6.131209413558691e-05 -0.9665834202850571
  outer loop
    vertex 388.3610386780699 872.511455611603 -18.211275317839547
    vertex 383.3159667432733 875.9114556398431 -19.549518962304475
    vertex 388.36101032625555 875.9114556399057 -18.21149850517116
  endloop
endfacet
facet normal 0.08630797632075249 -6.467868167011585e-05 -0.9962685024831834
  outer loop
    vertex 378.11598305747304 875.9114556397784 -19.999999999999954
    vertex 383.31599509508766 872.5114556115403 -19.549295774973878
    vertex 378.11601140928764 872.5114556114755 -19.999776812670234
  endloop
endfacet
facet normal 0.08630797632075249 -6.467868167011585e-05 -0.9962685024831834
  outer loop
    vertex 383.31599509508766 872.5114556115403 -19.549295774973878
    vertex 378.11598305747304 875.9114556397784 -19.999999999999954
    vertex 383.3159667432733 875.9114556398431 -19.549518962304475
  endloop
endfacet
facet normal -0.08630797580517344 -6.611808620208188e-05 -0.9962685024333613
  outer loop
    vertex 372.91599937144343 875.9114556397128 -19.54951896495321
    vertex 378.11601140928764 872.5114556114755 -19.999776812670234
    vertex 372.916027723258 872.51145561141 -19.54929577762248
  endloop
endfacet
facet normal -0.08630797580517344 -6.611808620208188e-05 -0.9962685024333613
  outer loop
    vertex 378.11601140928764 872.5114556114755 -19.999776812670234
    vertex 372.91599937144343 875.9114556397128 -19.54951896495321
    vertex 378.11598305747304 875.9114556397784 -19.999999999999954
  endloop
endfacet
facet normal -0.2563522724355598 -6.558741869738175e-05 -0.966583420153385
  outer loop
    vertex 367.8709557877787 875.9114556396504 -18.211498510387806
    vertex 372.916027723258 872.51145561141 -19.54929577762248
    vertex 367.87098413959325 872.5114556113474 -18.211275323057208
  endloop
endfacet
facet normal -0.2563522724355598 -6.558741869738175e-05 -0.966583420153385
  outer loop
    vertex 372.916027723258 872.51145561141 -19.54929577762248
    vertex 367.8709557877787 875.9114556396504 -18.211498510387806
    vertex 372.91599937144343 875.9114556397128 -19.54951896495321
  endloop
endfacet
facet normal -1.2489186977745994e-11 1.0 7.289608068309636e-15
  outer loop
    vertex 383.3159667432733 875.9114556398431 -19.549518962304475
    vertex 379.56487179239457 875.911455641272 -13.189352209712636
    vertex 379.61598305296087 875.911455641277 -12.80112364205888
  endloop
endfacet
facet normal -1.2489186977745994e-11 1.0 7.289608068309636e-15
  outer loop
    vertex 379.56487179239457 875.911455641272 -13.189352209712636
    vertex 383.3159667432733 875.9114556398431 -19.549518962304475
    vertex 378.11598305747304 875.9114556397784 -19.999999999999954
  endloop
endfacet
facet normal -1.2489186977745994e-11 1.0 7.289608068309636e-15
  outer loop
    vertex 379.56487179239457 875.911455641272 -13.189352209712636
    vertex 378.11598305747304 875.9114556397784 -19.999999999999954
    vertex 379.41502115863716 875.9114556412577 -13.551123642058846
  endloop
endfacet
facet normal -1.2489186977745994e-11 1.0 7.289608068309636e-15
  outer loop
    vertex 379.41502115863716 875.9114556412577 -13.551123642058846
    vertex 378.11598305747304 875.9114556397784 -19.999999999999954
    vertex 379.1766432247402 875.911455641238 -13.861783813838661
  endloop
endfacet
facet normal -1.2489186977745994e-11 1.0 7.289608068309636e-15
  outer loop
    vertex 379.1766432247402 875.911455641238 -13.861783813838661
    vertex 378.11598305747304 875.9114556397784 -19.999999999999954
    vertex 378.8659830529605 875.9114556412126 -14.100161747735466
  endloop
endfacet
facet normal -1.2489186977745994e-11 1.0 7.289608068309636e-15
  outer loop
    vertex 378.8659830529605 875.9114556412126 -14.100161747735466
    vertex 378.11598305747304 875.9114556397784 -19.999999999999954
    vertex 378.50421162061417 875.911455641182 -14.250012381492375
  endloop
endfacet
facet normal -1.2489186977745994e-11 1.0 7.289608068309636e-15
  outer loop
    vertex 378.50421162061417 875.911455641182 -14.250012381492375
    vertex 378.11598305747304 875.9114556397784 -19.999999999999954
    vertex 378.1159830529604 875.9114556411513 -14.30112364205877
  endloop
endfacet
facet normal -1.2489186977745994e-11 1.0 7.289608068309636e-15
  outer loop
    vertex 378.1159830529604 875.9114556411513 -14.30112364205877
    vertex 378.11598305747304 875.9114556397784 -19.999999999999954
    vertex 372.91599937144343 875.9114556397128 -19.54951896495321
  endloop
endfacet
facet normal -1.2489186977745994e-11 1.0 7.289608068309636e-15
  outer loop
    vertex 378.1159830529604 875.9114556411513 -14.30112364205877
    vertex 372.91599937144343 875.9114556397128 -19.54951896495321
    vertex 377.72775448530666 875.9114556411193 -14.250012381492375
  endloop
endfacet
facet normal -1.2489186977745994e-11 1.0 7.289608068309636e-15
  outer loop
    vertex 377.72775448530666 875.9114556411193 -14.250012381492375
    vertex 372.91599937144343 875.9114556397128 -19.54951896495321
    vertex 377.36598305296036 875.9114556410914 -14.100161747735378
  endloop
endfacet
facet normal -1.2489186977745994e-11 1.0 7.289608068309636e-15
  outer loop
    vertex 377.36598305296036 875.9114556410914 -14.100161747735378
    vertex 372.91599937144343 875.9114556397128 -19.54951896495321
    vertex 377.05532288118053 875.9114556410659 -13.86178381383853
  endloop
endfacet
facet normal -1.2489186977745994e-11 1.0 7.289608068309636e-15
  outer loop
    vertex 377.05532288118053 875.9114556410659 -13.86178381383853
    vertex 372.91599937144343 875.9114556397128 -19.54951896495321
    vertex 376.8169449472838 875.9114556410476 -13.551123642058693
  endloop
endfacet
facet normal -1.2489186977745994e-11 1.0 7.289608068309636e-15
  outer loop
    vertex 376.8169449472838 875.9114556410476 -13.551123642058693
    vertex 372.91599937144343 875.9114556397128 -19.54951896495321
    vertex 376.6670943135272 875.9114556410372 -13.189352209712464
  endloop
endfacet
facet normal -1.2489186977745994e-11 1.0 7.289608068309636e-15
  outer loop
    vertex 376.6670943135272 875.9114556410372 -13.189352209712464
    vertex 372.91599937144343 875.9114556397128 -19.54951896495321
    vertex 376.61598305296076 875.9114556410341 -12.80112364205873
  endloop
endfacet
facet normal -1.2489186977745994e-11 1.0 7.289608068309636e-15
  outer loop
    vertex 401.1129524331058 875.9114556400657 -9.395227487975625
    vertex 352.1947993368506 875.9114556394544 -5.301123648089578
    vertex 404.0371667706093 875.9114556401016 -5.30112363488471
  endloop
endfacet
facet normal -1.2489186977745994e-11 1.0 7.289608068309636e-15
  outer loop
    vertex 352.1947993368506 875.9114556394544 -5.301123648089578
    vertex 401.1129524331058 875.9114556400657 -9.395227487975625
    vertex 397.3940790349606 875.9114556400182 -13.057568835594317
  endloop
endfacet
facet normal -1.2489186977745994e-11 1.0 7.289608068309636e-15
  outer loop
    vertex 352.1947993368506 875.9114556394544 -5.301123648089578
    vertex 397.3940790349606 875.9114556400182 -13.057568835594317
    vertex 378.50421162061417 875.9114556411919 -11.352234902625169
  endloop
endfacet
facet normal -1.2489186977745994e-11 1.0 7.289608068309636e-15
  outer loop
    vertex 378.50421162061417 875.9114556411919 -11.352234902625169
    vertex 397.3940790349606 875.9114556400182 -13.057568835594317
    vertex 393.1007903405157 875.9114556399655 -16.025806643461866
  endloop
endfacet
facet normal -1.2489186977745994e-11 1.0 7.289608068309636e-15
  outer loop
    vertex 378.50421162061417 875.9114556411919 -11.352234902625169
    vertex 393.1007903405157 875.9114556399655 -16.025806643461866
    vertex 378.86598305296104 875.9114556412205 -11.502085536382143
  endloop
endfacet
facet normal -1.2489186977745994e-11 1.0 7.289608068309636e-15
  outer loop
    vertex 378.86598305296104 875.9114556412205 -11.502085536382143
    vertex 393.1007903405157 875.9114556399655 -16.025806643461866
    vertex 388.36101032625555 875.9114556399057 -18.21149850517116
  endloop
endfacet
facet normal -1.2489186977745994e-11 1.0 7.289608068309636e-15
  outer loop
    vertex 378.86598305296104 875.9114556412205 -11.502085536382143
    vertex 388.36101032625555 875.9114556399057 -18.21149850517116
    vertex 379.17664322474076 875.9114556412447 -11.740463470279058
  endloop
endfacet
facet normal -1.2489186977745994e-11 1.0 7.289608068309636e-15
  outer loop
    vertex 379.17664322474076 875.9114556412447 -11.740463470279058
    vertex 388.36101032625555 875.9114556399057 -18.21149850517116
    vertex 379.4150211586377 875.9114556412628 -12.051123642058872
  endloop
endfacet
facet normal -1.2489186977745994e-11 1.0 7.289608068309636e-15
  outer loop
    vertex 379.4150211586377 875.9114556412628 -12.051123642058872
    vertex 388.36101032625555 875.9114556399057 -18.21149850517116
    vertex 383.3159667432733 875.9114556398431 -19.549518962304475
  endloop
endfacet
facet normal -1.2489186977745994e-11 1.0 7.289608068309636e-15
  outer loop
    vertex 379.4150211586377 875.9114556412628 -12.051123642058872
    vertex 383.3159667432733 875.9114556398431 -19.549518962304475
    vertex 379.5648717923946 875.9114556412742 -12.41289507440508
  endloop
endfacet
facet normal -1.2489186977745994e-11 1.0 7.289608068309636e-15
  outer loop
    vertex 379.5648717923946 875.9114556412742 -12.41289507440508
    vertex 383.3159667432733 875.9114556398431 -19.549518962304475
    vertex 379.61598305296087 875.911455641277 -12.80112364205888
  endloop
endfacet
facet normal -1.2489186977745994e-11 1.0 7.289608068309636e-15
  outer loop
    vertex 352.1947993368506 875.9114556394544 -5.301123648089578
    vertex 378.50421162061417 875.9114556411919 -11.352234902625169
    vertex 378.1159830529604 875.9114556411606 -11.301123642058775
  endloop
endfacet
facet normal -1.2489186977745994e-11 1.0 7.289608068309636e-15
  outer loop
    vertex 352.1947993368506 875.9114556394544 -5.301123648089578
    vertex 378.1159830529604 875.9114556411606 -11.301123642058775
    vertex 377.72775448530666 875.911455641129 -11.352234902625147
  endloop
endfacet
facet normal -1.2489186977745994e-11 1.0 7.289608068309636e-15
  outer loop
    vertex 352.1947993368506 875.9114556394544 -5.301123648089578
    vertex 377.72775448530666 875.911455641129 -11.352234902625147
    vertex 377.3659830529609 875.9114556410992 -11.5020855363821
  endloop
endfacet
facet normal -1.2489186977745994e-11 1.0 7.289608068309636e-15
  outer loop
    vertex 352.1947993368506 875.9114556394544 -5.301123648089578
    vertex 377.3659830529609 875.9114556410992 -11.5020855363821
    vertex 377.05532288118104 875.9114556410731 -11.740463470278927
  endloop
endfacet
facet normal -1.2489186977745994e-11 1.0 7.289608068309636e-15
  outer loop
    vertex 352.1947993368506 875.9114556394544 -5.301123648089578
    vertex 377.05532288118104 875.9114556410731 -11.740463470278927
    vertex 376.81694494728436 875.9114556410533 -12.05112364205872
  endloop
endfacet
facet normal -1.2489186977745994e-11 1.0 7.289608068309636e-15
  outer loop
    vertex 352.1947993368506 875.9114556394544 -5.301123648089578
    vertex 376.81694494728436 875.9114556410533 -12.05112364205872
    vertex 376.6670943135272 875.9114556410393 -12.412895074404908
  endloop
endfacet
facet normal -1.2489186977745994e-11 1.0 7.289608068309636e-15
  outer loop
    vertex 352.1947993368506 875.9114556394544 -5.301123648089578
    vertex 376.6670943135272 875.9114556410393 -12.412895074404908
    vertex 376.61598305296076 875.9114556410341 -12.80112364205873
  endloop
endfacet
facet normal -1.2489186977745994e-11 1.0 7.289608068309636e-15
  outer loop
    vertex 352.1947993368506 875.9114556394544 -5.301123648089578
    vertex 376.61598305296076 875.9114556410341 -12.80112364205873
    vertex 372.91599937144343 875.9114556397128 -19.54951896495321
  endloop
endfacet
facet normal -1.2489186977745994e-11 1.0 7.289608068309636e-15
  outer loop
    vertex 352.1947993368506 875.9114556394544 -5.301123648089578
    vertex 372.91599937144343 875.9114556397128 -19.54951896495321
    vertex 367.8709557877787 875.9114556396504 -18.211498510387806
  endloop
endfacet
facet normal -1.2489186977745994e-11 1.0 7.289608068309636e-15
  outer loop
    vertex 352.1947993368506 875.9114556394544 -5.301123648089578
    vertex 367.8709557877787 875.9114556396504 -18.211498510387806
    vertex 363.13117577240536 875.9114556395912 -16.02580665109423
  endloop
endfacet
facet normal -1.2489186977745994e-11 1.0 7.289608068309636e-15
  outer loop
    vertex 352.1947993368506 875.9114556394544 -5.301123648089578
    vertex 363.13117577240536 875.9114556395912 -16.02580665109423
    vertex 358.83788707644914 875.9114556395365 -13.057568845414114
  endloop
endfacet
facet normal -1.2489186977745994e-11 1.0 7.289608068309636e-15
  outer loop
    vertex 352.1947993368506 875.9114556394544 -5.301123648089578
    vertex 358.83788707644914 875.9114556395365 -13.057568845414114
    vertex 355.11901367643816 875.911455639491 -9.395227499688852
  endloop
endfacet
facet normal 0.13052619222001666 7.35126926006081e-12 -0.9914448613738152
  outer loop
    vertex 377.72775448530666 875.911455641129 -11.352234902625147
    vertex 378.11598305323554 872.5114556132303 -11.301123642047639
    vertex 377.72775448558184 872.5114556131987 -11.352234902614011
  endloop
endfacet
facet normal 0.13052619222001666 7.35126926006081e-12 -0.9914448613738152
  outer loop
    vertex 378.11598305323554 872.5114556132303 -11.301123642047639
    vertex 377.72775448530666 875.911455641129 -11.352234902625147
    vertex 378.1159830529604 875.9114556411606 -11.301123642058775
  endloop
endfacet
facet normal 0.3826834323655077 2.797979059268875e-11 -0.9238795325111139
  outer loop
    vertex 377.3659830529609 875.9114556410992 -11.5020855363821
    vertex 377.72775448558184 872.5114556131987 -11.352234902614011
    vertex 377.3659830532361 872.5114556131689 -11.502085536370965
  endloop
endfacet
facet normal 0.3826834323655077 2.797979059268875e-11 -0.9238795325111139
  outer loop
    vertex 377.72775448558184 872.5114556131987 -11.352234902614011
    vertex 377.3659830529609 875.9114556410992 -11.5020855363821
    vertex 377.72775448530666 875.911455641129 -11.352234902625147
  endloop
endfacet
facet normal 0.6087614290086617 4.670153543514093e-11 -0.7933533402912804
  outer loop
    vertex 377.05532288118104 875.9114556410731 -11.740463470278927
    vertex 377.3659830532361 872.5114556131689 -11.502085536370965
    vertex 377.0553228814562 872.5114556131427 -11.740463470267745
  endloop
endfacet
facet normal 0.6087614290086617 4.670153543514093e-11 -0.7933533402912804
  outer loop
    vertex 377.3659830532361 872.5114556131689 -11.502085536370965
    vertex 377.05532288118104 875.9114556410731 -11.740463470278927
    vertex 377.3659830529609 875.9114556410992 -11.5020855363821
  endloop
endfacet
facet normal 0.7933533402913622 6.224064781567939e-11 -0.6087614290085552
  outer loop
    vertex 377.05532288118104 875.9114556410731 -11.740463470278927
    vertex 376.81694494755953 872.5114556131227 -12.051123642047493
    vertex 376.81694494728436 875.9114556410533 -12.05112364205872
  endloop
endfacet
facet normal 0.7933533402913622 6.224064781567939e-11 -0.6087614290085552
  outer loop
    vertex 376.81694494755953 872.5114556131227 -12.051123642047493
    vertex 377.05532288118104 875.9114556410731 -11.740463470278927
    vertex 377.0553228814562 872.5114556131427 -11.740463470267745
  endloop
endfacet
facet normal 0.9238795325111069 7.353816290507128e-11 -0.3826834323655244
  outer loop
    vertex 376.81694494728436 875.9114556410533 -12.05112364205872
    vertex 376.6670943138024 872.5114556131089 -12.412895074393703
    vertex 376.6670943135272 875.9114556410393 -12.412895074404908
  endloop
endfacet
facet normal 0.9238795325111069 7.353816290507128e-11 -0.3826834323655244
  outer loop
    vertex 376.6670943138024 872.5114556131089 -12.412895074393703
    vertex 376.81694494728436 875.9114556410533 -12.05112364205872
    vertex 376.81694494755953 872.5114556131227 -12.051123642047493
  endloop
endfacet
facet normal 0.9914448613738065 7.982417372008403e-11 -0.1305261922200819
  outer loop
    vertex 376.6670943135272 875.9114556410393 -12.412895074404908
    vertex 376.615983053236 872.5114556131037 -12.801123642047504
    vertex 376.61598305296076 875.9114556410341 -12.80112364205873
  endloop
endfacet
facet normal 0.9914448613738065 7.982417372008403e-11 -0.1305261922200819
  outer loop
    vertex 376.615983053236 872.5114556131037 -12.801123642047504
    vertex 376.6670943135272 875.9114556410393 -12.412895074404908
    vertex 376.6670943138024 872.5114556131089 -12.412895074393703
  endloop
endfacet
facet normal -0.38268343236456065 -3.3968763576554254e-11 -0.923879532511506
  outer loop
    vertex 378.50421162061417 875.9114556411919 -11.352234902625169
    vertex 378.8659830532362 872.5114556132902 -11.502085536370894
    vertex 378.50421162088935 872.5114556132613 -11.352234902613942
  endloop
endfacet
facet normal -0.38268343236456065 -3.3968763576554254e-11 -0.923879532511506
  outer loop
    vertex 378.8659830532362 872.5114556132902 -11.502085536370894
    vertex 378.50421162061417 875.9114556411919 -11.352234902625169
    vertex 378.86598305296104 875.9114556412205 -11.502085536382143
  endloop
endfacet
facet normal -0.13052619221997608 -1.3778228924047448e-11 -0.9914448613738204
  outer loop
    vertex 378.1159830529604 875.9114556411606 -11.301123642058775
    vertex 378.50421162088935 872.5114556132613 -11.352234902613942
    vertex 378.11598305323554 872.5114556132303 -11.301123642047639
  endloop
endfacet
facet normal -0.13052619221997608 -1.3778228924047448e-11 -0.9914448613738204
  outer loop
    vertex 378.50421162088935 872.5114556132613 -11.352234902613942
    vertex 378.1159830529604 875.9114556411606 -11.301123642058775
    vertex 378.50421162061417 875.9114556411919 -11.352234902625169
  endloop
endfacet
facet normal -0.9238795325108504 -7.353816290504856e-11 0.3826834323661432
  outer loop
    vertex 379.41502115891234 872.5114556133274 -13.551123642047553
    vertex 379.56487179239457 875.911455641272 -13.189352209712636
    vertex 379.41502115863716 875.9114556412577 -13.551123642058846
  endloop
endfacet
facet normal -0.9238795325108504 -7.353816290504856e-11 0.3826834323661432
  outer loop
    vertex 379.56487179239457 875.911455641272 -13.189352209712636
    vertex 379.41502115891234 872.5114556133274 -13.551123642047553
    vertex 379.56487179266975 872.5114556133417 -13.189352209701346
  endloop
endfacet
facet normal -0.9914448613738482 -7.982417372008847e-11 0.13052619221976447
  outer loop
    vertex 379.56487179266975 872.5114556133417 -13.189352209701346
    vertex 379.61598305296087 875.911455641277 -12.80112364205888
    vertex 379.56487179239457 875.911455641272 -13.189352209712636
  endloop
endfacet
facet normal -0.9914448613738482 -7.982417372008847e-11 0.13052619221976447
  outer loop
    vertex 379.61598305296087 875.911455641277 -12.80112364205888
    vertex 379.56487179266975 872.5114556133417 -13.189352209701346
    vertex 379.61598305323605 872.5114556133467 -12.801123642047585
  endloop
endfacet
facet normal 0.7933533402914261 6.618689364503825e-11 0.608761429008472
  outer loop
    vertex 376.8169449472838 875.9114556410476 -13.551123642058693
    vertex 377.0553228814557 872.5114556131356 -13.861783813827394
    vertex 377.05532288118053 875.9114556410659 -13.86178381383853
  endloop
endfacet
facet normal 0.7933533402914261 6.618689364503825e-11 0.608761429008472
  outer loop
    vertex 377.0553228814557 872.5114556131356 -13.861783813827394
    vertex 376.8169449472838 875.9114556410476 -13.551123642058693
    vertex 376.816944947559 872.5114556131173 -13.55112364204747
  endloop
endfacet
facet normal -0.9238795325112945 -7.601887673972266e-11 -0.38268343236507146
  outer loop
    vertex 379.5648717926698 872.5114556133439 -12.412895074393786
    vertex 379.4150211586377 875.9114556412628 -12.051123642058872
    vertex 379.5648717923946 875.9114556412742 -12.41289507440508
  endloop
endfacet
facet normal -0.9238795325112945 -7.601887673972266e-11 -0.38268343236507146
  outer loop
    vertex 379.4150211586377 875.9114556412628 -12.051123642058872
    vertex 379.5648717926698 872.5114556133439 -12.412895074393786
    vertex 379.4150211589129 872.5114556133325 -12.051123642047578
  endloop
endfacet
facet normal -0.7933533402910707 -6.618689364501098e-11 -0.6087614290089349
  outer loop
    vertex 379.4150211589129 872.5114556133325 -12.051123642047578
    vertex 379.17664322474076 875.9114556412447 -11.740463470279058
    vertex 379.4150211586377 875.9114556412628 -12.051123642058872
  endloop
endfacet
facet normal -0.7933533402910707 -6.618689364501098e-11 -0.6087614290089349
  outer loop
    vertex 379.17664322474076 875.9114556412447 -11.740463470279058
    vertex 379.4150211589129 872.5114556133325 -12.051123642047578
    vertex 379.17664322501594 872.5114556133142 -11.740463470267764
  endloop
endfacet
facet normal 0.8137471542235445 -3.136750472392877e-05 -0.5812190361723906
  outer loop
    vertex 404.0371667706093 875.9114556401016 -5.30112363488471
    vertex 401.11298078492035 872.5114556117627 -9.395004300644715
    vertex 401.1129524331058 875.9114556400657 -9.395227487975625
  endloop
endfacet
facet normal 0.8137471542235445 -3.136750472392877e-05 -0.5812190361723906
  outer loop
    vertex 401.11298078492035 872.5114556117627 -9.395004300644715
    vertex 404.0371667706093 875.9114556401016 -5.30112363488471
    vertex 404.03719512242367 872.5114556117987 -5.300900447554117
  endloop
endfacet
facet normal -0.6087614290088925 -5.18443831274436e-11 -0.7933533402911034
  outer loop
    vertex 378.86598305296104 875.9114556412205 -11.502085536382143
    vertex 379.17664322501594 872.5114556133142 -11.740463470267764
    vertex 378.8659830532362 872.5114556132902 -11.502085536370894
  endloop
endfacet
facet normal -0.6087614290088925 -5.18443831274436e-11 -0.7933533402911034
  outer loop
    vertex 379.17664322501594 872.5114556133142 -11.740463470267764
    vertex 378.86598305296104 875.9114556412205 -11.502085536382143
    vertex 379.17664322474076 875.9114556412447 -11.740463470279058
  endloop
endfacet
facet normal 0.9238795325115879 7.601887673974409e-11 0.3826834323643626
  outer loop
    vertex 376.6670943135272 875.9114556410372 -13.189352209712464
    vertex 376.816944947559 872.5114556131173 -13.55112364204747
    vertex 376.8169449472838 875.9114556410476 -13.551123642058693
  endloop
endfacet
facet normal 0.9238795325115879 7.601887673974409e-11 0.3826834323643626
  outer loop
    vertex 376.816944947559 872.5114556131173 -13.55112364204747
    vertex 376.6670943135272 875.9114556410372 -13.189352209712464
    vertex 376.6670943138024 872.5114556131067 -13.18935220970126
  endloop
endfacet
facet normal -0.9914448613738638 -8.067029901174519e-11 -0.13052619221964704
  outer loop
    vertex 379.61598305323605 872.5114556133467 -12.801123642047585
    vertex 379.5648717923946 875.9114556412742 -12.41289507440508
    vertex 379.61598305296087 875.911455641277 -12.80112364205888
  endloop
endfacet
facet normal -0.9914448613738638 -8.067029901174519e-11 -0.13052619221964704
  outer loop
    vertex 379.5648717923946 875.9114556412742 -12.41289507440508
    vertex 379.61598305323605 872.5114556133467 -12.801123642047585
    vertex 379.5648717926698 872.5114556133439 -12.412895074393786
  endloop
endfacet
facet normal -0.38268343236513747 -2.7979790592658276e-11 0.9238795325112671
  outer loop
    vertex 378.86598305323565 872.5114556132821 -14.100161747724172
    vertex 378.50421162061417 875.911455641182 -14.250012381492375
    vertex 378.5042116208894 872.5114556132515 -14.250012381481168
  endloop
endfacet
facet normal -0.38268343236513747 -2.7979790592658276e-11 0.9238795325112671
  outer loop
    vertex 378.50421162061417 875.911455641182 -14.250012381492375
    vertex 378.86598305323565 872.5114556132821 -14.100161747724172
    vertex 378.8659830529605 875.9114556412126 -14.100161747735466
  endloop
endfacet
facet normal 0.9914448613738013 8.067029901174169e-11 0.13052619222012246
  outer loop
    vertex 376.61598305296076 875.9114556410341 -12.80112364205873
    vertex 376.6670943138024 872.5114556131067 -13.18935220970126
    vertex 376.6670943135272 875.9114556410372 -13.189352209712464
  endloop
endfacet
facet normal 0.9914448613738013 8.067029901174169e-11 0.13052619222012246
  outer loop
    vertex 376.6670943138024 872.5114556131067 -13.18935220970126
    vertex 376.61598305296076 875.9114556410341 -12.80112364205873
    vertex 376.615983053236 872.5114556131037 -12.801123642047504
  endloop
endfacet
facet normal 0.3826834323651275 3.3968763576599374e-11 0.9238795325112713
  outer loop
    vertex 377.72775448558184 872.5114556131888 -14.25001238148124
    vertex 377.36598305296036 875.9114556410914 -14.100161747735378
    vertex 377.3659830532356 872.511455613161 -14.100161747724242
  endloop
endfacet
facet normal 0.3826834323651275 3.3968763576599374e-11 0.9238795325112713
  outer loop
    vertex 377.36598305296036 875.9114556410914 -14.100161747735378
    vertex 377.72775448558184 872.5114556131888 -14.25001238148124
    vertex 377.72775448530666 875.9114556411193 -14.250012381492375
  endloop
endfacet
facet normal 0.13052619222006254 1.3778228924054407e-11 0.991444861373809
  outer loop
    vertex 378.1159830532356 872.511455613221 -14.301123642047632
    vertex 377.72775448530666 875.9114556411193 -14.250012381492375
    vertex 377.72775448558184 872.5114556131888 -14.25001238148124
  endloop
endfacet
facet normal 0.13052619222006254 1.3778228924054407e-11 0.991444861373809
  outer loop
    vertex 377.72775448530666 875.9114556411193 -14.250012381492375
    vertex 378.1159830532356 872.511455613221 -14.301123642047632
    vertex 378.1159830529604 875.9114556411513 -14.30112364205877
  endloop
endfacet
facet normal 9.590953408728488e-12 -1.0 5.952148248315929e-11
  outer loop
    vertex 352.194827688665 872.5114556111515 -5.300900460757992
    vertex 401.11298078492035 872.5114556117627 -9.395004300644715
    vertex 404.03719512242367 872.5114556117987 -5.300900447554117
  endloop
endfacet
facet normal 9.590953408728488e-12 -1.0 5.952148248315929e-11
  outer loop
    vertex 401.11298078492035 872.5114556117627 -9.395004300644715
    vertex 352.194827688665 872.5114556111515 -5.300900460757992
    vertex 397.3941073867753 872.5114556117154 -13.057345648263723
  endloop
endfacet
facet normal 9.590953408728488e-12 -1.0 5.952148248315929e-11
  outer loop
    vertex 397.3941073867753 872.5114556117154 -13.057345648263723
    vertex 352.194827688665 872.5114556111515 -5.300900460757992
    vertex 378.50421162088935 872.5114556132613 -11.352234902613942
  endloop
endfacet
facet normal 9.590953408728488e-12 -1.0 5.952148248315929e-11
  outer loop
    vertex 397.3941073867753 872.5114556117154 -13.057345648263723
    vertex 378.50421162088935 872.5114556132613 -11.352234902613942
    vertex 393.10081869233005 872.5114556116627 -16.025583456132146
  endloop
endfacet
facet normal 9.590953408728488e-12 -1.0 5.952148248315929e-11
  outer loop
    vertex 393.10081869233005 872.5114556116627 -16.025583456132146
    vertex 378.50421162088935 872.5114556132613 -11.352234902613942
    vertex 378.8659830532362 872.5114556132902 -11.502085536370894
  endloop
endfacet
facet normal 9.590953408728488e-12 -1.0 5.952148248315929e-11
  outer loop
    vertex 393.10081869233005 872.5114556116627 -16.025583456132146
    vertex 378.8659830532362 872.5114556132902 -11.502085536370894
    vertex 388.3610386780699 872.511455611603 -18.211275317839547
  endloop
endfacet
facet normal 9.590953408728488e-12 -1.0 5.952148248315929e-11
  outer loop
    vertex 388.3610386780699 872.511455611603 -18.211275317839547
    vertex 378.8659830532362 872.5114556132902 -11.502085536370894
    vertex 379.17664322501594 872.5114556133142 -11.740463470267764
  endloop
endfacet
facet normal 9.590953408728488e-12 -1.0 5.952148248315929e-11
  outer loop
    vertex 388.3610386780699 872.511455611603 -18.211275317839547
    vertex 379.17664322501594 872.5114556133142 -11.740463470267764
    vertex 379.4150211589129 872.5114556133325 -12.051123642047578
  endloop
endfacet
facet normal 9.590953408728488e-12 -1.0 5.952148248315929e-11
  outer loop
    vertex 388.3610386780699 872.511455611603 -18.211275317839547
    vertex 379.4150211589129 872.5114556133325 -12.051123642047578
    vertex 383.31599509508766 872.5114556115403 -19.549295774973878
  endloop
endfacet
facet normal 9.590953408728488e-12 -1.0 5.952148248315929e-11
  outer loop
    vertex 383.31599509508766 872.5114556115403 -19.549295774973878
    vertex 379.4150211589129 872.5114556133325 -12.051123642047578
    vertex 379.5648717926698 872.5114556133439 -12.412895074393786
  endloop
endfacet
facet normal 9.590953408728488e-12 -1.0 5.952148248315929e-11
  outer loop
    vertex 383.31599509508766 872.5114556115403 -19.549295774973878
    vertex 379.5648717926698 872.5114556133439 -12.412895074393786
    vertex 379.61598305323605 872.5114556133467 -12.801123642047585
  endloop
endfacet
facet normal 9.590953408728488e-12 -1.0 5.952148248315929e-11
  outer loop
    vertex 378.50421162088935 872.5114556132613 -11.352234902613942
    vertex 352.194827688665 872.5114556111515 -5.300900460757992
    vertex 378.11598305323554 872.5114556132303 -11.301123642047639
  endloop
endfacet
facet normal 9.590953408728488e-12 -1.0 5.952148248315929e-11
  outer loop
    vertex 378.11598305323554 872.5114556132303 -11.301123642047639
    vertex 352.194827688665 872.5114556111515 -5.300900460757992
    vertex 377.72775448558184 872.5114556131987 -11.352234902614011
  endloop
endfacet
facet normal 9.590953408728488e-12 -1.0 5.952148248315929e-11
  outer loop
    vertex 377.72775448558184 872.5114556131987 -11.352234902614011
    vertex 352.194827688665 872.5114556111515 -5.300900460757992
    vertex 377.3659830532361 872.5114556131689 -11.502085536370965
  endloop
endfacet
facet normal 9.590953408728488e-12 -1.0 5.952148248315929e-11
  outer loop
    vertex 377.3659830532361 872.5114556131689 -11.502085536370965
    vertex 352.194827688665 872.5114556111515 -5.300900460757992
    vertex 377.0553228814562 872.5114556131427 -11.740463470267745
  endloop
endfacet
facet normal 9.590953408728488e-12 -1.0 5.952148248315929e-11
  outer loop
    vertex 377.0553228814562 872.5114556131427 -11.740463470267745
    vertex 352.194827688665 872.5114556111515 -5.300900460757992
    vertex 376.81694494755953 872.5114556131227 -12.051123642047493
  endloop
endfacet
facet normal 9.590953408728488e-12 -1.0 5.952148248315929e-11
  outer loop
    vertex 376.81694494755953 872.5114556131227 -12.051123642047493
    vertex 352.194827688665 872.5114556111515 -5.300900460757992
    vertex 376.6670943138024 872.5114556131089 -12.412895074393703
  endloop
endfacet
facet normal 9.590953408728488e-12 -1.0 5.952148248315929e-11
  outer loop
    vertex 376.6670943138024 872.5114556131089 -12.412895074393703
    vertex 352.194827688665 872.5114556111515 -5.300900460757992
    vertex 376.615983053236 872.5114556131037 -12.801123642047504
  endloop
endfacet
facet normal 9.590953408728488e-12 -1.0 5.952148248315929e-11
  outer loop
    vertex 376.615983053236 872.5114556131037 -12.801123642047504
    vertex 352.194827688665 872.5114556111515 -5.300900460757992
    vertex 372.916027723258 872.51145561141 -19.54929577762248
  endloop
endfacet
facet normal 9.590953408728488e-12 -1.0 5.952148248315929e-11
  outer loop
    vertex 372.916027723258 872.51145561141 -19.54929577762248
    vertex 352.194827688665 872.5114556111515 -5.300900460757992
    vertex 367.87098413959325 872.5114556113474 -18.211275323057208
  endloop
endfacet
facet normal 9.590953408728488e-12 -1.0 5.952148248315929e-11
  outer loop
    vertex 367.87098413959325 872.5114556113474 -18.211275323057208
    vertex 352.194827688665 872.5114556111515 -5.300900460757992
    vertex 363.13120412422 872.5114556112884 -16.025583463763724
  endloop
endfacet
facet normal 9.590953408728488e-12 -1.0 5.952148248315929e-11
  outer loop
    vertex 363.13120412422 872.5114556112884 -16.025583463763724
    vertex 352.194827688665 872.5114556111515 -5.300900460757992
    vertex 358.83791542826356 872.5114556112337 -13.057345658083205
  endloop
endfacet
facet normal 9.590953408728488e-12 -1.0 5.952148248315929e-11
  outer loop
    vertex 358.83791542826356 872.5114556112337 -13.057345658083205
    vertex 352.194827688665 872.5114556111515 -5.300900460757992
    vertex 355.1190420282525 872.511455611188 -9.395004312358257
  endloop
endfacet
facet normal 9.590953408728488e-12 -1.0 5.952148248315929e-11
  outer loop
    vertex 383.31599509508766 872.5114556115403 -19.549295774973878
    vertex 379.56487179266975 872.5114556133417 -13.189352209701346
    vertex 378.11601140928764 872.5114556114755 -19.999776812670234
  endloop
endfacet
facet normal 9.590953408728488e-12 -1.0 5.952148248315929e-11
  outer loop
    vertex 379.56487179266975 872.5114556133417 -13.189352209701346
    vertex 383.31599509508766 872.5114556115403 -19.549295774973878
    vertex 379.61598305323605 872.5114556133467 -12.801123642047585
  endloop
endfacet
facet normal 9.590953408728488e-12 -1.0 5.952148248315929e-11
  outer loop
    vertex 378.11601140928764 872.5114556114755 -19.999776812670234
    vertex 379.56487179266975 872.5114556133417 -13.189352209701346
    vertex 379.41502115891234 872.5114556133274 -13.551123642047553
  endloop
endfacet
facet normal 9.590953408728488e-12 -1.0 5.952148248315929e-11
  outer loop
    vertex 378.11601140928764 872.5114556114755 -19.999776812670234
    vertex 379.41502115891234 872.5114556133274 -13.551123642047553
    vertex 379.17664322501537 872.5114556133077 -13.861783813827367
  endloop
endfacet
facet normal 9.590953408728488e-12 -1.0 5.952148248315929e-11
  outer loop
    vertex 378.11601140928764 872.5114556114755 -19.999776812670234
    vertex 379.17664322501537 872.5114556133077 -13.861783813827367
    vertex 378.86598305323565 872.5114556132821 -14.100161747724172
  endloop
endfacet
facet normal 9.590953408728488e-12 -1.0 5.952148248315929e-11
  outer loop
    vertex 378.11601140928764 872.5114556114755 -19.999776812670234
    vertex 378.86598305323565 872.5114556132821 -14.100161747724172
    vertex 378.5042116208894 872.5114556132515 -14.250012381481168
  endloop
endfacet
facet normal 9.590953408728488e-12 -1.0 5.952148248315929e-11
  outer loop
    vertex 378.11601140928764 872.5114556114755 -19.999776812670234
    vertex 378.5042116208894 872.5114556132515 -14.250012381481168
    vertex 378.1159830532356 872.511455613221 -14.301123642047632
  endloop
endfacet
facet normal 9.590953408728488e-12 -1.0 5.952148248315929e-11
  outer loop
    vertex 378.11601140928764 872.5114556114755 -19.999776812670234
    vertex 378.1159830532356 872.511455613221 -14.301123642047632
    vertex 372.916027723258 872.51145561141 -19.54929577762248
  endloop
endfacet
facet normal 9.590953408728488e-12 -1.0 5.952148248315929e-11
  outer loop
    vertex 372.916027723258 872.51145561141 -19.54929577762248
    vertex 378.1159830532356 872.511455613221 -14.301123642047632
    vertex 377.72775448558184 872.5114556131888 -14.25001238148124
  endloop
endfacet
facet normal 9.590953408728488e-12 -1.0 5.952148248315929e-11
  outer loop
    vertex 372.916027723258 872.51145561141 -19.54929577762248
    vertex 377.72775448558184 872.5114556131888 -14.25001238148124
    vertex 377.3659830532356 872.511455613161 -14.100161747724242
  endloop
endfacet
facet normal 9.590953408728488e-12 -1.0 5.952148248315929e-11
  outer loop
    vertex 372.916027723258 872.51145561141 -19.54929577762248
    vertex 377.3659830532356 872.511455613161 -14.100161747724242
    vertex 377.0553228814557 872.5114556131356 -13.861783813827394
  endloop
endfacet
facet normal 9.590953408728488e-12 -1.0 5.952148248315929e-11
  outer loop
    vertex 372.916027723258 872.51145561141 -19.54929577762248
    vertex 377.0553228814557 872.5114556131356 -13.861783813827394
    vertex 376.816944947559 872.5114556131173 -13.55112364204747
  endloop
endfacet
facet normal 9.590953408728488e-12 -1.0 5.952148248315929e-11
  outer loop
    vertex 372.916027723258 872.51145561141 -19.54929577762248
    vertex 376.816944947559 872.5114556131173 -13.55112364204747
    vertex 376.6670943138024 872.5114556131067 -13.18935220970126
  endloop
endfacet
facet normal 9.590953408728488e-12 -1.0 5.952148248315929e-11
  outer loop
    vertex 372.916027723258 872.51145561141 -19.54929577762248
    vertex 376.6670943138024 872.5114556131067 -13.18935220970126
    vertex 376.615983053236 872.5114556131037 -12.801123642047504
  endloop
endfacet
facet normal -0.13052619222004344 -7.351269260062988e-12 0.9914448613738115
  outer loop
    vertex 378.5042116208894 872.5114556132515 -14.250012381481168
    vertex 378.1159830529604 875.9114556411513 -14.30112364205877
    vertex 378.1159830532356 872.511455613221 -14.301123642047632
  endloop
endfacet
facet normal -0.13052619222004344 -7.351269260062988e-12 0.9914448613738115
  outer loop
    vertex 378.1159830529604 875.9114556411513 -14.30112364205877
    vertex 378.5042116208894 872.5114556132515 -14.250012381481168
    vertex 378.50421162061417 875.911455641182 -14.250012381492375
  endloop
endfacet
facet normal -0.6087614290088202 -4.670153543515415e-11 0.7933533402911588
  outer loop
    vertex 379.17664322501537 872.5114556133077 -13.861783813827367
    vertex 378.8659830529605 875.9114556412126 -14.100161747735466
    vertex 378.86598305323565 872.5114556132821 -14.100161747724172
  endloop
endfacet
facet normal -0.6087614290088202 -4.670153543515415e-11 0.7933533402911588
  outer loop
    vertex 378.8659830529605 875.9114556412126 -14.100161747735466
    vertex 379.17664322501537 872.5114556133077 -13.861783813827367
    vertex 379.1766432247402 875.911455641238 -13.861783813838661
  endloop
endfacet
facet normal 0.6087614290086615 5.184438312742549e-11 0.7933533402912807
  outer loop
    vertex 377.3659830532356 872.511455613161 -14.100161747724242
    vertex 377.05532288118053 875.9114556410659 -13.86178381383853
    vertex 377.0553228814557 872.5114556131356 -13.861783813827394
  endloop
endfacet
facet normal 0.6087614290086615 5.184438312742549e-11 0.7933533402912807
  outer loop
    vertex 377.05532288118053 875.9114556410659 -13.86178381383853
    vertex 377.3659830532356 872.511455613161 -14.100161747724242
    vertex 377.36598305296036 875.9114556410914 -14.100161747735378
  endloop
endfacet
facet normal -0.7933533402910774 -6.22406478156552e-11 0.6087614290089263
  outer loop
    vertex 379.17664322501537 872.5114556133077 -13.861783813827367
    vertex 379.41502115863716 875.9114556412577 -13.551123642058846
    vertex 379.1766432247402 875.911455641238 -13.861783813838661
  endloop
endfacet
facet normal -0.7933533402910774 -6.22406478156552e-11 0.6087614290089263
  outer loop
    vertex 379.41502115863716 875.9114556412577 -13.551123642058846
    vertex 379.17664322501537 872.5114556133077 -13.861783813827367
    vertex 379.41502115891234 872.5114556133274 -13.551123642047553
  endloop
endfacet
facet normal -0.8137471535061525 -4.4938803652343006e-05 -0.581219036285924
  outer loop
    vertex 355.1190420282525 872.511455611188 -9.395004312358257
    vertex 352.1947993368506 875.9114556394544 -5.301123648089578
    vertex 355.11901367643816 875.911455639491 -9.395227499688852
  endloop
endfacet
facet normal -0.8137471535061525 -4.4938803652343006e-05 -0.581219036285924
  outer loop
    vertex 352.1947993368506 875.9114556394544 -5.301123648089578
    vertex 355.1190420282525 872.511455611188 -9.395004312358257
    vertex 352.194827688665 872.5114556111515 -5.300900460757992
  endloop
endfacet
facet normal -0.4187582283601413 -6.310249084798466e-05 -0.9080977602652436
  outer loop
    vertex 363.13117577240536 875.9114556395912 -16.02580665109423
    vertex 367.87098413959325 872.5114556113474 -18.211275323057208
    vertex 363.13120412422 872.5114556112884 -16.025583463763724
  endloop
endfacet
facet normal -0.4187582283601413 -6.310249084798466e-05 -0.9080977602652436
  outer loop
    vertex 367.87098413959325 872.5114556113474 -18.211275323057208
    vertex 363.13117577240536 875.9114556395912 -16.02580665109423
    vertex 367.8709557877787 875.9114556396504 -18.211498510387806
  endloop
endfacet
facet normal -0.5686867523910301 -5.8737344361016296e-05 -0.8225541770636556
  outer loop
    vertex 358.83788707644914 875.9114556395365 -13.057568845414114
    vertex 363.13120412422 872.5114556112884 -16.025583463763724
    vertex 358.83791542826356 872.5114556112337 -13.057345658083205
  endloop
endfacet
facet normal -0.5686867523910301 -5.8737344361016296e-05 -0.8225541770636556
  outer loop
    vertex 363.13120412422 872.5114556112884 -16.025583463763724
    vertex 358.83788707644914 875.9114556395365 -13.057568845414114
    vertex 363.13117577240536 875.9114556395912 -16.02580665109423
  endloop
endfacet
facet normal -0.7016705342040089 -5.262204421390126e-05 -0.7125015499357045
  outer loop
    vertex 355.11901367643816 875.911455639491 -9.395227499688852
    vertex 358.83791542826356 872.5114556112337 -13.057345658083205
    vertex 355.1190420282525 872.511455611188 -9.395004312358257
  endloop
endfacet
facet normal -0.7016705342040089 -5.262204421390126e-05 -0.7125015499357045
  outer loop
    vertex 358.83791542826356 872.5114556112337 -13.057345658083205
    vertex 355.11901367643816 875.911455639491 -9.395227499688852
    vertex 358.83788707644914 875.9114556395365 -13.057568845414114
  endloop
endfacet
facet normal 0.5686867531012909 -4.925304940489113e-05 -0.8225541771951854
  outer loop
    vertex 393.1007903405157 875.9114556399655 -16.025806643461866
    vertex 397.3941073867753 872.5114556117154 -13.057345648263723
    vertex 393.10081869233005 872.5114556116627 -16.025583456132146
  endloop
endfacet
facet normal 0.5686867531012909 -4.925304940489113e-05 -0.8225541771951854
  outer loop
    vertex 397.3941073867753 872.5114556117154 -13.057345648263723
    vertex 393.1007903405157 875.9114556399655 -16.025806643461866
    vertex 397.3940790349606 875.9114556400182 -13.057568835594317
  endloop
endfacet
facet normal -2.5470291928531454e-10 6.564333197124259e-05 0.9999999978454766
  outer loop
    vertex 406.73724264705425 869.811506698044 -4.550526281613421
    vertex 349.4948018319417 878.6115067139976 -4.551103957516881
    vertex 349.4948752131077 869.8115066973293 -4.550526296192346
  endloop
endfacet
facet normal -2.5470291928531454e-10 6.564333197124259e-05 0.9999999978454766
  outer loop
    vertex 349.4948018319417 878.6115067139976 -4.551103957516881
    vertex 406.73724264705425 869.811506698044 -4.550526281613421
    vertex 406.73716926588827 878.6115067147124 -4.5511039429362645
  endloop
endfacet
facet normal -1.2466284415972464e-11 0.9999999976812922 -6.809857426860062e-05
  outer loop
    vertex 349.494801838386 878.6114556400671 -5.301103955777852
    vertex 406.73716926588827 878.6115067147124 -4.5511039429362645
    vertex 406.73716927233255 878.6114556407815 -5.301103941197235
  endloop
endfacet
facet normal -1.2466284415972464e-11 0.9999999976812922 -6.809857426860062e-05
  outer loop
    vertex 406.73716926588827 878.6115067147124 -4.5511039429362645
    vertex 349.494801838386 878.6114556400671 -5.301103955777852
    vertex 349.4948018319417 878.6115067139976 -4.551103957516881
  endloop
endfacet
facet normal 0.9999999999652326 8.338769372267916e-06 8.02458922744283e-09
  outer loop
    vertex 406.73716926588827 878.6115067147124 -4.5511039429362645
    vertex 406.7372426534986 869.8114556241131 -5.300526279874392
    vertex 406.73716927233255 878.6114556407815 -5.301103941197235
  endloop
endfacet
facet normal 0.9999999999652326 8.338769372267916e-06 8.02458922744283e-09
  outer loop
    vertex 406.7372426534986 869.8114556241131 -5.300526279874392
    vertex 406.73716926588827 878.6115067147124 -4.5511039429362645
    vertex 406.73724264705425 869.811506698044 -4.550526281613421
  endloop
endfacet
facet normal 1.2466502010874304e-11 -0.9999999976812921 6.80985742686006e-05
  outer loop
    vertex 406.73724264705425 869.811506698044 -4.550526281613421
    vertex 349.4948752195521 869.8114556233985 -5.3005262944533165
    vertex 406.7372426534986 869.8114556241131 -5.300526279874392
  endloop
endfacet
facet normal 1.2466502010874304e-11 -0.9999999976812921 6.80985742686006e-05
  outer loop
    vertex 349.4948752195521 869.8114556233985 -5.3005262944533165
    vertex 406.73724264705425 869.811506698044 -4.550526281613421
    vertex 349.4948752131077 869.8115066973293 -4.550526296192346
  endloop
endfacet
facet normal -0.9999999999652326 -8.338769382522331e-06 -8.024589226744518e-09
  outer loop
    vertex 349.4948752195521 869.8114556233985 -5.3005262944533165
    vertex 349.4948018319417 878.6115067139976 -4.551103957516881
    vertex 349.494801838386 878.6114556400671 -5.301103955777852
  endloop
endfacet
facet normal -0.9999999999652326 -8.338769382522331e-06 -8.024589226744518e-09
  outer loop
    vertex 349.4948018319417 878.6115067139976 -4.551103957516881
    vertex 349.4948752195521 869.8114556233985 -5.3005262944533165
    vertex 349.4948752131077 869.8115066973293 -4.550526296192346
  endloop
endfacet
facet normal 1.059324718343807e-08 -6.812888519623165e-05 -0.9999999976792275
  outer loop
    vertex 349.4948752195521 869.8114556233985 -5.3005262944533165
    vertex 352.194827688665 872.5114556111515 -5.300900460757992
    vertex 406.7372426534986 869.8114556241131 -5.300526279874392
  endloop
endfacet
facet normal 1.059324718343807e-08 -6.812888519623165e-05 -0.9999999976792275
  outer loop
    vertex 352.194827688665 872.5114556111515 -5.300900460757992
    vertex 349.4948752195521 869.8114556233985 -5.3005262944533165
    vertex 349.494801838386 878.6114556400671 -5.301103955777852
  endloop
endfacet
facet normal 1.059324718343807e-08 -6.812888519623165e-05 -0.9999999976792275
  outer loop
    vertex 352.194827688665 872.5114556111515 -5.300900460757992
    vertex 349.494801838386 878.6114556400671 -5.301103955777852
    vertex 352.1947993368506 875.9114556394544 -5.301123648089578
  endloop
endfacet
facet normal 1.059324718343807e-08 -6.812888519623165e-05 -0.9999999976792275
  outer loop
    vertex 352.1947993368506 875.9114556394544 -5.301123648089578
    vertex 349.494801838386 878.6114556400671 -5.301103955777852
    vertex 404.0371667706093 875.9114556401016 -5.30112363488471
  endloop
endfacet
facet normal 1.059324718343807e-08 -6.812888519623165e-05 -0.9999999976792275
  outer loop
    vertex 406.7372426534986 869.8114556241131 -5.300526279874392
    vertex 404.03719512242367 872.5114556117987 -5.300900447554117
    vertex 406.73716927233255 878.6114556407815 -5.301103941197235
  endloop
endfacet
facet normal 1.059324718343807e-08 -6.812888519623165e-05 -0.9999999976792275
  outer loop
    vertex 404.03719512242367 872.5114556117987 -5.300900447554117
    vertex 406.7372426534986 869.8114556241131 -5.300526279874392
    vertex 352.194827688665 872.5114556111515 -5.300900460757992
  endloop
endfacet
facet normal 1.059324718343807e-08 -6.812888519623165e-05 -0.9999999976792275
  outer loop
    vertex 406.73716927233255 878.6114556407815 -5.301103941197235
    vertex 404.03719512242367 872.5114556117987 -5.300900447554117
    vertex 404.0371667706093 875.9114556401016 -5.30112363488471
  endloop
endfacet
facet normal 1.059324718343807e-08 -6.812888519623165e-05 -0.9999999976792275
  outer loop
    vertex 406.73716927233255 878.6114556407815 -5.301103941197235
    vertex 404.0371667706093 875.9114556401016 -5.30112363488471
    vertex 349.494801838386 878.6114556400671 -5.301103955777852
  endloop
endfacet
endsolid Design - Rolled
