solid Design - Rolled
facet normal -0.9238795325112605 0.38268343236515306 -2.6540439352007415e-15
  outer loop
    vertex -606.5362258147436 2.6999999999999824 -19.32806163291522
    vertex -606.6760864062501 2.3623466631435215 -21.22806163291505
    vertex -606.6760864062501 2.3623466631435086 -19.32806163291522
  endloop
endfacet
facet normal -0.9238795325112605 0.38268343236515306 -2.6540439352007415e-15
  outer loop
    vertex -606.6760864062501 2.3623466631435215 -21.22806163291505
    vertex -606.5362258147436 2.6999999999999824 -19.32806163291522
    vertex -606.5362258147436 2.699999999999995 -21.228061632915054
  endloop
endfacet
facet normal -0.9914448613738059 -0.13052619222008652 -6.462837235191021e-15
  outer loop
    vertex -606.7237902494454 1.9999999999999836 -19.32806163291522
    vertex -606.6760864062501 1.6376533368564712 -21.228061632915058
    vertex -606.6760864062501 1.6376533368564585 -19.32806163291522
  endloop
endfacet
facet normal -0.9914448613738059 -0.13052619222008652 -6.462837235191021e-15
  outer loop
    vertex -606.6760864062501 1.6376533368564712 -21.228061632915058
    vertex -606.7237902494454 1.9999999999999836 -19.32806163291522
    vertex -606.7237902494454 1.9999999999999962 -21.22806163291505
  endloop
endfacet
facet normal -0.793353340291238 -0.608761429008717 -8.542480538150537e-15
  outer loop
    vertex -606.5362258147436 1.299999999999985 -19.328061632915233
    vertex -606.3137397431066 1.010050506338841 -21.22806163291507
    vertex -606.3137397431066 1.010050506338828 -19.32806163291524
  endloop
endfacet
facet normal -0.793353340291238 -0.608761429008717 -8.542480538150537e-15
  outer loop
    vertex -606.3137397431066 1.010050506338841 -21.22806163291507
    vertex -606.5362258147436 1.299999999999985 -19.328061632915233
    vertex -606.5362258147436 1.2999999999999976 -21.228061632915065
  endloop
endfacet
facet normal 0.13052619222001782 -0.9914448613738149 -5.8856912147274535e-15
  outer loop
    vertex -605.3237902494454 0.5999999999999989 -21.22806163291511
    vertex -604.9614435863018 0.6477038431952805 -19.328061632915293
    vertex -605.3237902494454 0.5999999999999862 -19.328061632915276
  endloop
endfacet
facet normal 0.13052619222001782 -0.9914448613738149 -5.8856912147274535e-15
  outer loop
    vertex -604.9614435863018 0.6477038431952805 -19.328061632915293
    vertex -605.3237902494454 0.5999999999999989 -21.22806163291511
    vertex -604.9614435863018 0.6477038431952932 -21.228061632915125
  endloop
endfacet
facet normal -0.13052619222001785 -0.9914448613738149 -7.35653710100831e-15
  outer loop
    vertex -605.686136912589 0.6477038431952805 -19.328061632915265
    vertex -605.3237902494454 0.5999999999999989 -21.22806163291511
    vertex -605.3237902494454 0.5999999999999862 -19.328061632915276
  endloop
endfacet
facet normal -0.13052619222001785 -0.9914448613738149 -7.35653710100831e-15
  outer loop
    vertex -605.3237902494454 0.5999999999999989 -21.22806163291511
    vertex -605.686136912589 0.6477038431952805 -19.328061632915265
    vertex -605.686136912589 0.6477038431952932 -21.228061632915097
  endloop
endfacet
facet normal -0.38268343236510044 -0.9238795325112823 -8.32659887964338e-15
  outer loop
    vertex -606.0237902494454 0.7875644347017677 -19.328061632915254
    vertex -605.686136912589 0.6477038431952932 -21.228061632915097
    vertex -605.686136912589 0.6477038431952805 -19.328061632915265
  endloop
endfacet
facet normal -0.38268343236510044 -0.9238795325112823 -8.32659887964338e-15
  outer loop
    vertex -605.686136912589 0.6477038431952932 -21.228061632915097
    vertex -606.0237902494454 0.7875644347017677 -19.328061632915254
    vertex -606.0237902494454 0.7875644347017804 -21.228061632915086
  endloop
endfacet
facet normal 0.38268343236510033 -0.9238795325112823 -5.841252226042047e-15
  outer loop
    vertex -604.9614435863018 0.6477038431952805 -19.328061632915293
    vertex -604.6237902494454 0.7875644347017804 -21.228061632915136
    vertex -604.6237902494454 0.7875644347017677 -19.3280616329153
  endloop
endfacet
facet normal 0.38268343236510033 -0.9238795325112823 -5.841252226042047e-15
  outer loop
    vertex -604.6237902494454 0.7875644347017804 -21.228061632915136
    vertex -604.9614435863018 0.6477038431952805 -19.328061632915293
    vertex -604.9614435863018 0.6477038431952932 -21.228061632915125
  endloop
endfacet
facet normal 0.38268343236510033 -0.9238795325112823 -5.841252226042047e-15
  outer loop
    vertex -604.6237902494454 0.7875644347017804 -21.228061632915136
    vertex -604.9614435863018 0.6477038431952932 -21.228061632915125
    vertex -604.7926169178736 0.7176341389485481 -21.22806163291513
  endloop
endfacet
facet normal 0.793353340291238 -0.608761429008717 4.113048659526467e-16
  outer loop
    vertex -604.3338407557842 1.010050506338841 -21.228061632915143
    vertex -604.1113546841472 1.299999999999985 -19.328061632915315
    vertex -604.3338407557842 1.010050506338828 -19.32806163291531
  endloop
endfacet
facet normal 0.793353340291238 -0.608761429008717 4.113048659526467e-16
  outer loop
    vertex -604.1113546841472 1.299999999999985 -19.328061632915315
    vertex -604.3338407557842 1.010050506338841 -21.228061632915143
    vertex -604.1113546841472 1.2999999999999976 -21.22806163291515
  endloop
endfacet
facet normal 0.608761429008756 -0.7933533402912082 -1.862137669977479e-15
  outer loop
    vertex -604.6237902494454 0.7875644347017677 -19.3280616329153
    vertex -604.3338407557842 1.010050506338841 -21.228061632915143
    vertex -604.3338407557842 1.010050506338828 -19.32806163291531
  endloop
endfacet
facet normal 0.608761429008756 -0.7933533402912082 -1.862137669977479e-15
  outer loop
    vertex -604.3338407557842 1.010050506338841 -21.228061632915143
    vertex -604.6237902494454 0.7875644347017677 -19.3280616329153
    vertex -604.6237902494454 0.7875644347017804 -21.228061632915136
  endloop
endfacet
facet normal -0.793353340291238 0.608761429008717 -4.126556219097564e-16
  outer loop
    vertex -606.3137397431066 2.9899494936611393 -19.32806163291523
    vertex -606.5362258147436 2.699999999999995 -21.228061632915054
    vertex -606.5362258147436 2.6999999999999824 -19.32806163291522
  endloop
endfacet
facet normal -0.793353340291238 0.608761429008717 -4.126556219097564e-16
  outer loop
    vertex -606.5362258147436 2.699999999999995 -21.228061632915054
    vertex -606.3137397431066 2.9899494936611393 -19.32806163291523
    vertex -606.3137397431066 2.9899494936611517 -21.22806163291506
  endloop
endfacet
facet normal 0.793353340291238 0.608761429008717 8.541586361799151e-15
  outer loop
    vertex -604.1113546841472 2.699999999999995 -21.22806163291514
    vertex -604.3338407557842 2.9899494936611393 -19.328061632915297
    vertex -604.1113546841472 2.6999999999999824 -19.328061632915304
  endloop
endfacet
facet normal 0.793353340291238 0.608761429008717 8.541586361799151e-15
  outer loop
    vertex -604.3338407557842 2.9899494936611393 -19.328061632915297
    vertex -604.1113546841472 2.699999999999995 -21.22806163291514
    vertex -604.3338407557842 2.9899494936611517 -21.22806163291513
  endloop
endfacet
facet normal 0.38268343236510033 0.9238795325112823 8.326598879643384e-15
  outer loop
    vertex -604.6237902494454 3.2124355652982124 -21.228061632915118
    vertex -604.9614435863018 3.352296156804687 -19.328061632915272
    vertex -604.6237902494454 3.2124355652981995 -19.328061632915286
  endloop
endfacet
facet normal 0.38268343236510033 0.9238795325112823 8.326598879643384e-15
  outer loop
    vertex -604.9614435863018 3.352296156804687 -19.328061632915272
    vertex -604.6237902494454 3.2124355652982124 -21.228061632915118
    vertex -604.9614435863018 3.3522961568046994 -21.228061632915107
  endloop
endfacet
facet normal 0.608761429008756 0.7933533402912082 8.729583130511824e-15
  outer loop
    vertex -604.3338407557842 2.9899494936611517 -21.22806163291513
    vertex -604.6237902494454 3.2124355652981995 -19.328061632915286
    vertex -604.3338407557842 2.9899494936611393 -19.328061632915297
  endloop
endfacet
facet normal 0.608761429008756 0.7933533402912082 8.729583130511824e-15
  outer loop
    vertex -604.6237902494454 3.2124355652981995 -19.328061632915286
    vertex -604.3338407557842 2.9899494936611517 -21.22806163291513
    vertex -604.6237902494454 3.2124355652982124 -21.228061632915118
  endloop
endfacet
facet normal -0.608761429008756 -0.7933533402912082 -8.72958313051183e-15
  outer loop
    vertex -606.3137397431066 1.010050506338841 -21.22806163291507
    vertex -606.0237902494454 0.7875644347017677 -19.328061632915254
    vertex -606.3137397431066 1.010050506338828 -19.32806163291524
  endloop
endfacet
facet normal -0.608761429008756 -0.7933533402912082 -8.72958313051183e-15
  outer loop
    vertex -606.0237902494454 0.7875644347017677 -19.328061632915254
    vertex -606.3137397431066 1.010050506338841 -21.22806163291507
    vertex -606.0237902494454 0.7875644347017804 -21.228061632915086
  endloop
endfacet
facet normal 0.13052619222001788 0.9914448613738149 7.35749558543249e-15
  outer loop
    vertex -604.9614435863018 3.3522961568046994 -21.228061632915107
    vertex -605.3237902494454 3.3999999999999813 -19.328061632915258
    vertex -604.9614435863018 3.352296156804687 -19.328061632915272
  endloop
endfacet
facet normal 0.13052619222001788 0.9914448613738149 7.35749558543249e-15
  outer loop
    vertex -605.3237902494454 3.3999999999999813 -19.328061632915258
    vertex -604.9614435863018 3.3522961568046994 -21.228061632915107
    vertex -605.3237902494454 3.3999999999999937 -21.228061632915093
  endloop
endfacet
facet normal -0.13052619222001788 0.9914448613738149 5.886713598113294e-15
  outer loop
    vertex -605.3237902494454 3.3999999999999937 -21.228061632915093
    vertex -605.686136912589 3.352296156804687 -19.328061632915247
    vertex -605.3237902494454 3.3999999999999813 -19.328061632915258
  endloop
endfacet
facet normal -0.13052619222001788 0.9914448613738149 5.886713598113294e-15
  outer loop
    vertex -605.686136912589 3.352296156804687 -19.328061632915247
    vertex -605.3237902494454 3.3999999999999937 -21.228061632915093
    vertex -605.686136912589 3.3522961568046994 -21.228061632915082
  endloop
endfacet
facet normal 3.5579365473708625e-14 -5.616780752757762e-15 1.0
  outer loop
    vertex -603.9714940926406 2.362346663143518 -17.32806163291531
    vertex -603.9714940926406 1.6376533368564676 -17.328061632915315
    vertex -603.9237902494452 1.999999999999993 -17.32806163291532
  endloop
endfacet
facet normal 3.5579365473708625e-14 -5.616780752757762e-15 1.0
  outer loop
    vertex -603.9714940926406 1.6376533368564676 -17.328061632915315
    vertex -603.9714940926406 2.362346663143518 -17.32806163291531
    vertex -604.111354684147 2.6999999999999917 -17.328061632915304
  endloop
endfacet
facet normal 3.5579365473708625e-14 -5.616780752757762e-15 1.0
  outer loop
    vertex -603.9714940926406 1.6376533368564676 -17.328061632915315
    vertex -604.111354684147 2.6999999999999917 -17.328061632915304
    vertex -604.111354684147 1.299999999999994 -17.32806163291532
  endloop
endfacet
facet normal 3.5579365473708625e-14 -5.616780752757762e-15 1.0
  outer loop
    vertex -604.111354684147 1.299999999999994 -17.32806163291532
    vertex -604.111354684147 2.6999999999999917 -17.328061632915304
    vertex -604.8041750071745 2.300000000000015 -17.32806163291529
  endloop
endfacet
facet normal 3.5579365473708625e-14 -5.616780752757762e-15 1.0
  outer loop
    vertex -604.111354684147 1.299999999999994 -17.32806163291532
    vertex -604.8041750071745 2.300000000000015 -17.32806163291529
    vertex -604.7442347536719 2.1552914270615133 -17.32806163291529
  endloop
endfacet
facet normal 3.5579365473708625e-14 -5.616780752757762e-15 1.0
  outer loop
    vertex -604.111354684147 1.299999999999994 -17.32806163291532
    vertex -604.7442347536719 2.1552914270615133 -17.32806163291529
    vertex -604.7237902494453 1.999999999999993 -17.32806163291529
  endloop
endfacet
facet normal 3.5579365473708625e-14 -5.616780752757762e-15 1.0
  outer loop
    vertex -604.111354684147 1.299999999999994 -17.32806163291532
    vertex -604.7442347536719 1.8447085729384725 -17.32806163291529
    vertex -604.8041750071745 1.6999999999999709 -17.32806163291529
  endloop
endfacet
facet normal 3.5579365473708625e-14 -5.616780752757762e-15 1.0
  outer loop
    vertex -604.7442347536719 1.8447085729384725 -17.32806163291529
    vertex -604.111354684147 1.299999999999994 -17.32806163291532
    vertex -604.7237902494453 1.999999999999993 -17.32806163291529
  endloop
endfacet
facet normal -0.9238795325114763 0.38268343236463226 3.5020496478209826e-14
  outer loop
    vertex -604.8041750071745 1.6999999999999709 -17.32806163291529
    vertex -604.744234753672 1.8447085729384631 -19.32806163291529
    vertex -604.8041750071746 1.6999999999999615 -19.328061632915286
  endloop
endfacet
facet normal -0.9238795325114763 0.38268343236463226 3.5020496478209826e-14
  outer loop
    vertex -604.744234753672 1.8447085729384631 -19.32806163291529
    vertex -604.8041750071745 1.6999999999999709 -17.32806163291529
    vertex -604.7442347536719 1.8447085729384725 -17.32806163291529
  endloop
endfacet
facet normal -0.5000000000000194 -0.8660254037844275 1.2925407917479365e-14
  outer loop
    vertex -604.8041750071746 1.6999999999999615 -19.328061632915286
    vertex -604.111354684147 1.299999999999994 -17.32806163291532
    vertex -604.8041750071745 1.6999999999999709 -17.32806163291529
  endloop
endfacet
facet normal -0.5000000000000194 -0.8660254037844275 1.2925407917479365e-14
  outer loop
    vertex -604.111354684147 1.299999999999994 -17.32806163291532
    vertex -604.8041750071746 1.6999999999999615 -19.328061632915286
    vertex -604.1113546841472 1.299999999999985 -19.328061632915315
  endloop
endfacet
facet normal -0.5000000000000194 0.8660254037844275 2.265395755623065e-14
  outer loop
    vertex -604.1113546841472 2.6999999999999824 -19.328061632915304
    vertex -604.8041750071745 2.300000000000015 -17.32806163291529
    vertex -604.111354684147 2.6999999999999917 -17.328061632915304
  endloop
endfacet
facet normal -0.5000000000000194 0.8660254037844275 2.265395755623065e-14
  outer loop
    vertex -604.8041750071745 2.300000000000015 -17.32806163291529
    vertex -604.1113546841472 2.6999999999999824 -19.328061632915304
    vertex -604.8041750071746 2.3000000000000056 -19.328061632915286
  endloop
endfacet
facet normal -0.608761429008756 0.793353340291208 1.8591887863040005e-15
  outer loop
    vertex -606.0237902494454 3.2124355652982124 -21.22806163291507
    vertex -606.3137397431066 2.9899494936611393 -19.32806163291523
    vertex -606.0237902494454 3.2124355652981995 -19.328061632915237
  endloop
endfacet
facet normal -0.608761429008756 0.793353340291208 1.8591887863040005e-15
  outer loop
    vertex -606.3137397431066 2.9899494936611393 -19.32806163291523
    vertex -606.0237902494454 3.2124355652982124 -21.22806163291507
    vertex -606.3137397431066 2.9899494936611517 -21.22806163291506
  endloop
endfacet
facet normal -0.9238795325114763 -0.38268343236463226 3.072159860359994e-14
  outer loop
    vertex -604.7442347536719 2.1552914270615133 -17.32806163291529
    vertex -604.8041750071746 2.3000000000000056 -19.328061632915286
    vertex -604.744234753672 2.155291427061504 -19.328061632915286
  endloop
endfacet
facet normal -0.9238795325114763 -0.38268343236463226 3.072159860359994e-14
  outer loop
    vertex -604.8041750071746 2.3000000000000056 -19.328061632915286
    vertex -604.7442347536719 2.1552914270615133 -17.32806163291529
    vertex -604.8041750071745 2.300000000000015 -17.32806163291529
  endloop
endfacet
facet normal -0.9914448613737751 -0.13052619222032125 3.454184206565407e-14
  outer loop
    vertex -604.7237902494453 1.999999999999993 -17.32806163291529
    vertex -604.744234753672 2.155291427061504 -19.328061632915286
    vertex -604.7237902494454 1.9999999999999836 -19.32806163291529
  endloop
endfacet
facet normal -0.9914448613737751 -0.13052619222032125 3.454184206565407e-14
  outer loop
    vertex -604.744234753672 2.155291427061504 -19.328061632915286
    vertex -604.7237902494453 1.999999999999993 -17.32806163291529
    vertex -604.7442347536719 2.1552914270615133 -17.32806163291529
  endloop
endfacet
facet normal -0.9914448613737751 0.13052619222032125 3.600811607404179e-14
  outer loop
    vertex -604.7442347536719 1.8447085729384725 -17.32806163291529
    vertex -604.7237902494454 1.9999999999999836 -19.32806163291529
    vertex -604.744234753672 1.8447085729384631 -19.32806163291529
  endloop
endfacet
facet normal -0.9914448613737751 0.13052619222032125 3.600811607404179e-14
  outer loop
    vertex -604.7237902494454 1.9999999999999836 -19.32806163291529
    vertex -604.7442347536719 1.8447085729384725 -17.32806163291529
    vertex -604.7237902494453 1.999999999999993 -17.32806163291529
  endloop
endfacet
facet normal -0.9914448613738059 0.13052619222008655 -4.719424304982127e-15
  outer loop
    vertex -606.6760864062501 2.3623466631435086 -19.32806163291522
    vertex -606.7237902494454 1.9999999999999962 -21.22806163291505
    vertex -606.7237902494454 1.9999999999999836 -19.32806163291522
  endloop
endfacet
facet normal -0.9914448613738059 0.13052619222008655 -4.719424304982127e-15
  outer loop
    vertex -606.7237902494454 1.9999999999999962 -21.22806163291505
    vertex -606.6760864062501 2.3623466631435086 -19.32806163291522
    vertex -606.6760864062501 2.3623466631435215 -21.22806163291505
  endloop
endfacet
facet normal 0.8849161006171438 0.3665442504379569 0.28734788556630353
  outer loop
    vertex -603.3869376353402 2.5189780938076347 -19.32806163291533
    vertex -604.111354684147 2.6999999999999917 -17.328061632915304
    vertex -603.9714940926406 2.362346663143518 -17.32806163291531
  endloop
endfacet
facet normal 0.8849161006171438 0.3665442504379569 0.28734788556630353
  outer loop
    vertex -604.111354684147 2.6999999999999917 -17.328061632915304
    vertex -603.3869376353402 2.5189780938076347 -19.32806163291533
    vertex -603.5570269646405 2.9296100594191032 -19.32806163291532
  endloop
endfacet
facet normal -0.9238795325112605 -0.3826834323651531 -7.763714468228173e-15
  outer loop
    vertex -606.6760864062501 1.6376533368564585 -19.32806163291522
    vertex -606.5362258147436 1.2999999999999976 -21.228061632915065
    vertex -606.5362258147436 1.299999999999985 -19.328061632915233
  endloop
endfacet
facet normal -0.9238795325112605 -0.3826834323651531 -7.763714468228173e-15
  outer loop
    vertex -606.5362258147436 1.2999999999999976 -21.228061632915065
    vertex -606.6760864062501 1.6376533368564585 -19.32806163291522
    vertex -606.6760864062501 1.6376533368564712 -21.228061632915058
  endloop
endfacet
facet normal -0.38268343236510044 0.9238795325112823 2.1826632585162927e-15
  outer loop
    vertex -606.0237902494454 3.2124355652982124 -21.22806163291507
    vertex -606.0237902494454 3.2124355652981995 -19.328061632915237
    vertex -605.8549635810172 3.282365861051445 -21.22806163291507
  endloop
endfacet
facet normal -0.38268343236510044 0.9238795325112823 2.1826632585162927e-15
  outer loop
    vertex -605.686136912589 3.3522961568046994 -21.228061632915082
    vertex -606.0237902494454 3.2124355652981995 -19.328061632915237
    vertex -605.686136912589 3.352296156804687 -19.328061632915247
  endloop
endfacet
facet normal -0.38268343236510044 0.9238795325112823 2.1826632585162927e-15
  outer loop
    vertex -606.0237902494454 3.2124355652981995 -19.328061632915237
    vertex -605.686136912589 3.3522961568046994 -21.228061632915082
    vertex -605.8549635810172 3.282365861051445 -21.22806163291507
  endloop
endfacet
facet normal 0.9914448613738064 0.13052619222008252 5.685441168275964e-15
  outer loop
    vertex -603.9237902494453 1.9999999999999962 -21.228061632915153
    vertex -603.9714940926407 2.3623466631435313 -19.32806163291531
    vertex -603.9237902494453 1.9999999999999836 -19.32806163291532
  endloop
endfacet
facet normal 0.9914448613738064 0.13052619222008252 5.685441168275964e-15
  outer loop
    vertex -603.9714940926407 2.3623466631435313 -19.32806163291531
    vertex -603.9237902494453 1.9999999999999962 -21.228061632915153
    vertex -603.9714940926407 2.3623466631435215 -21.228061632915143
  endloop
endfacet
facet normal 3.467327398148327e-14 -6.790374415988529e-15 1.0
  outer loop
    vertex -604.3338407557842 2.9899494936611393 -19.328061632915297
    vertex -604.8041750071746 2.3000000000000056 -19.328061632915286
    vertex -604.1113546841472 2.6999999999999824 -19.328061632915304
  endloop
endfacet
facet normal 3.467327398148327e-14 -6.790374415988529e-15 1.0
  outer loop
    vertex -604.8041750071746 2.3000000000000056 -19.328061632915286
    vertex -604.3338407557842 2.9899494936611393 -19.328061632915297
    vertex -604.6237902494454 3.2124355652981995 -19.328061632915286
  endloop
endfacet
facet normal 3.467327398148327e-14 -6.790374415988529e-15 1.0
  outer loop
    vertex -604.8041750071746 2.3000000000000056 -19.328061632915286
    vertex -604.6237902494454 3.2124355652981995 -19.328061632915286
    vertex -604.9614435863018 3.352296156804687 -19.328061632915272
  endloop
endfacet
facet normal 3.467327398148327e-14 -6.790374415988529e-15 1.0
  outer loop
    vertex -604.8041750071746 2.3000000000000056 -19.328061632915286
    vertex -604.9614435863018 3.352296156804687 -19.328061632915272
    vertex -604.8041750071746 1.6999999999999615 -19.328061632915286
  endloop
endfacet
facet normal 3.467327398148327e-14 -6.790374415988529e-15 1.0
  outer loop
    vertex -604.744234753672 2.155291427061504 -19.328061632915286
    vertex -604.744234753672 1.8447085729384631 -19.32806163291529
    vertex -604.7237902494454 1.9999999999999836 -19.32806163291529
  endloop
endfacet
facet normal 3.467327398148327e-14 -6.790374415988529e-15 1.0
  outer loop
    vertex -604.744234753672 1.8447085729384631 -19.32806163291529
    vertex -604.744234753672 2.155291427061504 -19.328061632915286
    vertex -604.8041750071746 2.3000000000000056 -19.328061632915286
  endloop
endfacet
facet normal 3.467327398148327e-14 -6.790374415988529e-15 1.0
  outer loop
    vertex -604.744234753672 1.8447085729384631 -19.32806163291529
    vertex -604.8041750071746 2.3000000000000056 -19.328061632915286
    vertex -604.8041750071746 1.6999999999999615 -19.328061632915286
  endloop
endfacet
facet normal 3.467327398148327e-14 -6.790374415988529e-15 1.0
  outer loop
    vertex -604.8041750071746 1.6999999999999615 -19.328061632915286
    vertex -604.3338407557842 1.010050506338828 -19.32806163291531
    vertex -604.1113546841472 1.299999999999985 -19.328061632915315
  endloop
endfacet
facet normal 3.467327398148327e-14 -6.790374415988529e-15 1.0
  outer loop
    vertex -604.3338407557842 1.010050506338828 -19.32806163291531
    vertex -604.8041750071746 1.6999999999999615 -19.328061632915286
    vertex -604.6237902494454 0.7875644347017677 -19.3280616329153
  endloop
endfacet
facet normal 3.467327398148327e-14 -6.790374415988529e-15 1.0
  outer loop
    vertex -604.6237902494454 0.7875644347017677 -19.3280616329153
    vertex -604.8041750071746 1.6999999999999615 -19.328061632915286
    vertex -604.9614435863018 0.6477038431952805 -19.328061632915293
  endloop
endfacet
facet normal 3.467327398148327e-14 -6.790374415988529e-15 1.0
  outer loop
    vertex -604.9614435863018 0.6477038431952805 -19.328061632915293
    vertex -604.8041750071746 1.6999999999999615 -19.328061632915286
    vertex -604.9614435863018 3.352296156804687 -19.328061632915272
  endloop
endfacet
facet normal 3.467327398148327e-14 -6.790374415988529e-15 1.0
  outer loop
    vertex -604.9614435863018 0.6477038431952805 -19.328061632915293
    vertex -604.9614435863018 3.352296156804687 -19.328061632915272
    vertex -605.3237902494454 3.3999999999999813 -19.328061632915258
  endloop
endfacet
facet normal 3.467327398148327e-14 -6.790374415988529e-15 1.0
  outer loop
    vertex -604.9614435863018 0.6477038431952805 -19.328061632915293
    vertex -605.3237902494454 3.3999999999999813 -19.328061632915258
    vertex -605.3237902494454 0.5999999999999862 -19.328061632915276
  endloop
endfacet
facet normal 3.467327398148327e-14 -6.790374415988529e-15 1.0
  outer loop
    vertex -605.3237902494454 0.5999999999999862 -19.328061632915276
    vertex -605.3237902494454 3.3999999999999813 -19.328061632915258
    vertex -605.686136912589 3.352296156804687 -19.328061632915247
  endloop
endfacet
facet normal 3.467327398148327e-14 -6.790374415988529e-15 1.0
  outer loop
    vertex -605.3237902494454 0.5999999999999862 -19.328061632915276
    vertex -605.686136912589 3.352296156804687 -19.328061632915247
    vertex -605.686136912589 0.6477038431952805 -19.328061632915265
  endloop
endfacet
facet normal 3.467327398148327e-14 -6.790374415988529e-15 1.0
  outer loop
    vertex -605.686136912589 0.6477038431952805 -19.328061632915265
    vertex -605.686136912589 3.352296156804687 -19.328061632915247
    vertex -605.8434054917161 2.3000000000000056 -19.32806163291525
  endloop
endfacet
facet normal 3.467327398148327e-14 -6.790374415988529e-15 1.0
  outer loop
    vertex -605.8434054917161 2.3000000000000056 -19.32806163291525
    vertex -605.686136912589 3.352296156804687 -19.328061632915247
    vertex -606.0237902494454 3.2124355652981995 -19.328061632915237
  endloop
endfacet
facet normal 3.467327398148327e-14 -6.790374415988529e-15 1.0
  outer loop
    vertex -605.8434054917161 2.3000000000000056 -19.32806163291525
    vertex -606.0237902494454 3.2124355652981995 -19.328061632915237
    vertex -606.5362258147436 2.6999999999999824 -19.32806163291522
  endloop
endfacet
facet normal 3.467327398148327e-14 -6.790374415988529e-15 1.0
  outer loop
    vertex -606.5362258147436 2.6999999999999824 -19.32806163291522
    vertex -606.0237902494454 3.2124355652981995 -19.328061632915237
    vertex -606.3137397431066 2.9899494936611393 -19.32806163291523
  endloop
endfacet
facet normal 3.467327398148327e-14 -6.790374415988529e-15 1.0
  outer loop
    vertex -605.9033457452189 2.155291427061504 -19.328061632915247
    vertex -605.8434054917161 1.6999999999999615 -19.32806163291525
    vertex -605.8434054917161 2.3000000000000056 -19.32806163291525
  endloop
endfacet
facet normal 3.467327398148327e-14 -6.790374415988529e-15 1.0
  outer loop
    vertex -605.8434054917161 1.6999999999999615 -19.32806163291525
    vertex -605.9033457452189 2.155291427061504 -19.328061632915247
    vertex -605.9033457452189 1.8447085729384631 -19.328061632915247
  endloop
endfacet
facet normal 3.467327398148327e-14 -6.790374415988529e-15 1.0
  outer loop
    vertex -605.9033457452189 1.8447085729384631 -19.328061632915247
    vertex -605.9033457452189 2.155291427061504 -19.328061632915247
    vertex -605.9237902494455 1.9999999999999836 -19.328061632915244
  endloop
endfacet
facet normal 3.467327398148327e-14 -6.790374415988529e-15 1.0
  outer loop
    vertex -605.686136912589 0.6477038431952805 -19.328061632915265
    vertex -605.8434054917161 1.6999999999999615 -19.32806163291525
    vertex -606.0237902494454 0.7875644347017677 -19.328061632915254
  endloop
endfacet
facet normal 3.467327398148327e-14 -6.790374415988529e-15 1.0
  outer loop
    vertex -605.8434054917161 1.6999999999999615 -19.32806163291525
    vertex -605.686136912589 0.6477038431952805 -19.328061632915265
    vertex -605.8434054917161 2.3000000000000056 -19.32806163291525
  endloop
endfacet
facet normal 3.467327398148327e-14 -6.790374415988529e-15 1.0
  outer loop
    vertex -606.0237902494454 0.7875644347017677 -19.328061632915254
    vertex -605.8434054917161 1.6999999999999615 -19.32806163291525
    vertex -606.5362258147436 1.299999999999985 -19.328061632915233
  endloop
endfacet
facet normal 3.467327398148327e-14 -6.790374415988529e-15 1.0
  outer loop
    vertex -606.0237902494454 0.7875644347017677 -19.328061632915254
    vertex -606.5362258147436 1.299999999999985 -19.328061632915233
    vertex -606.3137397431066 1.010050506338828 -19.32806163291524
  endloop
endfacet
facet normal 0.9914448613738068 -0.13052619222007852 3.1706488808690184e-15
  outer loop
    vertex -603.9714940926407 1.6376533368564712 -21.22806163291515
    vertex -603.9237902494453 1.9999999999999836 -19.32806163291532
    vertex -603.9714940926407 1.6376533368564135 -19.328061632915315
  endloop
endfacet
facet normal 0.9914448613738068 -0.13052619222007852 3.1706488808690184e-15
  outer loop
    vertex -603.9237902494453 1.9999999999999836 -19.32806163291532
    vertex -603.9714940926407 1.6376533368564712 -21.22806163291515
    vertex -603.9237902494453 1.9999999999999962 -21.228061632915153
  endloop
endfacet
facet normal -0.8849161006171258 0.3665442504379622 0.28734788556635266
  outer loop
    vertex -606.5362258147436 2.700000000000014 -17.328061632915233
    vertex -607.2606428635506 2.5189780938076574 -19.3280616329152
    vertex -606.6760864062501 2.3623466631435406 -17.328061632915222
  endloop
endfacet
facet normal -0.8849161006171258 0.3665442504379622 0.28734788556635266
  outer loop
    vertex -607.2606428635506 2.5189780938076574 -19.3280616329152
    vertex -606.5362258147436 2.700000000000014 -17.328061632915233
    vertex -607.0905535342504 2.9296100594190584 -19.328061632915208
  endloop
endfacet
facet normal 0.38268343236513225 -0.9238795325112693 1.5058865445073073e-14
  outer loop
    vertex -606.5362258147436 1.299999999999985 -19.328061632915233
    vertex -606.5362258147436 1.3000000000000167 -17.328061632915222
    vertex -607.0905535342504 1.0703899405808863 -19.328061632915198
  endloop
endfacet
facet normal -0.38268343236512115 -0.9238795325112739 9.555424295183088e-15
  outer loop
    vertex -604.1113546841472 1.299999999999985 -19.328061632915315
    vertex -603.5570269646405 1.0703899405809316 -19.32806163291533
    vertex -604.111354684147 1.299999999999994 -17.32806163291532
  endloop
endfacet
facet normal 0.5000000000000194 -0.8660254037844274 1.6385593492200966e-14
  outer loop
    vertex -606.5362258147436 1.299999999999985 -19.328061632915233
    vertex -605.8434054917161 1.6999999999999933 -17.328061632915254
    vertex -606.5362258147436 1.3000000000000167 -17.328061632915222
  endloop
endfacet
facet normal 0.5000000000000194 -0.8660254037844274 1.6385593492200966e-14
  outer loop
    vertex -605.8434054917161 1.6999999999999933 -17.328061632915254
    vertex -606.5362258147436 1.299999999999985 -19.328061632915233
    vertex -605.8434054917161 1.6999999999999615 -19.32806163291525
  endloop
endfacet
facet normal 0.923879532511256 0.3826834323651641 5.495168134471452e-15
  outer loop
    vertex -604.1113546841472 2.699999999999995 -21.22806163291514
    vertex -603.9714940926407 2.3623466631435313 -19.32806163291531
    vertex -603.9714940926407 2.3623466631435215 -21.228061632915143
  endloop
endfacet
facet normal 0.923879532511256 0.3826834323651641 5.495168134471452e-15
  outer loop
    vertex -603.9714940926407 2.3623466631435313 -19.32806163291531
    vertex -604.1113546841472 2.699999999999995 -21.22806163291514
    vertex -604.1113546841472 2.6999999999999824 -19.328061632915304
  endloop
endfacet
facet normal 0.9238795325112514 -0.38268343236517494 -1.891340700407292e-15
  outer loop
    vertex -604.1113546841472 1.2999999999999976 -21.22806163291515
    vertex -603.9714940926407 1.6376533368564135 -19.328061632915315
    vertex -604.1113546841472 1.299999999999985 -19.328061632915315
  endloop
endfacet
facet normal 0.9238795325112514 -0.38268343236517494 -1.891340700407292e-15
  outer loop
    vertex -603.9714940926407 1.6376533368564135 -19.328061632915315
    vertex -604.1113546841472 1.2999999999999976 -21.22806163291515
    vertex -603.9714940926407 1.6376533368564712 -21.22806163291515
  endloop
endfacet
facet normal -0.8849161006171234 -0.3665442504379579 0.2873478855663646
  outer loop
    vertex -606.5362258147436 1.3000000000000167 -17.328061632915222
    vertex -607.2606428635506 1.4810219061923553 -19.328061632915194
    vertex -607.0905535342504 1.0703899405808863 -19.328061632915198
  endloop
endfacet
facet normal -0.8849161006171234 -0.3665442504379579 0.2873478855663646
  outer loop
    vertex -607.2606428635506 1.4810219061923553 -19.328061632915194
    vertex -606.5362258147436 1.3000000000000167 -17.328061632915222
    vertex -606.6760864062501 1.6376533368564903 -17.328061632915222
  endloop
endfacet
facet normal 0.9238795325114763 0.38268343236463215 1.12445770032716e-14
  outer loop
    vertex -605.9033457452189 1.8447085729384631 -19.328061632915247
    vertex -605.8434054917161 1.6999999999999933 -17.328061632915254
    vertex -605.8434054917161 1.6999999999999615 -19.32806163291525
  endloop
endfacet
facet normal 0.9238795325114763 0.38268343236463215 1.12445770032716e-14
  outer loop
    vertex -605.8434054917161 1.6999999999999933 -17.328061632915254
    vertex -605.9033457452189 1.8447085729384631 -19.328061632915247
    vertex -605.9033457452189 1.8447085729384949 -17.32806163291525
  endloop
endfacet
facet normal 0.9238795325114763 -0.38268343236463215 1.8596169015613302e-14
  outer loop
    vertex -605.8434054917161 2.3000000000000056 -19.32806163291525
    vertex -605.9033457452189 2.155291427061536 -17.32806163291525
    vertex -605.9033457452189 2.155291427061504 -19.328061632915247
  endloop
endfacet
facet normal 0.9238795325114763 -0.38268343236463215 1.8596169015613302e-14
  outer loop
    vertex -605.9033457452189 2.155291427061536 -17.32806163291525
    vertex -605.8434054917161 2.3000000000000056 -19.32806163291525
    vertex -605.8434054917161 2.3000000000000376 -17.328061632915254
  endloop
endfacet
facet normal -4.101679067740062e-14 -8.765205776550567e-16 -1.0
  outer loop
    vertex -607.0905535342504 1.0703899405808863 -19.328061632915198
    vertex -606.6760864062501 1.6376533368564585 -19.32806163291522
    vertex -606.5362258147436 1.299999999999985 -19.328061632915233
  endloop
endfacet
facet normal -4.101679067740062e-14 -8.765205776550567e-16 -1.0
  outer loop
    vertex -606.6760864062501 1.6376533368564585 -19.32806163291522
    vertex -607.0905535342504 1.0703899405808863 -19.328061632915198
    vertex -606.7237902494454 1.9999999999999836 -19.32806163291522
  endloop
endfacet
facet normal -4.101679067740062e-14 -8.765205776550567e-16 -1.0
  outer loop
    vertex -606.6760864062501 2.3623466631435086 -19.32806163291522
    vertex -607.0905535342504 2.9296100594190584 -19.328061632915208
    vertex -606.5362258147436 2.6999999999999824 -19.32806163291522
  endloop
endfacet
facet normal -4.101679067740062e-14 -8.765205776550567e-16 -1.0
  outer loop
    vertex -607.0905535342504 2.9296100594190584 -19.328061632915208
    vertex -606.6760864062501 2.3623466631435086 -19.32806163291522
    vertex -606.7237902494454 1.9999999999999836 -19.32806163291522
  endloop
endfacet
facet normal -4.101679067740062e-14 -8.765205776550567e-16 -1.0
  outer loop
    vertex -607.0905535342504 2.9296100594190584 -19.328061632915208
    vertex -606.7237902494454 1.9999999999999836 -19.32806163291522
    vertex -607.0905535342504 1.0703899405808863 -19.328061632915198
  endloop
endfacet
facet normal -4.101679067740062e-14 -8.765205776550567e-16 -1.0
  outer loop
    vertex -607.0905535342504 2.9296100594190584 -19.328061632915208
    vertex -607.0905535342504 1.0703899405808863 -19.328061632915198
    vertex -607.2606428635506 1.4810219061923553 -19.328061632915194
  endloop
endfacet
facet normal -4.101679067740062e-14 -8.765205776550567e-16 -1.0
  outer loop
    vertex -607.0905535342504 2.9296100594190584 -19.328061632915208
    vertex -607.2606428635506 1.4810219061923553 -19.328061632915194
    vertex -607.2606428635506 2.5189780938076574 -19.3280616329152
  endloop
endfacet
facet normal -4.101679067740062e-14 -8.765205776550567e-16 -1.0
  outer loop
    vertex -607.2606428635506 2.5189780938076574 -19.3280616329152
    vertex -607.2606428635506 1.4810219061923553 -19.328061632915194
    vertex -607.3289676257936 2.000000000000006 -19.328061632915194
  endloop
endfacet
facet normal 0.9496319485712924 0.1250214178182168 0.28734788556628255
  outer loop
    vertex -603.3869376353402 2.5189780938076347 -19.32806163291533
    vertex -603.9237902494452 1.999999999999993 -17.32806163291532
    vertex -603.3186128730973 1.9999999999999836 -19.328061632915336
  endloop
endfacet
facet normal 0.9496319485712924 0.1250214178182168 0.28734788556628255
  outer loop
    vertex -603.9237902494452 1.999999999999993 -17.32806163291532
    vertex -603.3869376353402 2.5189780938076347 -19.32806163291533
    vertex -603.9714940926406 2.362346663143518 -17.32806163291531
  endloop
endfacet
facet normal 0.8849161006171454 -0.3665442504379632 0.28734788556629065
  outer loop
    vertex -603.3869376353402 1.4810219061923326 -19.328061632915333
    vertex -604.111354684147 1.299999999999994 -17.32806163291532
    vertex -603.5570269646405 1.0703899405809316 -19.32806163291533
  endloop
endfacet
facet normal 0.8849161006171454 -0.3665442504379632 0.28734788556629065
  outer loop
    vertex -604.111354684147 1.299999999999994 -17.32806163291532
    vertex -603.3869376353402 1.4810219061923326 -19.328061632915333
    vertex -603.9714940926406 1.6376533368564676 -17.328061632915315
  endloop
endfacet
facet normal 0.9496319485712915 -0.125021417818219 0.2873478855662846
  outer loop
    vertex -603.3186128730973 1.9999999999999836 -19.328061632915336
    vertex -603.9714940926406 1.6376533368564676 -17.328061632915315
    vertex -603.3869376353402 1.4810219061923326 -19.328061632915333
  endloop
endfacet
facet normal 0.9496319485712915 -0.125021417818219 0.2873478855662846
  outer loop
    vertex -603.9714940926406 1.6376533368564676 -17.328061632915315
    vertex -603.3186128730973 1.9999999999999836 -19.328061632915336
    vertex -603.9237902494452 1.999999999999993 -17.32806163291532
  endloop
endfacet
facet normal 3.396869977648831e-14 4.45462473732583e-15 1.0
  outer loop
    vertex -606.5362258147436 2.700000000000014 -17.328061632915233
    vertex -605.9033457452189 2.155291427061536 -17.32806163291525
    vertex -605.8434054917161 2.3000000000000376 -17.328061632915254
  endloop
endfacet
facet normal 3.396869977648831e-14 4.45462473732583e-15 1.0
  outer loop
    vertex -605.9033457452189 2.155291427061536 -17.32806163291525
    vertex -606.5362258147436 2.700000000000014 -17.328061632915233
    vertex -605.9237902494455 2.0000000000000155 -17.328061632915247
  endloop
endfacet
facet normal 3.396869977648831e-14 4.45462473732583e-15 1.0
  outer loop
    vertex -605.9033457452189 1.8447085729384949 -17.32806163291525
    vertex -606.5362258147436 1.3000000000000167 -17.328061632915222
    vertex -605.8434054917161 1.6999999999999933 -17.328061632915254
  endloop
endfacet
facet normal 3.396869977648831e-14 4.45462473732583e-15 1.0
  outer loop
    vertex -606.5362258147436 1.3000000000000167 -17.328061632915222
    vertex -605.9033457452189 1.8447085729384949 -17.32806163291525
    vertex -605.9237902494455 2.0000000000000155 -17.328061632915247
  endloop
endfacet
facet normal 3.396869977648831e-14 4.45462473732583e-15 1.0
  outer loop
    vertex -606.5362258147436 1.3000000000000167 -17.328061632915222
    vertex -605.9237902494455 2.0000000000000155 -17.328061632915247
    vertex -606.5362258147436 2.700000000000014 -17.328061632915233
  endloop
endfacet
facet normal 3.396869977648831e-14 4.45462473732583e-15 1.0
  outer loop
    vertex -606.5362258147436 1.3000000000000167 -17.328061632915222
    vertex -606.5362258147436 2.700000000000014 -17.328061632915233
    vertex -606.6760864062501 2.3623466631435406 -17.328061632915222
  endloop
endfacet
facet normal 3.396869977648831e-14 4.45462473732583e-15 1.0
  outer loop
    vertex -606.5362258147436 1.3000000000000167 -17.328061632915222
    vertex -606.6760864062501 2.3623466631435406 -17.328061632915222
    vertex -606.6760864062501 1.6376533368564903 -17.328061632915222
  endloop
endfacet
facet normal 3.396869977648831e-14 4.45462473732583e-15 1.0
  outer loop
    vertex -606.6760864062501 1.6376533368564903 -17.328061632915222
    vertex -606.6760864062501 2.3623466631435406 -17.328061632915222
    vertex -606.7237902494454 2.0000000000000155 -17.32806163291522
  endloop
endfacet
facet normal -2.861433692726157e-14 6.079580250046569e-15 -1.0
  outer loop
    vertex -603.3869376353402 1.4810219061923326 -19.328061632915333
    vertex -603.3869376353402 2.5189780938076347 -19.32806163291533
    vertex -603.3186128730973 1.9999999999999836 -19.328061632915336
  endloop
endfacet
facet normal -2.861433692726157e-14 6.079580250046569e-15 -1.0
  outer loop
    vertex -603.3869376353402 2.5189780938076347 -19.32806163291533
    vertex -603.3869376353402 1.4810219061923326 -19.328061632915333
    vertex -603.5570269646405 1.0703899405809316 -19.32806163291533
  endloop
endfacet
facet normal -2.861433692726157e-14 6.079580250046569e-15 -1.0
  outer loop
    vertex -603.3869376353402 2.5189780938076347 -19.32806163291533
    vertex -603.5570269646405 1.0703899405809316 -19.32806163291533
    vertex -603.5570269646405 2.9296100594191032 -19.32806163291532
  endloop
endfacet
facet normal -2.861433692726157e-14 6.079580250046569e-15 -1.0
  outer loop
    vertex -603.5570269646405 2.9296100594191032 -19.32806163291532
    vertex -603.5570269646405 1.0703899405809316 -19.32806163291533
    vertex -603.9714940926407 1.6376533368564135 -19.328061632915315
  endloop
endfacet
facet normal -2.861433692726157e-14 6.079580250046569e-15 -1.0
  outer loop
    vertex -603.9714940926407 1.6376533368564135 -19.328061632915315
    vertex -603.5570269646405 1.0703899405809316 -19.32806163291533
    vertex -604.1113546841472 1.299999999999985 -19.328061632915315
  endloop
endfacet
facet normal -2.861433692726157e-14 6.079580250046569e-15 -1.0
  outer loop
    vertex -603.5570269646405 2.9296100594191032 -19.32806163291532
    vertex -603.9714940926407 1.6376533368564135 -19.328061632915315
    vertex -603.9237902494453 1.9999999999999836 -19.32806163291532
  endloop
endfacet
facet normal -2.861433692726157e-14 6.079580250046569e-15 -1.0
  outer loop
    vertex -603.5570269646405 2.9296100594191032 -19.32806163291532
    vertex -603.9714940926407 2.3623466631435313 -19.32806163291531
    vertex -604.1113546841472 2.6999999999999824 -19.328061632915304
  endloop
endfacet
facet normal -2.861433692726157e-14 6.079580250046569e-15 -1.0
  outer loop
    vertex -603.9714940926407 2.3623466631435313 -19.32806163291531
    vertex -603.5570269646405 2.9296100594191032 -19.32806163291532
    vertex -603.9237902494453 1.9999999999999836 -19.32806163291532
  endloop
endfacet
facet normal -0.9496319485712714 0.1250214178182179 0.28734788556635077
  outer loop
    vertex -606.7237902494454 2.0000000000000155 -17.32806163291522
    vertex -607.2606428635506 2.5189780938076574 -19.3280616329152
    vertex -607.3289676257936 2.000000000000006 -19.328061632915194
  endloop
endfacet
facet normal -0.9496319485712714 0.1250214178182179 0.28734788556635077
  outer loop
    vertex -607.2606428635506 2.5189780938076574 -19.3280616329152
    vertex -606.7237902494454 2.0000000000000155 -17.32806163291522
    vertex -606.6760864062501 2.3623466631435406 -17.328061632915222
  endloop
endfacet
facet normal 0.991444861373775 -0.1305261922203212 1.7264769329624116e-14
  outer loop
    vertex -605.9033457452189 2.155291427061504 -19.328061632915247
    vertex -605.9237902494455 2.0000000000000155 -17.328061632915247
    vertex -605.9237902494455 1.9999999999999836 -19.328061632915244
  endloop
endfacet
facet normal 0.991444861373775 -0.1305261922203212 1.7264769329624116e-14
  outer loop
    vertex -605.9237902494455 2.0000000000000155 -17.328061632915247
    vertex -605.9033457452189 2.155291427061504 -19.328061632915247
    vertex -605.9033457452189 2.155291427061536 -17.32806163291525
  endloop
endfacet
facet normal 0.5000000000000195 0.8660254037844274 -2.45496350311023e-16
  outer loop
    vertex -605.8434054917161 2.3000000000000056 -19.32806163291525
    vertex -606.5362258147436 2.700000000000014 -17.328061632915233
    vertex -605.8434054917161 2.3000000000000376 -17.328061632915254
  endloop
endfacet
facet normal 0.5000000000000195 0.8660254037844274 -2.45496350311023e-16
  outer loop
    vertex -606.5362258147436 2.700000000000014 -17.328061632915233
    vertex -605.8434054917161 2.3000000000000056 -19.32806163291525
    vertex -606.5362258147436 2.6999999999999824 -19.32806163291522
  endloop
endfacet
facet normal 0.991444861373775 0.1305261922203212 1.475660337388713e-14
  outer loop
    vertex -605.9237902494455 1.9999999999999836 -19.328061632915244
    vertex -605.9033457452189 1.8447085729384949 -17.32806163291525
    vertex -605.9033457452189 1.8447085729384631 -19.328061632915247
  endloop
endfacet
facet normal 0.991444861373775 0.1305261922203212 1.475660337388713e-14
  outer loop
    vertex -605.9033457452189 1.8447085729384949 -17.32806163291525
    vertex -605.9237902494455 1.9999999999999836 -19.328061632915244
    vertex -605.9237902494455 2.0000000000000155 -17.328061632915247
  endloop
endfacet
facet normal -0.9496319485712723 -0.12502141781821785 0.2873478855663485
  outer loop
    vertex -606.6760864062501 1.6376533368564903 -17.328061632915222
    vertex -607.3289676257936 2.000000000000006 -19.328061632915194
    vertex -607.2606428635506 1.4810219061923553 -19.328061632915194
  endloop
endfacet
facet normal -0.9496319485712723 -0.12502141781821785 0.2873478855663485
  outer loop
    vertex -607.3289676257936 2.000000000000006 -19.328061632915194
    vertex -606.6760864062501 1.6376533368564903 -17.328061632915222
    vertex -606.7237902494454 2.0000000000000155 -17.32806163291522
  endloop
endfacet
facet normal -0.38268343236521757 0.923879532511234 1.2630224445161518e-14
  outer loop
    vertex -604.1113546841472 2.6999999999999824 -19.328061632915304
    vertex -604.111354684147 2.6999999999999917 -17.328061632915304
    vertex -603.5570269646405 2.9296100594191032 -19.32806163291532
  endloop
endfacet
facet normal 0.38268343236510005 0.9238795325112825 -2.685946184232171e-15
  outer loop
    vertex -607.0905535342504 2.9296100594190584 -19.328061632915208
    vertex -606.5362258147436 2.700000000000014 -17.328061632915233
    vertex -606.5362258147436 2.6999999999999824 -19.32806163291522
  endloop
endfacet
facet normal -0.3826834323651686 -0.9238795325112541 1.276653575834177e-14
  outer loop
    vertex -606.3237902494453 0.2679491924311293 -21.22806163291508
    vertex -605.8414283396505 0.06814834742185928 -23.228061632915097
    vertex -605.8414283396505 0.06814834742185223 -21.228061632915097
  endloop
endfacet
facet normal -0.3826834323651686 -0.9238795325112541 1.276653575834177e-14
  outer loop
    vertex -605.8414283396505 0.06814834742185928 -23.228061632915097
    vertex -606.3237902494453 0.2679491924311293 -21.22806163291508
    vertex -606.3237902494454 0.26794919243113635 -23.22806163291508
  endloop
endfacet
facet normal -0.6087614290086575 -0.7933533402912838 2.2679135760018928e-14
  outer loop
    vertex -606.7380038118185 0.5857864376268977 -21.22806163291506
    vertex -606.3237902494454 0.26794919243113635 -23.22806163291508
    vertex -606.3237902494453 0.2679491924311293 -21.22806163291508
  endloop
endfacet
facet normal -0.6087614290086575 -0.7933533402912838 2.2679135760018928e-14
  outer loop
    vertex -606.3237902494454 0.26794919243113635 -23.22806163291508
    vertex -606.7380038118185 0.5857864376268977 -21.22806163291506
    vertex -606.7380038118185 0.5857864376269049 -23.22806163291506
  endloop
endfacet
facet normal 3.5193768243472045e-14 -6.661639784896429e-15 1.0
  outer loop
    vertex -603.3919385968672 2.517638090205042 -21.228061632915168
    vertex -603.3919385968672 1.4823619097949507 -21.228061632915175
    vertex -603.3237902494454 1.9999999999999962 -21.228061632915175
  endloop
endfacet
facet normal 3.5193768243472045e-14 -6.661639784896429e-15 1.0
  outer loop
    vertex -603.3919385968672 1.4823619097949507 -21.228061632915175
    vertex -603.3919385968672 2.517638090205042 -21.228061632915168
    vertex -603.5917394418765 2.9999999999999947 -21.228061632915157
  endloop
endfacet
facet normal 3.5193768243472045e-14 -6.661639784896429e-15 1.0
  outer loop
    vertex -603.3919385968672 1.4823619097949507 -21.228061632915175
    vertex -603.5917394418765 2.9999999999999947 -21.228061632915157
    vertex -603.5917394418765 0.9999999999999981 -21.22806163291517
  endloop
endfacet
facet normal 3.5193768243472045e-14 -6.661639784896429e-15 1.0
  outer loop
    vertex -603.5917394418765 0.9999999999999981 -21.22806163291517
    vertex -603.5917394418765 2.9999999999999947 -21.228061632915157
    vertex -603.9095766870723 3.414213562373095 -21.228061632915143
  endloop
endfacet
facet normal 3.5193768243472045e-14 -6.661639784896429e-15 1.0
  outer loop
    vertex -603.5917394418765 0.9999999999999981 -21.22806163291517
    vertex -603.9095766870723 3.414213562373095 -21.228061632915143
    vertex -603.9095766870723 0.5857864376268977 -21.22806163291516
  endloop
endfacet
facet normal 3.5193768243472045e-14 -6.661639784896429e-15 1.0
  outer loop
    vertex -603.9095766870723 0.5857864376268977 -21.22806163291516
    vertex -603.9095766870723 3.414213562373095 -21.228061632915143
    vertex -603.9237902494453 1.9999999999999962 -21.228061632915153
  endloop
endfacet
facet normal 3.5193768243472045e-14 -6.661639784896429e-15 1.0
  outer loop
    vertex -603.9237902494453 1.9999999999999962 -21.228061632915153
    vertex -603.9095766870723 3.414213562373095 -21.228061632915143
    vertex -603.9714940926407 2.3623466631435215 -21.228061632915143
  endloop
endfacet
facet normal 3.5193768243472045e-14 -6.661639784896429e-15 1.0
  outer loop
    vertex -603.9714940926407 2.3623466631435215 -21.228061632915143
    vertex -603.9095766870723 3.414213562373095 -21.228061632915143
    vertex -604.3237902494454 3.7320508075688634 -21.228061632915125
  endloop
endfacet
facet normal 3.5193768243472045e-14 -6.661639784896429e-15 1.0
  outer loop
    vertex -603.9714940926407 2.3623466631435215 -21.228061632915143
    vertex -604.3237902494454 3.7320508075688634 -21.228061632915125
    vertex -604.1113546841472 2.699999999999995 -21.22806163291514
  endloop
endfacet
facet normal 3.5193768243472045e-14 -6.661639784896429e-15 1.0
  outer loop
    vertex -604.1113546841472 2.699999999999995 -21.22806163291514
    vertex -604.3237902494454 3.7320508075688634 -21.228061632915125
    vertex -604.3338407557842 2.9899494936611517 -21.22806163291513
  endloop
endfacet
facet normal 3.5193768243472045e-14 -6.661639784896429e-15 1.0
  outer loop
    vertex -604.3338407557842 2.9899494936611517 -21.22806163291513
    vertex -604.3237902494454 3.7320508075688634 -21.228061632915125
    vertex -604.8061521592404 3.9318516525781404 -21.228061632915107
  endloop
endfacet
facet normal 3.5193768243472045e-14 -6.661639784896429e-15 1.0
  outer loop
    vertex -604.3338407557842 2.9899494936611517 -21.22806163291513
    vertex -604.8061521592404 3.9318516525781404 -21.228061632915107
    vertex -604.6237902494454 3.2124355652982124 -21.228061632915118
  endloop
endfacet
facet normal 3.5193768243472045e-14 -6.661639784896429e-15 1.0
  outer loop
    vertex -604.6237902494454 3.2124355652982124 -21.228061632915118
    vertex -604.8061521592404 3.9318516525781404 -21.228061632915107
    vertex -604.9614435863018 3.3522961568046994 -21.228061632915107
  endloop
endfacet
facet normal 3.5193768243472045e-14 -6.661639784896429e-15 1.0
  outer loop
    vertex -604.9614435863018 3.3522961568046994 -21.228061632915107
    vertex -604.8061521592404 3.9318516525781404 -21.228061632915107
    vertex -605.3237902494454 3.9999999999999925 -21.22806163291509
  endloop
endfacet
facet normal 3.5193768243472045e-14 -6.661639784896429e-15 1.0
  outer loop
    vertex -604.9614435863018 3.3522961568046994 -21.228061632915107
    vertex -605.3237902494454 3.9999999999999925 -21.22806163291509
    vertex -605.3237902494454 3.3999999999999937 -21.228061632915093
  endloop
endfacet
facet normal 3.5193768243472045e-14 -6.661639784896429e-15 1.0
  outer loop
    vertex -605.3237902494454 3.3999999999999937 -21.228061632915093
    vertex -605.3237902494454 3.9999999999999925 -21.22806163291509
    vertex -605.8414283396505 3.9318516525781404 -21.22806163291507
  endloop
endfacet
facet normal 3.5193768243472045e-14 -6.661639784896429e-15 1.0
  outer loop
    vertex -605.3237902494454 3.3999999999999937 -21.228061632915093
    vertex -605.8414283396505 3.9318516525781404 -21.22806163291507
    vertex -605.686136912589 3.3522961568046994 -21.228061632915082
  endloop
endfacet
facet normal 3.5193768243472045e-14 -6.661639784896429e-15 1.0
  outer loop
    vertex -605.686136912589 3.3522961568046994 -21.228061632915082
    vertex -605.8414283396505 3.9318516525781404 -21.22806163291507
    vertex -605.8549635810172 3.282365861051445 -21.22806163291507
  endloop
endfacet
facet normal 3.5193768243472045e-14 -6.661639784896429e-15 1.0
  outer loop
    vertex -605.8549635810172 3.282365861051445 -21.22806163291507
    vertex -605.8414283396505 3.9318516525781404 -21.22806163291507
    vertex -606.3237902494454 3.7320508075688634 -21.228061632915058
  endloop
endfacet
facet normal 3.5193768243472045e-14 -6.661639784896429e-15 1.0
  outer loop
    vertex -605.8549635810172 3.282365861051445 -21.22806163291507
    vertex -606.3237902494454 3.7320508075688634 -21.228061632915058
    vertex -606.0237902494454 3.2124355652982124 -21.22806163291507
  endloop
endfacet
facet normal 3.5193768243472045e-14 -6.661639784896429e-15 1.0
  outer loop
    vertex -606.0237902494454 3.2124355652982124 -21.22806163291507
    vertex -606.3237902494454 3.7320508075688634 -21.228061632915058
    vertex -606.3137397431066 2.9899494936611517 -21.22806163291506
  endloop
endfacet
facet normal 3.5193768243472045e-14 -6.661639784896429e-15 1.0
  outer loop
    vertex -606.3137397431066 2.9899494936611517 -21.22806163291506
    vertex -606.3237902494454 3.7320508075688634 -21.228061632915058
    vertex -606.5362258147436 2.699999999999995 -21.228061632915054
  endloop
endfacet
facet normal 3.5193768243472045e-14 -6.661639784896429e-15 1.0
  outer loop
    vertex -606.5362258147436 2.699999999999995 -21.228061632915054
    vertex -606.3237902494454 3.7320508075688634 -21.228061632915058
    vertex -606.7380038118185 3.414213562373095 -21.228061632915043
  endloop
endfacet
facet normal 3.5193768243472045e-14 -6.661639784896429e-15 1.0
  outer loop
    vertex -606.5362258147436 2.699999999999995 -21.228061632915054
    vertex -606.7380038118185 3.414213562373095 -21.228061632915043
    vertex -606.6760864062501 2.3623466631435215 -21.22806163291505
  endloop
endfacet
facet normal 3.5193768243472045e-14 -6.661639784896429e-15 1.0
  outer loop
    vertex -606.6760864062501 2.3623466631435215 -21.22806163291505
    vertex -606.7380038118185 3.414213562373095 -21.228061632915043
    vertex -606.7237902494454 1.9999999999999962 -21.22806163291505
  endloop
endfacet
facet normal 3.5193768243472045e-14 -6.661639784896429e-15 1.0
  outer loop
    vertex -603.9095766870723 0.5857864376268977 -21.22806163291516
    vertex -603.9714940926407 1.6376533368564712 -21.22806163291515
    vertex -604.3237902494453 0.2679491924311293 -21.22806163291515
  endloop
endfacet
facet normal 3.5193768243472045e-14 -6.661639784896429e-15 1.0
  outer loop
    vertex -603.9714940926407 1.6376533368564712 -21.22806163291515
    vertex -603.9095766870723 0.5857864376268977 -21.22806163291516
    vertex -603.9237902494453 1.9999999999999962 -21.228061632915153
  endloop
endfacet
facet normal 3.5193768243472045e-14 -6.661639784896429e-15 1.0
  outer loop
    vertex -604.3237902494453 0.2679491924311293 -21.22806163291515
    vertex -603.9714940926407 1.6376533368564712 -21.22806163291515
    vertex -604.1113546841472 1.2999999999999976 -21.22806163291515
  endloop
endfacet
facet normal 3.5193768243472045e-14 -6.661639784896429e-15 1.0
  outer loop
    vertex -604.3237902494453 0.2679491924311293 -21.22806163291515
    vertex -604.1113546841472 1.2999999999999976 -21.22806163291515
    vertex -604.3338407557842 1.010050506338841 -21.228061632915143
  endloop
endfacet
facet normal 3.5193768243472045e-14 -6.661639784896429e-15 1.0
  outer loop
    vertex -604.3237902494453 0.2679491924311293 -21.22806163291515
    vertex -604.3338407557842 1.010050506338841 -21.228061632915143
    vertex -604.8061521592404 0.06814834742187478 -21.228061632915136
  endloop
endfacet
facet normal 3.5193768243472045e-14 -6.661639784896429e-15 1.0
  outer loop
    vertex -604.8061521592404 0.06814834742187478 -21.228061632915136
    vertex -604.3338407557842 1.010050506338841 -21.228061632915143
    vertex -604.6237902494454 0.7875644347017804 -21.228061632915136
  endloop
endfacet
facet normal 3.5193768243472045e-14 -6.661639784896429e-15 1.0
  outer loop
    vertex -604.8061521592404 0.06814834742187478 -21.228061632915136
    vertex -604.6237902494454 0.7875644347017804 -21.228061632915136
    vertex -604.7926169178736 0.7176341389485481 -21.22806163291513
  endloop
endfacet
facet normal 3.5193768243472045e-14 -6.661639784896429e-15 1.0
  outer loop
    vertex -604.8061521592404 0.06814834742187478 -21.228061632915136
    vertex -604.7926169178736 0.7176341389485481 -21.22806163291513
    vertex -604.9614435863018 0.6477038431952932 -21.228061632915125
  endloop
endfacet
facet normal 3.5193768243472045e-14 -6.661639784896429e-15 1.0
  outer loop
    vertex -604.8061521592404 0.06814834742187478 -21.228061632915136
    vertex -604.9614435863018 0.6477038431952932 -21.228061632915125
    vertex -605.3237902494454 0.0 -21.228061632915114
  endloop
endfacet
facet normal 3.5193768243472045e-14 -6.661639784896429e-15 1.0
  outer loop
    vertex -605.3237902494454 0.0 -21.228061632915114
    vertex -604.9614435863018 0.6477038431952932 -21.228061632915125
    vertex -605.3237902494454 0.5999999999999989 -21.22806163291511
  endloop
endfacet
facet normal 3.5193768243472045e-14 -6.661639784896429e-15 1.0
  outer loop
    vertex -605.3237902494454 0.0 -21.228061632915114
    vertex -605.3237902494454 0.5999999999999989 -21.22806163291511
    vertex -605.686136912589 0.6477038431952932 -21.228061632915097
  endloop
endfacet
facet normal 3.5193768243472045e-14 -6.661639784896429e-15 1.0
  outer loop
    vertex -605.3237902494454 0.0 -21.228061632915114
    vertex -605.686136912589 0.6477038431952932 -21.228061632915097
    vertex -605.8414283396505 0.06814834742185223 -21.228061632915097
  endloop
endfacet
facet normal 3.5193768243472045e-14 -6.661639784896429e-15 1.0
  outer loop
    vertex -605.8414283396505 0.06814834742185223 -21.228061632915097
    vertex -605.686136912589 0.6477038431952932 -21.228061632915097
    vertex -606.0237902494454 0.7875644347017804 -21.228061632915086
  endloop
endfacet
facet normal 3.5193768243472045e-14 -6.661639784896429e-15 1.0
  outer loop
    vertex -605.8414283396505 0.06814834742185223 -21.228061632915097
    vertex -606.0237902494454 0.7875644347017804 -21.228061632915086
    vertex -606.3237902494453 0.2679491924311293 -21.22806163291508
  endloop
endfacet
facet normal 3.5193768243472045e-14 -6.661639784896429e-15 1.0
  outer loop
    vertex -606.3237902494453 0.2679491924311293 -21.22806163291508
    vertex -606.0237902494454 0.7875644347017804 -21.228061632915086
    vertex -606.3137397431066 1.010050506338841 -21.22806163291507
  endloop
endfacet
facet normal 3.5193768243472045e-14 -6.661639784896429e-15 1.0
  outer loop
    vertex -606.3237902494453 0.2679491924311293 -21.22806163291508
    vertex -606.3137397431066 1.010050506338841 -21.22806163291507
    vertex -606.5362258147436 1.2999999999999976 -21.228061632915065
  endloop
endfacet
facet normal 3.5193768243472045e-14 -6.661639784896429e-15 1.0
  outer loop
    vertex -606.3237902494453 0.2679491924311293 -21.22806163291508
    vertex -606.5362258147436 1.2999999999999976 -21.228061632915065
    vertex -606.7380038118185 0.5857864376268977 -21.22806163291506
  endloop
endfacet
facet normal 3.5193768243472045e-14 -6.661639784896429e-15 1.0
  outer loop
    vertex -606.7380038118185 0.5857864376268977 -21.22806163291506
    vertex -606.5362258147436 1.2999999999999976 -21.228061632915065
    vertex -606.6760864062501 1.6376533368564712 -21.228061632915058
  endloop
endfacet
facet normal 3.5193768243472045e-14 -6.661639784896429e-15 1.0
  outer loop
    vertex -606.7380038118185 0.5857864376268977 -21.22806163291506
    vertex -606.6760864062501 1.6376533368564712 -21.228061632915058
    vertex -606.7237902494454 1.9999999999999962 -21.22806163291505
  endloop
endfacet
facet normal 3.5193768243472045e-14 -6.661639784896429e-15 1.0
  outer loop
    vertex -606.7380038118185 0.5857864376268977 -21.22806163291506
    vertex -606.7237902494454 1.9999999999999962 -21.22806163291505
    vertex -606.7380038118185 3.414213562373095 -21.228061632915043
  endloop
endfacet
facet normal 3.5193768243472045e-14 -6.661639784896429e-15 1.0
  outer loop
    vertex -606.7380038118185 0.5857864376268977 -21.22806163291506
    vertex -606.7380038118185 3.414213562373095 -21.228061632915043
    vertex -607.0558410570143 2.9999999999999947 -21.228061632915033
  endloop
endfacet
facet normal 3.5193768243472045e-14 -6.661639784896429e-15 1.0
  outer loop
    vertex -606.7380038118185 0.5857864376268977 -21.22806163291506
    vertex -607.0558410570143 2.9999999999999947 -21.228061632915033
    vertex -607.0558410570143 0.9999999999999981 -21.22806163291505
  endloop
endfacet
facet normal 3.5193768243472045e-14 -6.661639784896429e-15 1.0
  outer loop
    vertex -607.0558410570143 0.9999999999999981 -21.22806163291505
    vertex -607.0558410570143 2.9999999999999947 -21.228061632915033
    vertex -607.2556419020236 2.517638090205042 -21.228061632915033
  endloop
endfacet
facet normal 3.5193768243472045e-14 -6.661639784896429e-15 1.0
  outer loop
    vertex -607.0558410570143 0.9999999999999981 -21.22806163291505
    vertex -607.2556419020236 2.517638090205042 -21.228061632915033
    vertex -607.2556419020236 1.4823619097949507 -21.22806163291504
  endloop
endfacet
facet normal 3.5193768243472045e-14 -6.661639784896429e-15 1.0
  outer loop
    vertex -607.2556419020236 1.4823619097949507 -21.22806163291504
    vertex -607.2556419020236 2.517638090205042 -21.228061632915033
    vertex -607.3237902494454 1.9999999999999962 -21.228061632915033
  endloop
endfacet
facet normal 0.6087614290086575 0.7933533402912838 -2.2689781230080548e-14
  outer loop
    vertex -603.9095766870724 3.414213562373102 -23.228061632915143
    vertex -604.3237902494454 3.7320508075688634 -21.228061632915125
    vertex -603.9095766870723 3.414213562373095 -21.228061632915143
  endloop
endfacet
facet normal 0.6087614290086575 0.7933533402912838 -2.2689781230080548e-14
  outer loop
    vertex -604.3237902494454 3.7320508075688634 -21.228061632915125
    vertex -603.9095766870724 3.414213562373102 -23.228061632915143
    vertex -604.3237902494456 3.7320508075688705 -23.228061632915125
  endloop
endfacet
facet normal -0.1305261922200239 -0.991444861373814 1.96883597634862e-15
  outer loop
    vertex -605.8414283396505 0.06814834742185928 -23.228061632915097
    vertex -605.3237902494454 0.0 -21.228061632915114
    vertex -605.8414283396505 0.06814834742185223 -21.228061632915097
  endloop
endfacet
facet normal -0.1305261922200239 -0.991444861373814 1.96883597634862e-15
  outer loop
    vertex -605.3237902494454 0.0 -21.228061632915114
    vertex -605.8414283396505 0.06814834742185928 -23.228061632915097
    vertex -605.3237902494456 7.049916206369744e-15 -23.228061632915114
  endloop
endfacet
facet normal -0.7933533402912517 0.6087614290086991 3.535366236452503e-14
  outer loop
    vertex -606.7380038118185 3.414213562373095 -21.228061632915043
    vertex -607.0558410570144 3.0000000000000013 -23.228061632915036
    vertex -607.0558410570143 2.9999999999999947 -21.228061632915033
  endloop
endfacet
facet normal -0.7933533402912517 0.6087614290086991 3.535366236452503e-14
  outer loop
    vertex -607.0558410570144 3.0000000000000013 -23.228061632915036
    vertex -606.7380038118185 3.414213562373095 -21.228061632915043
    vertex -606.7380038118185 3.414213562373102 -23.22806163291504
  endloop
endfacet
facet normal -0.9238795325112578 -0.38268343236515967 3.731546696541488e-14
  outer loop
    vertex -607.2556419020236 1.4823619097949507 -21.22806163291504
    vertex -607.0558410570144 1.000000000000005 -23.228061632915047
    vertex -607.0558410570143 0.9999999999999981 -21.22806163291505
  endloop
endfacet
facet normal -0.9238795325112578 -0.38268343236515967 3.731546696541488e-14
  outer loop
    vertex -607.0558410570144 1.000000000000005 -23.228061632915047
    vertex -607.2556419020236 1.4823619097949507 -21.22806163291504
    vertex -607.2556419020236 1.4823619097949579 -23.228061632915036
  endloop
endfacet
facet normal 0.6087614290087408 -0.7933533402912197 -2.827830786759957e-14
  outer loop
    vertex -604.3237902494453 0.2679491924311293 -21.22806163291515
    vertex -603.9095766870724 0.5857864376269049 -23.22806163291516
    vertex -603.9095766870723 0.5857864376268977 -21.22806163291516
  endloop
endfacet
facet normal 0.6087614290087408 -0.7933533402912197 -2.827830786759957e-14
  outer loop
    vertex -603.9095766870724 0.5857864376269049 -23.22806163291516
    vertex -604.3237902494453 0.2679491924311293 -21.22806163291515
    vertex -604.3237902494454 0.26794919243113635 -23.22806163291515
  endloop
endfacet
facet normal 0.38268343236507063 -0.9238795325112946 -1.927529266806021e-14
  outer loop
    vertex -604.8061521592404 0.06814834742187478 -21.228061632915136
    vertex -604.3237902494454 0.26794919243113635 -23.22806163291515
    vertex -604.3237902494453 0.2679491924311293 -21.22806163291515
  endloop
endfacet
facet normal 0.38268343236507063 -0.9238795325112946 -1.927529266806021e-14
  outer loop
    vertex -604.3237902494454 0.26794919243113635 -23.22806163291515
    vertex -604.8061521592404 0.06814834742187478 -21.228061632915136
    vertex -604.8061521592405 0.06814834742188183 -23.228061632915136
  endloop
endfacet
facet normal -0.7933533402912517 -0.6087614290086991 3.1061065551158365e-14
  outer loop
    vertex -607.0558410570143 0.9999999999999981 -21.22806163291505
    vertex -606.7380038118185 0.5857864376269049 -23.22806163291506
    vertex -606.7380038118185 0.5857864376268977 -21.22806163291506
  endloop
endfacet
facet normal -0.7933533402912517 -0.6087614290086991 3.1061065551158365e-14
  outer loop
    vertex -606.7380038118185 0.5857864376269049 -23.22806163291506
    vertex -607.0558410570143 0.9999999999999981 -21.22806163291505
    vertex -607.0558410570144 1.000000000000005 -23.228061632915047
  endloop
endfacet
facet normal -0.3826834323651075 0.9238795325112795 1.927529266806173e-14
  outer loop
    vertex -605.8414283396505 3.9318516525781475 -23.228061632915068
    vertex -606.3237902494454 3.7320508075688634 -21.228061632915058
    vertex -605.8414283396505 3.9318516525781404 -21.22806163291507
  endloop
endfacet
facet normal -0.3826834323651075 0.9238795325112795 1.927529266806173e-14
  outer loop
    vertex -606.3237902494454 3.7320508075688634 -21.228061632915058
    vertex -605.8414283396505 3.9318516525781475 -23.228061632915068
    vertex -606.3237902494456 3.7320508075688705 -23.228061632915058
  endloop
endfacet
facet normal 0.991444861373819 -0.13052619221998704 -4.195814418785717e-14
  outer loop
    vertex -603.3919385968674 1.4823619097949579 -23.228061632915175
    vertex -603.3237902494454 1.9999999999999962 -21.228061632915175
    vertex -603.3919385968672 1.4823619097949507 -21.228061632915175
  endloop
endfacet
facet normal 0.991444861373819 -0.13052619221998704 -4.195814418785717e-14
  outer loop
    vertex -603.3237902494454 1.9999999999999962 -21.228061632915175
    vertex -603.3919385968674 1.4823619097949579 -23.228061632915175
    vertex -603.3237902494456 2.0000000000000036 -23.228061632915175
  endloop
endfacet
facet normal 0.7933533402912517 0.6087614290086991 -3.1061065551158365e-14
  outer loop
    vertex -603.5917394418766 3.0000000000000013 -23.228061632915157
    vertex -603.9095766870723 3.414213562373095 -21.228061632915143
    vertex -603.5917394418765 2.9999999999999947 -21.228061632915157
  endloop
endfacet
facet normal 0.7933533402912517 0.6087614290086991 -3.1061065551158365e-14
  outer loop
    vertex -603.9095766870723 3.414213562373095 -21.228061632915143
    vertex -603.5917394418766 3.0000000000000013 -23.228061632915157
    vertex -603.9095766870724 3.414213562373102 -23.228061632915143
  endloop
endfacet
facet normal -3.5193768243472045e-14 6.661639784896427e-15 -1.0
  outer loop
    vertex -603.3919385968674 1.4823619097949579 -23.228061632915175
    vertex -603.3919385968674 2.517638090205049 -23.228061632915164
    vertex -603.3237902494456 2.0000000000000036 -23.228061632915175
  endloop
endfacet
facet normal -3.5193768243472045e-14 6.661639784896427e-15 -1.0
  outer loop
    vertex -603.3919385968674 2.517638090205049 -23.228061632915164
    vertex -603.3919385968674 1.4823619097949579 -23.228061632915175
    vertex -603.5917394418766 1.000000000000005 -23.22806163291517
  endloop
endfacet
facet normal -3.5193768243472045e-14 6.661639784896427e-15 -1.0
  outer loop
    vertex -603.3919385968674 2.517638090205049 -23.228061632915164
    vertex -603.5917394418766 1.000000000000005 -23.22806163291517
    vertex -603.5917394418766 3.0000000000000013 -23.228061632915157
  endloop
endfacet
facet normal -3.5193768243472045e-14 6.661639784896427e-15 -1.0
  outer loop
    vertex -603.5917394418766 3.0000000000000013 -23.228061632915157
    vertex -603.5917394418766 1.000000000000005 -23.22806163291517
    vertex -603.9095766870724 0.5857864376269049 -23.22806163291516
  endloop
endfacet
facet normal -3.5193768243472045e-14 6.661639784896427e-15 -1.0
  outer loop
    vertex -603.5917394418766 3.0000000000000013 -23.228061632915157
    vertex -603.9095766870724 0.5857864376269049 -23.22806163291516
    vertex -603.9095766870724 3.414213562373102 -23.228061632915143
  endloop
endfacet
facet normal -3.5193768243472045e-14 6.661639784896427e-15 -1.0
  outer loop
    vertex -603.9095766870724 3.414213562373102 -23.228061632915143
    vertex -603.9095766870724 0.5857864376269049 -23.22806163291516
    vertex -604.3237902494454 0.26794919243113635 -23.22806163291515
  endloop
endfacet
facet normal -3.5193768243472045e-14 6.661639784896427e-15 -1.0
  outer loop
    vertex -603.9095766870724 3.414213562373102 -23.228061632915143
    vertex -604.3237902494454 0.26794919243113635 -23.22806163291515
    vertex -604.3237902494456 3.7320508075688705 -23.228061632915125
  endloop
endfacet
facet normal -3.5193768243472045e-14 6.661639784896427e-15 -1.0
  outer loop
    vertex -604.3237902494456 3.7320508075688705 -23.228061632915125
    vertex -604.3237902494454 0.26794919243113635 -23.22806163291515
    vertex -604.8061521592405 0.06814834742188183 -23.228061632915136
  endloop
endfacet
facet normal -3.5193768243472045e-14 6.661639784896427e-15 -1.0
  outer loop
    vertex -604.3237902494456 3.7320508075688705 -23.228061632915125
    vertex -604.8061521592405 0.06814834742188183 -23.228061632915136
    vertex -604.8061521592405 3.9318516525781475 -23.228061632915107
  endloop
endfacet
facet normal -3.5193768243472045e-14 6.661639784896427e-15 -1.0
  outer loop
    vertex -604.8061521592405 3.9318516525781475 -23.228061632915107
    vertex -604.8061521592405 0.06814834742188183 -23.228061632915136
    vertex -605.3237902494456 7.049916206369744e-15 -23.228061632915114
  endloop
endfacet
facet normal -3.5193768243472045e-14 6.661639784896427e-15 -1.0
  outer loop
    vertex -604.8061521592405 3.9318516525781475 -23.228061632915107
    vertex -605.3237902494456 7.049916206369744e-15 -23.228061632915114
    vertex -605.3237902494456 3.9999999999999996 -23.22806163291509
  endloop
endfacet
facet normal -3.5193768243472045e-14 6.661639784896427e-15 -1.0
  outer loop
    vertex -605.3237902494456 3.9999999999999996 -23.22806163291509
    vertex -605.3237902494456 7.049916206369744e-15 -23.228061632915114
    vertex -605.8414283396505 0.06814834742185928 -23.228061632915097
  endloop
endfacet
facet normal -3.5193768243472045e-14 6.661639784896427e-15 -1.0
  outer loop
    vertex -605.3237902494456 3.9999999999999996 -23.22806163291509
    vertex -605.8414283396505 0.06814834742185928 -23.228061632915097
    vertex -605.8414283396505 3.9318516525781475 -23.228061632915068
  endloop
endfacet
facet normal -3.5193768243472045e-14 6.661639784896427e-15 -1.0
  outer loop
    vertex -605.8414283396505 3.9318516525781475 -23.228061632915068
    vertex -605.8414283396505 0.06814834742185928 -23.228061632915097
    vertex -606.3237902494454 0.26794919243113635 -23.22806163291508
  endloop
endfacet
facet normal -3.5193768243472045e-14 6.661639784896427e-15 -1.0
  outer loop
    vertex -605.8414283396505 3.9318516525781475 -23.228061632915068
    vertex -606.3237902494454 0.26794919243113635 -23.22806163291508
    vertex -606.3237902494456 3.7320508075688705 -23.228061632915058
  endloop
endfacet
facet normal -3.5193768243472045e-14 6.661639784896427e-15 -1.0
  outer loop
    vertex -606.3237902494456 3.7320508075688705 -23.228061632915058
    vertex -606.3237902494454 0.26794919243113635 -23.22806163291508
    vertex -606.7380038118185 0.5857864376269049 -23.22806163291506
  endloop
endfacet
facet normal -3.5193768243472045e-14 6.661639784896427e-15 -1.0
  outer loop
    vertex -606.3237902494456 3.7320508075688705 -23.228061632915058
    vertex -606.7380038118185 0.5857864376269049 -23.22806163291506
    vertex -606.7380038118185 3.414213562373102 -23.22806163291504
  endloop
endfacet
facet normal -3.5193768243472045e-14 6.661639784896427e-15 -1.0
  outer loop
    vertex -606.7380038118185 3.414213562373102 -23.22806163291504
    vertex -606.7380038118185 0.5857864376269049 -23.22806163291506
    vertex -607.0558410570144 1.000000000000005 -23.228061632915047
  endloop
endfacet
facet normal -3.5193768243472045e-14 6.661639784896427e-15 -1.0
  outer loop
    vertex -606.7380038118185 3.414213562373102 -23.22806163291504
    vertex -607.0558410570144 1.000000000000005 -23.228061632915047
    vertex -607.0558410570144 3.0000000000000013 -23.228061632915036
  endloop
endfacet
facet normal -3.5193768243472045e-14 6.661639784896427e-15 -1.0
  outer loop
    vertex -607.0558410570144 3.0000000000000013 -23.228061632915036
    vertex -607.0558410570144 1.000000000000005 -23.228061632915047
    vertex -607.2556419020236 1.4823619097949579 -23.228061632915036
  endloop
endfacet
facet normal -3.5193768243472045e-14 6.661639784896427e-15 -1.0
  outer loop
    vertex -607.0558410570144 3.0000000000000013 -23.228061632915036
    vertex -607.2556419020236 1.4823619097949579 -23.228061632915036
    vertex -607.2556419020236 2.517638090205049 -23.22806163291503
  endloop
endfacet
facet normal -3.5193768243472045e-14 6.661639784896427e-15 -1.0
  outer loop
    vertex -607.2556419020236 2.517638090205049 -23.22806163291503
    vertex -607.2556419020236 1.4823619097949579 -23.228061632915036
    vertex -607.3237902494454 2.0000000000000036 -23.22806163291503
  endloop
endfacet
facet normal -0.9238795325112578 0.38268343236515967 4.001864996123048e-14
  outer loop
    vertex -607.0558410570143 2.9999999999999947 -21.228061632915033
    vertex -607.2556419020236 2.517638090205049 -23.22806163291503
    vertex -607.2556419020236 2.517638090205042 -21.228061632915033
  endloop
endfacet
facet normal -0.9238795325112578 0.38268343236515967 4.001864996123048e-14
  outer loop
    vertex -607.2556419020236 2.517638090205049 -23.22806163291503
    vertex -607.0558410570143 2.9999999999999947 -21.228061632915033
    vertex -607.0558410570144 3.0000000000000013 -23.228061632915036
  endloop
endfacet
facet normal -0.1305261922200239 0.991444861373814 8.956986636290648e-15
  outer loop
    vertex -605.3237902494456 3.9999999999999996 -23.22806163291509
    vertex -605.8414283396505 3.9318516525781404 -21.22806163291507
    vertex -605.3237902494454 3.9999999999999925 -21.22806163291509
  endloop
endfacet
facet normal -0.1305261922200239 0.991444861373814 8.956986636290648e-15
  outer loop
    vertex -605.8414283396505 3.9318516525781404 -21.22806163291507
    vertex -605.3237902494456 3.9999999999999996 -23.22806163291509
    vertex -605.8414283396505 3.9318516525781475 -23.228061632915068
  endloop
endfacet
facet normal 0.3826834323651686 0.9238795325112541 -1.2761943080353294e-14
  outer loop
    vertex -604.3237902494456 3.7320508075688705 -23.228061632915125
    vertex -604.8061521592404 3.9318516525781404 -21.228061632915107
    vertex -604.3237902494454 3.7320508075688634 -21.228061632915125
  endloop
endfacet
facet normal 0.3826834323651686 0.9238795325112541 -1.2761943080353294e-14
  outer loop
    vertex -604.8061521592404 3.9318516525781404 -21.228061632915107
    vertex -604.3237902494456 3.7320508075688705 -23.228061632915125
    vertex -604.8061521592405 3.9318516525781475 -23.228061632915107
  endloop
endfacet
facet normal 0.7933533402912517 -0.6087614290086991 -3.535589453691518e-14
  outer loop
    vertex -603.9095766870724 0.5857864376269049 -23.22806163291516
    vertex -603.5917394418765 0.9999999999999981 -21.22806163291517
    vertex -603.9095766870723 0.5857864376268977 -21.22806163291516
  endloop
endfacet
facet normal 0.7933533402912517 -0.6087614290086991 -3.535589453691518e-14
  outer loop
    vertex -603.5917394418765 0.9999999999999981 -21.22806163291517
    vertex -603.9095766870724 0.5857864376269049 -23.22806163291516
    vertex -603.5917394418766 1.000000000000005 -23.22806163291517
  endloop
endfacet
facet normal 0.9238795325112578 0.38268343236515967 -3.73175663096672e-14
  outer loop
    vertex -603.3919385968674 2.517638090205049 -23.228061632915164
    vertex -603.5917394418765 2.9999999999999947 -21.228061632915157
    vertex -603.3919385968672 2.517638090205042 -21.228061632915168
  endloop
endfacet
facet normal 0.9238795325112578 0.38268343236515967 -3.73175663096672e-14
  outer loop
    vertex -603.5917394418765 2.9999999999999947 -21.228061632915157
    vertex -603.3919385968674 2.517638090205049 -23.228061632915164
    vertex -603.5917394418766 3.0000000000000013 -23.228061632915157
  endloop
endfacet
facet normal -0.6087614290087408 0.7933533402912197 2.8270752960178632e-14
  outer loop
    vertex -606.3237902494456 3.7320508075688705 -23.228061632915058
    vertex -606.7380038118185 3.414213562373095 -21.228061632915043
    vertex -606.3237902494454 3.7320508075688634 -21.228061632915058
  endloop
endfacet
facet normal -0.6087614290087408 0.7933533402912197 2.8270752960178632e-14
  outer loop
    vertex -606.7380038118185 3.414213562373095 -21.228061632915043
    vertex -606.3237902494456 3.7320508075688705 -23.228061632915058
    vertex -606.7380038118185 3.414213562373102 -23.22806163291504
  endloop
endfacet
facet normal 0.1305261922200239 0.991444861373814 -1.969090879950786e-15
  outer loop
    vertex -604.8061521592405 3.9318516525781475 -23.228061632915107
    vertex -605.3237902494454 3.9999999999999925 -21.22806163291509
    vertex -604.8061521592404 3.9318516525781404 -21.228061632915107
  endloop
endfacet
facet normal 0.1305261922200239 0.991444861373814 -1.969090879950786e-15
  outer loop
    vertex -605.3237902494454 3.9999999999999925 -21.22806163291509
    vertex -604.8061521592405 3.9318516525781475 -23.228061632915107
    vertex -605.3237902494456 3.9999999999999996 -23.22806163291509
  endloop
endfacet
facet normal 0.9238795325112578 -0.38268343236515967 -4.001864996123048e-14
  outer loop
    vertex -603.5917394418766 1.000000000000005 -23.22806163291517
    vertex -603.3919385968672 1.4823619097949507 -21.228061632915175
    vertex -603.5917394418765 0.9999999999999981 -21.22806163291517
  endloop
endfacet
facet normal 0.9238795325112578 -0.38268343236515967 -4.001864996123048e-14
  outer loop
    vertex -603.3919385968672 1.4823619097949507 -21.228061632915175
    vertex -603.5917394418766 1.000000000000005 -23.22806163291517
    vertex -603.3919385968674 1.4823619097949579 -23.228061632915175
  endloop
endfacet
facet normal 0.13052619222006637 -0.9914448613738086 -8.958012560748465e-15
  outer loop
    vertex -605.3237902494454 0.0 -21.228061632915114
    vertex -604.8061521592405 0.06814834742188183 -23.228061632915136
    vertex -604.8061521592404 0.06814834742187478 -21.228061632915136
  endloop
endfacet
facet normal 0.13052619222006637 -0.9914448613738086 -8.958012560748465e-15
  outer loop
    vertex -604.8061521592405 0.06814834742188183 -23.228061632915136
    vertex -605.3237902494454 0.0 -21.228061632915114
    vertex -605.3237902494456 7.049916206369744e-15 -23.228061632915114
  endloop
endfacet
facet normal 0.991444861373819 0.13052619221998704 -4.103676913660566e-14
  outer loop
    vertex -603.3237902494456 2.0000000000000036 -23.228061632915175
    vertex -603.3919385968672 2.517638090205042 -21.228061632915168
    vertex -603.3237902494454 1.9999999999999962 -21.228061632915175
  endloop
endfacet
facet normal 0.991444861373819 0.13052619221998704 -4.103676913660566e-14
  outer loop
    vertex -603.3919385968672 2.517638090205042 -21.228061632915168
    vertex -603.3237902494456 2.0000000000000036 -23.228061632915175
    vertex -603.3919385968674 2.517638090205049 -23.228061632915164
  endloop
endfacet
facet normal -0.991444861373819 -0.13052619221998704 4.103651423300351e-14
  outer loop
    vertex -607.3237902494454 1.9999999999999962 -21.228061632915033
    vertex -607.2556419020236 1.4823619097949579 -23.228061632915036
    vertex -607.2556419020236 1.4823619097949507 -21.22806163291504
  endloop
endfacet
facet normal -0.991444861373819 -0.13052619221998704 4.103651423300351e-14
  outer loop
    vertex -607.2556419020236 1.4823619097949579 -23.228061632915036
    vertex -607.3237902494454 1.9999999999999962 -21.228061632915033
    vertex -607.3237902494454 2.0000000000000036 -23.22806163291503
  endloop
endfacet
facet normal -0.991444861373819 0.13052619221998704 4.195814418785717e-14
  outer loop
    vertex -607.2556419020236 2.517638090205042 -21.228061632915033
    vertex -607.3237902494454 2.0000000000000036 -23.22806163291503
    vertex -607.3237902494454 1.9999999999999962 -21.228061632915033
  endloop
endfacet
facet normal -0.991444861373819 0.13052619221998704 4.195814418785717e-14
  outer loop
    vertex -607.3237902494454 2.0000000000000036 -23.22806163291503
    vertex -607.2556419020236 2.517638090205042 -21.228061632915033
    vertex -607.2556419020236 2.517638090205049 -23.22806163291503
  endloop
endfacet
endsolid Design - Rolled
