solid Design - Rolled
facet normal -1.0 -1.0308691565806095e-21 -3.435072112722734e-11
  outer loop
    vertex 245.1413160525554 167.33827514500712 25.249998632649252
    vertex 245.1413160527697 159.53827514494463 20.24999863288321
    vertex 245.1413160525554 159.53827514500713 25.249998632883333
  endloop
endfacet
facet normal -1.0 -1.0308691565806095e-21 -3.435072112722734e-11
  outer loop
    vertex 245.1413160527697 159.53827514494463 20.24999863288321
    vertex 245.1413160525554 167.33827514500712 25.249998632649252
    vertex 245.1413160527697 167.33827514494462 20.249998632649127
  endloop
endfacet
facet normal 1.0 -3.81369615079256e-27 3.435072112722734e-11
  outer loop
    vertex 273.7413160528186 159.53827514497092 20.249998632539036
    vertex 273.74131605242155 167.33827514500712 25.24999863253916
    vertex 273.74131605242155 159.53827514500713 25.24999863253916
  endloop
endfacet
facet normal 1.0 -3.81369615079256e-27 3.435072112722734e-11
  outer loop
    vertex 273.74131605242155 167.33827514500712 25.24999863253916
    vertex 273.7413160528186 159.53827514497092 20.249998632539036
    vertex 273.7413160528186 167.3382751449709 20.249998632539036
  endloop
endfacet
facet normal -0.49999999999047523 -0.866025403789938 -3.3442775617768185e-11
  outer loop
    vertex 270.7913160525934 165.08372341216136 20.249998633162768
    vertex 271.1848189364507 164.78177802926155 25.249998633259448
    vertex 270.7913160521963 165.08372341219757 25.249998633162893
  endloop
endfacet
facet normal -0.7071067811936219 -0.7071067811794731 -5.104012426676439e-11
  outer loop
    vertex 271.1848189364507 164.78177802926155 25.249998633259448
    vertex 270.7913160525934 165.08372341216136 20.249998633162768
    vertex 271.1848189368478 164.78177802922534 20.249998633259324
  endloop
endfacet
facet normal -0.7071067811936219 -0.7071067811794731 -5.104012426676439e-11
  outer loop
    vertex 271.1848189364507 164.78177802926155 25.249998633259448
    vertex 271.4867643197838 164.38827514497092 20.24999863334108
    vertex 271.48676431938674 164.3882751450071 25.249998633341207
  endloop
endfacet
facet normal -0.8660254037803016 -0.5000000000071657 -6.515412816075417e-11
  outer loop
    vertex 271.4867643197838 164.38827514497092 20.24999863334108
    vertex 271.1848189364507 164.78177802926155 25.249998633259448
    vertex 271.1848189368478 164.78177802922534 20.249998633259324
  endloop
endfacet
facet normal -0.8660254037885884 -0.4999999999928128 -6.51541281615157e-11
  outer loop
    vertex 271.48676431938674 164.3882751450071 25.249998633341207
    vertex 271.67657512254254 163.9300313306657 20.249998633402623
    vertex 271.6765751221455 163.93003133070192 25.249998633402747
  endloop
endfacet
facet normal -0.9659258262875051 -0.25881904510835485 -7.483467471620058e-11
  outer loop
    vertex 271.67657512254254 163.9300313306657 20.249998633402623
    vertex 271.48676431938674 164.3882751450071 25.249998633341207
    vertex 271.4867643197838 164.38827514497092 20.24999863334108
  endloop
endfacet
facet normal -0.96592582629063 -0.2588190450966933 -7.483467471653357e-11
  outer loop
    vertex 271.6765751221455 163.93003133070192 25.249998633402747
    vertex 271.7413160525934 163.43827514497093 20.24999863343962
    vertex 271.7413160521962 163.43827514500714 25.249998633439745
  endloop
endfacet
facet normal -1.0 -3.36282118572362e-12 -7.94192802595258e-11
  outer loop
    vertex 271.7413160525934 163.43827514497093 20.24999863343962
    vertex 271.6765751221455 163.93003133070192 25.249998633402747
    vertex 271.67657512254254 163.9300313306657 20.249998633402623
  endloop
endfacet
facet normal -1.0 3.3628122746861992e-12 -7.941928025957449e-11
  outer loop
    vertex 271.7413160521962 163.43827514500714 25.249998633439745
    vertex 271.67657512254254 162.94651895927612 20.249998633449547
    vertex 271.6765751221455 162.94651895931233 25.24999863344967
  endloop
endfacet
facet normal -0.9659258262891877 0.2588190451020755 -7.858318364698448e-11
  outer loop
    vertex 271.67657512254254 162.94651895927612 20.249998633449547
    vertex 271.7413160521962 163.43827514500714 25.249998633439745
    vertex 271.7413160525934 163.43827514497093 20.24999863343962
  endloop
endfacet
facet normal -0.9659258262891877 0.2588190451020755 -7.858318364698448e-11
  outer loop
    vertex 271.67657512254254 162.94651895927612 20.249998633449547
    vertex 271.48676431938674 162.48827514500712 25.249998633431805
    vertex 271.6765751221455 162.94651895931233 25.24999863344967
  endloop
endfacet
facet normal -0.866025403785676 0.49999999999785694 -7.239569109029214e-11
  outer loop
    vertex 271.48676431938674 162.48827514500712 25.249998633431805
    vertex 271.67657512254254 162.94651895927612 20.249998633449547
    vertex 271.4867643197838 162.4882751449709 20.24999863343168
  endloop
endfacet
facet normal -0.8660254037832088 0.5000000000021303 -7.239569109012729e-11
  outer loop
    vertex 271.4867643197838 162.4882751449709 20.24999863343168
    vertex 271.1848189364507 162.0947722607527 25.249998633387587
    vertex 271.48676431938674 162.48827514500712 25.249998633431805
  endloop
endfacet
facet normal -0.7071067811902373 0.7071067811828577 -6.127846831987956e-11
  outer loop
    vertex 271.1848189364507 162.0947722607527 25.249998633387587
    vertex 271.4867643197838 162.4882751449709 20.24999863343168
    vertex 271.1848189368478 162.0947722607165 20.249998633387463
  endloop
endfacet
facet normal -0.7071067811902373 0.7071067811828577 -6.127846831987956e-11
  outer loop
    vertex 271.1848189364507 162.0947722607527 25.249998633387587
    vertex 270.79131605259334 161.7928268777805 20.249998633319603
    vertex 270.7913160521963 161.7928268778167 25.249998633319727
  endloop
endfacet
facet normal -0.4999999999933774 0.8660254037882623 -4.5981016229367914e-11
  outer loop
    vertex 270.79131605259334 161.7928268777805 20.249998633319603
    vertex 271.1848189364507 162.0947722607527 25.249998633387587
    vertex 271.1848189368478 162.0947722607165 20.249998633387463
  endloop
endfacet
facet normal -0.5000000000066083 0.8660254037806234 -4.598101623036338e-11
  outer loop
    vertex 270.7913160521963 161.7928268778167 25.249998633319727
    vertex 270.3330722382882 161.60301607502169 20.249998633232973
    vertex 270.33307223789103 161.6030160750579 25.249998633233098
  endloop
endfacet
facet normal -0.2588190450933344 0.9659258262915298 -2.7550034702330842e-11
  outer loop
    vertex 270.3330722382882 161.60301607502169 20.249998633232973
    vertex 270.7913160521963 161.7928268778167 25.249998633319727
    vertex 270.79131605259334 161.7928268777805 20.249998633319603
  endloop
endfacet
facet normal -0.2588190451117194 0.9659258262866036 -2.7550034703755285e-11
  outer loop
    vertex 270.33307223789103 161.6030160750579 25.249998633233098
    vertex 269.84131605259336 161.53827514497092 20.249998633133348
    vertex 269.8413160521963 161.53827514500713 25.249998633133476
  endloop
endfacet
facet normal 1.075393633314072e-11 1.0 -7.24156259703527e-12
  outer loop
    vertex 269.84131605259336 161.53827514497092 20.249998633133348
    vertex 270.33307223789103 161.6030160750579 25.249998633233098
    vertex 270.3330722382882 161.60301607502169 20.249998633232973
  endloop
endfacet
facet normal -1.0753954155432268e-11 1.0 -7.241562598743412e-12
  outer loop
    vertex 269.8413160521963 161.53827514500713 25.249998633133476
    vertex 269.34955986689863 161.60301607502169 20.24999863302759
    vertex 269.34955986650147 161.6030160750579 25.249998633027715
  endloop
endfacet
facet normal 0.25881904511339004 0.9659258262861561 1.356215201020143e-11
  outer loop
    vertex 269.34955986689863 161.60301607502169 20.24999863302759
    vertex 269.8413160521963 161.53827514500713 25.249998633133476
    vertex 269.84131605259336 161.53827514497092 20.249998633133348
  endloop
endfacet
facet normal 0.2588190450916301 0.9659258262919866 1.356215200843075e-11
  outer loop
    vertex 269.34955986650147 161.6030160750579 25.249998633027715
    vertex 268.89131605259337 161.7928268777805 20.249998632922733
    vertex 268.89131605219626 161.7928268778167 25.249998632922857
  endloop
endfacet
facet normal 0.5000000000095284 0.8660254037789377 3.3442774760374845e-11
  outer loop
    vertex 268.89131605259337 161.7928268777805 20.249998632922733
    vertex 269.34955986650147 161.6030160750579 25.249998633027715
    vertex 269.34955986689863 161.60301607502169 20.24999863302759
  endloop
endfacet
facet normal 0.49999999999047506 0.8660254037899379 3.344277475878182e-11
  outer loop
    vertex 268.89131605219626 161.7928268778167 25.249998632922857
    vertex 268.49781316833895 162.0947722607165 20.249998632826177
    vertex 268.49781316794184 162.0947722607527 25.2499986328263
  endloop
endfacet
facet normal 0.7071067811936219 0.7071067811794731 5.104012340777804e-11
  outer loop
    vertex 268.49781316833895 162.0947722607165 20.249998632826177
    vertex 268.89131605219626 161.7928268778167 25.249998632922857
    vertex 268.89131605259337 161.7928268777805 20.249998632922733
  endloop
endfacet
facet normal 0.7071067811936219 0.7071067811794731 5.104012340777804e-11
  outer loop
    vertex 268.49781316833895 162.0947722607165 20.249998632826177
    vertex 268.1958677850059 162.48827514500715 25.249998632744546
    vertex 268.49781316794184 162.0947722607527 25.2499986328263
  endloop
endfacet
facet normal 0.8660254037803016 0.5000000000071657 6.515412816075417e-11
  outer loop
    vertex 268.1958677850059 162.48827514500715 25.249998632744546
    vertex 268.49781316833895 162.0947722607165 20.249998632826177
    vertex 268.1958677854029 162.48827514497094 20.24999863274442
  endloop
endfacet
facet normal 0.8660254037885883 0.49999999999281264 6.51541281615157e-11
  outer loop
    vertex 268.1958677854029 162.48827514497094 20.24999863274442
    vertex 268.0060569822471 162.94651895931233 25.249998632683003
    vertex 268.1958677850059 162.48827514500715 25.249998632744546
  endloop
endfacet
facet normal 0.9659258262875051 0.25881904510835485 7.483467453202297e-11
  outer loop
    vertex 268.0060569822471 162.94651895931233 25.249998632683003
    vertex 268.1958677854029 162.48827514497094 20.24999863274442
    vertex 268.00605698264417 162.94651895927612 20.24999863268288
  endloop
endfacet
facet normal 0.96592582629063 0.2588190450966933 7.483467453235598e-11
  outer loop
    vertex 268.00605698264417 162.94651895927612 20.24999863268288
    vertex 267.94131605219627 163.43827514500714 25.249998632646005
    vertex 268.0060569822471 162.94651895931233 25.249998632683003
  endloop
endfacet
facet normal 1.0 3.36282118572362e-12 7.94192800753482e-11
  outer loop
    vertex 267.94131605219627 163.43827514500714 25.249998632646005
    vertex 268.00605698264417 162.94651895927612 20.24999863268288
    vertex 267.94131605259344 163.43827514497093 20.24999863264588
  endloop
endfacet
facet normal 1.0 -3.3628122746861992e-12 7.941928007539689e-11
  outer loop
    vertex 267.94131605259344 163.43827514497093 20.24999863264588
    vertex 268.0060569822471 163.93003133070192 25.24999863263608
    vertex 267.94131605219627 163.43827514500714 25.249998632646005
  endloop
endfacet
facet normal 0.9659258262891877 -0.2588190451020755 7.858318364698448e-11
  outer loop
    vertex 268.0060569822471 163.93003133070192 25.24999863263608
    vertex 267.94131605259344 163.43827514497093 20.24999863264588
    vertex 268.00605698264417 163.9300313306657 20.249998632635954
  endloop
endfacet
facet normal 0.9659258262891877 -0.2588190451020755 7.858318364698448e-11
  outer loop
    vertex 268.0060569822471 163.93003133070192 25.24999863263608
    vertex 268.1958677854029 164.38827514497092 20.24999863265382
    vertex 268.1958677850059 164.38827514500713 25.249998632653945
  endloop
endfacet
facet normal 0.866025403785676 -0.49999999999785694 7.239569109029214e-11
  outer loop
    vertex 268.1958677854029 164.38827514497092 20.24999863265382
    vertex 268.0060569822471 163.93003133070192 25.24999863263608
    vertex 268.00605698264417 163.9300313306657 20.249998632635954
  endloop
endfacet
facet normal 0.8660254037832088 -0.5000000000021303 7.239569109012729e-11
  outer loop
    vertex 268.1958677850059 164.38827514500713 25.249998632653945
    vertex 268.49781316833895 164.78177802922534 20.249998632698038
    vertex 268.49781316794184 164.78177802926155 25.249998632698162
  endloop
endfacet
facet normal 0.7071067811902373 -0.7071067811828577 6.127846831987956e-11
  outer loop
    vertex 268.49781316833895 164.78177802922534 20.249998632698038
    vertex 268.1958677850059 164.38827514500713 25.249998632653945
    vertex 268.1958677854029 164.38827514497092 20.24999863265382
  endloop
endfacet
facet normal 0.7071067811902373 -0.7071067811828577 6.127846831987956e-11
  outer loop
    vertex 268.49781316833895 164.78177802922534 20.249998632698038
    vertex 268.8913160521963 165.08372341219757 25.249998632766022
    vertex 268.49781316794184 164.78177802926155 25.249998632698162
  endloop
endfacet
facet normal 0.49999999999337735 -0.8660254037882622 4.598101622936791e-11
  outer loop
    vertex 268.8913160521963 165.08372341219757 25.249998632766022
    vertex 268.49781316833895 164.78177802922534 20.249998632698038
    vertex 268.89131605259337 165.08372341216136 20.249998632765898
  endloop
endfacet
facet normal 0.5000000000066084 -0.8660254037806234 4.598101623036338e-11
  outer loop
    vertex 268.89131605259337 165.08372341216136 20.249998632765898
    vertex 269.34955986650147 165.27353421495636 25.249998632852652
    vertex 268.8913160521963 165.08372341219757 25.249998632766022
  endloop
endfacet
facet normal 0.2588190450933344 -0.9659258262915298 2.7550034702330842e-11
  outer loop
    vertex 269.34955986650147 165.27353421495636 25.249998632852652
    vertex 268.89131605259337 165.08372341216136 20.249998632765898
    vertex 269.34955986689863 165.27353421492015 20.249998632852527
  endloop
endfacet
facet normal 0.2588190451117194 -0.9659258262866036 2.7550034703755285e-11
  outer loop
    vertex 269.34955986689863 165.27353421492015 20.249998632852527
    vertex 269.8413160521963 165.33827514500712 25.249998632952277
    vertex 269.34955986650147 165.27353421495636 25.249998632852652
  endloop
endfacet
facet normal -1.0753954155360511e-11 -1.0 7.2415622472933335e-12
  outer loop
    vertex 269.8413160521963 165.33827514500712 25.249998632952277
    vertex 269.34955986689863 165.27353421492015 20.249998632852527
    vertex 269.84131605259336 165.3382751449709 20.24999863295215
  endloop
endfacet
facet normal 1.0753936333212477e-11 -1.0 7.241562249001476e-12
  outer loop
    vertex 269.84131605259336 165.3382751449709 20.24999863295215
    vertex 270.33307223789103 165.27353421495636 25.249998633058034
    vertex 269.8413160521963 165.33827514500712 25.249998632952277
  endloop
endfacet
facet normal -0.25881904511339004 -0.9659258262861559 -1.3562152359943365e-11
  outer loop
    vertex 270.33307223789103 165.27353421495636 25.249998633058034
    vertex 269.84131605259336 165.3382751449709 20.24999863295215
    vertex 270.3330722382882 165.27353421492015 20.24999863305791
  endloop
endfacet
facet normal -0.2588190450916301 -0.9659258262919866 -1.3562152358172688e-11
  outer loop
    vertex 270.3330722382882 165.27353421492015 20.24999863305791
    vertex 270.7913160521963 165.08372341219757 25.249998633162893
    vertex 270.33307223789103 165.27353421495636 25.249998633058034
  endloop
endfacet
facet normal -0.5000000000095284 -0.8660254037789377 -3.3442775619361205e-11
  outer loop
    vertex 270.7913160521963 165.08372341219757 25.249998633162893
    vertex 270.3330722382882 165.27353421492015 20.24999863305791
    vertex 270.7913160525934 165.08372341216136 20.249998633162768
  endloop
endfacet
facet normal 0.7071067811919743 -0.7071067811811208 3.9156041751906e-11
  outer loop
    vertex 247.69781316847275 164.78177802919905 20.249998631220283
    vertex 248.09131605251284 165.08372341219757 25.24999863128809
    vertex 247.69781316825834 164.78177802926155 25.24999863122041
  endloop
endfacet
facet normal 0.4999999999909388 -0.8660254037896703 3.226199009051011e-11
  outer loop
    vertex 248.09131605251284 165.08372341219757 25.24999863128809
    vertex 247.69781316847275 164.78177802919905 20.249998631220283
    vertex 248.09131605272717 165.08372341213504 20.249998631287962
  endloop
endfacet
facet normal 0.5000000000090771 -0.866025403779198 3.226199009115709e-11
  outer loop
    vertex 248.09131605272717 165.08372341213504 20.249998631287962
    vertex 248.549559866818 165.27353421495636 25.24999863137472
    vertex 248.09131605251284 165.08372341219757 25.24999863128809
  endloop
endfacet
facet normal 0.25881904509040143 -0.9659258262923157 2.3170367764815276e-11
  outer loop
    vertex 248.549559866818 165.27353421495636 25.24999863137472
    vertex 248.09131605272717 165.08372341213504 20.249998631287962
    vertex 248.54955986703231 165.27353421489383 20.24999863137459
  endloop
endfacet
facet normal 0.2588190451146747 -0.9659258262858118 2.31703677657744e-11
  outer loop
    vertex 248.54955986703231 165.27353421489383 20.24999863137459
    vertex 249.0413160525128 165.33827514500712 25.24999863147434
    vertex 248.549559866818 165.27353421495636 25.24999863137472
  endloop
endfacet
facet normal -1.3796741740323979e-11 -1.0 1.2501898240008943e-11
  outer loop
    vertex 249.0413160525128 165.33827514500712 25.24999863147434
    vertex 248.54955986703231 165.27353421489383 20.24999863137459
    vertex 249.04131605272713 165.33827514494462 20.249998631474217
  endloop
endfacet
facet normal 1.3784889964242729e-11 -1.0 1.2501898241191314e-11
  outer loop
    vertex 249.04131605272713 165.33827514494462 20.249998631474217
    vertex 249.53307223820752 165.27353421495636 25.2499986315801
    vertex 249.0413160525128 165.33827514500712 25.24999863147434
  endloop
endfacet
facet normal -0.25881904511609943 -0.9659258262854299 9.785154360482027e-13
  outer loop
    vertex 249.53307223820752 165.27353421495636 25.2499986315801
    vertex 249.04131605272713 165.33827514494462 20.249998631474217
    vertex 249.53307223842194 165.27353421489383 20.249998631579977
  endloop
endfacet
facet normal -0.2588190450889206 -0.9659258262927125 9.785154373048493e-13
  outer loop
    vertex 249.53307223842194 165.27353421489383 20.249998631579977
    vertex 249.9913160525128 165.08372341219757 25.24999863168478
    vertex 249.53307223820752 165.27353421495636 25.2499986315801
  endloop
endfacet
facet normal -0.5000000000116275 -0.8660254037777256 -1.0610522981543582e-11
  outer loop
    vertex 249.9913160525128 165.08372341219757 25.24999863168478
    vertex 249.53307223842194 165.27353421489383 20.249998631579977
    vertex 249.99131605272717 165.08372341213504 20.249998631684655
  endloop
endfacet
facet normal -0.499999999988424 -0.8660254037911221 -1.0610522980381656e-11
  outer loop
    vertex 249.99131605272717 165.08372341213504 20.249998631684655
    vertex 250.3848189367672 164.78177802926155 25.249998631781335
    vertex 249.9913160525128 165.08372341219757 25.24999863168478
  endloop
endfacet
facet normal -0.7071067811949274 -0.7071067811781676 -2.1471238335351776e-11
  outer loop
    vertex 250.3848189367672 164.78177802926155 25.249998631781335
    vertex 249.99131605272717 165.08372341213504 20.249998631684655
    vertex 250.3848189369815 164.78177802919905 20.24999863178121
  endloop
endfacet
facet normal -0.7071067811949274 -0.7071067811781676 -2.1471238335351776e-11
  outer loop
    vertex 250.3848189367672 164.78177802926155 25.249998631781335
    vertex 250.68676431991753 164.3882751449446 20.249998631863146
    vertex 250.68676431970323 164.3882751450071 25.24999863186327
  endloop
endfacet
facet normal -0.8660254037797137 -0.5000000000081842 -3.08696248313714e-11
  outer loop
    vertex 250.68676431991753 164.3882751449446 20.249998631863146
    vertex 250.3848189367672 164.78177802926155 25.249998631781335
    vertex 250.3848189369815 164.78177802919905 20.24999863178121
  endloop
endfacet
facet normal -0.8660254037891401 -0.4999999999918569 -3.086962483197959e-11
  outer loop
    vertex 250.68676431970323 164.3882751450071 25.24999863186327
    vertex 250.87657512267631 163.9300313306394 20.24999863192451
    vertex 250.87657512246201 163.93003133070192 25.249998631924633
  endloop
endfacet
facet normal -0.965925826287415 -0.25881904510869147 -3.817158084036848e-11
  outer loop
    vertex 250.87657512267631 163.9300313306394 20.24999863192451
    vertex 250.68676431970323 164.3882751450071 25.24999863186327
    vertex 250.68676431991753 164.3882751449446 20.249998631863146
  endloop
endfacet
facet normal -0.9659258262907201 -0.25881904509635667 -3.81715808406648e-11
  outer loop
    vertex 250.87657512246201 163.93003133070192 25.249998631924633
    vertex 250.94131605272713 163.4382751449446 20.249998631961507
    vertex 250.94131605251275 163.43827514500714 25.24999863196163
  endloop
endfacet
facet normal -1.0 -2.925651045348907e-12 -4.287251426081623e-11
  outer loop
    vertex 250.94131605272713 163.4382751449446 20.249998631961507
    vertex 250.87657512246201 163.93003133070192 25.249998631924633
    vertex 250.87657512267631 163.9300313306394 20.24999863192451
  endloop
endfacet
facet normal -1.0 2.925651045429724e-12 -4.287251426088939e-11
  outer loop
    vertex 250.94131605251275 163.43827514500714 25.24999863196163
    vertex 250.87657512267631 162.94651895924983 20.249998631971433
    vertex 250.87657512246201 162.94651895931233 25.249998631971557
  endloop
endfacet
facet normal -0.9659258262888789 0.25881904510322784 -4.4643346773281414e-11
  outer loop
    vertex 250.87657512267631 162.94651895924983 20.249998631971433
    vertex 250.94131605251275 163.43827514500714 25.24999863196163
    vertex 250.94131605272713 163.4382751449446 20.249998631961507
  endloop
endfacet
facet normal -0.9659258262888789 0.25881904510322784 -4.4643346773281414e-11
  outer loop
    vertex 250.87657512267631 162.94651895924983 20.249998631971433
    vertex 250.68676431970323 162.48827514500712 25.249998631953872
    vertex 250.87657512246201 162.94651895931233 25.249998631971557
  endloop
endfacet
facet normal -0.8660254037866064 0.4999999999962453 -4.3372116699771483e-11
  outer loop
    vertex 250.68676431970323 162.48827514500712 25.249998631953872
    vertex 250.87657512267631 162.94651895924983 20.249998631971433
    vertex 250.68676431991753 162.4882751449446 20.249998631953748
  endloop
endfacet
facet normal -0.8660254037822424 0.5000000000038045 -4.3372116699678936e-11
  outer loop
    vertex 250.68676431991753 162.4882751449446 20.249998631953748
    vertex 250.3848189367672 162.0947722607527 25.249998631909474
    vertex 250.68676431970323 162.48827514500712 25.249998631953872
  endloop
endfacet
facet normal -0.7071067811919691 0.707106781181126 -3.914966154607669e-11
  outer loop
    vertex 250.3848189367672 162.0947722607527 25.249998631909474
    vertex 250.68676431991753 162.4882751449446 20.249998631953748
    vertex 250.3848189369815 162.09477226069018 20.24999863190935
  endloop
endfacet
facet normal -0.7071067811919691 0.707106781181126 -3.914966154607669e-11
  outer loop
    vertex 250.3848189367672 162.0947722607527 25.249998631909474
    vertex 249.9913160527271 161.79282687775418 20.24999863184167
    vertex 249.9913160525128 161.7928268778167 25.249998631841795
  endloop
endfacet
facet normal -0.49999999999094763 0.866025403789665 -3.226096335030647e-11
  outer loop
    vertex 249.9913160527271 161.79282687775418 20.24999863184167
    vertex 250.3848189367672 162.0947722607527 25.249998631909474
    vertex 250.3848189369815 162.09477226069018 20.24999863190935
  endloop
endfacet
facet normal -0.5000000000090861 0.8660254037791929 -3.2260963350952733e-11
  outer loop
    vertex 249.9913160525128 161.7928268778167 25.249998631841795
    vertex 249.53307223842194 161.6030160749954 20.24999863175504
    vertex 249.53307223820752 161.6030160750579 25.249998631755165
  endloop
endfacet
facet normal -0.2588190450903917 0.9659258262923184 -2.3172704369363566e-11
  outer loop
    vertex 249.53307223842194 161.6030160749954 20.24999863175504
    vertex 249.9913160525128 161.7928268778167 25.249998631841795
    vertex 249.9913160527271 161.79282687775418 20.24999863184167
  endloop
endfacet
facet normal -0.25881904511466214 0.965925826285815 -2.3172704370322792e-11
  outer loop
    vertex 249.53307223820752 161.6030160750579 25.249998631755165
    vertex 249.04131605272713 161.5382751449446 20.249998631655416
    vertex 249.0413160525128 161.53827514500713 25.249998631655544
  endloop
endfacet
facet normal 1.3784889964162802e-11 1.0 -1.2503086719435827e-11
  outer loop
    vertex 249.04131605272713 161.5382751449446 20.249998631655416
    vertex 249.53307223820752 161.6030160750579 25.249998631755165
    vertex 249.53307223842194 161.6030160749954 20.24999863175504
  endloop
endfacet
facet normal -1.3796732829294077e-11 1.0 -1.2503086720618196e-11
  outer loop
    vertex 249.0413160525128 161.53827514500713 25.249998631655544
    vertex 248.54955986703231 161.6030160749954 20.249998631549655
    vertex 248.549559866818 161.6030160750579 25.249998631549783
  endloop
endfacet
facet normal 0.2588190451160951 0.9659258262854311 -9.825925990515183e-13
  outer loop
    vertex 248.54955986703231 161.6030160749954 20.249998631549655
    vertex 249.0413160525128 161.53827514500713 25.249998631655544
    vertex 249.04131605272713 161.5382751449446 20.249998631655416
  endloop
endfacet
facet normal 0.2588190450889135 0.9659258262927145 -9.825926003076771e-13
  outer loop
    vertex 248.549559866818 161.6030160750579 25.249998631549783
    vertex 248.09131605272708 161.79282687775418 20.249998631444978
    vertex 248.09131605251275 161.7928268778167 25.249998631445106
  endloop
endfacet
facet normal 0.5000000000116286 0.8660254037777251 1.0607038346774972e-11
  outer loop
    vertex 248.09131605272708 161.79282687775418 20.249998631444978
    vertex 248.549559866818 161.6030160750579 25.249998631549783
    vertex 248.54955986703231 161.6030160749954 20.249998631549655
  endloop
endfacet
facet normal 0.4999999999884229 0.8660254037911229 1.0607038345612228e-11
  outer loop
    vertex 248.09131605251275 161.7928268778167 25.249998631445106
    vertex 247.69781316847275 162.09477226069018 20.249998631348422
    vertex 247.69781316825834 162.0947722607527 25.24999863134855
  endloop
endfacet
facet normal 0.7071067811949522 0.707106781178143 2.1474846592223824e-11
  outer loop
    vertex 247.69781316847275 162.09477226069018 20.249998631348422
    vertex 248.09131605251275 161.7928268778167 25.249998631445106
    vertex 248.09131605272708 161.79282687775418 20.249998631444978
  endloop
endfacet
facet normal 0.7071067811949522 0.707106781178143 2.1474846592223824e-11
  outer loop
    vertex 247.69781316847275 162.09477226069018 20.249998631348422
    vertex 247.3958677853224 162.48827514500715 25.249998631266614
    vertex 247.69781316825834 162.0947722607527 25.24999863134855
  endloop
endfacet
facet normal 0.8660254037797318 0.5000000000081529 3.0873234526700946e-11
  outer loop
    vertex 247.3958677853224 162.48827514500715 25.249998631266614
    vertex 247.69781316847275 162.09477226069018 20.249998631348422
    vertex 247.39586778553672 162.48827514494462 20.249998631266486
  endloop
endfacet
facet normal 0.8660254037891583 0.49999999999182565 3.0873234527308614e-11
  outer loop
    vertex 247.39586778553672 162.48827514494462 20.249998631266486
    vertex 247.2060569825636 162.94651895931233 25.24999863120525
    vertex 247.3958677853224 162.48827514500715 25.249998631266614
  endloop
endfacet
facet normal 0.9659258262874033 0.2588190451087351 3.816706827965963e-11
  outer loop
    vertex 247.2060569825636 162.94651895931233 25.24999863120525
    vertex 247.39586778553672 162.48827514494462 20.249998631266486
    vertex 247.20605698277794 162.94651895924983 20.249998631205123
  endloop
endfacet
facet normal 0.9659258262907083 0.2588190450964002 3.8167068279955494e-11
  outer loop
    vertex 247.20605698277794 162.94651895924983 20.249998631205123
    vertex 247.1413160525128 163.43827514500714 25.249998631168253
    vertex 247.2060569825636 162.94651895931233 25.24999863120525
  endloop
endfacet
facet normal 1.0 2.925651045348938e-12 4.2863489869621e-11
  outer loop
    vertex 247.1413160525128 163.43827514500714 25.249998631168253
    vertex 247.20605698277794 162.94651895924983 20.249998631205123
    vertex 247.14131605272712 163.4382751449446 20.249998631168125
  endloop
endfacet
facet normal 1.0 -2.925651045429763e-12 4.286348986969415e-11
  outer loop
    vertex 247.14131605272712 163.4382751449446 20.249998631168125
    vertex 247.2060569825636 163.93003133070192 25.249998631158327
    vertex 247.1413160525128 163.43827514500714 25.249998631168253
  endloop
endfacet
facet normal 0.9659258262888673 -0.25881904510327136 4.463883440281286e-11
  outer loop
    vertex 247.2060569825636 163.93003133070192 25.249998631158327
    vertex 247.14131605272712 163.4382751449446 20.249998631168125
    vertex 247.20605698277794 163.9300313306394 20.2499986311582
  endloop
endfacet
facet normal 0.9659258262888673 -0.25881904510327136 4.463883440281286e-11
  outer loop
    vertex 247.2060569825636 163.93003133070192 25.249998631158327
    vertex 247.39586778553672 164.38827514494463 20.249998631175888
    vertex 247.3958677853224 164.38827514500713 25.249998631176013
  endloop
endfacet
facet normal 0.8660254037866245 -0.49999999999621403 4.3375727533601184e-11
  outer loop
    vertex 247.39586778553672 164.38827514494463 20.249998631175888
    vertex 247.2060569825636 163.93003133070192 25.249998631158327
    vertex 247.20605698277794 163.9300313306394 20.2499986311582
  endloop
endfacet
facet normal 0.8660254037822603 -0.5000000000037732 4.337572753350886e-11
  outer loop
    vertex 247.3958677853224 164.38827514500713 25.249998631176013
    vertex 247.69781316847275 164.78177802919905 20.249998631220283
    vertex 247.69781316825834 164.78177802926155 25.24999863122041
  endloop
endfacet
facet normal 0.7071067811919743 -0.7071067811811208 3.9156041751906e-11
  outer loop
    vertex 247.69781316847275 164.78177802919905 20.249998631220283
    vertex 247.3958677853224 164.38827514500713 25.249998631176013
    vertex 247.39586778553672 164.38827514494463 20.249998631175888
  endloop
endfacet
facet normal 6.465177556342031e-09 1.2193713275070957e-11 1.0
  outer loop
    vertex 253.1913160527272 159.5382751450117 25.249998571916514
    vertex 249.53307223820752 161.6030160750579 25.249998631755165
    vertex 249.0413160525128 161.53827514500713 25.249998631655544
  endloop
endfacet
facet normal 6.465177556342031e-09 1.2193713275070957e-11 1.0
  outer loop
    vertex 249.53307223820752 161.6030160750579 25.249998631755165
    vertex 253.1913160527272 159.5382751450117 25.249998571916514
    vertex 249.9913160525128 161.7928268778167 25.249998631841795
  endloop
endfacet
facet normal 6.465177556342031e-09 1.2193713275070957e-11 1.0
  outer loop
    vertex 249.9913160525128 161.7928268778167 25.249998631841795
    vertex 253.1913160527272 159.5382751450117 25.249998571916514
    vertex 250.3848189367672 162.0947722607527 25.249998631909474
  endloop
endfacet
facet normal 6.465177556342031e-09 1.2193713275070957e-11 1.0
  outer loop
    vertex 250.3848189367672 162.0947722607527 25.249998631909474
    vertex 253.1913160527272 159.5382751450117 25.249998571916514
    vertex 250.68676431970323 162.48827514500712 25.249998631953872
  endloop
endfacet
facet normal 6.465177556342031e-09 1.2193713275070957e-11 1.0
  outer loop
    vertex 250.68676431970323 162.48827514500712 25.249998631953872
    vertex 253.1913160527272 159.5382751450117 25.249998571916514
    vertex 253.19131605272875 167.33827514492899 25.249998571960372
  endloop
endfacet
facet normal 6.465177556342031e-09 1.2193713275070957e-11 1.0
  outer loop
    vertex 250.68676431970323 162.48827514500712 25.249998631953872
    vertex 253.19131605272875 167.33827514492899 25.249998571960372
    vertex 250.87657512246201 162.94651895931233 25.249998631971557
  endloop
endfacet
facet normal 6.465177556342031e-09 1.2193713275070957e-11 1.0
  outer loop
    vertex 250.87657512246201 162.94651895931233 25.249998631971557
    vertex 253.19131605272875 167.33827514492899 25.249998571960372
    vertex 250.94131605251275 163.43827514500714 25.24999863196163
  endloop
endfacet
facet normal 6.465177556342031e-09 1.2193713275070957e-11 1.0
  outer loop
    vertex 250.94131605251275 163.43827514500714 25.24999863196163
    vertex 253.19131605272875 167.33827514492899 25.249998571960372
    vertex 250.87657512246201 163.93003133070192 25.249998631924633
  endloop
endfacet
facet normal 6.465177556342031e-09 1.2193713275070957e-11 1.0
  outer loop
    vertex 250.87657512246201 163.93003133070192 25.249998631924633
    vertex 253.19131605272875 167.33827514492899 25.249998571960372
    vertex 250.68676431970323 164.3882751450071 25.24999863186327
  endloop
endfacet
facet normal 6.465177556342031e-09 1.2193713275070957e-11 1.0
  outer loop
    vertex 250.68676431970323 164.3882751450071 25.24999863186327
    vertex 253.19131605272875 167.33827514492899 25.249998571960372
    vertex 250.3848189367672 164.78177802926155 25.249998631781335
  endloop
endfacet
facet normal 6.465177556342031e-09 1.2193713275070957e-11 1.0
  outer loop
    vertex 250.3848189367672 164.78177802926155 25.249998631781335
    vertex 253.19131605272875 167.33827514492899 25.249998571960372
    vertex 249.9913160525128 165.08372341219757 25.24999863168478
  endloop
endfacet
facet normal 6.465177556342031e-09 1.2193713275070957e-11 1.0
  outer loop
    vertex 249.9913160525128 165.08372341219757 25.24999863168478
    vertex 253.19131605272875 167.33827514492899 25.249998571960372
    vertex 249.53307223820752 165.27353421495636 25.2499986315801
  endloop
endfacet
facet normal 6.465177556342031e-09 1.2193713275070957e-11 1.0
  outer loop
    vertex 249.53307223820752 165.27353421495636 25.2499986315801
    vertex 253.19131605272875 167.33827514492899 25.249998571960372
    vertex 249.0413160525128 165.33827514500712 25.24999863147434
  endloop
endfacet
facet normal 6.465177556342031e-09 1.2193713275070957e-11 1.0
  outer loop
    vertex 245.1413160525554 159.53827514500713 25.249998632883333
    vertex 247.3958677853224 162.48827514500715 25.249998631266614
    vertex 245.1413160525554 167.33827514500712 25.249998632649252
  endloop
endfacet
facet normal 6.465177556342031e-09 1.2193713275070957e-11 1.0
  outer loop
    vertex 247.3958677853224 162.48827514500715 25.249998631266614
    vertex 245.1413160525554 159.53827514500713 25.249998632883333
    vertex 247.69781316825834 162.0947722607527 25.24999863134855
  endloop
endfacet
facet normal 6.465177556342031e-09 1.2193713275070957e-11 1.0
  outer loop
    vertex 247.69781316825834 162.0947722607527 25.24999863134855
    vertex 245.1413160525554 159.53827514500713 25.249998632883333
    vertex 248.09131605251275 161.7928268778167 25.249998631445106
  endloop
endfacet
facet normal 6.465177556342031e-09 1.2193713275070957e-11 1.0
  outer loop
    vertex 248.09131605251275 161.7928268778167 25.249998631445106
    vertex 245.1413160525554 159.53827514500713 25.249998632883333
    vertex 253.1913160527272 159.5382751450117 25.249998571916514
  endloop
endfacet
facet normal 6.465177556342031e-09 1.2193713275070957e-11 1.0
  outer loop
    vertex 248.09131605251275 161.7928268778167 25.249998631445106
    vertex 253.1913160527272 159.5382751450117 25.249998571916514
    vertex 248.549559866818 161.6030160750579 25.249998631549783
  endloop
endfacet
facet normal 6.465177556342031e-09 1.2193713275070957e-11 1.0
  outer loop
    vertex 248.549559866818 161.6030160750579 25.249998631549783
    vertex 253.1913160527272 159.5382751450117 25.249998571916514
    vertex 249.0413160525128 161.53827514500713 25.249998631655544
  endloop
endfacet
facet normal 6.465177556342031e-09 1.2193713275070957e-11 1.0
  outer loop
    vertex 245.1413160525554 167.33827514500712 25.249998632649252
    vertex 247.3958677853224 162.48827514500715 25.249998631266614
    vertex 247.2060569825636 162.94651895931233 25.24999863120525
  endloop
endfacet
facet normal 6.465177556342031e-09 1.2193713275070957e-11 1.0
  outer loop
    vertex 245.1413160525554 167.33827514500712 25.249998632649252
    vertex 247.2060569825636 162.94651895931233 25.24999863120525
    vertex 247.1413160525128 163.43827514500714 25.249998631168253
  endloop
endfacet
facet normal 6.465177556342031e-09 1.2193713275070957e-11 1.0
  outer loop
    vertex 245.1413160525554 167.33827514500712 25.249998632649252
    vertex 247.1413160525128 163.43827514500714 25.249998631168253
    vertex 247.2060569825636 163.93003133070192 25.249998631158327
  endloop
endfacet
facet normal 6.465177556342031e-09 1.2193713275070957e-11 1.0
  outer loop
    vertex 245.1413160525554 167.33827514500712 25.249998632649252
    vertex 247.2060569825636 163.93003133070192 25.249998631158327
    vertex 247.3958677853224 164.38827514500713 25.249998631176013
  endloop
endfacet
facet normal 6.465177556342031e-09 1.2193713275070957e-11 1.0
  outer loop
    vertex 245.1413160525554 167.33827514500712 25.249998632649252
    vertex 247.3958677853224 164.38827514500713 25.249998631176013
    vertex 247.69781316825834 164.78177802926155 25.24999863122041
  endloop
endfacet
facet normal 6.465177556342031e-09 1.2193713275070957e-11 1.0
  outer loop
    vertex 245.1413160525554 167.33827514500712 25.249998632649252
    vertex 247.69781316825834 164.78177802926155 25.24999863122041
    vertex 248.09131605251284 165.08372341219757 25.24999863128809
  endloop
endfacet
facet normal 6.465177556342031e-09 1.2193713275070957e-11 1.0
  outer loop
    vertex 245.1413160525554 167.33827514500712 25.249998632649252
    vertex 248.09131605251284 165.08372341219757 25.24999863128809
    vertex 248.549559866818 165.27353421495636 25.24999863137472
  endloop
endfacet
facet normal 6.465177556342031e-09 1.2193713275070957e-11 1.0
  outer loop
    vertex 245.1413160525554 167.33827514500712 25.249998632649252
    vertex 248.549559866818 165.27353421495636 25.24999863137472
    vertex 249.0413160525128 165.33827514500712 25.24999863147434
  endloop
endfacet
facet normal 6.465177556342031e-09 1.2193713275070957e-11 1.0
  outer loop
    vertex 245.1413160525554 167.33827514500712 25.249998632649252
    vertex 249.0413160525128 165.33827514500712 25.24999863147434
    vertex 253.19131605272875 167.33827514492899 25.249998571960372
  endloop
endfacet
facet normal 6.4444898023236375e-09 -3.3204407876840388e-12 1.0
  outer loop
    vertex 273.74131605242155 159.53827514500713 25.24999863253916
    vertex 270.33307223789103 161.6030160750579 25.249998633233098
    vertex 269.8413160521963 161.53827514500713 25.249998633133476
  endloop
endfacet
facet normal 6.4444898023236375e-09 -3.3204407876840388e-12 1.0
  outer loop
    vertex 270.33307223789103 161.6030160750579 25.249998633233098
    vertex 273.74131605242155 159.53827514500713 25.24999863253916
    vertex 270.7913160521963 161.7928268778167 25.249998633319727
  endloop
endfacet
facet normal 6.4444898023236375e-09 -3.3204407876840388e-12 1.0
  outer loop
    vertex 270.7913160521963 161.7928268778167 25.249998633319727
    vertex 273.74131605242155 159.53827514500713 25.24999863253916
    vertex 271.1848189364507 162.0947722607527 25.249998633387587
  endloop
endfacet
facet normal 6.4444898023236375e-09 -3.3204407876840388e-12 1.0
  outer loop
    vertex 271.1848189364507 162.0947722607527 25.249998633387587
    vertex 273.74131605242155 159.53827514500713 25.24999863253916
    vertex 271.48676431938674 162.48827514500712 25.249998633431805
  endloop
endfacet
facet normal 6.4444898023236375e-09 -3.3204407876840388e-12 1.0
  outer loop
    vertex 271.48676431938674 162.48827514500712 25.249998633431805
    vertex 273.74131605242155 159.53827514500713 25.24999863253916
    vertex 273.74131605242155 167.33827514500712 25.24999863253916
  endloop
endfacet
facet normal 6.4444898023236375e-09 -3.3204407876840388e-12 1.0
  outer loop
    vertex 271.48676431938674 162.48827514500712 25.249998633431805
    vertex 273.74131605242155 167.33827514500712 25.24999863253916
    vertex 271.6765751221455 162.94651895931233 25.24999863344967
  endloop
endfacet
facet normal 6.4444898023236375e-09 -3.3204407876840388e-12 1.0
  outer loop
    vertex 271.6765751221455 162.94651895931233 25.24999863344967
    vertex 273.74131605242155 167.33827514500712 25.24999863253916
    vertex 271.7413160521962 163.43827514500714 25.249998633439745
  endloop
endfacet
facet normal 6.4444898023236375e-09 -3.3204407876840388e-12 1.0
  outer loop
    vertex 271.7413160521962 163.43827514500714 25.249998633439745
    vertex 273.74131605242155 167.33827514500712 25.24999863253916
    vertex 271.6765751221455 163.93003133070192 25.249998633402747
  endloop
endfacet
facet normal 6.4444898023236375e-09 -3.3204407876840388e-12 1.0
  outer loop
    vertex 271.6765751221455 163.93003133070192 25.249998633402747
    vertex 273.74131605242155 167.33827514500712 25.24999863253916
    vertex 271.48676431938674 164.3882751450071 25.249998633341207
  endloop
endfacet
facet normal 6.4444898023236375e-09 -3.3204407876840388e-12 1.0
  outer loop
    vertex 271.48676431938674 164.3882751450071 25.249998633341207
    vertex 273.74131605242155 167.33827514500712 25.24999863253916
    vertex 271.1848189364507 164.78177802926155 25.249998633259448
  endloop
endfacet
facet normal 6.4444898023236375e-09 -3.3204407876840388e-12 1.0
  outer loop
    vertex 271.1848189364507 164.78177802926155 25.249998633259448
    vertex 273.74131605242155 167.33827514500712 25.24999863253916
    vertex 270.7913160521963 165.08372341219757 25.249998633162893
  endloop
endfacet
facet normal 6.4444898023236375e-09 -3.3204407876840388e-12 1.0
  outer loop
    vertex 270.7913160521963 165.08372341219757 25.249998633162893
    vertex 273.74131605242155 167.33827514500712 25.24999863253916
    vertex 270.33307223789103 165.27353421495636 25.249998633058034
  endloop
endfacet
facet normal 6.4444898023236375e-09 -3.3204407876840388e-12 1.0
  outer loop
    vertex 270.33307223789103 165.27353421495636 25.249998633058034
    vertex 273.74131605242155 167.33827514500712 25.24999863253916
    vertex 269.8413160521963 165.33827514500712 25.249998632952277
  endloop
endfacet
facet normal 6.4444898023236375e-09 -3.3204407876840388e-12 1.0
  outer loop
    vertex 269.8413160521963 165.33827514500712 25.249998632952277
    vertex 273.74131605242155 167.33827514500712 25.24999863253916
    vertex 265.6913160525916 167.33827514496272 25.24999869319815
  endloop
endfacet
facet normal 6.4444898023236375e-09 -3.3204407876840388e-12 1.0
  outer loop
    vertex 265.6913160525934 159.5382751450071 25.249998693146356
    vertex 268.1958677850059 162.48827514500715 25.249998632744546
    vertex 265.6913160525916 167.33827514496272 25.24999869319815
  endloop
endfacet
facet normal 6.4444898023236375e-09 -3.3204407876840388e-12 1.0
  outer loop
    vertex 268.1958677850059 162.48827514500715 25.249998632744546
    vertex 265.6913160525934 159.5382751450071 25.249998693146356
    vertex 268.49781316794184 162.0947722607527 25.2499986328263
  endloop
endfacet
facet normal 6.4444898023236375e-09 -3.3204407876840388e-12 1.0
  outer loop
    vertex 268.49781316794184 162.0947722607527 25.2499986328263
    vertex 265.6913160525934 159.5382751450071 25.249998693146356
    vertex 268.89131605219626 161.7928268778167 25.249998632922857
  endloop
endfacet
facet normal 6.4444898023236375e-09 -3.3204407876840388e-12 1.0
  outer loop
    vertex 268.89131605219626 161.7928268778167 25.249998632922857
    vertex 265.6913160525934 159.5382751450071 25.249998693146356
    vertex 273.74131605242155 159.53827514500713 25.24999863253916
  endloop
endfacet
facet normal 6.4444898023236375e-09 -3.3204407876840388e-12 1.0
  outer loop
    vertex 268.89131605219626 161.7928268778167 25.249998632922857
    vertex 273.74131605242155 159.53827514500713 25.24999863253916
    vertex 269.34955986650147 161.6030160750579 25.249998633027715
  endloop
endfacet
facet normal 6.4444898023236375e-09 -3.3204407876840388e-12 1.0
  outer loop
    vertex 269.34955986650147 161.6030160750579 25.249998633027715
    vertex 273.74131605242155 159.53827514500713 25.24999863253916
    vertex 269.8413160521963 161.53827514500713 25.249998633133476
  endloop
endfacet
facet normal 6.4444898023236375e-09 -3.3204407876840388e-12 1.0
  outer loop
    vertex 265.6913160525916 167.33827514496272 25.24999869319815
    vertex 268.1958677850059 162.48827514500715 25.249998632744546
    vertex 268.0060569822471 162.94651895931233 25.249998632683003
  endloop
endfacet
facet normal 6.4444898023236375e-09 -3.3204407876840388e-12 1.0
  outer loop
    vertex 265.6913160525916 167.33827514496272 25.24999869319815
    vertex 268.0060569822471 162.94651895931233 25.249998632683003
    vertex 267.94131605219627 163.43827514500714 25.249998632646005
  endloop
endfacet
facet normal 6.4444898023236375e-09 -3.3204407876840388e-12 1.0
  outer loop
    vertex 265.6913160525916 167.33827514496272 25.24999869319815
    vertex 267.94131605219627 163.43827514500714 25.249998632646005
    vertex 268.0060569822471 163.93003133070192 25.24999863263608
  endloop
endfacet
facet normal 6.4444898023236375e-09 -3.3204407876840388e-12 1.0
  outer loop
    vertex 265.6913160525916 167.33827514496272 25.24999869319815
    vertex 268.0060569822471 163.93003133070192 25.24999863263608
    vertex 268.1958677850059 164.38827514500713 25.249998632653945
  endloop
endfacet
facet normal 6.4444898023236375e-09 -3.3204407876840388e-12 1.0
  outer loop
    vertex 265.6913160525916 167.33827514496272 25.24999869319815
    vertex 268.1958677850059 164.38827514500713 25.249998632653945
    vertex 268.49781316794184 164.78177802926155 25.249998632698162
  endloop
endfacet
facet normal 6.4444898023236375e-09 -3.3204407876840388e-12 1.0
  outer loop
    vertex 265.6913160525916 167.33827514496272 25.24999869319815
    vertex 268.49781316794184 164.78177802926155 25.249998632698162
    vertex 268.8913160521963 165.08372341219757 25.249998632766022
  endloop
endfacet
facet normal 6.4444898023236375e-09 -3.3204407876840388e-12 1.0
  outer loop
    vertex 265.6913160525916 167.33827514496272 25.24999869319815
    vertex 268.8913160521963 165.08372341219757 25.249998632766022
    vertex 269.34955986650147 165.27353421495636 25.249998632852652
  endloop
endfacet
facet normal 6.4444898023236375e-09 -3.3204407876840388e-12 1.0
  outer loop
    vertex 265.6913160525916 167.33827514496272 25.24999869319815
    vertex 269.34955986650147 165.27353421495636 25.249998632852652
    vertex 269.8413160521963 165.33827514500712 25.249998632952277
  endloop
endfacet
facet normal 3.290260289535849e-13 -1.0 1.0241500305359985e-11
  outer loop
    vertex 273.7413160528186 159.53827514497092 20.249998632539036
    vertex 253.1913160527272 159.5382751450117 23.749998684428554
    vertex 245.1413160527697 159.53827514494463 20.24999863288321
  endloop
endfacet
facet normal 3.290260289535849e-13 -1.0 1.0241500305359985e-11
  outer loop
    vertex 253.1913160527272 159.5382751450117 23.749998684428554
    vertex 273.7413160528186 159.53827514497092 20.249998632539036
    vertex 265.6913160525934 159.5382751450117 23.749998684428533
  endloop
endfacet
facet normal 3.290260289535849e-13 -1.0 1.0241500305359985e-11
  outer loop
    vertex 265.6913160525934 159.5382751450117 23.749998684428533
    vertex 273.7413160528186 159.53827514497092 20.249998632539036
    vertex 265.6913160525934 159.5382751450071 25.249998693146356
  endloop
endfacet
facet normal 3.290260289535849e-13 -1.0 1.0241500305359985e-11
  outer loop
    vertex 265.6913160525934 159.5382751450071 25.249998693146356
    vertex 273.7413160528186 159.53827514497092 20.249998632539036
    vertex 273.74131605242155 159.53827514500713 25.24999863253916
  endloop
endfacet
facet normal 3.290260289535849e-13 -1.0 1.0241500305359985e-11
  outer loop
    vertex 245.1413160527697 159.53827514494463 20.24999863288321
    vertex 253.1913160527272 159.5382751450117 25.249998571916514
    vertex 245.1413160525554 159.53827514500713 25.249998632883333
  endloop
endfacet
facet normal 3.290260289535849e-13 -1.0 1.0241500305359985e-11
  outer loop
    vertex 253.1913160527272 159.5382751450117 25.249998571916514
    vertex 245.1413160527697 159.53827514494463 20.24999863288321
    vertex 253.1913160527272 159.5382751450117 23.749998684428554
  endloop
endfacet
facet normal 1.0 -1.0122956603977482e-13 -5.263937828927e-13
  outer loop
    vertex 253.1913160527272 159.5382751450117 25.249998571916514
    vertex 253.1913160527272 167.33827514492899 23.749998684428554
    vertex 253.19131605272875 167.33827514492899 25.249998571960372
  endloop
endfacet
facet normal 1.0 -1.0122956603977482e-13 -5.263937828927e-13
  outer loop
    vertex 253.1913160527272 167.33827514492899 23.749998684428554
    vertex 253.1913160527272 159.5382751450117 25.249998571916514
    vertex 253.1913160527272 159.5382751450117 23.749998684428554
  endloop
endfacet
facet normal -1.0 -1.1424479595837778e-13 -5.940729355375843e-13
  outer loop
    vertex 265.6913160525934 167.33827514496272 23.749998684428533
    vertex 265.6913160525934 159.5382751450071 25.249998693146356
    vertex 265.6913160525916 167.33827514496272 25.24999869319815
  endloop
endfacet
facet normal -1.0 -1.1424479595837778e-13 -5.940729355375843e-13
  outer loop
    vertex 265.6913160525934 159.5382751450071 25.249998693146356
    vertex 265.6913160525934 167.33827514496272 23.749998684428533
    vertex 265.6913160525934 159.5382751450117 23.749998684428533
  endloop
endfacet
facet normal 0.0 -1.1102230246251565e-16 1.0
  outer loop
    vertex 265.6913160525934 167.33827514496272 23.749998684428533
    vertex 253.1913160527272 159.5382751450117 23.749998684428554
    vertex 265.6913160525934 159.5382751450117 23.749998684428533
  endloop
endfacet
facet normal 0.0 -1.1102230246251565e-16 1.0
  outer loop
    vertex 253.1913160527272 159.5382751450117 23.749998684428554
    vertex 265.6913160525934 167.33827514496272 23.749998684428533
    vertex 253.1913160527272 167.33827514492899 23.749998684428554
  endloop
endfacet
facet normal -7.261112614905974e-13 1.0 -3.559763953899536e-12
  outer loop
    vertex 253.19131605272875 167.33827514492899 25.249998571960372
    vertex 245.1413160527697 167.33827514494462 20.249998632649127
    vertex 245.1413160525554 167.33827514500712 25.249998632649252
  endloop
endfacet
facet normal -7.261112614905974e-13 1.0 -3.559763953899536e-12
  outer loop
    vertex 245.1413160527697 167.33827514494462 20.249998632649127
    vertex 253.19131605272875 167.33827514492899 25.249998571960372
    vertex 253.1913160527272 167.33827514492899 23.749998684428554
  endloop
endfacet
facet normal -7.261112614905974e-13 1.0 -3.559763953899536e-12
  outer loop
    vertex 273.74131605242155 167.33827514500712 25.24999863253916
    vertex 265.6913160525934 167.33827514496272 23.749998684428533
    vertex 265.6913160525916 167.33827514496272 25.24999869319815
  endloop
endfacet
facet normal -7.261112614905974e-13 1.0 -3.559763953899536e-12
  outer loop
    vertex 253.1913160527272 167.33827514492899 23.749998684428554
    vertex 273.7413160528186 167.3382751449709 20.249998632539036
    vertex 245.1413160527697 167.33827514494462 20.249998632649127
  endloop
endfacet
facet normal -7.261112614905974e-13 1.0 -3.559763953899536e-12
  outer loop
    vertex 273.7413160528186 167.3382751449709 20.249998632539036
    vertex 253.1913160527272 167.33827514492899 23.749998684428554
    vertex 265.6913160525934 167.33827514496272 23.749998684428533
  endloop
endfacet
facet normal -7.261112614905974e-13 1.0 -3.559763953899536e-12
  outer loop
    vertex 273.7413160528186 167.3382751449709 20.249998632539036
    vertex 265.6913160525934 167.33827514496272 23.749998684428533
    vertex 273.74131605242155 167.33827514500712 25.24999863253916
  endloop
endfacet
facet normal -5.698199822203521e-12 -1.5005002938167812e-11 -1.0
  outer loop
    vertex 245.1413160527697 159.53827514494463 20.24999863288321
    vertex 249.04131605272713 161.5382751449446 20.249998631655416
    vertex 273.7413160528186 159.53827514497092 20.249998632539036
  endloop
endfacet
facet normal -5.698199822203521e-12 -1.5005002938167812e-11 -1.0
  outer loop
    vertex 249.04131605272713 161.5382751449446 20.249998631655416
    vertex 245.1413160527697 159.53827514494463 20.24999863288321
    vertex 248.54955986703231 161.6030160749954 20.249998631549655
  endloop
endfacet
facet normal -5.698199822203521e-12 -1.5005002938167812e-11 -1.0
  outer loop
    vertex 248.54955986703231 161.6030160749954 20.249998631549655
    vertex 245.1413160527697 159.53827514494463 20.24999863288321
    vertex 248.09131605272708 161.79282687775418 20.249998631444978
  endloop
endfacet
facet normal -5.698199822203521e-12 -1.5005002938167812e-11 -1.0
  outer loop
    vertex 248.09131605272708 161.79282687775418 20.249998631444978
    vertex 245.1413160527697 159.53827514494463 20.24999863288321
    vertex 247.69781316847275 162.09477226069018 20.249998631348422
  endloop
endfacet
facet normal -5.698199822203521e-12 -1.5005002938167812e-11 -1.0
  outer loop
    vertex 247.69781316847275 162.09477226069018 20.249998631348422
    vertex 245.1413160527697 159.53827514494463 20.24999863288321
    vertex 247.39586778553672 162.48827514494462 20.249998631266486
  endloop
endfacet
facet normal -5.698199822203521e-12 -1.5005002938167812e-11 -1.0
  outer loop
    vertex 247.39586778553672 162.48827514494462 20.249998631266486
    vertex 245.1413160527697 159.53827514494463 20.24999863288321
    vertex 245.1413160527697 167.33827514494462 20.249998632649127
  endloop
endfacet
facet normal -5.698199822203521e-12 -1.5005002938167812e-11 -1.0
  outer loop
    vertex 247.39586778553672 162.48827514494462 20.249998631266486
    vertex 245.1413160527697 167.33827514494462 20.249998632649127
    vertex 247.20605698277794 162.94651895924983 20.249998631205123
  endloop
endfacet
facet normal -5.698199822203521e-12 -1.5005002938167812e-11 -1.0
  outer loop
    vertex 247.20605698277794 162.94651895924983 20.249998631205123
    vertex 245.1413160527697 167.33827514494462 20.249998632649127
    vertex 247.14131605272712 163.4382751449446 20.249998631168125
  endloop
endfacet
facet normal -5.698199822203521e-12 -1.5005002938167812e-11 -1.0
  outer loop
    vertex 247.14131605272712 163.4382751449446 20.249998631168125
    vertex 245.1413160527697 167.33827514494462 20.249998632649127
    vertex 247.20605698277794 163.9300313306394 20.2499986311582
  endloop
endfacet
facet normal -5.698199822203521e-12 -1.5005002938167812e-11 -1.0
  outer loop
    vertex 247.20605698277794 163.9300313306394 20.2499986311582
    vertex 245.1413160527697 167.33827514494462 20.249998632649127
    vertex 247.39586778553672 164.38827514494463 20.249998631175888
  endloop
endfacet
facet normal -5.698199822203521e-12 -1.5005002938167812e-11 -1.0
  outer loop
    vertex 247.39586778553672 164.38827514494463 20.249998631175888
    vertex 245.1413160527697 167.33827514494462 20.249998632649127
    vertex 247.69781316847275 164.78177802919905 20.249998631220283
  endloop
endfacet
facet normal -5.698199822203521e-12 -1.5005002938167812e-11 -1.0
  outer loop
    vertex 247.69781316847275 164.78177802919905 20.249998631220283
    vertex 245.1413160527697 167.33827514494462 20.249998632649127
    vertex 248.09131605272717 165.08372341213504 20.249998631287962
  endloop
endfacet
facet normal -5.698199822203521e-12 -1.5005002938167812e-11 -1.0
  outer loop
    vertex 248.09131605272717 165.08372341213504 20.249998631287962
    vertex 245.1413160527697 167.33827514494462 20.249998632649127
    vertex 248.54955986703231 165.27353421489383 20.24999863137459
  endloop
endfacet
facet normal -5.698199822203521e-12 -1.5005002938167812e-11 -1.0
  outer loop
    vertex 248.54955986703231 165.27353421489383 20.24999863137459
    vertex 245.1413160527697 167.33827514494462 20.249998632649127
    vertex 249.04131605272713 165.33827514494462 20.249998631474217
  endloop
endfacet
facet normal -5.698199822203521e-12 -1.5005002938167812e-11 -1.0
  outer loop
    vertex 249.04131605272713 165.33827514494462 20.249998631474217
    vertex 245.1413160527697 167.33827514494462 20.249998632649127
    vertex 269.84131605259336 165.3382751449709 20.24999863295215
  endloop
endfacet
facet normal -5.698199822203521e-12 -1.5005002938167812e-11 -1.0
  outer loop
    vertex 273.7413160528186 159.53827514497092 20.249998632539036
    vertex 271.4867643197838 162.4882751449709 20.24999863343168
    vertex 273.7413160528186 167.3382751449709 20.249998632539036
  endloop
endfacet
facet normal -5.698199822203521e-12 -1.5005002938167812e-11 -1.0
  outer loop
    vertex 271.4867643197838 162.4882751449709 20.24999863343168
    vertex 273.7413160528186 159.53827514497092 20.249998632539036
    vertex 271.1848189368478 162.0947722607165 20.249998633387463
  endloop
endfacet
facet normal -5.698199822203521e-12 -1.5005002938167812e-11 -1.0
  outer loop
    vertex 271.1848189368478 162.0947722607165 20.249998633387463
    vertex 273.7413160528186 159.53827514497092 20.249998632539036
    vertex 270.79131605259334 161.7928268777805 20.249998633319603
  endloop
endfacet
facet normal -5.698199822203521e-12 -1.5005002938167812e-11 -1.0
  outer loop
    vertex 270.79131605259334 161.7928268777805 20.249998633319603
    vertex 273.7413160528186 159.53827514497092 20.249998632539036
    vertex 270.3330722382882 161.60301607502169 20.249998633232973
  endloop
endfacet
facet normal -5.698199822203521e-12 -1.5005002938167812e-11 -1.0
  outer loop
    vertex 270.3330722382882 161.60301607502169 20.249998633232973
    vertex 273.7413160528186 159.53827514497092 20.249998632539036
    vertex 269.84131605259336 161.53827514497092 20.249998633133348
  endloop
endfacet
facet normal -5.698199822203521e-12 -1.5005002938167812e-11 -1.0
  outer loop
    vertex 269.84131605259336 161.53827514497092 20.249998633133348
    vertex 273.7413160528186 159.53827514497092 20.249998632539036
    vertex 249.04131605272713 161.5382751449446 20.249998631655416
  endloop
endfacet
facet normal -5.698199822203521e-12 -1.5005002938167812e-11 -1.0
  outer loop
    vertex 273.7413160528186 167.3382751449709 20.249998632539036
    vertex 271.4867643197838 162.4882751449709 20.24999863343168
    vertex 271.67657512254254 162.94651895927612 20.249998633449547
  endloop
endfacet
facet normal -5.698199822203521e-12 -1.5005002938167812e-11 -1.0
  outer loop
    vertex 273.7413160528186 167.3382751449709 20.249998632539036
    vertex 271.67657512254254 162.94651895927612 20.249998633449547
    vertex 271.7413160525934 163.43827514497093 20.24999863343962
  endloop
endfacet
facet normal -5.698199822203521e-12 -1.5005002938167812e-11 -1.0
  outer loop
    vertex 273.7413160528186 167.3382751449709 20.249998632539036
    vertex 271.7413160525934 163.43827514497093 20.24999863343962
    vertex 271.67657512254254 163.9300313306657 20.249998633402623
  endloop
endfacet
facet normal -5.698199822203521e-12 -1.5005002938167812e-11 -1.0
  outer loop
    vertex 273.7413160528186 167.3382751449709 20.249998632539036
    vertex 271.67657512254254 163.9300313306657 20.249998633402623
    vertex 271.4867643197838 164.38827514497092 20.24999863334108
  endloop
endfacet
facet normal -5.698199822203521e-12 -1.5005002938167812e-11 -1.0
  outer loop
    vertex 273.7413160528186 167.3382751449709 20.249998632539036
    vertex 271.4867643197838 164.38827514497092 20.24999863334108
    vertex 271.1848189368478 164.78177802922534 20.249998633259324
  endloop
endfacet
facet normal -5.698199822203521e-12 -1.5005002938167812e-11 -1.0
  outer loop
    vertex 273.7413160528186 167.3382751449709 20.249998632539036
    vertex 271.1848189368478 164.78177802922534 20.249998633259324
    vertex 270.7913160525934 165.08372341216136 20.249998633162768
  endloop
endfacet
facet normal -5.698199822203521e-12 -1.5005002938167812e-11 -1.0
  outer loop
    vertex 273.7413160528186 167.3382751449709 20.249998632539036
    vertex 270.7913160525934 165.08372341216136 20.249998633162768
    vertex 270.3330722382882 165.27353421492015 20.24999863305791
  endloop
endfacet
facet normal -5.698199822203521e-12 -1.5005002938167812e-11 -1.0
  outer loop
    vertex 273.7413160528186 167.3382751449709 20.249998632539036
    vertex 270.3330722382882 165.27353421492015 20.24999863305791
    vertex 269.84131605259336 165.3382751449709 20.24999863295215
  endloop
endfacet
facet normal -5.698199822203521e-12 -1.5005002938167812e-11 -1.0
  outer loop
    vertex 273.7413160528186 167.3382751449709 20.249998632539036
    vertex 269.84131605259336 165.3382751449709 20.24999863295215
    vertex 245.1413160527697 167.33827514494462 20.249998632649127
  endloop
endfacet
facet normal -5.698199822203521e-12 -1.5005002938167812e-11 -1.0
  outer loop
    vertex 249.53307223842194 161.6030160749954 20.24999863175504
    vertex 269.84131605259336 161.53827514497092 20.249998633133348
    vertex 249.04131605272713 161.5382751449446 20.249998631655416
  endloop
endfacet
facet normal -5.698199822203521e-12 -1.5005002938167812e-11 -1.0
  outer loop
    vertex 269.84131605259336 161.53827514497092 20.249998633133348
    vertex 249.53307223842194 161.6030160749954 20.24999863175504
    vertex 269.34955986689863 161.60301607502169 20.24999863302759
  endloop
endfacet
facet normal -5.698199822203521e-12 -1.5005002938167812e-11 -1.0
  outer loop
    vertex 269.34955986689863 161.60301607502169 20.24999863302759
    vertex 249.53307223842194 161.6030160749954 20.24999863175504
    vertex 249.9913160527271 161.79282687775418 20.24999863184167
  endloop
endfacet
facet normal -5.698199822203521e-12 -1.5005002938167812e-11 -1.0
  outer loop
    vertex 269.34955986689863 161.60301607502169 20.24999863302759
    vertex 249.9913160527271 161.79282687775418 20.24999863184167
    vertex 268.89131605259337 161.7928268777805 20.249998632922733
  endloop
endfacet
facet normal -5.698199822203521e-12 -1.5005002938167812e-11 -1.0
  outer loop
    vertex 268.89131605259337 161.7928268777805 20.249998632922733
    vertex 249.9913160527271 161.79282687775418 20.24999863184167
    vertex 250.3848189369815 162.09477226069018 20.24999863190935
  endloop
endfacet
facet normal -5.698199822203521e-12 -1.5005002938167812e-11 -1.0
  outer loop
    vertex 268.89131605259337 161.7928268777805 20.249998632922733
    vertex 250.3848189369815 162.09477226069018 20.24999863190935
    vertex 268.49781316833895 162.0947722607165 20.249998632826177
  endloop
endfacet
facet normal -5.698199822203521e-12 -1.5005002938167812e-11 -1.0
  outer loop
    vertex 268.49781316833895 162.0947722607165 20.249998632826177
    vertex 250.3848189369815 162.09477226069018 20.24999863190935
    vertex 250.68676431991753 162.4882751449446 20.249998631953748
  endloop
endfacet
facet normal -5.698199822203521e-12 -1.5005002938167812e-11 -1.0
  outer loop
    vertex 268.49781316833895 162.0947722607165 20.249998632826177
    vertex 250.68676431991753 162.4882751449446 20.249998631953748
    vertex 268.1958677854029 162.48827514497094 20.24999863274442
  endloop
endfacet
facet normal -5.698199822203521e-12 -1.5005002938167812e-11 -1.0
  outer loop
    vertex 268.1958677854029 162.48827514497094 20.24999863274442
    vertex 250.68676431991753 162.4882751449446 20.249998631953748
    vertex 250.87657512267631 162.94651895924983 20.249998631971433
  endloop
endfacet
facet normal -5.698199822203521e-12 -1.5005002938167812e-11 -1.0
  outer loop
    vertex 268.1958677854029 162.48827514497094 20.24999863274442
    vertex 250.87657512267631 162.94651895924983 20.249998631971433
    vertex 268.00605698264417 162.94651895927612 20.24999863268288
  endloop
endfacet
facet normal -5.698199822203521e-12 -1.5005002938167812e-11 -1.0
  outer loop
    vertex 268.00605698264417 162.94651895927612 20.24999863268288
    vertex 250.87657512267631 162.94651895924983 20.249998631971433
    vertex 250.94131605272713 163.4382751449446 20.249998631961507
  endloop
endfacet
facet normal -5.698199822203521e-12 -1.5005002938167812e-11 -1.0
  outer loop
    vertex 268.00605698264417 162.94651895927612 20.24999863268288
    vertex 250.94131605272713 163.4382751449446 20.249998631961507
    vertex 267.94131605259344 163.43827514497093 20.24999863264588
  endloop
endfacet
facet normal -5.698199822203521e-12 -1.5005002938167812e-11 -1.0
  outer loop
    vertex 267.94131605259344 163.43827514497093 20.24999863264588
    vertex 250.94131605272713 163.4382751449446 20.249998631961507
    vertex 250.87657512267631 163.9300313306394 20.24999863192451
  endloop
endfacet
facet normal -5.698199822203521e-12 -1.5005002938167812e-11 -1.0
  outer loop
    vertex 267.94131605259344 163.43827514497093 20.24999863264588
    vertex 250.87657512267631 163.9300313306394 20.24999863192451
    vertex 268.00605698264417 163.9300313306657 20.249998632635954
  endloop
endfacet
facet normal -5.698199822203521e-12 -1.5005002938167812e-11 -1.0
  outer loop
    vertex 268.00605698264417 163.9300313306657 20.249998632635954
    vertex 250.87657512267631 163.9300313306394 20.24999863192451
    vertex 250.68676431991753 164.3882751449446 20.249998631863146
  endloop
endfacet
facet normal -5.698199822203521e-12 -1.5005002938167812e-11 -1.0
  outer loop
    vertex 268.00605698264417 163.9300313306657 20.249998632635954
    vertex 250.68676431991753 164.3882751449446 20.249998631863146
    vertex 268.1958677854029 164.38827514497092 20.24999863265382
  endloop
endfacet
facet normal -5.698199822203521e-12 -1.5005002938167812e-11 -1.0
  outer loop
    vertex 268.1958677854029 164.38827514497092 20.24999863265382
    vertex 250.68676431991753 164.3882751449446 20.249998631863146
    vertex 250.3848189369815 164.78177802919905 20.24999863178121
  endloop
endfacet
facet normal -5.698199822203521e-12 -1.5005002938167812e-11 -1.0
  outer loop
    vertex 268.1958677854029 164.38827514497092 20.24999863265382
    vertex 250.3848189369815 164.78177802919905 20.24999863178121
    vertex 268.49781316833895 164.78177802922534 20.249998632698038
  endloop
endfacet
facet normal -5.698199822203521e-12 -1.5005002938167812e-11 -1.0
  outer loop
    vertex 268.49781316833895 164.78177802922534 20.249998632698038
    vertex 250.3848189369815 164.78177802919905 20.24999863178121
    vertex 249.99131605272717 165.08372341213504 20.249998631684655
  endloop
endfacet
facet normal -5.698199822203521e-12 -1.5005002938167812e-11 -1.0
  outer loop
    vertex 268.49781316833895 164.78177802922534 20.249998632698038
    vertex 249.99131605272717 165.08372341213504 20.249998631684655
    vertex 268.89131605259337 165.08372341216136 20.249998632765898
  endloop
endfacet
facet normal -5.698199822203521e-12 -1.5005002938167812e-11 -1.0
  outer loop
    vertex 268.89131605259337 165.08372341216136 20.249998632765898
    vertex 249.99131605272717 165.08372341213504 20.249998631684655
    vertex 249.53307223842194 165.27353421489383 20.249998631579977
  endloop
endfacet
facet normal -5.698199822203521e-12 -1.5005002938167812e-11 -1.0
  outer loop
    vertex 268.89131605259337 165.08372341216136 20.249998632765898
    vertex 249.53307223842194 165.27353421489383 20.249998631579977
    vertex 269.34955986689863 165.27353421492015 20.249998632852527
  endloop
endfacet
facet normal -5.698199822203521e-12 -1.5005002938167812e-11 -1.0
  outer loop
    vertex 269.34955986689863 165.27353421492015 20.249998632852527
    vertex 249.53307223842194 165.27353421489383 20.249998631579977
    vertex 249.04131605272713 165.33827514494462 20.249998631474217
  endloop
endfacet
facet normal -5.698199822203521e-12 -1.5005002938167812e-11 -1.0
  outer loop
    vertex 269.34955986689863 165.27353421492015 20.249998632852527
    vertex 249.04131605272713 165.33827514494462 20.249998631474217
    vertex 269.84131605259336 165.3382751449709 20.24999863295215
  endloop
endfacet
endsolid Design - Rolled
