solid Design - Rolled
facet normal -1.1862562239695643e-10 -1.5234711335602888e-10 -1.0
  outer loop
    vertex 362.6140200376213 319.766608334383 12.99999999928531
    vertex 367.2169057217446 313.51660833480884 13.00000000913545
    vertex 362.6140200376213 302.766608334383 13.000000003649994
  endloop
endfacet
facet normal -1.1862562239695643e-10 -1.5234711335602888e-10 -1.0
  outer loop
    vertex 367.2169057217446 313.51660833480884 13.00000000913545
    vertex 362.6140200376213 319.766608334383 12.99999999928531
    vertex 367.9320395234803 314.4485888501136 13.000000008941232
  endloop
endfacet
facet normal -1.1862562239695643e-10 -1.5234711335602888e-10 -1.0
  outer loop
    vertex 367.9320395234803 314.4485888501136 13.000000008941232
    vertex 362.6140200376213 319.766608334383 12.99999999928531
    vertex 368.86402003885445 315.1637226517587 13.000000008712647
  endloop
endfacet
facet normal -1.1862562239695643e-10 -1.5234711335602888e-10 -1.0
  outer loop
    vertex 368.86402003885445 315.1637226517587 13.000000008712647
    vertex 362.6140200376213 319.766608334383 12.99999999928531
    vertex 379.6140200376213 319.766608334383 12.999999999043458
  endloop
endfacet
facet normal -1.1862562239695643e-10 -1.5234711335602888e-10 -1.0
  outer loop
    vertex 362.6140200376213 302.766608334383 13.000000003649994
    vertex 367.2169057217446 313.51660833480884 13.00000000913545
    vertex 366.7673538204211 312.4312940377921 13.000000009280981
  endloop
endfacet
facet normal -1.1862562239695643e-10 -1.5234711335602888e-10 -1.0
  outer loop
    vertex 362.6140200376213 302.766608334383 13.000000003649994
    vertex 366.7673538204211 312.4312940377921 13.000000009280981
    vertex 366.61402003866544 311.26660833483805 13.000000009368593
  endloop
endfacet
facet normal -1.1862562239695643e-10 -1.5234711335602888e-10 -1.0
  outer loop
    vertex 368.86402003885445 315.1637226517587 13.000000008712647
    vertex 379.6140200376213 319.766608334383 12.999999999043458
    vertex 369.94933433591495 315.6132745529771 13.00000000846484
  endloop
endfacet
facet normal -1.1862562239695643e-10 -1.5234711335602888e-10 -1.0
  outer loop
    vertex 369.94933433591495 315.6132745529771 13.00000000846484
    vertex 379.6140200376213 319.766608334383 12.999999999043458
    vertex 371.11402003888367 315.76660833461995 13.000000008214393
  endloop
endfacet
facet normal -1.1862562239695643e-10 -1.5234711335602888e-10 -1.0
  outer loop
    vertex 371.11402003888367 315.76660833461995 13.000000008214393
    vertex 379.6140200376213 319.766608334383 12.999999999043458
    vertex 372.2787057418376 315.61327455286425 13.000000007978315
  endloop
endfacet
facet normal -1.1862562239695643e-10 -1.5234711335602888e-10 -1.0
  outer loop
    vertex 372.2787057418376 315.61327455286425 13.000000007978315
    vertex 379.6140200376213 319.766608334383 12.999999999043458
    vertex 373.3640200388545 315.1637226515406 13.000000007773203
  endloop
endfacet
facet normal -1.1862562239695643e-10 -1.5234711335602888e-10 -1.0
  outer loop
    vertex 373.3640200388545 315.1637226515406 13.000000007773203
    vertex 379.6140200376213 319.766608334383 12.999999999043458
    vertex 374.2960005541592 314.44858884980505 13.000000007612273
  endloop
endfacet
facet normal -1.1862562239695643e-10 -1.5234711335602888e-10 -1.0
  outer loop
    vertex 374.2960005541592 314.44858884980505 13.000000007612273
    vertex 379.6140200376213 319.766608334383 12.999999999043458
    vertex 375.01113435580453 313.5166083344307 13.00000000750754
  endloop
endfacet
facet normal -1.1862562239695643e-10 -1.5234711335602888e-10 -1.0
  outer loop
    vertex 375.01113435580453 313.5166083344307 13.00000000750754
    vertex 379.6140200376213 319.766608334383 12.999999999043458
    vertex 375.4606862570227 312.4312940373702 13.000000007465724
  endloop
endfacet
facet normal -1.1862562239695643e-10 -1.5234711335602888e-10 -1.0
  outer loop
    vertex 375.4606862570227 312.4312940373702 13.000000007465724
    vertex 379.6140200376213 319.766608334383 12.999999999043458
    vertex 375.6140200386654 311.2666083344015 13.000000007488724
  endloop
endfacet
facet normal -1.1862562239695643e-10 -1.5234711335602888e-10 -1.0
  outer loop
    vertex 362.6140200376213 302.766608334383 13.000000003649994
    vertex 368.8640200384763 307.369494017699 13.000000009084227
    vertex 379.6140200376213 302.7666083343832 12.999999999858575
  endloop
endfacet
facet normal -1.1862562239695643e-10 -1.5234711335602888e-10 -1.0
  outer loop
    vertex 368.8640200384763 307.369494017699 13.000000009084227
    vertex 362.6140200376213 302.766608334383 13.000000003649994
    vertex 367.93203952317157 308.08462781943473 13.000000009245236
  endloop
endfacet
facet normal -1.1862562239695643e-10 -1.5234711335602888e-10 -1.0
  outer loop
    vertex 367.93203952317157 308.08462781943473 13.000000009245236
    vertex 362.6140200376213 302.766608334383 13.000000003649994
    vertex 367.2169057215263 309.01660833480895 13.000000009349868
  endloop
endfacet
facet normal -1.1862562239695643e-10 -1.5234711335602888e-10 -1.0
  outer loop
    vertex 367.2169057215263 309.01660833480895 13.000000009349868
    vertex 362.6140200376213 302.766608334383 13.000000003649994
    vertex 366.7673538203081 310.1019226318693 13.000000009391648
  endloop
endfacet
facet normal -1.1862562239695643e-10 -1.5234711335602888e-10 -1.0
  outer loop
    vertex 366.7673538203081 310.1019226318693 13.000000009391648
    vertex 362.6140200376213 302.766608334383 13.000000003649994
    vertex 366.61402003866544 311.26660833483805 13.000000009368593
  endloop
endfacet
facet normal -1.1862562239695643e-10 -1.5234711335602888e-10 -1.0
  outer loop
    vertex 379.6140200376213 302.7666083343832 12.999999999858575
    vertex 368.8640200384763 307.369494017699 13.000000009084227
    vertex 369.9493343354932 306.9199421163755 13.000000008879239
  endloop
endfacet
facet normal -1.1862562239695643e-10 -1.5234711335602888e-10 -1.0
  outer loop
    vertex 379.6140200376213 302.7666083343832 12.999999999858575
    vertex 369.9493343354932 306.9199421163755 13.000000008879239
    vertex 371.1140200384471 306.7666083346198 13.00000000864314
  endloop
endfacet
facet normal -1.1862562239695643e-10 -1.5234711335602888e-10 -1.0
  outer loop
    vertex 379.6140200376213 302.7666083343832 12.999999999858575
    vertex 371.1140200384471 306.7666083346198 13.00000000864314
    vertex 372.2787057414159 306.9199421162625 13.000000008392682
  endloop
endfacet
facet normal -1.1862562239695643e-10 -1.5234711335602888e-10 -1.0
  outer loop
    vertex 379.6140200376213 302.7666083343832 12.999999999858575
    vertex 372.2787057414159 306.9199421162625 13.000000008392682
    vertex 373.3640200384763 307.3694940174805 13.000000008144502
  endloop
endfacet
facet normal -1.1862562239695643e-10 -1.5234711335602888e-10 -1.0
  outer loop
    vertex 379.6140200376213 302.7666083343832 12.999999999858575
    vertex 373.3640200384763 307.3694940174805 13.000000008144502
    vertex 374.2960005538505 308.084627819126 13.000000007916164
  endloop
endfacet
facet normal -1.1862562239695643e-10 -1.5234711335602888e-10 -1.0
  outer loop
    vertex 379.6140200376213 302.7666083343832 12.999999999858575
    vertex 374.2960005538505 308.084627819126 13.000000007916164
    vertex 375.01113435558625 309.01660833443077 13.000000007722015
  endloop
endfacet
facet normal -1.1862562239695643e-10 -1.5234711335602888e-10 -1.0
  outer loop
    vertex 379.6140200376213 302.7666083343832 12.999999999858575
    vertex 375.01113435558625 309.01660833443077 13.000000007722015
    vertex 375.4606862569097 310.1019226314475 13.000000007576425
  endloop
endfacet
facet normal -1.1862562239695643e-10 -1.5234711335602888e-10 -1.0
  outer loop
    vertex 379.6140200376213 302.7666083343832 12.999999999858575
    vertex 375.4606862569097 310.1019226314475 13.000000007576425
    vertex 375.6140200386654 311.2666083344015 13.000000007488724
  endloop
endfacet
facet normal -1.1862562239695643e-10 -1.5234711335602888e-10 -1.0
  outer loop
    vertex 379.6140200376213 302.7666083343832 12.999999999858575
    vertex 375.6140200386654 311.2666083344015 13.000000007488724
    vertex 379.6140200376213 319.766608334383 12.999999999043458
  endloop
endfacet
facet normal -1.0 3.045499192830485e-20 1.186190701218948e-10
  outer loop
    vertex 362.61402003809576 302.76660833499244 17.000000003649994
    vertex 362.6140200376213 319.766608334383 12.99999999928531
    vertex 362.6140200376213 302.766608334383 13.000000003649994
  endloop
endfacet
facet normal -1.0 3.045499192830485e-20 1.186190701218948e-10
  outer loop
    vertex 362.6140200376213 319.766608334383 12.99999999928531
    vertex 362.61402003809576 302.76660833499244 17.000000003649994
    vertex 362.61402003809576 319.7666083349924 16.999999999285308
  endloop
endfacet
facet normal 1.0 -5.687555110125936e-21 -1.186190701218948e-10
  outer loop
    vertex 379.6140200376213 319.766608334383 12.999999999043458
    vertex 379.61402003809576 302.76660833499255 16.999999999858574
    vertex 379.6140200376213 302.7666083343832 12.999999999858575
  endloop
endfacet
facet normal 1.0 -5.687555110125936e-21 -1.186190701218948e-10
  outer loop
    vertex 379.61402003809576 302.76660833499255 16.999999999858574
    vertex 379.6140200376213 319.766608334383 12.999999999043458
    vertex 379.61402003809576 319.7666083349924 16.999999999043457
  endloop
endfacet
facet normal 7.962292280830815e-15 -1.0 1.5234711335602795e-10
  outer loop
    vertex 379.61402003809576 302.76660833499255 16.999999999858574
    vertex 362.6140200376213 302.766608334383 13.000000003649994
    vertex 379.6140200376213 302.7666083343832 12.999999999858575
  endloop
endfacet
facet normal 7.962292280830815e-15 -1.0 1.5234711335602795e-10
  outer loop
    vertex 362.6140200376213 302.766608334383 13.000000003649994
    vertex 379.61402003809576 302.76660833499255 16.999999999858574
    vertex 362.61402003809576 302.76660833499244 17.000000003649994
  endloop
endfacet
facet normal 2.167368338574793e-21 -1.0 1.5234711335602888e-10
  outer loop
    vertex 377.36402003809576 317.5166083349924 16.99999999944435
    vertex 364.8640200378585 317.5166083346877 14.999999999569978
    vertex 377.36402003785855 317.5166083346877 14.999999999444348
  endloop
endfacet
facet normal 2.167368338574793e-21 -1.0 1.5234711335602888e-10
  outer loop
    vertex 364.8640200378585 317.5166083346877 14.999999999569978
    vertex 377.36402003809576 317.5166083349924 16.99999999944435
    vertex 364.86402003809576 317.5166083349924 16.999999999569976
  endloop
endfacet
facet normal -0.5000000000326366 -0.8660254037655961 1.9125471554738232e-10
  outer loop
    vertex 373.36402003909177 315.16372265184526 15.00000000750555
    vertex 372.2787057418376 315.61327455286425 13.000000007978315
    vertex 373.3640200388545 315.1637226515406 13.000000007773203
  endloop
endfacet
facet normal -0.25881904515861454 -0.9659258262740381 1.778634889289436e-10
  outer loop
    vertex 372.2787057418376 315.61327455286425 13.000000007978315
    vertex 373.36402003909177 315.16372265184526 15.00000000750555
    vertex 372.27870574207486 315.61327455316894 15.000000007710664
  endloop
endfacet
facet normal 1.1862562239695645e-10 1.5234711335602885e-10 1.0
  outer loop
    vertex 362.61402003809576 302.76660833499244 17.000000003649994
    vertex 364.86402003809576 305.0166083349924 17.000000002831506
    vertex 362.61402003809576 319.7666083349924 16.999999999285308
  endloop
endfacet
facet normal 1.1862562239695645e-10 1.5234711335602885e-10 1.0
  outer loop
    vertex 364.86402003809576 305.0166083349924 17.000000002831506
    vertex 362.61402003809576 302.76660833499244 17.000000003649994
    vertex 379.61402003809576 302.76660833499255 16.999999999858574
  endloop
endfacet
facet normal 1.1862562239695645e-10 1.5234711335602885e-10 1.0
  outer loop
    vertex 364.86402003809576 305.0166083349924 17.000000002831506
    vertex 379.61402003809576 302.76660833499255 16.999999999858574
    vertex 377.36402003809576 305.01660833499255 16.999999999991502
  endloop
endfacet
facet normal 1.1862562239695645e-10 1.5234711335602885e-10 1.0
  outer loop
    vertex 377.36402003809576 305.01660833499255 16.999999999991502
    vertex 379.61402003809576 302.76660833499255 16.999999999858574
    vertex 377.36402003809576 317.5166083349924 16.99999999944435
  endloop
endfacet
facet normal 1.1862562239695645e-10 1.5234711335602885e-10 1.0
  outer loop
    vertex 362.61402003809576 319.7666083349924 16.999999999285308
    vertex 364.86402003809576 317.5166083349924 16.999999999569976
    vertex 379.61402003809576 319.7666083349924 16.999999999043457
  endloop
endfacet
facet normal 1.1862562239695645e-10 1.5234711335602885e-10 1.0
  outer loop
    vertex 364.86402003809576 317.5166083349924 16.999999999569976
    vertex 362.61402003809576 319.7666083349924 16.999999999285308
    vertex 364.86402003809576 305.0166083349924 17.000000002831506
  endloop
endfacet
facet normal 1.1862562239695645e-10 1.5234711335602885e-10 1.0
  outer loop
    vertex 379.61402003809576 319.7666083349924 16.999999999043457
    vertex 364.86402003809576 317.5166083349924 16.999999999569976
    vertex 377.36402003809576 317.5166083349924 16.99999999944435
  endloop
endfacet
facet normal 1.1862562239695645e-10 1.5234711335602885e-10 1.0
  outer loop
    vertex 379.61402003809576 319.7666083349924 16.999999999043457
    vertex 377.36402003809576 317.5166083349924 16.99999999944435
    vertex 379.61402003809576 302.76660833499255 16.999999999858574
  endloop
endfacet
facet normal -0.8660254038030833 -0.49999999996770644 1.7891172504487756e-10
  outer loop
    vertex 375.0111343560418 313.5166083347354 15.000000007239887
    vertex 374.2960005541592 314.44858884980505 13.000000007612273
    vertex 375.01113435580453 313.5166083344307 13.00000000750754
  endloop
endfacet
facet normal -0.7071067812289427 -0.7071067811441525 1.9161224936562947e-10
  outer loop
    vertex 374.2960005541592 314.44858884980505 13.000000007612273
    vertex 375.0111343560418 313.5166083347354 15.000000007239887
    vertex 374.29600055439647 314.44858885010973 15.000000007344621
  endloop
endfacet
facet normal -0.9659258262989494 -0.25881904506564446 1.5401866232727865e-10
  outer loop
    vertex 375.46068625725997 312.4312940376749 15.000000007198071
    vertex 375.01113435580453 313.5166083344307 13.00000000750754
    vertex 375.4606862570227 312.4312940373702 13.000000007465724
  endloop
endfacet
facet normal -0.8660254038143452 -0.4999999999482005 1.7891172504324184e-10
  outer loop
    vertex 375.01113435580453 313.5166083344307 13.00000000750754
    vertex 375.46068625725997 312.4312940376749 15.000000007198071
    vertex 375.0111343560418 313.5166083347354 15.000000007239887
  endloop
endfacet
facet normal -1.0 3.978257188451283e-11 1.1862948229976956e-10
  outer loop
    vertex 375.61402003890265 311.2666083347062 15.000000007221072
    vertex 375.4606862570227 312.4312940373702 13.000000007465724
    vertex 375.6140200386654 311.2666083344015 13.000000007488724
  endloop
endfacet
facet normal -0.9659258263043056 -0.2588190450456546 1.5401866232486859e-10
  outer loop
    vertex 375.4606862570227 312.4312940373702 13.000000007465724
    vertex 375.61402003890265 311.2666083347062 15.000000007221072
    vertex 375.46068625725997 312.4312940376749 15.000000007198071
  endloop
endfacet
facet normal -0.7071067812127395 -0.7071067811603556 1.9161224936617587e-10
  outer loop
    vertex 374.29600055439647 314.44858885010973 15.000000007344621
    vertex 373.3640200388545 315.1637226515406 13.000000007773203
    vertex 374.2960005541592 314.44858884980505 13.000000007612273
  endloop
endfacet
facet normal -0.5000000000514289 -0.8660254037547463 1.9125471554795866e-10
  outer loop
    vertex 373.3640200388545 315.1637226515406 13.000000007773203
    vertex 374.29600055439647 314.44858885010973 15.000000007344621
    vertex 373.36402003909177 315.16372265184526 15.00000000750555
  endloop
endfacet
facet normal -0.8660254037620576 0.5000000000387654 2.6560565573144754e-11
  outer loop
    vertex 375.0111343558235 309.01660833473545 15.000000007454362
    vertex 375.4606862569097 310.1019226314475 13.000000007576425
    vertex 375.01113435558625 309.01660833443077 13.000000007722015
  endloop
endfacet
facet normal -0.9659258262748426 0.2588190451556125 7.51558990955066e-11
  outer loop
    vertex 375.4606862569097 310.1019226314475 13.000000007576425
    vertex 375.0111343558235 309.01660833473545 15.000000007454362
    vertex 375.460686257147 310.1019226317522 15.000000007308772
  endloop
endfacet
facet normal -1.0 5.6878740383902315e-21 1.1862562239695643e-10
  outer loop
    vertex 377.36402003809576 305.01660833499255 16.999999999991502
    vertex 377.36402003785855 317.5166083346877 14.999999999444348
    vertex 377.36402003785855 305.0166083346879 14.999999999991502
  endloop
endfacet
facet normal -1.0 5.6878740383902315e-21 1.1862562239695643e-10
  outer loop
    vertex 377.36402003785855 317.5166083346877 14.999999999444348
    vertex 377.36402003809576 305.01660833499255 16.999999999991502
    vertex 377.36402003809576 317.5166083349924 16.99999999944435
  endloop
endfacet
facet normal -0.965925826278185 0.25881904514313786 7.515589909780364e-11
  outer loop
    vertex 375.460686257147 310.1019226317522 15.000000007308772
    vertex 375.6140200386654 311.2666083344015 13.000000007488724
    vertex 375.4606862569097 310.1019226314475 13.000000007576425
  endloop
endfacet
facet normal -1.0 5.7203069931345097e-11 1.1862948229711555e-10
  outer loop
    vertex 375.6140200386654 311.2666083344015 13.000000007488724
    vertex 375.460686257147 310.1019226317522 15.000000007308772
    vertex 375.61402003890265 311.2666083347062 15.000000007221072
  endloop
endfacet
facet normal -0.7071067811528782 0.7071067812202169 -2.3844826601978254e-11
  outer loop
    vertex 374.29600055408775 308.0846278194307 15.000000007648511
    vertex 375.01113435558625 309.01660833443077 13.000000007722015
    vertex 374.2960005538505 308.084627819126 13.000000007916164
  endloop
endfacet
facet normal -0.8660254037582844 0.5000000000453005 2.6560565571701518e-11
  outer loop
    vertex 375.01113435558625 309.01660833443077 13.000000007722015
    vertex 374.29600055408775 308.0846278194307 15.000000007648511
    vertex 375.0111343558235 309.01660833473545 15.000000007454362
  endloop
endfacet
facet normal -1.0412217912721788e-14 1.0 -1.5234711335602764e-10
  outer loop
    vertex 364.8640200378585 305.0166083346877 15.000000002831506
    vertex 377.36402003809576 305.01660833499255 16.999999999991502
    vertex 377.36402003785855 305.0166083346879 14.999999999991502
  endloop
endfacet
facet normal -1.0412217912721788e-14 1.0 -1.5234711335602764e-10
  outer loop
    vertex 377.36402003809576 305.01660833499255 16.999999999991502
    vertex 364.8640200378585 305.0166083346877 15.000000002831506
    vertex 364.86402003809576 305.0166083349924 17.000000002831506
  endloop
endfacet
facet normal 1.186255777368535e-10 1.5234717077616115e-10 1.0
  outer loop
    vertex 364.8640200378585 305.0166083346877 15.000000002831506
    vertex 366.7673538205454 310.10192263217397 15.000000009123996
    vertex 364.8640200378585 317.5166083346877 14.999999999569978
  endloop
endfacet
facet normal 1.186255777368535e-10 1.5234717077616115e-10 1.0
  outer loop
    vertex 366.7673538205454 310.10192263217397 15.000000009123996
    vertex 364.8640200378585 305.0166083346877 15.000000002831506
    vertex 367.21690572176357 309.01660833511363 15.000000009082216
  endloop
endfacet
facet normal 1.186255777368535e-10 1.5234717077616115e-10 1.0
  outer loop
    vertex 367.21690572176357 309.01660833511363 15.000000009082216
    vertex 364.8640200378585 305.0166083346877 15.000000002831506
    vertex 367.9320395234089 308.0846278197394 15.000000008977583
  endloop
endfacet
facet normal 1.186255777368535e-10 1.5234717077616115e-10 1.0
  outer loop
    vertex 367.9320395234089 308.0846278197394 15.000000008977583
    vertex 364.8640200378585 305.0166083346877 15.000000002831506
    vertex 368.8640200387136 307.36949401800376 15.000000008816576
  endloop
endfacet
facet normal 1.186255777368535e-10 1.5234717077616115e-10 1.0
  outer loop
    vertex 368.8640200387136 307.36949401800376 15.000000008816576
    vertex 364.8640200378585 305.0166083346877 15.000000002831506
    vertex 369.9493343357305 306.9199421166802 15.000000008611586
  endloop
endfacet
facet normal 1.186255777368535e-10 1.5234717077616115e-10 1.0
  outer loop
    vertex 369.9493343357305 306.9199421166802 15.000000008611586
    vertex 364.8640200378585 305.0166083346877 15.000000002831506
    vertex 377.36402003785855 305.0166083346879 14.999999999991502
  endloop
endfacet
facet normal 1.186255777368535e-10 1.5234717077616115e-10 1.0
  outer loop
    vertex 364.8640200378585 317.5166083346877 14.999999999569978
    vertex 366.7673538205454 310.10192263217397 15.000000009123996
    vertex 366.6140200389027 311.26660833514273 15.00000000910094
  endloop
endfacet
facet normal 1.186255777368535e-10 1.5234717077616115e-10 1.0
  outer loop
    vertex 369.9493343357305 306.9199421166802 15.000000008611586
    vertex 377.36402003785855 305.0166083346879 14.999999999991502
    vertex 371.1140200386844 306.76660833492446 15.000000008375487
  endloop
endfacet
facet normal 1.186255777368535e-10 1.5234717077616115e-10 1.0
  outer loop
    vertex 371.1140200386844 306.76660833492446 15.000000008375487
    vertex 377.36402003785855 305.0166083346879 14.999999999991502
    vertex 372.27870574165314 306.91994211656726 15.00000000812503
  endloop
endfacet
facet normal 1.186255777368535e-10 1.5234717077616115e-10 1.0
  outer loop
    vertex 372.27870574165314 306.91994211656726 15.00000000812503
    vertex 377.36402003785855 305.0166083346879 14.999999999991502
    vertex 373.3640200387136 307.36949401778526 15.00000000787685
  endloop
endfacet
facet normal 1.186255777368535e-10 1.5234717077616115e-10 1.0
  outer loop
    vertex 373.3640200387136 307.36949401778526 15.00000000787685
    vertex 377.36402003785855 305.0166083346879 14.999999999991502
    vertex 374.29600055408775 308.0846278194307 15.000000007648511
  endloop
endfacet
facet normal 1.186255777368535e-10 1.5234717077616115e-10 1.0
  outer loop
    vertex 374.29600055408775 308.0846278194307 15.000000007648511
    vertex 377.36402003785855 305.0166083346879 14.999999999991502
    vertex 375.0111343558235 309.01660833473545 15.000000007454362
  endloop
endfacet
facet normal 1.186255777368535e-10 1.5234717077616115e-10 1.0
  outer loop
    vertex 375.0111343558235 309.01660833473545 15.000000007454362
    vertex 377.36402003785855 305.0166083346879 14.999999999991502
    vertex 375.460686257147 310.1019226317522 15.000000007308772
  endloop
endfacet
facet normal 1.186255777368535e-10 1.5234717077616115e-10 1.0
  outer loop
    vertex 375.460686257147 310.1019226317522 15.000000007308772
    vertex 377.36402003785855 305.0166083346879 14.999999999991502
    vertex 375.61402003890265 311.2666083347062 15.000000007221072
  endloop
endfacet
facet normal 1.186255777368535e-10 1.5234717077616115e-10 1.0
  outer loop
    vertex 364.8640200378585 317.5166083346877 14.999999999569978
    vertex 369.9493343361522 315.61327455328177 15.000000008197187
    vertex 377.36402003785855 317.5166083346877 14.999999999444348
  endloop
endfacet
facet normal 1.186255777368535e-10 1.5234717077616115e-10 1.0
  outer loop
    vertex 369.9493343361522 315.61327455328177 15.000000008197187
    vertex 364.8640200378585 317.5166083346877 14.999999999569978
    vertex 368.86402003909177 315.16372265206337 15.000000008444994
  endloop
endfacet
facet normal 1.186255777368535e-10 1.5234717077616115e-10 1.0
  outer loop
    vertex 368.86402003909177 315.16372265206337 15.000000008444994
    vertex 364.8640200378585 317.5166083346877 14.999999999569978
    vertex 367.9320395237176 314.4485888504183 15.000000008673581
  endloop
endfacet
facet normal 1.186255777368535e-10 1.5234717077616115e-10 1.0
  outer loop
    vertex 367.9320395237176 314.4485888504183 15.000000008673581
    vertex 364.8640200378585 317.5166083346877 14.999999999569978
    vertex 367.21690572198185 313.5166083351135 15.000000008867797
  endloop
endfacet
facet normal 1.186255777368535e-10 1.5234717077616115e-10 1.0
  outer loop
    vertex 367.21690572198185 313.5166083351135 15.000000008867797
    vertex 364.8640200378585 317.5166083346877 14.999999999569978
    vertex 366.76735382065834 312.4312940380968 15.00000000901333
  endloop
endfacet
facet normal 1.186255777368535e-10 1.5234717077616115e-10 1.0
  outer loop
    vertex 366.76735382065834 312.4312940380968 15.00000000901333
    vertex 364.8640200378585 317.5166083346877 14.999999999569978
    vertex 366.6140200389027 311.26660833514273 15.00000000910094
  endloop
endfacet
facet normal 1.186255777368535e-10 1.5234717077616115e-10 1.0
  outer loop
    vertex 377.36402003785855 317.5166083346877 14.999999999444348
    vertex 369.9493343361522 315.61327455328177 15.000000008197187
    vertex 371.114020039121 315.7666083349246 15.00000000794674
  endloop
endfacet
facet normal 1.186255777368535e-10 1.5234717077616115e-10 1.0
  outer loop
    vertex 377.36402003785855 317.5166083346877 14.999999999444348
    vertex 371.114020039121 315.7666083349246 15.00000000794674
    vertex 372.27870574207486 315.61327455316894 15.000000007710664
  endloop
endfacet
facet normal 1.186255777368535e-10 1.5234717077616115e-10 1.0
  outer loop
    vertex 377.36402003785855 317.5166083346877 14.999999999444348
    vertex 372.27870574207486 315.61327455316894 15.000000007710664
    vertex 373.36402003909177 315.16372265184526 15.00000000750555
  endloop
endfacet
facet normal 1.186255777368535e-10 1.5234717077616115e-10 1.0
  outer loop
    vertex 377.36402003785855 317.5166083346877 14.999999999444348
    vertex 373.36402003909177 315.16372265184526 15.00000000750555
    vertex 374.29600055439647 314.44858885010973 15.000000007344621
  endloop
endfacet
facet normal 1.186255777368535e-10 1.5234717077616115e-10 1.0
  outer loop
    vertex 377.36402003785855 317.5166083346877 14.999999999444348
    vertex 374.29600055439647 314.44858885010973 15.000000007344621
    vertex 375.0111343560418 313.5166083347354 15.000000007239887
  endloop
endfacet
facet normal 1.186255777368535e-10 1.5234717077616115e-10 1.0
  outer loop
    vertex 377.36402003785855 317.5166083346877 14.999999999444348
    vertex 375.0111343560418 313.5166083347354 15.000000007239887
    vertex 375.46068625725997 312.4312940376749 15.000000007198071
  endloop
endfacet
facet normal 1.186255777368535e-10 1.5234717077616115e-10 1.0
  outer loop
    vertex 377.36402003785855 317.5166083346877 14.999999999444348
    vertex 375.46068625725997 312.4312940376749 15.000000007198071
    vertex 375.61402003890265 311.2666083347062 15.000000007221072
  endloop
endfacet
facet normal 1.186255777368535e-10 1.5234717077616115e-10 1.0
  outer loop
    vertex 377.36402003785855 317.5166083346877 14.999999999444348
    vertex 375.61402003890265 311.2666083347062 15.000000007221072
    vertex 377.36402003785855 305.0166083346879 14.999999999991502
  endloop
endfacet
facet normal 1.0 -3.045668186908457e-20 -1.1862562239695643e-10
  outer loop
    vertex 364.8640200378585 317.5166083346877 14.999999999569978
    vertex 364.86402003809576 305.0166083349924 17.000000002831506
    vertex 364.8640200378585 305.0166083346877 15.000000002831506
  endloop
endfacet
facet normal 1.0 -3.045668186908457e-20 -1.1862562239695643e-10
  outer loop
    vertex 364.86402003809576 305.0166083349924 17.000000002831506
    vertex 364.8640200378585 317.5166083346877 14.999999999569978
    vertex 364.86402003809576 317.5166083349924 16.999999999569976
  endloop
endfacet
facet normal -0.25881904506044123 0.9659258263003435 -1.1645635026848595e-10
  outer loop
    vertex 372.2787057414159 306.9199421162625 13.000000008392682
    vertex 373.3640200387136 307.36949401778526 15.00000000787685
    vertex 373.3640200384763 307.3694940174805 13.000000008144502
  endloop
endfacet
facet normal -0.4999999999561225 0.8660254038097716 -7.26252332496155e-11
  outer loop
    vertex 373.3640200387136 307.36949401778526 15.00000000787685
    vertex 372.2787057414159 306.9199421162625 13.000000008392682
    vertex 372.27870574165314 306.91994211656726 15.00000000812503
  endloop
endfacet
facet normal 0.8660254038030595 0.49999999996774797 -1.7891172504488107e-10
  outer loop
    vertex 367.2169057215263 309.01660833480895 13.000000009349868
    vertex 367.9320395234089 308.0846278197394 15.000000008977583
    vertex 367.93203952317157 308.08462781943473 13.000000009245236
  endloop
endfacet
facet normal 0.7071067812289579 0.7071067811441372 -1.9161224936562892e-10
  outer loop
    vertex 367.9320395234089 308.0846278197394 15.000000008977583
    vertex 367.2169057215263 309.01660833480895 13.000000009349868
    vertex 367.21690572176357 309.01660833511363 15.000000009082216
  endloop
endfacet
facet normal 0.2588190451402473 0.9659258262789595 -1.7786348892751454e-10
  outer loop
    vertex 369.9493343354932 306.9199421163755 13.000000008879239
    vertex 371.1140200386844 306.76660833492446 15.000000008375487
    vertex 371.1140200384471 306.7666083346198 13.00000000864314
  endloop
endfacet
facet normal 5.599866213913989e-11 1.0 -1.5235115947252305e-10
  outer loop
    vertex 371.1140200386844 306.76660833492446 15.000000008375487
    vertex 369.9493343354932 306.9199421163755 13.000000008879239
    vertex 369.9493343357305 306.9199421166802 15.000000008611586
  endloop
endfacet
facet normal 0.965925826278187 -0.2588190451431303 -7.515589909780503e-11
  outer loop
    vertex 366.7673538204211 312.4312940377921 13.000000009280981
    vertex 366.6140200389027 311.26660833514273 15.00000000910094
    vertex 366.61402003866544 311.26660833483805 13.000000009368593
  endloop
endfacet
facet normal 1.0 -5.7204281842288604e-11 -1.1862948229711535e-10
  outer loop
    vertex 366.6140200389027 311.26660833514273 15.00000000910094
    vertex 366.7673538204211 312.4312940377921 13.000000009280981
    vertex 366.76735382065834 312.4312940380968 15.00000000901333
  endloop
endfacet
facet normal 0.25881904506061904 -0.9659258263002959 1.1645635026845762e-10
  outer loop
    vertex 369.9493343361522 315.61327455328177 15.000000008197187
    vertex 368.86402003885445 315.1637226517587 13.000000008712647
    vertex 369.94933433591495 315.6132745529771 13.00000000846484
  endloop
endfacet
facet normal 0.499999999956159 -0.8660254038097502 7.262523324960793e-11
  outer loop
    vertex 368.86402003885445 315.1637226517587 13.000000008712647
    vertex 369.9493343361522 315.61327455328177 15.000000008197187
    vertex 368.86402003909177 315.16372265206337 15.000000008444994
  endloop
endfacet
facet normal 0.7071067812127559 0.7071067811603392 -1.9161224936617533e-10
  outer loop
    vertex 367.93203952317157 308.08462781943473 13.000000009245236
    vertex 368.8640200387136 307.36949401800376 15.000000008816576
    vertex 368.8640200384763 307.369494017699 13.000000009084227
  endloop
endfacet
facet normal 0.500000000051421 0.8660254037547508 -1.912547155479584e-10
  outer loop
    vertex 368.8640200387136 307.36949401800376 15.000000008816576
    vertex 367.93203952317157 308.08462781943473 13.000000009245236
    vertex 367.9320395234089 308.0846278197394 15.000000008977583
  endloop
endfacet
facet normal 4.100200380773793e-11 1.0 -1.52351159470744e-10
  outer loop
    vertex 371.1140200384471 306.7666083346198 13.00000000864314
    vertex 372.27870574165314 306.91994211656726 15.00000000812503
    vertex 372.2787057414159 306.9199421162625 13.000000008392682
  endloop
endfacet
facet normal -0.25881904505080366 0.9659258263029259 -1.164563502700227e-10
  outer loop
    vertex 372.27870574165314 306.91994211656726 15.00000000812503
    vertex 371.1140200384471 306.7666083346198 13.00000000864314
    vertex 371.1140200386844 306.76660833492446 15.000000008375487
  endloop
endfacet
facet normal -0.4999999999598142 0.8660254038076399 -7.262523324885283e-11
  outer loop
    vertex 373.3640200384763 307.3694940174805 13.000000008144502
    vertex 374.29600055408775 308.0846278194307 15.000000007648511
    vertex 374.2960005538505 308.084627819126 13.000000007916164
  endloop
endfacet
facet normal -0.7071067811528782 0.7071067812202169 -2.3844826601978254e-11
  outer loop
    vertex 374.29600055408775 308.0846278194307 15.000000007648511
    vertex 373.3640200384763 307.3694940174805 13.000000008144502
    vertex 373.3640200387136 307.36949401778526 15.00000000787685
  endloop
endfacet
facet normal 0.9659258262989433 0.2588190450656674 -1.5401866232728145e-10
  outer loop
    vertex 366.7673538203081 310.1019226318693 13.000000009391648
    vertex 367.21690572176357 309.01660833511363 15.000000009082216
    vertex 367.2169057215263 309.01660833480895 13.000000009349868
  endloop
endfacet
facet normal 0.8660254038143165 0.4999999999482504 -1.7891172504324602e-10
  outer loop
    vertex 367.21690572176357 309.01660833511363 15.000000009082216
    vertex 366.7673538203081 310.1019226318693 13.000000009391648
    vertex 366.7673538205454 310.10192263217397 15.000000009123996
  endloop
endfacet
facet normal 0.4999999999598432 -0.8660254038076234 7.262523324884688e-11
  outer loop
    vertex 368.86402003909177 315.16372265206337 15.000000008444994
    vertex 367.9320395234803 314.4485888501136 13.000000008941232
    vertex 368.86402003885445 315.1637226517587 13.000000008712647
  endloop
endfacet
facet normal 0.7071067811527841 -0.7071067812203109 2.3844826602003764e-11
  outer loop
    vertex 367.9320395234803 314.4485888501136 13.000000008941232
    vertex 368.86402003909177 315.16372265206337 15.000000008444994
    vertex 367.9320395237176 314.4485888504183 15.000000008673581
  endloop
endfacet
facet normal -4.094609550425213e-11 -1.0 1.523511594707374e-10
  outer loop
    vertex 371.114020039121 315.7666083349246 15.00000000794674
    vertex 369.94933433591495 315.6132745529771 13.00000000846484
    vertex 371.11402003888367 315.76660833461995 13.000000008214393
  endloop
endfacet
facet normal 0.25881904505100795 -0.9659258263028713 1.164563502699901e-10
  outer loop
    vertex 369.94933433591495 315.6132745529771 13.00000000846484
    vertex 371.114020039121 315.7666083349246 15.00000000794674
    vertex 369.9493343361522 315.61327455328177 15.000000008197187
  endloop
endfacet
facet normal -0.25881904514027676 -0.9659258262789517 1.7786348892751684e-10
  outer loop
    vertex 372.27870574207486 315.61327455316894 15.000000007710664
    vertex 371.11402003888367 315.76660833461995 13.000000008214393
    vertex 372.2787057418376 315.61327455286425 13.000000007978315
  endloop
endfacet
facet normal -5.594034783598359e-11 -1.0 1.5235115947251612e-10
  outer loop
    vertex 371.11402003888367 315.76660833461995 13.000000008214393
    vertex 372.27870574207486 315.61327455316894 15.000000007710664
    vertex 371.114020039121 315.7666083349246 15.00000000794674
  endloop
endfacet
facet normal 1.0 -3.9781368884678485e-11 -1.1862948229976974e-10
  outer loop
    vertex 366.61402003866544 311.26660833483805 13.000000009368593
    vertex 366.7673538205454 310.10192263217397 15.000000009123996
    vertex 366.7673538203081 310.1019226318693 13.000000009391648
  endloop
endfacet
facet normal 0.9659258263042978 0.2588190450456837 -1.540186623248721e-10
  outer loop
    vertex 366.7673538205454 310.10192263217397 15.000000009123996
    vertex 366.61402003866544 311.26660833483805 13.000000009368593
    vertex 366.6140200389027 311.26660833514273 15.00000000910094
  endloop
endfacet
facet normal 0.5000000000326316 0.8660254037655989 -1.9125471554738212e-10
  outer loop
    vertex 368.8640200384763 307.369494017699 13.000000009084227
    vertex 369.9493343357305 306.9199421166802 15.000000008611586
    vertex 369.9493343354932 306.9199421163755 13.000000008879239
  endloop
endfacet
facet normal 0.258819045158578 0.9659258262740478 -1.7786348892894078e-10
  outer loop
    vertex 369.9493343357305 306.9199421166802 15.000000008611586
    vertex 368.8640200384763 307.369494017699 13.000000009084227
    vertex 368.8640200387136 307.36949401800376 15.000000008816576
  endloop
endfacet
facet normal 0.7071067811527841 -0.7071067812203109 2.3844826602003764e-11
  outer loop
    vertex 367.9320395234803 314.4485888501136 13.000000008941232
    vertex 367.21690572198185 313.5166083351135 15.000000008867797
    vertex 367.2169057217446 313.51660833480884 13.00000000913545
  endloop
endfacet
facet normal 0.8660254037582846 -0.5000000000453002 -2.6560565571701592e-11
  outer loop
    vertex 367.21690572198185 313.5166083351135 15.000000008867797
    vertex 367.9320395234803 314.4485888501136 13.000000008941232
    vertex 367.9320395237176 314.4485888504183 15.000000008673581
  endloop
endfacet
facet normal 0.8660254037620573 -0.5000000000387657 -2.6560565573144674e-11
  outer loop
    vertex 367.2169057217446 313.51660833480884 13.00000000913545
    vertex 366.76735382065834 312.4312940380968 15.00000000901333
    vertex 366.7673538204211 312.4312940377921 13.000000009280981
  endloop
endfacet
facet normal 0.9659258262748419 -0.2588190451556151 -7.515589909550612e-11
  outer loop
    vertex 366.76735382065834 312.4312940380968 15.00000000901333
    vertex 367.2169057217446 313.51660833480884 13.00000000913545
    vertex 367.21690572198185 313.5166083351135 15.000000008867797
  endloop
endfacet
facet normal -2.1673610886894527e-21 1.0 -1.523458692531677e-10
  outer loop
    vertex 362.6140200376213 319.766608334383 12.99999999928531
    vertex 379.61402003809576 319.7666083349924 16.999999999043457
    vertex 379.6140200376213 319.766608334383 12.999999999043458
  endloop
endfacet
facet normal -2.1673610886894527e-21 1.0 -1.523458692531677e-10
  outer loop
    vertex 379.61402003809576 319.7666083349924 16.999999999043457
    vertex 362.6140200376213 319.766608334383 12.99999999928531
    vertex 362.61402003809576 319.7666083349924 16.999999999285308
  endloop
endfacet
endsolid Design - Rolled
