solid Design - Rolled
facet normal -4.323018077292587e-15 -2.465190328815662e-30 1.0
  outer loop
    vertex 64.33821466847728 -96.85130326182603 170.0000001998688
    vertex 63.40566511722216 -99.82618134710647 170.00000019986877
    vertex 63.68345784037678 -101.93622656649325 170.00000019986877
  endloop
endfacet
facet normal -4.323018077292587e-15 -2.465190328815662e-30 1.0
  outer loop
    vertex 63.40566511722216 -99.82618134710647 170.00000019986877
    vertex 64.33821466847728 -96.85130326182603 170.0000001998688
    vertex 62.722036653290075 -94.74505906540593 170.00000019986874
  endloop
endfacet
facet normal -4.323018077292587e-15 -2.465190328815662e-30 1.0
  outer loop
    vertex 63.40566511722216 -99.82618134710647 170.00000019986877
    vertex 62.722036653290075 -94.74505906540593 170.00000019986874
    vertex 62.59121806276708 -97.8599322224062 170.00000019986877
  endloop
endfacet
facet normal -4.323018077292587e-15 -2.465190328815662e-30 1.0
  outer loop
    vertex 62.59121806276708 -97.8599322224062 170.00000019986877
    vertex 62.722036653290075 -94.74505906540593 170.00000019986874
    vertex 60.615792456869926 -93.12888105021868 170.00000019986877
  endloop
endfacet
facet normal -4.323018077292587e-15 -2.465190328815662e-30 1.0
  outer loop
    vertex 62.59121806276708 -97.8599322224062 170.00000019986877
    vertex 60.615792456869926 -93.12888105021868 170.00000019986877
    vertex 61.29561989783533 -96.17147582086065 170.00000019986877
  endloop
endfacet
facet normal -4.323018077292587e-15 -2.465190328815662e-30 1.0
  outer loop
    vertex 61.29561989783533 -96.17147582086065 170.00000019986877
    vertex 60.615792456869926 -93.12888105021868 170.00000019986877
    vertex 59.60716349628976 -94.87587765592889 170.00000019986874
  endloop
endfacet
facet normal -4.323018077292587e-15 -2.465190328815662e-30 1.0
  outer loop
    vertex 59.60716349628976 -94.87587765592889 170.00000019986874
    vertex 60.615792456869926 -93.12888105021868 170.00000019986877
    vertex 58.4003785566875 -92.21122656649324 170.0000001998687
  endloop
endfacet
facet normal -4.323018077292587e-15 -2.465190328815662e-30 1.0
  outer loop
    vertex 59.60716349628976 -94.87587765592889 170.00000019986874
    vertex 58.4003785566875 -92.21122656649324 170.0000001998687
    vertex 58.00255382192818 -94.21122656649324 170.0000001998687
  endloop
endfacet
facet normal -4.323018077292587e-15 -2.465190328815662e-30 1.0
  outer loop
    vertex 58.00255382192818 -94.21122656649324 170.0000001998687
    vertex 58.4003785566875 -92.21122656649324 170.0000001998687
    vertex 52.66135974771796 -92.21122656649324 170.00000019986874
  endloop
endfacet
facet normal -4.323018077292587e-15 -2.465190328815662e-30 1.0
  outer loop
    vertex 58.00255382192818 -94.21122656649324 170.0000001998687
    vertex 52.66135974771796 -92.21122656649324 170.00000019986874
    vertex 53.05918448247728 -94.21122656649324 170.00000019986874
  endloop
endfacet
facet normal -4.323018077292587e-15 -2.465190328815662e-30 1.0
  outer loop
    vertex 53.05918448247728 -94.21122656649324 170.00000019986874
    vertex 52.66135974771796 -92.21122656649324 170.00000019986874
    vertex 51.45457480811569 -94.87587765592889 170.0000001998687
  endloop
endfacet
facet normal -4.323018077292587e-15 -2.465190328815662e-30 1.0
  outer loop
    vertex 51.45457480811569 -94.87587765592889 170.0000001998687
    vertex 52.66135974771796 -92.21122656649324 170.00000019986874
    vertex 50.44594584753553 -93.12888105021868 170.00000019986868
  endloop
endfacet
facet normal -4.323018077292587e-15 -2.465190328815662e-30 1.0
  outer loop
    vertex 51.45457480811569 -94.87587765592889 170.0000001998687
    vertex 50.44594584753553 -93.12888105021868 170.00000019986868
    vertex 49.76611840657011 -96.17147582086064 170.00000019986868
  endloop
endfacet
facet normal -4.323018077292587e-15 -2.465190328815662e-30 1.0
  outer loop
    vertex 49.76611840657011 -96.17147582086064 170.00000019986868
    vertex 50.44594584753553 -93.12888105021868 170.00000019986868
    vertex 48.33970165111538 -94.74505906540591 170.0000001998687
  endloop
endfacet
facet normal -4.323018077292587e-15 -2.465190328815662e-30 1.0
  outer loop
    vertex 49.76611840657011 -96.17147582086064 170.00000019986868
    vertex 48.33970165111538 -94.74505906540591 170.0000001998687
    vertex 48.470520241638354 -97.8599322224062 170.00000019986868
  endloop
endfacet
facet normal -4.323018077292587e-15 -2.465190328815662e-30 1.0
  outer loop
    vertex 48.470520241638354 -97.8599322224062 170.00000019986868
    vertex 48.33970165111538 -94.74505906540591 170.0000001998687
    vertex 47.65607318718331 -99.8261813471064 170.00000019986868
  endloop
endfacet
facet normal -4.323018077292587e-15 -2.465190328815662e-30 1.0
  outer loop
    vertex 47.65607318718331 -99.8261813471064 170.00000019986868
    vertex 48.33970165111538 -94.74505906540591 170.0000001998687
    vertex 46.72352363592814 -96.85130326182606 170.00000019986868
  endloop
endfacet
facet normal -4.323018077292587e-15 -2.465190328815662e-30 1.0
  outer loop
    vertex 47.65607318718331 -99.8261813471064 170.00000019986868
    vertex 46.72352363592814 -96.85130326182606 170.00000019986868
    vertex 47.378280464028684 -101.93622656649325 170.00000019986868
  endloop
endfacet
facet normal -4.323018077292587e-15 -2.465190328815662e-30 1.0
  outer loop
    vertex 47.378280464028684 -101.93622656649325 170.00000019986868
    vertex 46.72352363592814 -96.85130326182606 170.00000019986868
    vertex 46.72352363592816 -107.02114987116045 170.00000019986868
  endloop
endfacet
facet normal -4.323018077292587e-15 -2.465190328815662e-30 1.0
  outer loop
    vertex 46.72352363592816 -107.02114987116045 170.00000019986868
    vertex 46.72352363592814 -96.85130326182606 170.00000019986868
    vertex 45.707551662848374 -104.56837655476026 170.00000019986868
  endloop
endfacet
facet normal -4.323018077292587e-15 -2.465190328815662e-30 1.0
  outer loop
    vertex 45.707551662848374 -104.56837655476026 170.00000019986868
    vertex 46.72352363592814 -96.85130326182606 170.00000019986868
    vertex 45.707551662848374 -99.30407657822619 170.00000019986868
  endloop
endfacet
facet normal -4.323018077292587e-15 -2.465190328815662e-30 1.0
  outer loop
    vertex 45.707551662848374 -104.56837655476026 170.00000019986868
    vertex 45.707551662848374 -99.30407657822619 170.00000019986868
    vertex 45.361022542868376 -101.93622656649325 170.00000019986868
  endloop
endfacet
facet normal -4.323018077292587e-15 -2.465190328815662e-30 1.0
  outer loop
    vertex 65.35418664155709 -99.30407657822627 170.0000001998688
    vertex 65.35418664155709 -104.56837655476025 170.0000001998688
    vertex 65.70071576153708 -101.93622656649325 170.0000001998688
  endloop
endfacet
facet normal -4.323018077292587e-15 -2.465190328815662e-30 1.0
  outer loop
    vertex 65.35418664155709 -104.56837655476025 170.0000001998688
    vertex 65.35418664155709 -99.30407657822627 170.0000001998688
    vertex 64.33821466847728 -96.85130326182603 170.0000001998688
  endloop
endfacet
facet normal -4.323018077292587e-15 -2.465190328815662e-30 1.0
  outer loop
    vertex 65.35418664155709 -104.56837655476025 170.0000001998688
    vertex 64.33821466847728 -96.85130326182603 170.0000001998688
    vertex 64.33821466847733 -107.0211498711604 170.00000019986877
  endloop
endfacet
facet normal -4.323018077292587e-15 -2.465190328815662e-30 1.0
  outer loop
    vertex 64.33821466847733 -107.0211498711604 170.00000019986877
    vertex 64.33821466847728 -96.85130326182603 170.0000001998688
    vertex 63.68345784037678 -101.93622656649325 170.00000019986877
  endloop
endfacet
facet normal -4.323018077292587e-15 -2.465190328815662e-30 1.0
  outer loop
    vertex 64.33821466847733 -107.0211498711604 170.00000019986877
    vertex 63.68345784037678 -101.93622656649325 170.00000019986877
    vertex 63.40566511722216 -104.04627178588002 170.00000019986877
  endloop
endfacet
facet normal -4.323018077292587e-15 -2.465190328815662e-30 1.0
  outer loop
    vertex 64.33821466847733 -107.0211498711604 170.00000019986877
    vertex 63.40566511722216 -104.04627178588002 170.00000019986877
    vertex 62.722036653290026 -109.12739406758062 170.00000019986877
  endloop
endfacet
facet normal -4.323018077292587e-15 -2.465190328815662e-30 1.0
  outer loop
    vertex 62.722036653290026 -109.12739406758062 170.00000019986877
    vertex 63.40566511722216 -104.04627178588002 170.00000019986877
    vertex 62.591218062767105 -106.01252091058028 170.0000001998688
  endloop
endfacet
facet normal -4.323018077292587e-15 -2.465190328815662e-30 1.0
  outer loop
    vertex 62.722036653290026 -109.12739406758062 170.00000019986877
    vertex 62.591218062767105 -106.01252091058028 170.0000001998688
    vertex 60.61579245686996 -110.74357208276783 170.00000019986874
  endloop
endfacet
facet normal -4.323018077292587e-15 -2.465190328815662e-30 1.0
  outer loop
    vertex 60.61579245686996 -110.74357208276783 170.00000019986874
    vertex 62.591218062767105 -106.01252091058028 170.0000001998688
    vertex 61.295619897835316 -107.70097731212587 170.00000019986877
  endloop
endfacet
facet normal -4.323018077292587e-15 -2.465190328815662e-30 1.0
  outer loop
    vertex 60.61579245686996 -110.74357208276783 170.00000019986874
    vertex 61.295619897835316 -107.70097731212587 170.00000019986877
    vertex 59.6071634962898 -108.9965754770576 170.00000019986874
  endloop
endfacet
facet normal -4.323018077292587e-15 -2.465190328815662e-30 1.0
  outer loop
    vertex 60.61579245686996 -110.74357208276783 170.00000019986874
    vertex 59.6071634962898 -108.9965754770576 170.00000019986874
    vertex 58.4003785566875 -111.66122656649326 170.00000019986874
  endloop
endfacet
facet normal -4.323018077292587e-15 -2.465190328815662e-30 1.0
  outer loop
    vertex 58.4003785566875 -111.66122656649326 170.00000019986874
    vertex 59.6071634962898 -108.9965754770576 170.00000019986874
    vertex 58.00255382192817 -109.66122656649327 170.00000019986874
  endloop
endfacet
facet normal -4.323018077292587e-15 -2.465190328815662e-30 1.0
  outer loop
    vertex 58.4003785566875 -111.66122656649326 170.00000019986874
    vertex 58.00255382192817 -109.66122656649327 170.00000019986874
    vertex 52.661359747718016 -111.66122656649326 170.0000001998687
  endloop
endfacet
facet normal -4.323018077292587e-15 -2.465190328815662e-30 1.0
  outer loop
    vertex 52.661359747718016 -111.66122656649326 170.0000001998687
    vertex 58.00255382192817 -109.66122656649327 170.00000019986874
    vertex 53.059184482477356 -109.66122656649327 170.00000019986874
  endloop
endfacet
facet normal -4.323018077292587e-15 -2.465190328815662e-30 1.0
  outer loop
    vertex 52.661359747718016 -111.66122656649326 170.0000001998687
    vertex 53.059184482477356 -109.66122656649327 170.00000019986874
    vertex 51.45457480811569 -108.99657547705759 170.00000019986868
  endloop
endfacet
facet normal -4.323018077292587e-15 -2.465190328815662e-30 1.0
  outer loop
    vertex 52.661359747718016 -111.66122656649326 170.0000001998687
    vertex 51.45457480811569 -108.99657547705759 170.00000019986868
    vertex 50.445945847535526 -110.7435720827678 170.0000001998687
  endloop
endfacet
facet normal -4.323018077292587e-15 -2.465190328815662e-30 1.0
  outer loop
    vertex 50.445945847535526 -110.7435720827678 170.0000001998687
    vertex 51.45457480811569 -108.99657547705759 170.00000019986868
    vertex 49.766118406570115 -107.70097731212584 170.0000001998687
  endloop
endfacet
facet normal -4.323018077292587e-15 -2.465190328815662e-30 1.0
  outer loop
    vertex 50.445945847535526 -110.7435720827678 170.0000001998687
    vertex 49.766118406570115 -107.70097731212584 170.0000001998687
    vertex 48.3397016511154 -109.1273940675806 170.00000019986868
  endloop
endfacet
facet normal -4.323018077292587e-15 -2.465190328815662e-30 1.0
  outer loop
    vertex 48.3397016511154 -109.1273940675806 170.00000019986868
    vertex 49.766118406570115 -107.70097731212584 170.0000001998687
    vertex 48.470520241638354 -106.01252091058028 170.00000019986868
  endloop
endfacet
facet normal -4.323018077292587e-15 -2.465190328815662e-30 1.0
  outer loop
    vertex 48.3397016511154 -109.1273940675806 170.00000019986868
    vertex 48.470520241638354 -106.01252091058028 170.00000019986868
    vertex 47.6560731871833 -104.04627178588005 170.00000019986868
  endloop
endfacet
facet normal -4.323018077292587e-15 -2.465190328815662e-30 1.0
  outer loop
    vertex 48.3397016511154 -109.1273940675806 170.00000019986868
    vertex 47.6560731871833 -104.04627178588005 170.00000019986868
    vertex 46.72352363592816 -107.02114987116045 170.00000019986868
  endloop
endfacet
facet normal -4.323018077292587e-15 -2.465190328815662e-30 1.0
  outer loop
    vertex 46.72352363592816 -107.02114987116045 170.00000019986868
    vertex 47.6560731871833 -104.04627178588005 170.00000019986868
    vertex 47.378280464028684 -101.93622656649325 170.00000019986868
  endloop
endfacet
facet normal -0.9914448613738104 0.1305261922200522 -4.286034058357824e-15
  outer loop
    vertex 45.36102254286839 -101.93622656649325 168.0000001998687
    vertex 45.707551662848374 -99.30407657822619 170.00000019986868
    vertex 45.70755166284838 -99.30407657822619 168.00000019986868
  endloop
endfacet
facet normal -0.9914448613738104 0.1305261922200522 -4.286034058357824e-15
  outer loop
    vertex 45.707551662848374 -99.30407657822619 170.00000019986868
    vertex 45.36102254286839 -101.93622656649325 168.0000001998687
    vertex 45.361022542868376 -101.93622656649325 170.00000019986868
  endloop
endfacet
facet normal 0.9238795325112883 0.38268343236508645 3.993947920286925e-15
  outer loop
    vertex 48.470520241638354 -106.01252091058028 170.00000019986868
    vertex 47.65607318718332 -104.04627178588005 168.00000019986868
    vertex 47.6560731871833 -104.04627178588005 170.00000019986868
  endloop
endfacet
facet normal 0.9238795325112883 0.38268343236508645 3.993947920286925e-15
  outer loop
    vertex 47.65607318718332 -104.04627178588005 168.00000019986868
    vertex 48.470520241638354 -106.01252091058028 170.00000019986868
    vertex 48.47052024163837 -106.01252091058028 168.0000001998687
  endloop
endfacet
facet normal 0.3826834323650909 0.9238795325112864 1.6543473959946653e-15
  outer loop
    vertex 58.4003785566875 -92.21122656649324 170.0000001998687
    vertex 60.61579245686994 -93.12888105021868 168.00000019986877
    vertex 58.40037855668751 -92.21122656649324 168.0000001998687
  endloop
endfacet
facet normal 0.3826834323650909 0.9238795325112864 1.6543473959946653e-15
  outer loop
    vertex 60.61579245686994 -93.12888105021868 168.00000019986877
    vertex 58.4003785566875 -92.21122656649324 170.0000001998687
    vertex 60.615792456869926 -93.12888105021868 170.00000019986877
  endloop
endfacet
facet normal 0.9238795325112882 -0.3826834323650863 3.993947920286923e-15
  outer loop
    vertex 64.33821466847733 -107.0211498711604 170.00000019986877
    vertex 65.3541866415571 -104.56837655476025 168.0000001998688
    vertex 65.35418664155709 -104.56837655476025 170.0000001998688
  endloop
endfacet
facet normal 0.9238795325112882 -0.3826834323650863 3.993947920286923e-15
  outer loop
    vertex 65.3541866415571 -104.56837655476025 168.0000001998688
    vertex 64.33821466847733 -107.0211498711604 170.00000019986877
    vertex 64.33821466847733 -107.0211498711604 168.00000019986877
  endloop
endfacet
facet normal -0.38268343236509134 -0.9238795325112861 -1.6543473959946674e-15
  outer loop
    vertex 52.661359747718016 -111.66122656649326 170.0000001998687
    vertex 50.44594584753553 -110.7435720827678 168.0000001998687
    vertex 52.66135974771803 -111.66122656649326 168.0000001998687
  endloop
endfacet
facet normal -0.38268343236509134 -0.9238795325112861 -1.6543473959946674e-15
  outer loop
    vertex 50.44594584753553 -110.7435720827678 168.0000001998687
    vertex 52.661359747718016 -111.66122656649326 170.0000001998687
    vertex 50.445945847535526 -110.7435720827678 170.0000001998687
  endloop
endfacet
facet normal -2.1177760389753253e-33 1.0 2.465190328815662e-30
  outer loop
    vertex 53.05918448247737 -109.66122656649327 168.00000019986874
    vertex 58.00255382192817 -109.66122656649327 170.00000019986874
    vertex 58.00255382192818 -109.66122656649327 168.00000019986874
  endloop
endfacet
facet normal -2.1177760389753253e-33 1.0 2.465190328815662e-30
  outer loop
    vertex 58.00255382192817 -109.66122656649327 170.00000019986874
    vertex 53.05918448247737 -109.66122656649327 168.00000019986874
    vertex 53.059184482477356 -109.66122656649327 170.00000019986874
  endloop
endfacet
facet normal 0.9914448613738103 -0.13052619222005257 4.2860340583578235e-15
  outer loop
    vertex 47.378280464028684 -101.93622656649325 170.00000019986868
    vertex 47.65607318718332 -99.8261813471064 168.00000019986868
    vertex 47.65607318718331 -99.8261813471064 170.00000019986868
  endloop
endfacet
facet normal 0.9914448613738103 -0.13052619222005257 4.2860340583578235e-15
  outer loop
    vertex 47.65607318718332 -99.8261813471064 168.00000019986868
    vertex 47.378280464028684 -101.93622656649325 170.00000019986868
    vertex 47.3782804640287 -101.93622656649325 168.00000019986868
  endloop
endfacet
facet normal 0.3826834323650893 -0.9238795325112871 1.654347395994654e-15
  outer loop
    vertex 53.05918448247729 -94.21122656649324 168.00000019986874
    vertex 51.45457480811569 -94.87587765592889 170.0000001998687
    vertex 51.4545748081157 -94.87587765592889 168.0000001998687
  endloop
endfacet
facet normal 0.3826834323650893 -0.9238795325112871 1.654347395994654e-15
  outer loop
    vertex 51.45457480811569 -94.87587765592889 170.0000001998687
    vertex 53.05918448247729 -94.21122656649324 168.00000019986874
    vertex 53.05918448247728 -94.21122656649324 170.00000019986874
  endloop
endfacet
facet normal -0.38268343236509167 0.9238795325112861 -1.654347395994664e-15
  outer loop
    vertex 50.44594584753553 -93.12888105021868 170.00000019986868
    vertex 52.661359747717974 -92.21122656649324 168.00000019986874
    vertex 50.44594584753555 -93.12888105021868 168.0000001998687
  endloop
endfacet
facet normal -0.38268343236509167 0.9238795325112861 -1.654347395994664e-15
  outer loop
    vertex 52.661359747717974 -92.21122656649324 168.00000019986874
    vertex 50.44594584753553 -93.12888105021868 170.00000019986868
    vertex 52.66135974771796 -92.21122656649324 170.00000019986874
  endloop
endfacet
facet normal 0.9914448613738103 -0.13052619222005288 4.286034058357824e-15
  outer loop
    vertex 65.35418664155709 -104.56837655476025 170.0000001998688
    vertex 65.7007157615371 -101.93622656649325 168.0000001998688
    vertex 65.70071576153708 -101.93622656649325 170.0000001998688
  endloop
endfacet
facet normal 0.9914448613738103 -0.13052619222005288 4.286034058357824e-15
  outer loop
    vertex 65.7007157615371 -101.93622656649325 168.0000001998688
    vertex 65.35418664155709 -104.56837655476025 170.0000001998688
    vertex 65.3541866415571 -104.56837655476025 168.0000001998688
  endloop
endfacet
facet normal 0.3826834323650858 -0.9238795325112883 1.6543473959946388e-15
  outer loop
    vertex 60.61579245686996 -110.74357208276783 170.00000019986874
    vertex 58.40037855668751 -111.66122656649326 168.00000019986874
    vertex 60.615792456869976 -110.74357208276783 168.00000019986874
  endloop
endfacet
facet normal 0.3826834323650858 -0.9238795325112883 1.6543473959946388e-15
  outer loop
    vertex 58.40037855668751 -111.66122656649326 168.00000019986874
    vertex 60.61579245686996 -110.74357208276783 170.00000019986874
    vertex 58.4003785566875 -111.66122656649326 170.00000019986874
  endloop
endfacet
facet normal 0.7933533402912355 -0.6087614290087201 3.429680831759466e-15
  outer loop
    vertex 48.470520241638354 -97.8599322224062 170.00000019986868
    vertex 49.76611840657012 -96.17147582086064 168.0000001998687
    vertex 49.76611840657011 -96.17147582086064 170.00000019986868
  endloop
endfacet
facet normal 0.7933533402912355 -0.6087614290087201 3.429680831759466e-15
  outer loop
    vertex 49.76611840657012 -96.17147582086064 168.0000001998687
    vertex 48.470520241638354 -97.8599322224062 170.00000019986868
    vertex 48.47052024163837 -97.8599322224062 168.0000001998687
  endloop
endfacet
facet normal 0.7933533402912343 0.6087614290087218 3.4296808317594647e-15
  outer loop
    vertex 49.766118406570115 -107.70097731212584 170.0000001998687
    vertex 48.47052024163837 -106.01252091058028 168.0000001998687
    vertex 48.470520241638354 -106.01252091058028 170.00000019986868
  endloop
endfacet
facet normal 0.7933533402912343 0.6087614290087218 3.4296808317594647e-15
  outer loop
    vertex 48.47052024163837 -106.01252091058028 168.0000001998687
    vertex 49.766118406570115 -107.70097731212584 170.0000001998687
    vertex 49.76611840657013 -107.70097731212584 168.0000001998687
  endloop
endfacet
facet normal 0.6087614290087172 -0.7933533402912378 2.63168666236315e-15
  outer loop
    vertex 51.45457480811569 -94.87587765592889 170.0000001998687
    vertex 49.76611840657012 -96.17147582086064 168.0000001998687
    vertex 51.4545748081157 -94.87587765592889 168.0000001998687
  endloop
endfacet
facet normal 0.6087614290087172 -0.7933533402912378 2.63168666236315e-15
  outer loop
    vertex 49.76611840657012 -96.17147582086064 168.0000001998687
    vertex 51.45457480811569 -94.87587765592889 170.0000001998687
    vertex 49.76611840657011 -96.17147582086064 170.00000019986868
  endloop
endfacet
facet normal 2.1177760389753253e-33 -1.0 -2.465190328815662e-30
  outer loop
    vertex 58.00255382192818 -94.21122656649324 170.0000001998687
    vertex 53.05918448247729 -94.21122656649324 168.00000019986874
    vertex 58.00255382192819 -94.21122656649324 168.0000001998687
  endloop
endfacet
facet normal 2.1177760389753253e-33 -1.0 -2.465190328815662e-30
  outer loop
    vertex 53.05918448247729 -94.21122656649324 168.00000019986874
    vertex 58.00255382192818 -94.21122656649324 170.0000001998687
    vertex 53.05918448247728 -94.21122656649324 170.00000019986874
  endloop
endfacet
facet normal 4.323018077292587e-15 2.465190328815662e-30 -1.0
  outer loop
    vertex 65.3541866415571 -104.56837655476025 168.0000001998688
    vertex 65.3541866415571 -99.30407657822627 168.0000001998688
    vertex 65.7007157615371 -101.93622656649325 168.0000001998688
  endloop
endfacet
facet normal 4.323018077292587e-15 2.465190328815662e-30 -1.0
  outer loop
    vertex 65.3541866415571 -99.30407657822627 168.0000001998688
    vertex 65.3541866415571 -104.56837655476025 168.0000001998688
    vertex 64.33821466847733 -107.0211498711604 168.00000019986877
  endloop
endfacet
facet normal 4.323018077292587e-15 2.465190328815662e-30 -1.0
  outer loop
    vertex 65.3541866415571 -99.30407657822627 168.0000001998688
    vertex 64.33821466847733 -107.0211498711604 168.00000019986877
    vertex 64.33821466847729 -96.85130326182603 168.0000001998688
  endloop
endfacet
facet normal 4.323018077292587e-15 2.465190328815662e-30 -1.0
  outer loop
    vertex 64.33821466847729 -96.85130326182603 168.0000001998688
    vertex 64.33821466847733 -107.0211498711604 168.00000019986877
    vertex 63.68345784037679 -101.93622656649325 168.00000019986877
  endloop
endfacet
facet normal 4.323018077292587e-15 2.465190328815662e-30 -1.0
  outer loop
    vertex 63.68345784037679 -101.93622656649325 168.00000019986877
    vertex 64.33821466847733 -107.0211498711604 168.00000019986877
    vertex 63.40566511722217 -104.04627178588002 168.00000019986877
  endloop
endfacet
facet normal 4.323018077292587e-15 2.465190328815662e-30 -1.0
  outer loop
    vertex 63.40566511722217 -104.04627178588002 168.00000019986877
    vertex 64.33821466847733 -107.0211498711604 168.00000019986877
    vertex 62.72203665329004 -109.12739406758062 168.00000019986877
  endloop
endfacet
facet normal 4.323018077292587e-15 2.465190328815662e-30 -1.0
  outer loop
    vertex 63.40566511722217 -104.04627178588002 168.00000019986877
    vertex 62.72203665329004 -109.12739406758062 168.00000019986877
    vertex 62.59121806276711 -106.01252091058028 168.0000001998688
  endloop
endfacet
facet normal 4.323018077292587e-15 2.465190328815662e-30 -1.0
  outer loop
    vertex 62.59121806276711 -106.01252091058028 168.0000001998688
    vertex 62.72203665329004 -109.12739406758062 168.00000019986877
    vertex 60.615792456869976 -110.74357208276783 168.00000019986874
  endloop
endfacet
facet normal 4.323018077292587e-15 2.465190328815662e-30 -1.0
  outer loop
    vertex 62.59121806276711 -106.01252091058028 168.0000001998688
    vertex 60.615792456869976 -110.74357208276783 168.00000019986874
    vertex 61.29561989783533 -107.70097731212587 168.00000019986877
  endloop
endfacet
facet normal 4.323018077292587e-15 2.465190328815662e-30 -1.0
  outer loop
    vertex 61.29561989783533 -107.70097731212587 168.00000019986877
    vertex 60.615792456869976 -110.74357208276783 168.00000019986874
    vertex 59.607163496289814 -108.9965754770576 168.00000019986874
  endloop
endfacet
facet normal 4.323018077292587e-15 2.465190328815662e-30 -1.0
  outer loop
    vertex 59.607163496289814 -108.9965754770576 168.00000019986874
    vertex 60.615792456869976 -110.74357208276783 168.00000019986874
    vertex 58.40037855668751 -111.66122656649326 168.00000019986874
  endloop
endfacet
facet normal 4.323018077292587e-15 2.465190328815662e-30 -1.0
  outer loop
    vertex 59.607163496289814 -108.9965754770576 168.00000019986874
    vertex 58.40037855668751 -111.66122656649326 168.00000019986874
    vertex 58.00255382192818 -109.66122656649327 168.00000019986874
  endloop
endfacet
facet normal 4.323018077292587e-15 2.465190328815662e-30 -1.0
  outer loop
    vertex 58.00255382192818 -109.66122656649327 168.00000019986874
    vertex 58.40037855668751 -111.66122656649326 168.00000019986874
    vertex 52.66135974771803 -111.66122656649326 168.0000001998687
  endloop
endfacet
facet normal 4.323018077292587e-15 2.465190328815662e-30 -1.0
  outer loop
    vertex 58.00255382192818 -109.66122656649327 168.00000019986874
    vertex 52.66135974771803 -111.66122656649326 168.0000001998687
    vertex 53.05918448247737 -109.66122656649327 168.00000019986874
  endloop
endfacet
facet normal 4.323018077292587e-15 2.465190328815662e-30 -1.0
  outer loop
    vertex 53.05918448247737 -109.66122656649327 168.00000019986874
    vertex 52.66135974771803 -111.66122656649326 168.0000001998687
    vertex 51.4545748081157 -108.99657547705759 168.0000001998687
  endloop
endfacet
facet normal 4.323018077292587e-15 2.465190328815662e-30 -1.0
  outer loop
    vertex 51.4545748081157 -108.99657547705759 168.0000001998687
    vertex 52.66135974771803 -111.66122656649326 168.0000001998687
    vertex 50.44594584753553 -110.7435720827678 168.0000001998687
  endloop
endfacet
facet normal 4.323018077292587e-15 2.465190328815662e-30 -1.0
  outer loop
    vertex 51.4545748081157 -108.99657547705759 168.0000001998687
    vertex 50.44594584753553 -110.7435720827678 168.0000001998687
    vertex 49.76611840657013 -107.70097731212584 168.0000001998687
  endloop
endfacet
facet normal 4.323018077292587e-15 2.465190328815662e-30 -1.0
  outer loop
    vertex 49.76611840657013 -107.70097731212584 168.0000001998687
    vertex 50.44594584753553 -110.7435720827678 168.0000001998687
    vertex 48.33970165111541 -109.1273940675806 168.0000001998687
  endloop
endfacet
facet normal 4.323018077292587e-15 2.465190328815662e-30 -1.0
  outer loop
    vertex 49.76611840657013 -107.70097731212584 168.0000001998687
    vertex 48.33970165111541 -109.1273940675806 168.0000001998687
    vertex 48.47052024163837 -106.01252091058028 168.0000001998687
  endloop
endfacet
facet normal 4.323018077292587e-15 2.465190328815662e-30 -1.0
  outer loop
    vertex 48.47052024163837 -106.01252091058028 168.0000001998687
    vertex 48.33970165111541 -109.1273940675806 168.0000001998687
    vertex 47.65607318718332 -104.04627178588005 168.00000019986868
  endloop
endfacet
facet normal 4.323018077292587e-15 2.465190328815662e-30 -1.0
  outer loop
    vertex 47.65607318718332 -104.04627178588005 168.00000019986868
    vertex 48.33970165111541 -109.1273940675806 168.0000001998687
    vertex 46.72352363592817 -107.02114987116045 168.00000019986868
  endloop
endfacet
facet normal 4.323018077292587e-15 2.465190328815662e-30 -1.0
  outer loop
    vertex 47.65607318718332 -104.04627178588005 168.00000019986868
    vertex 46.72352363592817 -107.02114987116045 168.00000019986868
    vertex 47.3782804640287 -101.93622656649325 168.00000019986868
  endloop
endfacet
facet normal 4.323018077292587e-15 2.465190328815662e-30 -1.0
  outer loop
    vertex 64.33821466847729 -96.85130326182603 168.0000001998688
    vertex 63.40566511722217 -99.82618134710647 168.00000019986877
    vertex 62.72203665329008 -94.74505906540593 168.00000019986874
  endloop
endfacet
facet normal 4.323018077292587e-15 2.465190328815662e-30 -1.0
  outer loop
    vertex 63.40566511722217 -99.82618134710647 168.00000019986877
    vertex 64.33821466847729 -96.85130326182603 168.0000001998688
    vertex 63.68345784037679 -101.93622656649325 168.00000019986877
  endloop
endfacet
facet normal 4.323018077292587e-15 2.465190328815662e-30 -1.0
  outer loop
    vertex 62.72203665329008 -94.74505906540593 168.00000019986874
    vertex 63.40566511722217 -99.82618134710647 168.00000019986877
    vertex 62.59121806276709 -97.8599322224062 168.00000019986877
  endloop
endfacet
facet normal 4.323018077292587e-15 2.465190328815662e-30 -1.0
  outer loop
    vertex 62.72203665329008 -94.74505906540593 168.00000019986874
    vertex 62.59121806276709 -97.8599322224062 168.00000019986877
    vertex 60.61579245686994 -93.12888105021868 168.00000019986877
  endloop
endfacet
facet normal 4.323018077292587e-15 2.465190328815662e-30 -1.0
  outer loop
    vertex 60.61579245686994 -93.12888105021868 168.00000019986877
    vertex 62.59121806276709 -97.8599322224062 168.00000019986877
    vertex 61.295619897835344 -96.17147582086065 168.00000019986877
  endloop
endfacet
facet normal 4.323018077292587e-15 2.465190328815662e-30 -1.0
  outer loop
    vertex 60.61579245686994 -93.12888105021868 168.00000019986877
    vertex 61.295619897835344 -96.17147582086065 168.00000019986877
    vertex 59.60716349628977 -94.87587765592889 168.00000019986874
  endloop
endfacet
facet normal 4.323018077292587e-15 2.465190328815662e-30 -1.0
  outer loop
    vertex 60.61579245686994 -93.12888105021868 168.00000019986877
    vertex 59.60716349628977 -94.87587765592889 168.00000019986874
    vertex 58.40037855668751 -92.21122656649324 168.0000001998687
  endloop
endfacet
facet normal 4.323018077292587e-15 2.465190328815662e-30 -1.0
  outer loop
    vertex 58.40037855668751 -92.21122656649324 168.0000001998687
    vertex 59.60716349628977 -94.87587765592889 168.00000019986874
    vertex 58.00255382192819 -94.21122656649324 168.0000001998687
  endloop
endfacet
facet normal 4.323018077292587e-15 2.465190328815662e-30 -1.0
  outer loop
    vertex 58.40037855668751 -92.21122656649324 168.0000001998687
    vertex 58.00255382192819 -94.21122656649324 168.0000001998687
    vertex 52.661359747717974 -92.21122656649324 168.00000019986874
  endloop
endfacet
facet normal 4.323018077292587e-15 2.465190328815662e-30 -1.0
  outer loop
    vertex 52.661359747717974 -92.21122656649324 168.00000019986874
    vertex 58.00255382192819 -94.21122656649324 168.0000001998687
    vertex 53.05918448247729 -94.21122656649324 168.00000019986874
  endloop
endfacet
facet normal 4.323018077292587e-15 2.465190328815662e-30 -1.0
  outer loop
    vertex 52.661359747717974 -92.21122656649324 168.00000019986874
    vertex 53.05918448247729 -94.21122656649324 168.00000019986874
    vertex 51.4545748081157 -94.87587765592889 168.0000001998687
  endloop
endfacet
facet normal 4.323018077292587e-15 2.465190328815662e-30 -1.0
  outer loop
    vertex 52.661359747717974 -92.21122656649324 168.00000019986874
    vertex 51.4545748081157 -94.87587765592889 168.0000001998687
    vertex 50.44594584753555 -93.12888105021868 168.0000001998687
  endloop
endfacet
facet normal 4.323018077292587e-15 2.465190328815662e-30 -1.0
  outer loop
    vertex 50.44594584753555 -93.12888105021868 168.0000001998687
    vertex 51.4545748081157 -94.87587765592889 168.0000001998687
    vertex 49.76611840657012 -96.17147582086064 168.0000001998687
  endloop
endfacet
facet normal 4.323018077292587e-15 2.465190328815662e-30 -1.0
  outer loop
    vertex 50.44594584753555 -93.12888105021868 168.0000001998687
    vertex 49.76611840657012 -96.17147582086064 168.0000001998687
    vertex 48.339701651115384 -94.74505906540591 168.0000001998687
  endloop
endfacet
facet normal 4.323018077292587e-15 2.465190328815662e-30 -1.0
  outer loop
    vertex 48.339701651115384 -94.74505906540591 168.0000001998687
    vertex 49.76611840657012 -96.17147582086064 168.0000001998687
    vertex 48.47052024163837 -97.8599322224062 168.0000001998687
  endloop
endfacet
facet normal 4.323018077292587e-15 2.465190328815662e-30 -1.0
  outer loop
    vertex 48.339701651115384 -94.74505906540591 168.0000001998687
    vertex 48.47052024163837 -97.8599322224062 168.0000001998687
    vertex 47.65607318718332 -99.8261813471064 168.00000019986868
  endloop
endfacet
facet normal 4.323018077292587e-15 2.465190328815662e-30 -1.0
  outer loop
    vertex 48.339701651115384 -94.74505906540591 168.0000001998687
    vertex 47.65607318718332 -99.8261813471064 168.00000019986868
    vertex 46.72352363592815 -96.85130326182606 168.00000019986868
  endloop
endfacet
facet normal 4.323018077292587e-15 2.465190328815662e-30 -1.0
  outer loop
    vertex 46.72352363592815 -96.85130326182606 168.00000019986868
    vertex 47.65607318718332 -99.8261813471064 168.00000019986868
    vertex 47.3782804640287 -101.93622656649325 168.00000019986868
  endloop
endfacet
facet normal 4.323018077292587e-15 2.465190328815662e-30 -1.0
  outer loop
    vertex 46.72352363592815 -96.85130326182606 168.00000019986868
    vertex 47.3782804640287 -101.93622656649325 168.00000019986868
    vertex 46.72352363592817 -107.02114987116045 168.00000019986868
  endloop
endfacet
facet normal 4.323018077292587e-15 2.465190328815662e-30 -1.0
  outer loop
    vertex 46.72352363592815 -96.85130326182606 168.00000019986868
    vertex 46.72352363592817 -107.02114987116045 168.00000019986868
    vertex 45.70755166284838 -104.56837655476026 168.0000001998687
  endloop
endfacet
facet normal 4.323018077292587e-15 2.465190328815662e-30 -1.0
  outer loop
    vertex 46.72352363592815 -96.85130326182606 168.00000019986868
    vertex 45.70755166284838 -104.56837655476026 168.0000001998687
    vertex 45.70755166284838 -99.30407657822619 168.00000019986868
  endloop
endfacet
facet normal 4.323018077292587e-15 2.465190328815662e-30 -1.0
  outer loop
    vertex 45.70755166284838 -99.30407657822619 168.00000019986868
    vertex 45.70755166284838 -104.56837655476026 168.0000001998687
    vertex 45.36102254286839 -101.93622656649325 168.0000001998687
  endloop
endfacet
facet normal -0.9914448613738102 0.1305261922200534 -4.286034058357824e-15
  outer loop
    vertex 63.40566511722217 -104.04627178588002 168.00000019986877
    vertex 63.68345784037678 -101.93622656649325 170.00000019986877
    vertex 63.68345784037679 -101.93622656649325 168.00000019986877
  endloop
endfacet
facet normal -0.9914448613738102 0.1305261922200534 -4.286034058357824e-15
  outer loop
    vertex 63.68345784037678 -101.93622656649325 170.00000019986877
    vertex 63.40566511722217 -104.04627178588002 168.00000019986877
    vertex 63.40566511722216 -104.04627178588002 170.00000019986877
  endloop
endfacet
facet normal -0.7933533402912359 -0.6087614290087195 -3.4296808317594722e-15
  outer loop
    vertex 48.33970165111541 -109.1273940675806 168.0000001998687
    vertex 46.72352363592816 -107.02114987116045 170.00000019986868
    vertex 46.72352363592817 -107.02114987116045 168.00000019986868
  endloop
endfacet
facet normal -0.7933533402912359 -0.6087614290087195 -3.4296808317594722e-15
  outer loop
    vertex 46.72352363592816 -107.02114987116045 170.00000019986868
    vertex 48.33970165111541 -109.1273940675806 168.0000001998687
    vertex 48.3397016511154 -109.1273940675806 170.00000019986868
  endloop
endfacet
facet normal 0.6087614290087177 0.7933533402912375 2.6316866623631565e-15
  outer loop
    vertex 49.76611840657013 -107.70097731212584 168.0000001998687
    vertex 51.45457480811569 -108.99657547705759 170.00000019986868
    vertex 51.4545748081157 -108.99657547705759 168.0000001998687
  endloop
endfacet
facet normal 0.6087614290087177 0.7933533402912375 2.6316866623631565e-15
  outer loop
    vertex 51.45457480811569 -108.99657547705759 170.00000019986868
    vertex 49.76611840657013 -107.70097731212584 168.0000001998687
    vertex 49.766118406570115 -107.70097731212584 170.0000001998687
  endloop
endfacet
facet normal 0.9238795325112868 -0.38268343236508984 3.993947920286916e-15
  outer loop
    vertex 47.65607318718331 -99.8261813471064 170.00000019986868
    vertex 48.47052024163837 -97.8599322224062 168.0000001998687
    vertex 48.470520241638354 -97.8599322224062 170.00000019986868
  endloop
endfacet
facet normal 0.9238795325112868 -0.38268343236508984 3.993947920286916e-15
  outer loop
    vertex 48.47052024163837 -97.8599322224062 168.0000001998687
    vertex 47.65607318718331 -99.8261813471064 170.00000019986868
    vertex 47.65607318718332 -99.8261813471064 168.00000019986868
  endloop
endfacet
facet normal -0.9914448613738102 -0.13052619222005385 -4.286034058357824e-15
  outer loop
    vertex 45.70755166284838 -104.56837655476026 168.0000001998687
    vertex 45.361022542868376 -101.93622656649325 170.00000019986868
    vertex 45.36102254286839 -101.93622656649325 168.0000001998687
  endloop
endfacet
facet normal -0.9914448613738102 -0.13052619222005385 -4.286034058357824e-15
  outer loop
    vertex 45.361022542868376 -101.93622656649325 170.00000019986868
    vertex 45.70755166284838 -104.56837655476026 168.0000001998687
    vertex 45.707551662848374 -104.56837655476026 170.00000019986868
  endloop
endfacet
facet normal -0.7933533402912332 0.6087614290087234 -3.4296808317594564e-15
  outer loop
    vertex 61.29561989783533 -107.70097731212587 168.00000019986877
    vertex 62.591218062767105 -106.01252091058028 170.0000001998688
    vertex 62.59121806276711 -106.01252091058028 168.0000001998688
  endloop
endfacet
facet normal -0.7933533402912332 0.6087614290087234 -3.4296808317594564e-15
  outer loop
    vertex 62.591218062767105 -106.01252091058028 170.0000001998688
    vertex 61.29561989783533 -107.70097731212587 168.00000019986877
    vertex 61.295619897835316 -107.70097731212587 170.00000019986877
  endloop
endfacet
facet normal 0.9914448613738106 0.13052619222005035 4.286034058357828e-15
  outer loop
    vertex 65.70071576153708 -101.93622656649325 170.0000001998688
    vertex 65.3541866415571 -99.30407657822627 168.0000001998688
    vertex 65.35418664155709 -99.30407657822627 170.0000001998688
  endloop
endfacet
facet normal 0.9914448613738106 0.13052619222005035 4.286034058357828e-15
  outer loop
    vertex 65.3541866415571 -99.30407657822627 168.0000001998688
    vertex 65.70071576153708 -101.93622656649325 170.0000001998688
    vertex 65.7007157615371 -101.93622656649325 168.0000001998688
  endloop
endfacet
facet normal -0.6087614290087279 0.7933533402912296 -2.6316866623631963e-15
  outer loop
    vertex 59.6071634962898 -108.9965754770576 170.00000019986874
    vertex 61.29561989783533 -107.70097731212587 168.00000019986877
    vertex 59.607163496289814 -108.9965754770576 168.00000019986874
  endloop
endfacet
facet normal -0.6087614290087279 0.7933533402912296 -2.6316866623631963e-15
  outer loop
    vertex 61.29561989783533 -107.70097731212587 168.00000019986877
    vertex 59.6071634962898 -108.9965754770576 170.00000019986874
    vertex 61.295619897835316 -107.70097731212587 170.00000019986877
  endloop
endfacet
facet normal 0.7933533402912342 -0.608761429008722 3.429680831759461e-15
  outer loop
    vertex 62.722036653290026 -109.12739406758062 170.00000019986877
    vertex 64.33821466847733 -107.0211498711604 168.00000019986877
    vertex 64.33821466847733 -107.0211498711604 170.00000019986877
  endloop
endfacet
facet normal 0.7933533402912342 -0.608761429008722 3.429680831759461e-15
  outer loop
    vertex 64.33821466847733 -107.0211498711604 168.00000019986877
    vertex 62.722036653290026 -109.12739406758062 170.00000019986877
    vertex 62.72203665329004 -109.12739406758062 168.00000019986877
  endloop
endfacet
facet normal -0.9238795325112872 -0.3826834323650887 -3.99394792028692e-15
  outer loop
    vertex 46.72352363592817 -107.02114987116045 168.00000019986868
    vertex 45.707551662848374 -104.56837655476026 170.00000019986868
    vertex 45.70755166284838 -104.56837655476026 168.0000001998687
  endloop
endfacet
facet normal -0.9238795325112872 -0.3826834323650887 -3.99394792028692e-15
  outer loop
    vertex 45.707551662848374 -104.56837655476026 170.00000019986868
    vertex 46.72352363592817 -107.02114987116045 168.00000019986868
    vertex 46.72352363592816 -107.02114987116045 170.00000019986868
  endloop
endfacet
facet normal 0.9238795325112867 0.3826834323650904 3.993947920286918e-15
  outer loop
    vertex 65.35418664155709 -99.30407657822627 170.0000001998688
    vertex 64.33821466847729 -96.85130326182603 168.0000001998688
    vertex 64.33821466847728 -96.85130326182603 170.0000001998688
  endloop
endfacet
facet normal 0.9238795325112867 0.3826834323650904 3.993947920286918e-15
  outer loop
    vertex 64.33821466847729 -96.85130326182603 168.0000001998688
    vertex 65.35418664155709 -99.30407657822627 170.0000001998688
    vertex 65.3541866415571 -99.30407657822627 168.0000001998688
  endloop
endfacet
facet normal -2.1177760389753253e-33 1.0 2.465190328815662e-30
  outer loop
    vertex 52.661359747717974 -92.21122656649324 168.00000019986874
    vertex 58.4003785566875 -92.21122656649324 170.0000001998687
    vertex 58.40037855668751 -92.21122656649324 168.0000001998687
  endloop
endfacet
facet normal -2.1177760389753253e-33 1.0 2.465190328815662e-30
  outer loop
    vertex 58.4003785566875 -92.21122656649324 170.0000001998687
    vertex 52.661359747717974 -92.21122656649324 168.00000019986874
    vertex 52.66135974771796 -92.21122656649324 170.00000019986874
  endloop
endfacet
facet normal -0.9238795325112864 0.38268343236509084 -3.993947920286915e-15
  outer loop
    vertex 45.70755166284838 -99.30407657822619 168.00000019986868
    vertex 46.72352363592814 -96.85130326182606 170.00000019986868
    vertex 46.72352363592815 -96.85130326182606 168.00000019986868
  endloop
endfacet
facet normal -0.9238795325112864 0.38268343236509084 -3.993947920286915e-15
  outer loop
    vertex 46.72352363592814 -96.85130326182606 170.00000019986868
    vertex 45.70755166284838 -99.30407657822619 168.00000019986868
    vertex 45.707551662848374 -99.30407657822619 170.00000019986868
  endloop
endfacet
facet normal 0.9914448613738105 0.13052619222005205 4.286034058357827e-15
  outer loop
    vertex 47.6560731871833 -104.04627178588005 170.00000019986868
    vertex 47.3782804640287 -101.93622656649325 168.00000019986868
    vertex 47.378280464028684 -101.93622656649325 170.00000019986868
  endloop
endfacet
facet normal 0.9914448613738105 0.13052619222005205 4.286034058357827e-15
  outer loop
    vertex 47.3782804640287 -101.93622656649325 168.00000019986868
    vertex 47.6560731871833 -104.04627178588005 170.00000019986868
    vertex 47.65607318718332 -104.04627178588005 168.00000019986868
  endloop
endfacet
facet normal -0.6087614290087172 0.7933533402912378 -2.63168666236315e-15
  outer loop
    vertex 48.339701651115384 -94.74505906540591 168.0000001998687
    vertex 50.44594584753553 -93.12888105021868 170.00000019986868
    vertex 50.44594584753555 -93.12888105021868 168.0000001998687
  endloop
endfacet
facet normal -0.6087614290087172 0.7933533402912378 -2.63168666236315e-15
  outer loop
    vertex 50.44594584753553 -93.12888105021868 170.00000019986868
    vertex 48.339701651115384 -94.74505906540591 168.0000001998687
    vertex 48.33970165111538 -94.74505906540591 170.0000001998687
  endloop
endfacet
facet normal 0.6087614290087267 -0.7933533402912306 2.631686662363191e-15
  outer loop
    vertex 62.722036653290026 -109.12739406758062 170.00000019986877
    vertex 60.615792456869976 -110.74357208276783 168.00000019986874
    vertex 62.72203665329004 -109.12739406758062 168.00000019986877
  endloop
endfacet
facet normal 0.6087614290087267 -0.7933533402912306 2.631686662363191e-15
  outer loop
    vertex 60.615792456869976 -110.74357208276783 168.00000019986874
    vertex 62.722036653290026 -109.12739406758062 170.00000019986877
    vertex 60.61579245686996 -110.74357208276783 170.00000019986874
  endloop
endfacet
facet normal 0.608761429008723 0.7933533402912334 2.631686662363179e-15
  outer loop
    vertex 60.61579245686994 -93.12888105021868 168.00000019986877
    vertex 62.722036653290075 -94.74505906540593 170.00000019986874
    vertex 62.72203665329008 -94.74505906540593 168.00000019986874
  endloop
endfacet
facet normal 0.608761429008723 0.7933533402912334 2.631686662363179e-15
  outer loop
    vertex 62.722036653290075 -94.74505906540593 170.00000019986874
    vertex 60.61579245686994 -93.12888105021868 168.00000019986877
    vertex 60.615792456869926 -93.12888105021868 170.00000019986877
  endloop
endfacet
facet normal 0.7933533402912349 0.6087614290087211 3.4296808317594675e-15
  outer loop
    vertex 64.33821466847728 -96.85130326182603 170.0000001998688
    vertex 62.72203665329008 -94.74505906540593 168.00000019986874
    vertex 62.722036653290075 -94.74505906540593 170.00000019986874
  endloop
endfacet
facet normal 0.7933533402912349 0.6087614290087211 3.4296808317594675e-15
  outer loop
    vertex 62.72203665329008 -94.74505906540593 168.00000019986874
    vertex 64.33821466847728 -96.85130326182603 170.0000001998688
    vertex 64.33821466847729 -96.85130326182603 168.0000001998688
  endloop
endfacet
facet normal -0.38268343236509156 -0.923879532511286 -1.6543473959946674e-15
  outer loop
    vertex 59.60716349628977 -94.87587765592889 168.00000019986874
    vertex 58.00255382192818 -94.21122656649324 170.0000001998687
    vertex 58.00255382192819 -94.21122656649324 168.0000001998687
  endloop
endfacet
facet normal -0.38268343236509156 -0.923879532511286 -1.6543473959946674e-15
  outer loop
    vertex 58.00255382192818 -94.21122656649324 170.0000001998687
    vertex 59.60716349628977 -94.87587765592889 168.00000019986874
    vertex 59.60716349628976 -94.87587765592889 170.00000019986874
  endloop
endfacet
facet normal -0.7933533402912348 -0.608761429008721 -3.4296808317594675e-15
  outer loop
    vertex 62.59121806276709 -97.8599322224062 168.00000019986877
    vertex 61.29561989783533 -96.17147582086065 170.00000019986877
    vertex 61.295619897835344 -96.17147582086065 168.00000019986877
  endloop
endfacet
facet normal -0.7933533402912348 -0.608761429008721 -3.4296808317594675e-15
  outer loop
    vertex 61.29561989783533 -96.17147582086065 170.00000019986877
    vertex 62.59121806276709 -97.8599322224062 168.00000019986877
    vertex 62.59121806276708 -97.8599322224062 170.00000019986877
  endloop
endfacet
facet normal -0.7933533402912354 0.6087614290087203 -3.4296808317594663e-15
  outer loop
    vertex 46.72352363592815 -96.85130326182606 168.00000019986868
    vertex 48.33970165111538 -94.74505906540591 170.0000001998687
    vertex 48.339701651115384 -94.74505906540591 168.0000001998687
  endloop
endfacet
facet normal -0.7933533402912354 0.6087614290087203 -3.4296808317594663e-15
  outer loop
    vertex 48.33970165111538 -94.74505906540591 170.0000001998687
    vertex 46.72352363592815 -96.85130326182606 168.00000019986868
    vertex 46.72352363592814 -96.85130326182606 170.00000019986868
  endloop
endfacet
facet normal -0.9238795325112857 -0.38268343236509206 -3.993947920286914e-15
  outer loop
    vertex 63.40566511722217 -99.82618134710647 168.00000019986877
    vertex 62.59121806276708 -97.8599322224062 170.00000019986877
    vertex 62.59121806276709 -97.8599322224062 168.00000019986877
  endloop
endfacet
facet normal -0.9238795325112857 -0.38268343236509206 -3.993947920286914e-15
  outer loop
    vertex 62.59121806276708 -97.8599322224062 170.00000019986877
    vertex 63.40566511722217 -99.82618134710647 168.00000019986877
    vertex 63.40566511722216 -99.82618134710647 170.00000019986877
  endloop
endfacet
facet normal -0.9914448613738108 -0.13052619222004888 -4.2860340583578275e-15
  outer loop
    vertex 63.68345784037679 -101.93622656649325 168.00000019986877
    vertex 63.40566511722216 -99.82618134710647 170.00000019986877
    vertex 63.40566511722217 -99.82618134710647 168.00000019986877
  endloop
endfacet
facet normal -0.9914448613738108 -0.13052619222004888 -4.2860340583578275e-15
  outer loop
    vertex 63.40566511722216 -99.82618134710647 170.00000019986877
    vertex 63.68345784037679 -101.93622656649325 168.00000019986877
    vertex 63.68345784037678 -101.93622656649325 170.00000019986877
  endloop
endfacet
facet normal 2.1177760389753253e-33 -1.0 -2.465190328815662e-30
  outer loop
    vertex 58.4003785566875 -111.66122656649326 170.00000019986874
    vertex 52.66135974771803 -111.66122656649326 168.0000001998687
    vertex 58.40037855668751 -111.66122656649326 168.00000019986874
  endloop
endfacet
facet normal 2.1177760389753253e-33 -1.0 -2.465190328815662e-30
  outer loop
    vertex 52.66135974771803 -111.66122656649326 168.0000001998687
    vertex 58.4003785566875 -111.66122656649326 170.00000019986874
    vertex 52.661359747718016 -111.66122656649326 170.0000001998687
  endloop
endfacet
facet normal 0.38268343236508984 0.9238795325112867 1.6543473959946603e-15
  outer loop
    vertex 51.45457480811569 -108.99657547705759 170.00000019986868
    vertex 53.05918448247737 -109.66122656649327 168.00000019986874
    vertex 51.4545748081157 -108.99657547705759 168.0000001998687
  endloop
endfacet
facet normal 0.38268343236508984 0.9238795325112867 1.6543473959946603e-15
  outer loop
    vertex 53.05918448247737 -109.66122656649327 168.00000019986874
    vertex 51.45457480811569 -108.99657547705759 170.00000019986868
    vertex 53.059184482477356 -109.66122656649327 170.00000019986874
  endloop
endfacet
facet normal -0.9238795325112887 0.38268343236508484 -3.993947920286925e-15
  outer loop
    vertex 62.59121806276711 -106.01252091058028 168.0000001998688
    vertex 63.40566511722216 -104.04627178588002 170.00000019986877
    vertex 63.40566511722217 -104.04627178588002 168.00000019986877
  endloop
endfacet
facet normal -0.9238795325112887 0.38268343236508484 -3.993947920286925e-15
  outer loop
    vertex 63.40566511722216 -104.04627178588002 170.00000019986877
    vertex 62.59121806276711 -106.01252091058028 168.0000001998688
    vertex 62.591218062767105 -106.01252091058028 170.0000001998688
  endloop
endfacet
facet normal -0.6087614290087153 -0.7933533402912392 -2.6316866623631466e-15
  outer loop
    vertex 50.445945847535526 -110.7435720827678 170.0000001998687
    vertex 48.33970165111541 -109.1273940675806 168.0000001998687
    vertex 50.44594584753553 -110.7435720827678 168.0000001998687
  endloop
endfacet
facet normal -0.6087614290087153 -0.7933533402912392 -2.6316866623631466e-15
  outer loop
    vertex 48.33970165111541 -109.1273940675806 168.0000001998687
    vertex 50.445945847535526 -110.7435720827678 170.0000001998687
    vertex 48.3397016511154 -109.1273940675806 170.00000019986868
  endloop
endfacet
facet normal -0.38268343236508573 0.9238795325112886 -1.6543473959946387e-15
  outer loop
    vertex 58.00255382192817 -109.66122656649327 170.00000019986874
    vertex 59.607163496289814 -108.9965754770576 168.00000019986874
    vertex 58.00255382192818 -109.66122656649327 168.00000019986874
  endloop
endfacet
facet normal -0.38268343236508573 0.9238795325112886 -1.6543473959946387e-15
  outer loop
    vertex 59.607163496289814 -108.9965754770576 168.00000019986874
    vertex 58.00255382192817 -109.66122656649327 170.00000019986874
    vertex 59.6071634962898 -108.9965754770576 170.00000019986874
  endloop
endfacet
facet normal -0.6087614290087218 -0.7933533402912343 -2.631686662363174e-15
  outer loop
    vertex 61.29561989783533 -96.17147582086065 170.00000019986877
    vertex 59.60716349628977 -94.87587765592889 168.00000019986874
    vertex 61.295619897835344 -96.17147582086065 168.00000019986877
  endloop
endfacet
facet normal -0.6087614290087218 -0.7933533402912343 -2.631686662363174e-15
  outer loop
    vertex 59.60716349628977 -94.87587765592889 168.00000019986874
    vertex 61.29561989783533 -96.17147582086065 170.00000019986877
    vertex 59.60716349628976 -94.87587765592889 170.00000019986874
  endloop
endfacet
endsolid Design - Rolled
