solid Design - Rolled
facet normal 9.556260536891128e-15 1.2581055672775904e-15 -1.0
  outer loop
    vertex 38.40886680673137 -94.33605511656614 170.00000019986862
    vertex 38.40886680673137 -91.74786466554092 170.00000019986862
    vertex 38.57923767528602 -93.04195989105354 170.00000019986862
  endloop
endfacet
facet normal 9.556260536891128e-15 1.2581055672775904e-15 -1.0
  outer loop
    vertex 38.40886680673137 -91.74786466554092 170.00000019986862
    vertex 38.40886680673137 -94.33605511656614 170.00000019986862
    vertex 37.90936469420822 -95.54195989105354 170.00000019986862
  endloop
endfacet
facet normal 9.556260536891128e-15 1.2581055672775904e-15 -1.0
  outer loop
    vertex 38.40886680673137 -91.74786466554092 170.00000019986862
    vertex 37.90936469420822 -95.54195989105354 170.00000019986862
    vertex 37.90936469420822 -90.54195989105352 170.00000019986862
  endloop
endfacet
facet normal 9.556260536891128e-15 1.2581055672775904e-15 -1.0
  outer loop
    vertex 37.90936469420822 -90.54195989105352 170.00000019986862
    vertex 37.90936469420822 -95.54195989105354 170.00000019986862
    vertex 37.79182636346006 -93.04195989105354 170.00000019986865
  endloop
endfacet
facet normal 9.556260536891128e-15 1.2581055672775904e-15 -1.0
  outer loop
    vertex 37.79182636346006 -93.04195989105354 170.00000019986865
    vertex 37.90936469420822 -95.54195989105354 170.00000019986862
    vertex 37.64828588472651 -94.13225807273643 170.00000019986865
  endloop
endfacet
facet normal 9.556260536891128e-15 1.2581055672775904e-15 -1.0
  outer loop
    vertex 37.64828588472651 -94.13225807273643 170.00000019986865
    vertex 37.90936469420822 -95.54195989105354 170.00000019986862
    vertex 37.11477158121876 -96.57749379698627 170.0000001998686
  endloop
endfacet
facet normal 9.556260536891128e-15 1.2581055672775904e-15 -1.0
  outer loop
    vertex 37.64828588472651 -94.13225807273643 170.00000019986865
    vertex 37.11477158121876 -96.57749379698627 170.0000001998686
    vertex 37.227446494939706 -95.14825423514057 170.00000019986865
  endloop
endfacet
facet normal 9.556260536891128e-15 1.2581055672775904e-15 -1.0
  outer loop
    vertex 37.227446494939706 -95.14825423514057 170.00000019986865
    vertex 37.11477158121876 -96.57749379698627 170.0000001998686
    vertex 36.55798770304365 -96.02070991881112 170.00000019986865
  endloop
endfacet
facet normal 9.556260536891128e-15 1.2581055672775904e-15 -1.0
  outer loop
    vertex 36.55798770304365 -96.02070991881112 170.00000019986865
    vertex 37.11477158121876 -96.57749379698627 170.0000001998686
    vertex 36.07923767528602 -97.37208690997572 170.0000001998686
  endloop
endfacet
facet normal 9.556260536891128e-15 1.2581055672775904e-15 -1.0
  outer loop
    vertex 36.55798770304365 -96.02070991881112 170.00000019986865
    vertex 36.07923767528602 -97.37208690997572 170.0000001998686
    vertex 36.13932658819281 -96.34195989105353 170.00000019986862
  endloop
endfacet
facet normal 9.556260536891128e-15 1.2581055672775904e-15 -1.0
  outer loop
    vertex 36.13932658819281 -96.34195989105353 170.00000019986862
    vertex 36.07923767528602 -97.37208690997572 170.0000001998686
    vertex 31.01914876237924 -96.34195989105353 170.00000019986857
  endloop
endfacet
facet normal 9.556260536891128e-15 1.2581055672775904e-15 -1.0
  outer loop
    vertex 31.01914876237924 -96.34195989105353 170.00000019986857
    vertex 36.07923767528602 -97.37208690997572 170.0000001998686
    vertex 34.87333290079863 -97.87158902249887 170.0000001998686
  endloop
endfacet
facet normal 9.556260536891128e-15 1.2581055672775904e-15 -1.0
  outer loop
    vertex 31.01914876237924 -96.34195989105353 170.00000019986857
    vertex 34.87333290079863 -97.87158902249887 170.0000001998686
    vertex 33.57923767528602 -98.04195989105354 170.0000001998686
  endloop
endfacet
facet normal 9.556260536891128e-15 1.2581055672775904e-15 -1.0
  outer loop
    vertex 31.01914876237924 -96.34195989105353 170.00000019986857
    vertex 33.57923767528602 -98.04195989105354 170.0000001998686
    vertex 32.285142449773424 -97.87158902249887 170.00000019986857
  endloop
endfacet
facet normal 9.556260536891128e-15 1.2581055672775904e-15 -1.0
  outer loop
    vertex 31.01914876237924 -96.34195989105353 170.00000019986857
    vertex 32.285142449773424 -97.87158902249887 170.00000019986857
    vertex 31.079237675286024 -97.37208690997572 170.00000019986857
  endloop
endfacet
facet normal 9.556260536891128e-15 1.2581055672775904e-15 -1.0
  outer loop
    vertex 31.01914876237924 -96.34195989105353 170.00000019986857
    vertex 31.079237675286024 -97.37208690997572 170.00000019986857
    vertex 30.043703769353282 -96.57749379698627 170.00000019986854
  endloop
endfacet
facet normal 9.556260536891128e-15 1.2581055672775904e-15 -1.0
  outer loop
    vertex 31.01914876237924 -96.34195989105353 170.00000019986857
    vertex 30.043703769353282 -96.57749379698627 170.00000019986854
    vertex 30.600487647528393 -96.02070991881111 170.0000001998686
  endloop
endfacet
facet normal 9.556260536891128e-15 1.2581055672775904e-15 -1.0
  outer loop
    vertex 30.600487647528393 -96.02070991881111 170.0000001998686
    vertex 30.043703769353282 -96.57749379698627 170.00000019986854
    vertex 29.931028855632345 -95.14825423514057 170.0000001998686
  endloop
endfacet
facet normal 9.556260536891128e-15 1.2581055672775904e-15 -1.0
  outer loop
    vertex 29.931028855632345 -95.14825423514057 170.0000001998686
    vertex 30.043703769353282 -96.57749379698627 170.00000019986854
    vertex 29.24911065636383 -95.54195989105354 170.00000019986854
  endloop
endfacet
facet normal 9.556260536891128e-15 1.2581055672775904e-15 -1.0
  outer loop
    vertex 29.931028855632345 -95.14825423514057 170.0000001998686
    vertex 29.24911065636383 -95.54195989105354 170.00000019986854
    vertex 29.510189465845542 -94.13225807273643 170.0000001998686
  endloop
endfacet
facet normal 9.556260536891128e-15 1.2581055672775904e-15 -1.0
  outer loop
    vertex 29.510189465845542 -94.13225807273643 170.0000001998686
    vertex 29.24911065636383 -95.54195989105354 170.00000019986854
    vertex 29.366648987111983 -93.04195989105354 170.0000001998686
  endloop
endfacet
facet normal 9.556260536891128e-15 1.2581055672775904e-15 -1.0
  outer loop
    vertex 37.90936469420822 -90.54195989105352 170.00000019986862
    vertex 37.648285884726505 -91.95166170937064 170.00000019986865
    vertex 37.11477158121876 -89.5064259851208 170.00000019986862
  endloop
endfacet
facet normal 9.556260536891128e-15 1.2581055672775904e-15 -1.0
  outer loop
    vertex 37.648285884726505 -91.95166170937064 170.00000019986865
    vertex 37.90936469420822 -90.54195989105352 170.00000019986862
    vertex 37.79182636346006 -93.04195989105354 170.00000019986865
  endloop
endfacet
facet normal 9.556260536891128e-15 1.2581055672775904e-15 -1.0
  outer loop
    vertex 37.11477158121876 -89.5064259851208 170.00000019986862
    vertex 37.648285884726505 -91.95166170937064 170.00000019986865
    vertex 37.227446494939706 -90.9356655469665 170.00000019986865
  endloop
endfacet
facet normal 9.556260536891128e-15 1.2581055672775904e-15 -1.0
  outer loop
    vertex 37.11477158121876 -89.5064259851208 170.00000019986862
    vertex 37.227446494939706 -90.9356655469665 170.00000019986865
    vertex 36.55798770304365 -90.06320986329595 170.00000019986862
  endloop
endfacet
facet normal 9.556260536891128e-15 1.2581055672775904e-15 -1.0
  outer loop
    vertex 37.11477158121876 -89.5064259851208 170.00000019986862
    vertex 36.55798770304365 -90.06320986329595 170.00000019986862
    vertex 36.079237675286016 -88.71183287213134 170.0000001998686
  endloop
endfacet
facet normal 9.556260536891128e-15 1.2581055672775904e-15 -1.0
  outer loop
    vertex 36.079237675286016 -88.71183287213134 170.0000001998686
    vertex 36.55798770304365 -90.06320986329595 170.00000019986862
    vertex 36.13932658819281 -89.74195989105354 170.00000019986862
  endloop
endfacet
facet normal 9.556260536891128e-15 1.2581055672775904e-15 -1.0
  outer loop
    vertex 36.079237675286016 -88.71183287213134 170.0000001998686
    vertex 36.13932658819281 -89.74195989105354 170.00000019986862
    vertex 31.01914876237924 -89.74195989105354 170.00000019986857
  endloop
endfacet
facet normal 9.556260536891128e-15 1.2581055672775904e-15 -1.0
  outer loop
    vertex 36.079237675286016 -88.71183287213134 170.0000001998686
    vertex 31.01914876237924 -89.74195989105354 170.00000019986857
    vertex 34.87333290079862 -88.2123307596082 170.0000001998686
  endloop
endfacet
facet normal 9.556260536891128e-15 1.2581055672775904e-15 -1.0
  outer loop
    vertex 34.87333290079862 -88.2123307596082 170.0000001998686
    vertex 31.01914876237924 -89.74195989105354 170.00000019986857
    vertex 33.57923767528602 -88.04195989105354 170.0000001998686
  endloop
endfacet
facet normal 9.556260536891128e-15 1.2581055672775904e-15 -1.0
  outer loop
    vertex 33.57923767528602 -88.04195989105354 170.0000001998686
    vertex 31.01914876237924 -89.74195989105354 170.00000019986857
    vertex 32.28514244977342 -88.2123307596082 170.00000019986857
  endloop
endfacet
facet normal 9.556260536891128e-15 1.2581055672775904e-15 -1.0
  outer loop
    vertex 32.28514244977342 -88.2123307596082 170.00000019986857
    vertex 31.01914876237924 -89.74195989105354 170.00000019986857
    vertex 31.079237675286024 -88.71183287213134 170.00000019986857
  endloop
endfacet
facet normal 9.556260536891128e-15 1.2581055672775904e-15 -1.0
  outer loop
    vertex 31.079237675286024 -88.71183287213134 170.00000019986857
    vertex 31.01914876237924 -89.74195989105354 170.00000019986857
    vertex 30.043703769353282 -89.5064259851208 170.00000019986857
  endloop
endfacet
facet normal 9.556260536891128e-15 1.2581055672775904e-15 -1.0
  outer loop
    vertex 30.043703769353282 -89.5064259851208 170.00000019986857
    vertex 31.01914876237924 -89.74195989105354 170.00000019986857
    vertex 30.600487647528393 -90.06320986329594 170.0000001998686
  endloop
endfacet
facet normal 9.556260536891128e-15 1.2581055672775904e-15 -1.0
  outer loop
    vertex 30.043703769353282 -89.5064259851208 170.00000019986857
    vertex 30.600487647528393 -90.06320986329594 170.0000001998686
    vertex 29.931028855632345 -90.93566554696649 170.0000001998686
  endloop
endfacet
facet normal 9.556260536891128e-15 1.2581055672775904e-15 -1.0
  outer loop
    vertex 30.043703769353282 -89.5064259851208 170.00000019986857
    vertex 29.931028855632345 -90.93566554696649 170.0000001998686
    vertex 29.24911065636383 -90.54195989105354 170.00000019986854
  endloop
endfacet
facet normal 9.556260536891128e-15 1.2581055672775904e-15 -1.0
  outer loop
    vertex 29.24911065636383 -90.54195989105354 170.00000019986854
    vertex 29.931028855632345 -90.93566554696649 170.0000001998686
    vertex 29.510189465845535 -91.95166170937063 170.0000001998686
  endloop
endfacet
facet normal 9.556260536891128e-15 1.2581055672775904e-15 -1.0
  outer loop
    vertex 29.24911065636383 -90.54195989105354 170.00000019986854
    vertex 29.510189465845535 -91.95166170937063 170.0000001998686
    vertex 29.366648987111983 -93.04195989105354 170.0000001998686
  endloop
endfacet
facet normal 9.556260536891128e-15 1.2581055672775904e-15 -1.0
  outer loop
    vertex 29.24911065636383 -90.54195989105354 170.00000019986854
    vertex 29.366648987111983 -93.04195989105354 170.0000001998686
    vertex 29.24911065636383 -95.54195989105354 170.00000019986854
  endloop
endfacet
facet normal 9.556260536891128e-15 1.2581055672775904e-15 -1.0
  outer loop
    vertex 29.24911065636383 -90.54195989105354 170.00000019986854
    vertex 29.24911065636383 -95.54195989105354 170.00000019986854
    vertex 28.74960854384068 -94.33605511656614 170.0000001998685
  endloop
endfacet
facet normal 9.556260536891128e-15 1.2581055672775904e-15 -1.0
  outer loop
    vertex 29.24911065636383 -90.54195989105354 170.00000019986854
    vertex 28.74960854384068 -94.33605511656614 170.0000001998685
    vertex 28.74960854384068 -91.74786466554093 170.00000019986854
  endloop
endfacet
facet normal 9.556260536891128e-15 1.2581055672775904e-15 -1.0
  outer loop
    vertex 28.74960854384068 -91.74786466554093 170.00000019986854
    vertex 28.74960854384068 -94.33605511656614 170.0000001998685
    vertex 28.57923767528602 -93.04195989105354 170.0000001998685
  endloop
endfacet
facet normal -0.13052619222005613 -0.9914448613738099 -2.494684599486337e-15
  outer loop
    vertex 33.57923767528601 -98.04195989105354 172.00000019986857
    vertex 32.285142449773424 -97.87158902249887 170.00000019986857
    vertex 33.57923767528602 -98.04195989105354 170.0000001998686
  endloop
endfacet
facet normal -0.13052619222005613 -0.9914448613738099 -2.494684599486337e-15
  outer loop
    vertex 32.285142449773424 -97.87158902249887 170.00000019986857
    vertex 33.57923767528601 -98.04195989105354 172.00000019986857
    vertex 32.2851424497734 -97.87158902249887 172.00000019986857
  endloop
endfacet
facet normal -0.6087614290087195 0.7933533402912359 -4.8193605661788e-15
  outer loop
    vertex 30.043703769353264 -89.5064259851208 172.00000019986857
    vertex 31.079237675286024 -88.71183287213134 170.00000019986857
    vertex 30.043703769353282 -89.5064259851208 170.00000019986857
  endloop
endfacet
facet normal -0.6087614290087195 0.7933533402912359 -4.8193605661788e-15
  outer loop
    vertex 31.079237675286024 -88.71183287213134 170.00000019986857
    vertex 30.043703769353264 -89.5064259851208 172.00000019986857
    vertex 31.079237675286006 -88.71183287213134 172.00000019986857
  endloop
endfacet
facet normal 0.6087614290087229 0.7933533402912334 6.815605074656182e-15
  outer loop
    vertex 36.079237675286 -88.71183287213134 172.00000019986857
    vertex 37.11477158121876 -89.5064259851208 170.00000019986862
    vertex 36.079237675286016 -88.71183287213134 170.0000001998686
  endloop
endfacet
facet normal 0.6087614290087229 0.7933533402912334 6.815605074656182e-15
  outer loop
    vertex 37.11477158121876 -89.5064259851208 170.00000019986862
    vertex 36.079237675286 -88.71183287213134 172.00000019986857
    vertex 37.11477158121875 -89.5064259851208 172.00000019986862
  endloop
endfacet
facet normal 0.3826834323650902 0.9238795325112866 4.819360566178824e-15
  outer loop
    vertex 34.87333290079862 -88.2123307596082 170.0000001998686
    vertex 36.079237675286 -88.71183287213134 172.00000019986857
    vertex 36.079237675286016 -88.71183287213134 170.0000001998686
  endloop
endfacet
facet normal 0.3826834323650902 0.9238795325112866 4.819360566178824e-15
  outer loop
    vertex 36.079237675286 -88.71183287213134 172.00000019986857
    vertex 34.87333290079862 -88.2123307596082 170.0000001998686
    vertex 34.87333290079861 -88.2123307596082 172.0000001998686
  endloop
endfacet
facet normal 0.9238795325112866 0.3826834323650902 9.310289674142448e-15
  outer loop
    vertex 38.40886680673135 -91.74786466554092 172.00000019986862
    vertex 37.90936469420822 -90.54195989105352 170.00000019986862
    vertex 37.9093646942082 -90.54195989105352 172.00000019986862
  endloop
endfacet
facet normal 0.9238795325112866 0.3826834323650902 9.310289674142448e-15
  outer loop
    vertex 37.90936469420822 -90.54195989105352 170.00000019986862
    vertex 38.40886680673135 -91.74786466554092 172.00000019986862
    vertex 38.40886680673137 -91.74786466554092 170.00000019986862
  endloop
endfacet
facet normal -0.9238795325112878 -0.3826834323650872 -9.310289674142455e-15
  outer loop
    vertex 29.24911065636383 -95.54195989105354 170.00000019986854
    vertex 28.74960854384066 -94.33605511656614 172.0000001998685
    vertex 28.74960854384068 -94.33605511656614 170.0000001998685
  endloop
endfacet
facet normal -0.9238795325112878 -0.3826834323650872 -9.310289674142455e-15
  outer loop
    vertex 28.74960854384066 -94.33605511656614 172.0000001998685
    vertex 29.24911065636383 -95.54195989105354 170.00000019986854
    vertex 29.24911065636381 -95.54195989105354 172.00000019986854
  endloop
endfacet
facet normal 0.9238795325112894 0.38268343236508334 9.310289674142468e-15
  outer loop
    vertex 29.931028855632327 -95.14825423514057 172.00000019986857
    vertex 29.510189465845542 -94.13225807273643 170.0000001998686
    vertex 29.510189465845524 -94.13225807273643 172.00000019986857
  endloop
endfacet
facet normal 0.9238795325112894 0.38268343236508334 9.310289674142468e-15
  outer loop
    vertex 29.510189465845542 -94.13225807273643 170.0000001998686
    vertex 29.931028855632327 -95.14825423514057 172.00000019986857
    vertex 29.931028855632345 -95.14825423514057 170.0000001998686
  endloop
endfacet
facet normal -0.9238795325112892 0.3826834323650842 -8.347377360615648e-15
  outer loop
    vertex 37.227446494939706 -95.14825423514057 170.00000019986865
    vertex 37.6482858847265 -94.13225807273643 172.00000019986865
    vertex 37.64828588472651 -94.13225807273643 170.00000019986865
  endloop
endfacet
facet normal -0.9238795325112892 0.3826834323650842 -8.347377360615648e-15
  outer loop
    vertex 37.6482858847265 -94.13225807273643 172.00000019986865
    vertex 37.227446494939706 -95.14825423514057 170.00000019986865
    vertex 37.227446494939684 -95.14825423514057 172.00000019986862
  endloop
endfacet
facet normal -0.6087614290087231 -0.7933533402912334 -6.815605074656184e-15
  outer loop
    vertex 36.557987703043636 -90.06320986329595 172.00000019986862
    vertex 36.13932658819281 -89.74195989105354 170.00000019986862
    vertex 36.55798770304365 -90.06320986329595 170.00000019986862
  endloop
endfacet
facet normal -0.6087614290087231 -0.7933533402912334 -6.815605074656184e-15
  outer loop
    vertex 36.13932658819281 -89.74195989105354 170.00000019986862
    vertex 36.557987703043636 -90.06320986329595 172.00000019986862
    vertex 36.139326588192795 -89.74195989105354 172.00000019986862
  endloop
endfacet
facet normal -0.9914448613738104 0.13052619222005188 -9.310289674142448e-15
  outer loop
    vertex 28.57923767528602 -93.04195989105354 170.0000001998685
    vertex 28.74960854384066 -91.74786466554093 172.00000019986854
    vertex 28.74960854384068 -91.74786466554093 170.00000019986854
  endloop
endfacet
facet normal -0.9914448613738104 0.13052619222005188 -9.310289674142448e-15
  outer loop
    vertex 28.74960854384066 -91.74786466554093 172.00000019986854
    vertex 28.57923767528602 -93.04195989105354 170.0000001998685
    vertex 28.579237675286006 -93.04195989105354 172.0000001998685
  endloop
endfacet
facet normal -0.3826834323650902 0.9238795325112866 -2.4946845994862895e-15
  outer loop
    vertex 31.079237675286006 -88.71183287213134 172.00000019986857
    vertex 32.28514244977342 -88.2123307596082 170.00000019986857
    vertex 31.079237675286024 -88.71183287213134 170.00000019986857
  endloop
endfacet
facet normal -0.3826834323650902 0.9238795325112866 -2.4946845994862895e-15
  outer loop
    vertex 32.28514244977342 -88.2123307596082 170.00000019986857
    vertex 31.079237675286006 -88.71183287213134 172.00000019986857
    vertex 32.285142449773396 -88.2123307596082 172.00000019986857
  endloop
endfacet
facet normal -0.6087614290087097 0.7933533402912436 -4.819360566178695e-15
  outer loop
    vertex 36.139326588192795 -96.34195989105353 172.00000019986862
    vertex 36.55798770304365 -96.02070991881112 170.00000019986865
    vertex 36.13932658819281 -96.34195989105353 170.00000019986862
  endloop
endfacet
facet normal -0.6087614290087097 0.7933533402912436 -4.819360566178695e-15
  outer loop
    vertex 36.55798770304365 -96.02070991881112 170.00000019986865
    vertex 36.139326588192795 -96.34195989105353 172.00000019986862
    vertex 36.557987703043636 -96.02070991881112 172.00000019986865
  endloop
endfacet
facet normal 0.6087614290087097 -0.7933533402912436 4.819360566178695e-15
  outer loop
    vertex 31.01914876237922 -89.74195989105354 172.00000019986857
    vertex 30.600487647528393 -90.06320986329594 170.0000001998686
    vertex 31.01914876237924 -89.74195989105354 170.00000019986857
  endloop
endfacet
facet normal 0.6087614290087097 -0.7933533402912436 4.819360566178695e-15
  outer loop
    vertex 30.600487647528393 -90.06320986329594 170.0000001998686
    vertex 31.01914876237922 -89.74195989105354 172.00000019986857
    vertex 30.600487647528375 -90.06320986329594 172.00000019986857
  endloop
endfacet
facet normal 0.7933533402912344 -0.6087614290087215 6.815605074656148e-15
  outer loop
    vertex 29.931028855632327 -90.93566554696649 172.00000019986857
    vertex 30.600487647528393 -90.06320986329594 170.0000001998686
    vertex 30.600487647528375 -90.06320986329594 172.00000019986857
  endloop
endfacet
facet normal 0.7933533402912344 -0.6087614290087215 6.815605074656148e-15
  outer loop
    vertex 30.600487647528393 -90.06320986329594 170.0000001998686
    vertex 29.931028855632327 -90.93566554696649 172.00000019986857
    vertex 29.931028855632345 -90.93566554696649 170.0000001998686
  endloop
endfacet
facet normal -0.7933533402912344 -0.6087614290087215 -8.347377360615615e-15
  outer loop
    vertex 37.227446494939706 -90.9356655469665 170.00000019986865
    vertex 36.557987703043636 -90.06320986329595 172.00000019986862
    vertex 36.55798770304365 -90.06320986329595 170.00000019986862
  endloop
endfacet
facet normal -0.7933533402912344 -0.6087614290087215 -8.347377360615615e-15
  outer loop
    vertex 36.557987703043636 -90.06320986329595 172.00000019986862
    vertex 37.227446494939706 -90.9356655469665 170.00000019986865
    vertex 37.227446494939684 -90.9356655469665 172.00000019986865
  endloop
endfacet
facet normal -0.9914448613738102 0.13052619222005446 -9.310289674142444e-15
  outer loop
    vertex 37.64828588472651 -94.13225807273643 170.00000019986865
    vertex 37.791826363460046 -93.04195989105354 172.00000019986865
    vertex 37.79182636346006 -93.04195989105354 170.00000019986865
  endloop
endfacet
facet normal -0.9914448613738102 0.13052619222005446 -9.310289674142444e-15
  outer loop
    vertex 37.791826363460046 -93.04195989105354 172.00000019986865
    vertex 37.64828588472651 -94.13225807273643 170.00000019986865
    vertex 37.6482858847265 -94.13225807273643 172.00000019986865
  endloop
endfacet
facet normal -0.9914448613738094 -0.13052619222005948 -9.638721132357631e-15
  outer loop
    vertex 37.79182636346006 -93.04195989105354 170.00000019986865
    vertex 37.64828588472649 -91.95166170937064 172.00000019986865
    vertex 37.648285884726505 -91.95166170937064 170.00000019986865
  endloop
endfacet
facet normal -0.9914448613738094 -0.13052619222005948 -9.638721132357631e-15
  outer loop
    vertex 37.64828588472649 -91.95166170937064 172.00000019986865
    vertex 37.79182636346006 -93.04195989105354 170.00000019986865
    vertex 37.791826363460046 -93.04195989105354 172.00000019986865
  endloop
endfacet
facet normal -0.9914448613738104 -0.13052619222005188 -9.638721132357631e-15
  outer loop
    vertex 28.74960854384068 -94.33605511656614 170.0000001998685
    vertex 28.579237675286006 -93.04195989105354 172.0000001998685
    vertex 28.57923767528602 -93.04195989105354 170.0000001998685
  endloop
endfacet
facet normal -0.9914448613738104 -0.13052619222005188 -9.638721132357631e-15
  outer loop
    vertex 28.579237675286006 -93.04195989105354 172.0000001998685
    vertex 28.74960854384068 -94.33605511656614 170.0000001998685
    vertex 28.74960854384066 -94.33605511656614 172.0000001998685
  endloop
endfacet
facet normal -0.9238795325112894 -0.38268343236508334 -9.310289674142468e-15
  outer loop
    vertex 37.648285884726505 -91.95166170937064 170.00000019986865
    vertex 37.227446494939684 -90.9356655469665 172.00000019986865
    vertex 37.227446494939706 -90.9356655469665 170.00000019986865
  endloop
endfacet
facet normal -0.9238795325112894 -0.38268343236508334 -9.310289674142468e-15
  outer loop
    vertex 37.227446494939684 -90.9356655469665 172.00000019986865
    vertex 37.648285884726505 -91.95166170937064 170.00000019986865
    vertex 37.64828588472649 -91.95166170937064 172.00000019986865
  endloop
endfacet
facet normal 0.9238795325112866 -0.3826834323650902 8.347377360615614e-15
  outer loop
    vertex 37.9093646942082 -95.54195989105354 172.00000019986862
    vertex 38.40886680673137 -94.33605511656614 170.00000019986862
    vertex 38.40886680673135 -94.33605511656614 172.00000019986862
  endloop
endfacet
facet normal 0.9238795325112866 -0.3826834323650902 8.347377360615614e-15
  outer loop
    vertex 38.40886680673137 -94.33605511656614 170.00000019986862
    vertex 37.9093646942082 -95.54195989105354 172.00000019986862
    vertex 37.90936469420822 -95.54195989105354 170.00000019986862
  endloop
endfacet
facet normal -0.3826834323650887 -0.9238795325112873 -4.81936056617881e-15
  outer loop
    vertex 32.2851424497734 -97.87158902249887 172.00000019986857
    vertex 31.079237675286024 -97.37208690997572 170.00000019986857
    vertex 32.285142449773424 -97.87158902249887 170.00000019986857
  endloop
endfacet
facet normal -0.3826834323650887 -0.9238795325112873 -4.81936056617881e-15
  outer loop
    vertex 31.079237675286024 -97.37208690997572 170.00000019986857
    vertex 32.2851424497734 -97.87158902249887 172.00000019986857
    vertex 31.079237675286006 -97.37208690997572 172.00000019986857
  endloop
endfacet
facet normal 2.217146444791413e-29 -1.0 -1.2581055672775904e-15
  outer loop
    vertex 36.13932658819281 -89.74195989105354 170.00000019986862
    vertex 31.01914876237922 -89.74195989105354 172.00000019986857
    vertex 31.01914876237924 -89.74195989105354 170.00000019986857
  endloop
endfacet
facet normal 2.217146444791413e-29 -1.0 -1.2581055672775904e-15
  outer loop
    vertex 31.01914876237922 -89.74195989105354 172.00000019986857
    vertex 36.13932658819281 -89.74195989105354 170.00000019986862
    vertex 36.139326588192795 -89.74195989105354 172.00000019986862
  endloop
endfacet
facet normal -0.9238795325112866 0.3826834323650902 -8.347377360615614e-15
  outer loop
    vertex 28.74960854384068 -91.74786466554093 170.00000019986854
    vertex 29.24911065636381 -90.54195989105354 172.00000019986854
    vertex 29.24911065636383 -90.54195989105354 170.00000019986854
  endloop
endfacet
facet normal -0.9238795325112866 0.3826834323650902 -8.347377360615614e-15
  outer loop
    vertex 29.24911065636381 -90.54195989105354 172.00000019986854
    vertex 28.74960854384068 -91.74786466554093 170.00000019986854
    vertex 28.74960854384066 -91.74786466554093 172.00000019986854
  endloop
endfacet
facet normal -1.6637112159722969e-29 1.0 1.2581055672775904e-15
  outer loop
    vertex 31.01914876237922 -96.34195989105353 172.00000019986857
    vertex 36.13932658819281 -96.34195989105353 170.00000019986862
    vertex 31.01914876237924 -96.34195989105353 170.00000019986857
  endloop
endfacet
facet normal -1.6637112159722969e-29 1.0 1.2581055672775904e-15
  outer loop
    vertex 36.13932658819281 -96.34195989105353 170.00000019986862
    vertex 31.01914876237922 -96.34195989105353 172.00000019986857
    vertex 36.139326588192795 -96.34195989105353 172.00000019986862
  endloop
endfacet
facet normal 0.9238795325112875 -0.3826834323650877 8.347377360615628e-15
  outer loop
    vertex 29.510189465845517 -91.95166170937063 172.00000019986857
    vertex 29.931028855632345 -90.93566554696649 170.0000001998686
    vertex 29.931028855632327 -90.93566554696649 172.00000019986857
  endloop
endfacet
facet normal 0.9238795325112875 -0.3826834323650877 8.347377360615628e-15
  outer loop
    vertex 29.931028855632345 -90.93566554696649 170.0000001998686
    vertex 29.510189465845517 -91.95166170937063 172.00000019986857
    vertex 29.510189465845535 -91.95166170937063 170.0000001998686
  endloop
endfacet
facet normal 0.9914448613738102 -0.1305261922200531 9.310289674142444e-15
  outer loop
    vertex 29.366648987111965 -93.04195989105354 172.00000019986857
    vertex 29.510189465845535 -91.95166170937063 170.0000001998686
    vertex 29.510189465845517 -91.95166170937063 172.00000019986857
  endloop
endfacet
facet normal 0.9914448613738102 -0.1305261922200531 9.310289674142444e-15
  outer loop
    vertex 29.510189465845535 -91.95166170937063 170.0000001998686
    vertex 29.366648987111965 -93.04195989105354 172.00000019986857
    vertex 29.366648987111983 -93.04195989105354 170.0000001998686
  endloop
endfacet
facet normal 0.13052619222005557 -0.99144486137381 3.3526588471893e-29
  outer loop
    vertex 34.873332900798616 -97.87158902249887 172.00000019986857
    vertex 33.57923767528602 -98.04195989105354 170.0000001998686
    vertex 34.87333290079863 -97.87158902249887 170.0000001998686
  endloop
endfacet
facet normal 0.13052619222005557 -0.99144486137381 3.3526588471893e-29
  outer loop
    vertex 33.57923767528602 -98.04195989105354 170.0000001998686
    vertex 34.873332900798616 -97.87158902249887 172.00000019986857
    vertex 33.57923767528601 -98.04195989105354 172.00000019986857
  endloop
endfacet
facet normal -0.6087614290087195 -0.7933533402912359 -6.815605074656154e-15
  outer loop
    vertex 31.079237675286024 -97.37208690997572 170.00000019986857
    vertex 30.043703769353264 -96.57749379698627 172.00000019986854
    vertex 30.043703769353282 -96.57749379698627 170.00000019986854
  endloop
endfacet
facet normal -0.6087614290087195 -0.7933533402912359 -6.815605074656154e-15
  outer loop
    vertex 30.043703769353264 -96.57749379698627 172.00000019986854
    vertex 31.079237675286024 -97.37208690997572 170.00000019986857
    vertex 31.079237675286006 -97.37208690997572 172.00000019986857
  endloop
endfacet
facet normal -0.7933533402912344 0.6087614290087215 -6.815605074656148e-15
  outer loop
    vertex 36.55798770304365 -96.02070991881112 170.00000019986865
    vertex 37.227446494939684 -95.14825423514057 172.00000019986862
    vertex 37.227446494939706 -95.14825423514057 170.00000019986865
  endloop
endfacet
facet normal -0.7933533402912344 0.6087614290087215 -6.815605074656148e-15
  outer loop
    vertex 37.227446494939684 -95.14825423514057 172.00000019986862
    vertex 36.55798770304365 -96.02070991881112 170.00000019986865
    vertex 36.557987703043636 -96.02070991881112 172.00000019986865
  endloop
endfacet
facet normal 0.9914448613738104 -0.13052619222005188 9.310289674142448e-15
  outer loop
    vertex 38.40886680673135 -94.33605511656614 172.00000019986862
    vertex 38.57923767528602 -93.04195989105354 170.00000019986862
    vertex 38.57923767528601 -93.04195989105354 172.00000019986862
  endloop
endfacet
facet normal 0.9914448613738104 -0.13052619222005188 9.310289674142448e-15
  outer loop
    vertex 38.57923767528602 -93.04195989105354 170.00000019986862
    vertex 38.40886680673135 -94.33605511656614 172.00000019986862
    vertex 38.40886680673137 -94.33605511656614 170.00000019986862
  endloop
endfacet
facet normal -0.793353340291233 -0.6087614290087238 -8.347377360615603e-15
  outer loop
    vertex 30.043703769353282 -96.57749379698627 170.00000019986854
    vertex 29.24911065636381 -95.54195989105354 172.00000019986854
    vertex 29.24911065636383 -95.54195989105354 170.00000019986854
  endloop
endfacet
facet normal -0.793353340291233 -0.6087614290087238 -8.347377360615603e-15
  outer loop
    vertex 29.24911065636381 -95.54195989105354 172.00000019986854
    vertex 30.043703769353282 -96.57749379698627 170.00000019986854
    vertex 30.043703769353264 -96.57749379698627 172.00000019986854
  endloop
endfacet
facet normal 0.793353340291233 0.6087614290087238 8.347377360615603e-15
  outer loop
    vertex 37.9093646942082 -90.54195989105352 172.00000019986862
    vertex 37.11477158121876 -89.5064259851208 170.00000019986862
    vertex 37.11477158121875 -89.5064259851208 172.00000019986862
  endloop
endfacet
facet normal 0.793353340291233 0.6087614290087238 8.347377360615603e-15
  outer loop
    vertex 37.11477158121876 -89.5064259851208 170.00000019986862
    vertex 37.9093646942082 -90.54195989105352 172.00000019986862
    vertex 37.90936469420822 -90.54195989105352 170.00000019986862
  endloop
endfacet
facet normal 0.3826834323650902 -0.9238795325112866 2.4946845994862895e-15
  outer loop
    vertex 36.07923767528602 -97.37208690997572 170.0000001998686
    vertex 34.873332900798616 -97.87158902249887 172.00000019986857
    vertex 34.87333290079863 -97.87158902249887 170.0000001998686
  endloop
endfacet
facet normal 0.3826834323650902 -0.9238795325112866 2.4946845994862895e-15
  outer loop
    vertex 34.873332900798616 -97.87158902249887 172.00000019986857
    vertex 36.07923767528602 -97.37208690997572 170.0000001998686
    vertex 36.07923767528601 -97.37208690997572 172.0000001998686
  endloop
endfacet
facet normal 0.9914448613738094 0.13052619222005948 9.638721132357631e-15
  outer loop
    vertex 29.510189465845524 -94.13225807273643 172.00000019986857
    vertex 29.366648987111983 -93.04195989105354 170.0000001998686
    vertex 29.366648987111965 -93.04195989105354 172.00000019986857
  endloop
endfacet
facet normal 0.9914448613738094 0.13052619222005948 9.638721132357631e-15
  outer loop
    vertex 29.366648987111983 -93.04195989105354 170.0000001998686
    vertex 29.510189465845524 -94.13225807273643 172.00000019986857
    vertex 29.510189465845542 -94.13225807273643 170.0000001998686
  endloop
endfacet
facet normal 0.6087614290087195 -0.7933533402912359 4.8193605661788e-15
  outer loop
    vertex 37.11477158121875 -96.57749379698627 172.00000019986857
    vertex 36.07923767528602 -97.37208690997572 170.0000001998686
    vertex 37.11477158121876 -96.57749379698627 170.0000001998686
  endloop
endfacet
facet normal 0.6087614290087195 -0.7933533402912359 4.8193605661788e-15
  outer loop
    vertex 36.07923767528602 -97.37208690997572 170.0000001998686
    vertex 37.11477158121875 -96.57749379698627 172.00000019986857
    vertex 36.07923767528601 -97.37208690997572 172.0000001998686
  endloop
endfacet
facet normal -0.13052619222005557 0.99144486137381 -3.3526588471893e-29
  outer loop
    vertex 32.285142449773396 -88.2123307596082 172.00000019986857
    vertex 33.57923767528602 -88.04195989105354 170.0000001998686
    vertex 32.28514244977342 -88.2123307596082 170.00000019986857
  endloop
endfacet
facet normal -0.13052619222005557 0.99144486137381 -3.3526588471893e-29
  outer loop
    vertex 33.57923767528602 -88.04195989105354 170.0000001998686
    vertex 32.285142449773396 -88.2123307596082 172.00000019986857
    vertex 33.57923767528601 -88.04195989105354 172.00000019986857
  endloop
endfacet
facet normal 0.6087614290087231 0.7933533402912334 6.815605074656184e-15
  outer loop
    vertex 30.600487647528393 -96.02070991881111 170.0000001998686
    vertex 31.01914876237922 -96.34195989105353 172.00000019986857
    vertex 31.01914876237924 -96.34195989105353 170.00000019986857
  endloop
endfacet
facet normal 0.6087614290087231 0.7933533402912334 6.815605074656184e-15
  outer loop
    vertex 31.01914876237922 -96.34195989105353 172.00000019986857
    vertex 30.600487647528393 -96.02070991881111 170.0000001998686
    vertex 30.600487647528375 -96.02070991881111 172.00000019986857
  endloop
endfacet
facet normal 0.7933533402912359 -0.6087614290087195 6.815605074656166e-15
  outer loop
    vertex 37.11477158121875 -96.57749379698627 172.00000019986857
    vertex 37.90936469420822 -95.54195989105354 170.00000019986862
    vertex 37.9093646942082 -95.54195989105354 172.00000019986862
  endloop
endfacet
facet normal 0.7933533402912359 -0.6087614290087195 6.815605074656166e-15
  outer loop
    vertex 37.90936469420822 -95.54195989105354 170.00000019986862
    vertex 37.11477158121875 -96.57749379698627 172.00000019986857
    vertex 37.11477158121876 -96.57749379698627 170.0000001998686
  endloop
endfacet
facet normal -9.556260536891128e-15 -1.2581055672775904e-15 1.0
  outer loop
    vertex 38.40886680673135 -91.74786466554092 172.00000019986862
    vertex 38.40886680673135 -94.33605511656614 172.00000019986862
    vertex 38.57923767528601 -93.04195989105354 172.00000019986862
  endloop
endfacet
facet normal -9.556260536891128e-15 -1.2581055672775904e-15 1.0
  outer loop
    vertex 38.40886680673135 -94.33605511656614 172.00000019986862
    vertex 38.40886680673135 -91.74786466554092 172.00000019986862
    vertex 37.9093646942082 -90.54195989105352 172.00000019986862
  endloop
endfacet
facet normal -9.556260536891128e-15 -1.2581055672775904e-15 1.0
  outer loop
    vertex 38.40886680673135 -94.33605511656614 172.00000019986862
    vertex 37.9093646942082 -90.54195989105352 172.00000019986862
    vertex 37.9093646942082 -95.54195989105354 172.00000019986862
  endloop
endfacet
facet normal -9.556260536891128e-15 -1.2581055672775904e-15 1.0
  outer loop
    vertex 37.9093646942082 -95.54195989105354 172.00000019986862
    vertex 37.9093646942082 -90.54195989105352 172.00000019986862
    vertex 37.791826363460046 -93.04195989105354 172.00000019986865
  endloop
endfacet
facet normal -9.556260536891128e-15 -1.2581055672775904e-15 1.0
  outer loop
    vertex 37.791826363460046 -93.04195989105354 172.00000019986865
    vertex 37.9093646942082 -90.54195989105352 172.00000019986862
    vertex 37.64828588472649 -91.95166170937064 172.00000019986865
  endloop
endfacet
facet normal -9.556260536891128e-15 -1.2581055672775904e-15 1.0
  outer loop
    vertex 37.64828588472649 -91.95166170937064 172.00000019986865
    vertex 37.9093646942082 -90.54195989105352 172.00000019986862
    vertex 37.11477158121875 -89.5064259851208 172.00000019986862
  endloop
endfacet
facet normal -9.556260536891128e-15 -1.2581055672775904e-15 1.0
  outer loop
    vertex 37.64828588472649 -91.95166170937064 172.00000019986865
    vertex 37.11477158121875 -89.5064259851208 172.00000019986862
    vertex 37.227446494939684 -90.9356655469665 172.00000019986865
  endloop
endfacet
facet normal -9.556260536891128e-15 -1.2581055672775904e-15 1.0
  outer loop
    vertex 37.227446494939684 -90.9356655469665 172.00000019986865
    vertex 37.11477158121875 -89.5064259851208 172.00000019986862
    vertex 36.557987703043636 -90.06320986329595 172.00000019986862
  endloop
endfacet
facet normal -9.556260536891128e-15 -1.2581055672775904e-15 1.0
  outer loop
    vertex 36.557987703043636 -90.06320986329595 172.00000019986862
    vertex 37.11477158121875 -89.5064259851208 172.00000019986862
    vertex 36.079237675286 -88.71183287213134 172.00000019986857
  endloop
endfacet
facet normal -9.556260536891128e-15 -1.2581055672775904e-15 1.0
  outer loop
    vertex 36.557987703043636 -90.06320986329595 172.00000019986862
    vertex 36.079237675286 -88.71183287213134 172.00000019986857
    vertex 36.139326588192795 -89.74195989105354 172.00000019986862
  endloop
endfacet
facet normal -9.556260536891128e-15 -1.2581055672775904e-15 1.0
  outer loop
    vertex 36.139326588192795 -89.74195989105354 172.00000019986862
    vertex 36.079237675286 -88.71183287213134 172.00000019986857
    vertex 31.01914876237922 -89.74195989105354 172.00000019986857
  endloop
endfacet
facet normal -9.556260536891128e-15 -1.2581055672775904e-15 1.0
  outer loop
    vertex 31.01914876237922 -89.74195989105354 172.00000019986857
    vertex 36.079237675286 -88.71183287213134 172.00000019986857
    vertex 34.87333290079861 -88.2123307596082 172.0000001998686
  endloop
endfacet
facet normal -9.556260536891128e-15 -1.2581055672775904e-15 1.0
  outer loop
    vertex 31.01914876237922 -89.74195989105354 172.00000019986857
    vertex 34.87333290079861 -88.2123307596082 172.0000001998686
    vertex 33.57923767528601 -88.04195989105354 172.00000019986857
  endloop
endfacet
facet normal -9.556260536891128e-15 -1.2581055672775904e-15 1.0
  outer loop
    vertex 31.01914876237922 -89.74195989105354 172.00000019986857
    vertex 33.57923767528601 -88.04195989105354 172.00000019986857
    vertex 32.285142449773396 -88.2123307596082 172.00000019986857
  endloop
endfacet
facet normal -9.556260536891128e-15 -1.2581055672775904e-15 1.0
  outer loop
    vertex 31.01914876237922 -89.74195989105354 172.00000019986857
    vertex 32.285142449773396 -88.2123307596082 172.00000019986857
    vertex 31.079237675286006 -88.71183287213134 172.00000019986857
  endloop
endfacet
facet normal -9.556260536891128e-15 -1.2581055672775904e-15 1.0
  outer loop
    vertex 31.01914876237922 -89.74195989105354 172.00000019986857
    vertex 31.079237675286006 -88.71183287213134 172.00000019986857
    vertex 30.043703769353264 -89.5064259851208 172.00000019986857
  endloop
endfacet
facet normal -9.556260536891128e-15 -1.2581055672775904e-15 1.0
  outer loop
    vertex 31.01914876237922 -89.74195989105354 172.00000019986857
    vertex 30.043703769353264 -89.5064259851208 172.00000019986857
    vertex 30.600487647528375 -90.06320986329594 172.00000019986857
  endloop
endfacet
facet normal -9.556260536891128e-15 -1.2581055672775904e-15 1.0
  outer loop
    vertex 30.600487647528375 -90.06320986329594 172.00000019986857
    vertex 30.043703769353264 -89.5064259851208 172.00000019986857
    vertex 29.931028855632327 -90.93566554696649 172.00000019986857
  endloop
endfacet
facet normal -9.556260536891128e-15 -1.2581055672775904e-15 1.0
  outer loop
    vertex 29.931028855632327 -90.93566554696649 172.00000019986857
    vertex 30.043703769353264 -89.5064259851208 172.00000019986857
    vertex 29.24911065636381 -90.54195989105354 172.00000019986854
  endloop
endfacet
facet normal -9.556260536891128e-15 -1.2581055672775904e-15 1.0
  outer loop
    vertex 29.931028855632327 -90.93566554696649 172.00000019986857
    vertex 29.24911065636381 -90.54195989105354 172.00000019986854
    vertex 29.510189465845517 -91.95166170937063 172.00000019986857
  endloop
endfacet
facet normal -9.556260536891128e-15 -1.2581055672775904e-15 1.0
  outer loop
    vertex 29.510189465845517 -91.95166170937063 172.00000019986857
    vertex 29.24911065636381 -90.54195989105354 172.00000019986854
    vertex 29.366648987111965 -93.04195989105354 172.00000019986857
  endloop
endfacet
facet normal -9.556260536891128e-15 -1.2581055672775904e-15 1.0
  outer loop
    vertex 37.9093646942082 -95.54195989105354 172.00000019986862
    vertex 37.6482858847265 -94.13225807273643 172.00000019986865
    vertex 37.11477158121875 -96.57749379698627 172.00000019986857
  endloop
endfacet
facet normal -9.556260536891128e-15 -1.2581055672775904e-15 1.0
  outer loop
    vertex 37.6482858847265 -94.13225807273643 172.00000019986865
    vertex 37.9093646942082 -95.54195989105354 172.00000019986862
    vertex 37.791826363460046 -93.04195989105354 172.00000019986865
  endloop
endfacet
facet normal -9.556260536891128e-15 -1.2581055672775904e-15 1.0
  outer loop
    vertex 37.11477158121875 -96.57749379698627 172.00000019986857
    vertex 37.6482858847265 -94.13225807273643 172.00000019986865
    vertex 37.227446494939684 -95.14825423514057 172.00000019986862
  endloop
endfacet
facet normal -9.556260536891128e-15 -1.2581055672775904e-15 1.0
  outer loop
    vertex 37.11477158121875 -96.57749379698627 172.00000019986857
    vertex 37.227446494939684 -95.14825423514057 172.00000019986862
    vertex 36.557987703043636 -96.02070991881112 172.00000019986865
  endloop
endfacet
facet normal -9.556260536891128e-15 -1.2581055672775904e-15 1.0
  outer loop
    vertex 37.11477158121875 -96.57749379698627 172.00000019986857
    vertex 36.557987703043636 -96.02070991881112 172.00000019986865
    vertex 36.07923767528601 -97.37208690997572 172.0000001998686
  endloop
endfacet
facet normal -9.556260536891128e-15 -1.2581055672775904e-15 1.0
  outer loop
    vertex 36.07923767528601 -97.37208690997572 172.0000001998686
    vertex 36.557987703043636 -96.02070991881112 172.00000019986865
    vertex 36.139326588192795 -96.34195989105353 172.00000019986862
  endloop
endfacet
facet normal -9.556260536891128e-15 -1.2581055672775904e-15 1.0
  outer loop
    vertex 36.07923767528601 -97.37208690997572 172.0000001998686
    vertex 36.139326588192795 -96.34195989105353 172.00000019986862
    vertex 31.01914876237922 -96.34195989105353 172.00000019986857
  endloop
endfacet
facet normal -9.556260536891128e-15 -1.2581055672775904e-15 1.0
  outer loop
    vertex 36.07923767528601 -97.37208690997572 172.0000001998686
    vertex 31.01914876237922 -96.34195989105353 172.00000019986857
    vertex 34.873332900798616 -97.87158902249887 172.00000019986857
  endloop
endfacet
facet normal -9.556260536891128e-15 -1.2581055672775904e-15 1.0
  outer loop
    vertex 34.873332900798616 -97.87158902249887 172.00000019986857
    vertex 31.01914876237922 -96.34195989105353 172.00000019986857
    vertex 33.57923767528601 -98.04195989105354 172.00000019986857
  endloop
endfacet
facet normal -9.556260536891128e-15 -1.2581055672775904e-15 1.0
  outer loop
    vertex 33.57923767528601 -98.04195989105354 172.00000019986857
    vertex 31.01914876237922 -96.34195989105353 172.00000019986857
    vertex 32.2851424497734 -97.87158902249887 172.00000019986857
  endloop
endfacet
facet normal -9.556260536891128e-15 -1.2581055672775904e-15 1.0
  outer loop
    vertex 32.2851424497734 -97.87158902249887 172.00000019986857
    vertex 31.01914876237922 -96.34195989105353 172.00000019986857
    vertex 31.079237675286006 -97.37208690997572 172.00000019986857
  endloop
endfacet
facet normal -9.556260536891128e-15 -1.2581055672775904e-15 1.0
  outer loop
    vertex 31.079237675286006 -97.37208690997572 172.00000019986857
    vertex 31.01914876237922 -96.34195989105353 172.00000019986857
    vertex 30.043703769353264 -96.57749379698627 172.00000019986854
  endloop
endfacet
facet normal -9.556260536891128e-15 -1.2581055672775904e-15 1.0
  outer loop
    vertex 30.043703769353264 -96.57749379698627 172.00000019986854
    vertex 31.01914876237922 -96.34195989105353 172.00000019986857
    vertex 30.600487647528375 -96.02070991881111 172.00000019986857
  endloop
endfacet
facet normal -9.556260536891128e-15 -1.2581055672775904e-15 1.0
  outer loop
    vertex 30.043703769353264 -96.57749379698627 172.00000019986854
    vertex 30.600487647528375 -96.02070991881111 172.00000019986857
    vertex 29.931028855632327 -95.14825423514057 172.00000019986857
  endloop
endfacet
facet normal -9.556260536891128e-15 -1.2581055672775904e-15 1.0
  outer loop
    vertex 30.043703769353264 -96.57749379698627 172.00000019986854
    vertex 29.931028855632327 -95.14825423514057 172.00000019986857
    vertex 29.24911065636381 -95.54195989105354 172.00000019986854
  endloop
endfacet
facet normal -9.556260536891128e-15 -1.2581055672775904e-15 1.0
  outer loop
    vertex 29.24911065636381 -95.54195989105354 172.00000019986854
    vertex 29.931028855632327 -95.14825423514057 172.00000019986857
    vertex 29.510189465845524 -94.13225807273643 172.00000019986857
  endloop
endfacet
facet normal -9.556260536891128e-15 -1.2581055672775904e-15 1.0
  outer loop
    vertex 29.24911065636381 -95.54195989105354 172.00000019986854
    vertex 29.510189465845524 -94.13225807273643 172.00000019986857
    vertex 29.366648987111965 -93.04195989105354 172.00000019986857
  endloop
endfacet
facet normal -9.556260536891128e-15 -1.2581055672775904e-15 1.0
  outer loop
    vertex 29.24911065636381 -95.54195989105354 172.00000019986854
    vertex 29.366648987111965 -93.04195989105354 172.00000019986857
    vertex 29.24911065636381 -90.54195989105354 172.00000019986854
  endloop
endfacet
facet normal -9.556260536891128e-15 -1.2581055672775904e-15 1.0
  outer loop
    vertex 29.24911065636381 -95.54195989105354 172.00000019986854
    vertex 29.24911065636381 -90.54195989105354 172.00000019986854
    vertex 28.74960854384066 -91.74786466554093 172.00000019986854
  endloop
endfacet
facet normal -9.556260536891128e-15 -1.2581055672775904e-15 1.0
  outer loop
    vertex 29.24911065636381 -95.54195989105354 172.00000019986854
    vertex 28.74960854384066 -91.74786466554093 172.00000019986854
    vertex 28.74960854384066 -94.33605511656614 172.0000001998685
  endloop
endfacet
facet normal -9.556260536891128e-15 -1.2581055672775904e-15 1.0
  outer loop
    vertex 28.74960854384066 -94.33605511656614 172.0000001998685
    vertex 28.74960854384066 -91.74786466554093 172.00000019986854
    vertex 28.579237675286006 -93.04195989105354 172.0000001998685
  endloop
endfacet
facet normal -0.7933533402912359 0.6087614290087195 -6.815605074656166e-15
  outer loop
    vertex 29.24911065636383 -90.54195989105354 170.00000019986854
    vertex 30.043703769353264 -89.5064259851208 172.00000019986857
    vertex 30.043703769353282 -89.5064259851208 170.00000019986857
  endloop
endfacet
facet normal -0.7933533402912359 0.6087614290087195 -6.815605074656166e-15
  outer loop
    vertex 30.043703769353264 -89.5064259851208 172.00000019986857
    vertex 29.24911065636383 -90.54195989105354 170.00000019986854
    vertex 29.24911065636381 -90.54195989105354 172.00000019986854
  endloop
endfacet
facet normal 0.9914448613738106 0.13052619222005074 9.638721132357631e-15
  outer loop
    vertex 38.57923767528601 -93.04195989105354 172.00000019986862
    vertex 38.40886680673137 -91.74786466554092 170.00000019986862
    vertex 38.40886680673135 -91.74786466554092 172.00000019986862
  endloop
endfacet
facet normal 0.9914448613738106 0.13052619222005074 9.638721132357631e-15
  outer loop
    vertex 38.40886680673137 -91.74786466554092 170.00000019986862
    vertex 38.57923767528601 -93.04195989105354 172.00000019986862
    vertex 38.57923767528602 -93.04195989105354 170.00000019986862
  endloop
endfacet
facet normal 0.7933533402912344 0.6087614290087215 8.347377360615615e-15
  outer loop
    vertex 30.600487647528375 -96.02070991881111 172.00000019986857
    vertex 29.931028855632345 -95.14825423514057 170.0000001998686
    vertex 29.931028855632327 -95.14825423514057 172.00000019986857
  endloop
endfacet
facet normal 0.7933533402912344 0.6087614290087215 8.347377360615615e-15
  outer loop
    vertex 29.931028855632345 -95.14825423514057 170.0000001998686
    vertex 30.600487647528375 -96.02070991881111 172.00000019986857
    vertex 30.600487647528393 -96.02070991881111 170.0000001998686
  endloop
endfacet
facet normal 0.13052619222004763 0.9914448613738109 2.494684599486257e-15
  outer loop
    vertex 33.57923767528601 -88.04195989105354 172.00000019986857
    vertex 34.87333290079862 -88.2123307596082 170.0000001998686
    vertex 33.57923767528602 -88.04195989105354 170.0000001998686
  endloop
endfacet
facet normal 0.13052619222004763 0.9914448613738109 2.494684599486257e-15
  outer loop
    vertex 34.87333290079862 -88.2123307596082 170.0000001998686
    vertex 33.57923767528601 -88.04195989105354 172.00000019986857
    vertex 34.87333290079861 -88.2123307596082 172.0000001998686
  endloop
endfacet
endsolid Design - Rolled
