solid Design - Rolled
facet normal -1.0 3.7672035168811823e-11 -5.544899146052807e-10
  outer loop
    vertex 81.50000064728361 218.68377923039736 64.06507843052044
    vertex 81.50000064781983 219.3837792303974 63.06507843052045
    vertex 81.50000065520933 218.6837792333925 48.86507844753367
  endloop
endfacet
facet normal -1.0 3.7672035168811823e-11 -5.544899146052807e-10
  outer loop
    vertex 81.50000064781983 219.3837792303974 63.06507843052045
    vertex 81.50000064728361 218.68377923039736 64.06507843052044
    vertex 81.50000064719842 223.3837792204095 64.06507843052044
  endloop
endfacet
facet normal -1.0 3.7672035168811823e-11 -5.544899146052807e-10
  outer loop
    vertex 81.50000064781983 219.3837792303974 63.06507843052045
    vertex 81.50000064719842 223.3837792204095 64.06507843052044
    vertex 81.50000064785893 222.38377922233025 63.06507843052045
  endloop
endfacet
facet normal -1.0 3.7672035168811823e-11 -5.544899146052807e-10
  outer loop
    vertex 81.50000064785893 222.38377922233025 63.06507843052045
    vertex 81.50000064719842 223.3837792204095 64.06507843052044
    vertex 81.50000065055215 222.38377923039738 58.865078430520455
  endloop
endfacet
facet normal -1.0 3.7672035168811823e-11 -5.544899146052807e-10
  outer loop
    vertex 81.50000065055215 222.38377923039738 58.865078430520455
    vertex 81.50000064719842 223.3837792204095 64.06507843052044
    vertex 81.50000065207263 222.72452097206107 56.27688798009484
  endloop
endfacet
facet normal -1.0 3.7672035168811823e-11 -5.544899146052807e-10
  outer loop
    vertex 81.50000065207263 222.72452097206107 56.27688798009484
    vertex 81.50000064719842 223.3837792204095 64.06507843052044
    vertex 81.50000065348948 223.72352520135138 53.86507843287798
  endloop
endfacet
facet normal -1.0 3.7672035168811823e-11 -5.544899146052807e-10
  outer loop
    vertex 81.50000065348948 223.72352520135138 53.86507843287798
    vertex 81.50000064719842 223.3837792204095 64.06507843052044
    vertex 81.50000065642679 234.3837792479942 48.865078451636606
  endloop
endfacet
facet normal -1.0 3.7672035168811823e-11 -5.544899146052807e-10
  outer loop
    vertex 81.50000065348948 223.72352520135138 53.86507843287798
    vertex 81.50000065642679 234.3837792479942 48.865078451636606
    vertex 81.50000065470617 225.3127114309747 51.79401062380896
  endloop
endfacet
facet normal -1.0 3.7672035168811823e-11 -5.544899146052807e-10
  outer loop
    vertex 81.50000065470617 225.3127114309747 51.79401062380896
    vertex 81.50000065642679 234.3837792479942 48.865078451636606
    vertex 81.5000006555598 226.0637499482533 51.21771850258913
  endloop
endfacet
facet normal -1.0 3.7672035168811823e-11 -5.544899146052807e-10
  outer loop
    vertex 81.5000006555598 226.0637499482533 51.21771850258913
    vertex 81.50000065642679 234.3837792479942 48.865078451636606
    vertex 81.50000065563974 227.38377924563667 50.20482440147446
  endloop
endfacet
facet normal -1.0 3.7672035168811823e-11 -5.544899146052807e-10
  outer loop
    vertex 81.50000065563974 227.38377924563667 50.20482440147446
    vertex 81.50000065642679 234.3837792479942 48.865078451636606
    vertex 81.50000065622665 229.7955887963694 49.20582018067217
  endloop
endfacet
facet normal -1.0 3.7672035168811823e-11 -5.544899146052807e-10
  outer loop
    vertex 81.50000065622665 229.7955887963694 49.20582018067217
    vertex 81.50000065642679 234.3837792479942 48.865078451636606
    vertex 81.50000065642679 232.3837792479942 48.865078448117245
  endloop
endfacet
facet normal -1.0 3.7672035168811823e-11 -5.544899146052807e-10
  outer loop
    vertex 81.50000065520933 218.6837792333925 48.86507844753367
    vertex 81.50000065370595 222.9418604690183 53.413784087415465
    vertex 81.50000065603581 225.76374994825335 48.86507844574031
  endloop
endfacet
facet normal -1.0 3.7672035168811823e-11 -5.544899146052807e-10
  outer loop
    vertex 81.50000065370595 222.9418604690183 53.413784087415465
    vertex 81.50000065520933 218.6837792333925 48.86507844753367
    vertex 81.50000065088031 219.3837792303974 60.565078430671285
  endloop
endfacet
facet normal -1.0 3.7672035168811823e-11 -5.544899146052807e-10
  outer loop
    vertex 81.50000065088031 219.3837792303974 60.565078430671285
    vertex 81.50000065520933 218.6837792333925 48.86507844753367
    vertex 81.50000064781983 219.3837792303974 63.06507843052045
  endloop
endfacet
facet normal -1.0 3.7672035168811823e-11 -5.544899146052807e-10
  outer loop
    vertex 81.50000065370595 222.9418604690183 53.413784087415465
    vertex 81.50000065088031 219.3837792303974 60.565078430671285
    vertex 81.50000065216686 221.85268724804843 56.043280836167185
  endloop
endfacet
facet normal -1.0 3.7672035168811823e-11 -5.544899146052807e-10
  outer loop
    vertex 81.50000065216686 221.85268724804843 56.043280836167185
    vertex 81.50000065088031 219.3837792303974 60.565078430671285
    vertex 81.50000065051306 221.48377923039737 58.845415390354844
  endloop
endfacet
facet normal -1.0 3.7672035168811823e-11 -5.544899146052807e-10
  outer loop
    vertex 81.50000065051306 221.48377923039737 58.845415390354844
    vertex 81.50000065088031 219.3837792303974 60.565078430671285
    vertex 81.5000006506957 221.48377923039737 60.56507842961547
  endloop
endfacet
facet normal -1.0 3.7672035168811823e-11 -5.544899146052807e-10
  outer loop
    vertex 81.50000065603581 225.76374994825335 48.86507844574031
    vertex 81.50000065370595 222.9418604690183 53.413784087415465
    vertex 81.50000065503019 224.67448485006764 51.15578404065575
  endloop
endfacet
facet normal -1.0 3.7672035168811823e-11 -5.544899146052807e-10
  outer loop
    vertex 81.50000065603581 225.76374994825335 48.86507844574031
    vertex 81.50000065503019 224.67448485006764 51.15578404065575
    vertex 81.50000065578779 225.76374994825335 50.31996153679967
  endloop
endfacet
facet normal 1.0 -3.7672035168811823e-11 5.544899146052807e-10
  outer loop
    vertex 91.50000064728361 218.68377923002066 64.06507843606535
    vertex 91.50000064781983 219.3837792300207 63.06507843606535
    vertex 91.50000064719843 223.3837792200328 64.06507843606535
  endloop
endfacet
facet normal 1.0 -3.7672035168811823e-11 5.544899146052807e-10
  outer loop
    vertex 91.50000064781983 219.3837792300207 63.06507843606535
    vertex 91.50000064728361 218.68377923002066 64.06507843606535
    vertex 91.50000065520935 218.6837792330158 48.86507845307857
  endloop
endfacet
facet normal 1.0 -3.7672035168811823e-11 5.544899146052807e-10
  outer loop
    vertex 91.50000064781983 219.3837792300207 63.06507843606535
    vertex 91.50000065520935 218.6837792330158 48.86507845307857
    vertex 91.50000065088031 219.3837792300207 60.56507843621619
  endloop
endfacet
facet normal 1.0 -3.7672035168811823e-11 5.544899146052807e-10
  outer loop
    vertex 91.50000064719843 223.3837792200328 64.06507843606535
    vertex 91.50000064781983 219.3837792300207 63.06507843606535
    vertex 91.50000064785893 222.38377922195355 63.06507843606535
  endloop
endfacet
facet normal 1.0 -3.7672035168811823e-11 5.544899146052807e-10
  outer loop
    vertex 91.50000064719843 223.3837792200328 64.06507843606535
    vertex 91.50000064785893 222.38377922195355 63.06507843606535
    vertex 91.50000065055215 222.38377923002068 58.86507843606535
  endloop
endfacet
facet normal 1.0 -3.7672035168811823e-11 5.544899146052807e-10
  outer loop
    vertex 91.50000064719843 223.3837792200328 64.06507843606535
    vertex 91.50000065055215 222.38377923002068 58.86507843606535
    vertex 91.50000065207264 222.72452097168437 56.276887985639746
  endloop
endfacet
facet normal 1.0 -3.7672035168811823e-11 5.544899146052807e-10
  outer loop
    vertex 91.50000064719843 223.3837792200328 64.06507843606535
    vertex 91.50000065207264 222.72452097168437 56.276887985639746
    vertex 91.50000065348948 223.72352520097468 53.86507843842288
  endloop
endfacet
facet normal 1.0 -3.7672035168811823e-11 5.544899146052807e-10
  outer loop
    vertex 91.50000064719843 223.3837792200328 64.06507843606535
    vertex 91.50000065348948 223.72352520097468 53.86507843842288
    vertex 91.5000006564268 234.3837792476175 48.86507845718151
  endloop
endfacet
facet normal 1.0 -3.7672035168811823e-11 5.544899146052807e-10
  outer loop
    vertex 91.5000006564268 234.3837792476175 48.86507845718151
    vertex 91.50000065348948 223.72352520097468 53.86507843842288
    vertex 91.50000065470617 225.312711430598 51.794010629353856
  endloop
endfacet
facet normal 1.0 -3.7672035168811823e-11 5.544899146052807e-10
  outer loop
    vertex 91.5000006564268 234.3837792476175 48.86507845718151
    vertex 91.50000065470617 225.312711430598 51.794010629353856
    vertex 91.50000065555982 226.0637499478766 51.21771850813403
  endloop
endfacet
facet normal 1.0 -3.7672035168811823e-11 5.544899146052807e-10
  outer loop
    vertex 91.5000006564268 234.3837792476175 48.86507845718151
    vertex 91.50000065555982 226.0637499478766 51.21771850813403
    vertex 91.50000065563974 227.38377924525997 50.20482440701936
  endloop
endfacet
facet normal 1.0 -3.7672035168811823e-11 5.544899146052807e-10
  outer loop
    vertex 91.5000006564268 234.3837792476175 48.86507845718151
    vertex 91.50000065563974 227.38377924525997 50.20482440701936
    vertex 91.50000065622665 229.7955887959927 49.20582018621707
  endloop
endfacet
facet normal 1.0 -3.7672035168811823e-11 5.544899146052807e-10
  outer loop
    vertex 91.5000006564268 234.3837792476175 48.86507845718151
    vertex 91.50000065622665 229.7955887959927 49.20582018621707
    vertex 91.5000006564268 232.3837792476175 48.86507845366214
  endloop
endfacet
facet normal 1.0 -3.7672035168811823e-11 5.544899146052807e-10
  outer loop
    vertex 91.50000065520935 218.6837792330158 48.86507845307857
    vertex 91.50000065370597 222.9418604686416 53.41378409296037
    vertex 91.50000065088031 219.3837792300207 60.56507843621619
  endloop
endfacet
facet normal 1.0 -3.7672035168811823e-11 5.544899146052807e-10
  outer loop
    vertex 91.50000065370597 222.9418604686416 53.41378409296037
    vertex 91.50000065520935 218.6837792330158 48.86507845307857
    vertex 91.50000065603582 225.76374994787665 48.86507845128521
  endloop
endfacet
facet normal 1.0 -3.7672035168811823e-11 5.544899146052807e-10
  outer loop
    vertex 91.50000065088031 219.3837792300207 60.56507843621619
    vertex 91.50000065370597 222.9418604686416 53.41378409296037
    vertex 91.50000065216688 221.85268724767172 56.04328084171209
  endloop
endfacet
facet normal 1.0 -3.7672035168811823e-11 5.544899146052807e-10
  outer loop
    vertex 91.50000065088031 219.3837792300207 60.56507843621619
    vertex 91.50000065216688 221.85268724767172 56.04328084171209
    vertex 91.50000065051306 221.48377923002067 58.84541539589975
  endloop
endfacet
facet normal 1.0 -3.7672035168811823e-11 5.544899146052807e-10
  outer loop
    vertex 91.50000065370597 222.9418604686416 53.41378409296037
    vertex 91.50000065603582 225.76374994787665 48.86507845128521
    vertex 91.50000065503019 224.67448484969094 51.15578404620066
  endloop
endfacet
facet normal 1.0 -3.7672035168811823e-11 5.544899146052807e-10
  outer loop
    vertex 91.50000065503019 224.67448484969094 51.15578404620066
    vertex 91.50000065603582 225.76374994787665 48.86507845128521
    vertex 91.5000006557878 225.76374994787665 50.319961542344565
  endloop
endfacet
facet normal 1.0 -3.7672035168811823e-11 5.544899146052807e-10
  outer loop
    vertex 91.50000065069571 221.48377923002067 60.565078435160366
    vertex 91.50000065088031 219.3837792300207 60.56507843621619
    vertex 91.50000065051306 221.48377923002067 58.84541539589975
  endloop
endfacet
facet normal -3.7672035059551036e-11 -1.0 -1.9704738449755937e-10
  outer loop
    vertex 91.50000065520935 218.6837792330158 48.86507845307857
    vertex 81.50000064728361 218.68377923039736 64.06507843052044
    vertex 81.50000065520933 218.6837792333925 48.86507844753367
  endloop
endfacet
facet normal -3.7672035059551036e-11 -1.0 -1.9704738449755937e-10
  outer loop
    vertex 81.50000064728361 218.68377923039736 64.06507843052044
    vertex 91.50000065520935 218.6837792330158 48.86507845307857
    vertex 91.50000064728361 218.68377923002066 64.06507843606535
  endloop
endfacet
facet normal -3.502571246826468e-11 0.9914448611441266 0.13052619396467324
  outer loop
    vertex 81.50000065051306 221.48377923039737 58.845415390354844
    vertex 91.50000065216688 221.85268724767172 56.04328084171209
    vertex 81.50000065216686 221.85268724804843 56.043280836167185
  endloop
endfacet
facet normal -3.502571246826468e-11 0.9914448611441266 0.13052619396467324
  outer loop
    vertex 91.50000065216688 221.85268724767172 56.04328084171209
    vertex 81.50000065051306 221.48377923039737 58.845415390354844
    vertex 91.50000065051306 221.48377923002067 58.84541539589975
  endloop
endfacet
facet normal -5.544899145863405e-10 5.027704812835449e-10 1.0
  outer loop
    vertex 81.50000065088031 219.3837792303974 60.565078430671285
    vertex 91.50000065069571 221.48377923002067 60.565078435160366
    vertex 81.5000006506957 221.48377923039737 60.56507842961547
  endloop
endfacet
facet normal -5.544899145863405e-10 5.027704812835449e-10 1.0
  outer loop
    vertex 91.50000065069571 221.48377923002067 60.565078435160366
    vertex 81.50000065088031 219.3837792303974 60.565078430671285
    vertex 91.50000065088031 219.3837792300207 60.56507843621619
  endloop
endfacet
facet normal 5.544899146052808e-10 -7.226115417061707e-21 -1.0
  outer loop
    vertex 81.50000064785893 222.38377922233025 63.06507843052045
    vertex 91.50000064781983 219.3837792300207 63.06507843606535
    vertex 81.50000064781983 219.3837792303974 63.06507843052045
  endloop
endfacet
facet normal 5.544899146052808e-10 -7.226115417061707e-21 -1.0
  outer loop
    vertex 91.50000064781983 219.3837792300207 63.06507843606535
    vertex 81.50000064785893 222.38377922233025 63.06507843052045
    vertex 91.50000064785893 222.38377922195355 63.06507843606535
  endloop
endfacet
facet normal 5.544899145957384e-10 -2.5330095239000183e-10 -1.0
  outer loop
    vertex 81.50000065603581 225.76374994825335 48.86507844574031
    vertex 91.50000065520935 218.6837792330158 48.86507845307857
    vertex 81.50000065520933 218.6837792333925 48.86507844753367
  endloop
endfacet
facet normal 5.544899145957384e-10 -2.5330095239000183e-10 -1.0
  outer loop
    vertex 91.50000065520935 218.6837792330158 48.86507845307857
    vertex 81.50000065603581 225.76374994825335 48.86507844574031
    vertex 91.50000065603582 225.76374994787665 48.86507845128521
  endloop
endfacet
facet normal -4.169731445934459e-10 0.6087614276126687 0.7933533413624634
  outer loop
    vertex 91.50000065503019 224.67448484969094 51.15578404620066
    vertex 81.50000065578779 225.76374994825335 50.31996153679967
    vertex 81.50000065503019 224.67448485006764 51.15578404065575
  endloop
endfacet
facet normal -4.169731445934459e-10 0.6087614276126687 0.7933533413624634
  outer loop
    vertex 81.50000065578779 225.76374994825335 50.31996153679967
    vertex 91.50000065503019 224.67448484969094 51.15578404620066
    vertex 91.5000006557878 225.76374994787665 50.319961542344565
  endloop
endfacet
facet normal 1.773896824192825e-10 -0.9238795318378876 -0.38268343399081894
  outer loop
    vertex 91.50000065348948 223.72352520097468 53.86507843842288
    vertex 81.50000065207263 222.72452097206107 56.27688798009484
    vertex 81.50000065348948 223.72352520135138 53.86507843287798
  endloop
endfacet
facet normal 1.773896824192825e-10 -0.9238795318378876 -0.38268343399081894
  outer loop
    vertex 81.50000065207263 222.72452097206107 56.27688798009484
    vertex 91.50000065348948 223.72352520097468 53.86507843842288
    vertex 91.50000065207264 222.72452097168437 56.276887985639746
  endloop
endfacet
facet normal 5.544899146715715e-10 1.7596816448417515e-09 -1.0
  outer loop
    vertex 91.5000006564268 234.3837792476175 48.86507845718151
    vertex 81.50000065642679 232.3837792479942 48.865078448117245
    vertex 81.50000065642679 234.3837792479942 48.865078451636606
  endloop
endfacet
facet normal 5.544899146715715e-10 1.7596816448417515e-09 -1.0
  outer loop
    vertex 81.50000065642679 232.3837792479942 48.865078448117245
    vertex 91.5000006564268 234.3837792476175 48.86507845718151
    vertex 91.5000006564268 232.3837792476175 48.86507845366214
  endloop
endfacet
facet normal -3.076648386637421e-10 0.7933533392200047 0.6087614304047753
  outer loop
    vertex 81.50000065370595 222.9418604690183 53.413784087415465
    vertex 91.50000065503019 224.67448484969094 51.15578404620066
    vertex 81.50000065503019 224.67448485006764 51.15578404065575
  endloop
endfacet
facet normal -3.076648386637421e-10 0.7933533392200047 0.6087614304047753
  outer loop
    vertex 91.50000065503019 224.67448484969094 51.15578404620066
    vertex 81.50000065370595 222.9418604690183 53.413784087415465
    vertex 91.50000065370597 222.9418604686416 53.41378409296037
  endloop
endfacet
facet normal 5.448289894083252e-10 -0.1305261904754243 -0.9914448616034951
  outer loop
    vertex 81.50000065642679 232.3837792479942 48.865078448117245
    vertex 91.50000065622665 229.7955887959927 49.20582018621707
    vertex 81.50000065622665 229.7955887963694 49.20582018067217
  endloop
endfacet
facet normal 5.448289894083252e-10 -0.1305261904754243 -0.9914448616034951
  outer loop
    vertex 91.50000065622665 229.7955887959927 49.20582018621707
    vertex 81.50000065642679 232.3837792479942 48.865078448117245
    vertex 91.5000006564268 232.3837792476175 48.86507845366214
  endloop
endfacet
facet normal 4.169731445934429e-10 -0.6087614276126753 -0.7933533413624584
  outer loop
    vertex 81.50000065563974 227.38377924563667 50.20482440147446
    vertex 91.50000065555982 226.0637499478766 51.21771850813403
    vertex 81.5000006555598 226.0637499482533 51.21771850258913
  endloop
endfacet
facet normal 4.169731445934429e-10 -0.6087614276126753 -0.7933533413624584
  outer loop
    vertex 91.50000065555982 226.0637499478766 51.21771850813403
    vertex 81.50000065563974 227.38377924563667 50.20482440147446
    vertex 91.50000065563974 227.38377924525997 50.20482440701936
  endloop
endfacet
facet normal -3.7672034103777364e-11 -1.0 -1.9207463133466416e-09
  outer loop
    vertex 91.50000065055215 222.38377923002068 58.86507843606535
    vertex 81.50000064785893 222.38377922233025 63.06507843052045
    vertex 81.50000065055215 222.38377923039738 58.865078430520455
  endloop
endfacet
facet normal -3.7672034103777364e-11 -1.0 -1.9207463133466416e-09
  outer loop
    vertex 81.50000064785893 222.38377922233025 63.06507843052045
    vertex 91.50000065055215 222.38377923002068 58.86507843606535
    vertex 91.50000064785893 222.38377922195355 63.06507843606535
  endloop
endfacet
facet normal 3.7672035168811823e-11 1.0 -4.0011069357291325e-21
  outer loop
    vertex 81.5000006506957 221.48377923039737 60.56507842961547
    vertex 91.50000065051306 221.48377923002067 58.84541539589975
    vertex 81.50000065051306 221.48377923039737 58.845415390354844
  endloop
endfacet
facet normal 3.7672035168811823e-11 1.0 -4.0011069357291325e-21
  outer loop
    vertex 91.50000065051306 221.48377923002067 58.84541539589975
    vertex 81.5000006506957 221.48377923039737 60.56507842961547
    vertex 91.50000065069571 221.48377923002067 60.565078435160366
  endloop
endfacet
facet normal -5.544899146052807e-10 -1.0049899374876895e-20 1.0
  outer loop
    vertex 81.50000064728361 218.68377923039736 64.06507843052044
    vertex 91.50000064719843 223.3837792200328 64.06507843606535
    vertex 81.50000064719842 223.3837792204095 64.06507843052044
  endloop
endfacet
facet normal -5.544899146052807e-10 -1.0049899374876895e-20 1.0
  outer loop
    vertex 91.50000064719843 223.3837792200328 64.06507843606535
    vertex 81.50000064728361 218.68377923039736 64.06507843052044
    vertex 91.50000064728361 218.68377923002066 64.06507843606535
  endloop
endfacet
facet normal 3.5025712468263404e-11 -0.991444861144127 -0.13052619396467097
  outer loop
    vertex 91.50000065207264 222.72452097168437 56.276887985639746
    vertex 81.50000065055215 222.38377923039738 58.865078430520455
    vertex 81.50000065207263 222.72452097206107 56.27688798009484
  endloop
endfacet
facet normal 3.5025712468263404e-11 -0.991444861144127 -0.13052619396467097
  outer loop
    vertex 81.50000065055215 222.38377923039738 58.865078430520455
    vertex 91.50000065207264 222.72452097168437 56.276887985639746
    vertex 91.50000065055215 222.38377923002068 58.86507843606535
  endloop
endfacet
facet normal 3.767203516881182e-11 1.0 6.4221530677086154e-21
  outer loop
    vertex 81.50000065578779 225.76374994825335 50.31996153679967
    vertex 91.50000065603582 225.76374994787665 48.86507845128521
    vertex 81.50000065603581 225.76374994825335 48.86507844574031
  endloop
endfacet
facet normal 3.767203516881182e-11 1.0 6.4221530677086154e-21
  outer loop
    vertex 91.50000065603582 225.76374994787665 48.86507845128521
    vertex 81.50000065578779 225.76374994825335 50.31996153679967
    vertex 91.5000006557878 225.76374994787665 50.319961542344565
  endloop
endfacet
facet normal 4.978654197998089e-10 -0.3826834307393584 -0.9238795331846867
  outer loop
    vertex 81.50000065622665 229.7955887963694 49.20582018067217
    vertex 91.50000065563974 227.38377924525997 50.20482440701936
    vertex 81.50000065563974 227.38377924563667 50.20482440147446
  endloop
endfacet
facet normal 4.978654197998089e-10 -0.3826834307393584 -0.9238795331846867
  outer loop
    vertex 91.50000065563974 227.38377924525997 50.20482440701936
    vertex 81.50000065622665 229.7955887963694 49.20582018067217
    vertex 91.50000065622665 229.7955887959927 49.20582018621707
  endloop
endfacet
facet normal -2.945613156139981e-10 0.810116693016197 0.5862686617042573
  outer loop
    vertex 81.50000064719842 223.3837792204095 64.06507843052044
    vertex 91.5000006564268 234.3837792476175 48.86507845718151
    vertex 81.50000065642679 234.3837792479942 48.865078451636606
  endloop
endfacet
facet normal -2.945613156139981e-10 0.810116693016197 0.5862686617042573
  outer loop
    vertex 91.5000006564268 234.3837792476175 48.86507845718151
    vertex 81.50000064719842 223.3837792204095 64.06507843052044
    vertex 91.50000064719843 223.3837792200328 64.06507843606535
  endloop
endfacet
facet normal -1.7738968241928517e-10 0.9238795318378858 0.3826834339908236
  outer loop
    vertex 81.50000065216686 221.85268724804843 56.043280836167185
    vertex 91.50000065370597 222.9418604686416 53.41378409296037
    vertex 81.50000065370595 222.9418604690183 53.413784087415465
  endloop
endfacet
facet normal -1.7738968241928517e-10 0.9238795318378858 0.3826834339908236
  outer loop
    vertex 91.50000065370597 222.9418604686416 53.41378409296037
    vertex 81.50000065216686 221.85268724804843 56.043280836167185
    vertex 91.50000065216688 221.85268724767172 56.04328084171209
  endloop
endfacet
facet normal 4.169731445934516e-10 -0.6087614276126567 -0.7933533413624728
  outer loop
    vertex 81.5000006555598 226.0637499482533 51.21771850258913
    vertex 91.50000065470617 225.312711430598 51.794010629353856
    vertex 81.50000065470617 225.3127114309747 51.79401062380896
  endloop
endfacet
facet normal 4.169731445934516e-10 -0.6087614276126567 -0.7933533413624728
  outer loop
    vertex 91.50000065470617 225.312711430598 51.794010629353856
    vertex 81.5000006555598 226.0637499482533 51.21771850258913
    vertex 91.50000065555982 226.0637499478766 51.21771850813403
  endloop
endfacet
facet normal 3.7672035168811823e-11 1.0 4.611774054870606e-20
  outer loop
    vertex 81.50000064781983 219.3837792303974 63.06507843052045
    vertex 91.50000065088031 219.3837792300207 60.56507843621619
    vertex 81.50000065088031 219.3837792303974 60.565078430671285
  endloop
endfacet
facet normal 3.7672035168811823e-11 1.0 4.611774054870606e-20
  outer loop
    vertex 91.50000065088031 219.3837792300207 60.56507843621619
    vertex 81.50000064781983 219.3837792303974 63.06507843052045
    vertex 91.50000064781983 219.3837792300207 63.06507843606535
  endloop
endfacet
facet normal 3.0766483866373687e-10 -0.7933533392200115 -0.6087614304047665
  outer loop
    vertex 91.50000065470617 225.312711430598 51.794010629353856
    vertex 81.50000065348948 223.72352520135138 53.86507843287798
    vertex 81.50000065470617 225.3127114309747 51.79401062380896
  endloop
endfacet
facet normal 3.0766483866373687e-10 -0.7933533392200115 -0.6087614304047665
  outer loop
    vertex 81.50000065348948 223.72352520135138 53.86507843287798
    vertex 91.50000065470617 225.312711430598 51.794010629353856
    vertex 91.50000065348948 223.72352520097468 53.86507843842288
  endloop
endfacet
endsolid Design - Rolled
