solid Design - Rolled
facet normal 1.1426128202684995e-09 1.0 -6.804413983711849e-11
  outer loop
    vertex 127.28778359586333 202.96876656258772 118.14999862698157
    vertex 125.08778359742234 202.96876656298596 118.1499986342112
    vertex 127.28778359679313 202.96876656258772 119.44999862698157
  endloop
endfacet
facet normal 1.1426128202684995e-09 1.0 -6.804413983711849e-11
  outer loop
    vertex 125.08778359755624 202.96876656490008 119.44999863619115
    vertex 127.28778359679313 202.96876656258772 119.44999862698157
    vertex 125.08778359742234 202.96876656298596 118.1499986342112
  endloop
endfacet
facet normal 6.261985214089977e-09 -0.32487799352177466 0.9457559353899218
  outer loop
    vertex 125.08778358849526 199.1843221253859 118.14999864503089
    vertex 127.28778359243474 199.18432212622255 118.14999862698157
    vertex 125.08778359755624 202.96876656490008 119.44999863619115
  endloop
endfacet
facet normal 6.261985214089977e-09 -0.32487799352177466 0.9457559353899218
  outer loop
    vertex 127.28778359679313 202.96876656258772 119.44999862698157
    vertex 125.08778359755624 202.96876656490008 119.44999863619115
    vertex 127.28778359243474 199.18432212622255 118.14999862698157
  endloop
endfacet
facet normal -2.1470274988808203e-09 0.3248779929122307 -0.945755935599307
  outer loop
    vertex 125.08778357774564 194.02550700108466 114.90170271211115
    vertex 125.08778359584615 197.5188403246478 116.10170270447506
    vertex 127.2877835769825 194.02550699877227 114.90170270290156
  endloop
endfacet
facet normal -2.1470274988808203e-09 0.3248779929122307 -0.945755935599307
  outer loop
    vertex 127.28778359403117 197.5188403246478 116.10170270290156
    vertex 127.2877835769825 194.02550699877227 114.90170270290156
    vertex 125.08778359584615 197.5188403246478 116.10170270447506
  endloop
endfacet
facet normal 2.1580254943106282e-09 0.3248779945752396 0.9457559350280444
  outer loop
    vertex 125.08778353236428 194.02550699660927 111.20292725602239
    vertex 127.28778353312745 194.02550699877227 111.2029272468128
    vertex 125.08778353865578 197.51884032464767 110.00292724838621
  endloop
endfacet
facet normal 2.1580254943106282e-09 0.3248779945752396 0.9457559350280444
  outer loop
    vertex 127.28778351607875 197.51884032464767 110.00292724681286
    vertex 125.08778353865578 197.51884032464767 110.00292724838621
    vertex 127.28778353312745 194.02550699877227 111.2029272468128
  endloop
endfacet
facet normal -6.2693344966391905e-09 -0.32487799395808087 -0.9457559352400456
  outer loop
    vertex 125.08778350259895 199.18432212705906 108.0512231889422
    vertex 125.08778351335708 202.96876656042468 106.75122318010241
    vertex 127.2877835184786 199.18432212622244 108.05122317089288
  endloop
endfacet
facet normal -6.2693344966391905e-09 -0.32487799395808087 -0.9457559352400456
  outer loop
    vertex 127.28778351412022 202.96876656258772 106.75122317089283
    vertex 127.2877835184786 199.18432212622244 108.05122317089288
    vertex 125.08778351335708 202.96876656042468 106.75122318010241
  endloop
endfacet
facet normal -1.1426020937963303e-09 1.0 -6.804574003500199e-11
  outer loop
    vertex 127.28778351412022 202.96876656258772 106.75122317089283
    vertex 125.08778351335708 202.96876656042468 106.75122318010241
    vertex 127.28778351504998 202.96876656258772 108.05122317089288
  endloop
endfacet
facet normal -1.1426020937963303e-09 1.0 -6.804574003500199e-11
  outer loop
    vertex 125.0877835397507 202.96876656233886 108.05122317812244
    vertex 127.28778351504998 202.96876656258772 108.05122317089288
    vertex 125.08778351335708 202.96876656042468 106.75122318010241
  endloop
endfacet
facet normal -4.863977325035608e-09 5.153703657423116e-11 -1.0
  outer loop
    vertex 125.08778349823073 206.2367246443218 108.05122318853601
    vertex 127.2877835877891 206.23672465071195 108.05122317089288
    vertex 125.0877835397507 202.96876656233886 108.05122317812244
  endloop
endfacet
facet normal -4.863977325035608e-09 5.153703657423116e-11 -1.0
  outer loop
    vertex 127.28778351504998 202.96876656258772 108.05122317089288
    vertex 125.0877835397507 202.96876656233886 108.05122317812244
    vertex 127.2877835877891 206.23672465071195 108.05122317089288
  endloop
endfacet
facet normal 4.875715207673039e-09 -5.191943520415233e-11 1.0
  outer loop
    vertex 125.08778359742234 202.96876656298596 118.1499986342112
    vertex 127.28778359586333 202.96876656258772 118.14999862698157
    vertex 125.08778360496271 206.23672465079963 118.14999864470204
  endloop
endfacet
facet normal 4.875715207673039e-09 -5.191943520415233e-11 1.0
  outer loop
    vertex 127.28778360467314 206.23672465071195 118.14999862698157
    vertex 125.08778360496271 206.23672465079963 118.14999864470204
    vertex 127.28778359586333 202.96876656258772 118.14999862698157
  endloop
endfacet
facet normal -2.2280923026206167e-11 -1.0 -7.5335393373155e-11
  outer loop
    vertex 127.28778351504998 190.16876659055455 108.05122317089288
    vertex 127.28778359586333 190.16876659055455 118.14999862698157
    vertex 125.08778349917031 190.16876659139115 108.0512231889422
  endloop
endfacet
facet normal -2.2280923026206167e-11 -1.0 -7.5335393373155e-11
  outer loop
    vertex 125.08778359192385 190.16876658971788 118.14999864503089
    vertex 125.08778349917031 190.16876659139115 108.0512231889422
    vertex 127.28778359586333 190.16876659055455 118.14999862698157
  endloop
endfacet
facet normal -4.738166527342781e-09 0.7933533402912463 -0.6087614290087062
  outer loop
    vertex 127.28778354944308 202.4270934380867 111.79289629539383
    vertex 125.08778355086723 202.42709343786873 111.79289631223301
    vertex 127.28778355169862 202.72099558847694 112.175917034915
  endloop
endfacet
facet normal -4.738166527342781e-09 0.7933533402912463 -0.6087614290087062
  outer loop
    vertex 125.08778355312278 202.72099558825897 112.17591705175417
    vertex 127.28778355169862 202.72099558847694 112.175917034915
    vertex 125.08778355086723 202.42709343786873 111.79289631223301
  endloop
endfacet
facet normal 2.83758706381143e-09 0.9238795325112903 0.38268343236508157
  outer loop
    vertex 127.28778356064782 202.90575020388349 113.57926766473396
    vertex 125.08778356207198 202.90575020366552 113.57926768157313
    vertex 127.28778356367917 202.720995588477 114.0253047629594
  endloop
endfacet
facet normal 2.83758706381143e-09 0.9238795325112903 0.38268343236508157
  outer loop
    vertex 125.08778356510332 202.72099558825903 114.02530477979856
    vertex 127.28778356367917 202.720995588477 114.0253047629594
    vertex 125.08778356207198 202.90575020366552 113.57926768157313
  endloop
endfacet
facet normal 7.575753599007445e-09 0.13052619222008424 0.9914448613738062
  outer loop
    vertex 125.0877835715478 201.59803560012213 114.88698228511652
    vertex 125.08778357232363 201.1193788343254 114.94999864382078
    vertex 127.28778357012365 201.59803560034013 114.88698226827734
  endloop
endfacet
facet normal 7.575753599007445e-09 0.13052619222008424 0.9914448613738062
  outer loop
    vertex 127.28778357089948 201.11937883454337 114.94999862698161
    vertex 127.28778357012365 201.59803560034013 114.88698226827734
    vertex 125.08778357232363 201.1193788343254 114.94999864382078
  endloop
endfacet
facet normal -6.132775055182953e-09 0.6087614290087356 -0.7933533402912235
  outer loop
    vertex 125.08778354925745 202.04407269834758 111.49899416184275
    vertex 125.08778355086723 202.42709343786873 111.79289631223301
    vertex 127.2877835478333 202.04407269856554 111.49899414500358
  endloop
endfacet
facet normal -6.132775055182953e-09 0.6087614290087356 -0.7933533402912235
  outer loop
    vertex 127.28778354944308 202.4270934380867 111.79289629539383
    vertex 127.2877835478333 202.04407269856554 111.49899414500358
    vertex 125.08778355086723 202.42709343786873 111.79289631223301
  endloop
endfacet
facet normal 6.012145036576981e-09 0.6087614290086906 0.7933533402912584
  outer loop
    vertex 125.08778356781029 202.4270934378688 114.40832551931975
    vertex 125.08778357000837 202.04407269834758 114.70222766971
    vertex 127.28778356638614 202.42709343808676 114.40832550248058
  endloop
endfacet
facet normal 6.012145036576981e-09 0.6087614290086906 0.7933533402912584
  outer loop
    vertex 127.28778356858422 202.04407269856554 114.70222765287083
    vertex 127.28778356638614 202.42709343808676 114.40832550248058
    vertex 125.08778357000837 202.04407269834758 114.70222766971
  endloop
endfacet
facet normal -7.109445104132776e-09 0.38268343236508157 -0.9238795325112903
  outer loop
    vertex 125.08778354840312 201.59803560012213 111.31423954643624
    vertex 125.08778354925745 202.04407269834758 111.49899416184275
    vertex 127.28778354697897 201.59803560034013 111.31423952959706
  endloop
endfacet
facet normal -7.109445104132776e-09 0.38268343236508157 -0.9238795325112903
  outer loop
    vertex 127.2877835478333 202.04407269856554 111.49899414500358
    vertex 127.28778354697897 201.59803560034013 111.31423952959706
    vertex 125.08778354925745 202.04407269834758 111.49899416184275
  endloop
endfacet
facet normal -7.601618208886009e-09 0.13052619222005055 -0.9914448613738105
  outer loop
    vertex 125.08778354057424 201.11937883432543 111.251223187732
    vertex 125.08778354840312 201.59803560012213 111.31423954643624
    vertex 127.28778353915008 201.11937883454343 111.25122317089283
  endloop
endfacet
facet normal -7.601618208886009e-09 0.13052619222005055 -0.9914448613738105
  outer loop
    vertex 127.28778354697897 201.59803560034013 111.31423952959706
    vertex 127.28778353915008 201.11937883454343 111.25122317089283
    vertex 125.08778354840312 201.59803560012213 111.31423954643624
  endloop
endfacet
facet normal 7.0336138999505334e-09 0.38268343236508157 0.9238795325112901
  outer loop
    vertex 125.08778357000837 202.04407269834758 114.70222766971
    vertex 125.0877835715478 201.59803560012213 114.88698228511652
    vertex 127.28778356858422 202.04407269856554 114.70222765287083
  endloop
endfacet
facet normal 7.0336138999505334e-09 0.38268343236508157 0.9238795325112901
  outer loop
    vertex 127.28778357012365 201.59803560034013 114.88698226827734
    vertex 127.28778356858422 202.04407269856554 114.70222765287083
    vertex 125.0877835715478 201.59803560012213 114.88698228511652
  endloop
endfacet
facet normal -1.097300065033313e-09 0.991444861373819 -0.13052619221998632
  outer loop
    vertex 127.28778355444622 202.90575020388349 112.62195413314042
    vertex 125.08778355587037 202.90575020366552 112.6219541499796
    vertex 127.28778355749861 202.96876656258772 113.10061089893719
  endloop
endfacet
facet normal -1.097300065033313e-09 0.991444861373819 -0.13052619221998632
  outer loop
    vertex 125.08778355892277 202.96876656236975 113.10061091577636
    vertex 127.28778355749861 202.96876656258772 113.10061089893719
    vertex 125.08778355587037 202.90575020366552 112.6219541499796
  endloop
endfacet
facet normal 5.916793195982183e-09 -0.006807961828236563 0.9999768255593454
  outer loop
    vertex 125.08778357232363 201.1193788343254 114.94999864382078
    vertex 125.08778357774564 194.02550700108466 114.90170271211115
    vertex 127.28778357089948 201.11937883454337 114.94999862698161
  endloop
endfacet
facet normal 5.916793195982183e-09 -0.006807961828236563 0.9999768255593454
  outer loop
    vertex 127.2877835769825 194.02550699877227 114.90170270290156
    vertex 127.28778357089948 201.11937883454337 114.94999862698161
    vertex 125.08778357774564 194.02550700108466 114.90170271211115
  endloop
endfacet
facet normal -3.02065978933034e-09 0.9238795325112571 -0.3826834323651612
  outer loop
    vertex 127.28778355169862 202.72099558847694 112.175917034915
    vertex 125.08778355312278 202.72099558825897 112.17591705175417
    vertex 127.28778355444622 202.90575020388349 112.62195413314042
  endloop
endfacet
facet normal -3.02065978933034e-09 0.9238795325112571 -0.3826834323651612
  outer loop
    vertex 125.08778355587037 202.90575020366552 112.6219541499796
    vertex 127.28778355444622 202.90575020388349 112.62195413314042
    vertex 125.08778355312278 202.72099558825897 112.17591705175417
  endloop
endfacet
facet normal -5.923717817053968e-09 0.006807961826085936 -0.9999768255593598
  outer loop
    vertex 125.08778353236428 194.02550699660927 111.20292725602239
    vertex 125.08778354057424 201.11937883432543 111.251223187732
    vertex 127.28778353312745 194.02550699877227 111.2029272468128
  endloop
endfacet
facet normal -5.923717817053968e-09 0.006807961826085936 -0.9999768255593598
  outer loop
    vertex 127.28778353915008 201.11937883454343 111.25122317089283
    vertex 127.28778353312745 194.02550699877227 111.2029272468128
    vertex 125.08778354057424 201.11937883432543 111.251223187732
  endloop
endfacet
facet normal 9.00838839864446e-10 0.991444861373819 0.13052619221998632
  outer loop
    vertex 127.28778355749861 202.96876656258772 113.10061089893719
    vertex 125.08778355892277 202.96876656236975 113.10061091577636
    vertex 127.28778356064782 202.90575020388349 113.57926766473396
  endloop
endfacet
facet normal 9.00838839864446e-10 0.991444861373819 0.13052619221998632
  outer loop
    vertex 125.08778356207198 202.90575020366552 113.57926768157313
    vertex 127.28778356064782 202.90575020388349 113.57926766473396
    vertex 125.08778355892277 202.96876656236975 113.10061091577636
  endloop
endfacet
facet normal 4.580958424429748e-09 0.7933533402912635 0.6087614290086837
  outer loop
    vertex 127.28778356367917 202.720995588477 114.0253047629594
    vertex 125.08778356510332 202.72099558825903 114.02530477979856
    vertex 127.28778356638614 202.42709343808676 114.40832550248058
  endloop
endfacet
facet normal 4.580958424429748e-09 0.7933533402912635 0.6087614290086837
  outer loop
    vertex 125.08778356781029 202.4270934378688 114.40832551931975
    vertex 127.28778356638614 202.42709343808676 114.40832550248058
    vertex 125.08778356510332 202.72099558825903 114.02530477979856
  endloop
endfacet
facet normal 8.20423614443302e-09 3.120051369825637e-18 1.0
  outer loop
    vertex 125.08778358849526 199.1843221253859 118.14999864503089
    vertex 125.08778359192385 190.16876658971788 118.14999864503089
    vertex 127.28778359243474 199.18432212622255 118.14999862698157
  endloop
endfacet
facet normal 8.20423614443302e-09 3.120051369825637e-18 1.0
  outer loop
    vertex 127.28778359586333 190.16876659055455 118.14999862698157
    vertex 127.28778359243474 199.18432212622255 118.14999862698157
    vertex 125.08778359192385 190.16876658971788 118.14999864503089
  endloop
endfacet
facet normal -8.20423609990573e-09 3.1200821376322632e-18 -1.0
  outer loop
    vertex 125.08778349917031 190.16876659139115 108.0512231889422
    vertex 125.08778350259895 199.18432212705906 108.0512231889422
    vertex 127.28778351504998 190.16876659055455 108.05122317089288
  endloop
endfacet
facet normal -8.20423609990573e-09 3.1200821376322632e-18 -1.0
  outer loop
    vertex 127.2877835184786 199.18432212622244 108.05122317089288
    vertex 127.28778351504998 190.16876659055455 108.05122317089288
    vertex 125.08778350259895 199.18432212705906 108.0512231889422
  endloop
endfacet
facet normal -1.0 -2.911470358154435e-10 9.927197564043619e-09
  outer loop
    vertex 125.08778359755624 202.96876656490008 119.44999863619115
    vertex 125.08778359742234 202.96876656298596 118.1499986342112
    vertex 125.08778358849526 199.1843221253859 118.14999864503089
  endloop
endfacet
facet normal -1.0 -2.911470358154435e-10 9.927197564043619e-09
  outer loop
    vertex 125.08778359669151 209.9687754583685 117.14999864470205
    vertex 125.08778359234415 209.9006271109466 116.632360554497
    vertex 125.08778360103439 209.9006271109466 117.66763673490709
  endloop
endfacet
facet normal -1.0 -2.911470358154435e-10 9.927197564043619e-09
  outer loop
    vertex 125.08778360507682 209.70082626593737 118.14999864470204
    vertex 125.08778360103439 209.9006271109466 117.66763673490709
    vertex 125.08778359234415 209.9006271109466 116.632360554497
  endloop
endfacet
facet normal -1.0 -2.911470358154435e-10 9.927197564043619e-09
  outer loop
    vertex 125.08778358828854 209.70082626593737 116.14999864470205
    vertex 125.08778360507682 209.70082626593737 118.14999864470204
    vertex 125.08778359234415 209.9006271109466 116.632360554497
  endloop
endfacet
facet normal -1.0 -2.911470358154435e-10 9.927197564043619e-09
  outer loop
    vertex 125.0877836085433 209.3829890207416 118.56421220707514
    vertex 125.08778360507682 209.70082626593737 118.14999864470204
    vertex 125.08778358828854 209.70082626593737 116.14999864470205
  endloop
endfacet
facet normal -1.0 -2.911470358154435e-10 9.927197564043619e-09
  outer loop
    vertex 125.08778358480113 209.3829890207416 115.73578508232895
    vertex 125.0877836085433 209.3829890207416 118.56421220707514
    vertex 125.08778358828854 209.70082626593737 116.14999864470205
  endloop
endfacet
facet normal -1.0 -2.911470358154435e-10 9.927197564043619e-09
  outer loop
    vertex 125.08778361119764 208.9687754583685 118.8820494522709
    vertex 125.0877836085433 209.3829890207416 118.56421220707514
    vertex 125.08778358480113 209.3829890207416 115.73578508232895
  endloop
endfacet
facet normal -1.0 -2.911470358154435e-10 9.927197564043619e-09
  outer loop
    vertex 125.0877835821195 208.9687754583685 115.41794783713318
    vertex 125.08778361119764 208.9687754583685 118.8820494522709
    vertex 125.08778358480113 209.3829890207416 115.73578508232895
  endloop
endfacet
facet normal -1.0 -2.911470358154435e-10 9.927197564043619e-09
  outer loop
    vertex 125.0877836128589 208.48641354857352 119.08185029728018
    vertex 125.08778361119764 208.9687754583685 118.8820494522709
    vertex 125.0877835821195 208.9687754583685 115.41794783713318
  endloop
endfacet
facet normal -1.0 -2.911470358154435e-10 9.927197564043619e-09
  outer loop
    vertex 125.08778358042647 208.48641354857352 115.21814699212392
    vertex 125.0877836128589 208.48641354857352 119.08185029728018
    vertex 125.0877835821195 208.9687754583685 115.41794783713318
  endloop
endfacet
facet normal -1.0 -2.911470358154435e-10 9.927197564043619e-09
  outer loop
    vertex 125.0877836134139 207.9687754583685 119.14999864470204
    vertex 125.0877836128589 208.48641354857352 119.08185029728018
    vertex 125.08778358042647 208.48641354857352 115.21814699212392
  endloop
endfacet
facet normal -1.0 -2.911470358154435e-10 9.927197564043619e-09
  outer loop
    vertex 125.08778357983735 207.9687754583685 115.14999864470205
    vertex 125.0877836134139 207.9687754583685 119.14999864470204
    vertex 125.08778358042647 208.48641354857352 115.21814699212392
  endloop
endfacet
facet normal -1.0 -2.911470358154435e-10 9.927197564043619e-09
  outer loop
    vertex 125.08778361282482 207.45113736816347 119.08185029728017
    vertex 125.0877836134139 207.9687754583685 119.14999864470204
    vertex 125.08778357983735 207.9687754583685 115.14999864470205
  endloop
endfacet
facet normal -1.0 -2.911470358154435e-10 9.927197564043619e-09
  outer loop
    vertex 125.08778358039237 207.45113736816347 115.2181469921239
    vertex 125.08778361282482 207.45113736816347 119.08185029728017
    vertex 125.08778357983735 207.9687754583685 115.14999864470205
  endloop
endfacet
facet normal -1.0 -2.911470358154435e-10 9.927197564043619e-09
  outer loop
    vertex 125.08778361113177 206.9687754583685 118.8820494522709
    vertex 125.08778361282482 207.45113736816347 119.08185029728017
    vertex 125.08778358039237 207.45113736816347 115.2181469921239
  endloop
endfacet
facet normal -1.0 -2.911470358154435e-10 9.927197564043619e-09
  outer loop
    vertex 125.08778358205362 206.9687754583685 115.41794783713318
    vertex 125.08778361113177 206.9687754583685 118.8820494522709
    vertex 125.08778358039237 207.45113736816347 115.2181469921239
  endloop
endfacet
facet normal -1.0 -2.911470358154435e-10 9.927197564043619e-09
  outer loop
    vertex 125.08778360845018 206.5545618959954 118.56421220707514
    vertex 125.08778361113177 206.9687754583685 118.8820494522709
    vertex 125.08778358205362 206.9687754583685 115.41794783713318
  endloop
endfacet
facet normal -1.0 -2.911470358154435e-10 9.927197564043619e-09
  outer loop
    vertex 125.08778358470796 206.5545618959954 115.73578508232895
    vertex 125.08778360845018 206.5545618959954 118.56421220707514
    vertex 125.08778358205362 206.9687754583685 115.41794783713318
  endloop
endfacet
facet normal -1.0 -2.911470358154435e-10 9.927197564043619e-09
  outer loop
    vertex 125.08778360496271 206.23672465079963 118.14999864470204
    vertex 125.08778360845018 206.5545618959954 118.56421220707514
    vertex 125.08778358470796 206.5545618959954 115.73578508232895
  endloop
endfacet
facet normal -1.0 -2.911470358154435e-10 9.927197564043619e-09
  outer loop
    vertex 125.08778358817445 206.23672465079963 116.14999864470205
    vertex 125.08778360496271 206.23672465079963 118.14999864470204
    vertex 125.08778358470796 206.5545618959954 115.73578508232895
  endloop
endfacet
facet normal -1.0 -2.911470358154435e-10 9.927197564043619e-09
  outer loop
    vertex 125.08778359742234 202.96876656298596 118.1499986342112
    vertex 125.08778360496271 206.23672465079963 118.14999864470204
    vertex 125.08778358817445 206.23672465079963 116.14999864470205
  endloop
endfacet
facet normal -1.0 -2.911470358154435e-10 9.927197564043619e-09
  outer loop
    vertex 125.08778359584615 197.5188403246478 116.10170270447506
    vertex 125.08778359742234 202.96876656298596 118.1499986342112
    vertex 125.08778358817445 206.23672465079963 116.14999864470205
  endloop
endfacet
facet normal -1.0 -2.911470358154435e-10 9.927197564043619e-09
  outer loop
    vertex 125.08778358849526 199.1843221253859 118.14999864503089
    vertex 125.08778359742234 202.96876656298596 118.1499986342112
    vertex 125.08778359584615 197.5188403246478 116.10170270447506
  endloop
endfacet
facet normal -1.0 -2.911470358154435e-10 9.927197564043619e-09
  outer loop
    vertex 125.08778359192385 190.16876658971788 118.14999864503089
    vertex 125.08778358849526 199.1843221253859 118.14999864503089
    vertex 125.08778359584615 197.5188403246478 116.10170270447506
  endloop
endfacet
facet normal -1.0 -2.911470358154435e-10 9.927197564043619e-09
  outer loop
    vertex 125.08778357774564 194.02550700108466 114.90170271211115
    vertex 125.08778359192385 190.16876658971788 118.14999864503089
    vertex 125.08778359584615 197.5188403246478 116.10170270447506
  endloop
endfacet
facet normal -1.0 -2.911470358154435e-10 9.927197564043619e-09
  outer loop
    vertex 125.08778353236428 194.02550699660927 111.20292725602239
    vertex 125.08778359192385 190.16876658971788 118.14999864503089
    vertex 125.08778357774564 194.02550700108466 114.90170271211115
  endloop
endfacet
facet normal -1.0 -2.911470358154435e-10 9.927197564043619e-09
  outer loop
    vertex 125.08778349917031 190.16876659139115 108.0512231889422
    vertex 125.08778359192385 190.16876658971788 118.14999864503089
    vertex 125.08778353236428 194.02550699660927 111.20292725602239
  endloop
endfacet
facet normal -1.0 -2.911470358154435e-10 9.927197564043619e-09
  outer loop
    vertex 125.08778350699636 209.96877545189068 109.05122318853601
    vertex 125.08778350266273 209.9006271044688 108.53358509833096
    vertex 125.08778351131511 209.9006271044688 109.56886127874105
  endloop
endfacet
facet normal -1.0 -2.911470358154435e-10 9.927197564043619e-09
  outer loop
    vertex 125.08778351532465 209.70082625945955 110.051223188536
    vertex 125.08778351131511 209.9006271044688 109.56886127874105
    vertex 125.08778350266273 209.9006271044688 108.53358509833096
  endloop
endfacet
facet normal -1.0 -2.911470358154435e-10 9.927197564043619e-09
  outer loop
    vertex 125.08778349860951 209.70082625945955 108.05122318853601
    vertex 125.08778351532465 209.70082625945955 110.051223188536
    vertex 125.08778350266273 209.9006271044688 108.53358509833096
  endloop
endfacet
facet normal -1.0 -2.911470358154435e-10 9.927197564043619e-09
  outer loop
    vertex 125.08778351875169 209.38298901426379 110.4654367509091
    vertex 125.08778351532465 209.70082625945955 110.051223188536
    vertex 125.08778349860951 209.70082625945955 108.05122318853601
  endloop
endfacet
facet normal -1.0 -2.911470358154435e-10 9.927197564043619e-09
  outer loop
    vertex 125.08778349511293 209.38298901426379 107.63700962616291
    vertex 125.08778351875169 209.38298901426379 110.4654367509091
    vertex 125.08778349860951 209.70082625945955 108.05122318853601
  endloop
endfacet
facet normal -1.0 -2.911470358154435e-10 9.927197564043619e-09
  outer loop
    vertex 125.08778352136275 208.96877545189068 110.78327399610487
    vertex 125.08778351875169 209.38298901426379 110.4654367509091
    vertex 125.08778349511293 209.38298901426379 107.63700962616291
  endloop
endfacet
facet normal -1.0 -2.911470358154435e-10 9.927197564043619e-09
  outer loop
    vertex 125.0877834924113 208.96877545189068 107.31917238096715
    vertex 125.08778352136275 208.96877545189068 110.78327399610487
    vertex 125.08778349511293 209.38298901426379 107.63700962616291
  endloop
endfacet
facet normal -1.0 -2.911470358154435e-10 9.927197564043619e-09
  outer loop
    vertex 125.08778352297983 208.4864135420957 110.98307484111415
    vertex 125.08778352136275 208.96877545189068 110.78327399610487
    vertex 125.0877834924113 208.96877545189068 107.31917238096715
  endloop
endfacet
facet normal -1.0 -2.911470358154435e-10 9.927197564043619e-09
  outer loop
    vertex 125.0877834906887 208.4864135420957 107.11937153595787
    vertex 125.08778352297983 208.4864135420957 110.98307484111415
    vertex 125.0877834924113 208.96877545189068 107.31917238096715
  endloop
endfacet
facet normal -1.0 -2.911470358154435e-10 9.927197564043619e-09
  outer loop
    vertex 125.0877835234928 207.96877545189068 111.051223188536
    vertex 125.08778352297983 208.4864135420957 110.98307484111415
    vertex 125.0877834906887 208.4864135420957 107.11937153595787
  endloop
endfacet
facet normal -1.0 -2.911470358154435e-10 9.927197564043619e-09
  outer loop
    vertex 125.08778349006252 207.96877545189068 107.05122318853601
    vertex 125.0877835234928 207.96877545189068 111.051223188536
    vertex 125.0877834906887 208.4864135420957 107.11937153595787
  endloop
endfacet
facet normal -1.0 -2.911470358154435e-10 9.927197564043619e-09
  outer loop
    vertex 125.08778352286663 207.45113736168565 110.98307484111413
    vertex 125.0877835234928 207.96877545189068 111.051223188536
    vertex 125.08778349006252 207.96877545189068 107.05122318853601
  endloop
endfacet
facet normal -1.0 -2.911470358154435e-10 9.927197564043619e-09
  outer loop
    vertex 125.08778349057549 207.45113736168565 107.11937153595787
    vertex 125.08778352286663 207.45113736168565 110.98307484111413
    vertex 125.08778349006252 207.96877545189068 107.05122318853601
  endloop
endfacet
facet normal -1.0 -2.911470358154435e-10 9.927197564043619e-09
  outer loop
    vertex 125.08778352114406 206.96877545189068 110.78327399610487
    vertex 125.08778352286663 207.45113736168565 110.98307484111413
    vertex 125.08778349057549 207.45113736168565 107.11937153595787
  endloop
endfacet
facet normal -1.0 -2.911470358154435e-10 9.927197564043619e-09
  outer loop
    vertex 125.08778349219261 206.96877545189068 107.31917238096715
    vertex 125.08778352114406 206.96877545189068 110.78327399610487
    vertex 125.08778349057549 207.45113736168565 107.11937153595787
  endloop
endfacet
facet normal -1.0 -2.911470358154435e-10 9.927197564043619e-09
  outer loop
    vertex 125.0877835184424 206.5545618895176 110.4654367509091
    vertex 125.08778352114406 206.96877545189068 110.78327399610487
    vertex 125.08778349219261 206.96877545189068 107.31917238096715
  endloop
endfacet
facet normal -1.0 -2.911470358154435e-10 9.927197564043619e-09
  outer loop
    vertex 125.08778349480363 206.5545618895176 107.63700962616291
    vertex 125.0877835184424 206.5545618895176 110.4654367509091
    vertex 125.08778349219261 206.96877545189068 107.31917238096715
  endloop
endfacet
facet normal -1.0 -2.911470358154435e-10 9.927197564043619e-09
  outer loop
    vertex 125.08778351494587 206.2367246443218 110.051223188536
    vertex 125.0877835184424 206.5545618895176 110.4654367509091
    vertex 125.08778349480363 206.5545618895176 107.63700962616291
  endloop
endfacet
facet normal -1.0 -2.911470358154435e-10 9.927197564043619e-09
  outer loop
    vertex 125.08778349823073 206.2367246443218 108.05122318853601
    vertex 125.08778351494587 206.2367246443218 110.051223188536
    vertex 125.08778349480363 206.5545618895176 107.63700962616291
  endloop
endfacet
facet normal -1.0 -2.911470358154435e-10 9.927197564043619e-09
  outer loop
    vertex 125.08778353865578 197.51884032464767 110.00292724838621
    vertex 125.08778351494587 206.2367246443218 110.051223188536
    vertex 125.08778349823073 206.2367246443218 108.05122318853601
  endloop
endfacet
facet normal -1.0 -2.911470358154435e-10 9.927197564043619e-09
  outer loop
    vertex 125.0877835397507 202.96876656233886 108.05122317812244
    vertex 125.08778353865578 197.51884032464767 110.00292724838621
    vertex 125.08778349823073 206.2367246443218 108.05122318853601
  endloop
endfacet
facet normal -1.0 -2.911470358154435e-10 9.927197564043619e-09
  outer loop
    vertex 125.08778351335708 202.96876656042468 106.75122318010241
    vertex 125.08778353865578 197.51884032464767 110.00292724838621
    vertex 125.0877835397507 202.96876656233886 108.05122317812244
  endloop
endfacet
facet normal -1.0 -2.911470358154435e-10 9.927197564043619e-09
  outer loop
    vertex 125.08778350259895 199.18432212705906 108.0512231889422
    vertex 125.08778353865578 197.51884032464767 110.00292724838621
    vertex 125.08778351335708 202.96876656042468 106.75122318010241
  endloop
endfacet
facet normal -1.0 -2.911470358154435e-10 9.927197564043619e-09
  outer loop
    vertex 125.08778349917031 190.16876659139115 108.0512231889422
    vertex 125.08778353865578 197.51884032464767 110.00292724838621
    vertex 125.08778350259895 199.18432212705906 108.0512231889422
  endloop
endfacet
facet normal -1.0 -2.911470358154435e-10 9.927197564043619e-09
  outer loop
    vertex 125.08778353236428 194.02550699660927 111.20292725602239
    vertex 125.08778353865578 197.51884032464767 110.00292724838621
    vertex 125.08778349917031 190.16876659139115 108.0512231889422
  endloop
endfacet
facet normal -1.0 -2.911470358154435e-10 9.927197564043619e-09
  outer loop
    vertex 125.08778355892277 202.96876656236975 113.10061091577636
    vertex 125.08778355587037 202.90575020366552 112.6219541499796
    vertex 125.08778356207198 202.90575020366552 113.57926768157313
  endloop
endfacet
facet normal -1.0 -2.911470358154435e-10 9.927197564043619e-09
  outer loop
    vertex 125.08778356510332 202.72099558825903 114.02530477979856
    vertex 125.08778356207198 202.90575020366552 113.57926768157313
    vertex 125.08778355587037 202.90575020366552 112.6219541499796
  endloop
endfacet
facet normal -1.0 -2.911470358154435e-10 9.927197564043619e-09
  outer loop
    vertex 125.08778355312278 202.72099558825897 112.17591705175417
    vertex 125.08778356510332 202.72099558825903 114.02530477979856
    vertex 125.08778355587037 202.90575020366552 112.6219541499796
  endloop
endfacet
facet normal -1.0 -2.911470358154435e-10 9.927197564043619e-09
  outer loop
    vertex 125.08778356781029 202.4270934378688 114.40832551931975
    vertex 125.08778356510332 202.72099558825903 114.02530477979856
    vertex 125.08778355312278 202.72099558825897 112.17591705175417
  endloop
endfacet
facet normal -1.0 -2.911470358154435e-10 9.927197564043619e-09
  outer loop
    vertex 125.08778355086723 202.42709343786873 111.79289631223301
    vertex 125.08778356781029 202.4270934378688 114.40832551931975
    vertex 125.08778355312278 202.72099558825897 112.17591705175417
  endloop
endfacet
facet normal -1.0 -2.911470358154435e-10 9.927197564043619e-09
  outer loop
    vertex 125.08778357000837 202.04407269834758 114.70222766971
    vertex 125.08778356781029 202.4270934378688 114.40832551931975
    vertex 125.08778355086723 202.42709343786873 111.79289631223301
  endloop
endfacet
facet normal -1.0 -2.911470358154435e-10 9.927197564043619e-09
  outer loop
    vertex 125.08778354925745 202.04407269834758 111.49899416184275
    vertex 125.08778357000837 202.04407269834758 114.70222766971
    vertex 125.08778355086723 202.42709343786873 111.79289631223301
  endloop
endfacet
facet normal -1.0 -2.911470358154435e-10 9.927197564043619e-09
  outer loop
    vertex 125.0877835715478 201.59803560012213 114.88698228511652
    vertex 125.08778357000837 202.04407269834758 114.70222766971
    vertex 125.08778354925745 202.04407269834758 111.49899416184275
  endloop
endfacet
facet normal -1.0 -2.911470358154435e-10 9.927197564043619e-09
  outer loop
    vertex 125.08778354840312 201.59803560012213 111.31423954643624
    vertex 125.0877835715478 201.59803560012213 114.88698228511652
    vertex 125.08778354925745 202.04407269834758 111.49899416184275
  endloop
endfacet
facet normal -1.0 -2.911470358154435e-10 9.927197564043619e-09
  outer loop
    vertex 125.08778357232363 201.1193788343254 114.94999864382078
    vertex 125.0877835715478 201.59803560012213 114.88698228511652
    vertex 125.08778354840312 201.59803560012213 111.31423954643624
  endloop
endfacet
facet normal -1.0 -2.911470358154435e-10 9.927197564043619e-09
  outer loop
    vertex 125.08778354057424 201.11937883432543 111.251223187732
    vertex 125.08778357232363 201.1193788343254 114.94999864382078
    vertex 125.08778354840312 201.59803560012213 111.31423954643624
  endloop
endfacet
facet normal -1.0 -2.911470358154435e-10 9.927197564043619e-09
  outer loop
    vertex 125.08778353236428 194.02550699660927 111.20292725602239
    vertex 125.08778357232363 201.1193788343254 114.94999864382078
    vertex 125.08778354057424 201.11937883432543 111.251223187732
  endloop
endfacet
facet normal -1.0 -2.911470358154435e-10 9.927197564043619e-09
  outer loop
    vertex 125.08778357774564 194.02550700108466 114.90170271211115
    vertex 125.08778357232363 201.1193788343254 114.94999864382078
    vertex 125.08778353236428 194.02550699660927 111.20292725602239
  endloop
endfacet
facet normal 1.0 -3.4588486566028157e-09 -2.8078152322514367e-09
  outer loop
    vertex 127.28778351412022 202.96876656258772 106.75122317089283
    vertex 127.28778351504998 202.96876656258772 108.05122317089288
    vertex 127.2877835184786 199.18432212622244 108.05122317089288
  endloop
endfacet
facet normal 1.0 -3.4588486566028157e-09 -2.8078152322514367e-09
  outer loop
    vertex 127.28778359655475 209.96877545828082 109.05122317089288
    vertex 127.2877836008735 209.90062711085895 109.56886126109792
    vertex 127.28778359222109 209.90062711085895 108.53358508068783
  endloop
endfacet
facet normal 1.0 -3.4588486566028157e-09 -2.8078152322514367e-09
  outer loop
    vertex 127.28778358816787 209.70082626584968 108.05122317089288
    vertex 127.28778359222109 209.90062711085895 108.53358508068783
    vertex 127.2877836008735 209.90062711085895 109.56886126109792
  endloop
endfacet
facet normal 1.0 -3.4588486566028157e-09 -2.8078152322514367e-09
  outer loop
    vertex 127.287783604883 209.70082626584968 110.05122317089287
    vertex 127.28778358816787 209.70082626584968 108.05122317089288
    vertex 127.2877836008735 209.90062711085895 109.56886126109792
  endloop
endfacet
facet normal 1.0 -3.4588486566028157e-09 -2.8078152322514367e-09
  outer loop
    vertex 127.28778358467132 209.38298902065392 107.63700960851978
    vertex 127.28778358816787 209.70082626584968 108.05122317089288
    vertex 127.287783604883 209.70082626584968 110.05122317089287
  endloop
endfacet
facet normal 1.0 -3.4588486566028157e-09 -2.8078152322514367e-09
  outer loop
    vertex 127.28778360831008 209.38298902065392 110.46543673326597
    vertex 127.28778358467132 209.38298902065392 107.63700960851978
    vertex 127.287783604883 209.70082626584968 110.05122317089287
  endloop
endfacet
facet normal 1.0 -3.4588486566028157e-09 -2.8078152322514367e-09
  outer loop
    vertex 127.28778358196968 208.96877545828082 107.31917236332401
    vertex 127.28778358467132 209.38298902065392 107.63700960851978
    vertex 127.28778360831008 209.38298902065392 110.46543673326597
  endloop
endfacet
facet normal 1.0 -3.4588486566028157e-09 -2.8078152322514367e-09
  outer loop
    vertex 127.28778361092112 208.96877545828082 110.78327397846174
    vertex 127.28778358196968 208.96877545828082 107.31917236332401
    vertex 127.28778360831008 209.38298902065392 110.46543673326597
  endloop
endfacet
facet normal 1.0 -3.4588486566028157e-09 -2.8078152322514367e-09
  outer loop
    vertex 127.28778358024708 208.48641354848584 107.11937151831474
    vertex 127.28778358196968 208.96877545828082 107.31917236332401
    vertex 127.28778361092112 208.96877545828082 110.78327397846174
  endloop
endfacet
facet normal 1.0 -3.4588486566028157e-09 -2.8078152322514367e-09
  outer loop
    vertex 127.28778361253822 208.48641354848584 110.98307482347101
    vertex 127.28778358024708 208.48641354848584 107.11937151831474
    vertex 127.28778361092112 208.96877545828082 110.78327397846174
  endloop
endfacet
facet normal 1.0 -3.4588486566028157e-09 -2.8078152322514367e-09
  outer loop
    vertex 127.2877835796209 207.96877545828082 107.05122317089288
    vertex 127.28778358024708 208.48641354848584 107.11937151831474
    vertex 127.28778361253822 208.48641354848584 110.98307482347101
  endloop
endfacet
facet normal 1.0 -3.4588486566028157e-09 -2.8078152322514367e-09
  outer loop
    vertex 127.28778361305119 207.96877545828082 111.05122317089287
    vertex 127.2877835796209 207.96877545828082 107.05122317089288
    vertex 127.28778361253822 208.48641354848584 110.98307482347101
  endloop
endfacet
facet normal 1.0 -3.4588486566028157e-09 -2.8078152322514367e-09
  outer loop
    vertex 127.28778358013388 207.4511373680758 107.11937151831474
    vertex 127.2877835796209 207.96877545828082 107.05122317089288
    vertex 127.28778361305119 207.96877545828082 111.05122317089287
  endloop
endfacet
facet normal 1.0 -3.4588486566028157e-09 -2.8078152322514367e-09
  outer loop
    vertex 127.28778361242502 207.4511373680758 110.983074823471
    vertex 127.28778358013388 207.4511373680758 107.11937151831474
    vertex 127.28778361305119 207.96877545828082 111.05122317089287
  endloop
endfacet
facet normal 1.0 -3.4588486566028157e-09 -2.8078152322514367e-09
  outer loop
    vertex 127.28778358175099 206.96877545828082 107.31917236332401
    vertex 127.28778358013388 207.4511373680758 107.11937151831474
    vertex 127.28778361242502 207.4511373680758 110.983074823471
  endloop
endfacet
facet normal 1.0 -3.4588486566028157e-09 -2.8078152322514367e-09
  outer loop
    vertex 127.28778361070242 206.96877545828082 110.78327397846174
    vertex 127.28778358175099 206.96877545828082 107.31917236332401
    vertex 127.28778361242502 207.4511373680758 110.983074823471
  endloop
endfacet
facet normal 1.0 -3.4588486566028157e-09 -2.8078152322514367e-09
  outer loop
    vertex 127.28778358436202 206.55456189590774 107.63700960851978
    vertex 127.28778358175099 206.96877545828082 107.31917236332401
    vertex 127.28778361070242 206.96877545828082 110.78327397846174
  endloop
endfacet
facet normal 1.0 -3.4588486566028157e-09 -2.8078152322514367e-09
  outer loop
    vertex 127.28778360800078 206.55456189590774 110.46543673326597
    vertex 127.28778358436202 206.55456189590774 107.63700960851978
    vertex 127.28778361070242 206.96877545828082 110.78327397846174
  endloop
endfacet
facet normal 1.0 -3.4588486566028157e-09 -2.8078152322514367e-09
  outer loop
    vertex 127.2877835877891 206.23672465071195 108.05122317089288
    vertex 127.28778358436202 206.55456189590774 107.63700960851978
    vertex 127.28778360800078 206.55456189590774 110.46543673326597
  endloop
endfacet
facet normal 1.0 -3.4588486566028157e-09 -2.8078152322514367e-09
  outer loop
    vertex 127.28778360450423 206.23672465071195 110.05122317089287
    vertex 127.2877835877891 206.23672465071195 108.05122317089288
    vertex 127.28778360800078 206.55456189590774 110.46543673326597
  endloop
endfacet
facet normal 1.0 -3.4588486566028157e-09 -2.8078152322514367e-09
  outer loop
    vertex 127.28778351504998 202.96876656258772 108.05122317089288
    vertex 127.2877835877891 206.23672465071195 108.05122317089288
    vertex 127.28778360450423 206.23672465071195 110.05122317089287
  endloop
endfacet
facet normal 1.0 -3.4588486566028157e-09 -2.8078152322514367e-09
  outer loop
    vertex 127.28778351607875 197.51884032464767 110.00292724681286
    vertex 127.28778351504998 202.96876656258772 108.05122317089288
    vertex 127.28778360450423 206.23672465071195 110.05122317089287
  endloop
endfacet
facet normal 1.0 -3.4588486566028157e-09 -2.8078152322514367e-09
  outer loop
    vertex 127.2877835184786 199.18432212622244 108.05122317089288
    vertex 127.28778351504998 202.96876656258772 108.05122317089288
    vertex 127.28778351607875 197.51884032464767 110.00292724681286
  endloop
endfacet
facet normal 1.0 -3.4588486566028157e-09 -2.8078152322514367e-09
  outer loop
    vertex 127.28778351504998 190.16876659055455 108.05122317089288
    vertex 127.2877835184786 199.18432212622244 108.05122317089288
    vertex 127.28778351607875 197.51884032464767 110.00292724681286
  endloop
endfacet
facet normal 1.0 -3.4588486566028157e-09 -2.8078152322514367e-09
  outer loop
    vertex 127.28778353312745 194.02550699877227 111.2029272468128
    vertex 127.28778351504998 190.16876659055455 108.05122317089288
    vertex 127.28778351607875 197.51884032464767 110.00292724681286
  endloop
endfacet
facet normal 1.0 -3.4588486566028157e-09 -2.8078152322514367e-09
  outer loop
    vertex 127.2877835769825 194.02550699877227 114.90170270290156
    vertex 127.28778351504998 190.16876659055455 108.05122317089288
    vertex 127.28778353312745 194.02550699877227 111.2029272468128
  endloop
endfacet
facet normal 1.0 -3.4588486566028157e-09 -2.8078152322514367e-09
  outer loop
    vertex 127.28778359640192 209.96877545828082 117.14999862698158
    vertex 127.2877836007448 209.90062711085895 117.66763671718662
    vertex 127.28778359205455 209.90062711085895 116.63236053677653
  endloop
endfacet
facet normal 1.0 -3.4588486566028157e-09 -2.8078152322514367e-09
  outer loop
    vertex 127.28778358799897 209.70082626584968 116.14999862698158
    vertex 127.28778359205455 209.90062711085895 116.63236053677653
    vertex 127.2877836007448 209.90062711085895 117.66763671718662
  endloop
endfacet
facet normal 1.0 -3.4588486566028157e-09 -2.8078152322514367e-09
  outer loop
    vertex 127.28778360478724 209.70082626584968 118.14999862698157
    vertex 127.28778358799897 209.70082626584968 116.14999862698158
    vertex 127.2877836007448 209.90062711085895 117.66763671718662
  endloop
endfacet
facet normal 1.0 -3.4588486566028157e-09 -2.8078152322514367e-09
  outer loop
    vertex 127.28778358451153 209.38298902065392 115.73578506460848
    vertex 127.28778358799897 209.70082626584968 116.14999862698158
    vertex 127.28778360478724 209.70082626584968 118.14999862698157
  endloop
endfacet
facet normal 1.0 -3.4588486566028157e-09 -2.8078152322514367e-09
  outer loop
    vertex 127.28778360825372 209.38298902065392 118.56421218935468
    vertex 127.28778358451153 209.38298902065392 115.73578506460848
    vertex 127.28778360478724 209.70082626584968 118.14999862698157
  endloop
endfacet
facet normal 1.0 -3.4588486566028157e-09 -2.8078152322514367e-09
  outer loop
    vertex 127.28778358182991 208.96877545828082 115.41794781941272
    vertex 127.28778358451153 209.38298902065392 115.73578506460848
    vertex 127.28778360825372 209.38298902065392 118.56421218935468
  endloop
endfacet
facet normal 1.0 -3.4588486566028157e-09 -2.8078152322514367e-09
  outer loop
    vertex 127.28778361090806 208.96877545828082 118.88204943455044
    vertex 127.28778358182991 208.96877545828082 115.41794781941272
    vertex 127.28778360825372 209.38298902065392 118.56421218935468
  endloop
endfacet
facet normal 1.0 -3.4588486566028157e-09 -2.8078152322514367e-09
  outer loop
    vertex 127.28778358013687 208.48641354848584 115.21814697440345
    vertex 127.28778358182991 208.96877545828082 115.41794781941272
    vertex 127.28778361090806 208.96877545828082 118.88204943455044
  endloop
endfacet
facet normal 1.0 -3.4588486566028157e-09 -2.8078152322514367e-09
  outer loop
    vertex 127.28778361256931 208.48641354848584 119.08185027955972
    vertex 127.28778358013687 208.48641354848584 115.21814697440345
    vertex 127.28778361090806 208.96877545828082 118.88204943455044
  endloop
endfacet
facet normal 1.0 -3.4588486566028157e-09 -2.8078152322514367e-09
  outer loop
    vertex 127.28778357954778 207.96877545828082 115.14999862698158
    vertex 127.28778358013687 208.48641354848584 115.21814697440345
    vertex 127.28778361256931 208.48641354848584 119.08185027955972
  endloop
endfacet
facet normal 1.0 -3.4588486566028157e-09 -2.8078152322514367e-09
  outer loop
    vertex 127.28778361312433 207.96877545828082 119.14999862698157
    vertex 127.28778357954778 207.96877545828082 115.14999862698158
    vertex 127.28778361256931 208.48641354848584 119.08185027955972
  endloop
endfacet
facet normal 1.0 -3.4588486566028157e-09 -2.8078152322514367e-09
  outer loop
    vertex 127.28778358010278 207.4511373680758 115.21814697440344
    vertex 127.28778357954778 207.96877545828082 115.14999862698158
    vertex 127.28778361312433 207.96877545828082 119.14999862698157
  endloop
endfacet
facet normal 1.0 -3.4588486566028157e-09 -2.8078152322514367e-09
  outer loop
    vertex 127.28778361253522 207.4511373680758 119.0818502795597
    vertex 127.28778358010278 207.4511373680758 115.21814697440344
    vertex 127.28778361312433 207.96877545828082 119.14999862698157
  endloop
endfacet
facet normal 1.0 -3.4588486566028157e-09 -2.8078152322514367e-09
  outer loop
    vertex 127.28778358176405 206.96877545828082 115.41794781941272
    vertex 127.28778358010278 207.4511373680758 115.21814697440344
    vertex 127.28778361253522 207.4511373680758 119.0818502795597
  endloop
endfacet
facet normal 1.0 -3.4588486566028157e-09 -2.8078152322514367e-09
  outer loop
    vertex 127.28778361084218 206.96877545828082 118.88204943455044
    vertex 127.28778358176405 206.96877545828082 115.41794781941272
    vertex 127.28778361253522 207.4511373680758 119.0818502795597
  endloop
endfacet
facet normal 1.0 -3.4588486566028157e-09 -2.8078152322514367e-09
  outer loop
    vertex 127.28778358441838 206.55456189590774 115.73578506460848
    vertex 127.28778358176405 206.96877545828082 115.41794781941272
    vertex 127.28778361084218 206.96877545828082 118.88204943455044
  endloop
endfacet
facet normal 1.0 -3.4588486566028157e-09 -2.8078152322514367e-09
  outer loop
    vertex 127.28778360816058 206.55456189590774 118.56421218935468
    vertex 127.28778358441838 206.55456189590774 115.73578506460848
    vertex 127.28778361084218 206.96877545828082 118.88204943455044
  endloop
endfacet
facet normal 1.0 -3.4588486566028157e-09 -2.8078152322514367e-09
  outer loop
    vertex 127.28778358788486 206.23672465071195 116.14999862698158
    vertex 127.28778358441838 206.55456189590774 115.73578506460848
    vertex 127.28778360816058 206.55456189590774 118.56421218935468
  endloop
endfacet
facet normal 1.0 -3.4588486566028157e-09 -2.8078152322514367e-09
  outer loop
    vertex 127.28778360467314 206.23672465071195 118.14999862698157
    vertex 127.28778358788486 206.23672465071195 116.14999862698158
    vertex 127.28778360816058 206.55456189590774 118.56421218935468
  endloop
endfacet
facet normal 1.0 -3.4588486566028157e-09 -2.8078152322514367e-09
  outer loop
    vertex 127.28778359403117 197.5188403246478 116.10170270290156
    vertex 127.28778358788486 206.23672465071195 116.14999862698158
    vertex 127.28778360467314 206.23672465071195 118.14999862698157
  endloop
endfacet
facet normal 1.0 -3.4588486566028157e-09 -2.8078152322514367e-09
  outer loop
    vertex 127.28778359586333 202.96876656258772 118.14999862698157
    vertex 127.28778359403117 197.5188403246478 116.10170270290156
    vertex 127.28778360467314 206.23672465071195 118.14999862698157
  endloop
endfacet
facet normal 1.0 -3.4588486566028157e-09 -2.8078152322514367e-09
  outer loop
    vertex 127.28778359679313 202.96876656258772 119.44999862698157
    vertex 127.28778359403117 197.5188403246478 116.10170270290156
    vertex 127.28778359586333 202.96876656258772 118.14999862698157
  endloop
endfacet
facet normal 1.0 -3.4588486566028157e-09 -2.8078152322514367e-09
  outer loop
    vertex 127.28778359243474 199.18432212622255 118.14999862698157
    vertex 127.28778359403117 197.5188403246478 116.10170270290156
    vertex 127.28778359679313 202.96876656258772 119.44999862698157
  endloop
endfacet
facet normal 1.0 -3.4588486566028157e-09 -2.8078152322514367e-09
  outer loop
    vertex 127.28778359586333 190.16876659055455 118.14999862698157
    vertex 127.28778359403117 197.5188403246478 116.10170270290156
    vertex 127.28778359243474 199.18432212622255 118.14999862698157
  endloop
endfacet
facet normal 1.0 -3.4588486566028157e-09 -2.8078152322514367e-09
  outer loop
    vertex 127.2877835769825 194.02550699877227 114.90170270290156
    vertex 127.28778359403117 197.5188403246478 116.10170270290156
    vertex 127.28778359586333 190.16876659055455 118.14999862698157
  endloop
endfacet
facet normal 1.0 -3.4588486566028157e-09 -2.8078152322514367e-09
  outer loop
    vertex 127.28778351504998 190.16876659055455 108.05122317089288
    vertex 127.2877835769825 194.02550699877227 114.90170270290156
    vertex 127.28778359586333 190.16876659055455 118.14999862698157
  endloop
endfacet
facet normal 1.0 -3.4588486566028157e-09 -2.8078152322514367e-09
  outer loop
    vertex 127.28778355749861 202.96876656258772 113.10061089893719
    vertex 127.28778356064782 202.90575020388349 113.57926766473396
    vertex 127.28778355444622 202.90575020388349 112.62195413314042
  endloop
endfacet
facet normal 1.0 -3.4588486566028157e-09 -2.8078152322514367e-09
  outer loop
    vertex 127.28778355169862 202.72099558847694 112.175917034915
    vertex 127.28778355444622 202.90575020388349 112.62195413314042
    vertex 127.28778356064782 202.90575020388349 113.57926766473396
  endloop
endfacet
facet normal 1.0 -3.4588486566028157e-09 -2.8078152322514367e-09
  outer loop
    vertex 127.28778356367917 202.720995588477 114.0253047629594
    vertex 127.28778355169862 202.72099558847694 112.175917034915
    vertex 127.28778356064782 202.90575020388349 113.57926766473396
  endloop
endfacet
facet normal 1.0 -3.4588486566028157e-09 -2.8078152322514367e-09
  outer loop
    vertex 127.28778356638614 202.42709343808676 114.40832550248058
    vertex 127.28778355169862 202.72099558847694 112.175917034915
    vertex 127.28778356367917 202.720995588477 114.0253047629594
  endloop
endfacet
facet normal 1.0 -3.4588486566028157e-09 -2.8078152322514367e-09
  outer loop
    vertex 127.28778354944308 202.4270934380867 111.79289629539383
    vertex 127.28778355169862 202.72099558847694 112.175917034915
    vertex 127.28778356638614 202.42709343808676 114.40832550248058
  endloop
endfacet
facet normal 1.0 -3.4588486566028157e-09 -2.8078152322514367e-09
  outer loop
    vertex 127.28778356858422 202.04407269856554 114.70222765287083
    vertex 127.28778354944308 202.4270934380867 111.79289629539383
    vertex 127.28778356638614 202.42709343808676 114.40832550248058
  endloop
endfacet
facet normal 1.0 -3.4588486566028157e-09 -2.8078152322514367e-09
  outer loop
    vertex 127.2877835478333 202.04407269856554 111.49899414500358
    vertex 127.28778354944308 202.4270934380867 111.79289629539383
    vertex 127.28778356858422 202.04407269856554 114.70222765287083
  endloop
endfacet
facet normal 1.0 -3.4588486566028157e-09 -2.8078152322514367e-09
  outer loop
    vertex 127.28778354697897 201.59803560034013 111.31423952959706
    vertex 127.2877835478333 202.04407269856554 111.49899414500358
    vertex 127.28778356858422 202.04407269856554 114.70222765287083
  endloop
endfacet
facet normal 1.0 -3.4588486566028157e-09 -2.8078152322514367e-09
  outer loop
    vertex 127.28778357012365 201.59803560034013 114.88698226827734
    vertex 127.28778354697897 201.59803560034013 111.31423952959706
    vertex 127.28778356858422 202.04407269856554 114.70222765287083
  endloop
endfacet
facet normal 1.0 -3.4588486566028157e-09 -2.8078152322514367e-09
  outer loop
    vertex 127.28778353915008 201.11937883454343 111.25122317089283
    vertex 127.28778354697897 201.59803560034013 111.31423952959706
    vertex 127.28778357012365 201.59803560034013 114.88698226827734
  endloop
endfacet
facet normal 1.0 -3.4588486566028157e-09 -2.8078152322514367e-09
  outer loop
    vertex 127.28778357089948 201.11937883454337 114.94999862698161
    vertex 127.28778353915008 201.11937883454343 111.25122317089283
    vertex 127.28778357012365 201.59803560034013 114.88698226827734
  endloop
endfacet
facet normal 1.0 -3.4588486566028157e-09 -2.8078152322514367e-09
  outer loop
    vertex 127.28778353312745 194.02550699877227 111.2029272468128
    vertex 127.28778353915008 201.11937883454343 111.25122317089283
    vertex 127.28778357089948 201.11937883454337 114.94999862698161
  endloop
endfacet
facet normal 1.0 -3.4588486566028157e-09 -2.8078152322514367e-09
  outer loop
    vertex 127.2877835769825 194.02550699877227 114.90170270290156
    vertex 127.28778353312745 194.02550699877227 111.2029272468128
    vertex 127.28778357089948 201.11937883454337 114.94999862698161
  endloop
endfacet
facet normal 4.375363090944045e-09 -0.005539783419786594 0.9999846552821009
  outer loop
    vertex 125.08778351494587 206.2367246443218 110.051223188536
    vertex 125.08778353865578 197.51884032464767 110.00292724838621
    vertex 127.28778360450423 206.23672465071195 110.05122317089287
  endloop
endfacet
facet normal 4.375363090944045e-09 -0.005539783419786594 0.9999846552821009
  outer loop
    vertex 127.28778351607875 197.51884032464767 110.00292724681286
    vertex 127.28778360450423 206.23672465071195 110.05122317089287
    vertex 125.08778353865578 197.51884032464767 110.00292724838621
  endloop
endfacet
facet normal -4.935039738295404e-09 -0.7933533402912517 -0.608761429008699
  outer loop
    vertex 127.28778358441838 206.55456189590774 115.73578506460848
    vertex 127.28778358788486 206.23672465071195 116.14999862698158
    vertex 125.08778358470796 206.5545618959954 115.73578508232895
  endloop
endfacet
facet normal -4.935039738295404e-09 -0.7933533402912517 -0.608761429008699
  outer loop
    vertex 125.08778358817445 206.23672465079963 116.14999864470205
    vertex 125.08778358470796 206.5545618959954 115.73578508232895
    vertex 127.28778358788486 206.23672465071195 116.14999862698158
  endloop
endfacet
facet normal -6.414493074165621e-09 -0.6087614290086991 -0.7933533402912518
  outer loop
    vertex 125.08778358205362 206.9687754583685 115.41794783713318
    vertex 127.28778358176405 206.96877545828082 115.41794781941272
    vertex 125.08778358470796 206.5545618959954 115.73578508232895
  endloop
endfacet
facet normal -6.414493074165621e-09 -0.6087614290086991 -0.7933533402912518
  outer loop
    vertex 127.28778358441838 206.55456189590774 115.73578506460848
    vertex 125.08778358470796 206.5545618959954 115.73578508232895
    vertex 127.28778358176405 206.96877545828082 115.41794781941272
  endloop
endfacet
facet normal -7.456842802615823e-09 -0.38268343236510755 -0.9238795325112795
  outer loop
    vertex 125.08778358039237 207.45113736816347 115.2181469921239
    vertex 127.28778358010278 207.4511373680758 115.21814697440344
    vertex 125.08778358205362 206.9687754583685 115.41794783713318
  endloop
endfacet
facet normal -7.456842802615823e-09 -0.38268343236510755 -0.9238795325112795
  outer loop
    vertex 127.28778358176405 206.96877545828082 115.41794781941272
    vertex 125.08778358205362 206.9687754583685 115.41794783713318
    vertex 127.28778358010278 207.4511373680758 115.21814697440344
  endloop
endfacet
facet normal -7.991021017083404e-09 -0.13052619222003511 -0.9914448613738126
  outer loop
    vertex 125.08778357983735 207.9687754583685 115.14999864470205
    vertex 127.28778357954778 207.96877545828082 115.14999862698158
    vertex 125.08778358039237 207.45113736816347 115.2181469921239
  endloop
endfacet
facet normal -7.991021017083404e-09 -0.13052619222003511 -0.9914448613738126
  outer loop
    vertex 127.28778358010278 207.4511373680758 115.21814697440344
    vertex 125.08778358039237 207.45113736816347 115.2181469921239
    vertex 127.28778357954778 207.96877545828082 115.14999862698158
  endloop
endfacet
facet normal -7.980624355023252e-09 0.13052619222007758 -0.9914448613738069
  outer loop
    vertex 125.08778357983735 207.9687754583685 115.14999864470205
    vertex 125.08778358042647 208.48641354857352 115.21814699212392
    vertex 127.28778357954778 207.96877545828082 115.14999862698158
  endloop
endfacet
facet normal -7.980624355023252e-09 0.13052619222007758 -0.9914448613738069
  outer loop
    vertex 127.28778358013687 208.48641354848584 115.21814697440345
    vertex 127.28778357954778 207.96877545828082 115.14999862698158
    vertex 125.08778358042647 208.48641354857352 115.21814699212392
  endloop
endfacet
facet normal -7.426361331773727e-09 0.38268343236507063 -0.9238795325112947
  outer loop
    vertex 125.08778358042647 208.48641354857352 115.21814699212392
    vertex 125.0877835821195 208.9687754583685 115.41794783713318
    vertex 127.28778358013687 208.48641354848584 115.21814697440345
  endloop
endfacet
facet normal -7.426361331773727e-09 0.38268343236507063 -0.9238795325112947
  outer loop
    vertex 127.28778358182991 208.96877545828082 115.41794781941272
    vertex 127.28778358013687 208.48641354848584 115.21814697440345
    vertex 125.0877835821195 208.9687754583685 115.41794783713318
  endloop
endfacet
facet normal -6.366004056406176e-09 0.6087614290086991 -0.7933533402912518
  outer loop
    vertex 125.0877835821195 208.9687754583685 115.41794783713318
    vertex 125.08778358480113 209.3829890207416 115.73578508232895
    vertex 127.28778358182991 208.96877545828082 115.41794781941272
  endloop
endfacet
facet normal -6.366004056406176e-09 0.6087614290086991 -0.7933533402912518
  outer loop
    vertex 127.28778358451153 209.38298902065392 115.73578506460848
    vertex 127.28778358182991 208.96877545828082 115.41794781941272
    vertex 125.08778358480113 209.3829890207416 115.73578508232895
  endloop
endfacet
facet normal -4.871814124913295e-09 0.7933533402912518 -0.6087614290086991
  outer loop
    vertex 127.28778358451153 209.38298902065392 115.73578506460848
    vertex 125.08778358480113 209.3829890207416 115.73578508232895
    vertex 127.28778358799897 209.70082626584968 116.14999862698158
  endloop
endfacet
facet normal -4.871814124913295e-09 0.7933533402912518 -0.6087614290086991
  outer loop
    vertex 125.08778358828854 209.70082626593737 116.14999864470205
    vertex 127.28778358799897 209.70082626584968 116.14999862698158
    vertex 125.08778358480113 209.3829890207416 115.73578508232895
  endloop
endfacet
facet normal -3.0456181118615213e-09 0.9238795325112884 -0.38268343236508595
  outer loop
    vertex 127.28778358799897 209.70082626584968 116.14999862698158
    vertex 125.08778358828854 209.70082626593737 116.14999864470205
    vertex 127.28778359205455 209.90062711085895 116.63236053677653
  endloop
endfacet
facet normal -3.0456181118615213e-09 0.9238795325112884 -0.38268343236508595
  outer loop
    vertex 125.08778359234415 209.9006271109466 116.632360554497
    vertex 127.28778359205455 209.90062711085895 116.63236053677653
    vertex 125.08778358828854 209.70082626593737 116.14999864470205
  endloop
endfacet
facet normal -1.011868257608339e-09 0.9914448613738077 -0.13052619222007197
  outer loop
    vertex 127.28778359205455 209.90062711085895 116.63236053677653
    vertex 125.08778359234415 209.9006271109466 116.632360554497
    vertex 127.28778359640192 209.96877545828082 117.14999862698158
  endloop
endfacet
facet normal -1.011868257608339e-09 0.9914448613738077 -0.13052619222007197
  outer loop
    vertex 125.08778359669151 209.9687754583685 117.14999864470205
    vertex 127.28778359640192 209.96877545828082 117.14999862698158
    vertex 125.08778359234415 209.9006271109466 116.632360554497
  endloop
endfacet
facet normal 1.0908387462100046e-09 0.9914448613738077 0.13052619222007197
  outer loop
    vertex 127.28778359640192 209.96877545828082 117.14999862698158
    vertex 125.08778359669151 209.9687754583685 117.14999864470205
    vertex 127.2877836007448 209.90062711085895 117.66763671718662
  endloop
endfacet
facet normal 1.0908387462100046e-09 0.9914448613738077 0.13052619222007197
  outer loop
    vertex 125.08778360103439 209.9006271109466 117.66763673490709
    vertex 127.2877836007448 209.90062711085895 117.66763671718662
    vertex 125.08778359669151 209.9687754583685 117.14999864470205
  endloop
endfacet
facet normal 3.1192068921698867e-09 0.9238795325112884 0.38268343236508595
  outer loop
    vertex 127.2877836007448 209.90062711085895 117.66763671718662
    vertex 125.08778360103439 209.9006271109466 117.66763673490709
    vertex 127.28778360478724 209.70082626584968 118.14999862698157
  endloop
endfacet
facet normal 3.1192068921698867e-09 0.9238795325112884 0.38268343236508595
  outer loop
    vertex 125.08778360507682 209.70082626593737 118.14999864470204
    vertex 127.28778360478724 209.70082626584968 118.14999862698157
    vertex 125.08778360103439 209.9006271109466 117.66763673490709
  endloop
endfacet
facet normal 4.935006243161555e-09 0.7933533402912518 0.6087614290086991
  outer loop
    vertex 127.28778360478724 209.70082626584968 118.14999862698157
    vertex 125.08778360507682 209.70082626593737 118.14999864470204
    vertex 127.28778360825372 209.38298902065392 118.56421218935468
  endloop
endfacet
facet normal 4.935006243161555e-09 0.7933533402912518 0.6087614290086991
  outer loop
    vertex 125.0877836085433 209.3829890207416 118.56421220707514
    vertex 127.28778360825372 209.38298902065392 118.56421218935468
    vertex 125.08778360507682 209.70082626593737 118.14999864470204
  endloop
endfacet
facet normal 6.414493074165621e-09 0.6087614290086991 0.7933533402912518
  outer loop
    vertex 125.0877836085433 209.3829890207416 118.56421220707514
    vertex 125.08778361119764 208.9687754583685 118.8820494522709
    vertex 127.28778360825372 209.38298902065392 118.56421218935468
  endloop
endfacet
facet normal 6.414493074165621e-09 0.6087614290086991 0.7933533402912518
  outer loop
    vertex 127.28778361090806 208.96877545828082 118.88204943455044
    vertex 127.28778360825372 209.38298902065392 118.56421218935468
    vertex 125.08778361119764 208.9687754583685 118.8820494522709
  endloop
endfacet
facet normal 7.456842802615823e-09 0.38268343236510755 0.9238795325112795
  outer loop
    vertex 125.08778361119764 208.9687754583685 118.8820494522709
    vertex 125.0877836128589 208.48641354857352 119.08185029728018
    vertex 127.28778361090806 208.96877545828082 118.88204943455044
  endloop
endfacet
facet normal 7.456842802615823e-09 0.38268343236510755 0.9238795325112795
  outer loop
    vertex 127.28778361256931 208.48641354848584 119.08185027955972
    vertex 127.28778361090806 208.96877545828082 118.88204943455044
    vertex 125.0877836128589 208.48641354857352 119.08185029728018
  endloop
endfacet
facet normal 7.991021017083404e-09 0.13052619222003511 0.9914448613738126
  outer loop
    vertex 125.0877836128589 208.48641354857352 119.08185029728018
    vertex 125.0877836134139 207.9687754583685 119.14999864470204
    vertex 127.28778361256931 208.48641354848584 119.08185027955972
  endloop
endfacet
facet normal 7.991021017083404e-09 0.13052619222003511 0.9914448613738126
  outer loop
    vertex 127.28778361312433 207.96877545828082 119.14999862698157
    vertex 127.28778361256931 208.48641354848584 119.08185027955972
    vertex 125.0877836134139 207.9687754583685 119.14999864470204
  endloop
endfacet
facet normal 7.980624355023252e-09 -0.13052619222007758 0.9914448613738069
  outer loop
    vertex 125.08778361282482 207.45113736816347 119.08185029728017
    vertex 127.28778361253522 207.4511373680758 119.0818502795597
    vertex 125.0877836134139 207.9687754583685 119.14999864470204
  endloop
endfacet
facet normal 7.980624355023252e-09 -0.13052619222007758 0.9914448613738069
  outer loop
    vertex 127.28778361312433 207.96877545828082 119.14999862698157
    vertex 125.0877836134139 207.9687754583685 119.14999864470204
    vertex 127.28778361253522 207.4511373680758 119.0818502795597
  endloop
endfacet
facet normal 7.426361331773727e-09 -0.38268343236507063 0.9238795325112947
  outer loop
    vertex 125.08778361113177 206.9687754583685 118.8820494522709
    vertex 127.28778361084218 206.96877545828082 118.88204943455044
    vertex 125.08778361282482 207.45113736816347 119.08185029728017
  endloop
endfacet
facet normal 7.426361331773727e-09 -0.38268343236507063 0.9238795325112947
  outer loop
    vertex 127.28778361253522 207.4511373680758 119.0818502795597
    vertex 125.08778361282482 207.45113736816347 119.08185029728017
    vertex 127.28778361084218 206.96877545828082 118.88204943455044
  endloop
endfacet
facet normal 6.366004056406176e-09 -0.6087614290086991 0.7933533402912518
  outer loop
    vertex 125.08778360845018 206.5545618959954 118.56421220707514
    vertex 127.28778360816058 206.55456189590774 118.56421218935468
    vertex 125.08778361113177 206.9687754583685 118.8820494522709
  endloop
endfacet
facet normal 6.366004056406176e-09 -0.6087614290086991 0.7933533402912518
  outer loop
    vertex 127.28778361084218 206.96877545828082 118.88204943455044
    vertex 125.08778361113177 206.9687754583685 118.8820494522709
    vertex 127.28778360816058 206.55456189590774 118.56421218935468
  endloop
endfacet
facet normal 4.8718115501476005e-09 -0.7933533402912517 0.608761429008699
  outer loop
    vertex 127.28778360467314 206.23672465071195 118.14999862698157
    vertex 127.28778360816058 206.55456189590774 118.56421218935468
    vertex 125.08778360496271 206.23672465079963 118.14999864470204
  endloop
endfacet
facet normal 4.8718115501476005e-09 -0.7933533402912517 0.608761429008699
  outer loop
    vertex 125.08778360845018 206.5545618959954 118.56421220707514
    vertex 125.08778360496271 206.23672465079963 118.14999864470204
    vertex 127.28778360816058 206.55456189590774 118.56421218935468
  endloop
endfacet
facet normal -4.384813822133336e-09 0.005539783422156005 -0.9999846552820878
  outer loop
    vertex 125.08778358817445 206.23672465079963 116.14999864470205
    vertex 127.28778358788486 206.23672465071195 116.14999862698158
    vertex 125.08778359584615 197.5188403246478 116.10170270447506
  endloop
endfacet
facet normal -4.384813822133336e-09 0.005539783422156005 -0.9999846552820878
  outer loop
    vertex 127.28778359403117 197.5188403246478 116.10170270290156
    vertex 125.08778359584615 197.5188403246478 116.10170270447506
    vertex 127.28778358788486 206.23672465071195 116.14999862698158
  endloop
endfacet
facet normal -2.5776469913760734e-09 -0.7933533402912517 -0.6087614290086991
  outer loop
    vertex 127.28778358436202 206.55456189590774 107.63700960851978
    vertex 127.2877835877891 206.23672465071195 108.05122317089288
    vertex 125.08778349480363 206.5545618895176 107.63700962616291
  endloop
endfacet
facet normal -2.5776469913760734e-09 -0.7933533402912517 -0.6087614290086991
  outer loop
    vertex 125.08778349823073 206.2367246443218 108.05122318853601
    vertex 125.08778349480363 206.5545618895176 107.63700962616291
    vertex 127.2877835877891 206.23672465071195 108.05122317089288
  endloop
endfacet
facet normal -4.5941655374353915e-09 -0.6087614290086991 -0.7933533402912518
  outer loop
    vertex 125.08778349219261 206.96877545189068 107.31917238096715
    vertex 127.28778358175099 206.96877545828082 107.31917236332401
    vertex 125.08778349480363 206.5545618895176 107.63700962616291
  endloop
endfacet
facet normal -4.5941655374353915e-09 -0.6087614290086991 -0.7933533402912518
  outer loop
    vertex 127.28778358436202 206.55456189590774 107.63700960851978
    vertex 125.08778349480363 206.5545618895176 107.63700962616291
    vertex 127.28778358175099 206.96877545828082 107.31917236332401
  endloop
endfacet
facet normal -6.297617560202839e-09 -0.38268343236510755 -0.9238795325112795
  outer loop
    vertex 125.08778349057549 207.45113736168565 107.11937153595787
    vertex 127.28778358013388 207.4511373680758 107.11937151831474
    vertex 125.08778349219261 206.96877545189068 107.31917238096715
  endloop
endfacet
facet normal -6.297617560202839e-09 -0.38268343236510755 -0.9238795325112795
  outer loop
    vertex 127.28778358175099 206.96877545828082 107.31917236332401
    vertex 125.08778349219261 206.96877545189068 107.31917238096715
    vertex 127.28778358013388 207.4511373680758 107.11937151831474
  endloop
endfacet
facet normal -7.571897353548029e-09 -0.13052619222003511 -0.9914448613738126
  outer loop
    vertex 125.08778349006252 207.96877545189068 107.05122318853601
    vertex 127.2877835796209 207.96877545828082 107.05122317089288
    vertex 125.08778349057549 207.45113736168565 107.11937153595787
  endloop
endfacet
facet normal -7.571897353548029e-09 -0.13052619222003511 -0.9914448613738126
  outer loop
    vertex 127.28778358013388 207.4511373680758 107.11937151831474
    vertex 125.08778349057549 207.45113736168565 107.11937153595787
    vertex 127.2877835796209 207.96877545828082 107.05122317089288
  endloop
endfacet
facet normal -8.33016485540067e-09 0.13052619222003511 -0.9914448613738126
  outer loop
    vertex 125.08778349006252 207.96877545189068 107.05122318853601
    vertex 125.0877834906887 208.4864135420957 107.11937153595787
    vertex 127.2877835796209 207.96877545828082 107.05122317089288
  endloop
endfacet
facet normal -8.33016485540067e-09 0.13052619222003511 -0.9914448613738126
  outer loop
    vertex 127.28778358024708 208.48641354848584 107.11937151831474
    vertex 127.2877835796209 207.96877545828082 107.05122317089288
    vertex 125.0877834906887 208.4864135420957 107.11937153595787
  endloop
endfacet
facet normal -8.520745388606187e-09 0.38268343236510743 -0.9238795325112793
  outer loop
    vertex 125.0877834906887 208.4864135420957 107.11937153595787
    vertex 125.0877834924113 208.96877545189068 107.31917238096715
    vertex 127.28778358024708 208.48641354848584 107.11937151831474
  endloop
endfacet
facet normal -8.520745388606187e-09 0.38268343236510743 -0.9238795325112793
  outer loop
    vertex 127.28778358196968 208.96877545828082 107.31917236332401
    vertex 127.28778358024708 208.48641354848584 107.11937151831474
    vertex 125.0877834924113 208.96877545189068 107.31917238096715
  endloop
endfacet
facet normal -8.130651204775785e-09 0.6087614290086991 -0.7933533402912518
  outer loop
    vertex 125.0877834924113 208.96877545189068 107.31917238096715
    vertex 125.08778349511293 209.38298901426379 107.63700962616291
    vertex 127.28778358196968 208.96877545828082 107.31917236332401
  endloop
endfacet
facet normal -8.130651204775785e-09 0.6087614290086991 -0.7933533402912518
  outer loop
    vertex 127.28778358467132 209.38298902065392 107.63700960851978
    vertex 127.28778358196968 208.96877545828082 107.31917236332401
    vertex 125.08778349511293 209.38298901426379 107.63700962616291
  endloop
endfacet
facet normal -7.1864665778760615e-09 0.7933533402912518 -0.6087614290086991
  outer loop
    vertex 127.28778358467132 209.38298902065392 107.63700960851978
    vertex 125.08778349511293 209.38298901426379 107.63700962616291
    vertex 127.28778358816787 209.70082626584968 108.05122317089288
  endloop
endfacet
facet normal -7.1864665778760615e-09 0.7933533402912518 -0.6087614290086991
  outer loop
    vertex 125.08778349860951 209.70082625945955 108.05122318853601
    vertex 127.28778358816787 209.70082626584968 108.05122317089288
    vertex 125.08778349511293 209.38298901426379 107.63700962616291
  endloop
endfacet
facet normal -5.752536129891915e-09 0.9238795325112884 -0.38268343236508595
  outer loop
    vertex 127.28778358816787 209.70082626584968 108.05122317089288
    vertex 125.08778349860951 209.70082625945955 108.05122318853601
    vertex 127.28778359222109 209.90062711085895 108.53358508068783
  endloop
endfacet
facet normal -5.752536129891915e-09 0.9238795325112884 -0.38268343236508595
  outer loop
    vertex 125.08778350266273 209.9006271044688 108.53358509833096
    vertex 127.28778359222109 209.90062711085895 108.53358508068783
    vertex 125.08778349860951 209.70082625945955 108.05122318853601
  endloop
endfacet
facet normal -3.926579851171155e-09 0.9914448613738077 -0.13052619222007197
  outer loop
    vertex 127.28778359222109 209.90062711085895 108.53358508068783
    vertex 125.08778350266273 209.9006271044688 108.53358509833096
    vertex 127.28778359655475 209.96877545828082 109.05122317089288
  endloop
endfacet
facet normal -3.926579851171155e-09 0.9914448613738077 -0.13052619222007197
  outer loop
    vertex 125.08778350699636 209.96877545189068 109.05122318853601
    vertex 127.28778359655475 209.96877545828082 109.05122317089288
    vertex 125.08778350266273 209.9006271044688 108.53358509833096
  endloop
endfacet
facet normal -1.833033644572595e-09 0.9914448613738077 0.130526192220072
  outer loop
    vertex 127.28778359655475 209.96877545828082 109.05122317089288
    vertex 125.08778350699636 209.96877545189068 109.05122318853601
    vertex 127.2877836008735 209.90062711085895 109.56886126109792
  endloop
endfacet
facet normal -1.833033644572595e-09 0.9914448613738077 0.130526192220072
  outer loop
    vertex 125.08778351131511 209.9006271044688 109.56886127874105
    vertex 127.2877836008735 209.90062711085895 109.56886126109792
    vertex 125.08778350699636 209.96877545189068 109.05122318853601
  endloop
endfacet
facet normal 3.8543077567173985e-10 0.9238795325112884 0.38268343236508595
  outer loop
    vertex 127.2877836008735 209.90062711085895 109.56886126109792
    vertex 125.08778351131511 209.9006271044688 109.56886127874105
    vertex 127.287783604883 209.70082626584968 110.05122317089287
  endloop
endfacet
facet normal 3.8543077567173985e-10 0.9238795325112884 0.38268343236508595
  outer loop
    vertex 125.08778351532465 209.70082625945955 110.051223188536
    vertex 127.287783604883 209.70082626584968 110.05122317089287
    vertex 125.08778351131511 209.9006271044688 109.56886127874105
  endloop
endfacet
facet normal 2.577628725508538e-09 0.7933533402912518 0.6087614290086991
  outer loop
    vertex 127.287783604883 209.70082626584968 110.05122317089287
    vertex 125.08778351532465 209.70082625945955 110.051223188536
    vertex 127.28778360831008 209.38298902065392 110.46543673326597
  endloop
endfacet
facet normal 2.577628725508538e-09 0.7933533402912518 0.6087614290086991
  outer loop
    vertex 125.08778351875169 209.38298901426379 110.4654367509091
    vertex 127.28778360831008 209.38298902065392 110.46543673326597
    vertex 125.08778351532465 209.70082625945955 110.051223188536
  endloop
endfacet
facet normal 4.5941655374353915e-09 0.6087614290086991 0.7933533402912518
  outer loop
    vertex 125.08778351875169 209.38298901426379 110.4654367509091
    vertex 125.08778352136275 208.96877545189068 110.78327399610487
    vertex 127.28778360831008 209.38298902065392 110.46543673326597
  endloop
endfacet
facet normal 4.5941655374353915e-09 0.6087614290086991 0.7933533402912518
  outer loop
    vertex 127.28778361092112 208.96877545828082 110.78327397846174
    vertex 127.28778360831008 209.38298902065392 110.46543673326597
    vertex 125.08778352136275 208.96877545189068 110.78327399610487
  endloop
endfacet
facet normal 6.297617560202839e-09 0.38268343236510755 0.9238795325112795
  outer loop
    vertex 125.08778352136275 208.96877545189068 110.78327399610487
    vertex 125.08778352297983 208.4864135420957 110.98307484111415
    vertex 127.28778361092112 208.96877545828082 110.78327397846174
  endloop
endfacet
facet normal 6.297617560202839e-09 0.38268343236510755 0.9238795325112795
  outer loop
    vertex 127.28778361253822 208.48641354848584 110.98307482347101
    vertex 127.28778361092112 208.96877545828082 110.78327397846174
    vertex 125.08778352297983 208.4864135420957 110.98307484111415
  endloop
endfacet
facet normal 7.571897353548029e-09 0.13052619222003511 0.9914448613738126
  outer loop
    vertex 125.08778352297983 208.4864135420957 110.98307484111415
    vertex 125.0877835234928 207.96877545189068 111.051223188536
    vertex 127.28778361253822 208.48641354848584 110.98307482347101
  endloop
endfacet
facet normal 7.571897353548029e-09 0.13052619222003511 0.9914448613738126
  outer loop
    vertex 127.28778361305119 207.96877545828082 111.05122317089287
    vertex 127.28778361253822 208.48641354848584 110.98307482347101
    vertex 125.0877835234928 207.96877545189068 111.051223188536
  endloop
endfacet
facet normal 8.330164855400748e-09 -0.13052619222007758 0.9914448613738069
  outer loop
    vertex 125.08778352286663 207.45113736168565 110.98307484111413
    vertex 127.28778361242502 207.4511373680758 110.983074823471
    vertex 125.0877835234928 207.96877545189068 111.051223188536
  endloop
endfacet
facet normal 8.330164855400748e-09 -0.13052619222007758 0.9914448613738069
  outer loop
    vertex 127.28778361305119 207.96877545828082 111.05122317089287
    vertex 125.0877835234928 207.96877545189068 111.051223188536
    vertex 127.28778361242502 207.4511373680758 110.983074823471
  endloop
endfacet
facet normal 8.520745388606203e-09 -0.38268343236507063 0.9238795325112947
  outer loop
    vertex 125.08778352114406 206.96877545189068 110.78327399610487
    vertex 127.28778361070242 206.96877545828082 110.78327397846174
    vertex 125.08778352286663 207.45113736168565 110.98307484111413
  endloop
endfacet
facet normal 8.520745388606203e-09 -0.38268343236507063 0.9238795325112947
  outer loop
    vertex 127.28778361242502 207.4511373680758 110.983074823471
    vertex 125.08778352286663 207.45113736168565 110.98307484111413
    vertex 127.28778361070242 206.96877545828082 110.78327397846174
  endloop
endfacet
facet normal 8.130651204775785e-09 -0.6087614290086991 0.7933533402912518
  outer loop
    vertex 125.0877835184424 206.5545618895176 110.4654367509091
    vertex 127.28778360800078 206.55456189590774 110.46543673326597
    vertex 125.08778352114406 206.96877545189068 110.78327399610487
  endloop
endfacet
facet normal 8.130651204775785e-09 -0.6087614290086991 0.7933533402912518
  outer loop
    vertex 127.28778361070242 206.96877545828082 110.78327397846174
    vertex 125.08778352114406 206.96877545189068 110.78327399610487
    vertex 127.28778360800078 206.55456189590774 110.46543673326597
  endloop
endfacet
facet normal 7.186405330135968e-09 -0.7933533402912517 0.608761429008699
  outer loop
    vertex 127.28778360450423 206.23672465071195 110.05122317089287
    vertex 127.28778360800078 206.55456189590774 110.46543673326597
    vertex 125.08778351494587 206.2367246443218 110.051223188536
  endloop
endfacet
facet normal 7.186405330135968e-09 -0.7933533402912517 0.608761429008699
  outer loop
    vertex 125.0877835184424 206.5545618895176 110.4654367509091
    vertex 125.08778351494587 206.2367246443218 110.051223188536
    vertex 127.28778360800078 206.55456189590774 110.46543673326597
  endloop
endfacet
endsolid Design - Rolled
