solid Design - Rolled
facet normal -0.38268343236496993 0.9238795325113364 4.458352835428539e-14
  outer loop
    vertex 66.0154289773391 -284.9419494492569 -10.999999668451608
    vertex 67.82428613907015 -284.19269628047334 11.000000082832862
    vertex 67.82428613907004 -284.192696280473 -10.999999695405482
  endloop
endfacet
facet normal -0.38268343236496993 0.9238795325113364 4.458352835428539e-14
  outer loop
    vertex 67.82428613907015 -284.19269628047334 11.000000082832862
    vertex 66.0154289773391 -284.9419494492569 -10.999999668451608
    vertex 66.0154289773391 -284.9419494492587 11.000000055878992
  endloop
endfacet
facet normal -0.13052619222005282 -0.9914448613738103 -1.4395393576002394e-14
  outer loop
    vertex 69.76542897733907 -298.93713997764115 11.000000111757936
    vertex 67.82428613907014 -298.68158367480885 -10.999999695405485
    vertex 69.76542897733904 -298.93713997764087 -10.999999724330559
  endloop
endfacet
facet normal -0.13052619222005282 -0.9914448613738103 -1.4395393576002394e-14
  outer loop
    vertex 67.82428613907014 -298.68158367480885 -10.999999695405485
    vertex 69.76542897733907 -298.93713997764115 11.000000111757936
    vertex 67.82428613907005 -298.6815836748092 11.000000082832862
  endloop
endfacet
facet normal 0.582396025814162 -0.8129052030316143 -3.8952637579308834e-14
  outer loop
    vertex 72.62898090990672 -297.3119403466353 11.000000154427854
    vertex 71.28321931200136 -298.2760948426206 -10.99999974694723
    vertex 72.62898090990669 -297.31194034663497 -10.999999767000498
  endloop
endfacet
facet normal 0.582396025814162 -0.8129052030316143 -3.8952637579308834e-14
  outer loop
    vertex 71.28321931200136 -298.2760948426206 -10.99999974694723
    vertex 72.62898090990672 -297.3119403466353 11.000000154427854
    vertex 71.28321931200139 -298.27609484262234 11.00000013437461
  endloop
endfacet
facet normal 0.5823960258143542 0.8129052030314765 3.833296621353092e-14
  outer loop
    vertex 71.28321931200138 -284.59818511265985 -10.99999974694723
    vertex 72.6289809099067 -285.5623396086472 11.000000154427875
    vertex 72.6289809099067 -285.5623396086469 -10.999999767000473
  endloop
endfacet
facet normal 0.5823960258143542 0.8129052030314765 3.833296621353092e-14
  outer loop
    vertex 72.6289809099067 -285.5623396086472 11.000000154427875
    vertex 71.28321931200138 -284.59818511265985 -10.99999974694723
    vertex 71.28321931200138 -284.5981851126616 11.00000013437461
  endloop
endfacet
facet normal -0.99144486137381 0.13052619222005538 2.4677808044344596e-15
  outer loop
    vertex 62.52098528017113 -289.4959971393723 11.000000003808097
    vertex 62.26542897733912 -291.4371399776409 -10.999999612572658
    vertex 62.265428977339134 -291.43713997764127 11.000000000000036
  endloop
endfacet
facet normal -0.99144486137381 0.13052619222005538 2.4677808044344596e-15
  outer loop
    vertex 62.26542897733912 -291.4371399776409 -10.999999612572658
    vertex 62.52098528017113 -289.4959971393723 11.000000003808097
    vertex 62.52098528017112 -289.49599713937204 -10.999999616380716
  endloop
endfacet
facet normal -0.9238795325112888 0.382683432365085 4.4744986700215965e-15
  outer loop
    vertex 63.27023844895578 -287.6871399776412 11.00000001497276
    vertex 62.52098528017112 -289.49599713937204 -10.999999616380716
    vertex 62.52098528017113 -289.4959971393723 11.000000003808097
  endloop
endfacet
facet normal -0.9238795325112888 0.382683432365085 4.4744986700215965e-15
  outer loop
    vertex 62.52098528017112 -289.49599713937204 -10.999999616380716
    vertex 63.27023844895578 -287.6871399776412 11.00000001497276
    vertex 63.270238448955766 -287.68713997764104 -10.999999627545378
  endloop
endfacet
facet normal 0.7396763866583711 0.6729627352387472 9.773293535848128e-15
  outer loop
    vertex 73.74306826293166 -286.7868711682063 -10.99999978360157
    vertex 72.6289809099067 -285.5623396086472 11.000000154427875
    vertex 73.74306826293166 -286.78687116820663 11.000000171028951
  endloop
endfacet
facet normal 0.7396763866583711 0.6729627352387472 9.773293535848128e-15
  outer loop
    vertex 72.6289809099067 -285.5623396086472 11.000000154427875
    vertex 73.74306826293166 -286.7868711682063 -10.99999978360157
    vertex 72.75390517648879 -285.69964814784646 -10.999999724330547
  endloop
endfacet
facet normal 0.7396763866583711 0.6729627352387472 9.773293535848128e-15
  outer loop
    vertex 72.6289809099067 -285.5623396086472 11.000000154427875
    vertex 72.75390517648879 -285.69964814784646 -10.999999724330547
    vertex 72.6289809099067 -285.5623396086469 -10.999999767000473
  endloop
endfacet
facet normal 0.7396763866583697 -0.6729627352387486 -1.047542923763397e-14
  outer loop
    vertex 72.62898090990669 -297.31194034663497 -10.999999767000498
    vertex 73.74306826293167 -296.0874087870759 11.000000171028951
    vertex 72.62898090990672 -297.3119403466353 11.000000154427854
  endloop
endfacet
facet normal 0.7396763866583697 -0.6729627352387486 -1.047542923763397e-14
  outer loop
    vertex 73.74306826293167 -296.0874087870759 11.000000171028951
    vertex 72.62898090990669 -297.31194034663497 -10.999999767000498
    vertex 72.75390517648904 -297.1746318074351 -10.999999724330559
  endloop
endfacet
facet normal 0.7396763866583697 -0.6729627352387486 -1.047542923763397e-14
  outer loop
    vertex 73.74306826293167 -296.0874087870759 11.000000171028951
    vertex 72.75390517648904 -297.1746318074351 -10.999999724330559
    vertex 73.74306826293164 -296.08740878707556 -10.999999783601572
  endloop
endfacet
facet normal -0.9238795325112932 -0.38268343236507407 -3.3718700176004122e-15
  outer loop
    vertex 62.52098528017113 -293.37828281591015 11.000000003808097
    vertex 63.270238448955766 -295.187139977641 -10.999999627545378
    vertex 63.27023844895578 -295.1871399776411 11.00000001497276
  endloop
endfacet
facet normal -0.9238795325112932 -0.38268343236507407 -3.3718700176004122e-15
  outer loop
    vertex 63.270238448955766 -295.187139977641 -10.999999627545378
    vertex 62.52098528017113 -293.37828281591015 11.000000003808097
    vertex 62.52098528017112 -293.37828281590987 -10.999999616380718
  endloop
endfacet
facet normal 0.9944444421133865 0.10526277380819692 7.465785788684139e-16
  outer loop
    vertex 75.26542897733913 -291.4371399776409 -10.999999806286347
    vertex 75.09116683932874 -289.7908408317436 11.000000191117039
    vertex 75.26542897733914 -291.43713997764127 11.000000193713731
  endloop
endfacet
facet normal 0.9944444421133865 0.10526277380819692 7.465785788684139e-16
  outer loop
    vertex 75.09116683932874 -289.7908408317436 11.000000191117039
    vertex 75.26542897733913 -291.4371399776409 -10.999999806286347
    vertex 75.09116683932871 -289.7908408317433 -10.99999980368966
  endloop
endfacet
facet normal -0.608761429008652 -0.7933533402912878 -3.8162301934974594e-14
  outer loop
    vertex 66.0154289773391 -297.93233050602527 11.000000055878992
    vertex 64.46212811843995 -296.74044083653996 -10.999999645305765
    vertex 66.0154289773391 -297.9323305060235 -10.999999668451608
  endloop
endfacet
facet normal -0.608761429008652 -0.7933533402912878 -3.8162301934974594e-14
  outer loop
    vertex 64.46212811843995 -296.74044083653996 -10.999999645305765
    vertex 66.0154289773391 -297.93233050602527 11.000000055878992
    vertex 64.46212811843989 -296.74044083654024 11.000000032733169
  endloop
endfacet
facet normal -0.7933533402912321 -0.6087614290087248 -7.197133574333684e-15
  outer loop
    vertex 63.27023844895578 -295.1871399776411 11.00000001497276
    vertex 64.46212811843995 -296.74044083653996 -10.999999645305765
    vertex 64.46212811843989 -296.74044083654024 11.000000032733169
  endloop
endfacet
facet normal -0.7933533402912321 -0.6087614290087248 -7.197133574333684e-15
  outer loop
    vertex 64.46212811843995 -296.74044083653996 -10.999999645305765
    vertex 63.27023844895578 -295.1871399776411 11.00000001497276
    vertex 63.270238448955766 -295.187139977641 -10.999999627545378
  endloop
endfacet
facet normal -0.6087614290087996 0.7933533402911748 3.886849870145169e-14
  outer loop
    vertex 64.46212811843988 -286.13383911874195 -10.999999645305786
    vertex 66.0154289773391 -284.9419494492587 11.000000055878992
    vertex 66.0154289773391 -284.9419494492569 -10.999999668451608
  endloop
endfacet
facet normal -0.6087614290087996 0.7933533402911748 3.886849870145169e-14
  outer loop
    vertex 66.0154289773391 -284.9419494492587 11.000000055878992
    vertex 64.46212811843988 -286.13383911874195 -10.999999645305786
    vertex 64.46212811843996 -286.13383911874223 11.000000032733148
  endloop
endfacet
facet normal -0.7933533402912489 0.6087614290087028 8.133314604673731e-15
  outer loop
    vertex 64.46212811843996 -286.13383911874223 11.000000032733148
    vertex 63.270238448955766 -287.68713997764104 -10.999999627545378
    vertex 63.27023844895578 -287.6871399776412 11.00000001497276
  endloop
endfacet
facet normal -0.7933533402912489 0.6087614290087028 8.133314604673731e-15
  outer loop
    vertex 63.270238448955766 -287.68713997764104 -10.999999627545378
    vertex 64.46212811843996 -286.13383911874223 11.000000032733148
    vertex 64.46212811843988 -286.13383911874195 -10.999999645305786
  endloop
endfacet
facet normal 0.3993032870997728 -0.9168188942813714 -4.3667400869415045e-14
  outer loop
    vertex 71.28321931200139 -298.27609484262234 11.00000013437461
    vertex 69.76542897733904 -298.93713997764087 -10.999999724330559
    vertex 71.28321931200136 -298.2760948426206 -10.99999974694723
  endloop
endfacet
facet normal 0.3993032870997728 -0.9168188942813714 -4.3667400869415045e-14
  outer loop
    vertex 69.76542897733904 -298.93713997764087 -10.999999724330559
    vertex 71.28321931200139 -298.27609484262234 11.00000013437461
    vertex 69.76542897733907 -298.93713997764115 11.000000111757936
  endloop
endfacet
facet normal 0.9503696638297433 -0.3111229693740734 6.34567283613802e-16
  outer loop
    vertex 75.09116683932872 -293.0834391235386 -10.99999980368966
    vertex 74.5761038985965 -294.6567726347852 11.00000018344206
    vertex 74.5761038985965 -294.6567726347856 -10.999999796014679
  endloop
endfacet
facet normal 0.9503696638297433 -0.3111229693740734 6.34567283613802e-16
  outer loop
    vertex 74.5761038985965 -294.6567726347852 11.00000018344206
    vertex 75.09116683932872 -293.0834391235386 -10.99999980368966
    vertex 75.09116683932872 -293.0834391235389 11.000000191117039
  endloop
endfacet
facet normal 0.9944444421133865 -0.1052627738081969 -1.7656080293494144e-15
  outer loop
    vertex 75.09116683932872 -293.0834391235386 -10.99999980368966
    vertex 75.26542897733914 -291.43713997764127 11.000000193713731
    vertex 75.09116683932872 -293.0834391235389 11.000000191117039
  endloop
endfacet
facet normal 0.9944444421133865 -0.1052627738081969 -1.7656080293494144e-15
  outer loop
    vertex 75.26542897733914 -291.43713997764127 11.000000193713731
    vertex 75.09116683932872 -293.0834391235386 -10.99999980368966
    vertex 75.26542897733913 -291.4371399776409 -10.999999806286347
  endloop
endfacet
facet normal 0.3993032870995284 0.9168188942814779 4.3234321376755444e-14
  outer loop
    vertex 69.76542897733906 -283.93713997764104 -10.999999724330555
    vertex 71.28321931200138 -284.5981851126616 11.00000013437461
    vertex 71.28321931200138 -284.59818511265985 -10.99999974694723
  endloop
endfacet
facet normal 0.3993032870995284 0.9168188942814779 4.3234321376755444e-14
  outer loop
    vertex 71.28321931200138 -284.5981851126616 11.00000013437461
    vertex 69.76542897733906 -283.93713997764104 -10.999999724330555
    vertex 69.76542897733906 -283.9371399776413 11.000000111757936
  endloop
endfacet
facet normal -0.3826834323651743 -0.9238795325112517 -4.4149110270817024e-14
  outer loop
    vertex 67.82428613907005 -298.6815836748092 11.000000082832862
    vertex 66.0154289773391 -297.9323305060235 -10.999999668451608
    vertex 67.82428613907014 -298.68158367480885 -10.999999695405485
  endloop
endfacet
facet normal -0.3826834323651743 -0.9238795325112517 -4.4149110270817024e-14
  outer loop
    vertex 66.0154289773391 -297.9323305060235 -10.999999668451608
    vertex 67.82428613907005 -298.6815836748092 11.000000082832862
    vertex 66.0154289773391 -297.93233050602527 11.000000055878992
  endloop
endfacet
facet normal 0.8641735457840058 0.5031938818855994 -1.480708031273487e-15
  outer loop
    vertex 73.74306826293166 -286.7868711682063 -10.99999978360157
    vertex 74.57610389859651 -288.21750732049657 11.00000018344206
    vertex 74.57610389859649 -288.21750732049696 -10.999999796014675
  endloop
endfacet
facet normal 0.8641735457840058 0.5031938818855994 -1.480708031273487e-15
  outer loop
    vertex 74.57610389859651 -288.21750732049657 11.00000018344206
    vertex 73.74306826293166 -286.7868711682063 -10.99999978360157
    vertex 73.74306826293166 -286.78687116820663 11.000000171028951
  endloop
endfacet
facet normal 0.8641735457839681 -0.5031938818856644 5.836065926235422e-16
  outer loop
    vertex 73.74306826293164 -296.08740878707556 -10.999999783601572
    vertex 74.5761038985965 -294.6567726347852 11.00000018344206
    vertex 73.74306826293167 -296.0874087870759 11.000000171028951
  endloop
endfacet
facet normal 0.8641735457839681 -0.5031938818856644 5.836065926235422e-16
  outer loop
    vertex 74.5761038985965 -294.6567726347852 11.00000018344206
    vertex 73.74306826293164 -296.08740878707556 -10.999999783601572
    vertex 74.5761038985965 -294.6567726347856 -10.999999796014679
  endloop
endfacet
facet normal 0.9503696638297294 0.3111229693741164 -1.616277233419125e-15
  outer loop
    vertex 75.09116683932871 -289.7908408317433 -10.99999980368966
    vertex 74.57610389859651 -288.21750732049657 11.00000018344206
    vertex 75.09116683932874 -289.7908408317436 11.000000191117039
  endloop
endfacet
facet normal 0.9503696638297294 0.3111229693741164 -1.616277233419125e-15
  outer loop
    vertex 74.57610389859651 -288.21750732049657 11.00000018344206
    vertex 75.09116683932871 -289.7908408317433 -10.99999980368966
    vertex 74.57610389859649 -288.21750732049696 -10.999999796014675
  endloop
endfacet
facet normal -0.9914448613738096 -0.13052619222005726 -1.2784567599510453e-15
  outer loop
    vertex 62.265428977339134 -291.43713997764127 11.000000000000036
    vertex 62.52098528017112 -293.37828281590987 -10.999999616380718
    vertex 62.52098528017113 -293.37828281591015 11.000000003808097
  endloop
endfacet
facet normal -0.9914448613738096 -0.13052619222005726 -1.2784567599510453e-15
  outer loop
    vertex 62.52098528017112 -293.37828281590987 -10.999999616380718
    vertex 62.265428977339134 -291.43713997764127 11.000000000000036
    vertex 62.26542897733912 -291.4371399776409 -10.999999612572658
  endloop
endfacet
facet normal -0.13052619222005085 0.9914448613738105 1.4539732715852537e-14
  outer loop
    vertex 67.82428613907004 -284.192696280473 -10.999999695405482
    vertex 69.76542897733906 -283.9371399776413 11.000000111757936
    vertex 69.76542897733906 -283.93713997764104 -10.999999724330555
  endloop
endfacet
facet normal -0.13052619222005085 0.9914448613738105 1.4539732715852537e-14
  outer loop
    vertex 69.76542897733906 -283.9371399776413 11.000000111757936
    vertex 67.82428613907004 -284.192696280473 -10.999999695405482
    vertex 67.82428613907015 -284.19269628047334 11.000000082832862
  endloop
endfacet
facet normal -1.4901053093554206e-08 -2.1981159089681096e-44 1.0
  outer loop
    vertex 67.015428649516 -296.2002796984553 11.000000070780045
    vertex 67.35061473943956 -292.0841875903971 11.000000192974573
    vertex 67.26542930516223 -291.43713997764087 11.000000194243924
  endloop
endfacet
facet normal -1.4901053093554206e-08 -2.1981159089681096e-44 1.0
  outer loop
    vertex 67.35061473943956 -292.0841875903971 11.000000192974573
    vertex 67.015428649516 -296.2002796984553 11.000000070780045
    vertex 68.34192390145213 -296.7497320222307 11.000000090546216
  endloop
endfacet
facet normal -1.4901053093554206e-08 -2.1981159089681096e-44 1.0
  outer loop
    vertex 67.35061473943956 -292.0841875903971 11.000000192974573
    vertex 68.34192390145213 -296.7497320222307 11.000000090546216
    vertex 67.60036579570114 -292.6871399776408 11.000000189253024
  endloop
endfacet
facet normal -1.4901053093554206e-08 -2.1981159089681096e-44 1.0
  outer loop
    vertex 67.60036579570114 -292.6871399776408 11.000000189253024
    vertex 68.34192390145213 -296.7497320222307 11.000000090546216
    vertex 67.99766235219587 -293.20490693060725 11.000000183332881
  endloop
endfacet
facet normal -1.4901053093554206e-08 -2.1981159089681096e-44 1.0
  outer loop
    vertex 67.99766235219587 -293.20490693060725 11.000000183332881
    vertex 68.34192390145213 -296.7497320222307 11.000000090546216
    vertex 68.51542930516224 -293.602203487102 11.000000175617606
  endloop
endfacet
facet normal -1.4901053093554206e-08 -2.1981159089681096e-44 1.0
  outer loop
    vertex 68.51542930516224 -293.602203487102 11.000000175617606
    vertex 68.34192390145213 -296.7497320222307 11.000000090546216
    vertex 69.76542864951601 -296.93713997764087 11.000000111757936
  endloop
endfacet
facet normal -1.4901053093554206e-08 -2.1981159089681096e-44 1.0
  outer loop
    vertex 68.51542930516224 -293.602203487102 11.000000175617606
    vertex 69.76542864951601 -296.93713997764087 11.000000111757936
    vertex 69.11838169240595 -293.85195454336355 11.000000166632983
  endloop
endfacet
facet normal -1.4901053093554206e-08 -2.1981159089681096e-44 1.0
  outer loop
    vertex 69.11838169240595 -293.85195454336355 11.000000166632983
    vertex 69.76542864951601 -296.93713997764087 11.000000111757936
    vertex 69.76542930516226 -293.93713997764087 11.000000156991293
  endloop
endfacet
facet normal -1.4901053093554206e-08 -2.1981159089681096e-44 1.0
  outer loop
    vertex 69.76542930516226 -293.93713997764087 11.000000156991293
    vertex 69.76542864951601 -296.93713997764087 11.000000111757936
    vertex 71.18893339757987 -296.7497320222307 11.000000132969657
  endloop
endfacet
facet normal -1.4901053093554206e-08 -2.1981159089681096e-44 1.0
  outer loop
    vertex 69.76542930516226 -293.93713997764087 11.000000156991293
    vertex 71.18893339757987 -296.7497320222307 11.000000132969657
    vertex 70.41247691791855 -293.85195454336355 11.000000147349601
  endloop
endfacet
facet normal -1.4901053093554206e-08 -2.1981159089681096e-44 1.0
  outer loop
    vertex 70.41247691791855 -293.85195454336355 11.000000147349601
    vertex 71.18893339757987 -296.7497320222307 11.000000132969657
    vertex 71.01542930516226 -293.602203487102 11.00000013836498
  endloop
endfacet
facet normal -1.4901053093554206e-08 -2.1981159089681096e-44 1.0
  outer loop
    vertex 71.01542930516226 -293.602203487102 11.00000013836498
    vertex 71.18893339757987 -296.7497320222307 11.000000132969657
    vertex 71.53319625812864 -293.20490693060725 11.000000130649704
  endloop
endfacet
facet normal -1.4901053093554206e-08 -2.1981159089681096e-44 1.0
  outer loop
    vertex 71.53319625812864 -293.20490693060725 11.000000130649704
    vertex 71.18893339757987 -296.7497320222307 11.000000132969657
    vertex 72.515428649516 -296.20027969845523 11.000000152735833
  endloop
endfacet
facet normal -1.4901053093554206e-08 -2.1981159089681096e-44 1.0
  outer loop
    vertex 71.53319625812864 -293.20490693060725 11.000000130649704
    vertex 72.515428649516 -296.20027969845523 11.000000152735833
    vertex 71.93049281462336 -292.68713997764087 11.000000124729567
  endloop
endfacet
facet normal -1.4901053093554206e-08 -2.1981159089681096e-44 1.0
  outer loop
    vertex 71.93049281462336 -292.68713997764087 11.000000124729567
    vertex 72.515428649516 -296.20027969845523 11.000000152735833
    vertex 72.18024387088494 -292.0841875903971 11.000000121008012
  endloop
endfacet
facet normal -1.4901053093554206e-08 -2.1981159089681096e-44 1.0
  outer loop
    vertex 72.18024387088494 -292.0841875903971 11.000000121008012
    vertex 72.515428649516 -296.20027969845523 11.000000152735833
    vertex 72.26542930516227 -291.43713997764087 11.000000119738662
  endloop
endfacet
facet normal -1.4901053093554206e-08 -2.1981159089681096e-44 1.0
  outer loop
    vertex 72.26542930516227 -291.43713997764087 11.000000119738662
    vertex 72.515428649516 -296.20027969845523 11.000000152735833
    vertex 72.51542864951584 -286.6740002568264 11.000000152735833
  endloop
endfacet
facet normal -1.4901053093554206e-08 -2.1981159089681096e-44 1.0
  outer loop
    vertex 62.52098528017113 -293.37828281591015 11.000000003808097
    vertex 62.52098528017113 -289.4959971393723 11.000000003808097
    vertex 62.265428977339134 -291.43713997764127 11.000000000000036
  endloop
endfacet
facet normal -1.4901053093554206e-08 -2.1981159089681096e-44 1.0
  outer loop
    vertex 62.52098528017113 -289.4959971393723 11.000000003808097
    vertex 62.52098528017113 -293.37828281591015 11.000000003808097
    vertex 63.27023844895578 -295.1871399776411 11.00000001497276
  endloop
endfacet
facet normal -1.4901053093554206e-08 -2.1981159089681096e-44 1.0
  outer loop
    vertex 62.52098528017113 -289.4959971393723 11.000000003808097
    vertex 63.27023844895578 -295.1871399776411 11.00000001497276
    vertex 63.26542864951592 -291.4371399776409 11.000000014901088
  endloop
endfacet
facet normal -1.4901053093554206e-08 -2.1981159089681096e-44 1.0
  outer loop
    vertex 63.26542864951592 -291.4371399776409 11.000000014901088
    vertex 63.27023844895578 -295.1871399776411 11.00000001497276
    vertex 63.486910778637004 -293.11946377080733 11.000000018201408
  endloop
endfacet
facet normal -1.4901053093554206e-08 -2.1981159089681096e-44 1.0
  outer loop
    vertex 63.486910778637004 -293.11946377080733 11.000000018201408
    vertex 63.27023844895578 -295.1871399776411 11.00000001497276
    vertex 64.46212811843989 -296.74044083654024 11.000000032733169
  endloop
endfacet
facet normal -1.4901053093554206e-08 -2.1981159089681096e-44 1.0
  outer loop
    vertex 63.486910778637004 -293.11946377080733 11.000000018201408
    vertex 64.46212811843989 -296.74044083654024 11.000000032733169
    vertex 64.13626352491711 -294.6871399776409 11.000000027877446
  endloop
endfacet
facet normal -1.4901053093554206e-08 -2.1981159089681096e-44 1.0
  outer loop
    vertex 64.13626352491711 -294.6871399776409 11.000000027877446
    vertex 64.46212811843989 -296.74044083654024 11.000000032733169
    vertex 65.16923457180343 -296.03333405535346 11.000000043269806
  endloop
endfacet
facet normal -1.4901053093554206e-08 -2.1981159089681096e-44 1.0
  outer loop
    vertex 65.16923457180343 -296.03333405535346 11.000000043269806
    vertex 64.46212811843989 -296.74044083654024 11.000000032733169
    vertex 66.0154289773391 -297.93233050602527 11.000000055878992
  endloop
endfacet
facet normal -1.4901053093554206e-08 -2.1981159089681096e-44 1.0
  outer loop
    vertex 65.16923457180343 -296.03333405535346 11.000000043269806
    vertex 66.0154289773391 -297.93233050602527 11.000000055878992
    vertex 66.515428649516 -297.0663051022397 11.000000063329512
  endloop
endfacet
facet normal -1.4901053093554206e-08 -2.1981159089681096e-44 1.0
  outer loop
    vertex 66.515428649516 -297.0663051022397 11.000000063329512
    vertex 66.0154289773391 -297.93233050602527 11.000000055878992
    vertex 67.82428613907005 -298.6815836748092 11.000000082832862
  endloop
endfacet
facet normal -1.4901053093554206e-08 -2.1981159089681096e-44 1.0
  outer loop
    vertex 66.515428649516 -297.0663051022397 11.000000063329512
    vertex 67.82428613907005 -298.6815836748092 11.000000082832862
    vertex 68.08310485634962 -297.7156578485198 11.000000086689539
  endloop
endfacet
facet normal -1.4901053093554206e-08 -2.1981159089681096e-44 1.0
  outer loop
    vertex 68.08310485634962 -297.7156578485198 11.000000086689539
    vertex 67.82428613907005 -298.6815836748092 11.000000082832862
    vertex 69.76542897733907 -298.93713997764115 11.000000111757936
  endloop
endfacet
facet normal -1.4901053093554206e-08 -2.1981159089681096e-44 1.0
  outer loop
    vertex 68.08310485634962 -297.7156578485198 11.000000086689539
    vertex 69.76542897733907 -298.93713997764115 11.000000111757936
    vertex 69.76542864951601 -297.93713997764087 11.000000111757936
  endloop
endfacet
facet normal -1.4901053093554206e-08 -2.1981159089681096e-44 1.0
  outer loop
    vertex 69.76542864951601 -297.93713997764087 11.000000111757936
    vertex 69.76542897733907 -298.93713997764115 11.000000111757936
    vertex 72.515428649516 -296.20027969845523 11.000000152735833
  endloop
endfacet
facet normal -1.4901053093554206e-08 -2.1981159089681096e-44 1.0
  outer loop
    vertex 72.515428649516 -296.20027969845523 11.000000152735833
    vertex 69.76542897733907 -298.93713997764115 11.000000111757936
    vertex 71.28321931200139 -298.27609484262234 11.00000013437461
  endloop
endfacet
facet normal -1.4901053093554206e-08 -2.1981159089681096e-44 1.0
  outer loop
    vertex 72.515428649516 -296.20027969845523 11.000000152735833
    vertex 71.28321931200139 -298.27609484262234 11.00000013437461
    vertex 72.62898090990672 -297.3119403466353 11.000000154427854
  endloop
endfacet
facet normal -1.4901053093554206e-08 -2.1981159089681096e-44 1.0
  outer loop
    vertex 72.515428649516 -296.20027969845523 11.000000152735833
    vertex 72.62898090990672 -297.3119403466353 11.000000154427854
    vertex 72.6289809099067 -285.5623396086472 11.000000154427875
  endloop
endfacet
facet normal -1.4901053093554206e-08 -2.1981159089681096e-44 1.0
  outer loop
    vertex 72.6289809099067 -285.5623396086472 11.000000154427875
    vertex 72.62898090990672 -297.3119403466353 11.000000154427854
    vertex 73.74306826293166 -286.78687116820663 11.000000171028951
  endloop
endfacet
facet normal -1.4901053093554206e-08 -2.1981159089681096e-44 1.0
  outer loop
    vertex 73.74306826293166 -286.78687116820663 11.000000171028951
    vertex 72.62898090990672 -297.3119403466353 11.000000154427854
    vertex 73.74306826293167 -296.0874087870759 11.000000171028951
  endloop
endfacet
facet normal -1.4901053093554206e-08 -2.1981159089681096e-44 1.0
  outer loop
    vertex 73.74306826293166 -286.78687116820663 11.000000171028951
    vertex 73.74306826293167 -296.0874087870759 11.000000171028951
    vertex 74.57610389859651 -288.21750732049657 11.00000018344206
  endloop
endfacet
facet normal -1.4901053093554206e-08 -2.1981159089681096e-44 1.0
  outer loop
    vertex 74.57610389859651 -288.21750732049657 11.00000018344206
    vertex 73.74306826293167 -296.0874087870759 11.000000171028951
    vertex 74.5761038985965 -294.6567726347852 11.00000018344206
  endloop
endfacet
facet normal -1.4901053093554206e-08 -2.1981159089681096e-44 1.0
  outer loop
    vertex 74.57610389859651 -288.21750732049657 11.00000018344206
    vertex 74.5761038985965 -294.6567726347852 11.00000018344206
    vertex 75.09116683932872 -293.0834391235389 11.000000191117039
  endloop
endfacet
facet normal -1.4901053093554206e-08 -2.1981159089681096e-44 1.0
  outer loop
    vertex 74.57610389859651 -288.21750732049657 11.00000018344206
    vertex 75.09116683932872 -293.0834391235389 11.000000191117039
    vertex 75.09116683932874 -289.7908408317436 11.000000191117039
  endloop
endfacet
facet normal -1.4901053093554206e-08 -2.1981159089681096e-44 1.0
  outer loop
    vertex 75.09116683932874 -289.7908408317436 11.000000191117039
    vertex 75.09116683932872 -293.0834391235389 11.000000191117039
    vertex 75.26542897733914 -291.43713997764127 11.000000193713731
  endloop
endfacet
facet normal -1.4901053093554206e-08 -2.1981159089681096e-44 1.0
  outer loop
    vertex 63.26542864951592 -291.4371399776409 11.000000014901088
    vertex 63.27023844895578 -287.6871399776412 11.00000001497276
    vertex 62.52098528017113 -289.4959971393723 11.000000003808097
  endloop
endfacet
facet normal -1.4901053093554206e-08 -2.1981159089681096e-44 1.0
  outer loop
    vertex 63.27023844895578 -287.6871399776412 11.00000001497276
    vertex 63.26542864951592 -291.4371399776409 11.000000014901088
    vertex 63.486910778636954 -289.7548161844746 11.000000018201408
  endloop
endfacet
facet normal -1.4901053093554206e-08 -2.1981159089681096e-44 1.0
  outer loop
    vertex 63.27023844895578 -287.6871399776412 11.00000001497276
    vertex 63.486910778636954 -289.7548161844746 11.000000018201408
    vertex 64.46212811843996 -286.13383911874223 11.000000032733148
  endloop
endfacet
facet normal -1.4901053093554206e-08 -2.1981159089681096e-44 1.0
  outer loop
    vertex 64.46212811843996 -286.13383911874223 11.000000032733148
    vertex 63.486910778636954 -289.7548161844746 11.000000018201408
    vertex 64.13626352491703 -288.1871399776409 11.000000027877446
  endloop
endfacet
facet normal -1.4901053093554206e-08 -2.1981159089681096e-44 1.0
  outer loop
    vertex 64.46212811843996 -286.13383911874223 11.000000032733148
    vertex 64.13626352491703 -288.1871399776409 11.000000027877446
    vertex 65.16923457180329 -286.84094589992833 11.000000043269806
  endloop
endfacet
facet normal -1.4901053093554206e-08 -2.1981159089681096e-44 1.0
  outer loop
    vertex 64.46212811843996 -286.13383911874223 11.000000032733148
    vertex 65.16923457180329 -286.84094589992833 11.000000043269806
    vertex 66.0154289773391 -284.9419494492587 11.000000055878992
  endloop
endfacet
facet normal -1.4901053093554206e-08 -2.1981159089681096e-44 1.0
  outer loop
    vertex 66.0154289773391 -284.9419494492587 11.000000055878992
    vertex 65.16923457180329 -286.84094589992833 11.000000043269806
    vertex 66.51542864951584 -285.807974853042 11.000000063329512
  endloop
endfacet
facet normal -1.4901053093554206e-08 -2.1981159089681096e-44 1.0
  outer loop
    vertex 66.0154289773391 -284.9419494492587 11.000000055878992
    vertex 66.51542864951584 -285.807974853042 11.000000063329512
    vertex 67.82428613907015 -284.19269628047334 11.000000082832862
  endloop
endfacet
facet normal -1.4901053093554206e-08 -2.1981159089681096e-44 1.0
  outer loop
    vertex 67.82428613907015 -284.19269628047334 11.000000082832862
    vertex 66.51542864951584 -285.807974853042 11.000000063329512
    vertex 68.08310485634945 -285.1586221067619 11.000000086689539
  endloop
endfacet
facet normal -1.4901053093554206e-08 -2.1981159089681096e-44 1.0
  outer loop
    vertex 67.82428613907015 -284.19269628047334 11.000000082832862
    vertex 68.08310485634945 -285.1586221067619 11.000000086689539
    vertex 69.76542897733906 -283.9371399776413 11.000000111757936
  endloop
endfacet
facet normal -1.4901053093554206e-08 -2.1981159089681096e-44 1.0
  outer loop
    vertex 69.76542897733906 -283.9371399776413 11.000000111757936
    vertex 68.08310485634945 -285.1586221067619 11.000000086689539
    vertex 69.76542864951583 -284.9371399776408 11.000000111757936
  endloop
endfacet
facet normal -1.4901053093554206e-08 -2.1981159089681096e-44 1.0
  outer loop
    vertex 69.76542897733906 -283.9371399776413 11.000000111757936
    vertex 69.76542864951583 -284.9371399776408 11.000000111757936
    vertex 72.51542864951584 -286.6740002568264 11.000000152735833
  endloop
endfacet
facet normal -1.4901053093554206e-08 -2.1981159089681096e-44 1.0
  outer loop
    vertex 69.76542897733906 -283.9371399776413 11.000000111757936
    vertex 72.51542864951584 -286.6740002568264 11.000000152735833
    vertex 71.28321931200138 -284.5981851126616 11.00000013437461
  endloop
endfacet
facet normal -1.4901053093554206e-08 -2.1981159089681096e-44 1.0
  outer loop
    vertex 71.28321931200138 -284.5981851126616 11.00000013437461
    vertex 72.51542864951584 -286.6740002568264 11.000000152735833
    vertex 72.6289809099067 -285.5623396086472 11.000000154427875
  endloop
endfacet
facet normal -1.4901053093554206e-08 -2.1981159089681096e-44 1.0
  outer loop
    vertex 72.6289809099067 -285.5623396086472 11.000000154427875
    vertex 72.51542864951584 -286.6740002568264 11.000000152735833
    vertex 72.515428649516 -296.20027969845523 11.000000152735833
  endloop
endfacet
facet normal -1.4901053093554206e-08 -2.1981159089681096e-44 1.0
  outer loop
    vertex 64.45283660492606 -292.8606447257048 11.00000003259472
    vertex 64.45283660492602 -290.01363522957706 11.00000003259472
    vertex 64.26542864951591 -291.4371399776409 11.000000029802141
  endloop
endfacet
facet normal -1.4901053093554206e-08 -2.1981159089681096e-44 1.0
  outer loop
    vertex 64.45283660492602 -290.01363522957706 11.00000003259472
    vertex 64.45283660492606 -292.8606447257048 11.00000003259472
    vertex 65.00228892870146 -288.6871399776409 11.000000040782139
  endloop
endfacet
facet normal -1.4901053093554206e-08 -2.1981159089681096e-44 1.0
  outer loop
    vertex 65.00228892870146 -288.6871399776409 11.000000040782139
    vertex 64.45283660492606 -292.8606447257048 11.00000003259472
    vertex 65.00228892870156 -294.1871399776409 11.000000040782139
  endloop
endfacet
facet normal -1.4901053093554206e-08 -2.1981159089681096e-44 1.0
  outer loop
    vertex 65.00228892870146 -288.6871399776409 11.000000040782139
    vertex 65.00228892870156 -294.1871399776409 11.000000040782139
    vertex 65.87634135298984 -287.5480526811149 11.00000005380644
  endloop
endfacet
facet normal -1.4901053093554206e-08 -2.1981159089681096e-44 1.0
  outer loop
    vertex 65.87634135298984 -287.5480526811149 11.00000005380644
    vertex 65.00228892870156 -294.1871399776409 11.000000040782139
    vertex 65.87634135298998 -295.3262272741669 11.00000005380644
  endloop
endfacet
facet normal -1.4901053093554206e-08 -2.1981159089681096e-44 1.0
  outer loop
    vertex 65.87634135298984 -287.5480526811149 11.00000005380644
    vertex 65.87634135298998 -295.3262272741669 11.00000005380644
    vertex 67.01542864951583 -286.6740002568265 11.000000070780045
  endloop
endfacet
facet normal -1.4901053093554206e-08 -2.1981159089681096e-44 1.0
  outer loop
    vertex 67.01542864951583 -286.6740002568265 11.000000070780045
    vertex 65.87634135298998 -295.3262272741669 11.00000005380644
    vertex 67.015428649516 -296.2002796984553 11.000000070780045
  endloop
endfacet
facet normal -1.4901053093554206e-08 -2.1981159089681096e-44 1.0
  outer loop
    vertex 67.01542864951583 -286.6740002568265 11.000000070780045
    vertex 67.015428649516 -296.2002796984553 11.000000070780045
    vertex 67.26542930516223 -291.43713997764087 11.000000194243924
  endloop
endfacet
facet normal -1.4901053093554206e-08 -2.1981159089681096e-44 1.0
  outer loop
    vertex 67.01542864951583 -286.6740002568265 11.000000070780045
    vertex 67.26542930516223 -291.43713997764087 11.000000194243924
    vertex 67.35061473943956 -290.7900923648846 11.000000192974573
  endloop
endfacet
facet normal -1.4901053093554206e-08 -2.1981159089681096e-44 1.0
  outer loop
    vertex 67.01542864951583 -286.6740002568265 11.000000070780045
    vertex 67.35061473943956 -290.7900923648846 11.000000192974573
    vertex 68.34192390145196 -286.124547933051 11.000000090546216
  endloop
endfacet
facet normal -1.4901053093554206e-08 -2.1981159089681096e-44 1.0
  outer loop
    vertex 68.34192390145196 -286.124547933051 11.000000090546216
    vertex 67.35061473943956 -290.7900923648846 11.000000192974573
    vertex 67.60036579570115 -290.1871399776408 11.000000189253024
  endloop
endfacet
facet normal -1.4901053093554206e-08 -2.1981159089681096e-44 1.0
  outer loop
    vertex 68.34192390145196 -286.124547933051 11.000000090546216
    vertex 67.60036579570115 -290.1871399776408 11.000000189253024
    vertex 67.99766235219587 -289.6693730246744 11.000000183332881
  endloop
endfacet
facet normal -1.4901053093554206e-08 -2.1981159089681096e-44 1.0
  outer loop
    vertex 68.34192390145196 -286.124547933051 11.000000090546216
    vertex 67.99766235219587 -289.6693730246744 11.000000183332881
    vertex 68.51542930516224 -289.27207646817976 11.000000175617606
  endloop
endfacet
facet normal -1.4901053093554206e-08 -2.1981159089681096e-44 1.0
  outer loop
    vertex 68.34192390145196 -286.124547933051 11.000000090546216
    vertex 68.51542930516224 -289.27207646817976 11.000000175617606
    vertex 69.76542864951583 -285.9371399776408 11.000000111757936
  endloop
endfacet
facet normal -1.4901053093554206e-08 -2.1981159089681096e-44 1.0
  outer loop
    vertex 69.76542864951583 -285.9371399776408 11.000000111757936
    vertex 68.51542930516224 -289.27207646817976 11.000000175617606
    vertex 69.11838169240595 -289.02232541191813 11.000000166632983
  endloop
endfacet
facet normal -1.4901053093554206e-08 -2.1981159089681096e-44 1.0
  outer loop
    vertex 69.76542864951583 -285.9371399776408 11.000000111757936
    vertex 69.11838169240595 -289.02232541191813 11.000000166632983
    vertex 69.76542930516226 -288.9371399776408 11.000000156991293
  endloop
endfacet
facet normal -1.4901053093554206e-08 -2.1981159089681096e-44 1.0
  outer loop
    vertex 69.76542864951583 -285.9371399776408 11.000000111757936
    vertex 69.76542930516226 -288.9371399776408 11.000000156991293
    vertex 71.1889333975797 -286.12454793305096 11.000000132969657
  endloop
endfacet
facet normal -1.4901053093554206e-08 -2.1981159089681096e-44 1.0
  outer loop
    vertex 71.1889333975797 -286.12454793305096 11.000000132969657
    vertex 69.76542930516226 -288.9371399776408 11.000000156991293
    vertex 70.41247691791857 -289.02232541191813 11.000000147349601
  endloop
endfacet
facet normal -1.4901053093554206e-08 -2.1981159089681096e-44 1.0
  outer loop
    vertex 71.1889333975797 -286.12454793305096 11.000000132969657
    vertex 70.41247691791857 -289.02232541191813 11.000000147349601
    vertex 71.01542930516226 -289.27207646817976 11.00000013836498
  endloop
endfacet
facet normal -1.4901053093554206e-08 -2.1981159089681096e-44 1.0
  outer loop
    vertex 71.1889333975797 -286.12454793305096 11.000000132969657
    vertex 71.01542930516226 -289.27207646817976 11.00000013836498
    vertex 71.53319625812864 -289.6693730246744 11.000000130649704
  endloop
endfacet
facet normal -1.4901053093554206e-08 -2.1981159089681096e-44 1.0
  outer loop
    vertex 71.1889333975797 -286.12454793305096 11.000000132969657
    vertex 71.53319625812864 -289.6693730246744 11.000000130649704
    vertex 72.51542864951584 -286.6740002568264 11.000000152735833
  endloop
endfacet
facet normal -1.4901053093554206e-08 -2.1981159089681096e-44 1.0
  outer loop
    vertex 72.51542864951584 -286.6740002568264 11.000000152735833
    vertex 71.53319625812864 -289.6693730246744 11.000000130649704
    vertex 71.93049281462338 -290.18713997764087 11.000000124729567
  endloop
endfacet
facet normal -1.4901053093554206e-08 -2.1981159089681096e-44 1.0
  outer loop
    vertex 72.51542864951584 -286.6740002568264 11.000000152735833
    vertex 71.93049281462338 -290.18713997764087 11.000000124729567
    vertex 72.18024387088494 -290.7900923648846 11.000000121008012
  endloop
endfacet
facet normal -1.4901053093554206e-08 -2.1981159089681096e-44 1.0
  outer loop
    vertex 72.51542864951584 -286.6740002568264 11.000000152735833
    vertex 72.18024387088494 -290.7900923648846 11.000000121008012
    vertex 72.26542930516227 -291.43713997764087 11.000000119738662
  endloop
endfacet
facet normal -0.38268343236509145 0.9238795325112862 5.702386119122969e-09
  outer loop
    vertex 70.41247659009535 -293.85195454336355 -10.999999733972249
    vertex 71.01542930516226 -293.602203487102 11.00000013836498
    vertex 71.01542897733906 -293.602203487102 -10.99999974295687
  endloop
endfacet
facet normal -0.38268343236509145 0.9238795325112862 5.702386119122969e-09
  outer loop
    vertex 71.01542930516226 -293.602203487102 11.00000013836498
    vertex 70.41247659009535 -293.85195454336355 -10.999999733972249
    vertex 70.41247691791855 -293.85195454336355 11.000000147349601
  endloop
endfacet
facet normal -0.13052619222005607 0.9914448613738098 1.9449777119891973e-09
  outer loop
    vertex 69.76542897733906 -293.93713997764087 -10.999999724330559
    vertex 70.41247691791855 -293.85195454336355 11.000000147349601
    vertex 70.41247659009535 -293.85195454336355 -10.999999733972249
  endloop
endfacet
facet normal -0.13052619222005607 0.9914448613738098 1.9449777119891973e-09
  outer loop
    vertex 70.41247691791855 -293.85195454336355 11.000000147349601
    vertex 69.76542897733906 -293.93713997764087 -10.999999724330559
    vertex 69.76542930516226 -293.93713997764087 11.000000156991293
  endloop
endfacet
facet normal 0.13052619222005385 0.9914448613738103 -1.9449777119891324e-09
  outer loop
    vertex 69.11838136458275 -293.85195454336355 -10.999999714688867
    vertex 69.76542930516226 -293.93713997764087 11.000000156991293
    vertex 69.76542897733906 -293.93713997764087 -10.999999724330559
  endloop
endfacet
facet normal 0.13052619222005385 0.9914448613738103 -1.9449777119891324e-09
  outer loop
    vertex 69.76542930516226 -293.93713997764087 11.000000156991293
    vertex 69.11838136458275 -293.85195454336355 -10.999999714688867
    vertex 69.11838169240595 -293.85195454336355 11.000000166632983
  endloop
endfacet
facet normal 0.3826834323650975 0.9238795325112835 -5.702386119123029e-09
  outer loop
    vertex 68.51542897733904 -293.602203487102 -10.999999705704239
    vertex 69.11838169240595 -293.85195454336355 11.000000166632983
    vertex 69.11838136458275 -293.85195454336355 -10.999999714688867
  endloop
endfacet
facet normal 0.3826834323650975 0.9238795325112835 -5.702386119123029e-09
  outer loop
    vertex 69.11838169240595 -293.85195454336355 11.000000166632983
    vertex 68.51542897733904 -293.602203487102 -10.999999705704239
    vertex 68.51542930516224 -293.602203487102 11.000000175617606
  endloop
endfacet
facet normal 0.608761429008699 0.7933533402912517 -9.071186335876807e-09
  outer loop
    vertex 67.99766202437267 -293.20490693060725 -10.999999697988969
    vertex 68.51542930516224 -293.602203487102 11.000000175617606
    vertex 68.51542897733904 -293.602203487102 -10.999999705704239
  endloop
endfacet
facet normal 0.608761429008699 0.7933533402912517 -9.071186335876807e-09
  outer loop
    vertex 68.51542930516224 -293.602203487102 11.000000175617606
    vertex 67.99766202437267 -293.20490693060725 -10.999999697988969
    vertex 67.99766235219587 -293.20490693060725 11.000000183332881
  endloop
endfacet
facet normal 0.793353340291254 0.6087614290086958 -1.182180019468581e-08
  outer loop
    vertex 67.60036546787794 -292.6871399776408 -10.99999969206883
    vertex 67.99766235219587 -293.20490693060725 11.000000183332881
    vertex 67.99766202437267 -293.20490693060725 -10.999999697988969
  endloop
endfacet
facet normal 0.793353340291254 0.6087614290086958 -1.182180019468581e-08
  outer loop
    vertex 67.99766235219587 -293.20490693060725 11.000000183332881
    vertex 67.60036546787794 -292.6871399776408 -10.99999969206883
    vertex 67.60036579570114 -292.6871399776408 11.000000189253024
  endloop
endfacet
facet normal 0.9238795325112895 0.38268343236508284 -1.376677790667469e-08
  outer loop
    vertex 67.35061441161636 -292.0841875903971 -10.999999688347279
    vertex 67.60036579570114 -292.6871399776408 11.000000189253024
    vertex 67.60036546787794 -292.6871399776408 -10.99999969206883
  endloop
endfacet
facet normal 0.9238795325112895 0.38268343236508284 -1.376677790667469e-08
  outer loop
    vertex 67.60036579570114 -292.6871399776408 11.000000189253024
    vertex 67.35061441161636 -292.0841875903971 -10.999999688347279
    vertex 67.35061473943956 -292.0841875903971 11.000000192974573
  endloop
endfacet
facet normal 0.9914448613738095 0.13052619222005837 -1.4773572455000053e-08
  outer loop
    vertex 67.26542897733903 -291.43713997764087 -10.999999687077924
    vertex 67.35061473943956 -292.0841875903971 11.000000192974573
    vertex 67.35061441161636 -292.0841875903971 -10.999999688347279
  endloop
endfacet
facet normal 0.9914448613738095 0.13052619222005837 -1.4773572455000053e-08
  outer loop
    vertex 67.35061473943956 -292.0841875903971 11.000000192974573
    vertex 67.26542897733903 -291.43713997764087 -10.999999687077924
    vertex 67.26542930516223 -291.43713997764087 11.000000194243924
  endloop
endfacet
facet normal 0.9914448613738095 -0.13052619222005837 -1.4773572455000058e-08
  outer loop
    vertex 67.35061441161636 -290.7900923648846 -10.999999688347279
    vertex 67.26542930516223 -291.43713997764087 11.000000194243924
    vertex 67.26542897733903 -291.43713997764087 -10.999999687077924
  endloop
endfacet
facet normal 0.9914448613738095 -0.13052619222005837 -1.4773572455000058e-08
  outer loop
    vertex 67.26542930516223 -291.43713997764087 11.000000194243924
    vertex 67.35061441161636 -290.7900923648846 -10.999999688347279
    vertex 67.35061473943956 -290.7900923648846 11.000000192974573
  endloop
endfacet
facet normal 0.9238795325112935 -0.3826834323650732 -1.376677790667476e-08
  outer loop
    vertex 67.60036546787795 -290.1871399776408 -10.99999969206883
    vertex 67.35061473943956 -290.7900923648846 11.000000192974573
    vertex 67.35061441161636 -290.7900923648846 -10.999999688347279
  endloop
endfacet
facet normal 0.9238795325112935 -0.3826834323650732 -1.376677790667476e-08
  outer loop
    vertex 67.35061473943956 -290.7900923648846 11.000000192974573
    vertex 67.60036546787795 -290.1871399776408 -10.99999969206883
    vertex 67.60036579570115 -290.1871399776408 11.000000189253024
  endloop
endfacet
facet normal 0.7933533402912369 -0.6087614290087184 -1.1821800194685575e-08
  outer loop
    vertex 67.99766202437267 -289.6693730246744 -10.999999697988969
    vertex 67.60036579570115 -290.1871399776408 11.000000189253024
    vertex 67.60036546787795 -290.1871399776408 -10.99999969206883
  endloop
endfacet
facet normal 0.7933533402912369 -0.6087614290087184 -1.1821800194685575e-08
  outer loop
    vertex 67.60036579570115 -290.1871399776408 11.000000189253024
    vertex 67.99766202437267 -289.6693730246744 -10.999999697988969
    vertex 67.99766235219587 -289.6693730246744 11.000000183332881
  endloop
endfacet
facet normal 0.608761429008699 -0.7933533402912517 -9.071186335876832e-09
  outer loop
    vertex 68.51542930516224 -289.27207646817976 11.000000175617606
    vertex 67.99766202437267 -289.6693730246744 -10.999999697988969
    vertex 68.51542897733904 -289.27207646817976 -10.999999705704239
  endloop
endfacet
facet normal 0.608761429008699 -0.7933533402912517 -9.071186335876832e-09
  outer loop
    vertex 67.99766202437267 -289.6693730246744 -10.999999697988969
    vertex 68.51542930516224 -289.27207646817976 11.000000175617606
    vertex 67.99766235219587 -289.6693730246744 11.000000183332881
  endloop
endfacet
facet normal 0.38268343236509145 -0.9238795325112862 -5.702386119122969e-09
  outer loop
    vertex 69.11838169240595 -289.02232541191813 11.000000166632983
    vertex 68.51542897733904 -289.27207646817976 -10.999999705704239
    vertex 69.11838136458275 -289.02232541191813 -10.999999714688867
  endloop
endfacet
facet normal 0.38268343236509145 -0.9238795325112862 -5.702386119122969e-09
  outer loop
    vertex 68.51542897733904 -289.27207646817976 -10.999999705704239
    vertex 69.11838169240595 -289.02232541191813 11.000000166632983
    vertex 68.51542930516224 -289.27207646817976 11.000000175617606
  endloop
endfacet
facet normal 0.13052619222005607 -0.9914448613738098 -1.9449777119891973e-09
  outer loop
    vertex 69.76542930516226 -288.9371399776408 11.000000156991293
    vertex 69.11838136458275 -289.02232541191813 -10.999999714688867
    vertex 69.76542897733906 -288.9371399776408 -10.999999724330559
  endloop
endfacet
facet normal 0.13052619222005607 -0.9914448613738098 -1.9449777119891973e-09
  outer loop
    vertex 69.11838136458275 -289.02232541191813 -10.999999714688867
    vertex 69.76542930516226 -288.9371399776408 11.000000156991293
    vertex 69.11838169240595 -289.02232541191813 11.000000166632983
  endloop
endfacet
facet normal -0.13052619222005385 -0.9914448613738103 1.9449777119891324e-09
  outer loop
    vertex 70.41247691791857 -289.02232541191813 11.000000147349601
    vertex 69.76542897733906 -288.9371399776408 -10.999999724330559
    vertex 70.41247659009537 -289.02232541191813 -10.999999733972249
  endloop
endfacet
facet normal -0.13052619222005385 -0.9914448613738103 1.9449777119891324e-09
  outer loop
    vertex 69.76542897733906 -288.9371399776408 -10.999999724330559
    vertex 70.41247691791857 -289.02232541191813 11.000000147349601
    vertex 69.76542930516226 -288.9371399776408 11.000000156991293
  endloop
endfacet
facet normal -0.3826834323650975 -0.9238795325112835 5.702386119123029e-09
  outer loop
    vertex 71.01542930516226 -289.27207646817976 11.00000013836498
    vertex 70.41247659009537 -289.02232541191813 -10.999999733972249
    vertex 71.01542897733906 -289.27207646817976 -10.99999974295687
  endloop
endfacet
facet normal -0.3826834323650975 -0.9238795325112835 5.702386119123029e-09
  outer loop
    vertex 70.41247659009537 -289.02232541191813 -10.999999733972249
    vertex 71.01542930516226 -289.27207646817976 11.00000013836498
    vertex 70.41247691791857 -289.02232541191813 11.000000147349601
  endloop
endfacet
facet normal -0.608761429008699 -0.7933533402912517 9.071186335876807e-09
  outer loop
    vertex 71.53319625812864 -289.6693730246744 11.000000130649704
    vertex 71.01542897733906 -289.27207646817976 -10.99999974295687
    vertex 71.53319593030544 -289.6693730246744 -10.999999750672147
  endloop
endfacet
facet normal -0.608761429008699 -0.7933533402912517 9.071186335876807e-09
  outer loop
    vertex 71.01542897733906 -289.27207646817976 -10.99999974295687
    vertex 71.53319625812864 -289.6693730246744 11.000000130649704
    vertex 71.01542930516226 -289.27207646817976 11.00000013836498
  endloop
endfacet
facet normal -0.793353340291254 -0.6087614290086958 1.182180019468581e-08
  outer loop
    vertex 71.53319625812864 -289.6693730246744 11.000000130649704
    vertex 71.93049248680018 -290.18713997764087 -10.999999756592283
    vertex 71.93049281462338 -290.18713997764087 11.000000124729567
  endloop
endfacet
facet normal -0.793353340291254 -0.6087614290086958 1.182180019468581e-08
  outer loop
    vertex 71.93049248680018 -290.18713997764087 -10.999999756592283
    vertex 71.53319625812864 -289.6693730246744 11.000000130649704
    vertex 71.53319593030544 -289.6693730246744 -10.999999750672147
  endloop
endfacet
facet normal -0.9238795325112895 -0.38268343236508284 1.376677790667469e-08
  outer loop
    vertex 71.93049281462338 -290.18713997764087 11.000000124729567
    vertex 72.18024354306174 -290.7900923648846 -10.999999760313838
    vertex 72.18024387088494 -290.7900923648846 11.000000121008012
  endloop
endfacet
facet normal -0.9238795325112895 -0.38268343236508284 1.376677790667469e-08
  outer loop
    vertex 72.18024354306174 -290.7900923648846 -10.999999760313838
    vertex 71.93049281462338 -290.18713997764087 11.000000124729567
    vertex 71.93049248680018 -290.18713997764087 -10.999999756592283
  endloop
endfacet
facet normal -0.9914448613738095 -0.13052619222005837 1.4773572455000053e-08
  outer loop
    vertex 72.18024387088494 -290.7900923648846 11.000000121008012
    vertex 72.26542897733907 -291.43713997764087 -10.99999976158319
    vertex 72.26542930516227 -291.43713997764087 11.000000119738662
  endloop
endfacet
facet normal -0.9914448613738095 -0.13052619222005837 1.4773572455000053e-08
  outer loop
    vertex 72.26542897733907 -291.43713997764087 -10.99999976158319
    vertex 72.18024387088494 -290.7900923648846 11.000000121008012
    vertex 72.18024354306174 -290.7900923648846 -10.999999760313838
  endloop
endfacet
facet normal -0.9914448613738095 0.13052619222005837 1.4773572455000058e-08
  outer loop
    vertex 72.26542930516227 -291.43713997764087 11.000000119738662
    vertex 72.18024354306174 -292.0841875903971 -10.999999760313838
    vertex 72.18024387088494 -292.0841875903971 11.000000121008012
  endloop
endfacet
facet normal -0.9914448613738095 0.13052619222005837 1.4773572455000058e-08
  outer loop
    vertex 72.18024354306174 -292.0841875903971 -10.999999760313838
    vertex 72.26542930516227 -291.43713997764087 11.000000119738662
    vertex 72.26542897733907 -291.43713997764087 -10.99999976158319
  endloop
endfacet
facet normal -0.9238795325112935 0.3826834323650732 1.376677790667476e-08
  outer loop
    vertex 72.18024387088494 -292.0841875903971 11.000000121008012
    vertex 71.93049248680016 -292.68713997764087 -10.999999756592283
    vertex 71.93049281462336 -292.68713997764087 11.000000124729567
  endloop
endfacet
facet normal -0.9238795325112935 0.3826834323650732 1.376677790667476e-08
  outer loop
    vertex 71.93049248680016 -292.68713997764087 -10.999999756592283
    vertex 72.18024387088494 -292.0841875903971 11.000000121008012
    vertex 72.18024354306174 -292.0841875903971 -10.999999760313838
  endloop
endfacet
facet normal -0.7933533402912369 0.6087614290087184 1.1821800194685575e-08
  outer loop
    vertex 71.93049281462336 -292.68713997764087 11.000000124729567
    vertex 71.53319593030544 -293.20490693060725 -10.999999750672147
    vertex 71.53319625812864 -293.20490693060725 11.000000130649704
  endloop
endfacet
facet normal -0.7933533402912369 0.6087614290087184 1.1821800194685575e-08
  outer loop
    vertex 71.53319593030544 -293.20490693060725 -10.999999750672147
    vertex 71.93049281462336 -292.68713997764087 11.000000124729567
    vertex 71.93049248680016 -292.68713997764087 -10.999999756592283
  endloop
endfacet
facet normal -0.608761429008699 0.7933533402912517 9.071186335876832e-09
  outer loop
    vertex 71.01542897733906 -293.602203487102 -10.99999974295687
    vertex 71.53319625812864 -293.20490693060725 11.000000130649704
    vertex 71.53319593030544 -293.20490693060725 -10.999999750672147
  endloop
endfacet
facet normal -0.608761429008699 0.7933533402912517 9.071186335876832e-09
  outer loop
    vertex 71.53319625812864 -293.20490693060725 11.000000130649704
    vertex 71.01542897733906 -293.602203487102 -10.99999974295687
    vertex 71.01542930516226 -293.602203487102 11.00000013836498
  endloop
endfacet
facet normal -2.656877068431217e-09 -6.297348616632194e-10 -1.0
  outer loop
    vertex 64.45283693274915 -290.01363522957706 -10.999999803493774
    vertex 64.4528369327492 -292.8606447257048 -10.999999803493774
    vertex 64.26542897733906 -291.4371399776409 -10.999999806286347
  endloop
endfacet
facet normal -2.656877068431217e-09 -6.297348616632194e-10 -1.0
  outer loop
    vertex 64.4528369327492 -292.8606447257048 -10.999999803493774
    vertex 64.45283693274915 -290.01363522957706 -10.999999803493774
    vertex 65.00228925652459 -288.6871399776409 -10.999999795306357
  endloop
endfacet
facet normal -2.656877068431217e-09 -6.297348616632194e-10 -1.0
  outer loop
    vertex 64.4528369327492 -292.8606447257048 -10.999999803493774
    vertex 65.00228925652459 -288.6871399776409 -10.999999795306357
    vertex 65.00228925652469 -294.1871399776409 -10.999999795306357
  endloop
endfacet
facet normal -2.656877068431217e-09 -6.297348616632194e-10 -1.0
  outer loop
    vertex 65.00228925652469 -294.1871399776409 -10.999999795306357
    vertex 65.00228925652459 -288.6871399776409 -10.999999795306357
    vertex 65.87634168081297 -287.5480526811149 -10.999999782282053
  endloop
endfacet
facet normal -2.656877068431217e-09 -6.297348616632194e-10 -1.0
  outer loop
    vertex 65.00228925652469 -294.1871399776409 -10.999999795306357
    vertex 65.87634168081297 -287.5480526811149 -10.999999782282053
    vertex 65.87634168081311 -295.3262272741669 -10.999999782282053
  endloop
endfacet
facet normal -2.656877068431217e-09 -6.297348616632194e-10 -1.0
  outer loop
    vertex 65.87634168081311 -295.3262272741669 -10.999999782282053
    vertex 65.87634168081297 -287.5480526811149 -10.999999782282053
    vertex 67.01542897733897 -286.6740002568265 -10.999999765308452
  endloop
endfacet
facet normal -2.656877068431217e-09 -6.297348616632194e-10 -1.0
  outer loop
    vertex 65.87634168081311 -295.3262272741669 -10.999999782282053
    vertex 67.01542897733897 -286.6740002568265 -10.999999765308452
    vertex 67.01542897733914 -296.2002796984553 -10.999999765308452
  endloop
endfacet
facet normal -2.656877068431217e-09 -6.297348616632194e-10 -1.0
  outer loop
    vertex 67.01542897733914 -296.2002796984553 -10.999999765308452
    vertex 67.01542897733897 -286.6740002568265 -10.999999765308452
    vertex 67.26542897733903 -291.43713997764087 -10.999999687077924
  endloop
endfacet
facet normal -2.656877068431217e-09 -6.297348616632194e-10 -1.0
  outer loop
    vertex 67.26542897733903 -291.43713997764087 -10.999999687077924
    vertex 67.01542897733897 -286.6740002568265 -10.999999765308452
    vertex 67.35061441161636 -290.7900923648846 -10.999999688347279
  endloop
endfacet
facet normal -2.656877068431217e-09 -6.297348616632194e-10 -1.0
  outer loop
    vertex 67.35061441161636 -290.7900923648846 -10.999999688347279
    vertex 67.01542897733897 -286.6740002568265 -10.999999765308452
    vertex 68.34192422927511 -286.124547933051 -10.999999745542278
  endloop
endfacet
facet normal -2.656877068431217e-09 -6.297348616632194e-10 -1.0
  outer loop
    vertex 67.35061441161636 -290.7900923648846 -10.999999688347279
    vertex 68.34192422927511 -286.124547933051 -10.999999745542278
    vertex 67.60036546787795 -290.1871399776408 -10.99999969206883
  endloop
endfacet
facet normal -2.656877068431217e-09 -6.297348616632194e-10 -1.0
  outer loop
    vertex 67.60036546787795 -290.1871399776408 -10.99999969206883
    vertex 68.34192422927511 -286.124547933051 -10.999999745542278
    vertex 67.99766202437267 -289.6693730246744 -10.999999697988969
  endloop
endfacet
facet normal -2.656877068431217e-09 -6.297348616632194e-10 -1.0
  outer loop
    vertex 67.99766202437267 -289.6693730246744 -10.999999697988969
    vertex 68.34192422927511 -286.124547933051 -10.999999745542278
    vertex 68.51542897733904 -289.27207646817976 -10.999999705704239
  endloop
endfacet
facet normal -2.656877068431217e-09 -6.297348616632194e-10 -1.0
  outer loop
    vertex 68.51542897733904 -289.27207646817976 -10.999999705704239
    vertex 68.34192422927511 -286.124547933051 -10.999999745542278
    vertex 69.76542897733896 -285.9371399776408 -10.999999724330559
  endloop
endfacet
facet normal -2.656877068431217e-09 -6.297348616632194e-10 -1.0
  outer loop
    vertex 68.51542897733904 -289.27207646817976 -10.999999705704239
    vertex 69.76542897733896 -285.9371399776408 -10.999999724330559
    vertex 69.11838136458275 -289.02232541191813 -10.999999714688867
  endloop
endfacet
facet normal -2.656877068431217e-09 -6.297348616632194e-10 -1.0
  outer loop
    vertex 69.11838136458275 -289.02232541191813 -10.999999714688867
    vertex 69.76542897733896 -285.9371399776408 -10.999999724330559
    vertex 69.76542897733906 -288.9371399776408 -10.999999724330559
  endloop
endfacet
facet normal -2.656877068431217e-09 -6.297348616632194e-10 -1.0
  outer loop
    vertex 69.76542897733906 -288.9371399776408 -10.999999724330559
    vertex 69.76542897733896 -285.9371399776408 -10.999999724330559
    vertex 71.18893372540283 -286.12454793305096 -10.999999703118839
  endloop
endfacet
facet normal -2.656877068431217e-09 -6.297348616632194e-10 -1.0
  outer loop
    vertex 69.76542897733906 -288.9371399776408 -10.999999724330559
    vertex 71.18893372540283 -286.12454793305096 -10.999999703118839
    vertex 70.41247659009537 -289.02232541191813 -10.999999733972249
  endloop
endfacet
facet normal -2.656877068431217e-09 -6.297348616632194e-10 -1.0
  outer loop
    vertex 70.41247659009537 -289.02232541191813 -10.999999733972249
    vertex 71.18893372540283 -286.12454793305096 -10.999999703118839
    vertex 71.01542897733906 -289.27207646817976 -10.99999974295687
  endloop
endfacet
facet normal -2.656877068431217e-09 -6.297348616632194e-10 -1.0
  outer loop
    vertex 71.01542897733906 -289.27207646817976 -10.99999974295687
    vertex 71.18893372540283 -286.12454793305096 -10.999999703118839
    vertex 71.53319593030544 -289.6693730246744 -10.999999750672147
  endloop
endfacet
facet normal -2.656877068431217e-09 -6.297348616632194e-10 -1.0
  outer loop
    vertex 71.53319593030544 -289.6693730246744 -10.999999750672147
    vertex 71.18893372540283 -286.12454793305096 -10.999999703118839
    vertex 72.51542897733897 -286.6740002568264 -10.99999968335266
  endloop
endfacet
facet normal -2.656877068431217e-09 -6.297348616632194e-10 -1.0
  outer loop
    vertex 71.53319593030544 -289.6693730246744 -10.999999750672147
    vertex 72.51542897733897 -286.6740002568264 -10.99999968335266
    vertex 71.93049248680018 -290.18713997764087 -10.999999756592283
  endloop
endfacet
facet normal -2.656877068431217e-09 -6.297348616632194e-10 -1.0
  outer loop
    vertex 71.93049248680018 -290.18713997764087 -10.999999756592283
    vertex 72.51542897733897 -286.6740002568264 -10.99999968335266
    vertex 72.18024354306174 -290.7900923648846 -10.999999760313838
  endloop
endfacet
facet normal -2.656877068431217e-09 -6.297348616632194e-10 -1.0
  outer loop
    vertex 72.18024354306174 -290.7900923648846 -10.999999760313838
    vertex 72.51542897733897 -286.6740002568264 -10.99999968335266
    vertex 72.26542897733907 -291.43713997764087 -10.99999976158319
  endloop
endfacet
facet normal -2.656877068431217e-09 -6.297348616632194e-10 -1.0
  outer loop
    vertex 62.52098528017112 -289.49599713937204 -10.999999616380716
    vertex 62.52098528017112 -293.37828281590987 -10.999999616380718
    vertex 62.26542897733912 -291.4371399776409 -10.999999612572658
  endloop
endfacet
facet normal -2.656877068431217e-09 -6.297348616632194e-10 -1.0
  outer loop
    vertex 62.52098528017112 -293.37828281590987 -10.999999616380718
    vertex 62.52098528017112 -289.49599713937204 -10.999999616380716
    vertex 63.270238448955766 -287.68713997764104 -10.999999627545378
  endloop
endfacet
facet normal -2.656877068431217e-09 -6.297348616632194e-10 -1.0
  outer loop
    vertex 62.52098528017112 -293.37828281590987 -10.999999616380718
    vertex 63.270238448955766 -287.68713997764104 -10.999999627545378
    vertex 63.265428977339056 -291.4371399776409 -10.9999998211874
  endloop
endfacet
facet normal -2.656877068431217e-09 -6.297348616632194e-10 -1.0
  outer loop
    vertex 63.265428977339056 -291.4371399776409 -10.9999998211874
    vertex 63.270238448955766 -287.68713997764104 -10.999999627545378
    vertex 63.48691110646009 -289.7548161844746 -10.999999817887085
  endloop
endfacet
facet normal -2.656877068431217e-09 -6.297348616632194e-10 -1.0
  outer loop
    vertex 63.48691110646009 -289.7548161844746 -10.999999817887085
    vertex 63.270238448955766 -287.68713997764104 -10.999999627545378
    vertex 64.46212811843988 -286.13383911874195 -10.999999645305786
  endloop
endfacet
facet normal -2.656877068431217e-09 -6.297348616632194e-10 -1.0
  outer loop
    vertex 63.48691110646009 -289.7548161844746 -10.999999817887085
    vertex 64.46212811843988 -286.13383911874195 -10.999999645305786
    vertex 64.13626385274016 -288.1871399776409 -10.999999808211046
  endloop
endfacet
facet normal -2.656877068431217e-09 -6.297348616632194e-10 -1.0
  outer loop
    vertex 64.13626385274016 -288.1871399776409 -10.999999808211046
    vertex 64.46212811843988 -286.13383911874195 -10.999999645305786
    vertex 65.16923489962643 -286.84094589992833 -10.99999979281869
  endloop
endfacet
facet normal -2.656877068431217e-09 -6.297348616632194e-10 -1.0
  outer loop
    vertex 65.16923489962643 -286.84094589992833 -10.99999979281869
    vertex 64.46212811843988 -286.13383911874195 -10.999999645305786
    vertex 66.0154289773391 -284.9419494492569 -10.999999668451608
  endloop
endfacet
facet normal -2.656877068431217e-09 -6.297348616632194e-10 -1.0
  outer loop
    vertex 65.16923489962643 -286.84094589992833 -10.99999979281869
    vertex 66.0154289773391 -284.9419494492569 -10.999999668451608
    vertex 66.51542897733897 -285.807974853042 -10.99999977275898
  endloop
endfacet
facet normal -2.656877068431217e-09 -6.297348616632194e-10 -1.0
  outer loop
    vertex 66.51542897733897 -285.807974853042 -10.99999977275898
    vertex 66.0154289773391 -284.9419494492569 -10.999999668451608
    vertex 67.82428613907004 -284.192696280473 -10.999999695405482
  endloop
endfacet
facet normal -2.656877068431217e-09 -6.297348616632194e-10 -1.0
  outer loop
    vertex 66.51542897733897 -285.807974853042 -10.99999977275898
    vertex 67.82428613907004 -284.192696280473 -10.999999695405482
    vertex 68.08310518417258 -285.1586221067619 -10.999999749398954
  endloop
endfacet
facet normal -2.656877068431217e-09 -6.297348616632194e-10 -1.0
  outer loop
    vertex 68.08310518417258 -285.1586221067619 -10.999999749398954
    vertex 67.82428613907004 -284.192696280473 -10.999999695405482
    vertex 69.76542897733906 -283.93713997764104 -10.999999724330555
  endloop
endfacet
facet normal -2.656877068431217e-09 -6.297348616632194e-10 -1.0
  outer loop
    vertex 68.08310518417258 -285.1586221067619 -10.999999749398954
    vertex 69.76542897733906 -283.93713997764104 -10.999999724330555
    vertex 69.76542897733896 -284.9371399776408 -10.999999724330559
  endloop
endfacet
facet normal -2.656877068431217e-09 -6.297348616632194e-10 -1.0
  outer loop
    vertex 69.76542897733896 -284.9371399776408 -10.999999724330559
    vertex 69.76542897733906 -283.93713997764104 -10.999999724330555
    vertex 72.51542897733897 -286.6740002568264 -10.99999968335266
  endloop
endfacet
facet normal -2.656877068431217e-09 -6.297348616632194e-10 -1.0
  outer loop
    vertex 72.51542897733897 -286.6740002568264 -10.99999968335266
    vertex 69.76542897733906 -283.93713997764104 -10.999999724330555
    vertex 71.28321931200138 -284.59818511265985 -10.99999974694723
  endloop
endfacet
facet normal -2.656877068431217e-09 -6.297348616632194e-10 -1.0
  outer loop
    vertex 72.51542897733897 -286.6740002568264 -10.99999968335266
    vertex 71.28321931200138 -284.59818511265985 -10.99999974694723
    vertex 72.6289809099067 -285.5623396086469 -10.999999767000473
  endloop
endfacet
facet normal -2.656877068431217e-09 -6.297348616632194e-10 -1.0
  outer loop
    vertex 72.51542897733897 -286.6740002568264 -10.99999968335266
    vertex 72.6289809099067 -285.5623396086469 -10.999999767000473
    vertex 72.51542897733914 -296.20027969845523 -10.99999968335266
  endloop
endfacet
facet normal -2.656877068431217e-09 -6.297348616632194e-10 -1.0
  outer loop
    vertex 72.51542897733914 -296.20027969845523 -10.99999968335266
    vertex 72.6289809099067 -285.5623396086469 -10.999999767000473
    vertex 72.62898090990669 -297.31194034663497 -10.999999767000498
  endloop
endfacet
facet normal -2.656877068431217e-09 -6.297348616632194e-10 -1.0
  outer loop
    vertex 72.62898090990669 -297.31194034663497 -10.999999767000498
    vertex 72.6289809099067 -285.5623396086469 -10.999999767000473
    vertex 72.75390517648904 -297.1746318074351 -10.999999724330559
  endloop
endfacet
facet normal -2.656877068431217e-09 -6.297348616632194e-10 -1.0
  outer loop
    vertex 72.75390517648904 -297.1746318074351 -10.999999724330559
    vertex 72.6289809099067 -285.5623396086469 -10.999999767000473
    vertex 72.75390517648879 -285.69964814784646 -10.999999724330547
  endloop
endfacet
facet normal -2.656877068431217e-09 -6.297348616632194e-10 -1.0
  outer loop
    vertex 72.75390517648904 -297.1746318074351 -10.999999724330559
    vertex 72.75390517648879 -285.69964814784646 -10.999999724330547
    vertex 73.74306826293166 -286.7868711682063 -10.99999978360157
  endloop
endfacet
facet normal -2.656877068431217e-09 -6.297348616632194e-10 -1.0
  outer loop
    vertex 72.75390517648904 -297.1746318074351 -10.999999724330559
    vertex 73.74306826293166 -286.7868711682063 -10.99999978360157
    vertex 73.74306826293164 -296.08740878707556 -10.999999783601572
  endloop
endfacet
facet normal -2.656877068431217e-09 -6.297348616632194e-10 -1.0
  outer loop
    vertex 73.74306826293164 -296.08740878707556 -10.999999783601572
    vertex 73.74306826293166 -286.7868711682063 -10.99999978360157
    vertex 74.5761038985965 -294.6567726347856 -10.999999796014679
  endloop
endfacet
facet normal -2.656877068431217e-09 -6.297348616632194e-10 -1.0
  outer loop
    vertex 74.5761038985965 -294.6567726347856 -10.999999796014679
    vertex 73.74306826293166 -286.7868711682063 -10.99999978360157
    vertex 74.57610389859649 -288.21750732049696 -10.999999796014675
  endloop
endfacet
facet normal -2.656877068431217e-09 -6.297348616632194e-10 -1.0
  outer loop
    vertex 74.5761038985965 -294.6567726347856 -10.999999796014679
    vertex 74.57610389859649 -288.21750732049696 -10.999999796014675
    vertex 75.09116683932871 -289.7908408317433 -10.99999980368966
  endloop
endfacet
facet normal -2.656877068431217e-09 -6.297348616632194e-10 -1.0
  outer loop
    vertex 74.5761038985965 -294.6567726347856 -10.999999796014679
    vertex 75.09116683932871 -289.7908408317433 -10.99999980368966
    vertex 75.09116683932872 -293.0834391235386 -10.99999980368966
  endloop
endfacet
facet normal -2.656877068431217e-09 -6.297348616632194e-10 -1.0
  outer loop
    vertex 75.09116683932872 -293.0834391235386 -10.99999980368966
    vertex 75.09116683932871 -289.7908408317433 -10.99999980368966
    vertex 75.26542897733913 -291.4371399776409 -10.999999806286347
  endloop
endfacet
facet normal -2.656877068431217e-09 -6.297348616632194e-10 -1.0
  outer loop
    vertex 63.265428977339056 -291.4371399776409 -10.9999998211874
    vertex 63.270238448955766 -295.187139977641 -10.999999627545378
    vertex 62.52098528017112 -293.37828281590987 -10.999999616380718
  endloop
endfacet
facet normal -2.656877068431217e-09 -6.297348616632194e-10 -1.0
  outer loop
    vertex 63.270238448955766 -295.187139977641 -10.999999627545378
    vertex 63.265428977339056 -291.4371399776409 -10.9999998211874
    vertex 63.486911106460134 -293.11946377080733 -10.999999817887085
  endloop
endfacet
facet normal -2.656877068431217e-09 -6.297348616632194e-10 -1.0
  outer loop
    vertex 63.270238448955766 -295.187139977641 -10.999999627545378
    vertex 63.486911106460134 -293.11946377080733 -10.999999817887085
    vertex 64.46212811843995 -296.74044083653996 -10.999999645305765
  endloop
endfacet
facet normal -2.656877068431217e-09 -6.297348616632194e-10 -1.0
  outer loop
    vertex 64.46212811843995 -296.74044083653996 -10.999999645305765
    vertex 63.486911106460134 -293.11946377080733 -10.999999817887085
    vertex 64.13626385274024 -294.6871399776409 -10.999999808211046
  endloop
endfacet
facet normal -2.656877068431217e-09 -6.297348616632194e-10 -1.0
  outer loop
    vertex 64.46212811843995 -296.74044083653996 -10.999999645305765
    vertex 64.13626385274024 -294.6871399776409 -10.999999808211046
    vertex 65.16923489962656 -296.03333405535346 -10.99999979281869
  endloop
endfacet
facet normal -2.656877068431217e-09 -6.297348616632194e-10 -1.0
  outer loop
    vertex 64.46212811843995 -296.74044083653996 -10.999999645305765
    vertex 65.16923489962656 -296.03333405535346 -10.99999979281869
    vertex 66.0154289773391 -297.9323305060235 -10.999999668451608
  endloop
endfacet
facet normal -2.656877068431217e-09 -6.297348616632194e-10 -1.0
  outer loop
    vertex 66.0154289773391 -297.9323305060235 -10.999999668451608
    vertex 65.16923489962656 -296.03333405535346 -10.99999979281869
    vertex 66.51542897733914 -297.0663051022397 -10.99999977275898
  endloop
endfacet
facet normal -2.656877068431217e-09 -6.297348616632194e-10 -1.0
  outer loop
    vertex 66.0154289773391 -297.9323305060235 -10.999999668451608
    vertex 66.51542897733914 -297.0663051022397 -10.99999977275898
    vertex 67.82428613907014 -298.68158367480885 -10.999999695405485
  endloop
endfacet
facet normal -2.656877068431217e-09 -6.297348616632194e-10 -1.0
  outer loop
    vertex 67.82428613907014 -298.68158367480885 -10.999999695405485
    vertex 66.51542897733914 -297.0663051022397 -10.99999977275898
    vertex 68.08310518417277 -297.7156578485198 -10.999999749398954
  endloop
endfacet
facet normal -2.656877068431217e-09 -6.297348616632194e-10 -1.0
  outer loop
    vertex 67.82428613907014 -298.68158367480885 -10.999999695405485
    vertex 68.08310518417277 -297.7156578485198 -10.999999749398954
    vertex 69.76542897733904 -298.93713997764087 -10.999999724330559
  endloop
endfacet
facet normal -2.656877068431217e-09 -6.297348616632194e-10 -1.0
  outer loop
    vertex 69.76542897733904 -298.93713997764087 -10.999999724330559
    vertex 68.08310518417277 -297.7156578485198 -10.999999749398954
    vertex 69.76542897733914 -297.93713997764087 -10.999999724330559
  endloop
endfacet
facet normal -2.656877068431217e-09 -6.297348616632194e-10 -1.0
  outer loop
    vertex 69.76542897733904 -298.93713997764087 -10.999999724330559
    vertex 69.76542897733914 -297.93713997764087 -10.999999724330559
    vertex 71.28321931200136 -298.2760948426206 -10.99999974694723
  endloop
endfacet
facet normal -2.656877068431217e-09 -6.297348616632194e-10 -1.0
  outer loop
    vertex 71.28321931200136 -298.2760948426206 -10.99999974694723
    vertex 69.76542897733914 -297.93713997764087 -10.999999724330559
    vertex 72.51542897733914 -296.20027969845523 -10.99999968335266
  endloop
endfacet
facet normal -2.656877068431217e-09 -6.297348616632194e-10 -1.0
  outer loop
    vertex 71.28321931200136 -298.2760948426206 -10.99999974694723
    vertex 72.51542897733914 -296.20027969845523 -10.99999968335266
    vertex 72.62898090990669 -297.31194034663497 -10.999999767000498
  endloop
endfacet
facet normal -2.656877068431217e-09 -6.297348616632194e-10 -1.0
  outer loop
    vertex 67.01542897733914 -296.2002796984553 -10.999999765308452
    vertex 67.35061441161636 -292.0841875903971 -10.999999688347279
    vertex 68.34192422927528 -296.7497320222307 -10.999999745542278
  endloop
endfacet
facet normal -2.656877068431217e-09 -6.297348616632194e-10 -1.0
  outer loop
    vertex 67.35061441161636 -292.0841875903971 -10.999999688347279
    vertex 67.01542897733914 -296.2002796984553 -10.999999765308452
    vertex 67.26542897733903 -291.43713997764087 -10.999999687077924
  endloop
endfacet
facet normal -2.656877068431217e-09 -6.297348616632194e-10 -1.0
  outer loop
    vertex 68.34192422927528 -296.7497320222307 -10.999999745542278
    vertex 67.35061441161636 -292.0841875903971 -10.999999688347279
    vertex 67.60036546787794 -292.6871399776408 -10.99999969206883
  endloop
endfacet
facet normal -2.656877068431217e-09 -6.297348616632194e-10 -1.0
  outer loop
    vertex 68.34192422927528 -296.7497320222307 -10.999999745542278
    vertex 67.60036546787794 -292.6871399776408 -10.99999969206883
    vertex 67.99766202437267 -293.20490693060725 -10.999999697988969
  endloop
endfacet
facet normal -2.656877068431217e-09 -6.297348616632194e-10 -1.0
  outer loop
    vertex 68.34192422927528 -296.7497320222307 -10.999999745542278
    vertex 67.99766202437267 -293.20490693060725 -10.999999697988969
    vertex 68.51542897733904 -293.602203487102 -10.999999705704239
  endloop
endfacet
facet normal -2.656877068431217e-09 -6.297348616632194e-10 -1.0
  outer loop
    vertex 68.34192422927528 -296.7497320222307 -10.999999745542278
    vertex 68.51542897733904 -293.602203487102 -10.999999705704239
    vertex 69.76542897733914 -296.93713997764087 -10.999999724330559
  endloop
endfacet
facet normal -2.656877068431217e-09 -6.297348616632194e-10 -1.0
  outer loop
    vertex 69.76542897733914 -296.93713997764087 -10.999999724330559
    vertex 68.51542897733904 -293.602203487102 -10.999999705704239
    vertex 69.11838136458275 -293.85195454336355 -10.999999714688867
  endloop
endfacet
facet normal -2.656877068431217e-09 -6.297348616632194e-10 -1.0
  outer loop
    vertex 69.76542897733914 -296.93713997764087 -10.999999724330559
    vertex 69.11838136458275 -293.85195454336355 -10.999999714688867
    vertex 69.76542897733906 -293.93713997764087 -10.999999724330559
  endloop
endfacet
facet normal -2.656877068431217e-09 -6.297348616632194e-10 -1.0
  outer loop
    vertex 69.76542897733914 -296.93713997764087 -10.999999724330559
    vertex 69.76542897733906 -293.93713997764087 -10.999999724330559
    vertex 70.41247659009535 -293.85195454336355 -10.999999733972249
  endloop
endfacet
facet normal -2.656877068431217e-09 -6.297348616632194e-10 -1.0
  outer loop
    vertex 69.76542897733914 -296.93713997764087 -10.999999724330559
    vertex 70.41247659009535 -293.85195454336355 -10.999999733972249
    vertex 71.18893372540302 -296.7497320222307 -10.999999703118839
  endloop
endfacet
facet normal -2.656877068431217e-09 -6.297348616632194e-10 -1.0
  outer loop
    vertex 71.18893372540302 -296.7497320222307 -10.999999703118839
    vertex 70.41247659009535 -293.85195454336355 -10.999999733972249
    vertex 71.01542897733906 -293.602203487102 -10.99999974295687
  endloop
endfacet
facet normal -2.656877068431217e-09 -6.297348616632194e-10 -1.0
  outer loop
    vertex 71.18893372540302 -296.7497320222307 -10.999999703118839
    vertex 71.01542897733906 -293.602203487102 -10.99999974295687
    vertex 71.53319593030544 -293.20490693060725 -10.999999750672147
  endloop
endfacet
facet normal -2.656877068431217e-09 -6.297348616632194e-10 -1.0
  outer loop
    vertex 71.18893372540302 -296.7497320222307 -10.999999703118839
    vertex 71.53319593030544 -293.20490693060725 -10.999999750672147
    vertex 72.51542897733914 -296.20027969845523 -10.99999968335266
  endloop
endfacet
facet normal -2.656877068431217e-09 -6.297348616632194e-10 -1.0
  outer loop
    vertex 72.51542897733914 -296.20027969845523 -10.99999968335266
    vertex 71.53319593030544 -293.20490693060725 -10.999999750672147
    vertex 71.93049248680016 -292.68713997764087 -10.999999756592283
  endloop
endfacet
facet normal -2.656877068431217e-09 -6.297348616632194e-10 -1.0
  outer loop
    vertex 72.51542897733914 -296.20027969845523 -10.99999968335266
    vertex 71.93049248680016 -292.68713997764087 -10.999999756592283
    vertex 72.18024354306174 -292.0841875903971 -10.999999760313838
  endloop
endfacet
facet normal -2.656877068431217e-09 -6.297348616632194e-10 -1.0
  outer loop
    vertex 72.51542897733914 -296.20027969845523 -10.99999968335266
    vertex 72.18024354306174 -292.0841875903971 -10.999999760313838
    vertex 72.26542897733907 -291.43713997764087 -10.99999976158319
  endloop
endfacet
facet normal -2.656877068431217e-09 -6.297348616632194e-10 -1.0
  outer loop
    vertex 72.51542897733914 -296.20027969845523 -10.99999968335266
    vertex 72.26542897733907 -291.43713997764087 -10.99999976158319
    vertex 72.51542897733897 -286.6740002568264 -10.99999968335266
  endloop
endfacet
facet normal 0.1305261922200667 -0.9914448613738084 1.944977714797743e-09
  outer loop
    vertex 69.76542897733896 -284.9371399776408 -10.999999724330559
    vertex 68.08310485634945 -285.1586221067619 11.000000086689539
    vertex 68.08310518417258 -285.1586221067619 -10.999999749398954
  endloop
endfacet
facet normal 0.1305261922200667 -0.9914448613738084 1.944977714797743e-09
  outer loop
    vertex 68.08310485634945 -285.1586221067619 11.000000086689539
    vertex 69.76542897733896 -284.9371399776408 -10.999999724330559
    vertex 69.76542864951583 -284.9371399776408 11.000000111757936
  endloop
endfacet
facet normal -0.5339969856611908 -0.8454863803189038 -7.95711741233698e-09
  outer loop
    vertex 72.51542897733897 -286.6740002568264 -10.99999968335266
    vertex 69.76542864951583 -284.9371399776408 11.000000111757936
    vertex 69.76542897733896 -284.9371399776408 -10.999999724330559
  endloop
endfacet
facet normal -0.5339969856611908 -0.8454863803189038 -7.95711741233698e-09
  outer loop
    vertex 69.76542864951583 -284.9371399776408 11.000000111757936
    vertex 72.51542897733897 -286.6740002568264 -10.99999968335266
    vertex 72.51542864951584 -286.6740002568264 11.000000152735833
  endloop
endfacet
facet normal 0.38268343236507496 0.923879532511293 5.702386127357428e-09
  outer loop
    vertex 71.1889333975797 -286.12454793305096 11.000000132969657
    vertex 72.51542897733897 -286.6740002568264 -10.99999968335266
    vertex 71.18893372540283 -286.12454793305096 -10.999999703118839
  endloop
endfacet
facet normal 0.38268343236507496 0.923879532511293 5.702386127357428e-09
  outer loop
    vertex 72.51542897733897 -286.6740002568264 -10.99999968335266
    vertex 71.1889333975797 -286.12454793305096 11.000000132969657
    vertex 72.51542864951584 -286.6740002568264 11.000000152735833
  endloop
endfacet
facet normal 0.1305261922200493 0.9914448613738108 1.944977714797949e-09
  outer loop
    vertex 69.76542864951583 -285.9371399776408 11.000000111757936
    vertex 71.18893372540283 -286.12454793305096 -10.999999703118839
    vertex 69.76542897733896 -285.9371399776408 -10.999999724330559
  endloop
endfacet
facet normal 0.1305261922200493 0.9914448613738108 1.944977714797949e-09
  outer loop
    vertex 71.18893372540283 -286.12454793305096 -10.999999703118839
    vertex 69.76542864951583 -285.9371399776408 11.000000111757936
    vertex 71.1889333975797 -286.12454793305096 11.000000132969657
  endloop
endfacet
facet normal -0.1305261922200812 0.9914448613738065 -1.944977714797959e-09
  outer loop
    vertex 68.34192390145196 -286.124547933051 11.000000090546216
    vertex 69.76542897733896 -285.9371399776408 -10.999999724330559
    vertex 68.34192422927511 -286.124547933051 -10.999999745542278
  endloop
endfacet
facet normal -0.1305261922200812 0.9914448613738065 -1.944977714797959e-09
  outer loop
    vertex 69.76542897733896 -285.9371399776408 -10.999999724330559
    vertex 68.34192390145196 -286.124547933051 11.000000090546216
    vertex 69.76542864951583 -285.9371399776408 11.000000111757936
  endloop
endfacet
facet normal -0.38268343236510177 0.9238795325112819 -5.702386127357394e-09
  outer loop
    vertex 67.01542864951583 -286.6740002568265 11.000000070780045
    vertex 68.34192422927511 -286.124547933051 -10.999999745542278
    vertex 67.01542897733897 -286.6740002568265 -10.999999765308452
  endloop
endfacet
facet normal -0.38268343236510177 0.9238795325112819 -5.702386127357394e-09
  outer loop
    vertex 68.34192422927511 -286.124547933051 -10.999999745542278
    vertex 67.01542864951583 -286.6740002568265 11.000000070780045
    vertex 68.34192390145196 -286.124547933051 11.000000090546216
  endloop
endfacet
facet normal -0.6087614290087302 0.7933533402912278 -9.0711863489763e-09
  outer loop
    vertex 65.87634135298984 -287.5480526811149 11.00000005380644
    vertex 67.01542897733897 -286.6740002568265 -10.999999765308452
    vertex 65.87634168081297 -287.5480526811149 -10.999999782282053
  endloop
endfacet
facet normal -0.6087614290087302 0.7933533402912278 -9.0711863489763e-09
  outer loop
    vertex 67.01542897733897 -286.6740002568265 -10.999999765308452
    vertex 65.87634135298984 -287.5480526811149 11.00000005380644
    vertex 67.01542864951583 -286.6740002568265 11.000000070780045
  endloop
endfacet
facet normal -0.7933533402912469 0.6087614290087052 -1.1821800211756787e-08
  outer loop
    vertex 65.87634135298984 -287.5480526811149 11.00000005380644
    vertex 65.00228925652459 -288.6871399776409 -10.999999795306357
    vertex 65.00228892870146 -288.6871399776409 11.000000040782139
  endloop
endfacet
facet normal -0.7933533402912469 0.6087614290087052 -1.1821800211756787e-08
  outer loop
    vertex 65.00228925652459 -288.6871399776409 -10.999999795306357
    vertex 65.87634135298984 -287.5480526811149 11.00000005380644
    vertex 65.87634168081297 -287.5480526811149 -10.999999782282053
  endloop
endfacet
facet normal -0.9238795325112951 0.38268343236506946 -1.3766777926554538e-08
  outer loop
    vertex 65.00228892870146 -288.6871399776409 11.000000040782139
    vertex 64.45283693274915 -290.01363522957706 -10.999999803493774
    vertex 64.45283660492602 -290.01363522957706 11.00000003259472
  endloop
endfacet
facet normal -0.9238795325112951 0.38268343236506946 -1.3766777926554538e-08
  outer loop
    vertex 64.45283693274915 -290.01363522957706 -10.999999803493774
    vertex 65.00228892870146 -288.6871399776409 11.000000040782139
    vertex 65.00228925652459 -288.6871399776409 -10.999999795306357
  endloop
endfacet
facet normal -0.9914448613738124 0.13052619222003592 -1.4773572476333775e-08
  outer loop
    vertex 64.45283660492602 -290.01363522957706 11.00000003259472
    vertex 64.26542897733906 -291.4371399776409 -10.999999806286347
    vertex 64.26542864951591 -291.4371399776409 11.000000029802141
  endloop
endfacet
facet normal -0.9914448613738124 0.13052619222003592 -1.4773572476333775e-08
  outer loop
    vertex 64.26542897733906 -291.4371399776409 -10.999999806286347
    vertex 64.45283660492602 -290.01363522957706 11.00000003259472
    vertex 64.45283693274915 -290.01363522957706 -10.999999803493774
  endloop
endfacet
facet normal -0.9914448613738084 -0.13052619222006684 -1.4773572476333779e-08
  outer loop
    vertex 64.26542864951591 -291.4371399776409 11.000000029802141
    vertex 64.4528369327492 -292.8606447257048 -10.999999803493774
    vertex 64.45283660492606 -292.8606447257048 11.00000003259472
  endloop
endfacet
facet normal -0.9914448613738084 -0.13052619222006684 -1.4773572476333779e-08
  outer loop
    vertex 64.4528369327492 -292.8606447257048 -10.999999803493774
    vertex 64.26542864951591 -291.4371399776409 11.000000029802141
    vertex 64.26542897733906 -291.4371399776409 -10.999999806286347
  endloop
endfacet
facet normal -0.9238795325112813 -0.3826834323651031 -1.3766777926554513e-08
  outer loop
    vertex 64.45283660492606 -292.8606447257048 11.00000003259472
    vertex 65.00228925652469 -294.1871399776409 -10.999999795306357
    vertex 65.00228892870156 -294.1871399776409 11.000000040782139
  endloop
endfacet
facet normal -0.9238795325112813 -0.3826834323651031 -1.3766777926554513e-08
  outer loop
    vertex 65.00228925652469 -294.1871399776409 -10.999999795306357
    vertex 64.45283660492606 -292.8606447257048 11.00000003259472
    vertex 64.4528369327492 -292.8606447257048 -10.999999803493774
  endloop
endfacet
facet normal -0.793353340291224 -0.6087614290087353 -1.1821800211756729e-08
  outer loop
    vertex 65.00228892870156 -294.1871399776409 11.000000040782139
    vertex 65.87634168081311 -295.3262272741669 -10.999999782282053
    vertex 65.87634135298998 -295.3262272741669 11.00000005380644
  endloop
endfacet
facet normal -0.793353340291224 -0.6087614290087353 -1.1821800211756729e-08
  outer loop
    vertex 65.87634168081311 -295.3262272741669 -10.999999782282053
    vertex 65.00228892870156 -294.1871399776409 11.000000040782139
    vertex 65.00228925652469 -294.1871399776409 -10.999999795306357
  endloop
endfacet
facet normal -0.608761429008699 -0.7933533402912517 -9.07118634897621e-09
  outer loop
    vertex 67.01542897733914 -296.2002796984553 -10.999999765308452
    vertex 65.87634135298998 -295.3262272741669 11.00000005380644
    vertex 65.87634168081311 -295.3262272741669 -10.999999782282053
  endloop
endfacet
facet normal -0.608761429008699 -0.7933533402912517 -9.07118634897621e-09
  outer loop
    vertex 65.87634135298998 -295.3262272741669 11.00000005380644
    vertex 67.01542897733914 -296.2002796984553 -10.999999765308452
    vertex 67.015428649516 -296.2002796984553 11.000000070780045
  endloop
endfacet
facet normal -0.38268343236507496 -0.923879532511293 -5.702386127357428e-09
  outer loop
    vertex 68.34192422927528 -296.7497320222307 -10.999999745542278
    vertex 67.015428649516 -296.2002796984553 11.000000070780045
    vertex 67.01542897733914 -296.2002796984553 -10.999999765308452
  endloop
endfacet
facet normal -0.38268343236507496 -0.923879532511293 -5.702386127357428e-09
  outer loop
    vertex 67.015428649516 -296.2002796984553 11.000000070780045
    vertex 68.34192422927528 -296.7497320222307 -10.999999745542278
    vertex 68.34192390145213 -296.7497320222307 11.000000090546216
  endloop
endfacet
facet normal -0.1305261922200493 -0.9914448613738108 -1.944977714797949e-09
  outer loop
    vertex 69.76542897733914 -296.93713997764087 -10.999999724330559
    vertex 68.34192390145213 -296.7497320222307 11.000000090546216
    vertex 68.34192422927528 -296.7497320222307 -10.999999745542278
  endloop
endfacet
facet normal -0.1305261922200493 -0.9914448613738108 -1.944977714797949e-09
  outer loop
    vertex 68.34192390145213 -296.7497320222307 11.000000090546216
    vertex 69.76542897733914 -296.93713997764087 -10.999999724330559
    vertex 69.76542864951601 -296.93713997764087 11.000000111757936
  endloop
endfacet
facet normal 0.13052619222008022 -0.9914448613738068 1.944977714797944e-09
  outer loop
    vertex 71.18893372540302 -296.7497320222307 -10.999999703118839
    vertex 69.76542864951601 -296.93713997764087 11.000000111757936
    vertex 69.76542897733914 -296.93713997764087 -10.999999724330559
  endloop
endfacet
facet normal 0.13052619222008022 -0.9914448613738068 1.944977714797944e-09
  outer loop
    vertex 69.76542864951601 -296.93713997764087 11.000000111757936
    vertex 71.18893372540302 -296.7497320222307 -10.999999703118839
    vertex 71.18893339757987 -296.7497320222307 11.000000132969657
  endloop
endfacet
facet normal 0.38268343236510455 -0.9238795325112806 5.7023861273574356e-09
  outer loop
    vertex 72.51542897733914 -296.20027969845523 -10.99999968335266
    vertex 71.18893339757987 -296.7497320222307 11.000000132969657
    vertex 71.18893372540302 -296.7497320222307 -10.999999703118839
  endloop
endfacet
facet normal 0.38268343236510455 -0.9238795325112806 5.7023861273574356e-09
  outer loop
    vertex 71.18893339757987 -296.7497320222307 11.000000132969657
    vertex 72.51542897733914 -296.20027969845523 -10.99999968335266
    vertex 72.515428649516 -296.20027969845523 11.000000152735833
  endloop
endfacet
facet normal -0.5339969856612122 0.8454863803188902 -7.9571174123369e-09
  outer loop
    vertex 69.76542864951601 -297.93713997764087 11.000000111757936
    vertex 72.51542897733914 -296.20027969845523 -10.99999968335266
    vertex 69.76542897733914 -297.93713997764087 -10.999999724330559
  endloop
endfacet
facet normal -0.5339969856612122 0.8454863803188902 -7.9571174123369e-09
  outer loop
    vertex 72.51542897733914 -296.20027969845523 -10.99999968335266
    vertex 69.76542864951601 -297.93713997764087 11.000000111757936
    vertex 72.515428649516 -296.20027969845523 11.000000152735833
  endloop
endfacet
facet normal 0.13052619222004058 0.9914448613738119 1.9449777147978196e-09
  outer loop
    vertex 68.08310485634962 -297.7156578485198 11.000000086689539
    vertex 69.76542897733914 -297.93713997764087 -10.999999724330559
    vertex 68.08310518417277 -297.7156578485198 -10.999999749398954
  endloop
endfacet
facet normal 0.13052619222004058 0.9914448613738119 1.9449777147978196e-09
  outer loop
    vertex 69.76542897733914 -297.93713997764087 -10.999999724330559
    vertex 68.08310485634962 -297.7156578485198 11.000000086689539
    vertex 69.76542864951601 -297.93713997764087 11.000000111757936
  endloop
endfacet
facet normal 0.38268343236508573 0.9238795325112886 5.702386127357589e-09
  outer loop
    vertex 66.515428649516 -297.0663051022397 11.000000063329512
    vertex 68.08310518417277 -297.7156578485198 -10.999999749398954
    vertex 66.51542897733914 -297.0663051022397 -10.99999977275898
  endloop
endfacet
facet normal 0.38268343236508573 0.9238795325112886 5.702386127357589e-09
  outer loop
    vertex 68.08310518417277 -297.7156578485198 -10.999999749398954
    vertex 66.515428649516 -297.0663051022397 11.000000063329512
    vertex 68.08310485634962 -297.7156578485198 11.000000086689539
  endloop
endfacet
facet normal 0.608761429008699 0.7933533402912518 9.071186348976208e-09
  outer loop
    vertex 65.16923457180343 -296.03333405535346 11.000000043269806
    vertex 66.51542897733914 -297.0663051022397 -10.99999977275898
    vertex 65.16923489962656 -296.03333405535346 -10.99999979281869
  endloop
endfacet
facet normal 0.608761429008699 0.7933533402912518 9.071186348976208e-09
  outer loop
    vertex 66.51542897733914 -297.0663051022397 -10.99999977275898
    vertex 65.16923457180343 -296.03333405535346 11.000000043269806
    vertex 66.515428649516 -297.0663051022397 11.000000063329512
  endloop
endfacet
facet normal 0.7933533402912298 0.6087614290087274 1.1821800211756816e-08
  outer loop
    vertex 64.13626385274024 -294.6871399776409 -10.999999808211046
    vertex 65.16923457180343 -296.03333405535346 11.000000043269806
    vertex 65.16923489962656 -296.03333405535346 -10.99999979281869
  endloop
endfacet
facet normal 0.7933533402912298 0.6087614290087274 1.1821800211756816e-08
  outer loop
    vertex 65.16923457180343 -296.03333405535346 11.000000043269806
    vertex 64.13626385274024 -294.6871399776409 -10.999999808211046
    vertex 64.13626352491711 -294.6871399776409 11.000000027877446
  endloop
endfacet
facet normal 0.9238795325112817 0.3826834323651018 1.3766777926554518e-08
  outer loop
    vertex 63.486911106460134 -293.11946377080733 -10.999999817887085
    vertex 64.13626352491711 -294.6871399776409 11.000000027877446
    vertex 64.13626385274024 -294.6871399776409 -10.999999808211046
  endloop
endfacet
facet normal 0.9238795325112817 0.3826834323651018 1.3766777926554518e-08
  outer loop
    vertex 64.13626352491711 -294.6871399776409 11.000000027877446
    vertex 63.486911106460134 -293.11946377080733 -10.999999817887085
    vertex 63.486910778637004 -293.11946377080733 11.000000018201408
  endloop
endfacet
facet normal 0.9914448613738083 0.13052619222006673 1.4773572476333775e-08
  outer loop
    vertex 63.265428977339056 -291.4371399776409 -10.9999998211874
    vertex 63.486910778637004 -293.11946377080733 11.000000018201408
    vertex 63.486911106460134 -293.11946377080733 -10.999999817887085
  endloop
endfacet
facet normal 0.9914448613738083 0.13052619222006673 1.4773572476333775e-08
  outer loop
    vertex 63.486910778637004 -293.11946377080733 11.000000018201408
    vertex 63.265428977339056 -291.4371399776409 -10.9999998211874
    vertex 63.26542864951592 -291.4371399776409 11.000000014901088
  endloop
endfacet
facet normal 0.9914448613738117 -0.1305261922200406 1.4773572476333765e-08
  outer loop
    vertex 63.48691110646009 -289.7548161844746 -10.999999817887085
    vertex 63.26542864951592 -291.4371399776409 11.000000014901088
    vertex 63.265428977339056 -291.4371399776409 -10.9999998211874
  endloop
endfacet
facet normal 0.9914448613738117 -0.1305261922200406 1.4773572476333765e-08
  outer loop
    vertex 63.26542864951592 -291.4371399776409 11.000000014901088
    vertex 63.48691110646009 -289.7548161844746 -10.999999817887085
    vertex 63.486910778636954 -289.7548161844746 11.000000018201408
  endloop
endfacet
facet normal 0.9238795325112951 -0.38268343236506974 1.3766777926554538e-08
  outer loop
    vertex 64.13626385274016 -288.1871399776409 -10.999999808211046
    vertex 63.486910778636954 -289.7548161844746 11.000000018201408
    vertex 63.48691110646009 -289.7548161844746 -10.999999817887085
  endloop
endfacet
facet normal 0.9238795325112951 -0.38268343236506974 1.3766777926554538e-08
  outer loop
    vertex 63.486910778636954 -289.7548161844746 11.000000018201408
    vertex 64.13626385274016 -288.1871399776409 -10.999999808211046
    vertex 64.13626352491703 -288.1871399776409 11.000000027877446
  endloop
endfacet
facet normal 0.7933533402912426 -0.6087614290087107 1.1821800211756724e-08
  outer loop
    vertex 65.16923489962643 -286.84094589992833 -10.99999979281869
    vertex 64.13626352491703 -288.1871399776409 11.000000027877446
    vertex 64.13626385274016 -288.1871399776409 -10.999999808211046
  endloop
endfacet
facet normal 0.7933533402912426 -0.6087614290087107 1.1821800211756724e-08
  outer loop
    vertex 64.13626352491703 -288.1871399776409 11.000000027877446
    vertex 65.16923489962643 -286.84094589992833 -10.99999979281869
    vertex 65.16923457180329 -286.84094589992833 11.000000043269806
  endloop
endfacet
facet normal 0.6087614290087253 -0.7933533402912315 9.07118634897623e-09
  outer loop
    vertex 66.51542897733897 -285.807974853042 -10.99999977275898
    vertex 65.16923457180329 -286.84094589992833 11.000000043269806
    vertex 65.16923489962643 -286.84094589992833 -10.99999979281869
  endloop
endfacet
facet normal 0.6087614290087253 -0.7933533402912315 9.07118634897623e-09
  outer loop
    vertex 65.16923457180329 -286.84094589992833 11.000000043269806
    vertex 66.51542897733897 -285.807974853042 -10.99999977275898
    vertex 66.51542864951584 -285.807974853042 11.000000063329512
  endloop
endfacet
facet normal 0.3826834323651107 -0.9238795325112782 5.702386127357527e-09
  outer loop
    vertex 68.08310518417258 -285.1586221067619 -10.999999749398954
    vertex 66.51542864951584 -285.807974853042 11.000000063329512
    vertex 66.51542897733897 -285.807974853042 -10.99999977275898
  endloop
endfacet
facet normal 0.3826834323651107 -0.9238795325112782 5.702386127357527e-09
  outer loop
    vertex 66.51542864951584 -285.807974853042 11.000000063329512
    vertex 68.08310518417258 -285.1586221067619 -10.999999749398954
    vertex 68.08310485634945 -285.1586221067619 11.000000086689539
  endloop
endfacet
endsolid Design - Rolled
