solid Design - Rolled
facet normal 0.9914448613738105 -0.1305261922200505 9.16888929972306e-13
  outer loop
    vertex 167.49026498990148 -226.94657733664204 2.5703994488424085e-12
    vertex 167.55159850256928 -226.48070305547432 10.499999999991058
    vertex 167.4902649898896 -226.94657733665883 10.499999999990248
  endloop
endfacet
facet normal 0.9914448613738105 -0.1305261922200505 9.16888929972306e-13
  outer loop
    vertex 167.55159850256928 -226.48070305547432 10.499999999991058
    vertex 167.49026498990148 -226.94657733664204 2.5703994488424085e-12
    vertex 167.55159850258116 -226.48070305545752 3.379729829333655e-12
  endloop
endfacet
facet normal 1.1343734445460572e-12 1.591862820540275e-12 -1.0
  outer loop
    vertex 164.01293201526084 -226.014828774273 1.0856870957809406e-13
    vertex 164.01293201526084 -226.94657733664204 -1.3747336602421e-12
    vertex 163.95159850258116 -226.48070305545752 -7.035816373957004e-13
  endloop
endfacet
facet normal 1.1343734445460572e-12 1.591862820540275e-12 -1.0
  outer loop
    vertex 164.01293201526084 -226.94657733664204 -1.3747336602421e-12
    vertex 164.01293201526084 -226.014828774273 1.0856870957809406e-13
    vertex 164.19275277576918 -225.58070305545755 1.0024980845457775e-12
  endloop
endfacet
facet normal 1.1343734445460572e-12 1.591862820540275e-12 -1.0
  outer loop
    vertex 164.01293201526084 -226.94657733664204 -1.3747336602421e-12
    vertex 164.19275277576918 -225.58070305545755 1.0024980845457775e-12
    vertex 164.19275277576918 -227.38070305545756 -1.8625878617228865e-12
  endloop
endfacet
facet normal 1.1343734445460572e-12 1.591862820540275e-12 -1.0
  outer loop
    vertex 164.19275277576918 -227.38070305545756 -1.8625878617228865e-12
    vertex 164.19275277576918 -225.58070305545755 1.0024980845457775e-12
    vertex 164.47880629644538 -225.20791084932176 1.921807157856392e-12
  endloop
endfacet
facet normal 1.1343734445460572e-12 1.591862820540275e-12 -1.0
  outer loop
    vertex 164.19275277576918 -227.38070305545756 -1.8625878617228865e-12
    vertex 164.47880629644538 -225.20791084932176 1.921807157856392e-12
    vertex 164.47880629644538 -227.7534952615933 -2.1304846775649367e-12
  endloop
endfacet
facet normal 1.1343734445460572e-12 1.591862820540275e-12 -1.0
  outer loop
    vertex 164.47880629644538 -227.7534952615933 -2.1304846775649367e-12
    vertex 164.47880629644538 -225.20791084932176 1.921807157856392e-12
    vertex 164.85159850258117 -224.92185732864553 2.7988167339287884e-12
  endloop
endfacet
facet normal 1.1343734445460572e-12 1.591862820540275e-12 -1.0
  outer loop
    vertex 164.47880629644538 -227.7534952615933 -2.1304846775649367e-12
    vertex 164.85159850258117 -224.92185732864553 2.7988167339287884e-12
    vertex 164.85159850258117 -228.03954878226952 -2.1643242753555114e-12
  endloop
endfacet
facet normal 1.1343734445460572e-12 1.591862820540275e-12 -1.0
  outer loop
    vertex 164.85159850258117 -228.03954878226952 -2.1643242753555114e-12
    vertex 164.85159850258117 -224.92185732864553 2.7988167339287884e-12
    vertex 165.28572422139663 -224.7420365681372 3.577127483112008e-12
  endloop
endfacet
facet normal 1.1343734445460572e-12 1.591862820540275e-12 -1.0
  outer loop
    vertex 164.85159850258117 -228.03954878226952 -2.1643242753555114e-12
    vertex 165.28572422139663 -224.7420365681372 3.577127483112008e-12
    vertex 165.28572422139663 -228.21936954277786 -1.958466722129515e-12
  endloop
endfacet
facet normal 1.1343734445460572e-12 1.591862820540275e-12 -1.0
  outer loop
    vertex 165.28572422139663 -228.21936954277786 -1.958466722129515e-12
    vertex 165.28572422139663 -224.7420365681372 3.577127483112008e-12
    vertex 165.75159850258117 -224.68070305545754 4.203160042237641e-12
  endloop
endfacet
facet normal 1.1343734445460572e-12 1.591862820540275e-12 -1.0
  outer loop
    vertex 165.28572422139663 -228.21936954277786 -1.958466722129515e-12
    vertex 165.75159850258117 -224.68070305545754 4.203160042237641e-12
    vertex 165.75159850258117 -228.28070305545754 -1.5270118502996864e-12
  endloop
endfacet
facet normal 1.1343734445460572e-12 1.591862820540275e-12 -1.0
  outer loop
    vertex 165.75159850258117 -228.28070305545754 -1.5270118502996864e-12
    vertex 165.75159850258117 -224.68070305545754 4.203160042237641e-12
    vertex 166.2174727837657 -224.7420365681372 4.634614914067469e-12
  endloop
endfacet
facet normal 1.1343734445460572e-12 1.591862820540275e-12 -1.0
  outer loop
    vertex 165.75159850258117 -228.28070305545754 -1.5270118502996864e-12
    vertex 166.2174727837657 -224.7420365681372 4.634614914067469e-12
    vertex 166.2174727837657 -228.21936954277786 -9.009792911740532e-13
  endloop
endfacet
facet normal 1.1343734445460572e-12 1.591862820540275e-12 -1.0
  outer loop
    vertex 166.2174727837657 -228.21936954277786 -9.009792911740532e-13
    vertex 166.2174727837657 -224.7420365681372 4.634614914067469e-12
    vertex 166.65159850258115 -224.92185732864553 4.840472467293466e-12
  endloop
endfacet
facet normal 1.1343734445460572e-12 1.591862820540275e-12 -1.0
  outer loop
    vertex 166.2174727837657 -228.21936954277786 -9.009792911740532e-13
    vertex 166.65159850258115 -224.92185732864553 4.840472467293466e-12
    vertex 166.65159850258115 -228.03954878226952 -1.2266854199083353e-13
  endloop
endfacet
facet normal 1.1343734445460572e-12 1.591862820540275e-12 -1.0
  outer loop
    vertex 166.65159850258115 -228.03954878226952 -1.2266854199083353e-13
    vertex 166.65159850258115 -224.92185732864553 4.840472467293466e-12
    vertex 167.02439070871694 -225.20791084932176 4.809452835985439e-12
  endloop
endfacet
facet normal 1.1343734445460572e-12 1.591862820540275e-12 -1.0
  outer loop
    vertex 166.65159850258115 -228.03954878226952 -1.2266854199083353e-13
    vertex 167.02439070871694 -225.20791084932176 4.809452835985439e-12
    vertex 167.02439070871694 -227.7534952615933 7.571610005641105e-13
  endloop
endfacet
facet normal 1.1343734445460572e-12 1.591862820540275e-12 -1.0
  outer loop
    vertex 167.02439070871694 -227.7534952615933 7.571610005641105e-13
    vertex 167.02439070871694 -225.20791084932176 4.809452835985439e-12
    vertex 167.31044422939314 -225.58070305545752 4.538736053660841e-12
  endloop
endfacet
facet normal 1.1343734445460572e-12 1.591862820540275e-12 -1.0
  outer loop
    vertex 167.02439070871694 -227.7534952615933 7.571610005641105e-13
    vertex 167.31044422939314 -225.58070305545752 4.538736053660841e-12
    vertex 167.31044422939317 -227.3807030554575 1.6736501073921772e-12
  endloop
endfacet
facet normal 1.1343734445460572e-12 1.591862820540275e-12 -1.0
  outer loop
    vertex 167.31044422939317 -227.3807030554575 1.6736501073921772e-12
    vertex 167.31044422939314 -225.58070305545752 4.538736053660841e-12
    vertex 167.49026498990148 -226.014828774273 4.053701818662603e-12
  endloop
endfacet
facet normal 1.1343734445460572e-12 1.591862820540275e-12 -1.0
  outer loop
    vertex 167.31044422939317 -227.3807030554575 1.6736501073921772e-12
    vertex 167.49026498990148 -226.014828774273 4.053701818662603e-12
    vertex 167.49026498990148 -226.94657733664204 2.5703994488424085e-12
  endloop
endfacet
facet normal 1.1343734445460572e-12 1.591862820540275e-12 -1.0
  outer loop
    vertex 167.49026498990148 -226.94657733664204 2.5703994488424085e-12
    vertex 167.49026498990148 -226.014828774273 4.053701818662603e-12
    vertex 167.55159850258116 -226.48070305545752 3.379729829333655e-12
  endloop
endfacet
facet normal 0.6087614290087642 0.7933533402912017 1.953472485092453e-12
  outer loop
    vertex 166.65159850258115 -224.92185732864553 4.840472467293466e-12
    vertex 167.02439070870506 -225.20791084933856 10.499999999992486
    vertex 167.02439070871694 -225.20791084932176 4.809452835985439e-12
  endloop
endfacet
facet normal 0.6087614290087642 0.7933533402912017 1.953472485092453e-12
  outer loop
    vertex 167.02439070870506 -225.20791084933856 10.499999999992486
    vertex 166.65159850258115 -224.92185732864553 4.840472467293466e-12
    vertex 166.65159850256927 -224.92185732866233 10.49999999999252
  endloop
endfacet
facet normal 0.9238795325112925 -0.382683432365076 4.388448796217326e-13
  outer loop
    vertex 167.31044422939317 -227.3807030554575 1.6736501073921772e-12
    vertex 167.4902649898896 -226.94657733665883 10.499999999990248
    vertex 167.31044422938126 -227.3807030554743 10.499999999989353
  endloop
endfacet
facet normal 0.9238795325112925 -0.382683432365076 4.388448796217326e-13
  outer loop
    vertex 167.4902649898896 -226.94657733665883 10.499999999990248
    vertex 167.31044422939317 -227.3807030554575 1.6736501073921772e-12
    vertex 167.49026498990148 -226.94657733664204 2.5703994488424085e-12
  endloop
endfacet
facet normal 0.793353340291225 -0.608761429008734 -6.910572404969447e-14
  outer loop
    vertex 167.02439070871694 -227.7534952615933 7.571610005641105e-13
    vertex 167.31044422938126 -227.3807030554743 10.499999999989353
    vertex 167.02439070870506 -227.75349526161008 10.499999999988434
  endloop
endfacet
facet normal 0.793353340291225 -0.608761429008734 -6.910572404969447e-14
  outer loop
    vertex 167.31044422938126 -227.3807030554743 10.499999999989353
    vertex 167.02439070871694 -227.7534952615933 7.571610005641105e-13
    vertex 167.31044422939317 -227.3807030554575 1.6736501073921772e-12
  endloop
endfacet
facet normal 0.6087614290087642 -0.7933533402912017 -5.723468868295492e-13
  outer loop
    vertex 167.02439070871694 -227.7534952615933 7.571610005641105e-13
    vertex 166.65159850256927 -228.03954878228632 10.499999999987557
    vertex 166.65159850258115 -228.03954878226952 -1.2266854199083353e-13
  endloop
endfacet
facet normal 0.6087614290087642 -0.7933533402912017 -5.723468868295492e-13
  outer loop
    vertex 166.65159850256927 -228.03954878228632 10.499999999987557
    vertex 167.02439070871694 -227.7534952615933 7.571610005641105e-13
    vertex 167.02439070870506 -227.75349526161008 10.499999999988434
  endloop
endfacet
facet normal 0.382683432365076 -0.9238795325112925 -1.0365835551201774e-12
  outer loop
    vertex 166.65159850258115 -228.03954878226952 -1.2266854199083353e-13
    vertex 166.2174727837538 -228.21936954279465 10.499999999986777
    vertex 166.2174727837657 -228.21936954277786 -9.009792911740532e-13
  endloop
endfacet
facet normal 0.382683432365076 -0.9238795325112925 -1.0365835551201774e-12
  outer loop
    vertex 166.2174727837538 -228.21936954279465 10.499999999986777
    vertex 166.65159850258115 -228.03954878226952 -1.2266854199083353e-13
    vertex 166.65159850256927 -228.03954878228632 10.499999999987557
  endloop
endfacet
facet normal 0.1305261922200443 -0.9914448613738114 -1.430178767164545e-12
  outer loop
    vertex 166.2174727837657 -228.21936954277786 -9.009792911740532e-13
    vertex 165.75159850256927 -228.2807030554743 10.499999999986152
    vertex 165.75159850258117 -228.28070305545754 -1.5270118502996864e-12
  endloop
endfacet
facet normal 0.1305261922200443 -0.9914448613738114 -1.430178767164545e-12
  outer loop
    vertex 165.75159850256927 -228.2807030554743 10.499999999986152
    vertex 166.2174727837657 -228.21936954277786 -9.009792911740532e-13
    vertex 166.2174727837538 -228.21936954279465 10.499999999986777
  endloop
endfacet
facet normal -1.1343734445460572e-12 -1.591862820540275e-12 1.0
  outer loop
    vertex 164.01293201524894 -226.94657733665883 10.499999999986303
    vertex 164.01293201524894 -226.0148287742898 10.499999999987786
    vertex 163.95159850256928 -226.48070305547432 10.499999999986976
  endloop
endfacet
facet normal -1.1343734445460572e-12 -1.591862820540275e-12 1.0
  outer loop
    vertex 164.01293201524894 -226.0148287742898 10.499999999987786
    vertex 164.01293201524894 -226.94657733665883 10.499999999986303
    vertex 164.1927527757573 -227.38070305547433 10.499999999985816
  endloop
endfacet
facet normal -1.1343734445460572e-12 -1.591862820540275e-12 1.0
  outer loop
    vertex 164.01293201524894 -226.0148287742898 10.499999999987786
    vertex 164.1927527757573 -227.38070305547433 10.499999999985816
    vertex 164.1927527757573 -225.58070305547434 10.499999999988681
  endloop
endfacet
facet normal -1.1343734445460572e-12 -1.591862820540275e-12 1.0
  outer loop
    vertex 164.1927527757573 -225.58070305547434 10.499999999988681
    vertex 164.1927527757573 -227.38070305547433 10.499999999985816
    vertex 164.47880629643348 -227.75349526161008 10.499999999985548
  endloop
endfacet
facet normal -1.1343734445460572e-12 -1.591862820540275e-12 1.0
  outer loop
    vertex 164.1927527757573 -225.58070305547434 10.499999999988681
    vertex 164.47880629643348 -227.75349526161008 10.499999999985548
    vertex 164.47880629643348 -225.20791084933856 10.4999999999896
  endloop
endfacet
facet normal -1.1343734445460572e-12 -1.591862820540275e-12 1.0
  outer loop
    vertex 164.47880629643348 -225.20791084933856 10.4999999999896
    vertex 164.47880629643348 -227.75349526161008 10.499999999985548
    vertex 164.85159850256926 -228.03954878228632 10.499999999985514
  endloop
endfacet
facet normal -1.1343734445460572e-12 -1.591862820540275e-12 1.0
  outer loop
    vertex 164.47880629643348 -225.20791084933856 10.4999999999896
    vertex 164.85159850256926 -228.03954878228632 10.499999999985514
    vertex 164.85159850256926 -224.92185732866233 10.499999999990477
  endloop
endfacet
facet normal -1.1343734445460572e-12 -1.591862820540275e-12 1.0
  outer loop
    vertex 164.85159850256926 -224.92185732866233 10.499999999990477
    vertex 164.85159850256926 -228.03954878228632 10.499999999985514
    vertex 165.28572422138473 -228.21936954279465 10.49999999998572
  endloop
endfacet
facet normal -1.1343734445460572e-12 -1.591862820540275e-12 1.0
  outer loop
    vertex 164.85159850256926 -224.92185732866233 10.499999999990477
    vertex 165.28572422138473 -228.21936954279465 10.49999999998572
    vertex 165.28572422138473 -224.742036568154 10.499999999991255
  endloop
endfacet
facet normal -1.1343734445460572e-12 -1.591862820540275e-12 1.0
  outer loop
    vertex 165.28572422138473 -224.742036568154 10.499999999991255
    vertex 165.28572422138473 -228.21936954279465 10.49999999998572
    vertex 165.75159850256927 -228.2807030554743 10.499999999986152
  endloop
endfacet
facet normal -1.1343734445460572e-12 -1.591862820540275e-12 1.0
  outer loop
    vertex 165.28572422138473 -224.742036568154 10.499999999991255
    vertex 165.75159850256927 -228.2807030554743 10.499999999986152
    vertex 165.75159850256927 -224.6807030554743 10.499999999991882
  endloop
endfacet
facet normal -1.1343734445460572e-12 -1.591862820540275e-12 1.0
  outer loop
    vertex 165.75159850256927 -224.6807030554743 10.499999999991882
    vertex 165.75159850256927 -228.2807030554743 10.499999999986152
    vertex 166.2174727837538 -228.21936954279465 10.499999999986777
  endloop
endfacet
facet normal -1.1343734445460572e-12 -1.591862820540275e-12 1.0
  outer loop
    vertex 165.75159850256927 -224.6807030554743 10.499999999991882
    vertex 166.2174727837538 -228.21936954279465 10.499999999986777
    vertex 166.2174727837538 -224.742036568154 10.499999999992314
  endloop
endfacet
facet normal -1.1343734445460572e-12 -1.591862820540275e-12 1.0
  outer loop
    vertex 166.2174727837538 -224.742036568154 10.499999999992314
    vertex 166.2174727837538 -228.21936954279465 10.499999999986777
    vertex 166.65159850256927 -228.03954878228632 10.499999999987557
  endloop
endfacet
facet normal -1.1343734445460572e-12 -1.591862820540275e-12 1.0
  outer loop
    vertex 166.2174727837538 -224.742036568154 10.499999999992314
    vertex 166.65159850256927 -228.03954878228632 10.499999999987557
    vertex 166.65159850256927 -224.92185732866233 10.49999999999252
  endloop
endfacet
facet normal -1.1343734445460572e-12 -1.591862820540275e-12 1.0
  outer loop
    vertex 166.65159850256927 -224.92185732866233 10.49999999999252
    vertex 166.65159850256927 -228.03954878228632 10.499999999987557
    vertex 167.02439070870506 -227.75349526161008 10.499999999988434
  endloop
endfacet
facet normal -1.1343734445460572e-12 -1.591862820540275e-12 1.0
  outer loop
    vertex 166.65159850256927 -224.92185732866233 10.49999999999252
    vertex 167.02439070870506 -227.75349526161008 10.499999999988434
    vertex 167.02439070870506 -225.20791084933856 10.499999999992486
  endloop
endfacet
facet normal -1.1343734445460572e-12 -1.591862820540275e-12 1.0
  outer loop
    vertex 167.02439070870506 -225.20791084933856 10.499999999992486
    vertex 167.02439070870506 -227.75349526161008 10.499999999988434
    vertex 167.31044422938126 -227.3807030554743 10.499999999989353
  endloop
endfacet
facet normal -1.1343734445460572e-12 -1.591862820540275e-12 1.0
  outer loop
    vertex 167.02439070870506 -225.20791084933856 10.499999999992486
    vertex 167.31044422938126 -227.3807030554743 10.499999999989353
    vertex 167.31044422938126 -225.5807030554743 10.499999999992218
  endloop
endfacet
facet normal -1.1343734445460572e-12 -1.591862820540275e-12 1.0
  outer loop
    vertex 167.31044422938126 -225.5807030554743 10.499999999992218
    vertex 167.31044422938126 -227.3807030554743 10.499999999989353
    vertex 167.4902649898896 -226.0148287742898 10.499999999991731
  endloop
endfacet
facet normal -1.1343734445460572e-12 -1.591862820540275e-12 1.0
  outer loop
    vertex 167.4902649898896 -226.0148287742898 10.499999999991731
    vertex 167.31044422938126 -227.3807030554743 10.499999999989353
    vertex 167.4902649898896 -226.94657733665883 10.499999999990248
  endloop
endfacet
facet normal -1.1343734445460572e-12 -1.591862820540275e-12 1.0
  outer loop
    vertex 167.4902649898896 -226.0148287742898 10.499999999991731
    vertex 167.4902649898896 -226.94657733665883 10.499999999990248
    vertex 167.55159850256928 -226.48070305547432 10.499999999991058
  endloop
endfacet
facet normal 0.1305261922200443 0.9914448613738114 1.7263096597088096e-12
  outer loop
    vertex 165.75159850256927 -224.6807030554743 10.499999999991882
    vertex 166.2174727837657 -224.7420365681372 4.634614914067469e-12
    vertex 165.75159850258117 -224.68070305545754 4.203160042237641e-12
  endloop
endfacet
facet normal 0.1305261922200443 0.9914448613738114 1.7263096597088096e-12
  outer loop
    vertex 166.2174727837657 -224.7420365681372 4.634614914067469e-12
    vertex 165.75159850256927 -224.6807030554743 10.499999999991882
    vertex 166.2174727837538 -224.742036568154 10.499999999992314
  endloop
endfacet
facet normal 0.382683432365076 0.9238795325112925 1.904795401805536e-12
  outer loop
    vertex 166.2174727837538 -224.742036568154 10.499999999992314
    vertex 166.65159850258115 -224.92185732864553 4.840472467293466e-12
    vertex 166.2174727837657 -224.7420365681372 4.634614914067469e-12
  endloop
endfacet
facet normal 0.382683432365076 0.9238795325112925 1.904795401805536e-12
  outer loop
    vertex 166.65159850258115 -224.92185732864553 4.840472467293466e-12
    vertex 166.2174727837538 -224.742036568154 10.499999999992314
    vertex 166.65159850256927 -224.92185732866233 10.49999999999252
  endloop
endfacet
facet normal -0.6087614290087642 0.7933533402912017 5.723468868295492e-13
  outer loop
    vertex 164.47880629643348 -225.20791084933856 10.4999999999896
    vertex 164.85159850258117 -224.92185732864553 2.7988167339287884e-12
    vertex 164.47880629644538 -225.20791084932176 1.921807157856392e-12
  endloop
endfacet
facet normal -0.6087614290087642 0.7933533402912017 5.723468868295492e-13
  outer loop
    vertex 164.85159850258117 -224.92185732864553 2.7988167339287884e-12
    vertex 164.47880629643348 -225.20791084933856 10.4999999999896
    vertex 164.85159850256926 -224.92185732866233 10.499999999990477
  endloop
endfacet
facet normal -0.1305261922200443 0.9914448613738114 1.430178767164545e-12
  outer loop
    vertex 165.28572422138473 -224.742036568154 10.499999999991255
    vertex 165.75159850258117 -224.68070305545754 4.203160042237641e-12
    vertex 165.28572422139663 -224.7420365681372 3.577127483112008e-12
  endloop
endfacet
facet normal -0.1305261922200443 0.9914448613738114 1.430178767164545e-12
  outer loop
    vertex 165.75159850258117 -224.68070305545754 4.203160042237641e-12
    vertex 165.28572422138473 -224.742036568154 10.499999999991255
    vertex 165.75159850256927 -224.6807030554743 10.499999999991882
  endloop
endfacet
facet normal 0.7933533402912125 0.6087614290087501 1.8690236467862605e-12
  outer loop
    vertex 167.31044422939314 -225.58070305545752 4.538736053660841e-12
    vertex 167.02439070870506 -225.20791084933856 10.499999999992486
    vertex 167.31044422938126 -225.5807030554743 10.499999999992218
  endloop
endfacet
facet normal 0.7933533402912125 0.6087614290087501 1.8690236467862605e-12
  outer loop
    vertex 167.02439070870506 -225.20791084933856 10.499999999992486
    vertex 167.31044422939314 -225.58070305545752 4.538736053660841e-12
    vertex 167.02439070871694 -225.20791084932176 4.809452835985439e-12
  endloop
endfacet
facet normal -0.382683432365076 0.9238795325112925 1.0365835551201774e-12
  outer loop
    vertex 164.85159850256926 -224.92185732866233 10.499999999990477
    vertex 165.28572422139663 -224.7420365681372 3.577127483112008e-12
    vertex 164.85159850258117 -224.92185732864553 2.7988167339287884e-12
  endloop
endfacet
facet normal -0.382683432365076 0.9238795325112925 1.0365835551201774e-12
  outer loop
    vertex 165.28572422139663 -224.7420365681372 3.577127483112008e-12
    vertex 164.85159850256926 -224.92185732866233 10.499999999990477
    vertex 165.28572422138473 -224.742036568154 10.499999999991255
  endloop
endfacet
facet normal 0.9238795325112896 0.38268343236508306 1.6572039356591474e-12
  outer loop
    vertex 167.49026498990148 -226.014828774273 4.053701818662603e-12
    vertex 167.31044422938126 -225.5807030554743 10.499999999992218
    vertex 167.4902649898896 -226.0148287742898 10.499999999991731
  endloop
endfacet
facet normal 0.9238795325112896 0.38268343236508306 1.6572039356591474e-12
  outer loop
    vertex 167.31044422938126 -225.5807030554743 10.499999999992218
    vertex 167.49026498990148 -226.014828774273 4.053701818662603e-12
    vertex 167.31044422939314 -225.58070305545752 4.538736053660841e-12
  endloop
endfacet
facet normal 0.9914448613738105 0.1305261922200505 1.3324485149758893e-12
  outer loop
    vertex 167.55159850258116 -226.48070305545752 3.379729829333655e-12
    vertex 167.4902649898896 -226.0148287742898 10.499999999991731
    vertex 167.55159850256928 -226.48070305547432 10.499999999991058
  endloop
endfacet
facet normal 0.9914448613738105 0.1305261922200505 1.3324485149758893e-12
  outer loop
    vertex 167.4902649898896 -226.0148287742898 10.499999999991731
    vertex 167.55159850258116 -226.48070305545752 3.379729829333655e-12
    vertex 167.49026498990148 -226.014828774273 4.053701818662603e-12
  endloop
endfacet
facet normal -0.1305261922200443 -0.9914448613738114 -1.7263096597088096e-12
  outer loop
    vertex 165.75159850258117 -228.28070305545754 -1.5270118502996864e-12
    vertex 165.28572422138473 -228.21936954279465 10.49999999998572
    vertex 165.28572422139663 -228.21936954277786 -1.958466722129515e-12
  endloop
endfacet
facet normal -0.1305261922200443 -0.9914448613738114 -1.7263096597088096e-12
  outer loop
    vertex 165.28572422138473 -228.21936954279465 10.49999999998572
    vertex 165.75159850258117 -228.28070305545754 -1.5270118502996864e-12
    vertex 165.75159850256927 -228.2807030554743 10.499999999986152
  endloop
endfacet
facet normal -0.9238795325112896 -0.38268343236508306 -1.6572039356591474e-12
  outer loop
    vertex 164.01293201524894 -226.94657733665883 10.499999999986303
    vertex 164.19275277576918 -227.38070305545756 -1.8625878617228865e-12
    vertex 164.1927527757573 -227.38070305547433 10.499999999985816
  endloop
endfacet
facet normal -0.9238795325112896 -0.38268343236508306 -1.6572039356591474e-12
  outer loop
    vertex 164.19275277576918 -227.38070305545756 -1.8625878617228865e-12
    vertex 164.01293201524894 -226.94657733665883 10.499999999986303
    vertex 164.01293201526084 -226.94657733664204 -1.3747336602421e-12
  endloop
endfacet
facet normal -0.9238795325112755 0.382683432365117 -4.388448796216481e-13
  outer loop
    vertex 164.1927527757573 -225.58070305547434 10.499999999988681
    vertex 164.01293201526084 -226.014828774273 1.0856870957809406e-13
    vertex 164.01293201524894 -226.0148287742898 10.499999999987786
  endloop
endfacet
facet normal -0.9238795325112755 0.382683432365117 -4.388448796216481e-13
  outer loop
    vertex 164.01293201526084 -226.014828774273 1.0856870957809406e-13
    vertex 164.1927527757573 -225.58070305547434 10.499999999988681
    vertex 164.19275277576918 -225.58070305545755 1.0024980845457775e-12
  endloop
endfacet
facet normal -0.6087614290087642 -0.7933533402912017 -1.953472485092453e-12
  outer loop
    vertex 164.85159850256926 -228.03954878228632 10.499999999985514
    vertex 164.47880629644538 -227.7534952615933 -2.1304846775649367e-12
    vertex 164.85159850258117 -228.03954878226952 -2.1643242753555114e-12
  endloop
endfacet
facet normal -0.6087614290087642 -0.7933533402912017 -1.953472485092453e-12
  outer loop
    vertex 164.47880629644538 -227.7534952615933 -2.1304846775649367e-12
    vertex 164.85159850256926 -228.03954878228632 10.499999999985514
    vertex 164.47880629643348 -227.75349526161008 10.499999999985548
  endloop
endfacet
facet normal -0.9914448613738105 -0.1305261922200505 -1.3324485149758893e-12
  outer loop
    vertex 163.95159850256928 -226.48070305547432 10.499999999986976
    vertex 164.01293201526084 -226.94657733664204 -1.3747336602421e-12
    vertex 164.01293201524894 -226.94657733665883 10.499999999986303
  endloop
endfacet
facet normal -0.9914448613738105 -0.1305261922200505 -1.3324485149758893e-12
  outer loop
    vertex 164.01293201526084 -226.94657733664204 -1.3747336602421e-12
    vertex 163.95159850256928 -226.48070305547432 10.499999999986976
    vertex 163.95159850258116 -226.48070305545752 -7.035816373957004e-13
  endloop
endfacet
facet normal -0.7933533402912125 -0.6087614290087501 -1.8690236467862605e-12
  outer loop
    vertex 164.1927527757573 -227.38070305547433 10.499999999985816
    vertex 164.47880629644538 -227.7534952615933 -2.1304846775649367e-12
    vertex 164.47880629643348 -227.75349526161008 10.499999999985548
  endloop
endfacet
facet normal -0.7933533402912125 -0.6087614290087501 -1.8690236467862605e-12
  outer loop
    vertex 164.47880629644538 -227.7534952615933 -2.1304846775649367e-12
    vertex 164.1927527757573 -227.38070305547433 10.499999999985816
    vertex 164.19275277576918 -227.38070305545756 -1.8625878617228865e-12
  endloop
endfacet
facet normal -0.382683432365076 -0.9238795325112925 -1.904795401805536e-12
  outer loop
    vertex 165.28572422139663 -228.21936954277786 -1.958466722129515e-12
    vertex 164.85159850256926 -228.03954878228632 10.499999999985514
    vertex 164.85159850258117 -228.03954878226952 -2.1643242753555114e-12
  endloop
endfacet
facet normal -0.382683432365076 -0.9238795325112925 -1.904795401805536e-12
  outer loop
    vertex 164.85159850256926 -228.03954878228632 10.499999999985514
    vertex 165.28572422139663 -228.21936954277786 -1.958466722129515e-12
    vertex 165.28572422138473 -228.21936954279465 10.49999999998572
  endloop
endfacet
facet normal -0.9914448613738105 0.1305261922200505 -9.16888929972306e-13
  outer loop
    vertex 164.01293201524894 -226.0148287742898 10.499999999987786
    vertex 163.95159850258116 -226.48070305545752 -7.035816373957004e-13
    vertex 163.95159850256928 -226.48070305547432 10.499999999986976
  endloop
endfacet
facet normal -0.9914448613738105 0.1305261922200505 -9.16888929972306e-13
  outer loop
    vertex 163.95159850258116 -226.48070305545752 -7.035816373957004e-13
    vertex 164.01293201524894 -226.0148287742898 10.499999999987786
    vertex 164.01293201526084 -226.014828774273 1.0856870957809406e-13
  endloop
endfacet
facet normal -0.7933533402912482 0.6087614290087038 6.910572404962008e-14
  outer loop
    vertex 164.47880629643348 -225.20791084933856 10.4999999999896
    vertex 164.19275277576918 -225.58070305545755 1.0024980845457775e-12
    vertex 164.1927527757573 -225.58070305547434 10.499999999988681
  endloop
endfacet
facet normal -0.7933533402912482 0.6087614290087038 6.910572404962008e-14
  outer loop
    vertex 164.19275277576918 -225.58070305545755 1.0024980845457775e-12
    vertex 164.47880629643348 -225.20791084933856 10.4999999999896
    vertex 164.47880629644538 -225.20791084932176 1.921807157856392e-12
  endloop
endfacet
endsolid Design - Rolled
