solid Design - Rolled
facet normal 0.0 -1.0 0.0
  outer loop
    vertex 167.39550855022202 1589.9845193610872 3.0
    vertex 165.39550855022202 1589.9845193610872 0.0
    vertex 167.39550855022202 1589.9845193610872 0.0
  endloop
endfacet
facet normal 0.0 -1.0 0.0
  outer loop
    vertex 165.39550855022202 1589.9845193610872 0.0
    vertex 167.39550855022202 1589.9845193610872 3.0
    vertex 165.39550855022202 1589.9845193610872 3.0
  endloop
endfacet
facet normal -0.2882374158526573 0.9575589757829971 0.0
  outer loop
    vertex 162.9494012365728 1590.7208287360872 3.0
    vertex 165.39550855022205 1591.4571381110875 0.0
    vertex 162.9494012365728 1590.7208287360872 0.0
  endloop
endfacet
facet normal -0.2882374158526573 0.9575589757829971 0.0
  outer loop
    vertex 165.39550855022205 1591.4571381110875 0.0
    vertex 162.9494012365728 1590.7208287360872 3.0
    vertex 165.39550855022205 1591.4571381110875 3.0
  endloop
endfacet
facet normal -0.2882374158525683 -0.957558975783024 0.0
  outer loop
    vertex 165.39550855022202 1589.9845193610872 3.0
    vertex 162.9494012365728 1590.7208287360872 0.0
    vertex 165.39550855022202 1589.9845193610872 0.0
  endloop
endfacet
facet normal -0.2882374158525683 -0.957558975783024 0.0
  outer loop
    vertex 162.9494012365728 1590.7208287360872 0.0
    vertex 165.39550855022202 1589.9845193610872 3.0
    vertex 162.9494012365728 1590.7208287360872 3.0
  endloop
endfacet
facet normal -0.2882374158526573 0.9575589757829971 0.0
  outer loop
    vertex 162.9494012365728 1592.1934474860866 3.0
    vertex 165.39550855022205 1592.9297568610868 0.0
    vertex 162.9494012365728 1592.1934474860866 0.0
  endloop
endfacet
facet normal -0.2882374158526573 0.9575589757829971 0.0
  outer loop
    vertex 165.39550855022205 1592.9297568610868 0.0
    vertex 162.9494012365728 1592.1934474860866 3.0
    vertex 165.39550855022205 1592.9297568610868 3.0
  endloop
endfacet
facet normal -0.28823741585233253 -0.9575589757830948 0.0
  outer loop
    vertex 165.39550855022205 1591.4571381110875 3.0
    vertex 162.9494012365728 1592.1934474860866 0.0
    vertex 165.39550855022205 1591.4571381110875 0.0
  endloop
endfacet
facet normal -0.28823741585233253 -0.9575589757830948 0.0
  outer loop
    vertex 162.9494012365728 1592.1934474860866 0.0
    vertex 165.39550855022205 1591.4571381110875 3.0
    vertex 162.9494012365728 1592.1934474860866 3.0
  endloop
endfacet
facet normal -0.2882374158525916 -0.9575589757830167 0.0
  outer loop
    vertex 165.39550855022205 1592.9297568610868 3.0
    vertex 162.9494012365728 1593.6660662360866 0.0
    vertex 165.39550855022205 1592.9297568610868 0.0
  endloop
endfacet
facet normal -0.2882374158525916 -0.9575589757830167 0.0
  outer loop
    vertex 162.9494012365728 1593.6660662360866 0.0
    vertex 165.39550855022205 1592.9297568610868 3.0
    vertex 162.9494012365728 1593.6660662360866 3.0
  endloop
endfacet
facet normal -0.2882374158526574 0.9575589757829971 0.0
  outer loop
    vertex 162.9494012365728 1593.6660662360866 3.0
    vertex 165.39550855022205 1594.4023756110869 0.0
    vertex 162.9494012365728 1593.6660662360866 0.0
  endloop
endfacet
facet normal -0.2882374158526574 0.9575589757829971 0.0
  outer loop
    vertex 165.39550855022205 1594.4023756110869 0.0
    vertex 162.9494012365728 1593.6660662360866 3.0
    vertex 165.39550855022205 1594.4023756110869 3.0
  endloop
endfacet
facet normal -0.28823741585272117 -0.9575589757829779 0.0
  outer loop
    vertex 165.39550855022205 1594.4023756110869 3.0
    vertex 162.9494012365728 1595.1386849860871 0.0
    vertex 165.39550855022205 1594.4023756110869 0.0
  endloop
endfacet
facet normal -0.28823741585272117 -0.9575589757829779 0.0
  outer loop
    vertex 162.9494012365728 1595.1386849860871 0.0
    vertex 165.39550855022205 1594.4023756110869 3.0
    vertex 162.9494012365728 1595.1386849860871 3.0
  endloop
endfacet
facet normal -0.2882374158526574 0.9575589757829971 0.0
  outer loop
    vertex 162.9494012365728 1595.1386849860871 3.0
    vertex 165.39550855022205 1595.8749943610874 0.0
    vertex 162.9494012365728 1595.1386849860871 0.0
  endloop
endfacet
facet normal -0.2882374158526574 0.9575589757829971 0.0
  outer loop
    vertex 165.39550855022205 1595.8749943610874 0.0
    vertex 162.9494012365728 1595.1386849860871 3.0
    vertex 165.39550855022205 1595.8749943610874 3.0
  endloop
endfacet
facet normal -0.2882374158520734 -0.957558975783173 0.0
  outer loop
    vertex 165.39550855022205 1595.8749943610874 3.0
    vertex 162.9494012365728 1596.6113037360858 0.0
    vertex 165.39550855022205 1595.8749943610874 0.0
  endloop
endfacet
facet normal -0.2882374158520734 -0.957558975783173 0.0
  outer loop
    vertex 162.9494012365728 1596.6113037360858 0.0
    vertex 165.39550855022205 1595.8749943610874 3.0
    vertex 162.9494012365728 1596.6113037360858 3.0
  endloop
endfacet
facet normal -0.2882374158526574 0.9575589757829971 0.0
  outer loop
    vertex 162.9494012365728 1596.6113037360858 3.0
    vertex 165.39550855022205 1597.3476131110858 0.0
    vertex 162.9494012365728 1596.6113037360858 0.0
  endloop
endfacet
facet normal -0.2882374158526574 0.9575589757829971 0.0
  outer loop
    vertex 165.39550855022205 1597.3476131110858 0.0
    vertex 162.9494012365728 1596.6113037360858 3.0
    vertex 165.39550855022205 1597.3476131110858 3.0
  endloop
endfacet
facet normal -0.2882374158525916 -0.9575589757830167 0.0
  outer loop
    vertex 165.39550855022205 1597.3476131110858 3.0
    vertex 162.9494012365728 1598.0839224860858 0.0
    vertex 165.39550855022205 1597.3476131110858 0.0
  endloop
endfacet
facet normal -0.2882374158525916 -0.9575589757830167 0.0
  outer loop
    vertex 162.9494012365728 1598.0839224860858 0.0
    vertex 165.39550855022205 1597.3476131110858 3.0
    vertex 162.9494012365728 1598.0839224860858 3.0
  endloop
endfacet
facet normal -0.2882374158526574 0.9575589757829971 0.0
  outer loop
    vertex 162.9494012365728 1598.0839224860858 3.0
    vertex 165.39550855022205 1598.820231861086 0.0
    vertex 162.9494012365728 1598.0839224860858 0.0
  endloop
endfacet
facet normal -0.2882374158526574 0.9575589757829971 0.0
  outer loop
    vertex 165.39550855022205 1598.820231861086 0.0
    vertex 162.9494012365728 1598.0839224860858 3.0
    vertex 165.39550855022205 1598.820231861086 3.0
  endloop
endfacet
facet normal -0.28823741585272117 -0.9575589757829779 0.0
  outer loop
    vertex 165.39550855022205 1598.820231861086 3.0
    vertex 162.9494012365728 1599.5565412360863 0.0
    vertex 165.39550855022205 1598.820231861086 0.0
  endloop
endfacet
facet normal -0.28823741585272117 -0.9575589757829779 0.0
  outer loop
    vertex 162.9494012365728 1599.5565412360863 0.0
    vertex 165.39550855022205 1598.820231861086 3.0
    vertex 162.9494012365728 1599.5565412360863 3.0
  endloop
endfacet
facet normal -0.2882374158526574 0.9575589757829971 0.0
  outer loop
    vertex 162.9494012365728 1599.5565412360863 3.0
    vertex 165.39550855022205 1600.2928506110864 0.0
    vertex 162.9494012365728 1599.5565412360863 0.0
  endloop
endfacet
facet normal -0.2882374158526574 0.9575589757829971 0.0
  outer loop
    vertex 165.39550855022205 1600.2928506110864 0.0
    vertex 162.9494012365728 1599.5565412360863 3.0
    vertex 165.39550855022205 1600.2928506110864 3.0
  endloop
endfacet
facet normal -0.28823741585272117 -0.9575589757829779 0.0
  outer loop
    vertex 165.39550855022205 1600.2928506110864 3.0
    vertex 162.9494012365728 1601.0291599860868 0.0
    vertex 165.39550855022205 1600.2928506110864 0.0
  endloop
endfacet
facet normal -0.28823741585272117 -0.9575589757829779 0.0
  outer loop
    vertex 162.9494012365728 1601.0291599860868 0.0
    vertex 165.39550855022205 1600.2928506110864 3.0
    vertex 162.9494012365728 1601.0291599860868 3.0
  endloop
endfacet
facet normal -0.2882374158526574 0.9575589757829971 0.0
  outer loop
    vertex 162.9494012365728 1601.0291599860868 3.0
    vertex 165.39550855022205 1601.7654693610868 0.0
    vertex 162.9494012365728 1601.0291599860868 0.0
  endloop
endfacet
facet normal -0.2882374158526574 0.9575589757829971 0.0
  outer loop
    vertex 165.39550855022205 1601.7654693610868 0.0
    vertex 162.9494012365728 1601.0291599860868 3.0
    vertex 165.39550855022205 1601.7654693610868 3.0
  endloop
endfacet
facet normal -0.2882374158528508 -0.9575589757829388 0.0
  outer loop
    vertex 165.39550855022205 1601.7654693610868 3.0
    vertex 162.9494012365728 1602.5017787360875 0.0
    vertex 165.39550855022205 1601.7654693610868 0.0
  endloop
endfacet
facet normal -0.2882374158528508 -0.9575589757829388 0.0
  outer loop
    vertex 162.9494012365728 1602.5017787360875 0.0
    vertex 165.39550855022205 1601.7654693610868 3.0
    vertex 162.9494012365728 1602.5017787360875 3.0
  endloop
endfacet
facet normal -0.2882374158526574 0.9575589757829971 0.0
  outer loop
    vertex 162.9494012365728 1602.5017787360875 3.0
    vertex 165.39550855022205 1603.2380881110876 0.0
    vertex 162.9494012365728 1602.5017787360875 0.0
  endloop
endfacet
facet normal -0.2882374158526574 0.9575589757829971 0.0
  outer loop
    vertex 165.39550855022205 1603.2380881110876 0.0
    vertex 162.9494012365728 1602.5017787360875 3.0
    vertex 165.39550855022205 1603.2380881110876 3.0
  endloop
endfacet
facet normal -0.28823741585233303 -0.9575589757830948 0.0
  outer loop
    vertex 165.39550855022205 1603.2380881110876 3.0
    vertex 162.9494012365728 1603.974397486087 0.0
    vertex 165.39550855022205 1603.2380881110876 0.0
  endloop
endfacet
facet normal -0.28823741585233303 -0.9575589757830948 0.0
  outer loop
    vertex 162.9494012365728 1603.974397486087 0.0
    vertex 165.39550855022205 1603.2380881110876 3.0
    vertex 162.9494012365728 1603.974397486087 3.0
  endloop
endfacet
facet normal -0.2882374158526569 0.9575589757829971 0.0
  outer loop
    vertex 162.9494012365728 1603.974397486087 3.0
    vertex 165.39550855022205 1604.7107068610871 0.0
    vertex 162.9494012365728 1603.974397486087 0.0
  endloop
endfacet
facet normal -0.2882374158526569 0.9575589757829971 0.0
  outer loop
    vertex 165.39550855022205 1604.7107068610871 0.0
    vertex 162.9494012365728 1603.974397486087 3.0
    vertex 165.39550855022205 1604.7107068610871 3.0
  endloop
endfacet
facet normal -0.2882374158526569 0.9575589757829971 0.0
  outer loop
    vertex 162.9494012365728 1605.4470162360867 3.0
    vertex 165.39550855022205 1606.183325611087 0.0
    vertex 162.9494012365728 1605.4470162360867 0.0
  endloop
endfacet
facet normal -0.2882374158526569 0.9575589757829971 0.0
  outer loop
    vertex 165.39550855022205 1606.183325611087 0.0
    vertex 162.9494012365728 1605.4470162360867 3.0
    vertex 165.39550855022205 1606.183325611087 3.0
  endloop
endfacet
facet normal -0.2882374158525273 -0.9575589757830362 0.0
  outer loop
    vertex 165.39550855022205 1604.7107068610871 3.0
    vertex 162.9494012365728 1605.4470162360867 0.0
    vertex 165.39550855022205 1604.7107068610871 0.0
  endloop
endfacet
facet normal -0.2882374158525273 -0.9575589757830362 0.0
  outer loop
    vertex 162.9494012365728 1605.4470162360867 0.0
    vertex 165.39550855022205 1604.7107068610871 3.0
    vertex 162.9494012365728 1605.4470162360867 3.0
  endloop
endfacet
facet normal -0.28823741585278645 -0.9575589757829581 0.0
  outer loop
    vertex 165.39550855022205 1606.183325611087 3.0
    vertex 162.9494012365728 1606.9196349860874 0.0
    vertex 165.39550855022205 1606.183325611087 0.0
  endloop
endfacet
facet normal -0.28823741585278645 -0.9575589757829581 0.0
  outer loop
    vertex 162.9494012365728 1606.9196349860874 0.0
    vertex 165.39550855022205 1606.183325611087 3.0
    vertex 162.9494012365728 1606.9196349860874 3.0
  endloop
endfacet
facet normal -0.2882374158526569 0.9575589757829971 0.0
  outer loop
    vertex 162.9494012365728 1606.9196349860874 3.0
    vertex 165.39550855022205 1607.6559443610874 0.0
    vertex 162.9494012365728 1606.9196349860874 0.0
  endloop
endfacet
facet normal -0.2882374158526569 0.9575589757829971 0.0
  outer loop
    vertex 165.39550855022205 1607.6559443610874 0.0
    vertex 162.9494012365728 1606.9196349860874 3.0
    vertex 165.39550855022205 1607.6559443610874 3.0
  endloop
endfacet
facet normal -0.2882374158522682 -0.9575589757831141 0.0
  outer loop
    vertex 165.39550855022205 1607.6559443610874 3.0
    vertex 162.9494012365728 1608.3922537360866 0.0
    vertex 165.39550855022205 1607.6559443610874 0.0
  endloop
endfacet
facet normal -0.2882374158522682 -0.9575589757831141 0.0
  outer loop
    vertex 162.9494012365728 1608.3922537360866 0.0
    vertex 165.39550855022205 1607.6559443610874 3.0
    vertex 162.9494012365728 1608.3922537360866 3.0
  endloop
endfacet
facet normal -0.2882374158526569 0.9575589757829971 0.0
  outer loop
    vertex 162.9494012365728 1608.3922537360866 3.0
    vertex 165.39550855022205 1609.1285631110868 0.0
    vertex 162.9494012365728 1608.3922537360866 0.0
  endloop
endfacet
facet normal -0.2882374158526569 0.9575589757829971 0.0
  outer loop
    vertex 165.39550855022205 1609.1285631110868 0.0
    vertex 162.9494012365728 1608.3922537360866 3.0
    vertex 165.39550855022205 1609.1285631110868 3.0
  endloop
endfacet
facet normal -0.28823741585220347 -0.9575589757831336 0.0
  outer loop
    vertex 165.39550855022205 1609.1285631110868 3.0
    vertex 162.9494012365728 1609.8648724860857 0.0
    vertex 165.39550855022205 1609.1285631110868 0.0
  endloop
endfacet
facet normal -0.28823741585220347 -0.9575589757831336 0.0
  outer loop
    vertex 162.9494012365728 1609.8648724860857 0.0
    vertex 165.39550855022205 1609.1285631110868 3.0
    vertex 162.9494012365728 1609.8648724860857 3.0
  endloop
endfacet
facet normal -0.2882374158526569 0.9575589757829971 0.0
  outer loop
    vertex 162.9494012365728 1609.8648724860857 3.0
    vertex 165.39550855022205 1610.6011818610857 0.0
    vertex 162.9494012365728 1609.8648724860857 0.0
  endloop
endfacet
facet normal -0.2882374158526569 0.9575589757829971 0.0
  outer loop
    vertex 165.39550855022205 1610.6011818610857 0.0
    vertex 162.9494012365728 1609.8648724860857 3.0
    vertex 165.39550855022205 1610.6011818610857 3.0
  endloop
endfacet
facet normal -0.2882374158526569 0.9575589757829971 0.0
  outer loop
    vertex 162.9494012365728 1611.3374912360864 3.0
    vertex 165.39550855022205 1612.0738006110867 0.0
    vertex 162.9494012365728 1611.3374912360864 0.0
  endloop
endfacet
facet normal -0.2882374158526569 0.9575589757829971 0.0
  outer loop
    vertex 165.39550855022205 1612.0738006110867 0.0
    vertex 162.9494012365728 1611.3374912360864 3.0
    vertex 165.39550855022205 1612.0738006110867 3.0
  endloop
endfacet
facet normal -0.28823741585285123 -0.9575589757829388 0.0
  outer loop
    vertex 165.39550855022205 1610.6011818610857 3.0
    vertex 162.9494012365728 1611.3374912360864 0.0
    vertex 165.39550855022205 1610.6011818610857 0.0
  endloop
endfacet
facet normal -0.28823741585285123 -0.9575589757829388 0.0
  outer loop
    vertex 162.9494012365728 1611.3374912360864 0.0
    vertex 165.39550855022205 1610.6011818610857 3.0
    vertex 162.9494012365728 1611.3374912360864 3.0
  endloop
endfacet
facet normal 0.0 0.0 -1.0
  outer loop
    vertex 165.39550855022205 1613.546419361085 0.0
    vertex 165.39550855022205 1612.0738006110867 0.0
    vertex 162.9494012365728 1612.810109986085 0.0
  endloop
endfacet
facet normal 0.0 0.0 -1.0
  outer loop
    vertex 165.39550855022205 1612.0738006110867 0.0
    vertex 165.39550855022205 1613.546419361085 0.0
    vertex 167.39550855022202 1613.546419361085 0.0
  endloop
endfacet
facet normal 0.0 0.0 -1.0
  outer loop
    vertex 165.39550855022205 1612.0738006110867 0.0
    vertex 167.39550855022202 1613.546419361085 0.0
    vertex 165.39550855022205 1610.6011818610857 0.0
  endloop
endfacet
facet normal 0.0 0.0 -1.0
  outer loop
    vertex 165.39550855022205 1610.6011818610857 0.0
    vertex 167.39550855022202 1613.546419361085 0.0
    vertex 165.39550855022205 1609.1285631110868 0.0
  endloop
endfacet
facet normal 0.0 0.0 -1.0
  outer loop
    vertex 165.39550855022205 1609.1285631110868 0.0
    vertex 167.39550855022202 1613.546419361085 0.0
    vertex 165.39550855022205 1607.6559443610874 0.0
  endloop
endfacet
facet normal 0.0 0.0 -1.0
  outer loop
    vertex 165.39550855022205 1607.6559443610874 0.0
    vertex 167.39550855022202 1613.546419361085 0.0
    vertex 165.39550855022205 1606.183325611087 0.0
  endloop
endfacet
facet normal 0.0 0.0 -1.0
  outer loop
    vertex 165.39550855022205 1606.183325611087 0.0
    vertex 167.39550855022202 1613.546419361085 0.0
    vertex 165.39550855022205 1604.7107068610871 0.0
  endloop
endfacet
facet normal 0.0 0.0 -1.0
  outer loop
    vertex 165.39550855022205 1604.7107068610871 0.0
    vertex 167.39550855022202 1613.546419361085 0.0
    vertex 165.39550855022205 1603.2380881110876 0.0
  endloop
endfacet
facet normal 0.0 0.0 -1.0
  outer loop
    vertex 165.39550855022205 1603.2380881110876 0.0
    vertex 167.39550855022202 1613.546419361085 0.0
    vertex 165.39550855022205 1601.7654693610868 0.0
  endloop
endfacet
facet normal 0.0 0.0 -1.0
  outer loop
    vertex 165.39550855022205 1601.7654693610868 0.0
    vertex 167.39550855022202 1613.546419361085 0.0
    vertex 165.39550855022205 1600.2928506110864 0.0
  endloop
endfacet
facet normal 0.0 0.0 -1.0
  outer loop
    vertex 165.39550855022205 1600.2928506110864 0.0
    vertex 167.39550855022202 1613.546419361085 0.0
    vertex 165.39550855022205 1598.820231861086 0.0
  endloop
endfacet
facet normal 0.0 0.0 -1.0
  outer loop
    vertex 165.39550855022205 1598.820231861086 0.0
    vertex 167.39550855022202 1613.546419361085 0.0
    vertex 165.39550855022205 1597.3476131110858 0.0
  endloop
endfacet
facet normal 0.0 0.0 -1.0
  outer loop
    vertex 165.39550855022205 1597.3476131110858 0.0
    vertex 167.39550855022202 1613.546419361085 0.0
    vertex 165.39550855022205 1595.8749943610874 0.0
  endloop
endfacet
facet normal 0.0 0.0 -1.0
  outer loop
    vertex 165.39550855022205 1595.8749943610874 0.0
    vertex 167.39550855022202 1613.546419361085 0.0
    vertex 165.39550855022205 1594.4023756110869 0.0
  endloop
endfacet
facet normal 0.0 0.0 -1.0
  outer loop
    vertex 165.39550855022205 1594.4023756110869 0.0
    vertex 167.39550855022202 1613.546419361085 0.0
    vertex 165.39550855022205 1592.9297568610868 0.0
  endloop
endfacet
facet normal 0.0 0.0 -1.0
  outer loop
    vertex 165.39550855022205 1592.9297568610868 0.0
    vertex 167.39550855022202 1613.546419361085 0.0
    vertex 165.39550855022205 1591.4571381110875 0.0
  endloop
endfacet
facet normal 0.0 0.0 -1.0
  outer loop
    vertex 165.39550855022205 1591.4571381110875 0.0
    vertex 165.39550855022202 1589.9845193610872 0.0
    vertex 162.9494012365728 1590.7208287360872 0.0
  endloop
endfacet
facet normal 0.0 0.0 -1.0
  outer loop
    vertex 165.39550855022202 1589.9845193610872 0.0
    vertex 165.39550855022205 1591.4571381110875 0.0
    vertex 167.39550855022202 1589.9845193610872 0.0
  endloop
endfacet
facet normal 0.0 0.0 -1.0
  outer loop
    vertex 167.39550855022202 1589.9845193610872 0.0
    vertex 165.39550855022205 1591.4571381110875 0.0
    vertex 167.39550855022202 1613.546419361085 0.0
  endloop
endfacet
facet normal 0.0 0.0 -1.0
  outer loop
    vertex 165.39550855022205 1591.4571381110875 0.0
    vertex 162.9494012365728 1592.1934474860866 0.0
    vertex 165.39550855022205 1592.9297568610868 0.0
  endloop
endfacet
facet normal 0.0 0.0 -1.0
  outer loop
    vertex 165.39550855022205 1592.9297568610868 0.0
    vertex 162.9494012365728 1593.6660662360866 0.0
    vertex 165.39550855022205 1594.4023756110869 0.0
  endloop
endfacet
facet normal 0.0 0.0 -1.0
  outer loop
    vertex 165.39550855022205 1594.4023756110869 0.0
    vertex 162.9494012365728 1595.1386849860871 0.0
    vertex 165.39550855022205 1595.8749943610874 0.0
  endloop
endfacet
facet normal 0.0 0.0 -1.0
  outer loop
    vertex 165.39550855022205 1595.8749943610874 0.0
    vertex 162.9494012365728 1596.6113037360858 0.0
    vertex 165.39550855022205 1597.3476131110858 0.0
  endloop
endfacet
facet normal 0.0 0.0 -1.0
  outer loop
    vertex 165.39550855022205 1597.3476131110858 0.0
    vertex 162.9494012365728 1598.0839224860858 0.0
    vertex 165.39550855022205 1598.820231861086 0.0
  endloop
endfacet
facet normal 0.0 0.0 -1.0
  outer loop
    vertex 165.39550855022205 1598.820231861086 0.0
    vertex 162.9494012365728 1599.5565412360863 0.0
    vertex 165.39550855022205 1600.2928506110864 0.0
  endloop
endfacet
facet normal 0.0 0.0 -1.0
  outer loop
    vertex 165.39550855022205 1600.2928506110864 0.0
    vertex 162.9494012365728 1601.0291599860868 0.0
    vertex 165.39550855022205 1601.7654693610868 0.0
  endloop
endfacet
facet normal 0.0 0.0 -1.0
  outer loop
    vertex 165.39550855022205 1601.7654693610868 0.0
    vertex 162.9494012365728 1602.5017787360875 0.0
    vertex 165.39550855022205 1603.2380881110876 0.0
  endloop
endfacet
facet normal 0.0 0.0 -1.0
  outer loop
    vertex 165.39550855022205 1603.2380881110876 0.0
    vertex 162.9494012365728 1603.974397486087 0.0
    vertex 165.39550855022205 1604.7107068610871 0.0
  endloop
endfacet
facet normal 0.0 0.0 -1.0
  outer loop
    vertex 165.39550855022205 1604.7107068610871 0.0
    vertex 162.9494012365728 1605.4470162360867 0.0
    vertex 165.39550855022205 1606.183325611087 0.0
  endloop
endfacet
facet normal 0.0 0.0 -1.0
  outer loop
    vertex 165.39550855022205 1606.183325611087 0.0
    vertex 162.9494012365728 1606.9196349860874 0.0
    vertex 165.39550855022205 1607.6559443610874 0.0
  endloop
endfacet
facet normal 0.0 0.0 -1.0
  outer loop
    vertex 165.39550855022205 1607.6559443610874 0.0
    vertex 162.9494012365728 1608.3922537360866 0.0
    vertex 165.39550855022205 1609.1285631110868 0.0
  endloop
endfacet
facet normal 0.0 0.0 -1.0
  outer loop
    vertex 165.39550855022205 1609.1285631110868 0.0
    vertex 162.9494012365728 1609.8648724860857 0.0
    vertex 165.39550855022205 1610.6011818610857 0.0
  endloop
endfacet
facet normal 0.0 0.0 -1.0
  outer loop
    vertex 165.39550855022205 1610.6011818610857 0.0
    vertex 162.9494012365728 1611.3374912360864 0.0
    vertex 165.39550855022205 1612.0738006110867 0.0
  endloop
endfacet
facet normal 0.0 1.0 0.0
  outer loop
    vertex 165.39550855022205 1613.546419361085 3.0
    vertex 167.39550855022202 1613.546419361085 0.0
    vertex 165.39550855022205 1613.546419361085 0.0
  endloop
endfacet
facet normal 0.0 1.0 0.0
  outer loop
    vertex 167.39550855022202 1613.546419361085 0.0
    vertex 165.39550855022205 1613.546419361085 3.0
    vertex 167.39550855022202 1613.546419361085 3.0
  endloop
endfacet
facet normal 4.612935016562391e-31 6.30403078439873e-32 1.0
  outer loop
    vertex 165.39550855022202 1589.9845193610872 3.0
    vertex 165.39550855022205 1591.4571381110875 3.0
    vertex 162.9494012365728 1590.7208287360872 3.0
  endloop
endfacet
facet normal 4.612935016562391e-31 6.30403078439873e-32 1.0
  outer loop
    vertex 165.39550855022205 1591.4571381110875 3.0
    vertex 165.39550855022202 1589.9845193610872 3.0
    vertex 167.39550855022202 1589.9845193610872 3.0
  endloop
endfacet
facet normal 4.612935016562391e-31 6.30403078439873e-32 1.0
  outer loop
    vertex 165.39550855022205 1591.4571381110875 3.0
    vertex 167.39550855022202 1589.9845193610872 3.0
    vertex 165.39550855022205 1592.9297568610868 3.0
  endloop
endfacet
facet normal 4.612935016562391e-31 6.30403078439873e-32 1.0
  outer loop
    vertex 165.39550855022205 1592.9297568610868 3.0
    vertex 167.39550855022202 1589.9845193610872 3.0
    vertex 165.39550855022205 1594.4023756110869 3.0
  endloop
endfacet
facet normal 4.612935016562391e-31 6.30403078439873e-32 1.0
  outer loop
    vertex 165.39550855022205 1594.4023756110869 3.0
    vertex 167.39550855022202 1589.9845193610872 3.0
    vertex 165.39550855022205 1595.8749943610874 3.0
  endloop
endfacet
facet normal 4.612935016562391e-31 6.30403078439873e-32 1.0
  outer loop
    vertex 165.39550855022205 1595.8749943610874 3.0
    vertex 167.39550855022202 1589.9845193610872 3.0
    vertex 165.39550855022205 1597.3476131110858 3.0
  endloop
endfacet
facet normal 4.612935016562391e-31 6.30403078439873e-32 1.0
  outer loop
    vertex 165.39550855022205 1597.3476131110858 3.0
    vertex 167.39550855022202 1589.9845193610872 3.0
    vertex 165.39550855022205 1598.820231861086 3.0
  endloop
endfacet
facet normal 4.612935016562391e-31 6.30403078439873e-32 1.0
  outer loop
    vertex 165.39550855022205 1598.820231861086 3.0
    vertex 167.39550855022202 1589.9845193610872 3.0
    vertex 165.39550855022205 1600.2928506110864 3.0
  endloop
endfacet
facet normal 4.612935016562391e-31 6.30403078439873e-32 1.0
  outer loop
    vertex 165.39550855022205 1600.2928506110864 3.0
    vertex 167.39550855022202 1589.9845193610872 3.0
    vertex 165.39550855022205 1601.7654693610868 3.0
  endloop
endfacet
facet normal 4.612935016562391e-31 6.30403078439873e-32 1.0
  outer loop
    vertex 165.39550855022205 1601.7654693610868 3.0
    vertex 167.39550855022202 1589.9845193610872 3.0
    vertex 165.39550855022205 1603.2380881110876 3.0
  endloop
endfacet
facet normal 4.612935016562391e-31 6.30403078439873e-32 1.0
  outer loop
    vertex 165.39550855022205 1603.2380881110876 3.0
    vertex 167.39550855022202 1589.9845193610872 3.0
    vertex 165.39550855022205 1604.7107068610871 3.0
  endloop
endfacet
facet normal 4.612935016562391e-31 6.30403078439873e-32 1.0
  outer loop
    vertex 165.39550855022205 1604.7107068610871 3.0
    vertex 167.39550855022202 1589.9845193610872 3.0
    vertex 165.39550855022205 1606.183325611087 3.0
  endloop
endfacet
facet normal 4.612935016562391e-31 6.30403078439873e-32 1.0
  outer loop
    vertex 165.39550855022205 1606.183325611087 3.0
    vertex 167.39550855022202 1589.9845193610872 3.0
    vertex 165.39550855022205 1607.6559443610874 3.0
  endloop
endfacet
facet normal 4.612935016562391e-31 6.30403078439873e-32 1.0
  outer loop
    vertex 165.39550855022205 1607.6559443610874 3.0
    vertex 167.39550855022202 1589.9845193610872 3.0
    vertex 165.39550855022205 1609.1285631110868 3.0
  endloop
endfacet
facet normal 4.612935016562391e-31 6.30403078439873e-32 1.0
  outer loop
    vertex 165.39550855022205 1609.1285631110868 3.0
    vertex 167.39550855022202 1589.9845193610872 3.0
    vertex 165.39550855022205 1610.6011818610857 3.0
  endloop
endfacet
facet normal 4.612935016562391e-31 6.30403078439873e-32 1.0
  outer loop
    vertex 165.39550855022205 1610.6011818610857 3.0
    vertex 167.39550855022202 1589.9845193610872 3.0
    vertex 165.39550855022205 1612.0738006110867 3.0
  endloop
endfacet
facet normal 4.612935016562391e-31 6.30403078439873e-32 1.0
  outer loop
    vertex 165.39550855022205 1612.0738006110867 3.0
    vertex 167.39550855022202 1589.9845193610872 3.0
    vertex 165.39550855022205 1613.546419361085 3.0
  endloop
endfacet
facet normal 4.612935016562391e-31 6.30403078439873e-32 1.0
  outer loop
    vertex 165.39550855022205 1613.546419361085 3.0
    vertex 167.39550855022202 1589.9845193610872 3.0
    vertex 167.39550855022202 1613.546419361085 3.0
  endloop
endfacet
facet normal 4.612935016562391e-31 6.30403078439873e-32 1.0
  outer loop
    vertex 165.39550855022205 1613.546419361085 3.0
    vertex 162.9494012365728 1612.810109986085 3.0
    vertex 165.39550855022205 1612.0738006110867 3.0
  endloop
endfacet
facet normal 4.612935016562391e-31 6.30403078439873e-32 1.0
  outer loop
    vertex 165.39550855022205 1612.0738006110867 3.0
    vertex 162.9494012365728 1611.3374912360864 3.0
    vertex 165.39550855022205 1610.6011818610857 3.0
  endloop
endfacet
facet normal 4.612935016562391e-31 6.30403078439873e-32 1.0
  outer loop
    vertex 165.39550855022205 1610.6011818610857 3.0
    vertex 162.9494012365728 1609.8648724860857 3.0
    vertex 165.39550855022205 1609.1285631110868 3.0
  endloop
endfacet
facet normal 4.612935016562391e-31 6.30403078439873e-32 1.0
  outer loop
    vertex 165.39550855022205 1609.1285631110868 3.0
    vertex 162.9494012365728 1608.3922537360866 3.0
    vertex 165.39550855022205 1607.6559443610874 3.0
  endloop
endfacet
facet normal 4.612935016562391e-31 6.30403078439873e-32 1.0
  outer loop
    vertex 165.39550855022205 1607.6559443610874 3.0
    vertex 162.9494012365728 1606.9196349860874 3.0
    vertex 165.39550855022205 1606.183325611087 3.0
  endloop
endfacet
facet normal 4.612935016562391e-31 6.30403078439873e-32 1.0
  outer loop
    vertex 165.39550855022205 1606.183325611087 3.0
    vertex 162.9494012365728 1605.4470162360867 3.0
    vertex 165.39550855022205 1604.7107068610871 3.0
  endloop
endfacet
facet normal 4.612935016562391e-31 6.30403078439873e-32 1.0
  outer loop
    vertex 165.39550855022205 1604.7107068610871 3.0
    vertex 162.9494012365728 1603.974397486087 3.0
    vertex 165.39550855022205 1603.2380881110876 3.0
  endloop
endfacet
facet normal 4.612935016562391e-31 6.30403078439873e-32 1.0
  outer loop
    vertex 165.39550855022205 1603.2380881110876 3.0
    vertex 162.9494012365728 1602.5017787360875 3.0
    vertex 165.39550855022205 1601.7654693610868 3.0
  endloop
endfacet
facet normal 4.612935016562391e-31 6.30403078439873e-32 1.0
  outer loop
    vertex 165.39550855022205 1601.7654693610868 3.0
    vertex 162.9494012365728 1601.0291599860868 3.0
    vertex 165.39550855022205 1600.2928506110864 3.0
  endloop
endfacet
facet normal 4.612935016562391e-31 6.30403078439873e-32 1.0
  outer loop
    vertex 165.39550855022205 1600.2928506110864 3.0
    vertex 162.9494012365728 1599.5565412360863 3.0
    vertex 165.39550855022205 1598.820231861086 3.0
  endloop
endfacet
facet normal 4.612935016562391e-31 6.30403078439873e-32 1.0
  outer loop
    vertex 165.39550855022205 1598.820231861086 3.0
    vertex 162.9494012365728 1598.0839224860858 3.0
    vertex 165.39550855022205 1597.3476131110858 3.0
  endloop
endfacet
facet normal 4.612935016562391e-31 6.30403078439873e-32 1.0
  outer loop
    vertex 165.39550855022205 1597.3476131110858 3.0
    vertex 162.9494012365728 1596.6113037360858 3.0
    vertex 165.39550855022205 1595.8749943610874 3.0
  endloop
endfacet
facet normal 4.612935016562391e-31 6.30403078439873e-32 1.0
  outer loop
    vertex 165.39550855022205 1595.8749943610874 3.0
    vertex 162.9494012365728 1595.1386849860871 3.0
    vertex 165.39550855022205 1594.4023756110869 3.0
  endloop
endfacet
facet normal 4.612935016562391e-31 6.30403078439873e-32 1.0
  outer loop
    vertex 165.39550855022205 1594.4023756110869 3.0
    vertex 162.9494012365728 1593.6660662360866 3.0
    vertex 165.39550855022205 1592.9297568610868 3.0
  endloop
endfacet
facet normal 4.612935016562391e-31 6.30403078439873e-32 1.0
  outer loop
    vertex 165.39550855022205 1592.9297568610868 3.0
    vertex 162.9494012365728 1592.1934474860866 3.0
    vertex 165.39550855022205 1591.4571381110875 3.0
  endloop
endfacet
facet normal -0.2882374158520739 -0.9575589757831727 0.0
  outer loop
    vertex 165.39550855022205 1612.0738006110867 3.0
    vertex 162.9494012365728 1612.810109986085 0.0
    vertex 165.39550855022205 1612.0738006110867 0.0
  endloop
endfacet
facet normal -0.2882374158520739 -0.9575589757831727 0.0
  outer loop
    vertex 162.9494012365728 1612.810109986085 0.0
    vertex 165.39550855022205 1612.0738006110867 3.0
    vertex 162.9494012365728 1612.810109986085 3.0
  endloop
endfacet
facet normal -0.28823741585265733 0.9575589757829971 0.0
  outer loop
    vertex 162.9494012365728 1612.810109986085 3.0
    vertex 165.39550855022205 1613.546419361085 0.0
    vertex 162.9494012365728 1612.810109986085 0.0
  endloop
endfacet
facet normal -0.28823741585265733 0.9575589757829971 0.0
  outer loop
    vertex 165.39550855022205 1613.546419361085 0.0
    vertex 162.9494012365728 1612.810109986085 3.0
    vertex 165.39550855022205 1613.546419361085 3.0
  endloop
endfacet
facet normal 1.0 0.0 0.0
  outer loop
    vertex 167.39550855022202 1613.546419361085 0.0
    vertex 167.39550855022202 1589.9845193610872 3.0
    vertex 167.39550855022202 1589.9845193610872 0.0
  endloop
endfacet
facet normal 1.0 0.0 0.0
  outer loop
    vertex 167.39550855022202 1589.9845193610872 3.0
    vertex 167.39550855022202 1613.546419361085 0.0
    vertex 167.39550855022202 1613.546419361085 3.0
  endloop
endfacet
endsolid Design - Rolled
