solid Design - Rolled
facet normal 0.0 0.0 -1.0
  outer loop
    vertex -56.00128325133751 771.5918099997466 0.0
    vertex -56.00128325133751 767.0883586149627 0.0
    vertex -56.29772856262261 769.3400843073546 0.0
  endloop
endfacet
facet normal 0.0 0.0 -1.0
  outer loop
    vertex -56.00128325133751 767.0883586149627 0.0
    vertex -56.00128325133751 771.5918099997466 0.0
    vertex -55.132149575547224 773.6900843073546 0.0
  endloop
endfacet
facet normal 0.0 0.0 -1.0
  outer loop
    vertex -56.00128325133751 767.0883586149627 0.0
    vertex -55.132149575547224 773.6900843073546 0.0
    vertex -55.297728562622616 769.3400843073546 0.0
  endloop
endfacet
facet normal 0.0 0.0 -1.0
  outer loop
    vertex -55.297728562622616 769.3400843073546 0.0
    vertex -55.132149575547224 773.6900843073546 0.0
    vertex -55.03535742504844 771.3329909546441 0.0
  endloop
endfacet
facet normal 0.0 0.0 -1.0
  outer loop
    vertex -55.03535742504844 771.3329909546441 0.0
    vertex -55.132149575547224 773.6900843073546 0.0
    vertex -53.749557558945575 775.4919133036775 0.0
  endloop
endfacet
facet normal 0.0 0.0 -1.0
  outer loop
    vertex -55.03535742504844 771.3329909546441 0.0
    vertex -53.749557558945575 775.4919133036775 0.0
    vertex -54.26612417176279 773.1900843073546 0.0
  endloop
endfacet
facet normal 0.0 0.0 -1.0
  outer loop
    vertex -54.26612417176279 773.1900843073546 0.0
    vertex -53.749557558945575 775.4919133036775 0.0
    vertex -53.04245077775903 774.7848065224911 0.0
  endloop
endfacet
facet normal 0.0 0.0 -1.0
  outer loop
    vertex -53.04245077775903 774.7848065224911 0.0
    vertex -53.749557558945575 775.4919133036775 0.0
    vertex -51.94772856262262 776.8745053202792 0.0
  endloop
endfacet
facet normal 0.0 0.0 -1.0
  outer loop
    vertex -53.04245077775903 774.7848065224911 0.0
    vertex -51.94772856262262 776.8745053202792 0.0
    vertex -51.44772856262261 776.0084799164948 0.0
  endloop
endfacet
facet normal 0.0 0.0 -1.0
  outer loop
    vertex -51.44772856262261 776.0084799164948 0.0
    vertex -51.94772856262262 776.8745053202792 0.0
    vertex -49.84945425501454 777.7436389960695 0.0
  endloop
endfacet
facet normal 0.0 0.0 -1.0
  outer loop
    vertex -51.44772856262261 776.0084799164948 0.0
    vertex -49.84945425501454 777.7436389960695 0.0
    vertex -49.59063520991203 776.7777131697804 0.0
  endloop
endfacet
facet normal 0.0 0.0 -1.0
  outer loop
    vertex -49.59063520991203 776.7777131697804 0.0
    vertex -49.84945425501454 777.7436389960695 0.0
    vertex -47.59772856262261 778.0400843073546 0.0
  endloop
endfacet
facet normal 0.0 0.0 -1.0
  outer loop
    vertex -49.59063520991203 776.7777131697804 0.0
    vertex -47.59772856262261 778.0400843073546 0.0
    vertex -47.59772856262261 777.0400843073546 0.0
  endloop
endfacet
facet normal 0.0 0.0 -1.0
  outer loop
    vertex -47.59772856262261 777.0400843073546 0.0
    vertex -47.59772856262261 778.0400843073546 0.0
    vertex -45.346002870230684 777.7436389960695 0.0
  endloop
endfacet
facet normal 0.0 0.0 -1.0
  outer loop
    vertex -47.59772856262261 777.0400843073546 0.0
    vertex -45.346002870230684 777.7436389960695 0.0
    vertex -45.604821915333204 776.7777131697804 0.0
  endloop
endfacet
facet normal 0.0 0.0 -1.0
  outer loop
    vertex -45.604821915333204 776.7777131697804 0.0
    vertex -45.346002870230684 777.7436389960695 0.0
    vertex -43.74772856262262 776.0084799164948 0.0
  endloop
endfacet
facet normal 0.0 0.0 -1.0
  outer loop
    vertex -43.74772856262262 776.0084799164948 0.0
    vertex -45.346002870230684 777.7436389960695 0.0
    vertex -43.24772856262261 776.8745053202792 0.0
  endloop
endfacet
facet normal 0.0 0.0 -1.0
  outer loop
    vertex -43.74772856262262 776.0084799164948 0.0
    vertex -43.24772856262261 776.8745053202792 0.0
    vertex -42.153006347486205 774.7848065224911 0.0
  endloop
endfacet
facet normal 0.0 0.0 -1.0
  outer loop
    vertex -42.153006347486205 774.7848065224911 0.0
    vertex -43.24772856262261 776.8745053202792 0.0
    vertex -41.44589956629966 775.4919133036775 0.0
  endloop
endfacet
facet normal 0.0 0.0 -1.0
  outer loop
    vertex -42.153006347486205 774.7848065224911 0.0
    vertex -41.44589956629966 775.4919133036775 0.0
    vertex -40.92933295348244 773.1900843073546 0.0
  endloop
endfacet
facet normal 0.0 0.0 -1.0
  outer loop
    vertex -40.92933295348244 773.1900843073546 0.0
    vertex -41.44589956629966 775.4919133036775 0.0
    vertex -40.063307549698 773.6900843073546 0.0
  endloop
endfacet
facet normal 0.0 0.0 -1.0
  outer loop
    vertex -40.92933295348244 773.1900843073546 0.0
    vertex -40.063307549698 773.6900843073546 0.0
    vertex -40.160099700196795 771.3329909546441 0.0
  endloop
endfacet
facet normal 0.0 0.0 -1.0
  outer loop
    vertex -40.160099700196795 771.3329909546441 0.0
    vertex -40.063307549698 773.6900843073546 0.0
    vertex -39.89772856262262 769.3400843073546 0.0
  endloop
endfacet
facet normal 0.0 0.0 -1.0
  outer loop
    vertex -39.89772856262262 769.3400843073546 0.0
    vertex -40.063307549698 773.6900843073546 0.0
    vertex -39.19417387390772 771.5918099997466 0.0
  endloop
endfacet
facet normal 0.0 0.0 -1.0
  outer loop
    vertex -55.297728562622616 769.3400843073546 0.0
    vertex -55.13214957554724 764.9900843073546 0.0
    vertex -56.00128325133751 767.0883586149627 0.0
  endloop
endfacet
facet normal 0.0 0.0 -1.0
  outer loop
    vertex -55.13214957554724 764.9900843073546 0.0
    vertex -55.297728562622616 769.3400843073546 0.0
    vertex -55.03535742504844 767.3471776600652 0.0
  endloop
endfacet
facet normal 0.0 0.0 -1.0
  outer loop
    vertex -55.13214957554724 764.9900843073546 0.0
    vertex -55.03535742504844 767.3471776600652 0.0
    vertex -53.74955755894559 763.1882553110316 0.0
  endloop
endfacet
facet normal 0.0 0.0 -1.0
  outer loop
    vertex -53.74955755894559 763.1882553110316 0.0
    vertex -55.03535742504844 767.3471776600652 0.0
    vertex -54.26612417176279 765.4900843073546 0.0
  endloop
endfacet
facet normal 0.0 0.0 -1.0
  outer loop
    vertex -53.74955755894559 763.1882553110316 0.0
    vertex -54.26612417176279 765.4900843073546 0.0
    vertex -53.04245077775903 763.8953620922182 0.0
  endloop
endfacet
facet normal 0.0 0.0 -1.0
  outer loop
    vertex -53.74955755894559 763.1882553110316 0.0
    vertex -53.04245077775903 763.8953620922182 0.0
    vertex -51.94772856262262 761.80566329443 0.0
  endloop
endfacet
facet normal 0.0 0.0 -1.0
  outer loop
    vertex -51.94772856262262 761.80566329443 0.0
    vertex -53.04245077775903 763.8953620922182 0.0
    vertex -51.44772856262262 762.6716886982144 0.0
  endloop
endfacet
facet normal 0.0 0.0 -1.0
  outer loop
    vertex -51.94772856262262 761.80566329443 0.0
    vertex -51.44772856262262 762.6716886982144 0.0
    vertex -49.84945425501456 760.9365296186397 0.0
  endloop
endfacet
facet normal 0.0 0.0 -1.0
  outer loop
    vertex -49.84945425501456 760.9365296186397 0.0
    vertex -51.44772856262262 762.6716886982144 0.0
    vertex -49.59063520991203 761.9024554449287 0.0
  endloop
endfacet
facet normal 0.0 0.0 -1.0
  outer loop
    vertex -49.84945425501456 760.9365296186397 0.0
    vertex -49.59063520991203 761.9024554449287 0.0
    vertex -47.59772856262261 760.6400843073546 0.0
  endloop
endfacet
facet normal 0.0 0.0 -1.0
  outer loop
    vertex -47.59772856262261 760.6400843073546 0.0
    vertex -49.59063520991203 761.9024554449287 0.0
    vertex -47.59772856262261 761.6400843073546 0.0
  endloop
endfacet
facet normal 0.0 0.0 -1.0
  outer loop
    vertex -47.59772856262261 760.6400843073546 0.0
    vertex -47.59772856262261 761.6400843073546 0.0
    vertex -45.60482191533321 761.9024554449287 0.0
  endloop
endfacet
facet normal 0.0 0.0 -1.0
  outer loop
    vertex -47.59772856262261 760.6400843073546 0.0
    vertex -45.60482191533321 761.9024554449287 0.0
    vertex -45.34600287023069 760.9365296186397 0.0
  endloop
endfacet
facet normal 0.0 0.0 -1.0
  outer loop
    vertex -45.34600287023069 760.9365296186397 0.0
    vertex -45.60482191533321 761.9024554449287 0.0
    vertex -43.747728562622626 762.6716886982144 0.0
  endloop
endfacet
facet normal 0.0 0.0 -1.0
  outer loop
    vertex -45.34600287023069 760.9365296186397 0.0
    vertex -43.747728562622626 762.6716886982144 0.0
    vertex -43.247728562622626 761.80566329443 0.0
  endloop
endfacet
facet normal 0.0 0.0 -1.0
  outer loop
    vertex -43.247728562622626 761.80566329443 0.0
    vertex -43.747728562622626 762.6716886982144 0.0
    vertex -42.153006347486205 763.8953620922182 0.0
  endloop
endfacet
facet normal 0.0 0.0 -1.0
  outer loop
    vertex -43.247728562622626 761.80566329443 0.0
    vertex -42.153006347486205 763.8953620922182 0.0
    vertex -41.44589956629966 763.1882553110316 0.0
  endloop
endfacet
facet normal 0.0 0.0 -1.0
  outer loop
    vertex -41.44589956629966 763.1882553110316 0.0
    vertex -42.153006347486205 763.8953620922182 0.0
    vertex -40.92933295348244 765.4900843073546 0.0
  endloop
endfacet
facet normal 0.0 0.0 -1.0
  outer loop
    vertex -41.44589956629966 763.1882553110316 0.0
    vertex -40.92933295348244 765.4900843073546 0.0
    vertex -40.063307549698 764.9900843073546 0.0
  endloop
endfacet
facet normal 0.0 0.0 -1.0
  outer loop
    vertex -40.063307549698 764.9900843073546 0.0
    vertex -40.92933295348244 765.4900843073546 0.0
    vertex -40.160099700196795 767.3471776600652 0.0
  endloop
endfacet
facet normal 0.0 0.0 -1.0
  outer loop
    vertex -40.063307549698 764.9900843073546 0.0
    vertex -40.160099700196795 767.3471776600652 0.0
    vertex -39.89772856262262 769.3400843073546 0.0
  endloop
endfacet
facet normal 0.0 0.0 -1.0
  outer loop
    vertex -40.063307549698 764.9900843073546 0.0
    vertex -39.89772856262262 769.3400843073546 0.0
    vertex -39.19417387390772 767.0883586149627 0.0
  endloop
endfacet
facet normal 0.0 0.0 -1.0
  outer loop
    vertex -39.19417387390772 767.0883586149627 0.0
    vertex -39.89772856262262 769.3400843073546 0.0
    vertex -39.19417387390772 771.5918099997466 0.0
  endloop
endfacet
facet normal 0.0 0.0 -1.0
  outer loop
    vertex -39.19417387390772 767.0883586149627 0.0
    vertex -39.19417387390772 771.5918099997466 0.0
    vertex -38.89772856262262 769.3400843073546 0.0
  endloop
endfacet
facet normal -0.7933533402912313 -0.6087614290087259 -0.0
  outer loop
    vertex -55.13214957554724 764.9900843073546 1.5
    vertex -53.74955755894559 763.1882553110316 0.0
    vertex -53.74955755894559 763.1882553110316 1.5
  endloop
endfacet
facet normal -0.7933533402912313 -0.6087614290087259 -0.0
  outer loop
    vertex -53.74955755894559 763.1882553110316 0.0
    vertex -55.13214957554724 764.9900843073546 1.5
    vertex -55.13214957554724 764.9900843073546 0.0
  endloop
endfacet
facet normal -0.9914448613738109 0.1305261922200481 0.0
  outer loop
    vertex -56.00128325133751 771.5918099997466 1.5
    vertex -56.29772856262261 769.3400843073546 0.0
    vertex -56.29772856262261 769.3400843073546 1.5
  endloop
endfacet
facet normal -0.9914448613738109 0.1305261922200481 0.0
  outer loop
    vertex -56.29772856262261 769.3400843073546 0.0
    vertex -56.00128325133751 771.5918099997466 1.5
    vertex -56.00128325133751 771.5918099997466 0.0
  endloop
endfacet
facet normal -0.7933533402912313 0.6087614290087259 0.0
  outer loop
    vertex -53.749557558945575 775.4919133036775 1.5
    vertex -55.132149575547224 773.6900843073546 0.0
    vertex -55.132149575547224 773.6900843073546 1.5
  endloop
endfacet
facet normal -0.7933533402912313 0.6087614290087259 0.0
  outer loop
    vertex -55.132149575547224 773.6900843073546 0.0
    vertex -53.749557558945575 775.4919133036775 1.5
    vertex -53.749557558945575 775.4919133036775 0.0
  endloop
endfacet
facet normal 0.3826834323651056 -0.9238795325112802 0.0
  outer loop
    vertex -43.247728562622626 761.80566329443 1.5
    vertex -45.34600287023069 760.9365296186397 0.0
    vertex -43.247728562622626 761.80566329443 0.0
  endloop
endfacet
facet normal 0.3826834323651056 -0.9238795325112802 0.0
  outer loop
    vertex -45.34600287023069 760.9365296186397 0.0
    vertex -43.247728562622626 761.80566329443 1.5
    vertex -45.34600287023069 760.9365296186397 1.5
  endloop
endfacet
facet normal 0.7933533402912313 -0.6087614290087259 0.0
  outer loop
    vertex -40.063307549698 764.9900843073546 0.0
    vertex -41.44589956629966 763.1882553110316 1.5
    vertex -41.44589956629966 763.1882553110316 0.0
  endloop
endfacet
facet normal 0.7933533402912313 -0.6087614290087259 0.0
  outer loop
    vertex -41.44589956629966 763.1882553110316 1.5
    vertex -40.063307549698 764.9900843073546 0.0
    vertex -40.063307549698 764.9900843073546 1.5
  endloop
endfacet
facet normal 0.1305261922200543 0.9914448613738102 0.0
  outer loop
    vertex -47.59772856262261 778.0400843073546 1.5
    vertex -45.346002870230684 777.7436389960695 0.0
    vertex -47.59772856262261 778.0400843073546 0.0
  endloop
endfacet
facet normal 0.1305261922200543 0.9914448613738102 0.0
  outer loop
    vertex -45.346002870230684 777.7436389960695 0.0
    vertex -47.59772856262261 778.0400843073546 1.5
    vertex -45.346002870230684 777.7436389960695 1.5
  endloop
endfacet
facet normal -0.13052619222001888 -0.9914448613738148 -0.0
  outer loop
    vertex -45.604821915333204 776.7777131697804 1.5
    vertex -47.59772856262261 777.0400843073546 0.0
    vertex -45.604821915333204 776.7777131697804 0.0
  endloop
endfacet
facet normal -0.13052619222001888 -0.9914448613738148 -0.0
  outer loop
    vertex -47.59772856262261 777.0400843073546 0.0
    vertex -45.604821915333204 776.7777131697804 1.5
    vertex -47.59772856262261 777.0400843073546 1.5
  endloop
endfacet
facet normal 0.6087614290087175 -0.7933533402912375 0.0
  outer loop
    vertex -51.44772856262261 776.0084799164948 1.5
    vertex -53.04245077775903 774.7848065224911 0.0
    vertex -51.44772856262261 776.0084799164948 0.0
  endloop
endfacet
facet normal 0.6087614290087175 -0.7933533402912375 0.0
  outer loop
    vertex -53.04245077775903 774.7848065224911 0.0
    vertex -51.44772856262261 776.0084799164948 1.5
    vertex -53.04245077775903 774.7848065224911 1.5
  endloop
endfacet
facet normal 0.9238795325112884 -0.3826834323650861 0.0
  outer loop
    vertex -54.26612417176279 773.1900843073546 0.0
    vertex -55.03535742504844 771.3329909546441 1.5
    vertex -55.03535742504844 771.3329909546441 0.0
  endloop
endfacet
facet normal 0.9238795325112884 -0.3826834323650861 0.0
  outer loop
    vertex -55.03535742504844 771.3329909546441 1.5
    vertex -54.26612417176279 773.1900843073546 0.0
    vertex -54.26612417176279 773.1900843073546 1.5
  endloop
endfacet
facet normal 0.6087614290087203 0.7933533402912356 0.0
  outer loop
    vertex -53.04245077775903 763.8953620922182 1.5
    vertex -51.44772856262262 762.6716886982144 0.0
    vertex -53.04245077775903 763.8953620922182 0.0
  endloop
endfacet
facet normal 0.6087614290087203 0.7933533402912356 0.0
  outer loop
    vertex -51.44772856262262 762.6716886982144 0.0
    vertex -53.04245077775903 763.8953620922182 1.5
    vertex -51.44772856262262 762.6716886982144 1.5
  endloop
endfacet
facet normal 0.3826834323650987 0.9238795325112832 0.0
  outer loop
    vertex -51.44772856262262 762.6716886982144 1.5
    vertex -49.59063520991203 761.9024554449287 0.0
    vertex -51.44772856262262 762.6716886982144 0.0
  endloop
endfacet
facet normal 0.3826834323650987 0.9238795325112832 0.0
  outer loop
    vertex -49.59063520991203 761.9024554449287 0.0
    vertex -51.44772856262262 762.6716886982144 1.5
    vertex -49.59063520991203 761.9024554449287 1.5
  endloop
endfacet
facet normal 0.6087614290087179 0.7933533402912375 0.0
  outer loop
    vertex -43.24772856262261 776.8745053202792 1.5
    vertex -41.44589956629966 775.4919133036775 0.0
    vertex -43.24772856262261 776.8745053202792 0.0
  endloop
endfacet
facet normal 0.6087614290087179 0.7933533402912375 0.0
  outer loop
    vertex -41.44589956629966 775.4919133036775 0.0
    vertex -43.24772856262261 776.8745053202792 1.5
    vertex -41.44589956629966 775.4919133036775 1.5
  endloop
endfacet
facet normal -0.38268343236510394 0.9238795325112811 0.0
  outer loop
    vertex -51.94772856262262 776.8745053202792 1.5
    vertex -49.84945425501454 777.7436389960695 0.0
    vertex -51.94772856262262 776.8745053202792 0.0
  endloop
endfacet
facet normal -0.38268343236510394 0.9238795325112811 0.0
  outer loop
    vertex -49.84945425501454 777.7436389960695 0.0
    vertex -51.94772856262262 776.8745053202792 1.5
    vertex -49.84945425501454 777.7436389960695 1.5
  endloop
endfacet
facet normal -0.9238795325112843 0.3826834323650955 0.0
  outer loop
    vertex -55.132149575547224 773.6900843073546 1.5
    vertex -56.00128325133751 771.5918099997466 0.0
    vertex -56.00128325133751 771.5918099997466 1.5
  endloop
endfacet
facet normal -0.9238795325112843 0.3826834323650955 0.0
  outer loop
    vertex -56.00128325133751 771.5918099997466 0.0
    vertex -55.132149575547224 773.6900843073546 1.5
    vertex -55.132149575547224 773.6900843073546 0.0
  endloop
endfacet
facet normal -0.1305261922200546 0.99144486137381 0.0
  outer loop
    vertex -49.84945425501454 777.7436389960695 1.5
    vertex -47.59772856262261 778.0400843073546 0.0
    vertex -49.84945425501454 777.7436389960695 0.0
  endloop
endfacet
facet normal -0.1305261922200546 0.99144486137381 0.0
  outer loop
    vertex -47.59772856262261 778.0400843073546 0.0
    vertex -49.84945425501454 777.7436389960695 1.5
    vertex -47.59772856262261 778.0400843073546 1.5
  endloop
endfacet
facet normal 0.9238795325112852 0.3826834323650934 0.0
  outer loop
    vertex -40.063307549698 773.6900843073546 0.0
    vertex -39.19417387390772 771.5918099997466 1.5
    vertex -39.19417387390772 771.5918099997466 0.0
  endloop
endfacet
facet normal 0.9238795325112852 0.3826834323650934 0.0
  outer loop
    vertex -39.19417387390772 771.5918099997466 1.5
    vertex -40.063307549698 773.6900843073546 0.0
    vertex -40.063307549698 773.6900843073546 1.5
  endloop
endfacet
facet normal 0.3826834323650996 -0.9238795325112826 0.0
  outer loop
    vertex -49.59063520991203 776.7777131697804 1.5
    vertex -51.44772856262261 776.0084799164948 0.0
    vertex -49.59063520991203 776.7777131697804 0.0
  endloop
endfacet
facet normal 0.3826834323650996 -0.9238795325112826 0.0
  outer loop
    vertex -51.44772856262261 776.0084799164948 0.0
    vertex -49.59063520991203 776.7777131697804 1.5
    vertex -51.44772856262261 776.0084799164948 1.5
  endloop
endfacet
facet normal 0.9914448613738105 -0.13052619222005124 0.0
  outer loop
    vertex -55.03535742504844 771.3329909546441 0.0
    vertex -55.297728562622616 769.3400843073546 1.5
    vertex -55.297728562622616 769.3400843073546 0.0
  endloop
endfacet
facet normal 0.9914448613738105 -0.13052619222005124 0.0
  outer loop
    vertex -55.297728562622616 769.3400843073546 1.5
    vertex -55.03535742504844 771.3329909546441 0.0
    vertex -55.03535742504844 771.3329909546441 1.5
  endloop
endfacet
facet normal -0.9238795325112884 0.3826834323650861 0.0
  outer loop
    vertex -40.160099700196795 767.3471776600652 1.5
    vertex -40.92933295348244 765.4900843073546 0.0
    vertex -40.92933295348244 765.4900843073546 1.5
  endloop
endfacet
facet normal -0.9238795325112884 0.3826834323650861 0.0
  outer loop
    vertex -40.92933295348244 765.4900843073546 0.0
    vertex -40.160099700196795 767.3471776600652 1.5
    vertex -40.160099700196795 767.3471776600652 0.0
  endloop
endfacet
facet normal 0.9914448613738106 0.13052619222005055 0.0
  outer loop
    vertex -39.19417387390772 771.5918099997466 0.0
    vertex -38.89772856262262 769.3400843073546 1.5
    vertex -38.89772856262262 769.3400843073546 0.0
  endloop
endfacet
facet normal 0.9914448613738106 0.13052619222005055 0.0
  outer loop
    vertex -38.89772856262262 769.3400843073546 1.5
    vertex -39.19417387390772 771.5918099997466 0.0
    vertex -39.19417387390772 771.5918099997466 1.5
  endloop
endfacet
facet normal -0.7933533402912328 0.6087614290087239 0.0
  outer loop
    vertex -40.92933295348244 765.4900843073546 1.5
    vertex -42.153006347486205 763.8953620922182 0.0
    vertex -42.153006347486205 763.8953620922182 1.5
  endloop
endfacet
facet normal -0.7933533402912328 0.6087614290087239 0.0
  outer loop
    vertex -42.153006347486205 763.8953620922182 0.0
    vertex -40.92933295348244 765.4900843073546 1.5
    vertex -40.92933295348244 765.4900843073546 0.0
  endloop
endfacet
facet normal -0.9914448613738105 0.13052619222005124 0.0
  outer loop
    vertex -39.89772856262262 769.3400843073546 1.5
    vertex -40.160099700196795 767.3471776600652 0.0
    vertex -40.160099700196795 767.3471776600652 1.5
  endloop
endfacet
facet normal -0.9914448613738105 0.13052619222005124 0.0
  outer loop
    vertex -40.160099700196795 767.3471776600652 0.0
    vertex -39.89772856262262 769.3400843073546 1.5
    vertex -39.89772856262262 769.3400843073546 0.0
  endloop
endfacet
facet normal -0.9238795325112884 -0.3826834323650861 -0.0
  outer loop
    vertex -40.92933295348244 773.1900843073546 1.5
    vertex -40.160099700196795 771.3329909546441 0.0
    vertex -40.160099700196795 771.3329909546441 1.5
  endloop
endfacet
facet normal -0.9238795325112884 -0.3826834323650861 -0.0
  outer loop
    vertex -40.160099700196795 771.3329909546441 0.0
    vertex -40.92933295348244 773.1900843073546 1.5
    vertex -40.92933295348244 773.1900843073546 0.0
  endloop
endfacet
facet normal -0.3826834323650987 0.9238795325112832 0.0
  outer loop
    vertex -45.60482191533321 761.9024554449287 1.5
    vertex -43.747728562622626 762.6716886982144 0.0
    vertex -45.60482191533321 761.9024554449287 0.0
  endloop
endfacet
facet normal -0.3826834323650987 0.9238795325112832 0.0
  outer loop
    vertex -43.747728562622626 762.6716886982144 0.0
    vertex -45.60482191533321 761.9024554449287 1.5
    vertex -43.747728562622626 762.6716886982144 1.5
  endloop
endfacet
facet normal -0.7933533402912328 -0.6087614290087239 -0.0
  outer loop
    vertex -42.153006347486205 774.7848065224911 1.5
    vertex -40.92933295348244 773.1900843073546 0.0
    vertex -40.92933295348244 773.1900843073546 1.5
  endloop
endfacet
facet normal -0.7933533402912328 -0.6087614290087239 -0.0
  outer loop
    vertex -40.92933295348244 773.1900843073546 0.0
    vertex -42.153006347486205 774.7848065224911 1.5
    vertex -42.153006347486205 774.7848065224911 0.0
  endloop
endfacet
facet normal -0.3826834323651056 -0.9238795325112802 -0.0
  outer loop
    vertex -49.84945425501456 760.9365296186397 1.5
    vertex -51.94772856262262 761.80566329443 0.0
    vertex -49.84945425501456 760.9365296186397 0.0
  endloop
endfacet
facet normal -0.3826834323651056 -0.9238795325112802 -0.0
  outer loop
    vertex -51.94772856262262 761.80566329443 0.0
    vertex -49.84945425501456 760.9365296186397 1.5
    vertex -51.94772856262262 761.80566329443 1.5
  endloop
endfacet
facet normal 0.13052619222001888 -0.9914448613738148 0.0
  outer loop
    vertex -47.59772856262261 777.0400843073546 1.5
    vertex -49.59063520991203 776.7777131697804 0.0
    vertex -47.59772856262261 777.0400843073546 0.0
  endloop
endfacet
facet normal 0.13052619222001888 -0.9914448613738148 0.0
  outer loop
    vertex -49.59063520991203 776.7777131697804 0.0
    vertex -47.59772856262261 777.0400843073546 1.5
    vertex -49.59063520991203 776.7777131697804 1.5
  endloop
endfacet
facet normal -0.6087614290087189 -0.7933533402912365 -0.0
  outer loop
    vertex -42.153006347486205 774.7848065224911 1.5
    vertex -43.74772856262262 776.0084799164948 0.0
    vertex -42.153006347486205 774.7848065224911 0.0
  endloop
endfacet
facet normal -0.6087614290087189 -0.7933533402912365 -0.0
  outer loop
    vertex -43.74772856262262 776.0084799164948 0.0
    vertex -42.153006347486205 774.7848065224911 1.5
    vertex -43.74772856262262 776.0084799164948 1.5
  endloop
endfacet
facet normal 0.13052619222001852 0.9914448613738148 0.0
  outer loop
    vertex -49.59063520991203 761.9024554449287 1.5
    vertex -47.59772856262261 761.6400843073546 0.0
    vertex -49.59063520991203 761.9024554449287 0.0
  endloop
endfacet
facet normal 0.13052619222001852 0.9914448613738148 0.0
  outer loop
    vertex -47.59772856262261 761.6400843073546 0.0
    vertex -49.59063520991203 761.9024554449287 1.5
    vertex -47.59772856262261 761.6400843073546 1.5
  endloop
endfacet
facet normal -0.3826834323650987 -0.9238795325112832 -0.0
  outer loop
    vertex -43.74772856262262 776.0084799164948 1.5
    vertex -45.604821915333204 776.7777131697804 0.0
    vertex -43.74772856262262 776.0084799164948 0.0
  endloop
endfacet
facet normal -0.3826834323650987 -0.9238795325112832 -0.0
  outer loop
    vertex -45.604821915333204 776.7777131697804 0.0
    vertex -43.74772856262262 776.0084799164948 1.5
    vertex -45.604821915333204 776.7777131697804 1.5
  endloop
endfacet
facet normal 0.9238795325112884 0.3826834323650861 0.0
  outer loop
    vertex -55.03535742504844 767.3471776600652 0.0
    vertex -54.26612417176279 765.4900843073546 1.5
    vertex -54.26612417176279 765.4900843073546 0.0
  endloop
endfacet
facet normal 0.9238795325112884 0.3826834323650861 0.0
  outer loop
    vertex -54.26612417176279 765.4900843073546 1.5
    vertex -55.03535742504844 767.3471776600652 0.0
    vertex -55.03535742504844 767.3471776600652 1.5
  endloop
endfacet
facet normal 0.9914448613738106 -0.13052619222005055 0.0
  outer loop
    vertex -38.89772856262262 769.3400843073546 0.0
    vertex -39.19417387390772 767.0883586149627 1.5
    vertex -39.19417387390772 767.0883586149627 0.0
  endloop
endfacet
facet normal 0.9914448613738106 -0.13052619222005055 0.0
  outer loop
    vertex -39.19417387390772 767.0883586149627 1.5
    vertex -38.89772856262262 769.3400843073546 0.0
    vertex -38.89772856262262 769.3400843073546 1.5
  endloop
endfacet
facet normal 0.9238795325112843 -0.3826834323650955 0.0
  outer loop
    vertex -39.19417387390772 767.0883586149627 0.0
    vertex -40.063307549698 764.9900843073546 1.5
    vertex -40.063307549698 764.9900843073546 0.0
  endloop
endfacet
facet normal 0.9238795325112843 -0.3826834323650955 0.0
  outer loop
    vertex -40.063307549698 764.9900843073546 1.5
    vertex -39.19417387390772 767.0883586149627 0.0
    vertex -39.19417387390772 767.0883586149627 1.5
  endloop
endfacet
facet normal 0.3826834323651048 0.9238795325112806 0.0
  outer loop
    vertex -45.346002870230684 777.7436389960695 1.5
    vertex -43.24772856262261 776.8745053202792 0.0
    vertex -45.346002870230684 777.7436389960695 0.0
  endloop
endfacet
facet normal 0.3826834323651048 0.9238795325112806 0.0
  outer loop
    vertex -43.24772856262261 776.8745053202792 0.0
    vertex -45.346002870230684 777.7436389960695 1.5
    vertex -43.24772856262261 776.8745053202792 1.5
  endloop
endfacet
facet normal 0.9914448613738105 0.13052619222005124 0.0
  outer loop
    vertex -55.297728562622616 769.3400843073546 0.0
    vertex -55.03535742504844 767.3471776600652 1.5
    vertex -55.03535742504844 767.3471776600652 0.0
  endloop
endfacet
facet normal 0.9914448613738105 0.13052619222005124 0.0
  outer loop
    vertex -55.03535742504844 767.3471776600652 1.5
    vertex -55.297728562622616 769.3400843073546 0.0
    vertex -55.297728562622616 769.3400843073546 1.5
  endloop
endfacet
facet normal 0.1305261922200546 -0.99144486137381 0.0
  outer loop
    vertex -45.34600287023069 760.9365296186397 1.5
    vertex -47.59772856262261 760.6400843073546 0.0
    vertex -45.34600287023069 760.9365296186397 0.0
  endloop
endfacet
facet normal 0.1305261922200546 -0.99144486137381 0.0
  outer loop
    vertex -47.59772856262261 760.6400843073546 0.0
    vertex -45.34600287023069 760.9365296186397 1.5
    vertex -47.59772856262261 760.6400843073546 1.5
  endloop
endfacet
facet normal -0.6087614290087154 -0.7933533402912392 -0.0
  outer loop
    vertex -51.94772856262262 761.80566329443 1.5
    vertex -53.74955755894559 763.1882553110316 0.0
    vertex -51.94772856262262 761.80566329443 0.0
  endloop
endfacet
facet normal -0.6087614290087154 -0.7933533402912392 -0.0
  outer loop
    vertex -53.74955755894559 763.1882553110316 0.0
    vertex -51.94772856262262 761.80566329443 1.5
    vertex -53.74955755894559 763.1882553110316 1.5
  endloop
endfacet
facet normal -0.9914448613738109 -0.1305261922200481 -0.0
  outer loop
    vertex -56.29772856262261 769.3400843073546 1.5
    vertex -56.00128325133751 767.0883586149627 0.0
    vertex -56.00128325133751 767.0883586149627 1.5
  endloop
endfacet
facet normal -0.9914448613738109 -0.1305261922200481 -0.0
  outer loop
    vertex -56.00128325133751 767.0883586149627 0.0
    vertex -56.29772856262261 769.3400843073546 1.5
    vertex -56.29772856262261 769.3400843073546 0.0
  endloop
endfacet
facet normal 0.7933533402912328 -0.6087614290087239 0.0
  outer loop
    vertex -53.04245077775903 774.7848065224911 0.0
    vertex -54.26612417176279 773.1900843073546 1.5
    vertex -54.26612417176279 773.1900843073546 0.0
  endloop
endfacet
facet normal 0.7933533402912328 -0.6087614290087239 0.0
  outer loop
    vertex -54.26612417176279 773.1900843073546 1.5
    vertex -53.04245077775903 774.7848065224911 0.0
    vertex -53.04245077775903 774.7848065224911 1.5
  endloop
endfacet
facet normal -0.13052619222001924 0.9914448613738148 0.0
  outer loop
    vertex -47.59772856262261 761.6400843073546 1.5
    vertex -45.60482191533321 761.9024554449287 0.0
    vertex -47.59772856262261 761.6400843073546 0.0
  endloop
endfacet
facet normal -0.13052619222001924 0.9914448613738148 0.0
  outer loop
    vertex -45.60482191533321 761.9024554449287 0.0
    vertex -47.59772856262261 761.6400843073546 1.5
    vertex -45.60482191533321 761.9024554449287 1.5
  endloop
endfacet
facet normal -0.6087614290087175 0.7933533402912375 0.0
  outer loop
    vertex -43.747728562622626 762.6716886982144 1.5
    vertex -42.153006347486205 763.8953620922182 0.0
    vertex -43.747728562622626 762.6716886982144 0.0
  endloop
endfacet
facet normal -0.6087614290087175 0.7933533402912375 0.0
  outer loop
    vertex -42.153006347486205 763.8953620922182 0.0
    vertex -43.747728562622626 762.6716886982144 1.5
    vertex -42.153006347486205 763.8953620922182 1.5
  endloop
endfacet
facet normal 0.6087614290087154 -0.7933533402912392 0.0
  outer loop
    vertex -41.44589956629966 763.1882553110316 1.5
    vertex -43.247728562622626 761.80566329443 0.0
    vertex -41.44589956629966 763.1882553110316 0.0
  endloop
endfacet
facet normal 0.6087614290087154 -0.7933533402912392 0.0
  outer loop
    vertex -43.247728562622626 761.80566329443 0.0
    vertex -41.44589956629966 763.1882553110316 1.5
    vertex -43.247728562622626 761.80566329443 1.5
  endloop
endfacet
facet normal -0.9914448613738105 -0.13052619222005124 -0.0
  outer loop
    vertex -40.160099700196795 771.3329909546441 1.5
    vertex -39.89772856262262 769.3400843073546 0.0
    vertex -39.89772856262262 769.3400843073546 1.5
  endloop
endfacet
facet normal -0.9914448613738105 -0.13052619222005124 -0.0
  outer loop
    vertex -39.89772856262262 769.3400843073546 0.0
    vertex -40.160099700196795 771.3329909546441 1.5
    vertex -40.160099700196795 771.3329909546441 0.0
  endloop
endfacet
facet normal -0.9238795325112862 -0.38268343236509134 -0.0
  outer loop
    vertex -56.00128325133751 767.0883586149627 1.5
    vertex -55.13214957554724 764.9900843073546 0.0
    vertex -55.13214957554724 764.9900843073546 1.5
  endloop
endfacet
facet normal -0.9238795325112862 -0.38268343236509134 -0.0
  outer loop
    vertex -55.13214957554724 764.9900843073546 0.0
    vertex -56.00128325133751 767.0883586149627 1.5
    vertex -56.00128325133751 767.0883586149627 0.0
  endloop
endfacet
facet normal 0.7933533402912301 0.6087614290087273 0.0
  outer loop
    vertex -41.44589956629966 775.4919133036775 0.0
    vertex -40.063307549698 773.6900843073546 1.5
    vertex -40.063307549698 773.6900843073546 0.0
  endloop
endfacet
facet normal 0.7933533402912301 0.6087614290087273 0.0
  outer loop
    vertex -40.063307549698 773.6900843073546 1.5
    vertex -41.44589956629966 775.4919133036775 0.0
    vertex -41.44589956629966 775.4919133036775 1.5
  endloop
endfacet
facet normal -0.6087614290087179 0.7933533402912375 0.0
  outer loop
    vertex -53.749557558945575 775.4919133036775 1.5
    vertex -51.94772856262262 776.8745053202792 0.0
    vertex -53.749557558945575 775.4919133036775 0.0
  endloop
endfacet
facet normal -0.6087614290087179 0.7933533402912375 0.0
  outer loop
    vertex -51.94772856262262 776.8745053202792 0.0
    vertex -53.749557558945575 775.4919133036775 1.5
    vertex -51.94772856262262 776.8745053202792 1.5
  endloop
endfacet
facet normal 0.7933533402912328 0.6087614290087239 0.0
  outer loop
    vertex -54.26612417176279 765.4900843073546 0.0
    vertex -53.04245077775903 763.8953620922182 1.5
    vertex -53.04245077775903 763.8953620922182 0.0
  endloop
endfacet
facet normal 0.7933533402912328 0.6087614290087239 0.0
  outer loop
    vertex -53.04245077775903 763.8953620922182 1.5
    vertex -54.26612417176279 765.4900843073546 0.0
    vertex -54.26612417176279 765.4900843073546 1.5
  endloop
endfacet
facet normal 0.0 0.0 1.0
  outer loop
    vertex -56.00128325133751 767.0883586149627 1.5
    vertex -56.00128325133751 771.5918099997466 1.5
    vertex -56.29772856262261 769.3400843073546 1.5
  endloop
endfacet
facet normal 0.0 0.0 1.0
  outer loop
    vertex -56.00128325133751 771.5918099997466 1.5
    vertex -56.00128325133751 767.0883586149627 1.5
    vertex -55.13214957554724 764.9900843073546 1.5
  endloop
endfacet
facet normal 0.0 0.0 1.0
  outer loop
    vertex -56.00128325133751 771.5918099997466 1.5
    vertex -55.13214957554724 764.9900843073546 1.5
    vertex -55.297728562622616 769.3400843073546 1.5
  endloop
endfacet
facet normal 0.0 0.0 1.0
  outer loop
    vertex -55.297728562622616 769.3400843073546 1.5
    vertex -55.13214957554724 764.9900843073546 1.5
    vertex -55.03535742504844 767.3471776600652 1.5
  endloop
endfacet
facet normal 0.0 0.0 1.0
  outer loop
    vertex -55.03535742504844 767.3471776600652 1.5
    vertex -55.13214957554724 764.9900843073546 1.5
    vertex -53.74955755894559 763.1882553110316 1.5
  endloop
endfacet
facet normal 0.0 0.0 1.0
  outer loop
    vertex -55.03535742504844 767.3471776600652 1.5
    vertex -53.74955755894559 763.1882553110316 1.5
    vertex -54.26612417176279 765.4900843073546 1.5
  endloop
endfacet
facet normal 0.0 0.0 1.0
  outer loop
    vertex -54.26612417176279 765.4900843073546 1.5
    vertex -53.74955755894559 763.1882553110316 1.5
    vertex -53.04245077775903 763.8953620922182 1.5
  endloop
endfacet
facet normal 0.0 0.0 1.0
  outer loop
    vertex -53.04245077775903 763.8953620922182 1.5
    vertex -53.74955755894559 763.1882553110316 1.5
    vertex -51.94772856262262 761.80566329443 1.5
  endloop
endfacet
facet normal 0.0 0.0 1.0
  outer loop
    vertex -53.04245077775903 763.8953620922182 1.5
    vertex -51.94772856262262 761.80566329443 1.5
    vertex -51.44772856262262 762.6716886982144 1.5
  endloop
endfacet
facet normal 0.0 0.0 1.0
  outer loop
    vertex -51.44772856262262 762.6716886982144 1.5
    vertex -51.94772856262262 761.80566329443 1.5
    vertex -49.84945425501456 760.9365296186397 1.5
  endloop
endfacet
facet normal 0.0 0.0 1.0
  outer loop
    vertex -51.44772856262262 762.6716886982144 1.5
    vertex -49.84945425501456 760.9365296186397 1.5
    vertex -49.59063520991203 761.9024554449287 1.5
  endloop
endfacet
facet normal 0.0 0.0 1.0
  outer loop
    vertex -49.59063520991203 761.9024554449287 1.5
    vertex -49.84945425501456 760.9365296186397 1.5
    vertex -47.59772856262261 760.6400843073546 1.5
  endloop
endfacet
facet normal 0.0 0.0 1.0
  outer loop
    vertex -49.59063520991203 761.9024554449287 1.5
    vertex -47.59772856262261 760.6400843073546 1.5
    vertex -47.59772856262261 761.6400843073546 1.5
  endloop
endfacet
facet normal 0.0 0.0 1.0
  outer loop
    vertex -47.59772856262261 761.6400843073546 1.5
    vertex -47.59772856262261 760.6400843073546 1.5
    vertex -45.34600287023069 760.9365296186397 1.5
  endloop
endfacet
facet normal 0.0 0.0 1.0
  outer loop
    vertex -47.59772856262261 761.6400843073546 1.5
    vertex -45.34600287023069 760.9365296186397 1.5
    vertex -45.60482191533321 761.9024554449287 1.5
  endloop
endfacet
facet normal 0.0 0.0 1.0
  outer loop
    vertex -45.60482191533321 761.9024554449287 1.5
    vertex -45.34600287023069 760.9365296186397 1.5
    vertex -43.747728562622626 762.6716886982144 1.5
  endloop
endfacet
facet normal 0.0 0.0 1.0
  outer loop
    vertex -43.747728562622626 762.6716886982144 1.5
    vertex -45.34600287023069 760.9365296186397 1.5
    vertex -43.247728562622626 761.80566329443 1.5
  endloop
endfacet
facet normal 0.0 0.0 1.0
  outer loop
    vertex -43.747728562622626 762.6716886982144 1.5
    vertex -43.247728562622626 761.80566329443 1.5
    vertex -42.153006347486205 763.8953620922182 1.5
  endloop
endfacet
facet normal 0.0 0.0 1.0
  outer loop
    vertex -42.153006347486205 763.8953620922182 1.5
    vertex -43.247728562622626 761.80566329443 1.5
    vertex -41.44589956629966 763.1882553110316 1.5
  endloop
endfacet
facet normal 0.0 0.0 1.0
  outer loop
    vertex -42.153006347486205 763.8953620922182 1.5
    vertex -41.44589956629966 763.1882553110316 1.5
    vertex -40.92933295348244 765.4900843073546 1.5
  endloop
endfacet
facet normal 0.0 0.0 1.0
  outer loop
    vertex -40.92933295348244 765.4900843073546 1.5
    vertex -41.44589956629966 763.1882553110316 1.5
    vertex -40.063307549698 764.9900843073546 1.5
  endloop
endfacet
facet normal 0.0 0.0 1.0
  outer loop
    vertex -40.92933295348244 765.4900843073546 1.5
    vertex -40.063307549698 764.9900843073546 1.5
    vertex -40.160099700196795 767.3471776600652 1.5
  endloop
endfacet
facet normal 0.0 0.0 1.0
  outer loop
    vertex -40.160099700196795 767.3471776600652 1.5
    vertex -40.063307549698 764.9900843073546 1.5
    vertex -39.89772856262262 769.3400843073546 1.5
  endloop
endfacet
facet normal 0.0 0.0 1.0
  outer loop
    vertex -39.89772856262262 769.3400843073546 1.5
    vertex -40.063307549698 764.9900843073546 1.5
    vertex -39.19417387390772 767.0883586149627 1.5
  endloop
endfacet
facet normal 0.0 0.0 1.0
  outer loop
    vertex -55.297728562622616 769.3400843073546 1.5
    vertex -55.132149575547224 773.6900843073546 1.5
    vertex -56.00128325133751 771.5918099997466 1.5
  endloop
endfacet
facet normal 0.0 0.0 1.0
  outer loop
    vertex -55.132149575547224 773.6900843073546 1.5
    vertex -55.297728562622616 769.3400843073546 1.5
    vertex -55.03535742504844 771.3329909546441 1.5
  endloop
endfacet
facet normal 0.0 0.0 1.0
  outer loop
    vertex -55.132149575547224 773.6900843073546 1.5
    vertex -55.03535742504844 771.3329909546441 1.5
    vertex -53.749557558945575 775.4919133036775 1.5
  endloop
endfacet
facet normal 0.0 0.0 1.0
  outer loop
    vertex -53.749557558945575 775.4919133036775 1.5
    vertex -55.03535742504844 771.3329909546441 1.5
    vertex -54.26612417176279 773.1900843073546 1.5
  endloop
endfacet
facet normal 0.0 0.0 1.0
  outer loop
    vertex -53.749557558945575 775.4919133036775 1.5
    vertex -54.26612417176279 773.1900843073546 1.5
    vertex -53.04245077775903 774.7848065224911 1.5
  endloop
endfacet
facet normal 0.0 0.0 1.0
  outer loop
    vertex -53.749557558945575 775.4919133036775 1.5
    vertex -53.04245077775903 774.7848065224911 1.5
    vertex -51.94772856262262 776.8745053202792 1.5
  endloop
endfacet
facet normal 0.0 0.0 1.0
  outer loop
    vertex -51.94772856262262 776.8745053202792 1.5
    vertex -53.04245077775903 774.7848065224911 1.5
    vertex -51.44772856262261 776.0084799164948 1.5
  endloop
endfacet
facet normal 0.0 0.0 1.0
  outer loop
    vertex -51.94772856262262 776.8745053202792 1.5
    vertex -51.44772856262261 776.0084799164948 1.5
    vertex -49.84945425501454 777.7436389960695 1.5
  endloop
endfacet
facet normal 0.0 0.0 1.0
  outer loop
    vertex -49.84945425501454 777.7436389960695 1.5
    vertex -51.44772856262261 776.0084799164948 1.5
    vertex -49.59063520991203 776.7777131697804 1.5
  endloop
endfacet
facet normal 0.0 0.0 1.0
  outer loop
    vertex -49.84945425501454 777.7436389960695 1.5
    vertex -49.59063520991203 776.7777131697804 1.5
    vertex -47.59772856262261 778.0400843073546 1.5
  endloop
endfacet
facet normal 0.0 0.0 1.0
  outer loop
    vertex -47.59772856262261 778.0400843073546 1.5
    vertex -49.59063520991203 776.7777131697804 1.5
    vertex -47.59772856262261 777.0400843073546 1.5
  endloop
endfacet
facet normal 0.0 0.0 1.0
  outer loop
    vertex -47.59772856262261 778.0400843073546 1.5
    vertex -47.59772856262261 777.0400843073546 1.5
    vertex -45.604821915333204 776.7777131697804 1.5
  endloop
endfacet
facet normal 0.0 0.0 1.0
  outer loop
    vertex -47.59772856262261 778.0400843073546 1.5
    vertex -45.604821915333204 776.7777131697804 1.5
    vertex -45.346002870230684 777.7436389960695 1.5
  endloop
endfacet
facet normal 0.0 0.0 1.0
  outer loop
    vertex -45.346002870230684 777.7436389960695 1.5
    vertex -45.604821915333204 776.7777131697804 1.5
    vertex -43.74772856262262 776.0084799164948 1.5
  endloop
endfacet
facet normal 0.0 0.0 1.0
  outer loop
    vertex -45.346002870230684 777.7436389960695 1.5
    vertex -43.74772856262262 776.0084799164948 1.5
    vertex -43.24772856262261 776.8745053202792 1.5
  endloop
endfacet
facet normal 0.0 0.0 1.0
  outer loop
    vertex -43.24772856262261 776.8745053202792 1.5
    vertex -43.74772856262262 776.0084799164948 1.5
    vertex -42.153006347486205 774.7848065224911 1.5
  endloop
endfacet
facet normal 0.0 0.0 1.0
  outer loop
    vertex -43.24772856262261 776.8745053202792 1.5
    vertex -42.153006347486205 774.7848065224911 1.5
    vertex -41.44589956629966 775.4919133036775 1.5
  endloop
endfacet
facet normal 0.0 0.0 1.0
  outer loop
    vertex -41.44589956629966 775.4919133036775 1.5
    vertex -42.153006347486205 774.7848065224911 1.5
    vertex -40.92933295348244 773.1900843073546 1.5
  endloop
endfacet
facet normal 0.0 0.0 1.0
  outer loop
    vertex -41.44589956629966 775.4919133036775 1.5
    vertex -40.92933295348244 773.1900843073546 1.5
    vertex -40.063307549698 773.6900843073546 1.5
  endloop
endfacet
facet normal 0.0 0.0 1.0
  outer loop
    vertex -40.063307549698 773.6900843073546 1.5
    vertex -40.92933295348244 773.1900843073546 1.5
    vertex -40.160099700196795 771.3329909546441 1.5
  endloop
endfacet
facet normal 0.0 0.0 1.0
  outer loop
    vertex -40.063307549698 773.6900843073546 1.5
    vertex -40.160099700196795 771.3329909546441 1.5
    vertex -39.89772856262262 769.3400843073546 1.5
  endloop
endfacet
facet normal 0.0 0.0 1.0
  outer loop
    vertex -40.063307549698 773.6900843073546 1.5
    vertex -39.89772856262262 769.3400843073546 1.5
    vertex -39.19417387390772 771.5918099997466 1.5
  endloop
endfacet
facet normal 0.0 0.0 1.0
  outer loop
    vertex -39.19417387390772 771.5918099997466 1.5
    vertex -39.89772856262262 769.3400843073546 1.5
    vertex -39.19417387390772 767.0883586149627 1.5
  endloop
endfacet
facet normal 0.0 0.0 1.0
  outer loop
    vertex -39.19417387390772 771.5918099997466 1.5
    vertex -39.19417387390772 767.0883586149627 1.5
    vertex -38.89772856262262 769.3400843073546 1.5
  endloop
endfacet
facet normal -0.13052619222005393 -0.99144486137381 -0.0
  outer loop
    vertex -47.59772856262261 760.6400843073546 1.5
    vertex -49.84945425501456 760.9365296186397 0.0
    vertex -47.59772856262261 760.6400843073546 0.0
  endloop
endfacet
facet normal -0.13052619222005393 -0.99144486137381 -0.0
  outer loop
    vertex -49.84945425501456 760.9365296186397 0.0
    vertex -47.59772856262261 760.6400843073546 1.5
    vertex -49.84945425501456 760.9365296186397 1.5
  endloop
endfacet
endsolid Design - Rolled
