solid Design - Rolled
facet normal -0.0 -1.0 -0.0
  outer loop
    vertex -59.07829862453761 729.4377563996272 7.999999999999999
    vertex -79.07829862453761 729.4377563996272 0.0
    vertex -59.07829862453761 729.4377563996272 0.0
  endloop
endfacet
facet normal -0.0 -1.0 -0.0
  outer loop
    vertex -79.07829862453761 729.4377563996272 0.0
    vertex -59.07829862453761 729.4377563996272 7.999999999999999
    vertex -79.07829862453761 729.4377563996272 7.999999999999999
  endloop
endfacet
facet normal 0.0 0.0 1.0
  outer loop
    vertex -79.07829862453761 729.4377563996272 7.999999999999999
    vertex -78.07829862453761 730.4377563996273 7.999999999999999
    vertex -79.07829862453761 749.4377563996272 7.999999999999999
  endloop
endfacet
facet normal 0.0 0.0 1.0
  outer loop
    vertex -78.07829862453761 730.4377563996273 7.999999999999999
    vertex -79.07829862453761 729.4377563996272 7.999999999999999
    vertex -59.07829862453761 729.4377563996272 7.999999999999999
  endloop
endfacet
facet normal 0.0 0.0 1.0
  outer loop
    vertex -78.07829862453761 730.4377563996273 7.999999999999999
    vertex -59.07829862453761 729.4377563996272 7.999999999999999
    vertex -60.07829862453761 730.4377563996273 7.999999999999999
  endloop
endfacet
facet normal 0.0 0.0 1.0
  outer loop
    vertex -60.07829862453761 730.4377563996273 7.999999999999999
    vertex -59.07829862453761 729.4377563996272 7.999999999999999
    vertex -60.07829862453761 748.4377563996272 7.999999999999999
  endloop
endfacet
facet normal 0.0 0.0 1.0
  outer loop
    vertex -79.07829862453761 749.4377563996272 7.999999999999999
    vertex -78.07829862453761 748.4377563996272 7.999999999999999
    vertex -59.07829862453761 749.4377563996272 7.999999999999999
  endloop
endfacet
facet normal 0.0 0.0 1.0
  outer loop
    vertex -78.07829862453761 748.4377563996272 7.999999999999999
    vertex -79.07829862453761 749.4377563996272 7.999999999999999
    vertex -78.07829862453761 730.4377563996273 7.999999999999999
  endloop
endfacet
facet normal 0.0 0.0 1.0
  outer loop
    vertex -59.07829862453761 749.4377563996272 7.999999999999999
    vertex -78.07829862453761 748.4377563996272 7.999999999999999
    vertex -60.07829862453761 748.4377563996272 7.999999999999999
  endloop
endfacet
facet normal 0.0 0.0 1.0
  outer loop
    vertex -59.07829862453761 749.4377563996272 7.999999999999999
    vertex -60.07829862453761 748.4377563996272 7.999999999999999
    vertex -59.07829862453761 729.4377563996272 7.999999999999999
  endloop
endfacet
facet normal 1.0 0.0 0.0
  outer loop
    vertex -59.07829862453761 749.4377563996272 0.0
    vertex -59.07829862453761 729.4377563996272 7.999999999999999
    vertex -59.07829862453761 729.4377563996272 0.0
  endloop
endfacet
facet normal 1.0 0.0 0.0
  outer loop
    vertex -59.07829862453761 729.4377563996272 7.999999999999999
    vertex -59.07829862453761 749.4377563996272 0.0
    vertex -59.07829862453761 749.4377563996272 7.999999999999999
  endloop
endfacet
facet normal 0.0 0.0 -1.0
  outer loop
    vertex -79.07829862453761 749.4377563996272 0.0
    vertex -76.80570523485017 741.5083087604474 -7.049916206369744e-16
    vertex -79.07829862453761 729.4377563996272 0.0
  endloop
endfacet
facet normal 0.0 0.0 -1.0
  outer loop
    vertex -76.80570523485017 741.5083087604474 -7.049916206369744e-16
    vertex -79.07829862453761 749.4377563996272 0.0
    vertex -76.00650185481312 743.4377563996272 -7.049916206369744e-16
  endloop
endfacet
facet normal 0.0 0.0 -1.0
  outer loop
    vertex -76.00650185481312 743.4377563996272 -7.049916206369744e-16
    vertex -79.07829862453761 749.4377563996272 0.0
    vertex -74.73515287403 745.0946106491197 -7.049916206369744e-16
  endloop
endfacet
facet normal 0.0 0.0 -1.0
  outer loop
    vertex -74.73515287403 745.0946106491197 -7.049916206369744e-16
    vertex -79.07829862453761 749.4377563996272 0.0
    vertex -73.07829862453762 746.3659596299027 -7.049916206369744e-16
  endloop
endfacet
facet normal 0.0 0.0 -1.0
  outer loop
    vertex -73.07829862453762 746.3659596299027 -7.049916206369744e-16
    vertex -79.07829862453761 749.4377563996272 0.0
    vertex -71.14885098535778 747.1651630099399 -7.049916206369744e-16
  endloop
endfacet
facet normal 0.0 0.0 -1.0
  outer loop
    vertex -71.14885098535778 747.1651630099399 -7.049916206369744e-16
    vertex -79.07829862453761 749.4377563996272 0.0
    vertex -59.07829862453761 749.4377563996272 0.0
  endloop
endfacet
facet normal 0.0 0.0 -1.0
  outer loop
    vertex -79.07829862453761 729.4377563996272 0.0
    vertex -76.80570523485017 741.5083087604474 -7.049916206369744e-16
    vertex -77.07829862453761 739.4377563996272 -7.049916206369744e-16
  endloop
endfacet
facet normal 0.0 0.0 -1.0
  outer loop
    vertex -71.14885098535778 747.1651630099399 -7.049916206369744e-16
    vertex -59.07829862453761 749.4377563996272 0.0
    vertex -69.07829862453762 747.4377563996272 -7.049916206369744e-16
  endloop
endfacet
facet normal 0.0 0.0 -1.0
  outer loop
    vertex -69.07829862453762 747.4377563996272 -7.049916206369744e-16
    vertex -59.07829862453761 749.4377563996272 0.0
    vertex -67.00774626371745 747.1651630099399 -7.049916206369744e-16
  endloop
endfacet
facet normal 0.0 0.0 -1.0
  outer loop
    vertex -67.00774626371745 747.1651630099399 -7.049916206369744e-16
    vertex -59.07829862453761 749.4377563996272 0.0
    vertex -65.07829862453762 746.3659596299027 -7.049916206369744e-16
  endloop
endfacet
facet normal 0.0 0.0 -1.0
  outer loop
    vertex -65.07829862453762 746.3659596299027 -7.049916206369744e-16
    vertex -59.07829862453761 749.4377563996272 0.0
    vertex -63.42144437504525 745.0946106491197 -7.049916206369744e-16
  endloop
endfacet
facet normal 0.0 0.0 -1.0
  outer loop
    vertex -63.42144437504525 745.0946106491197 -7.049916206369744e-16
    vertex -59.07829862453761 749.4377563996272 0.0
    vertex -62.15009539426212 743.4377563996272 -7.049916206369744e-16
  endloop
endfacet
facet normal 0.0 0.0 -1.0
  outer loop
    vertex -62.15009539426212 743.4377563996272 -7.049916206369744e-16
    vertex -59.07829862453761 749.4377563996272 0.0
    vertex -61.350892014225074 741.5083087604474 -7.049916206369744e-16
  endloop
endfacet
facet normal 0.0 0.0 -1.0
  outer loop
    vertex -61.350892014225074 741.5083087604474 -7.049916206369744e-16
    vertex -59.07829862453761 749.4377563996272 0.0
    vertex -61.078298624537624 739.4377563996272 -7.049916206369744e-16
  endloop
endfacet
facet normal 0.0 0.0 -1.0
  outer loop
    vertex -79.07829862453761 729.4377563996272 0.0
    vertex -71.14885098535778 731.7103497893147 -7.049916206369744e-16
    vertex -59.07829862453761 729.4377563996272 0.0
  endloop
endfacet
facet normal 0.0 0.0 -1.0
  outer loop
    vertex -71.14885098535778 731.7103497893147 -7.049916206369744e-16
    vertex -79.07829862453761 729.4377563996272 0.0
    vertex -73.07829862453761 732.5095531693518 -7.049916206369744e-16
  endloop
endfacet
facet normal 0.0 0.0 -1.0
  outer loop
    vertex -73.07829862453761 732.5095531693518 -7.049916206369744e-16
    vertex -79.07829862453761 729.4377563996272 0.0
    vertex -74.73515287402999 733.7809021501349 -7.049916206369744e-16
  endloop
endfacet
facet normal 0.0 0.0 -1.0
  outer loop
    vertex -74.73515287402999 733.7809021501349 -7.049916206369744e-16
    vertex -79.07829862453761 729.4377563996272 0.0
    vertex -76.00650185481312 735.4377563996272 -7.049916206369744e-16
  endloop
endfacet
facet normal 0.0 0.0 -1.0
  outer loop
    vertex -76.00650185481312 735.4377563996272 -7.049916206369744e-16
    vertex -79.07829862453761 729.4377563996272 0.0
    vertex -76.80570523485017 737.3672040388071 -7.049916206369744e-16
  endloop
endfacet
facet normal 0.0 0.0 -1.0
  outer loop
    vertex -76.80570523485017 737.3672040388071 -7.049916206369744e-16
    vertex -79.07829862453761 729.4377563996272 0.0
    vertex -77.07829862453761 739.4377563996272 -7.049916206369744e-16
  endloop
endfacet
facet normal 0.0 0.0 -1.0
  outer loop
    vertex -59.07829862453761 729.4377563996272 0.0
    vertex -71.14885098535778 731.7103497893147 -7.049916206369744e-16
    vertex -69.07829862453762 731.4377563996272 -7.049916206369744e-16
  endloop
endfacet
facet normal 0.0 0.0 -1.0
  outer loop
    vertex -59.07829862453761 729.4377563996272 0.0
    vertex -69.07829862453762 731.4377563996272 -7.049916206369744e-16
    vertex -67.00774626371745 731.7103497893147 -7.049916206369744e-16
  endloop
endfacet
facet normal 0.0 0.0 -1.0
  outer loop
    vertex -59.07829862453761 729.4377563996272 0.0
    vertex -67.00774626371745 731.7103497893147 -7.049916206369744e-16
    vertex -65.07829862453761 732.5095531693518 -7.049916206369744e-16
  endloop
endfacet
facet normal 0.0 0.0 -1.0
  outer loop
    vertex -59.07829862453761 729.4377563996272 0.0
    vertex -65.07829862453761 732.5095531693518 -7.049916206369744e-16
    vertex -63.42144437504523 733.7809021501349 -7.049916206369744e-16
  endloop
endfacet
facet normal 0.0 0.0 -1.0
  outer loop
    vertex -59.07829862453761 729.4377563996272 0.0
    vertex -63.42144437504523 733.7809021501349 -7.049916206369744e-16
    vertex -62.1500953942621 735.4377563996272 -7.049916206369744e-16
  endloop
endfacet
facet normal 0.0 0.0 -1.0
  outer loop
    vertex -59.07829862453761 729.4377563996272 0.0
    vertex -62.1500953942621 735.4377563996272 -7.049916206369744e-16
    vertex -61.350892014225074 737.3672040388071 -7.049916206369744e-16
  endloop
endfacet
facet normal 0.0 0.0 -1.0
  outer loop
    vertex -59.07829862453761 729.4377563996272 0.0
    vertex -61.350892014225074 737.3672040388071 -7.049916206369744e-16
    vertex -61.078298624537624 739.4377563996272 -7.049916206369744e-16
  endloop
endfacet
facet normal 0.0 0.0 -1.0
  outer loop
    vertex -59.07829862453761 729.4377563996272 0.0
    vertex -61.078298624537624 739.4377563996272 -7.049916206369744e-16
    vertex -59.07829862453761 749.4377563996272 0.0
  endloop
endfacet
facet normal -1.0 0.0 0.0
  outer loop
    vertex -79.07829862453761 749.4377563996272 7.999999999999999
    vertex -79.07829862453761 729.4377563996272 0.0
    vertex -79.07829862453761 729.4377563996272 7.999999999999999
  endloop
endfacet
facet normal -1.0 0.0 0.0
  outer loop
    vertex -79.07829862453761 729.4377563996272 0.0
    vertex -79.07829862453761 749.4377563996272 7.999999999999999
    vertex -79.07829862453761 749.4377563996272 0.0
  endloop
endfacet
facet normal 0.0 1.0 0.0
  outer loop
    vertex -79.07829862453761 749.4377563996272 7.999999999999999
    vertex -59.07829862453761 749.4377563996272 0.0
    vertex -79.07829862453761 749.4377563996272 0.0
  endloop
endfacet
facet normal 0.0 1.0 0.0
  outer loop
    vertex -59.07829862453761 749.4377563996272 0.0
    vertex -79.07829862453761 749.4377563996272 7.999999999999999
    vertex -59.07829862453761 749.4377563996272 7.999999999999999
  endloop
endfacet
facet normal 0.0 0.0 1.0
  outer loop
    vertex -78.07829862453761 730.4377563996273 1.9999999999999991
    vertex -77.07829862453761 739.4377563996272 1.9999999999999991
    vertex -78.07829862453761 748.4377563996272 1.9999999999999991
  endloop
endfacet
facet normal 0.0 0.0 1.0
  outer loop
    vertex -77.07829862453761 739.4377563996272 1.9999999999999991
    vertex -78.07829862453761 730.4377563996273 1.9999999999999991
    vertex -76.80570523485017 737.3672040388071 1.9999999999999991
  endloop
endfacet
facet normal 0.0 0.0 1.0
  outer loop
    vertex -76.80570523485017 737.3672040388071 1.9999999999999991
    vertex -78.07829862453761 730.4377563996273 1.9999999999999991
    vertex -76.00650185481312 735.4377563996272 1.9999999999999991
  endloop
endfacet
facet normal 0.0 0.0 1.0
  outer loop
    vertex -76.00650185481312 735.4377563996272 1.9999999999999991
    vertex -78.07829862453761 730.4377563996273 1.9999999999999991
    vertex -74.73515287402999 733.7809021501349 1.9999999999999991
  endloop
endfacet
facet normal 0.0 0.0 1.0
  outer loop
    vertex -74.73515287402999 733.7809021501349 1.9999999999999991
    vertex -78.07829862453761 730.4377563996273 1.9999999999999991
    vertex -73.07829862453761 732.5095531693518 1.9999999999999991
  endloop
endfacet
facet normal 0.0 0.0 1.0
  outer loop
    vertex -73.07829862453761 732.5095531693518 1.9999999999999991
    vertex -78.07829862453761 730.4377563996273 1.9999999999999991
    vertex -71.14885098535778 731.7103497893147 1.9999999999999991
  endloop
endfacet
facet normal 0.0 0.0 1.0
  outer loop
    vertex -71.14885098535778 731.7103497893147 1.9999999999999991
    vertex -78.07829862453761 730.4377563996273 1.9999999999999991
    vertex -69.07829862453762 731.4377563996272 1.9999999999999991
  endloop
endfacet
facet normal 0.0 0.0 1.0
  outer loop
    vertex -69.07829862453762 731.4377563996272 1.9999999999999991
    vertex -78.07829862453761 730.4377563996273 1.9999999999999991
    vertex -60.07829862453761 730.4377563996273 1.9999999999999991
  endloop
endfacet
facet normal 0.0 0.0 1.0
  outer loop
    vertex -69.07829862453762 731.4377563996272 1.9999999999999991
    vertex -60.07829862453761 730.4377563996273 1.9999999999999991
    vertex -67.00774626371745 731.7103497893147 1.9999999999999991
  endloop
endfacet
facet normal 0.0 0.0 1.0
  outer loop
    vertex -67.00774626371745 731.7103497893147 1.9999999999999991
    vertex -60.07829862453761 730.4377563996273 1.9999999999999991
    vertex -65.07829862453761 732.5095531693518 1.9999999999999991
  endloop
endfacet
facet normal 0.0 0.0 1.0
  outer loop
    vertex -65.07829862453761 732.5095531693518 1.9999999999999991
    vertex -60.07829862453761 730.4377563996273 1.9999999999999991
    vertex -63.42144437504523 733.7809021501349 1.9999999999999991
  endloop
endfacet
facet normal 0.0 0.0 1.0
  outer loop
    vertex -63.42144437504523 733.7809021501349 1.9999999999999991
    vertex -60.07829862453761 730.4377563996273 1.9999999999999991
    vertex -62.1500953942621 735.4377563996272 1.9999999999999991
  endloop
endfacet
facet normal 0.0 0.0 1.0
  outer loop
    vertex -62.1500953942621 735.4377563996272 1.9999999999999991
    vertex -60.07829862453761 730.4377563996273 1.9999999999999991
    vertex -61.350892014225074 737.3672040388071 1.9999999999999991
  endloop
endfacet
facet normal 0.0 0.0 1.0
  outer loop
    vertex -61.350892014225074 737.3672040388071 1.9999999999999991
    vertex -60.07829862453761 730.4377563996273 1.9999999999999991
    vertex -61.078298624537624 739.4377563996272 1.9999999999999991
  endloop
endfacet
facet normal 0.0 0.0 1.0
  outer loop
    vertex -78.07829862453761 748.4377563996272 1.9999999999999991
    vertex -69.07829862453762 747.4377563996272 1.9999999999999991
    vertex -60.07829862453761 748.4377563996272 1.9999999999999991
  endloop
endfacet
facet normal 0.0 0.0 1.0
  outer loop
    vertex -69.07829862453762 747.4377563996272 1.9999999999999991
    vertex -78.07829862453761 748.4377563996272 1.9999999999999991
    vertex -71.14885098535778 747.1651630099399 1.9999999999999991
  endloop
endfacet
facet normal 0.0 0.0 1.0
  outer loop
    vertex -71.14885098535778 747.1651630099399 1.9999999999999991
    vertex -78.07829862453761 748.4377563996272 1.9999999999999991
    vertex -73.07829862453762 746.3659596299027 1.9999999999999991
  endloop
endfacet
facet normal 0.0 0.0 1.0
  outer loop
    vertex -73.07829862453762 746.3659596299027 1.9999999999999991
    vertex -78.07829862453761 748.4377563996272 1.9999999999999991
    vertex -74.73515287403 745.0946106491197 1.9999999999999991
  endloop
endfacet
facet normal 0.0 0.0 1.0
  outer loop
    vertex -74.73515287403 745.0946106491197 1.9999999999999991
    vertex -78.07829862453761 748.4377563996272 1.9999999999999991
    vertex -76.00650185481312 743.4377563996272 1.9999999999999991
  endloop
endfacet
facet normal 0.0 0.0 1.0
  outer loop
    vertex -76.00650185481312 743.4377563996272 1.9999999999999991
    vertex -78.07829862453761 748.4377563996272 1.9999999999999991
    vertex -76.80570523485017 741.5083087604474 1.9999999999999991
  endloop
endfacet
facet normal 0.0 0.0 1.0
  outer loop
    vertex -76.80570523485017 741.5083087604474 1.9999999999999991
    vertex -78.07829862453761 748.4377563996272 1.9999999999999991
    vertex -77.07829862453761 739.4377563996272 1.9999999999999991
  endloop
endfacet
facet normal 0.0 0.0 1.0
  outer loop
    vertex -60.07829862453761 748.4377563996272 1.9999999999999991
    vertex -69.07829862453762 747.4377563996272 1.9999999999999991
    vertex -67.00774626371745 747.1651630099399 1.9999999999999991
  endloop
endfacet
facet normal 0.0 0.0 1.0
  outer loop
    vertex -60.07829862453761 748.4377563996272 1.9999999999999991
    vertex -67.00774626371745 747.1651630099399 1.9999999999999991
    vertex -65.07829862453762 746.3659596299027 1.9999999999999991
  endloop
endfacet
facet normal 0.0 0.0 1.0
  outer loop
    vertex -60.07829862453761 748.4377563996272 1.9999999999999991
    vertex -65.07829862453762 746.3659596299027 1.9999999999999991
    vertex -63.42144437504525 745.0946106491197 1.9999999999999991
  endloop
endfacet
facet normal 0.0 0.0 1.0
  outer loop
    vertex -60.07829862453761 748.4377563996272 1.9999999999999991
    vertex -63.42144437504525 745.0946106491197 1.9999999999999991
    vertex -62.15009539426212 743.4377563996272 1.9999999999999991
  endloop
endfacet
facet normal 0.0 0.0 1.0
  outer loop
    vertex -60.07829862453761 748.4377563996272 1.9999999999999991
    vertex -62.15009539426212 743.4377563996272 1.9999999999999991
    vertex -61.350892014225074 741.5083087604474 1.9999999999999991
  endloop
endfacet
facet normal 0.0 0.0 1.0
  outer loop
    vertex -60.07829862453761 748.4377563996272 1.9999999999999991
    vertex -61.350892014225074 741.5083087604474 1.9999999999999991
    vertex -61.078298624537624 739.4377563996272 1.9999999999999991
  endloop
endfacet
facet normal 0.0 0.0 1.0
  outer loop
    vertex -60.07829862453761 748.4377563996272 1.9999999999999991
    vertex -61.078298624537624 739.4377563996272 1.9999999999999991
    vertex -60.07829862453761 730.4377563996273 1.9999999999999991
  endloop
endfacet
facet normal 1.0 0.0 0.0
  outer loop
    vertex -78.07829862453761 748.4377563996272 1.9999999999999991
    vertex -78.07829862453761 730.4377563996273 7.999999999999999
    vertex -78.07829862453761 730.4377563996273 1.9999999999999991
  endloop
endfacet
facet normal 1.0 0.0 0.0
  outer loop
    vertex -78.07829862453761 730.4377563996273 7.999999999999999
    vertex -78.07829862453761 748.4377563996272 1.9999999999999991
    vertex -78.07829862453761 748.4377563996272 7.999999999999999
  endloop
endfacet
facet normal 0.0 1.0 0.0
  outer loop
    vertex -78.07829862453761 730.4377563996273 7.999999999999999
    vertex -60.07829862453761 730.4377563996273 1.9999999999999991
    vertex -78.07829862453761 730.4377563996273 1.9999999999999991
  endloop
endfacet
facet normal 0.0 1.0 0.0
  outer loop
    vertex -60.07829862453761 730.4377563996273 1.9999999999999991
    vertex -78.07829862453761 730.4377563996273 7.999999999999999
    vertex -60.07829862453761 730.4377563996273 7.999999999999999
  endloop
endfacet
facet normal -1.0 0.0 0.0
  outer loop
    vertex -60.07829862453761 748.4377563996272 7.999999999999999
    vertex -60.07829862453761 730.4377563996273 1.9999999999999991
    vertex -60.07829862453761 730.4377563996273 7.999999999999999
  endloop
endfacet
facet normal -1.0 0.0 0.0
  outer loop
    vertex -60.07829862453761 730.4377563996273 1.9999999999999991
    vertex -60.07829862453761 748.4377563996272 7.999999999999999
    vertex -60.07829862453761 748.4377563996272 1.9999999999999991
  endloop
endfacet
facet normal -0.0 -1.0 -0.0
  outer loop
    vertex -60.07829862453761 748.4377563996272 7.999999999999999
    vertex -78.07829862453761 748.4377563996272 1.9999999999999991
    vertex -60.07829862453761 748.4377563996272 1.9999999999999991
  endloop
endfacet
facet normal -0.0 -1.0 -0.0
  outer loop
    vertex -78.07829862453761 748.4377563996272 1.9999999999999991
    vertex -60.07829862453761 748.4377563996272 7.999999999999999
    vertex -78.07829862453761 748.4377563996272 7.999999999999999
  endloop
endfacet
facet normal 0.382683432365119 0.9238795325112747 0.0
  outer loop
    vertex -73.07829862453761 732.5095531693518 1.9999999999999991
    vertex -71.14885098535778 731.7103497893147 -7.049916206369744e-16
    vertex -73.07829862453761 732.5095531693518 -7.049916206369744e-16
  endloop
endfacet
facet normal 0.382683432365119 0.9238795325112747 0.0
  outer loop
    vertex -71.14885098535778 731.7103497893147 -7.049916206369744e-16
    vertex -73.07829862453761 732.5095531693518 1.9999999999999991
    vertex -71.14885098535778 731.7103497893147 1.9999999999999991
  endloop
endfacet
facet normal 0.7933533402912386 0.6087614290087161 0.0
  outer loop
    vertex -76.00650185481312 735.4377563996272 -7.049916206369744e-16
    vertex -74.73515287402999 733.7809021501349 1.9999999999999991
    vertex -74.73515287402999 733.7809021501349 -7.049916206369744e-16
  endloop
endfacet
facet normal 0.7933533402912386 0.6087614290087161 0.0
  outer loop
    vertex -74.73515287402999 733.7809021501349 1.9999999999999991
    vertex -76.00650185481312 735.4377563996272 -7.049916206369744e-16
    vertex -76.00650185481312 735.4377563996272 1.9999999999999991
  endloop
endfacet
facet normal -0.13052619222003023 0.9914448613738134 0.0
  outer loop
    vertex -69.07829862453762 731.4377563996272 1.9999999999999991
    vertex -67.00774626371745 731.7103497893147 -7.049916206369744e-16
    vertex -69.07829862453762 731.4377563996272 -7.049916206369744e-16
  endloop
endfacet
facet normal -0.13052619222003023 0.9914448613738134 0.0
  outer loop
    vertex -67.00774626371745 731.7103497893147 -7.049916206369744e-16
    vertex -69.07829862453762 731.4377563996272 1.9999999999999991
    vertex -67.00774626371745 731.7103497893147 1.9999999999999991
  endloop
endfacet
facet normal -0.382683432365119 0.9238795325112747 0.0
  outer loop
    vertex -67.00774626371745 731.7103497893147 1.9999999999999991
    vertex -65.07829862453761 732.5095531693518 -7.049916206369744e-16
    vertex -67.00774626371745 731.7103497893147 -7.049916206369744e-16
  endloop
endfacet
facet normal -0.382683432365119 0.9238795325112747 0.0
  outer loop
    vertex -65.07829862453761 732.5095531693518 -7.049916206369744e-16
    vertex -67.00774626371745 731.7103497893147 1.9999999999999991
    vertex -65.07829862453761 732.5095531693518 1.9999999999999991
  endloop
endfacet
facet normal -0.7933533402912386 0.6087614290087161 0.0
  outer loop
    vertex -62.1500953942621 735.4377563996272 1.9999999999999991
    vertex -63.42144437504523 733.7809021501349 -7.049916206369744e-16
    vertex -63.42144437504523 733.7809021501349 1.9999999999999991
  endloop
endfacet
facet normal -0.7933533402912386 0.6087614290087161 0.0
  outer loop
    vertex -63.42144437504523 733.7809021501349 -7.049916206369744e-16
    vertex -62.1500953942621 735.4377563996272 1.9999999999999991
    vertex -62.1500953942621 735.4377563996272 -7.049916206369744e-16
  endloop
endfacet
facet normal -0.9238795325112865 0.38268343236509056 0.0
  outer loop
    vertex -61.350892014225074 737.3672040388071 1.9999999999999991
    vertex -62.1500953942621 735.4377563996272 -7.049916206369744e-16
    vertex -62.1500953942621 735.4377563996272 1.9999999999999991
  endloop
endfacet
facet normal -0.9238795325112865 0.38268343236509056 0.0
  outer loop
    vertex -62.1500953942621 735.4377563996272 -7.049916206369744e-16
    vertex -61.350892014225074 737.3672040388071 1.9999999999999991
    vertex -61.350892014225074 737.3672040388071 -7.049916206369744e-16
  endloop
endfacet
facet normal -0.9914448613738106 0.13052619222005077 0.0
  outer loop
    vertex -61.078298624537624 739.4377563996272 1.9999999999999991
    vertex -61.350892014225074 737.3672040388071 -7.049916206369744e-16
    vertex -61.350892014225074 737.3672040388071 1.9999999999999991
  endloop
endfacet
facet normal -0.9914448613738106 0.13052619222005077 0.0
  outer loop
    vertex -61.350892014225074 737.3672040388071 -7.049916206369744e-16
    vertex -61.078298624537624 739.4377563996272 1.9999999999999991
    vertex -61.078298624537624 739.4377563996272 -7.049916206369744e-16
  endloop
endfacet
facet normal -0.7933533402912386 -0.6087614290087161 -0.0
  outer loop
    vertex -63.42144437504525 745.0946106491197 1.9999999999999991
    vertex -62.15009539426212 743.4377563996272 -7.049916206369744e-16
    vertex -62.15009539426212 743.4377563996272 1.9999999999999991
  endloop
endfacet
facet normal -0.7933533402912386 -0.6087614290087161 -0.0
  outer loop
    vertex -62.15009539426212 743.4377563996272 -7.049916206369744e-16
    vertex -63.42144437504525 745.0946106491197 1.9999999999999991
    vertex -63.42144437504525 745.0946106491197 -7.049916206369744e-16
  endloop
endfacet
facet normal 0.13052619222003092 0.9914448613738132 0.0
  outer loop
    vertex -71.14885098535778 731.7103497893147 1.9999999999999991
    vertex -69.07829862453762 731.4377563996272 -7.049916206369744e-16
    vertex -71.14885098535778 731.7103497893147 -7.049916206369744e-16
  endloop
endfacet
facet normal 0.13052619222003092 0.9914448613738132 0.0
  outer loop
    vertex -69.07829862453762 731.4377563996272 -7.049916206369744e-16
    vertex -71.14885098535778 731.7103497893147 1.9999999999999991
    vertex -69.07829862453762 731.4377563996272 1.9999999999999991
  endloop
endfacet
facet normal -0.9914448613738106 -0.13052619222005077 -0.0
  outer loop
    vertex -61.350892014225074 741.5083087604474 1.9999999999999991
    vertex -61.078298624537624 739.4377563996272 -7.049916206369744e-16
    vertex -61.078298624537624 739.4377563996272 1.9999999999999991
  endloop
endfacet
facet normal -0.9914448613738106 -0.13052619222005077 -0.0
  outer loop
    vertex -61.078298624537624 739.4377563996272 -7.049916206369744e-16
    vertex -61.350892014225074 741.5083087604474 1.9999999999999991
    vertex -61.350892014225074 741.5083087604474 -7.049916206369744e-16
  endloop
endfacet
facet normal 0.6087614290087043 0.7933533402912477 0.0
  outer loop
    vertex -74.73515287402999 733.7809021501349 1.9999999999999991
    vertex -73.07829862453761 732.5095531693518 -7.049916206369744e-16
    vertex -74.73515287402999 733.7809021501349 -7.049916206369744e-16
  endloop
endfacet
facet normal 0.6087614290087043 0.7933533402912477 0.0
  outer loop
    vertex -73.07829862453761 732.5095531693518 -7.049916206369744e-16
    vertex -74.73515287402999 733.7809021501349 1.9999999999999991
    vertex -73.07829862453761 732.5095531693518 1.9999999999999991
  endloop
endfacet
facet normal 0.6087614290087043 -0.7933533402912477 0.0
  outer loop
    vertex -73.07829862453762 746.3659596299027 1.9999999999999991
    vertex -74.73515287403 745.0946106491197 -7.049916206369744e-16
    vertex -73.07829862453762 746.3659596299027 -7.049916206369744e-16
  endloop
endfacet
facet normal 0.6087614290087043 -0.7933533402912477 0.0
  outer loop
    vertex -74.73515287403 745.0946106491197 -7.049916206369744e-16
    vertex -73.07829862453762 746.3659596299027 1.9999999999999991
    vertex -74.73515287403 745.0946106491197 1.9999999999999991
  endloop
endfacet
facet normal -0.9238795325112845 -0.3826834323650951 -0.0
  outer loop
    vertex -62.15009539426212 743.4377563996272 1.9999999999999991
    vertex -61.350892014225074 741.5083087604474 -7.049916206369744e-16
    vertex -61.350892014225074 741.5083087604474 1.9999999999999991
  endloop
endfacet
facet normal -0.9238795325112845 -0.3826834323650951 -0.0
  outer loop
    vertex -61.350892014225074 741.5083087604474 -7.049916206369744e-16
    vertex -62.15009539426212 743.4377563996272 1.9999999999999991
    vertex -62.15009539426212 743.4377563996272 -7.049916206369744e-16
  endloop
endfacet
facet normal -0.6087614290087043 0.7933533402912477 0.0
  outer loop
    vertex -65.07829862453761 732.5095531693518 1.9999999999999991
    vertex -63.42144437504523 733.7809021501349 -7.049916206369744e-16
    vertex -65.07829862453761 732.5095531693518 -7.049916206369744e-16
  endloop
endfacet
facet normal -0.6087614290087043 0.7933533402912477 0.0
  outer loop
    vertex -63.42144437504523 733.7809021501349 -7.049916206369744e-16
    vertex -65.07829862453761 732.5095531693518 1.9999999999999991
    vertex -63.42144437504523 733.7809021501349 1.9999999999999991
  endloop
endfacet
facet normal 0.13052619222003023 -0.9914448613738134 0.0
  outer loop
    vertex -69.07829862453762 747.4377563996272 1.9999999999999991
    vertex -71.14885098535778 747.1651630099399 -7.049916206369744e-16
    vertex -69.07829862453762 747.4377563996272 -7.049916206369744e-16
  endloop
endfacet
facet normal 0.13052619222003023 -0.9914448613738134 0.0
  outer loop
    vertex -71.14885098535778 747.1651630099399 -7.049916206369744e-16
    vertex -69.07829862453762 747.4377563996272 1.9999999999999991
    vertex -71.14885098535778 747.1651630099399 1.9999999999999991
  endloop
endfacet
facet normal 0.7933533402912413 -0.6087614290087128 0.0
  outer loop
    vertex -74.73515287403 745.0946106491197 -7.049916206369744e-16
    vertex -76.00650185481312 743.4377563996272 1.9999999999999991
    vertex -76.00650185481312 743.4377563996272 -7.049916206369744e-16
  endloop
endfacet
facet normal 0.7933533402912413 -0.6087614290087128 0.0
  outer loop
    vertex -76.00650185481312 743.4377563996272 1.9999999999999991
    vertex -74.73515287403 745.0946106491197 -7.049916206369744e-16
    vertex -74.73515287403 745.0946106491197 1.9999999999999991
  endloop
endfacet
facet normal 0.9238795325112845 0.3826834323650951 0.0
  outer loop
    vertex -76.80570523485017 737.3672040388071 -7.049916206369744e-16
    vertex -76.00650185481312 735.4377563996272 1.9999999999999991
    vertex -76.00650185481312 735.4377563996272 -7.049916206369744e-16
  endloop
endfacet
facet normal 0.9238795325112845 0.3826834323650951 0.0
  outer loop
    vertex -76.00650185481312 735.4377563996272 1.9999999999999991
    vertex -76.80570523485017 737.3672040388071 -7.049916206369744e-16
    vertex -76.80570523485017 737.3672040388071 1.9999999999999991
  endloop
endfacet
facet normal 0.382683432365119 -0.9238795325112747 0.0
  outer loop
    vertex -71.14885098535778 747.1651630099399 1.9999999999999991
    vertex -73.07829862453762 746.3659596299027 -7.049916206369744e-16
    vertex -71.14885098535778 747.1651630099399 -7.049916206369744e-16
  endloop
endfacet
facet normal 0.382683432365119 -0.9238795325112747 0.0
  outer loop
    vertex -73.07829862453762 746.3659596299027 -7.049916206369744e-16
    vertex -71.14885098535778 747.1651630099399 1.9999999999999991
    vertex -73.07829862453762 746.3659596299027 1.9999999999999991
  endloop
endfacet
facet normal 0.9238795325112845 -0.3826834323650951 0.0
  outer loop
    vertex -76.00650185481312 743.4377563996272 -7.049916206369744e-16
    vertex -76.80570523485017 741.5083087604474 1.9999999999999991
    vertex -76.80570523485017 741.5083087604474 -7.049916206369744e-16
  endloop
endfacet
facet normal 0.9238795325112845 -0.3826834323650951 0.0
  outer loop
    vertex -76.80570523485017 741.5083087604474 1.9999999999999991
    vertex -76.00650185481312 743.4377563996272 -7.049916206369744e-16
    vertex -76.00650185481312 743.4377563996272 1.9999999999999991
  endloop
endfacet
facet normal -0.6087614290087043 -0.7933533402912477 -0.0
  outer loop
    vertex -63.42144437504525 745.0946106491197 1.9999999999999991
    vertex -65.07829862453762 746.3659596299027 -7.049916206369744e-16
    vertex -63.42144437504525 745.0946106491197 -7.049916206369744e-16
  endloop
endfacet
facet normal -0.6087614290087043 -0.7933533402912477 -0.0
  outer loop
    vertex -65.07829862453762 746.3659596299027 -7.049916206369744e-16
    vertex -63.42144437504525 745.0946106491197 1.9999999999999991
    vertex -65.07829862453762 746.3659596299027 1.9999999999999991
  endloop
endfacet
facet normal 0.9914448613738106 0.13052619222005077 0.0
  outer loop
    vertex -77.07829862453761 739.4377563996272 -7.049916206369744e-16
    vertex -76.80570523485017 737.3672040388071 1.9999999999999991
    vertex -76.80570523485017 737.3672040388071 -7.049916206369744e-16
  endloop
endfacet
facet normal 0.9914448613738106 0.13052619222005077 0.0
  outer loop
    vertex -76.80570523485017 737.3672040388071 1.9999999999999991
    vertex -77.07829862453761 739.4377563996272 -7.049916206369744e-16
    vertex -77.07829862453761 739.4377563996272 1.9999999999999991
  endloop
endfacet
facet normal -0.382683432365119 -0.9238795325112747 -0.0
  outer loop
    vertex -65.07829862453762 746.3659596299027 1.9999999999999991
    vertex -67.00774626371745 747.1651630099399 -7.049916206369744e-16
    vertex -65.07829862453762 746.3659596299027 -7.049916206369744e-16
  endloop
endfacet
facet normal -0.382683432365119 -0.9238795325112747 -0.0
  outer loop
    vertex -67.00774626371745 747.1651630099399 -7.049916206369744e-16
    vertex -65.07829862453762 746.3659596299027 1.9999999999999991
    vertex -67.00774626371745 747.1651630099399 1.9999999999999991
  endloop
endfacet
facet normal -0.13052619222003092 -0.9914448613738132 -0.0
  outer loop
    vertex -67.00774626371745 747.1651630099399 1.9999999999999991
    vertex -69.07829862453762 747.4377563996272 -7.049916206369744e-16
    vertex -67.00774626371745 747.1651630099399 -7.049916206369744e-16
  endloop
endfacet
facet normal -0.13052619222003092 -0.9914448613738132 -0.0
  outer loop
    vertex -69.07829862453762 747.4377563996272 -7.049916206369744e-16
    vertex -67.00774626371745 747.1651630099399 1.9999999999999991
    vertex -69.07829862453762 747.4377563996272 1.9999999999999991
  endloop
endfacet
facet normal 0.9914448613738106 -0.13052619222005077 0.0
  outer loop
    vertex -76.80570523485017 741.5083087604474 -7.049916206369744e-16
    vertex -77.07829862453761 739.4377563996272 1.9999999999999991
    vertex -77.07829862453761 739.4377563996272 -7.049916206369744e-16
  endloop
endfacet
facet normal 0.9914448613738106 -0.13052619222005077 0.0
  outer loop
    vertex -77.07829862453761 739.4377563996272 1.9999999999999991
    vertex -76.80570523485017 741.5083087604474 -7.049916206369744e-16
    vertex -76.80570523485017 741.5083087604474 1.9999999999999991
  endloop
endfacet
endsolid Design - Rolled
