solid Design
facet normal 0.0 0.0 -1.0
  outer loop
    vertex -135.65972025789543 256.333069780793 5.639932965095795e-15
    vertex -133.15972025789543 248.58306978079298 0.0
    vertex -135.65972025789543 236.33306978079298 5.639932965095795e-15
  endloop
endfacet
facet normal 0.0 0.0 -1.0
  outer loop
    vertex -133.15972025789543 248.58306978079298 0.0
    vertex -135.65972025789543 256.333069780793 5.639932965095795e-15
    vertex -125.65972025789542 256.333069780793 5.639932965095795e-15
  endloop
endfacet
facet normal 0.0 0.0 -1.0
  outer loop
    vertex -133.15972025789543 248.58306978079298 0.0
    vertex -125.65972025789542 256.333069780793 5.639932965095795e-15
    vertex -128.15972025789543 248.58306978079298 0.0
  endloop
endfacet
facet normal 0.0 0.0 -1.0
  outer loop
    vertex -128.15972025789543 248.58306978079298 0.0
    vertex -125.65972025789542 256.333069780793 5.639932965095795e-15
    vertex -128.15972025789543 244.08306978079293 0.0
  endloop
endfacet
facet normal 0.0 0.0 -1.0
  outer loop
    vertex -135.65972025789543 236.33306978079298 5.639932965095795e-15
    vertex -133.15972025789543 244.08306978079293 0.0
    vertex -125.65972025789542 236.33306978079298 5.639932965095795e-15
  endloop
endfacet
facet normal 0.0 0.0 -1.0
  outer loop
    vertex -133.15972025789543 244.08306978079293 0.0
    vertex -135.65972025789543 236.33306978079298 5.639932965095795e-15
    vertex -133.15972025789543 248.58306978079298 0.0
  endloop
endfacet
facet normal 0.0 0.0 -1.0
  outer loop
    vertex -125.65972025789542 236.33306978079298 5.639932965095795e-15
    vertex -133.15972025789543 244.08306978079293 0.0
    vertex -128.15972025789543 244.08306978079293 0.0
  endloop
endfacet
facet normal 0.0 0.0 -1.0
  outer loop
    vertex -125.65972025789542 236.33306978079298 5.639932965095795e-15
    vertex -128.15972025789543 244.08306978079293 0.0
    vertex -125.65972025789542 256.333069780793 5.639932965095795e-15
  endloop
endfacet
facet normal 0.0 1.0 0.0
  outer loop
    vertex -133.15972025789543 244.08306978079293 2.0000000000000053
    vertex -128.15972025789543 244.08306978079293 0.0
    vertex -133.15972025789543 244.08306978079293 0.0
  endloop
endfacet
facet normal 0.0 1.0 0.0
  outer loop
    vertex -128.15972025789543 244.08306978079293 0.0
    vertex -133.15972025789543 244.08306978079293 2.0000000000000053
    vertex -128.15972025789543 244.08306978079293 2.0000000000000053
  endloop
endfacet
facet normal 0.0 -1.0 0.0
  outer loop
    vertex -128.15972025789543 248.58306978079298 2.0000000000000053
    vertex -133.15972025789543 248.58306978079298 0.0
    vertex -128.15972025789543 248.58306978079298 0.0
  endloop
endfacet
facet normal 0.0 -1.0 0.0
  outer loop
    vertex -133.15972025789543 248.58306978079298 0.0
    vertex -128.15972025789543 248.58306978079298 2.0000000000000053
    vertex -133.15972025789543 248.58306978079298 2.0000000000000053
  endloop
endfacet
facet normal 1.0 0.0 0.0
  outer loop
    vertex -133.15972025789543 248.58306978079298 0.0
    vertex -133.15972025789543 244.08306978079293 2.0000000000000053
    vertex -133.15972025789543 244.08306978079293 0.0
  endloop
endfacet
facet normal 1.0 0.0 0.0
  outer loop
    vertex -133.15972025789543 244.08306978079293 2.0000000000000053
    vertex -133.15972025789543 248.58306978079298 0.0
    vertex -133.15972025789543 245.5830697807929 2.0000000000000053
  endloop
endfacet
facet normal 1.0 0.0 0.0
  outer loop
    vertex -133.15972025789543 245.5830697807929 2.0000000000000053
    vertex -133.15972025789543 248.58306978079298 0.0
    vertex -133.15972025789543 247.08306978079293 2.0000000000000053
  endloop
endfacet
facet normal 1.0 0.0 0.0
  outer loop
    vertex -133.15972025789543 245.5830697807929 2.0000000000000053
    vertex -133.15972025789543 247.08306978079293 2.0000000000000053
    vertex -133.15972025789543 245.5830697807929 4.000000000000005
  endloop
endfacet
facet normal 1.0 0.0 0.0
  outer loop
    vertex -133.15972025789543 247.08306978079293 2.0000000000000053
    vertex -133.15972025789543 248.58306978079298 0.0
    vertex -133.15972025789543 248.58306978079298 2.0000000000000053
  endloop
endfacet
facet normal 1.0 0.0 0.0
  outer loop
    vertex -133.15972025789543 247.08306978079293 4.000000000000005
    vertex -133.15972025789543 245.5830697807929 4.000000000000005
    vertex -133.15972025789543 247.08306978079293 2.0000000000000053
  endloop
endfacet
facet normal 0.0 0.0 -1.0
  outer loop
    vertex -128.15972025789543 248.58306978079298 2.0000000000000053
    vertex -133.15972025789543 247.08306978079293 2.0000000000000053
    vertex -133.15972025789543 248.58306978079298 2.0000000000000053
  endloop
endfacet
facet normal 0.0 0.0 -1.0
  outer loop
    vertex -133.15972025789543 247.08306978079293 2.0000000000000053
    vertex -128.15972025789543 248.58306978079298 2.0000000000000053
    vertex -131.4097202578954 247.08306978079293 2.0000000000000053
  endloop
endfacet
facet normal 0.0 0.0 -1.0
  outer loop
    vertex -131.4097202578954 247.08306978079293 2.0000000000000053
    vertex -128.15972025789543 248.58306978079298 2.0000000000000053
    vertex -129.9097202578954 247.08306978079307 2.0000000000000053
  endloop
endfacet
facet normal 0.0 0.0 -1.0
  outer loop
    vertex -131.4097202578954 247.08306978079293 2.0000000000000053
    vertex -129.9097202578954 247.08306978079307 2.0000000000000053
    vertex -131.4097202578954 245.5830697807929 2.0000000000000053
  endloop
endfacet
facet normal 0.0 0.0 -1.0
  outer loop
    vertex -129.9097202578954 247.08306978079307 2.0000000000000053
    vertex -128.15972025789543 248.58306978079298 2.0000000000000053
    vertex -128.1597202578954 247.08306978079307 2.0000000000000053
  endloop
endfacet
facet normal 0.0 0.0 -1.0
  outer loop
    vertex -131.4097202578954 245.5830697807929 2.0000000000000053
    vertex -133.15972025789543 244.08306978079293 2.0000000000000053
    vertex -133.15972025789543 245.5830697807929 2.0000000000000053
  endloop
endfacet
facet normal 0.0 0.0 -1.0
  outer loop
    vertex -133.15972025789543 244.08306978079293 2.0000000000000053
    vertex -131.4097202578954 245.5830697807929 2.0000000000000053
    vertex -128.15972025789543 244.08306978079293 2.0000000000000053
  endloop
endfacet
facet normal 0.0 0.0 -1.0
  outer loop
    vertex -128.15972025789543 244.08306978079293 2.0000000000000053
    vertex -131.4097202578954 245.5830697807929 2.0000000000000053
    vertex -129.9097202578954 245.58306978079304 2.0000000000000053
  endloop
endfacet
facet normal 0.0 0.0 -1.0
  outer loop
    vertex -129.9097202578954 245.58306978079304 2.0000000000000053
    vertex -131.4097202578954 245.5830697807929 2.0000000000000053
    vertex -129.9097202578954 247.08306978079307 2.0000000000000053
  endloop
endfacet
facet normal 0.0 0.0 -1.0
  outer loop
    vertex -128.15972025789543 244.08306978079293 2.0000000000000053
    vertex -129.9097202578954 245.58306978079304 2.0000000000000053
    vertex -128.1597202578954 245.58306978079304 2.0000000000000053
  endloop
endfacet
facet normal 0.0 0.0 1.0
  outer loop
    vertex -135.65972025789543 236.33306978079298 4.000000000000005
    vertex -133.15972025789543 245.5830697807929 4.000000000000005
    vertex -135.65972025789543 256.333069780793 4.000000000000005
  endloop
endfacet
facet normal 0.0 0.0 1.0
  outer loop
    vertex -133.15972025789543 245.5830697807929 4.000000000000005
    vertex -135.65972025789543 236.33306978079298 4.000000000000005
    vertex -125.65972025789542 236.33306978079298 4.000000000000005
  endloop
endfacet
facet normal 0.0 0.0 1.0
  outer loop
    vertex -133.15972025789543 245.5830697807929 4.000000000000005
    vertex -125.65972025789542 236.33306978079298 4.000000000000005
    vertex -131.4097202578954 245.5830697807929 4.000000000000005
  endloop
endfacet
facet normal 0.0 0.0 1.0
  outer loop
    vertex -131.4097202578954 245.5830697807929 4.000000000000005
    vertex -125.65972025789542 236.33306978079298 4.000000000000005
    vertex -131.4097202578954 247.08306978079293 4.000000000000005
  endloop
endfacet
facet normal 0.0 0.0 1.0
  outer loop
    vertex -131.4097202578954 247.08306978079293 4.000000000000005
    vertex -125.65972025789542 236.33306978079298 4.000000000000005
    vertex -129.9097202578954 245.58306978079304 4.000000000000005
  endloop
endfacet
facet normal 0.0 0.0 1.0
  outer loop
    vertex -129.9097202578954 245.58306978079304 4.000000000000005
    vertex -125.65972025789542 236.33306978079298 4.000000000000005
    vertex -128.1597202578954 245.58306978079304 4.000000000000005
  endloop
endfacet
facet normal 0.0 0.0 1.0
  outer loop
    vertex -128.1597202578954 245.58306978079304 4.000000000000005
    vertex -125.65972025789542 236.33306978079298 4.000000000000005
    vertex -128.1597202578954 247.08306978079307 4.000000000000005
  endloop
endfacet
facet normal 0.0 0.0 1.0
  outer loop
    vertex -135.65972025789543 256.333069780793 4.000000000000005
    vertex -133.15972025789543 247.08306978079293 4.000000000000005
    vertex -125.65972025789542 256.333069780793 4.000000000000005
  endloop
endfacet
facet normal 0.0 0.0 1.0
  outer loop
    vertex -133.15972025789543 247.08306978079293 4.000000000000005
    vertex -135.65972025789543 256.333069780793 4.000000000000005
    vertex -133.15972025789543 245.5830697807929 4.000000000000005
  endloop
endfacet
facet normal 0.0 0.0 1.0
  outer loop
    vertex -125.65972025789542 256.333069780793 4.000000000000005
    vertex -133.15972025789543 247.08306978079293 4.000000000000005
    vertex -131.4097202578954 247.08306978079293 4.000000000000005
  endloop
endfacet
facet normal 0.0 0.0 1.0
  outer loop
    vertex -125.65972025789542 256.333069780793 4.000000000000005
    vertex -131.4097202578954 247.08306978079293 4.000000000000005
    vertex -129.9097202578954 247.08306978079307 4.000000000000005
  endloop
endfacet
facet normal 0.0 0.0 1.0
  outer loop
    vertex -129.9097202578954 247.08306978079307 4.000000000000005
    vertex -131.4097202578954 247.08306978079293 4.000000000000005
    vertex -129.9097202578954 245.58306978079304 4.000000000000005
  endloop
endfacet
facet normal 0.0 0.0 1.0
  outer loop
    vertex -125.65972025789542 256.333069780793 4.000000000000005
    vertex -129.9097202578954 247.08306978079307 4.000000000000005
    vertex -128.1597202578954 247.08306978079307 4.000000000000005
  endloop
endfacet
facet normal 0.0 0.0 1.0
  outer loop
    vertex -125.65972025789542 256.333069780793 4.000000000000005
    vertex -128.1597202578954 247.08306978079307 4.000000000000005
    vertex -125.65972025789542 236.33306978079298 4.000000000000005
  endloop
endfacet
facet normal 0.0 1.0 0.0
  outer loop
    vertex -135.65972025789543 256.333069780793 4.000000000000005
    vertex -125.65972025789542 256.333069780793 5.639932965095795e-15
    vertex -135.65972025789543 256.333069780793 5.639932965095795e-15
  endloop
endfacet
facet normal 0.0 1.0 0.0
  outer loop
    vertex -125.65972025789542 256.333069780793 5.639932965095795e-15
    vertex -135.65972025789543 256.333069780793 4.000000000000005
    vertex -125.65972025789542 256.333069780793 4.000000000000005
  endloop
endfacet
facet normal 0.0 1.0 0.0
  outer loop
    vertex -133.15972025789543 245.5830697807929 4.000000000000005
    vertex -131.4097202578954 245.5830697807929 2.0000000000000053
    vertex -133.15972025789543 245.5830697807929 2.0000000000000053
  endloop
endfacet
facet normal 0.0 1.0 0.0
  outer loop
    vertex -131.4097202578954 245.5830697807929 2.0000000000000053
    vertex -133.15972025789543 245.5830697807929 4.000000000000005
    vertex -131.4097202578954 245.5830697807929 4.000000000000005
  endloop
endfacet
facet normal 0.0 -1.0 0.0
  outer loop
    vertex -128.1597202578954 247.08306978079307 4.000000000000005
    vertex -129.9097202578954 247.08306978079307 2.0000000000000053
    vertex -128.1597202578954 247.08306978079307 2.0000000000000053
  endloop
endfacet
facet normal 0.0 -1.0 0.0
  outer loop
    vertex -129.9097202578954 247.08306978079307 2.0000000000000053
    vertex -128.1597202578954 247.08306978079307 4.000000000000005
    vertex -129.9097202578954 247.08306978079307 4.000000000000005
  endloop
endfacet
facet normal 0.0 -1.0 0.0
  outer loop
    vertex -125.65972025789542 236.33306978079298 4.000000000000005
    vertex -135.65972025789543 236.33306978079298 5.639932965095795e-15
    vertex -125.65972025789542 236.33306978079298 5.639932965095795e-15
  endloop
endfacet
facet normal 0.0 -1.0 0.0
  outer loop
    vertex -135.65972025789543 236.33306978079298 5.639932965095795e-15
    vertex -125.65972025789542 236.33306978079298 4.000000000000005
    vertex -135.65972025789543 236.33306978079298 4.000000000000005
  endloop
endfacet
facet normal -1.0 9.041387746146148e-29 5.639932965095787e-15
  outer loop
    vertex -128.1597202578954 247.08306978079307 4.000000000000005
    vertex -128.1597202578954 245.58306978079304 2.0000000000000053
    vertex -128.1597202578954 245.58306978079304 4.000000000000005
  endloop
endfacet
facet normal -1.0 9.041387746146148e-29 5.639932965095787e-15
  outer loop
    vertex -128.1597202578954 245.58306978079304 2.0000000000000053
    vertex -128.15972025789543 244.08306978079293 0.0
    vertex -128.15972025789543 244.08306978079293 2.0000000000000053
  endloop
endfacet
facet normal -1.0 9.041387746146148e-29 5.639932965095787e-15
  outer loop
    vertex -128.15972025789543 244.08306978079293 0.0
    vertex -128.1597202578954 245.58306978079304 2.0000000000000053
    vertex -128.15972025789543 248.58306978079298 0.0
  endloop
endfacet
facet normal -1.0 9.041387746146148e-29 5.639932965095787e-15
  outer loop
    vertex -128.15972025789543 248.58306978079298 0.0
    vertex -128.1597202578954 245.58306978079304 2.0000000000000053
    vertex -128.1597202578954 247.08306978079307 2.0000000000000053
  endloop
endfacet
facet normal -1.0 9.041387746146148e-29 5.639932965095787e-15
  outer loop
    vertex -128.1597202578954 247.08306978079307 2.0000000000000053
    vertex -128.1597202578954 245.58306978079304 2.0000000000000053
    vertex -128.1597202578954 247.08306978079307 4.000000000000005
  endloop
endfacet
facet normal -1.0 9.041387746146148e-29 5.639932965095787e-15
  outer loop
    vertex -128.15972025789543 248.58306978079298 0.0
    vertex -128.1597202578954 247.08306978079307 2.0000000000000053
    vertex -128.15972025789543 248.58306978079298 2.0000000000000053
  endloop
endfacet
facet normal -1.0 -0.0 -0.0
  outer loop
    vertex -131.4097202578954 247.08306978079293 4.000000000000005
    vertex -131.4097202578954 245.5830697807929 2.0000000000000053
    vertex -131.4097202578954 245.5830697807929 4.000000000000005
  endloop
endfacet
facet normal -1.0 -0.0 -0.0
  outer loop
    vertex -131.4097202578954 245.5830697807929 2.0000000000000053
    vertex -131.4097202578954 247.08306978079293 4.000000000000005
    vertex -131.4097202578954 247.08306978079293 2.0000000000000053
  endloop
endfacet
facet normal 0.0 -1.0 0.0
  outer loop
    vertex -131.4097202578954 247.08306978079293 4.000000000000005
    vertex -133.15972025789543 247.08306978079293 2.0000000000000053
    vertex -131.4097202578954 247.08306978079293 2.0000000000000053
  endloop
endfacet
facet normal 0.0 -1.0 0.0
  outer loop
    vertex -133.15972025789543 247.08306978079293 2.0000000000000053
    vertex -131.4097202578954 247.08306978079293 4.000000000000005
    vertex -133.15972025789543 247.08306978079293 4.000000000000005
  endloop
endfacet
facet normal 1.0 0.0 0.0
  outer loop
    vertex -125.65972025789542 256.333069780793 5.639932965095795e-15
    vertex -125.65972025789542 236.33306978079298 4.000000000000005
    vertex -125.65972025789542 236.33306978079298 5.639932965095795e-15
  endloop
endfacet
facet normal 1.0 0.0 0.0
  outer loop
    vertex -125.65972025789542 236.33306978079298 4.000000000000005
    vertex -125.65972025789542 256.333069780793 5.639932965095795e-15
    vertex -125.65972025789542 256.333069780793 4.000000000000005
  endloop
endfacet
facet normal 0.0 1.0 0.0
  outer loop
    vertex -129.9097202578954 245.58306978079304 4.000000000000005
    vertex -128.1597202578954 245.58306978079304 2.0000000000000053
    vertex -129.9097202578954 245.58306978079304 2.0000000000000053
  endloop
endfacet
facet normal 0.0 1.0 0.0
  outer loop
    vertex -128.1597202578954 245.58306978079304 2.0000000000000053
    vertex -129.9097202578954 245.58306978079304 4.000000000000005
    vertex -128.1597202578954 245.58306978079304 4.000000000000005
  endloop
endfacet
facet normal 1.0 0.0 0.0
  outer loop
    vertex -129.9097202578954 247.08306978079307 2.0000000000000053
    vertex -129.9097202578954 245.58306978079304 4.000000000000005
    vertex -129.9097202578954 245.58306978079304 2.0000000000000053
  endloop
endfacet
facet normal 1.0 0.0 0.0
  outer loop
    vertex -129.9097202578954 245.58306978079304 4.000000000000005
    vertex -129.9097202578954 247.08306978079307 2.0000000000000053
    vertex -129.9097202578954 247.08306978079307 4.000000000000005
  endloop
endfacet
facet normal -1.0 0.0 0.0
  outer loop
    vertex -135.65972025789543 256.333069780793 4.000000000000005
    vertex -135.65972025789543 236.33306978079298 5.639932965095795e-15
    vertex -135.65972025789543 236.33306978079298 4.000000000000005
  endloop
endfacet
facet normal -1.0 0.0 0.0
  outer loop
    vertex -135.65972025789543 236.33306978079298 5.639932965095795e-15
    vertex -135.65972025789543 256.333069780793 4.000000000000005
    vertex -135.65972025789543 256.333069780793 5.639932965095795e-15
  endloop
endfacet
endsolid Design
