solid Design - Rolled
facet normal 5.051059327289344e-15 5.458826949429891e-16 -1.0
  outer loop
    vertex 26.310210474635735 -72.1595062040045 170.00000019986805
    vertex 19.627087771130174 -64.07450620400448 170.00000019986828
    vertex 26.310210474635735 -52.15950620400451 170.00000019986805
  endloop
endfacet
facet normal 5.051059327289344e-15 5.458826949429891e-16 -1.0
  outer loop
    vertex 19.627087771130174 -64.07450620400448 170.00000019986828
    vertex 26.310210474635735 -72.1595062040045 170.00000019986805
    vertex 19.018429446580257 -64.86772517594896 170.0000001998681
  endloop
endfacet
facet normal 5.051059327289344e-15 5.458826949429891e-16 -1.0
  outer loop
    vertex 19.018429446580257 -64.86772517594896 170.0000001998681
    vertex 26.310210474635735 -72.1595062040045 170.00000019986805
    vertex 18.22521047463578 -65.47638350049887 170.0000001998681
  endloop
endfacet
facet normal 5.051059327289344e-15 5.458826949429891e-16 -1.0
  outer loop
    vertex 18.22521047463578 -65.47638350049887 170.0000001998681
    vertex 26.310210474635735 -72.1595062040045 170.00000019986805
    vertex 6.310210474635767 -72.1595062040045 170.00000019986797
  endloop
endfacet
facet normal 5.051059327289344e-15 5.458826949429891e-16 -1.0
  outer loop
    vertex 26.310210474635735 -52.15950620400451 170.00000019986805
    vertex 19.627087771130174 -64.07450620400448 170.00000019986828
    vertex 20.00970638932291 -63.15078314674714 170.00000019986834
  endloop
endfacet
facet normal 5.051059327289344e-15 5.458826949429891e-16 -1.0
  outer loop
    vertex 26.310210474635735 -52.15950620400451 170.00000019986805
    vertex 20.00970638932291 -63.15078314674714 170.00000019986834
    vertex 20.14021047463578 -62.15950620400448 170.00000019986834
  endloop
endfacet
facet normal 5.051059327289344e-15 5.458826949429891e-16 -1.0
  outer loop
    vertex 18.22521047463578 -65.47638350049887 170.0000001998681
    vertex 6.310210474635767 -72.1595062040045 170.00000019986797
    vertex 17.301487417378436 -65.8590021186916 170.0000001998681
  endloop
endfacet
facet normal 5.051059327289344e-15 5.458826949429891e-16 -1.0
  outer loop
    vertex 17.301487417378436 -65.8590021186916 170.0000001998681
    vertex 6.310210474635767 -72.1595062040045 170.00000019986797
    vertex 16.31021047463578 -65.98950620400447 170.00000019986828
  endloop
endfacet
facet normal 5.051059327289344e-15 5.458826949429891e-16 -1.0
  outer loop
    vertex 16.31021047463578 -65.98950620400447 170.00000019986828
    vertex 6.310210474635767 -72.1595062040045 170.00000019986797
    vertex 15.318933531893128 -65.8590021186916 170.0000001998681
  endloop
endfacet
facet normal 5.051059327289344e-15 5.458826949429891e-16 -1.0
  outer loop
    vertex 15.318933531893128 -65.8590021186916 170.0000001998681
    vertex 6.310210474635767 -72.1595062040045 170.00000019986797
    vertex 14.395210474635785 -65.47638350049887 170.0000001998681
  endloop
endfacet
facet normal 5.051059327289344e-15 5.458826949429891e-16 -1.0
  outer loop
    vertex 14.395210474635785 -65.47638350049887 170.0000001998681
    vertex 6.310210474635767 -72.1595062040045 170.00000019986797
    vertex 13.601991502691309 -64.86772517594896 170.0000001998681
  endloop
endfacet
facet normal 5.051059327289344e-15 5.458826949429891e-16 -1.0
  outer loop
    vertex 13.601991502691309 -64.86772517594896 170.0000001998681
    vertex 6.310210474635767 -72.1595062040045 170.00000019986797
    vertex 12.993333178141386 -64.07450620400448 170.0000001998681
  endloop
endfacet
facet normal 5.051059327289344e-15 5.458826949429891e-16 -1.0
  outer loop
    vertex 12.993333178141386 -64.07450620400448 170.0000001998681
    vertex 6.310210474635767 -72.1595062040045 170.00000019986797
    vertex 12.610714559948645 -63.15078314674713 170.0000001998681
  endloop
endfacet
facet normal 5.051059327289344e-15 5.458826949429891e-16 -1.0
  outer loop
    vertex 12.610714559948645 -63.15078314674713 170.0000001998681
    vertex 6.310210474635767 -72.1595062040045 170.00000019986797
    vertex 12.48021047463578 -62.15950620400448 170.0000001998681
  endloop
endfacet
facet normal 5.051059327289344e-15 5.458826949429891e-16 -1.0
  outer loop
    vertex 26.310210474635735 -52.15950620400451 170.00000019986805
    vertex 18.225210474635784 -58.84262890751008 170.00000019986814
    vertex 6.310210474635764 -52.15950620400451 170.00000019986817
  endloop
endfacet
facet normal 5.051059327289344e-15 5.458826949429891e-16 -1.0
  outer loop
    vertex 18.225210474635784 -58.84262890751008 170.00000019986814
    vertex 26.310210474635735 -52.15950620400451 170.00000019986805
    vertex 19.018429446580257 -59.45128723206001 170.00000019986814
  endloop
endfacet
facet normal 5.051059327289344e-15 5.458826949429891e-16 -1.0
  outer loop
    vertex 19.018429446580257 -59.45128723206001 170.00000019986814
    vertex 26.310210474635735 -52.15950620400451 170.00000019986805
    vertex 19.62708777113018 -60.24450620400448 170.00000019986834
  endloop
endfacet
facet normal 5.051059327289344e-15 5.458826949429891e-16 -1.0
  outer loop
    vertex 19.62708777113018 -60.24450620400448 170.00000019986834
    vertex 26.310210474635735 -52.15950620400451 170.00000019986805
    vertex 20.00970638932291 -61.16822926126183 170.00000019986834
  endloop
endfacet
facet normal 5.051059327289344e-15 5.458826949429891e-16 -1.0
  outer loop
    vertex 20.00970638932291 -61.16822926126183 170.00000019986834
    vertex 26.310210474635735 -52.15950620400451 170.00000019986805
    vertex 20.14021047463578 -62.15950620400448 170.00000019986834
  endloop
endfacet
facet normal 5.051059327289344e-15 5.458826949429891e-16 -1.0
  outer loop
    vertex 6.310210474635764 -52.15950620400451 170.00000019986817
    vertex 18.225210474635784 -58.84262890751008 170.00000019986814
    vertex 17.30148741737844 -58.46001028931735 170.00000019986814
  endloop
endfacet
facet normal 5.051059327289344e-15 5.458826949429891e-16 -1.0
  outer loop
    vertex 6.310210474635764 -52.15950620400451 170.00000019986817
    vertex 17.30148741737844 -58.46001028931735 170.00000019986814
    vertex 16.31021047463578 -58.32950620400448 170.00000019986814
  endloop
endfacet
facet normal 5.051059327289344e-15 5.458826949429891e-16 -1.0
  outer loop
    vertex 6.310210474635764 -52.15950620400451 170.00000019986817
    vertex 16.31021047463578 -58.32950620400448 170.00000019986814
    vertex 15.318933531893128 -58.46001028931735 170.00000019986834
  endloop
endfacet
facet normal 5.051059327289344e-15 5.458826949429891e-16 -1.0
  outer loop
    vertex 6.310210474635764 -52.15950620400451 170.00000019986817
    vertex 15.318933531893128 -58.46001028931735 170.00000019986834
    vertex 14.395210474635785 -58.84262890751008 170.0000001998681
  endloop
endfacet
facet normal 5.051059327289344e-15 5.458826949429891e-16 -1.0
  outer loop
    vertex 6.310210474635764 -52.15950620400451 170.00000019986817
    vertex 14.395210474635785 -58.84262890751008 170.0000001998681
    vertex 13.601991502691309 -59.45128723206 170.0000001998681
  endloop
endfacet
facet normal 5.051059327289344e-15 5.458826949429891e-16 -1.0
  outer loop
    vertex 6.310210474635764 -52.15950620400451 170.00000019986817
    vertex 13.601991502691309 -59.45128723206 170.0000001998681
    vertex 12.993333178141386 -60.24450620400448 170.0000001998681
  endloop
endfacet
facet normal 5.051059327289344e-15 5.458826949429891e-16 -1.0
  outer loop
    vertex 6.310210474635764 -52.15950620400451 170.00000019986817
    vertex 12.993333178141386 -60.24450620400448 170.0000001998681
    vertex 12.610714559948647 -61.16822926126183 170.0000001998681
  endloop
endfacet
facet normal 5.051059327289344e-15 5.458826949429891e-16 -1.0
  outer loop
    vertex 6.310210474635764 -52.15950620400451 170.00000019986817
    vertex 12.610714559948647 -61.16822926126183 170.0000001998681
    vertex 12.48021047463578 -62.15950620400448 170.0000001998681
  endloop
endfacet
facet normal 5.051059327289344e-15 5.458826949429891e-16 -1.0
  outer loop
    vertex 6.310210474635764 -52.15950620400451 170.00000019986817
    vertex 12.48021047463578 -62.15950620400448 170.0000001998681
    vertex 6.310210474635767 -72.1595062040045 170.00000019986797
  endloop
endfacet
facet normal -5.291160064306703e-29 -1.0 9.905940370455193e-15
  outer loop
    vertex 26.31021047463572 -72.15950620400446 178.89000019986844
    vertex 6.310210474635767 -72.1595062040045 170.00000019986797
    vertex 26.310210474635735 -72.1595062040045 170.00000019986805
  endloop
endfacet
facet normal -5.291160064306703e-29 -1.0 9.905940370455193e-15
  outer loop
    vertex 6.310210474635767 -72.1595062040045 170.00000019986797
    vertex 26.31021047463572 -72.15950620400446 178.89000019986844
    vertex 6.310210474635725 -72.15950620400446 178.89000019986833
  endloop
endfacet
facet normal 1.0 -4.2299497238217804e-16 -1.1077282429094811e-14
  outer loop
    vertex 26.31021047463572 -72.15950620400446 178.89000019986844
    vertex 26.310210474635735 -52.15950620400451 170.00000019986805
    vertex 26.310210474635745 -52.15950620400445 178.89000019986844
  endloop
endfacet
facet normal 1.0 -4.2299497238217804e-16 -1.1077282429094811e-14
  outer loop
    vertex 26.310210474635735 -52.15950620400451 170.00000019986805
    vertex 26.31021047463572 -72.15950620400446 178.89000019986844
    vertex 26.310210474635735 -72.1595062040045 170.00000019986805
  endloop
endfacet
facet normal 1.4099832412740223e-15 1.0 -2.0263943979446204e-14
  outer loop
    vertex 6.310210474635764 -52.15950620400451 170.00000019986817
    vertex 26.310210474635745 -52.15950620400445 178.89000019986844
    vertex 26.310210474635735 -52.15950620400451 170.00000019986805
  endloop
endfacet
facet normal 1.4099832412740223e-15 1.0 -2.0263943979446204e-14
  outer loop
    vertex 26.310210474635745 -52.15950620400445 178.89000019986844
    vertex 6.310210474635764 -52.15950620400451 170.00000019986817
    vertex 6.310210474635716 -52.159506204004394 178.89000019986852
  endloop
endfacet
facet normal -1.0 -2.114974861910527e-16 -3.941822803942185e-15
  outer loop
    vertex 6.310210474635764 -52.15950620400451 170.00000019986817
    vertex 6.310210474635725 -72.15950620400446 178.89000019986833
    vertex 6.310210474635716 -52.159506204004394 178.89000019986852
  endloop
endfacet
facet normal -1.0 -2.114974861910527e-16 -3.941822803942185e-15
  outer loop
    vertex 6.310210474635725 -72.15950620400446 178.89000019986833
    vertex 6.310210474635764 -52.15950620400451 170.00000019986817
    vertex 6.310210474635767 -72.1595062040045 170.00000019986797
  endloop
endfacet
facet normal 0.7933533402912366 -0.6087614290087188 6.986155234486202e-15
  outer loop
    vertex 12.993333178141333 -60.24450620400446 178.89000019986833
    vertex 13.601991502691309 -59.45128723206 170.0000001998681
    vertex 13.601991502691256 -59.451287232059975 178.89000019986833
  endloop
endfacet
facet normal 0.7933533402912366 -0.6087614290087188 6.986155234486202e-15
  outer loop
    vertex 13.601991502691309 -59.45128723206 170.0000001998681
    vertex 12.993333178141333 -60.24450620400446 178.89000019986833
    vertex 12.993333178141386 -60.24450620400448 170.0000001998681
  endloop
endfacet
facet normal 0.6087614290087303 -0.7933533402912277 1.246835643159756e-14
  outer loop
    vertex 14.39521047463573 -58.842628907510004 178.89000019986833
    vertex 13.601991502691309 -59.45128723206 170.0000001998681
    vertex 14.395210474635785 -58.84262890751008 170.0000001998681
  endloop
endfacet
facet normal 0.6087614290087303 -0.7933533402912277 1.246835643159756e-14
  outer loop
    vertex 13.601991502691309 -59.45128723206 170.0000001998681
    vertex 14.39521047463573 -58.842628907510004 178.89000019986833
    vertex 13.601991502691256 -59.451287232059975 178.89000019986833
  endloop
endfacet
facet normal 0.38268343236509306 -0.9238795325112854 -4.024924780741914e-15
  outer loop
    vertex 15.318933531893128 -58.46001028931735 170.00000019986834
    vertex 14.39521047463573 -58.842628907510004 178.89000019986833
    vertex 14.395210474635785 -58.84262890751008 170.0000001998681
  endloop
endfacet
facet normal 0.38268343236509306 -0.9238795325112854 -4.024924780741914e-15
  outer loop
    vertex 14.39521047463573 -58.842628907510004 178.89000019986833
    vertex 15.318933531893128 -58.46001028931735 170.00000019986834
    vertex 15.318933531893075 -58.460010289317275 178.89000019986852
  endloop
endfacet
facet normal 0.13052619222005057 -0.9914448613738106 -6.713145256429204e-15
  outer loop
    vertex 16.310210474635728 -58.32950620400446 178.89000019986835
    vertex 15.318933531893128 -58.46001028931735 170.00000019986834
    vertex 16.31021047463578 -58.32950620400448 170.00000019986814
  endloop
endfacet
facet normal 0.13052619222005057 -0.9914448613738106 -6.713145256429204e-15
  outer loop
    vertex 15.318933531893128 -58.46001028931735 170.00000019986834
    vertex 16.310210474635728 -58.32950620400446 178.89000019986835
    vertex 15.318933531893075 -58.460010289317275 178.89000019986852
  endloop
endfacet
facet normal -0.13052619222005019 -0.9914448613738106 -8.943875976887859e-15
  outer loop
    vertex 17.301487417378386 -58.46001028931732 178.89000019986835
    vertex 16.31021047463578 -58.32950620400448 170.00000019986814
    vertex 17.30148741737844 -58.46001028931735 170.00000019986814
  endloop
endfacet
facet normal -0.13052619222005019 -0.9914448613738106 -8.943875976887859e-15
  outer loop
    vertex 16.31021047463578 -58.32950620400448 170.00000019986814
    vertex 17.301487417378386 -58.46001028931732 178.89000019986835
    vertex 16.310210474635728 -58.32950620400446 178.89000019986835
  endloop
endfacet
facet normal -0.13052619222005019 -0.9914448613738106 -8.943875976887859e-15
  outer loop
    vertex 16.310210474635728 -58.32950620400446 178.89000019986835
    vertex 17.301487417378386 -58.46001028931732 178.89000019986835
    vertex 16.642738037287693 -58.37328428814423 178.89000019986835
  endloop
endfacet
facet normal -0.38268343236509306 -0.9238795325112854 -1.0565096329975552e-14
  outer loop
    vertex 18.22521047463573 -58.84262890751006 178.89000019986835
    vertex 17.30148741737844 -58.46001028931735 170.00000019986814
    vertex 18.225210474635784 -58.84262890751008 170.00000019986814
  endloop
endfacet
facet normal -0.38268343236509306 -0.9238795325112854 -1.0565096329975552e-14
  outer loop
    vertex 17.30148741737844 -58.46001028931735 170.00000019986814
    vertex 18.22521047463573 -58.84262890751006 178.89000019986835
    vertex 17.301487417378386 -58.46001028931732 178.89000019986835
  endloop
endfacet
facet normal -0.6087614290087316 -0.7933533402912267 -6.612753289801954e-15
  outer loop
    vertex 19.018429446580203 -59.45128723206001 178.89000019986838
    vertex 18.225210474635784 -58.84262890751008 170.00000019986814
    vertex 19.018429446580257 -59.45128723206001 170.00000019986814
  endloop
endfacet
facet normal -0.6087614290087316 -0.7933533402912267 -6.612753289801954e-15
  outer loop
    vertex 18.225210474635784 -58.84262890751008 170.00000019986814
    vertex 19.018429446580203 -59.45128723206001 178.89000019986838
    vertex 18.22521047463573 -58.84262890751006 178.89000019986835
  endloop
endfacet
facet normal -0.7933533402912311 -0.6087614290087259 -1.0062507695575587e-14
  outer loop
    vertex 19.62708777113018 -60.24450620400448 170.00000019986834
    vertex 19.018429446580203 -59.45128723206001 178.89000019986838
    vertex 19.018429446580257 -59.45128723206001 170.00000019986814
  endloop
endfacet
facet normal -0.7933533402912311 -0.6087614290087259 -1.0062507695575587e-14
  outer loop
    vertex 19.018429446580203 -59.45128723206001 178.89000019986838
    vertex 19.62708777113018 -60.24450620400448 170.00000019986834
    vertex 19.627087771130128 -60.24450620400448 178.89000019986852
  endloop
endfacet
facet normal -0.9238795325112883 -0.38268343236508623 -1.0916377736887674e-14
  outer loop
    vertex 20.00970638932291 -61.16822926126183 170.00000019986834
    vertex 19.627087771130128 -60.24450620400448 178.89000019986852
    vertex 19.62708777113018 -60.24450620400448 170.00000019986834
  endloop
endfacet
facet normal -0.9238795325112883 -0.38268343236508623 -1.0916377736887674e-14
  outer loop
    vertex 19.627087771130128 -60.24450620400448 178.89000019986852
    vertex 20.00970638932291 -61.16822926126183 170.00000019986834
    vertex 20.009706389322858 -61.16822926126179 178.89000019986852
  endloop
endfacet
facet normal -0.9914448613738106 -0.1305261922200513 -9.5026839972257e-15
  outer loop
    vertex 20.00970638932291 -61.16822926126183 170.00000019986834
    vertex 20.140210474635722 -62.15950620400446 178.89000019986852
    vertex 20.009706389322858 -61.16822926126179 178.89000019986852
  endloop
endfacet
facet normal -0.9914448613738106 -0.1305261922200513 -9.5026839972257e-15
  outer loop
    vertex 20.140210474635722 -62.15950620400446 178.89000019986852
    vertex 20.00970638932291 -61.16822926126183 170.00000019986834
    vertex 20.14021047463578 -62.15950620400448 170.00000019986834
  endloop
endfacet
facet normal -0.9914448613738107 0.13052619222004982 -7.441398047080644e-15
  outer loop
    vertex 20.14021047463578 -62.15950620400448 170.00000019986834
    vertex 20.009706389322858 -63.150783146747116 178.89000019986852
    vertex 20.140210474635722 -62.15950620400446 178.89000019986852
  endloop
endfacet
facet normal -0.9914448613738107 0.13052619222004982 -7.441398047080644e-15
  outer loop
    vertex 20.009706389322858 -63.150783146747116 178.89000019986852
    vertex 20.14021047463578 -62.15950620400448 170.00000019986834
    vertex 20.00970638932291 -63.15078314674714 170.00000019986834
  endloop
endfacet
facet normal -0.9238795325112847 0.3826834323650951 -4.872993117518636e-15
  outer loop
    vertex 20.00970638932291 -63.15078314674714 170.00000019986834
    vertex 19.62708777113012 -64.07450620400445 178.89000019986835
    vertex 20.009706389322858 -63.150783146747116 178.89000019986852
  endloop
endfacet
facet normal -0.9238795325112847 0.3826834323650951 -4.872993117518636e-15
  outer loop
    vertex 19.62708777113012 -64.07450620400445 178.89000019986835
    vertex 20.00970638932291 -63.15078314674714 170.00000019986834
    vertex 19.627087771130174 -64.07450620400448 170.00000019986828
  endloop
endfacet
facet normal -0.793353340291238 0.608761429008717 -6.9927531295118956e-15
  outer loop
    vertex 19.627087771130174 -64.07450620400448 170.00000019986828
    vertex 19.018429446580203 -64.86772517594893 178.89000019986833
    vertex 19.62708777113012 -64.07450620400445 178.89000019986835
  endloop
endfacet
facet normal -0.793353340291238 0.608761429008717 -6.9927531295118956e-15
  outer loop
    vertex 19.018429446580203 -64.86772517594893 178.89000019986833
    vertex 19.627087771130174 -64.07450620400448 170.00000019986828
    vertex 19.018429446580257 -64.86772517594896 170.0000001998681
  endloop
endfacet
facet normal -0.6087614290087162 0.7933533402912386 -5.894759063763907e-15
  outer loop
    vertex 18.225210474635727 -65.47638350049886 178.89000019986833
    vertex 19.018429446580257 -64.86772517594896 170.0000001998681
    vertex 18.22521047463578 -65.47638350049887 170.0000001998681
  endloop
endfacet
facet normal -0.6087614290087162 0.7933533402912386 -5.894759063763907e-15
  outer loop
    vertex 19.018429446580257 -64.86772517594896 170.0000001998681
    vertex 18.225210474635727 -65.47638350049886 178.89000019986833
    vertex 19.018429446580203 -64.86772517594893 178.89000019986833
  endloop
endfacet
facet normal -0.38268343236509206 0.9238795325112859 4.024924780741914e-15
  outer loop
    vertex 17.301487417378382 -65.85900211869158 178.8900001998683
    vertex 18.22521047463578 -65.47638350049887 170.0000001998681
    vertex 17.301487417378436 -65.8590021186916 170.0000001998681
  endloop
endfacet
facet normal -0.38268343236509206 0.9238795325112859 4.024924780741914e-15
  outer loop
    vertex 18.22521047463578 -65.47638350049887 170.0000001998681
    vertex 17.301487417378382 -65.85900211869158 178.8900001998683
    vertex 18.225210474635727 -65.47638350049886 178.89000019986833
  endloop
endfacet
facet normal -0.13052619222005094 0.9914448613738106 6.7131452564292e-15
  outer loop
    vertex 16.31021047463578 -65.98950620400447 170.00000019986828
    vertex 17.301487417378382 -65.85900211869158 178.8900001998683
    vertex 17.301487417378436 -65.8590021186916 170.0000001998681
  endloop
endfacet
facet normal -0.13052619222005094 0.9914448613738106 6.7131452564292e-15
  outer loop
    vertex 17.301487417378382 -65.85900211869158 178.8900001998683
    vertex 16.31021047463578 -65.98950620400447 170.00000019986828
    vertex 16.310210474635728 -65.98950620400446 178.89000019986847
  endloop
endfacet
facet normal 0.13052619222005057 0.9914448613738106 8.943875976887864e-15
  outer loop
    vertex 15.318933531893075 -65.85900211869158 178.8900001998683
    vertex 16.31021047463578 -65.98950620400447 170.00000019986828
    vertex 15.318933531893128 -65.8590021186916 170.0000001998681
  endloop
endfacet
facet normal 0.13052619222005057 0.9914448613738106 8.943875976887864e-15
  outer loop
    vertex 16.31021047463578 -65.98950620400447 170.00000019986828
    vertex 15.318933531893075 -65.85900211869158 178.8900001998683
    vertex 16.310210474635728 -65.98950620400446 178.89000019986847
  endloop
endfacet
facet normal 0.38268343236509306 0.9238795325112854 1.0565096329975552e-14
  outer loop
    vertex 14.39521047463573 -65.47638350049886 178.8900001998683
    vertex 15.318933531893128 -65.8590021186916 170.0000001998681
    vertex 14.395210474635785 -65.47638350049887 170.0000001998681
  endloop
endfacet
facet normal 0.38268343236509306 0.9238795325112854 1.0565096329975552e-14
  outer loop
    vertex 15.318933531893128 -65.8590021186916 170.0000001998681
    vertex 14.39521047463573 -65.47638350049886 178.8900001998683
    vertex 15.318933531893075 -65.85900211869158 178.8900001998683
  endloop
endfacet
facet normal 0.6087614290087162 0.7933533402912386 3.3250281196178212e-15
  outer loop
    vertex 13.601991502691256 -64.86772517594893 178.8900001998683
    vertex 14.395210474635785 -65.47638350049887 170.0000001998681
    vertex 13.601991502691309 -64.86772517594896 170.0000001998681
  endloop
endfacet
facet normal 0.6087614290087162 0.7933533402912386 3.3250281196178212e-15
  outer loop
    vertex 14.395210474635785 -65.47638350049887 170.0000001998681
    vertex 13.601991502691256 -64.86772517594893 178.8900001998683
    vertex 14.39521047463573 -65.47638350049886 178.8900001998683
  endloop
endfacet
facet normal 0.7933533402912366 0.6087614290087188 5.014331329198299e-15
  outer loop
    vertex 13.601991502691256 -64.86772517594893 178.8900001998683
    vertex 12.993333178141386 -64.07450620400448 170.0000001998681
    vertex 12.993333178141333 -64.07450620400445 178.8900001998683
  endloop
endfacet
facet normal 0.7933533402912366 0.6087614290087188 5.014331329198299e-15
  outer loop
    vertex 12.993333178141386 -64.07450620400448 170.0000001998681
    vertex 13.601991502691256 -64.86772517594893 178.8900001998683
    vertex 13.601991502691309 -64.86772517594896 170.0000001998681
  endloop
endfacet
facet normal 0.9238795325112874 0.38268343236508867 1.0916377736887664e-14
  outer loop
    vertex 12.993333178141333 -64.07450620400445 178.8900001998683
    vertex 12.610714559948645 -63.15078314674713 170.0000001998681
    vertex 12.61071455994859 -63.15078314674705 178.8900001998683
  endloop
endfacet
facet normal 0.9238795325112874 0.38268343236508867 1.0916377736887664e-14
  outer loop
    vertex 12.610714559948645 -63.15078314674713 170.0000001998681
    vertex 12.993333178141333 -64.07450620400445 178.8900001998683
    vertex 12.993333178141386 -64.07450620400448 170.0000001998681
  endloop
endfacet
facet normal 0.9914448613738106 0.1305261922200513 9.5026839972257e-15
  outer loop
    vertex 12.61071455994859 -63.15078314674705 178.8900001998683
    vertex 12.48021047463578 -62.15950620400448 170.0000001998681
    vertex 12.480210474635722 -62.1595062040044 178.8900001998683
  endloop
endfacet
facet normal 0.9914448613738106 0.1305261922200513 9.5026839972257e-15
  outer loop
    vertex 12.48021047463578 -62.15950620400448 170.0000001998681
    vertex 12.61071455994859 -63.15078314674705 178.8900001998683
    vertex 12.610714559948645 -63.15078314674713 170.0000001998681
  endloop
endfacet
facet normal 0.9914448613738104 -0.13052619222005268 7.441398047080615e-15
  outer loop
    vertex 12.480210474635722 -62.1595062040044 178.8900001998683
    vertex 12.610714559948647 -61.16822926126183 170.0000001998681
    vertex 12.61071455994859 -61.16822926126175 178.8900001998683
  endloop
endfacet
facet normal 0.9914448613738104 -0.13052619222005268 7.441398047080615e-15
  outer loop
    vertex 12.610714559948647 -61.16822926126183 170.0000001998681
    vertex 12.480210474635722 -62.1595062040044 178.8900001998683
    vertex 12.48021047463578 -62.15950620400448 170.0000001998681
  endloop
endfacet
facet normal 0.9238795325112878 -0.3826834323650875 4.872993117518747e-15
  outer loop
    vertex 12.61071455994859 -61.16822926126175 178.8900001998683
    vertex 12.993333178141386 -60.24450620400448 170.0000001998681
    vertex 12.993333178141333 -60.24450620400446 178.89000019986833
  endloop
endfacet
facet normal 0.9238795325112878 -0.3826834323650875 4.872993117518747e-15
  outer loop
    vertex 12.993333178141386 -60.24450620400448 170.0000001998681
    vertex 12.61071455994859 -61.16822926126175 178.8900001998683
    vertex 12.610714559948647 -61.16822926126183 170.0000001998681
  endloop
endfacet
facet normal -5.4287293745480145e-15 -1.3875455384990423e-15 1.0
  outer loop
    vertex 26.310210474635745 -52.15950620400445 178.89000019986844
    vertex 19.627087771130128 -60.24450620400448 178.89000019986852
    vertex 26.31021047463572 -72.15950620400446 178.89000019986844
  endloop
endfacet
facet normal -5.4287293745480145e-15 -1.3875455384990423e-15 1.0
  outer loop
    vertex 19.627087771130128 -60.24450620400448 178.89000019986852
    vertex 26.310210474635745 -52.15950620400445 178.89000019986844
    vertex 19.018429446580203 -59.45128723206001 178.89000019986838
  endloop
endfacet
facet normal -5.4287293745480145e-15 -1.3875455384990423e-15 1.0
  outer loop
    vertex 19.018429446580203 -59.45128723206001 178.89000019986838
    vertex 26.310210474635745 -52.15950620400445 178.89000019986844
    vertex 18.22521047463573 -58.84262890751006 178.89000019986835
  endloop
endfacet
facet normal -5.4287293745480145e-15 -1.3875455384990423e-15 1.0
  outer loop
    vertex 18.22521047463573 -58.84262890751006 178.89000019986835
    vertex 26.310210474635745 -52.15950620400445 178.89000019986844
    vertex 6.310210474635716 -52.159506204004394 178.89000019986852
  endloop
endfacet
facet normal -5.4287293745480145e-15 -1.3875455384990423e-15 1.0
  outer loop
    vertex 26.31021047463572 -72.15950620400446 178.89000019986844
    vertex 19.627087771130128 -60.24450620400448 178.89000019986852
    vertex 20.009706389322858 -61.16822926126179 178.89000019986852
  endloop
endfacet
facet normal -5.4287293745480145e-15 -1.3875455384990423e-15 1.0
  outer loop
    vertex 26.31021047463572 -72.15950620400446 178.89000019986844
    vertex 20.009706389322858 -61.16822926126179 178.89000019986852
    vertex 20.140210474635722 -62.15950620400446 178.89000019986852
  endloop
endfacet
facet normal -5.4287293745480145e-15 -1.3875455384990423e-15 1.0
  outer loop
    vertex 18.22521047463573 -58.84262890751006 178.89000019986835
    vertex 6.310210474635716 -52.159506204004394 178.89000019986852
    vertex 17.301487417378386 -58.46001028931732 178.89000019986835
  endloop
endfacet
facet normal -5.4287293745480145e-15 -1.3875455384990423e-15 1.0
  outer loop
    vertex 17.301487417378386 -58.46001028931732 178.89000019986835
    vertex 6.310210474635716 -52.159506204004394 178.89000019986852
    vertex 16.642738037287693 -58.37328428814423 178.89000019986835
  endloop
endfacet
facet normal -5.4287293745480145e-15 -1.3875455384990423e-15 1.0
  outer loop
    vertex 16.642738037287693 -58.37328428814423 178.89000019986835
    vertex 6.310210474635716 -52.159506204004394 178.89000019986852
    vertex 16.310210474635728 -58.32950620400446 178.89000019986835
  endloop
endfacet
facet normal -5.4287293745480145e-15 -1.3875455384990423e-15 1.0
  outer loop
    vertex 16.310210474635728 -58.32950620400446 178.89000019986835
    vertex 6.310210474635716 -52.159506204004394 178.89000019986852
    vertex 15.318933531893075 -58.460010289317275 178.89000019986852
  endloop
endfacet
facet normal -5.4287293745480145e-15 -1.3875455384990423e-15 1.0
  outer loop
    vertex 15.318933531893075 -58.460010289317275 178.89000019986852
    vertex 6.310210474635716 -52.159506204004394 178.89000019986852
    vertex 14.39521047463573 -58.842628907510004 178.89000019986833
  endloop
endfacet
facet normal -5.4287293745480145e-15 -1.3875455384990423e-15 1.0
  outer loop
    vertex 14.39521047463573 -58.842628907510004 178.89000019986833
    vertex 6.310210474635716 -52.159506204004394 178.89000019986852
    vertex 13.601991502691256 -59.451287232059975 178.89000019986833
  endloop
endfacet
facet normal -5.4287293745480145e-15 -1.3875455384990423e-15 1.0
  outer loop
    vertex 13.601991502691256 -59.451287232059975 178.89000019986833
    vertex 6.310210474635716 -52.159506204004394 178.89000019986852
    vertex 12.993333178141333 -60.24450620400446 178.89000019986833
  endloop
endfacet
facet normal -5.4287293745480145e-15 -1.3875455384990423e-15 1.0
  outer loop
    vertex 12.993333178141333 -60.24450620400446 178.89000019986833
    vertex 6.310210474635716 -52.159506204004394 178.89000019986852
    vertex 12.61071455994859 -61.16822926126175 178.8900001998683
  endloop
endfacet
facet normal -5.4287293745480145e-15 -1.3875455384990423e-15 1.0
  outer loop
    vertex 12.61071455994859 -61.16822926126175 178.8900001998683
    vertex 6.310210474635716 -52.159506204004394 178.89000019986852
    vertex 12.480210474635722 -62.1595062040044 178.8900001998683
  endloop
endfacet
facet normal -5.4287293745480145e-15 -1.3875455384990423e-15 1.0
  outer loop
    vertex 12.480210474635722 -62.1595062040044 178.8900001998683
    vertex 6.310210474635716 -52.159506204004394 178.89000019986852
    vertex 6.310210474635725 -72.15950620400446 178.89000019986833
  endloop
endfacet
facet normal -5.4287293745480145e-15 -1.3875455384990423e-15 1.0
  outer loop
    vertex 26.31021047463572 -72.15950620400446 178.89000019986844
    vertex 18.225210474635727 -65.47638350049886 178.89000019986833
    vertex 6.310210474635725 -72.15950620400446 178.89000019986833
  endloop
endfacet
facet normal -5.4287293745480145e-15 -1.3875455384990423e-15 1.0
  outer loop
    vertex 18.225210474635727 -65.47638350049886 178.89000019986833
    vertex 26.31021047463572 -72.15950620400446 178.89000019986844
    vertex 19.018429446580203 -64.86772517594893 178.89000019986833
  endloop
endfacet
facet normal -5.4287293745480145e-15 -1.3875455384990423e-15 1.0
  outer loop
    vertex 19.018429446580203 -64.86772517594893 178.89000019986833
    vertex 26.31021047463572 -72.15950620400446 178.89000019986844
    vertex 19.62708777113012 -64.07450620400445 178.89000019986835
  endloop
endfacet
facet normal -5.4287293745480145e-15 -1.3875455384990423e-15 1.0
  outer loop
    vertex 19.62708777113012 -64.07450620400445 178.89000019986835
    vertex 26.31021047463572 -72.15950620400446 178.89000019986844
    vertex 20.009706389322858 -63.150783146747116 178.89000019986852
  endloop
endfacet
facet normal -5.4287293745480145e-15 -1.3875455384990423e-15 1.0
  outer loop
    vertex 20.009706389322858 -63.150783146747116 178.89000019986852
    vertex 26.31021047463572 -72.15950620400446 178.89000019986844
    vertex 20.140210474635722 -62.15950620400446 178.89000019986852
  endloop
endfacet
facet normal -5.4287293745480145e-15 -1.3875455384990423e-15 1.0
  outer loop
    vertex 6.310210474635725 -72.15950620400446 178.89000019986833
    vertex 18.225210474635727 -65.47638350049886 178.89000019986833
    vertex 17.301487417378382 -65.85900211869158 178.8900001998683
  endloop
endfacet
facet normal -5.4287293745480145e-15 -1.3875455384990423e-15 1.0
  outer loop
    vertex 6.310210474635725 -72.15950620400446 178.89000019986833
    vertex 17.301487417378382 -65.85900211869158 178.8900001998683
    vertex 16.310210474635728 -65.98950620400446 178.89000019986847
  endloop
endfacet
facet normal -5.4287293745480145e-15 -1.3875455384990423e-15 1.0
  outer loop
    vertex 6.310210474635725 -72.15950620400446 178.89000019986833
    vertex 16.310210474635728 -65.98950620400446 178.89000019986847
    vertex 15.318933531893075 -65.85900211869158 178.8900001998683
  endloop
endfacet
facet normal -5.4287293745480145e-15 -1.3875455384990423e-15 1.0
  outer loop
    vertex 6.310210474635725 -72.15950620400446 178.89000019986833
    vertex 15.318933531893075 -65.85900211869158 178.8900001998683
    vertex 14.39521047463573 -65.47638350049886 178.8900001998683
  endloop
endfacet
facet normal -5.4287293745480145e-15 -1.3875455384990423e-15 1.0
  outer loop
    vertex 6.310210474635725 -72.15950620400446 178.89000019986833
    vertex 14.39521047463573 -65.47638350049886 178.8900001998683
    vertex 13.601991502691256 -64.86772517594893 178.8900001998683
  endloop
endfacet
facet normal -5.4287293745480145e-15 -1.3875455384990423e-15 1.0
  outer loop
    vertex 6.310210474635725 -72.15950620400446 178.89000019986833
    vertex 13.601991502691256 -64.86772517594893 178.8900001998683
    vertex 12.993333178141333 -64.07450620400445 178.8900001998683
  endloop
endfacet
facet normal -5.4287293745480145e-15 -1.3875455384990423e-15 1.0
  outer loop
    vertex 6.310210474635725 -72.15950620400446 178.89000019986833
    vertex 12.993333178141333 -64.07450620400445 178.8900001998683
    vertex 12.61071455994859 -63.15078314674705 178.8900001998683
  endloop
endfacet
facet normal -5.4287293745480145e-15 -1.3875455384990423e-15 1.0
  outer loop
    vertex 6.310210474635725 -72.15950620400446 178.89000019986833
    vertex 12.61071455994859 -63.15078314674705 178.8900001998683
    vertex 12.480210474635722 -62.1595062040044 178.8900001998683
  endloop
endfacet
endsolid Design - Rolled
