solid Design - Rolled
facet normal 0.0 0.0 1.0
  outer loop
    vertex 104.71980241741836 -213.06348350190015 13.189000000000009
    vertex 106.91549941741837 -208.1775445019002 13.189000000000009
    vertex 104.71980241741836 -201.32648350190016 13.189000000000009
  endloop
endfacet
facet normal 0.0 0.0 1.0
  outer loop
    vertex 106.91549941741837 -208.1775445019002 13.189000000000009
    vertex 104.71980241741836 -213.06348350190015 13.189000000000009
    vertex 107.29022541741836 -209.08221450190015 13.189000000000009
  endloop
endfacet
facet normal 0.0 0.0 1.0
  outer loop
    vertex 107.29022541741836 -209.08221450190015 13.189000000000009
    vertex 104.71980241741836 -213.06348350190015 13.189000000000009
    vertex 107.88632941741837 -209.85907150190016 13.189000000000009
  endloop
endfacet
facet normal 0.0 0.0 1.0
  outer loop
    vertex 107.88632941741837 -209.85907150190016 13.189000000000009
    vertex 104.71980241741836 -213.06348350190015 13.189000000000009
    vertex 108.66318641741837 -210.4551755019002 13.189000000000009
  endloop
endfacet
facet normal 0.0 0.0 1.0
  outer loop
    vertex 108.66318641741837 -210.4551755019002 13.189000000000009
    vertex 104.71980241741836 -213.06348350190015 13.189000000000009
    vertex 109.56785641741835 -210.82990150190014 13.189000000000009
  endloop
endfacet
facet normal 0.0 0.0 1.0
  outer loop
    vertex 109.56785641741835 -210.82990150190014 13.189000000000009
    vertex 104.71980241741836 -213.06348350190015 13.189000000000009
    vertex 116.81980241741837 -213.06348350190015 13.189000000000009
  endloop
endfacet
facet normal 0.0 0.0 1.0
  outer loop
    vertex 104.71980241741836 -201.32648350190016 13.189000000000009
    vertex 106.91549941741837 -208.1775445019002 13.189000000000009
    vertex 106.78768641741837 -207.20671428190016 13.189000000000009
  endloop
endfacet
facet normal 0.0 0.0 1.0
  outer loop
    vertex 109.56785641741835 -210.82990150190014 13.189000000000009
    vertex 116.81980241741837 -213.06348350190015 13.189000000000009
    vertex 110.53868691741837 -210.95771450190017 13.189000000000009
  endloop
endfacet
facet normal 0.0 0.0 1.0
  outer loop
    vertex 110.53868691741837 -210.95771450190017 13.189000000000009
    vertex 116.81980241741837 -213.06348350190015 13.189000000000009
    vertex 111.50951711741837 -210.82990150190014 13.189000000000009
  endloop
endfacet
facet normal 0.0 0.0 1.0
  outer loop
    vertex 111.50951711741837 -210.82990150190014 13.189000000000009
    vertex 116.81980241741837 -213.06348350190015 13.189000000000009
    vertex 112.41418741741838 -210.4551755019002 13.189000000000009
  endloop
endfacet
facet normal 0.0 0.0 1.0
  outer loop
    vertex 112.41418741741838 -210.4551755019002 13.189000000000009
    vertex 116.81980241741837 -213.06348350190015 13.189000000000009
    vertex 113.19104441741835 -209.85907150190016 13.189000000000009
  endloop
endfacet
facet normal 0.0 0.0 1.0
  outer loop
    vertex 113.19104441741835 -209.85907150190016 13.189000000000009
    vertex 116.81980241741837 -213.06348350190015 13.189000000000009
    vertex 113.78714841741836 -209.08221450190015 13.189000000000009
  endloop
endfacet
facet normal 0.0 0.0 1.0
  outer loop
    vertex 113.78714841741836 -209.08221450190015 13.189000000000009
    vertex 116.81980241741837 -213.06348350190015 13.189000000000009
    vertex 114.16187441741837 -208.1775445019002 13.189000000000009
  endloop
endfacet
facet normal 0.0 0.0 1.0
  outer loop
    vertex 114.16187441741837 -208.1775445019002 13.189000000000009
    vertex 116.81980241741837 -213.06348350190015 13.189000000000009
    vertex 114.28968741741835 -207.20671428190016 13.189000000000009
  endloop
endfacet
facet normal 0.0 0.0 1.0
  outer loop
    vertex 104.71980241741836 -201.32648350190016 13.189000000000009
    vertex 109.56785641741835 -203.58352650190017 13.189000000000009
    vertex 116.81980241741837 -201.32648350190016 13.189000000000009
  endloop
endfacet
facet normal 0.0 0.0 1.0
  outer loop
    vertex 109.56785641741835 -203.58352650190017 13.189000000000009
    vertex 104.71980241741836 -201.32648350190016 13.189000000000009
    vertex 108.66318641741837 -203.95825250190015 13.189000000000009
  endloop
endfacet
facet normal 0.0 0.0 1.0
  outer loop
    vertex 108.66318641741837 -203.95825250190015 13.189000000000009
    vertex 104.71980241741836 -201.32648350190016 13.189000000000009
    vertex 107.88632941741837 -204.5543565019002 13.189000000000009
  endloop
endfacet
facet normal 0.0 0.0 1.0
  outer loop
    vertex 107.88632941741837 -204.5543565019002 13.189000000000009
    vertex 104.71980241741836 -201.32648350190016 13.189000000000009
    vertex 107.29022541741836 -205.3312145019002 13.189000000000009
  endloop
endfacet
facet normal 0.0 0.0 1.0
  outer loop
    vertex 107.29022541741836 -205.3312145019002 13.189000000000009
    vertex 104.71980241741836 -201.32648350190016 13.189000000000009
    vertex 106.91549941741837 -206.23588400190016 13.189000000000009
  endloop
endfacet
facet normal 0.0 0.0 1.0
  outer loop
    vertex 106.91549941741837 -206.23588400190016 13.189000000000009
    vertex 104.71980241741836 -201.32648350190016 13.189000000000009
    vertex 106.78768641741837 -207.20671428190016 13.189000000000009
  endloop
endfacet
facet normal 0.0 0.0 1.0
  outer loop
    vertex 116.81980241741837 -201.32648350190016 13.189000000000009
    vertex 109.56785641741835 -203.58352650190017 13.189000000000009
    vertex 110.53868691741837 -203.4557145019002 13.189000000000009
  endloop
endfacet
facet normal 0.0 0.0 1.0
  outer loop
    vertex 116.81980241741837 -201.32648350190016 13.189000000000009
    vertex 110.53868691741837 -203.4557145019002 13.189000000000009
    vertex 111.50951711741837 -203.58352650190017 13.189000000000009
  endloop
endfacet
facet normal 0.0 0.0 1.0
  outer loop
    vertex 116.81980241741837 -201.32648350190016 13.189000000000009
    vertex 111.50951711741837 -203.58352650190017 13.189000000000009
    vertex 112.41418741741838 -203.95825250190015 13.189000000000009
  endloop
endfacet
facet normal 0.0 0.0 1.0
  outer loop
    vertex 116.81980241741837 -201.32648350190016 13.189000000000009
    vertex 112.41418741741838 -203.95825250190015 13.189000000000009
    vertex 113.19104441741835 -204.5543565019002 13.189000000000009
  endloop
endfacet
facet normal 0.0 0.0 1.0
  outer loop
    vertex 116.81980241741837 -201.32648350190016 13.189000000000009
    vertex 113.19104441741835 -204.5543565019002 13.189000000000009
    vertex 113.78714841741836 -205.3312145019002 13.189000000000009
  endloop
endfacet
facet normal 0.0 0.0 1.0
  outer loop
    vertex 116.81980241741837 -201.32648350190016 13.189000000000009
    vertex 113.78714841741836 -205.3312145019002 13.189000000000009
    vertex 114.16187441741837 -206.23588400190016 13.189000000000009
  endloop
endfacet
facet normal 0.0 0.0 1.0
  outer loop
    vertex 116.81980241741837 -201.32648350190016 13.189000000000009
    vertex 114.16187441741837 -206.23588400190016 13.189000000000009
    vertex 114.28968741741835 -207.20671428190016 13.189000000000009
  endloop
endfacet
facet normal 0.0 0.0 1.0
  outer loop
    vertex 116.81980241741837 -201.32648350190016 13.189000000000009
    vertex 114.28968741741835 -207.20671428190016 13.189000000000009
    vertex 116.81980241741837 -213.06348350190015 13.189000000000009
  endloop
endfacet
facet normal 0.7933533624223478 0.6087614001668922 2.1191908406338717e-31
  outer loop
    vertex 107.81417141741835 -208.77971450190014 2.420000000000011
    vertex 108.31412941741837 -209.4312725019002 11.97900000000001
    vertex 108.31412941741837 -209.4312725019002 2.420000000000011
  endloop
endfacet
facet normal 0.7933533624223478 0.6087614001668922 2.1191908406338717e-31
  outer loop
    vertex 108.31412941741837 -209.4312725019002 11.97900000000001
    vertex 107.81417141741835 -208.77971450190014 2.420000000000011
    vertex 107.81417141741835 -208.77971450190014 11.97900000000001
  endloop
endfacet
facet normal 0.793353015704348 0.6087618520183543 1.8430953065008533e-29
  outer loop
    vertex 107.29022541741836 -209.08221450190015 11.97900000000001
    vertex 107.88632941741837 -209.85907150190016 13.189000000000009
    vertex 107.88632941741837 -209.85907150190016 11.97900000000001
  endloop
endfacet
facet normal 0.793353015704348 0.6087618520183543 1.8430953065008533e-29
  outer loop
    vertex 107.88632941741837 -209.85907150190016 13.189000000000009
    vertex 107.29022541741836 -209.08221450190015 11.97900000000001
    vertex 107.29022541741836 -209.08221450190015 13.189000000000009
  endloop
endfacet
facet normal 0.382683836117208 0.9238793652715801 -1.4144840224259516e-18
  outer loop
    vertex 108.96568741741838 -209.9312305019002 11.97900000000001
    vertex 109.72444241741836 -210.2455175019002 2.420000000000011
    vertex 108.96568741741838 -209.9312305019002 2.420000000000011
  endloop
endfacet
facet normal 0.382683836117208 0.9238793652715801 -1.4144840224259516e-18
  outer loop
    vertex 109.72444241741836 -210.2455175019002 2.420000000000011
    vertex 108.96568741741838 -209.9312305019002 11.97900000000001
    vertex 109.72444241741836 -210.2455175019002 11.97900000000001
  endloop
endfacet
facet normal 0.6087614001669054 0.7933533624223376 -1.7021880609789677e-31
  outer loop
    vertex 108.31412941741837 -209.4312725019002 11.97900000000001
    vertex 108.96568741741838 -209.9312305019002 2.420000000000011
    vertex 108.31412941741837 -209.4312725019002 2.420000000000011
  endloop
endfacet
facet normal 0.6087614001669054 0.7933533624223376 -1.7021880609789677e-31
  outer loop
    vertex 108.96568741741838 -209.9312305019002 2.420000000000011
    vertex 108.31412941741837 -209.4312725019002 11.97900000000001
    vertex 108.96568741741838 -209.9312305019002 11.97900000000001
  endloop
endfacet
facet normal 0.9238794544302493 0.38268362086933516 0.0
  outer loop
    vertex 107.49988441741836 -208.02095900190017 2.420000000000011
    vertex 107.81417141741835 -208.77971450190014 11.97900000000001
    vertex 107.81417141741835 -208.77971450190014 2.420000000000011
  endloop
endfacet
facet normal 0.9238794544302493 0.38268362086933516 0.0
  outer loop
    vertex 107.81417141741835 -208.77971450190014 11.97900000000001
    vertex 107.49988441741836 -208.02095900190017 2.420000000000011
    vertex 107.49988441741836 -208.02095900190017 11.97900000000001
  endloop
endfacet
facet normal -0.9914447587131555 0.1305269720027748 0.0
  outer loop
    vertex 114.28968741741835 -207.20671428190016 13.189000000000009
    vertex 114.16187441741837 -208.1775445019002 11.97900000000001
    vertex 114.16187441741837 -208.1775445019002 13.189000000000009
  endloop
endfacet
facet normal -0.9914447587131555 0.1305269720027748 0.0
  outer loop
    vertex 114.16187441741837 -208.1775445019002 11.97900000000001
    vertex 114.28968741741835 -207.20671428190016 13.189000000000009
    vertex 114.28968741741835 -207.20671428190016 11.97900000000001
  endloop
endfacet
facet normal 0.3826829237654372 -0.9238797431799967 0.0
  outer loop
    vertex 109.56785641741835 -203.58352650190017 13.189000000000009
    vertex 108.66318641741837 -203.95825250190015 11.97900000000001
    vertex 109.56785641741835 -203.58352650190017 11.97900000000001
  endloop
endfacet
facet normal 0.3826829237654372 -0.9238797431799967 0.0
  outer loop
    vertex 108.66318641741837 -203.95825250190015 11.97900000000001
    vertex 109.56785641741835 -203.58352650190017 13.189000000000009
    vertex 108.66318641741837 -203.95825250190015 13.189000000000009
  endloop
endfacet
facet normal -0.60876185201838 0.7933530157043283 0.0
  outer loop
    vertex 112.41418741741838 -210.4551755019002 13.189000000000009
    vertex 113.19104441741835 -209.85907150190016 11.97900000000001
    vertex 112.41418741741838 -210.4551755019002 11.97900000000001
  endloop
endfacet
facet normal -0.60876185201838 0.7933530157043283 0.0
  outer loop
    vertex 113.19104441741835 -209.85907150190016 11.97900000000001
    vertex 112.41418741741838 -210.4551755019002 13.189000000000009
    vertex 113.19104441741835 -209.85907150190016 13.189000000000009
  endloop
endfacet
facet normal 0.382682923765398 0.923879743180013 0.0
  outer loop
    vertex 108.66318641741837 -210.4551755019002 13.189000000000009
    vertex 109.56785641741835 -210.82990150190014 11.97900000000001
    vertex 108.66318641741837 -210.4551755019002 11.97900000000001
  endloop
endfacet
facet normal 0.382682923765398 0.923879743180013 0.0
  outer loop
    vertex 109.56785641741835 -210.82990150190014 11.97900000000001
    vertex 108.66318641741837 -210.4551755019002 13.189000000000009
    vertex 109.56785641741835 -210.82990150190014 13.189000000000009
  endloop
endfacet
facet normal 0.0 1.0 0.0
  outer loop
    vertex 104.71980241741836 -201.32648350190016 13.189000000000009
    vertex 116.81980241741837 -201.32648350190016 1.1279865945205804e-14
    vertex 104.71980241741836 -201.32648350190016 1.1279865945205804e-14
  endloop
endfacet
facet normal 0.0 1.0 0.0
  outer loop
    vertex 116.81980241741837 -201.32648350190016 1.1279865945205804e-14
    vertex 104.71980241741836 -201.32648350190016 13.189000000000009
    vertex 116.81980241741837 -201.32648350190016 13.189000000000009
  endloop
endfacet
facet normal -0.3826828154473197 0.9238797880467527 0.0
  outer loop
    vertex 111.50951711741837 -210.82990150190014 13.189000000000009
    vertex 112.41418741741838 -210.4551755019002 11.97900000000001
    vertex 111.50951711741837 -210.82990150190014 11.97900000000001
  endloop
endfacet
facet normal -0.3826828154473197 0.9238797880467527 0.0
  outer loop
    vertex 112.41418741741838 -210.4551755019002 11.97900000000001
    vertex 111.50951711741837 -210.82990150190014 13.189000000000009
    vertex 112.41418741741838 -210.4551755019002 13.189000000000009
  endloop
endfacet
facet normal 0.1305259311636798 -0.9914448957424988 0.0
  outer loop
    vertex 110.53868691741837 -203.4557145019002 13.189000000000009
    vertex 109.56785641741835 -203.58352650190017 11.97900000000001
    vertex 110.53868691741837 -203.4557145019002 11.97900000000001
  endloop
endfacet
facet normal 0.1305259311636798 -0.9914448957424988 0.0
  outer loop
    vertex 109.56785641741835 -203.58352650190017 11.97900000000001
    vertex 110.53868691741837 -203.4557145019002 13.189000000000009
    vertex 109.56785641741835 -203.58352650190017 13.189000000000009
  endloop
endfacet
facet normal -0.60876185201838 -0.7933530157043283 -0.0
  outer loop
    vertex 113.19104441741835 -204.5543565019002 13.189000000000009
    vertex 112.41418741741838 -203.95825250190015 11.97900000000001
    vertex 113.19104441741835 -204.5543565019002 11.97900000000001
  endloop
endfacet
facet normal -0.60876185201838 -0.7933530157043283 -0.0
  outer loop
    vertex 112.41418741741838 -203.95825250190015 11.97900000000001
    vertex 113.19104441741835 -204.5543565019002 13.189000000000009
    vertex 112.41418741741838 -203.95825250190015 13.189000000000009
  endloop
endfacet
facet normal -0.1305269746459628 0.9914447583651709 0.0
  outer loop
    vertex 110.53868691741837 -210.95771450190017 13.189000000000009
    vertex 111.50951711741837 -210.82990150190014 11.97900000000001
    vertex 110.53868691741837 -210.95771450190017 11.97900000000001
  endloop
endfacet
facet normal -0.1305269746459628 0.9914447583651709 0.0
  outer loop
    vertex 111.50951711741837 -210.82990150190014 11.97900000000001
    vertex 110.53868691741837 -210.95771450190017 13.189000000000009
    vertex 111.50951711741837 -210.82990150190014 13.189000000000009
  endloop
endfacet
facet normal -0.7933533941641215 -0.608761358800202 -0.0
  outer loop
    vertex 113.19104441741835 -204.5543565019002 13.189000000000009
    vertex 113.78714841741836 -205.3312145019002 11.97900000000001
    vertex 113.78714841741836 -205.3312145019002 13.189000000000009
  endloop
endfacet
facet normal -0.7933533941641215 -0.608761358800202 -0.0
  outer loop
    vertex 113.78714841741836 -205.3312145019002 11.97900000000001
    vertex 113.19104441741835 -204.5543565019002 13.189000000000009
    vertex 113.19104441741835 -204.5543565019002 11.97900000000001
  endloop
endfacet
facet normal -0.13052597081082815 -0.9914448905228624 -0.0
  outer loop
    vertex 111.50951711741837 -203.58352650190017 13.189000000000009
    vertex 110.53868691741837 -203.4557145019002 11.97900000000001
    vertex 111.50951711741837 -203.58352650190017 11.97900000000001
  endloop
endfacet
facet normal -0.13052597081082815 -0.9914448905228624 -0.0
  outer loop
    vertex 110.53868691741837 -203.4557145019002 11.97900000000001
    vertex 111.50951711741837 -203.58352650190017 13.189000000000009
    vertex 110.53868691741837 -203.4557145019002 13.189000000000009
  endloop
endfacet
facet normal 0.6087618520183689 -0.7933530157043367 0.0
  outer loop
    vertex 108.66318641741837 -203.95825250190015 13.189000000000009
    vertex 107.88632941741837 -204.5543565019002 11.97900000000001
    vertex 108.66318641741837 -203.95825250190015 11.97900000000001
  endloop
endfacet
facet normal 0.6087618520183689 -0.7933530157043367 0.0
  outer loop
    vertex 107.88632941741837 -204.5543565019002 11.97900000000001
    vertex 108.66318641741837 -203.95825250190015 13.189000000000009
    vertex 107.88632941741837 -204.5543565019002 13.189000000000009
  endloop
endfacet
facet normal -0.382682815447359 -0.9238797880467364 -0.0
  outer loop
    vertex 112.41418741741838 -203.95825250190015 13.189000000000009
    vertex 111.50951711741837 -203.58352650190017 11.97900000000001
    vertex 112.41418741741838 -203.95825250190015 11.97900000000001
  endloop
endfacet
facet normal -0.382682815447359 -0.9238797880467364 -0.0
  outer loop
    vertex 111.50951711741837 -203.58352650190017 11.97900000000001
    vertex 112.41418741741838 -203.95825250190015 13.189000000000009
    vertex 111.50951711741837 -203.58352650190017 13.189000000000009
  endloop
endfacet
facet normal 2.1538533612492857e-31 7.541696361147893e-33 1.0
  outer loop
    vertex 106.91549941741837 -208.1775445019002 11.97900000000001
    vertex 106.91549941741837 -206.23588400190016 11.97900000000001
    vertex 106.78768641741837 -207.20671428190016 11.97900000000001
  endloop
endfacet
facet normal 2.1538533612492857e-31 7.541696361147893e-33 1.0
  outer loop
    vertex 106.91549941741837 -206.23588400190016 11.97900000000001
    vertex 106.91549941741837 -208.1775445019002 11.97900000000001
    vertex 107.29022541741836 -209.08221450190015 11.97900000000001
  endloop
endfacet
facet normal 2.1538533612492857e-31 7.541696361147893e-33 1.0
  outer loop
    vertex 106.91549941741837 -206.23588400190016 11.97900000000001
    vertex 107.29022541741836 -209.08221450190015 11.97900000000001
    vertex 107.29022541741836 -205.3312145019002 11.97900000000001
  endloop
endfacet
facet normal 2.1538533612492857e-31 7.541696361147893e-33 1.0
  outer loop
    vertex 107.29022541741836 -205.3312145019002 11.97900000000001
    vertex 107.29022541741836 -209.08221450190015 11.97900000000001
    vertex 107.39268741741837 -207.20671428190016 11.97900000000001
  endloop
endfacet
facet normal 2.1538533612492857e-31 7.541696361147893e-33 1.0
  outer loop
    vertex 107.39268741741837 -207.20671428190016 11.97900000000001
    vertex 107.29022541741836 -209.08221450190015 11.97900000000001
    vertex 107.49988441741836 -208.02095900190017 11.97900000000001
  endloop
endfacet
facet normal 2.1538533612492857e-31 7.541696361147893e-33 1.0
  outer loop
    vertex 107.49988441741836 -208.02095900190017 11.97900000000001
    vertex 107.29022541741836 -209.08221450190015 11.97900000000001
    vertex 107.88632941741837 -209.85907150190016 11.97900000000001
  endloop
endfacet
facet normal 2.1538533612492857e-31 7.541696361147893e-33 1.0
  outer loop
    vertex 107.49988441741836 -208.02095900190017 11.97900000000001
    vertex 107.88632941741837 -209.85907150190016 11.97900000000001
    vertex 107.81417141741835 -208.77971450190014 11.97900000000001
  endloop
endfacet
facet normal 2.1538533612492857e-31 7.541696361147893e-33 1.0
  outer loop
    vertex 107.81417141741835 -208.77971450190014 11.97900000000001
    vertex 107.88632941741837 -209.85907150190016 11.97900000000001
    vertex 108.31412941741837 -209.4312725019002 11.97900000000001
  endloop
endfacet
facet normal 2.1538533612492857e-31 7.541696361147893e-33 1.0
  outer loop
    vertex 108.31412941741837 -209.4312725019002 11.97900000000001
    vertex 107.88632941741837 -209.85907150190016 11.97900000000001
    vertex 108.66318641741837 -210.4551755019002 11.97900000000001
  endloop
endfacet
facet normal 2.1538533612492857e-31 7.541696361147893e-33 1.0
  outer loop
    vertex 108.31412941741837 -209.4312725019002 11.97900000000001
    vertex 108.66318641741837 -210.4551755019002 11.97900000000001
    vertex 108.96568741741838 -209.9312305019002 11.97900000000001
  endloop
endfacet
facet normal 2.1538533612492857e-31 7.541696361147893e-33 1.0
  outer loop
    vertex 108.96568741741838 -209.9312305019002 11.97900000000001
    vertex 108.66318641741837 -210.4551755019002 11.97900000000001
    vertex 109.56785641741835 -210.82990150190014 11.97900000000001
  endloop
endfacet
facet normal 2.1538533612492857e-31 7.541696361147893e-33 1.0
  outer loop
    vertex 108.96568741741838 -209.9312305019002 11.97900000000001
    vertex 109.56785641741835 -210.82990150190014 11.97900000000001
    vertex 109.72444241741836 -210.2455175019002 11.97900000000001
  endloop
endfacet
facet normal 2.1538533612492857e-31 7.541696361147893e-33 1.0
  outer loop
    vertex 109.72444241741836 -210.2455175019002 11.97900000000001
    vertex 109.56785641741835 -210.82990150190014 11.97900000000001
    vertex 110.53868691741837 -210.95771450190017 11.97900000000001
  endloop
endfacet
facet normal 2.1538533612492857e-31 7.541696361147893e-33 1.0
  outer loop
    vertex 109.72444241741836 -210.2455175019002 11.97900000000001
    vertex 110.53868691741837 -210.95771450190017 11.97900000000001
    vertex 110.53868691741837 -210.35271450190015 11.97900000000001
  endloop
endfacet
facet normal 2.1538533612492857e-31 7.541696361147893e-33 1.0
  outer loop
    vertex 110.53868691741837 -210.35271450190015 11.97900000000001
    vertex 110.53868691741837 -210.95771450190017 11.97900000000001
    vertex 111.50951711741837 -210.82990150190014 11.97900000000001
  endloop
endfacet
facet normal 2.1538533612492857e-31 7.541696361147893e-33 1.0
  outer loop
    vertex 110.53868691741837 -210.35271450190015 11.97900000000001
    vertex 111.50951711741837 -210.82990150190014 11.97900000000001
    vertex 111.35293161741836 -210.2455175019002 11.97900000000001
  endloop
endfacet
facet normal 2.1538533612492857e-31 7.541696361147893e-33 1.0
  outer loop
    vertex 111.35293161741836 -210.2455175019002 11.97900000000001
    vertex 111.50951711741837 -210.82990150190014 11.97900000000001
    vertex 112.11168641741837 -209.9312305019002 11.97900000000001
  endloop
endfacet
facet normal 2.1538533612492857e-31 7.541696361147893e-33 1.0
  outer loop
    vertex 112.11168641741837 -209.9312305019002 11.97900000000001
    vertex 111.50951711741837 -210.82990150190014 11.97900000000001
    vertex 112.41418741741838 -210.4551755019002 11.97900000000001
  endloop
endfacet
facet normal 2.1538533612492857e-31 7.541696361147893e-33 1.0
  outer loop
    vertex 112.11168641741837 -209.9312305019002 11.97900000000001
    vertex 112.41418741741838 -210.4551755019002 11.97900000000001
    vertex 112.76324441741836 -209.4312725019002 11.97900000000001
  endloop
endfacet
facet normal 2.1538533612492857e-31 7.541696361147893e-33 1.0
  outer loop
    vertex 112.76324441741836 -209.4312725019002 11.97900000000001
    vertex 112.41418741741838 -210.4551755019002 11.97900000000001
    vertex 113.19104441741835 -209.85907150190016 11.97900000000001
  endloop
endfacet
facet normal 2.1538533612492857e-31 7.541696361147893e-33 1.0
  outer loop
    vertex 112.76324441741836 -209.4312725019002 11.97900000000001
    vertex 113.19104441741835 -209.85907150190016 11.97900000000001
    vertex 113.26320241741837 -208.77971450190014 11.97900000000001
  endloop
endfacet
facet normal 2.1538533612492857e-31 7.541696361147893e-33 1.0
  outer loop
    vertex 113.26320241741837 -208.77971450190014 11.97900000000001
    vertex 113.19104441741835 -209.85907150190016 11.97900000000001
    vertex 113.78714841741836 -209.08221450190015 11.97900000000001
  endloop
endfacet
facet normal 2.1538533612492857e-31 7.541696361147893e-33 1.0
  outer loop
    vertex 113.26320241741837 -208.77971450190014 11.97900000000001
    vertex 113.78714841741836 -209.08221450190015 11.97900000000001
    vertex 113.57748941741836 -208.02095900190017 11.97900000000001
  endloop
endfacet
facet normal 2.1538533612492857e-31 7.541696361147893e-33 1.0
  outer loop
    vertex 113.57748941741836 -208.02095900190017 11.97900000000001
    vertex 113.78714841741836 -209.08221450190015 11.97900000000001
    vertex 113.68468741741837 -207.20671428190016 11.97900000000001
  endloop
endfacet
facet normal 2.1538533612492857e-31 7.541696361147893e-33 1.0
  outer loop
    vertex 107.29022541741836 -205.3312145019002 11.97900000000001
    vertex 107.49988441741836 -206.3924695019002 11.97900000000001
    vertex 107.88632941741837 -204.5543565019002 11.97900000000001
  endloop
endfacet
facet normal 2.1538533612492857e-31 7.541696361147893e-33 1.0
  outer loop
    vertex 107.49988441741836 -206.3924695019002 11.97900000000001
    vertex 107.29022541741836 -205.3312145019002 11.97900000000001
    vertex 107.39268741741837 -207.20671428190016 11.97900000000001
  endloop
endfacet
facet normal 2.1538533612492857e-31 7.541696361147893e-33 1.0
  outer loop
    vertex 107.88632941741837 -204.5543565019002 11.97900000000001
    vertex 107.49988441741836 -206.3924695019002 11.97900000000001
    vertex 107.81417141741835 -205.63371450190016 11.97900000000001
  endloop
endfacet
facet normal 2.1538533612492857e-31 7.541696361147893e-33 1.0
  outer loop
    vertex 107.88632941741837 -204.5543565019002 11.97900000000001
    vertex 107.81417141741835 -205.63371450190016 11.97900000000001
    vertex 108.31412941741837 -204.98215650190016 11.97900000000001
  endloop
endfacet
facet normal 2.1538533612492857e-31 7.541696361147893e-33 1.0
  outer loop
    vertex 107.88632941741837 -204.5543565019002 11.97900000000001
    vertex 108.31412941741837 -204.98215650190016 11.97900000000001
    vertex 108.66318641741837 -203.95825250190015 11.97900000000001
  endloop
endfacet
facet normal 2.1538533612492857e-31 7.541696361147893e-33 1.0
  outer loop
    vertex 108.66318641741837 -203.95825250190015 11.97900000000001
    vertex 108.31412941741837 -204.98215650190016 11.97900000000001
    vertex 108.96568741741838 -204.48219850190017 11.97900000000001
  endloop
endfacet
facet normal 2.1538533612492857e-31 7.541696361147893e-33 1.0
  outer loop
    vertex 108.66318641741837 -203.95825250190015 11.97900000000001
    vertex 108.96568741741838 -204.48219850190017 11.97900000000001
    vertex 109.56785641741835 -203.58352650190017 11.97900000000001
  endloop
endfacet
facet normal 2.1538533612492857e-31 7.541696361147893e-33 1.0
  outer loop
    vertex 109.56785641741835 -203.58352650190017 11.97900000000001
    vertex 108.96568741741838 -204.48219850190017 11.97900000000001
    vertex 109.72444241741836 -204.16791150190016 11.97900000000001
  endloop
endfacet
facet normal 2.1538533612492857e-31 7.541696361147893e-33 1.0
  outer loop
    vertex 109.56785641741835 -203.58352650190017 11.97900000000001
    vertex 109.72444241741836 -204.16791150190016 11.97900000000001
    vertex 110.53868691741837 -203.4557145019002 11.97900000000001
  endloop
endfacet
facet normal 2.1538533612492857e-31 7.541696361147893e-33 1.0
  outer loop
    vertex 110.53868691741837 -203.4557145019002 11.97900000000001
    vertex 109.72444241741836 -204.16791150190016 11.97900000000001
    vertex 110.53868691741837 -204.06071450190015 11.97900000000001
  endloop
endfacet
facet normal 2.1538533612492857e-31 7.541696361147893e-33 1.0
  outer loop
    vertex 110.53868691741837 -203.4557145019002 11.97900000000001
    vertex 110.53868691741837 -204.06071450190015 11.97900000000001
    vertex 111.35293161741836 -204.16791150190016 11.97900000000001
  endloop
endfacet
facet normal 2.1538533612492857e-31 7.541696361147893e-33 1.0
  outer loop
    vertex 110.53868691741837 -203.4557145019002 11.97900000000001
    vertex 111.35293161741836 -204.16791150190016 11.97900000000001
    vertex 111.50951711741837 -203.58352650190017 11.97900000000001
  endloop
endfacet
facet normal 2.1538533612492857e-31 7.541696361147893e-33 1.0
  outer loop
    vertex 111.50951711741837 -203.58352650190017 11.97900000000001
    vertex 111.35293161741836 -204.16791150190016 11.97900000000001
    vertex 112.11168641741837 -204.48219850190017 11.97900000000001
  endloop
endfacet
facet normal 2.1538533612492857e-31 7.541696361147893e-33 1.0
  outer loop
    vertex 111.50951711741837 -203.58352650190017 11.97900000000001
    vertex 112.11168641741837 -204.48219850190017 11.97900000000001
    vertex 112.41418741741838 -203.95825250190015 11.97900000000001
  endloop
endfacet
facet normal 2.1538533612492857e-31 7.541696361147893e-33 1.0
  outer loop
    vertex 112.41418741741838 -203.95825250190015 11.97900000000001
    vertex 112.11168641741837 -204.48219850190017 11.97900000000001
    vertex 112.76324441741836 -204.98215650190016 11.97900000000001
  endloop
endfacet
facet normal 2.1538533612492857e-31 7.541696361147893e-33 1.0
  outer loop
    vertex 112.41418741741838 -203.95825250190015 11.97900000000001
    vertex 112.76324441741836 -204.98215650190016 11.97900000000001
    vertex 113.19104441741835 -204.5543565019002 11.97900000000001
  endloop
endfacet
facet normal 2.1538533612492857e-31 7.541696361147893e-33 1.0
  outer loop
    vertex 113.19104441741835 -204.5543565019002 11.97900000000001
    vertex 112.76324441741836 -204.98215650190016 11.97900000000001
    vertex 113.26320241741837 -205.63371450190016 11.97900000000001
  endloop
endfacet
facet normal 2.1538533612492857e-31 7.541696361147893e-33 1.0
  outer loop
    vertex 113.19104441741835 -204.5543565019002 11.97900000000001
    vertex 113.26320241741837 -205.63371450190016 11.97900000000001
    vertex 113.78714841741836 -205.3312145019002 11.97900000000001
  endloop
endfacet
facet normal 2.1538533612492857e-31 7.541696361147893e-33 1.0
  outer loop
    vertex 113.78714841741836 -205.3312145019002 11.97900000000001
    vertex 113.26320241741837 -205.63371450190016 11.97900000000001
    vertex 113.57748941741836 -206.3924695019002 11.97900000000001
  endloop
endfacet
facet normal 2.1538533612492857e-31 7.541696361147893e-33 1.0
  outer loop
    vertex 113.78714841741836 -205.3312145019002 11.97900000000001
    vertex 113.57748941741836 -206.3924695019002 11.97900000000001
    vertex 113.68468741741837 -207.20671428190016 11.97900000000001
  endloop
endfacet
facet normal 2.1538533612492857e-31 7.541696361147893e-33 1.0
  outer loop
    vertex 113.78714841741836 -205.3312145019002 11.97900000000001
    vertex 113.68468741741837 -207.20671428190016 11.97900000000001
    vertex 113.78714841741836 -209.08221450190015 11.97900000000001
  endloop
endfacet
facet normal 2.1538533612492857e-31 7.541696361147893e-33 1.0
  outer loop
    vertex 113.78714841741836 -205.3312145019002 11.97900000000001
    vertex 113.78714841741836 -209.08221450190015 11.97900000000001
    vertex 114.16187441741837 -208.1775445019002 11.97900000000001
  endloop
endfacet
facet normal 2.1538533612492857e-31 7.541696361147893e-33 1.0
  outer loop
    vertex 113.78714841741836 -205.3312145019002 11.97900000000001
    vertex 114.16187441741837 -208.1775445019002 11.97900000000001
    vertex 114.16187441741837 -206.23588400190016 11.97900000000001
  endloop
endfacet
facet normal 2.1538533612492857e-31 7.541696361147893e-33 1.0
  outer loop
    vertex 114.16187441741837 -206.23588400190016 11.97900000000001
    vertex 114.16187441741837 -208.1775445019002 11.97900000000001
    vertex 114.28968741741835 -207.20671428190016 11.97900000000001
  endloop
endfacet
facet normal 0.6087618520183689 0.7933530157043367 0.0
  outer loop
    vertex 107.88632941741837 -209.85907150190016 13.189000000000009
    vertex 108.66318641741837 -210.4551755019002 11.97900000000001
    vertex 107.88632941741837 -209.85907150190016 11.97900000000001
  endloop
endfacet
facet normal 0.6087618520183689 0.7933530157043367 0.0
  outer loop
    vertex 108.66318641741837 -210.4551755019002 11.97900000000001
    vertex 107.88632941741837 -209.85907150190016 13.189000000000009
    vertex 108.66318641741837 -210.4551755019002 13.189000000000009
  endloop
endfacet
facet normal -0.9238797431799932 0.3826829237654455 0.0
  outer loop
    vertex 114.16187441741837 -208.1775445019002 13.189000000000009
    vertex 113.78714841741836 -209.08221450190015 11.97900000000001
    vertex 113.78714841741836 -209.08221450190015 13.189000000000009
  endloop
endfacet
facet normal -0.9238797431799932 0.3826829237654455 0.0
  outer loop
    vertex 113.78714841741836 -209.08221450190015 11.97900000000001
    vertex 114.16187441741837 -208.1775445019002 13.189000000000009
    vertex 114.16187441741837 -208.1775445019002 11.97900000000001
  endloop
endfacet
facet normal -1.0 -0.0 -0.0
  outer loop
    vertex 104.71980241741836 -201.32648350190016 13.189000000000009
    vertex 104.71980241741836 -213.06348350190015 1.1279865945205804e-14
    vertex 104.71980241741836 -213.06348350190015 13.189000000000009
  endloop
endfacet
facet normal -1.0 -0.0 -0.0
  outer loop
    vertex 104.71980241741836 -213.06348350190015 1.1279865945205804e-14
    vertex 104.71980241741836 -201.32648350190016 13.189000000000009
    vertex 104.71980241741836 -201.32648350190016 1.1279865945205804e-14
  endloop
endfacet
facet normal 0.9238796684020205 -0.3826831042956728 1.893272469193089e-18
  outer loop
    vertex 107.29022541741836 -205.3312145019002 11.97900000000001
    vertex 106.91549941741837 -206.23588400190016 13.189000000000009
    vertex 106.91549941741837 -206.23588400190016 11.97900000000001
  endloop
endfacet
facet normal 0.9238796684020205 -0.3826831042956728 1.893272469193089e-18
  outer loop
    vertex 106.91549941741837 -206.23588400190016 13.189000000000009
    vertex 107.29022541741836 -205.3312145019002 11.97900000000001
    vertex 107.29022541741836 -205.3312145019002 13.189000000000009
  endloop
endfacet
facet normal 0.9914447597570958 -0.13052696407330788 0.0
  outer loop
    vertex 106.91549941741837 -206.23588400190016 11.97900000000001
    vertex 106.78768641741837 -207.20671428190016 13.189000000000009
    vertex 106.78768641741837 -207.20671428190016 11.97900000000001
  endloop
endfacet
facet normal 0.9914447597570958 -0.13052696407330788 0.0
  outer loop
    vertex 106.78768641741837 -207.20671428190016 13.189000000000009
    vertex 106.91549941741837 -206.23588400190016 11.97900000000001
    vertex 106.91549941741837 -206.23588400190016 13.189000000000009
  endloop
endfacet
facet normal -0.793353015704348 0.6087618520183543 0.0
  outer loop
    vertex 113.78714841741836 -209.08221450190015 13.189000000000009
    vertex 113.19104441741835 -209.85907150190016 11.97900000000001
    vertex 113.19104441741835 -209.85907150190016 13.189000000000009
  endloop
endfacet
facet normal -0.793353015704348 0.6087618520183543 0.0
  outer loop
    vertex 113.19104441741835 -209.85907150190016 11.97900000000001
    vertex 113.78714841741836 -209.08221450190015 13.189000000000009
    vertex 113.78714841741836 -209.08221450190015 11.97900000000001
  endloop
endfacet
facet normal 0.1305269349985201 0.9914447635848869 0.0
  outer loop
    vertex 109.56785641741835 -210.82990150190014 13.189000000000009
    vertex 110.53868691741837 -210.95771450190017 11.97900000000001
    vertex 109.56785641741835 -210.82990150190014 11.97900000000001
  endloop
endfacet
facet normal 0.1305269349985201 0.9914447635848869 0.0
  outer loop
    vertex 110.53868691741837 -210.95771450190017 11.97900000000001
    vertex 109.56785641741835 -210.82990150190014 13.189000000000009
    vertex 110.53868691741837 -210.95771450190017 13.189000000000009
  endloop
endfacet
facet normal 0.7933533941641215 -0.608761358800202 -1.454199690422314e-17
  outer loop
    vertex 107.88632941741837 -204.5543565019002 11.97900000000001
    vertex 107.29022541741836 -205.3312145019002 13.189000000000009
    vertex 107.29022541741836 -205.3312145019002 11.97900000000001
  endloop
endfacet
facet normal 0.7933533941641215 -0.608761358800202 -1.454199690422314e-17
  outer loop
    vertex 107.29022541741836 -205.3312145019002 13.189000000000009
    vertex 107.88632941741837 -204.5543565019002 11.97900000000001
    vertex 107.88632941741837 -204.5543565019002 13.189000000000009
  endloop
endfacet
facet normal -0.0 -0.0 -1.0
  outer loop
    vertex 116.81980241741837 -201.32648350190016 1.1279865945205804e-14
    vertex 104.71980241741836 -213.06348350190015 1.1279865945205804e-14
    vertex 104.71980241741836 -201.32648350190016 1.1279865945205804e-14
  endloop
endfacet
facet normal -0.0 -0.0 -1.0
  outer loop
    vertex 104.71980241741836 -213.06348350190015 1.1279865945205804e-14
    vertex 116.81980241741837 -201.32648350190016 1.1279865945205804e-14
    vertex 116.81980241741837 -213.06348350190015 1.1279865945205804e-14
  endloop
endfacet
facet normal 1.0 0.0 0.0
  outer loop
    vertex 116.81980241741837 -201.32648350190016 1.1279865945205804e-14
    vertex 116.81980241741837 -213.06348350190015 13.189000000000009
    vertex 116.81980241741837 -213.06348350190015 1.1279865945205804e-14
  endloop
endfacet
facet normal 1.0 0.0 0.0
  outer loop
    vertex 116.81980241741837 -213.06348350190015 13.189000000000009
    vertex 116.81980241741837 -201.32648350190016 1.1279865945205804e-14
    vertex 116.81980241741837 -201.32648350190016 13.189000000000009
  endloop
endfacet
facet normal 0.13052580673845096 0.9914449121233498 3.451370235019582e-31
  outer loop
    vertex 109.72444241741836 -210.2455175019002 11.97900000000001
    vertex 110.53868691741837 -210.35271450190015 2.420000000000011
    vertex 109.72444241741836 -210.2455175019002 2.420000000000011
  endloop
endfacet
facet normal 0.13052580673845096 0.9914449121233498 3.451370235019582e-31
  outer loop
    vertex 110.53868691741837 -210.35271450190015 2.420000000000011
    vertex 109.72444241741836 -210.2455175019002 11.97900000000001
    vertex 110.53868691741837 -210.35271450190015 11.97900000000001
  endloop
endfacet
facet normal -0.13052577522408373 0.9914449162722819 -3.224180231135529e-31
  outer loop
    vertex 110.53868691741837 -210.35271450190015 11.97900000000001
    vertex 111.35293161741836 -210.2455175019002 2.420000000000011
    vertex 110.53868691741837 -210.35271450190015 2.420000000000011
  endloop
endfacet
facet normal -0.13052577522408373 0.9914449162722819 -3.224180231135529e-31
  outer loop
    vertex 111.35293161741836 -210.2455175019002 2.420000000000011
    vertex 110.53868691741837 -210.35271450190015 11.97900000000001
    vertex 111.35293161741836 -210.2455175019002 11.97900000000001
  endloop
endfacet
facet normal -0.3826839222164134 0.9238793296080727 1.4144839678241012e-18
  outer loop
    vertex 111.35293161741836 -210.2455175019002 11.97900000000001
    vertex 112.11168641741837 -209.9312305019002 2.420000000000011
    vertex 111.35293161741836 -210.2455175019002 2.420000000000011
  endloop
endfacet
facet normal -0.3826839222164134 0.9238793296080727 1.4144839678241012e-18
  outer loop
    vertex 112.11168641741837 -209.9312305019002 2.420000000000011
    vertex 111.35293161741836 -210.2455175019002 11.97900000000001
    vertex 112.11168641741837 -209.9312305019002 11.97900000000001
  endloop
endfacet
facet normal -0.6087614001669187 0.7933533624223273 2.761783481295891e-31
  outer loop
    vertex 112.11168641741837 -209.9312305019002 11.97900000000001
    vertex 112.76324441741836 -209.4312725019002 2.420000000000011
    vertex 112.11168641741837 -209.9312305019002 2.420000000000011
  endloop
endfacet
facet normal -0.6087614001669187 0.7933533624223273 2.761783481295891e-31
  outer loop
    vertex 112.76324441741836 -209.4312725019002 2.420000000000011
    vertex 112.11168641741837 -209.9312305019002 11.97900000000001
    vertex 112.76324441741836 -209.4312725019002 11.97900000000001
  endloop
endfacet
facet normal -0.7933533624223478 0.6087614001668922 1.8640599766020345e-18
  outer loop
    vertex 113.26320241741837 -208.77971450190014 11.97900000000001
    vertex 112.76324441741836 -209.4312725019002 2.420000000000011
    vertex 112.76324441741836 -209.4312725019002 11.97900000000001
  endloop
endfacet
facet normal -0.7933533624223478 0.6087614001668922 1.8640599766020345e-18
  outer loop
    vertex 112.76324441741836 -209.4312725019002 2.420000000000011
    vertex 113.26320241741837 -208.77971450190014 11.97900000000001
    vertex 113.26320241741837 -208.77971450190014 2.420000000000011
  endloop
endfacet
facet normal -0.9238794544302493 0.38268362086933516 0.0
  outer loop
    vertex 113.57748941741836 -208.02095900190017 11.97900000000001
    vertex 113.26320241741837 -208.77971450190014 2.420000000000011
    vertex 113.26320241741837 -208.77971450190014 11.97900000000001
  endloop
endfacet
facet normal -0.9238794544302493 0.38268362086933516 0.0
  outer loop
    vertex 113.26320241741837 -208.77971450190014 2.420000000000011
    vertex 113.57748941741836 -208.02095900190017 11.97900000000001
    vertex 113.57748941741836 -208.02095900190017 2.420000000000011
  endloop
endfacet
facet normal -0.9914447591146687 0.1305269689529973 0.0
  outer loop
    vertex 113.68468741741837 -207.20671428190016 11.97900000000001
    vertex 113.57748941741836 -208.02095900190017 2.420000000000011
    vertex 113.57748941741836 -208.02095900190017 11.97900000000001
  endloop
endfacet
facet normal -0.9914447591146687 0.1305269689529973 0.0
  outer loop
    vertex 113.57748941741836 -208.02095900190017 2.420000000000011
    vertex 113.68468741741837 -207.20671428190016 11.97900000000001
    vertex 113.68468741741837 -207.20671428190016 2.420000000000011
  endloop
endfacet
facet normal 0.0 0.0 1.0
  outer loop
    vertex 107.49988441741836 -208.02095900190017 2.420000000000011
    vertex 107.49988441741836 -206.3924695019002 2.420000000000011
    vertex 107.39268741741837 -207.20671428190016 2.420000000000011
  endloop
endfacet
facet normal 0.0 0.0 1.0
  outer loop
    vertex 107.49988441741836 -206.3924695019002 2.420000000000011
    vertex 107.49988441741836 -208.02095900190017 2.420000000000011
    vertex 107.81417141741835 -208.77971450190014 2.420000000000011
  endloop
endfacet
facet normal 0.0 0.0 1.0
  outer loop
    vertex 107.49988441741836 -206.3924695019002 2.420000000000011
    vertex 107.81417141741835 -208.77971450190014 2.420000000000011
    vertex 107.81417141741835 -205.63371450190016 2.420000000000011
  endloop
endfacet
facet normal 0.0 0.0 1.0
  outer loop
    vertex 107.81417141741835 -205.63371450190016 2.420000000000011
    vertex 107.81417141741835 -208.77971450190014 2.420000000000011
    vertex 108.31412941741837 -209.4312725019002 2.420000000000011
  endloop
endfacet
facet normal 0.0 0.0 1.0
  outer loop
    vertex 107.81417141741835 -205.63371450190016 2.420000000000011
    vertex 108.31412941741837 -209.4312725019002 2.420000000000011
    vertex 108.31412941741837 -204.98215650190016 2.420000000000011
  endloop
endfacet
facet normal 0.0 0.0 1.0
  outer loop
    vertex 108.31412941741837 -204.98215650190016 2.420000000000011
    vertex 108.31412941741837 -209.4312725019002 2.420000000000011
    vertex 108.96568741741838 -209.9312305019002 2.420000000000011
  endloop
endfacet
facet normal 0.0 0.0 1.0
  outer loop
    vertex 108.31412941741837 -204.98215650190016 2.420000000000011
    vertex 108.96568741741838 -209.9312305019002 2.420000000000011
    vertex 108.96568741741838 -204.48219850190017 2.420000000000011
  endloop
endfacet
facet normal 0.0 0.0 1.0
  outer loop
    vertex 108.96568741741838 -204.48219850190017 2.420000000000011
    vertex 108.96568741741838 -209.9312305019002 2.420000000000011
    vertex 109.72444241741836 -210.2455175019002 2.420000000000011
  endloop
endfacet
facet normal 0.0 0.0 1.0
  outer loop
    vertex 108.96568741741838 -204.48219850190017 2.420000000000011
    vertex 109.72444241741836 -210.2455175019002 2.420000000000011
    vertex 109.72444241741836 -204.16791150190016 2.420000000000011
  endloop
endfacet
facet normal 0.0 0.0 1.0
  outer loop
    vertex 109.72444241741836 -204.16791150190016 2.420000000000011
    vertex 109.72444241741836 -210.2455175019002 2.420000000000011
    vertex 110.53868691741837 -210.35271450190015 2.420000000000011
  endloop
endfacet
facet normal 0.0 0.0 1.0
  outer loop
    vertex 109.72444241741836 -204.16791150190016 2.420000000000011
    vertex 110.53868691741837 -210.35271450190015 2.420000000000011
    vertex 110.53868691741837 -204.06071450190015 2.420000000000011
  endloop
endfacet
facet normal 0.0 0.0 1.0
  outer loop
    vertex 110.53868691741837 -204.06071450190015 2.420000000000011
    vertex 110.53868691741837 -210.35271450190015 2.420000000000011
    vertex 111.35293161741836 -210.2455175019002 2.420000000000011
  endloop
endfacet
facet normal 0.0 0.0 1.0
  outer loop
    vertex 110.53868691741837 -204.06071450190015 2.420000000000011
    vertex 111.35293161741836 -210.2455175019002 2.420000000000011
    vertex 111.35293161741836 -204.16791150190016 2.420000000000011
  endloop
endfacet
facet normal 0.0 0.0 1.0
  outer loop
    vertex 111.35293161741836 -204.16791150190016 2.420000000000011
    vertex 111.35293161741836 -210.2455175019002 2.420000000000011
    vertex 112.11168641741837 -209.9312305019002 2.420000000000011
  endloop
endfacet
facet normal 0.0 0.0 1.0
  outer loop
    vertex 111.35293161741836 -204.16791150190016 2.420000000000011
    vertex 112.11168641741837 -209.9312305019002 2.420000000000011
    vertex 112.11168641741837 -204.48219850190017 2.420000000000011
  endloop
endfacet
facet normal 0.0 0.0 1.0
  outer loop
    vertex 112.11168641741837 -204.48219850190017 2.420000000000011
    vertex 112.11168641741837 -209.9312305019002 2.420000000000011
    vertex 112.76324441741836 -209.4312725019002 2.420000000000011
  endloop
endfacet
facet normal 0.0 0.0 1.0
  outer loop
    vertex 112.11168641741837 -204.48219850190017 2.420000000000011
    vertex 112.76324441741836 -209.4312725019002 2.420000000000011
    vertex 112.76324441741836 -204.98215650190016 2.420000000000011
  endloop
endfacet
facet normal 0.0 0.0 1.0
  outer loop
    vertex 112.76324441741836 -204.98215650190016 2.420000000000011
    vertex 112.76324441741836 -209.4312725019002 2.420000000000011
    vertex 113.26320241741837 -208.77971450190014 2.420000000000011
  endloop
endfacet
facet normal 0.0 0.0 1.0
  outer loop
    vertex 112.76324441741836 -204.98215650190016 2.420000000000011
    vertex 113.26320241741837 -208.77971450190014 2.420000000000011
    vertex 113.26320241741837 -205.63371450190016 2.420000000000011
  endloop
endfacet
facet normal 0.0 0.0 1.0
  outer loop
    vertex 113.26320241741837 -205.63371450190016 2.420000000000011
    vertex 113.26320241741837 -208.77971450190014 2.420000000000011
    vertex 113.57748941741836 -208.02095900190017 2.420000000000011
  endloop
endfacet
facet normal 0.0 0.0 1.0
  outer loop
    vertex 113.26320241741837 -205.63371450190016 2.420000000000011
    vertex 113.57748941741836 -208.02095900190017 2.420000000000011
    vertex 113.57748941741836 -206.3924695019002 2.420000000000011
  endloop
endfacet
facet normal 0.0 0.0 1.0
  outer loop
    vertex 113.57748941741836 -206.3924695019002 2.420000000000011
    vertex 113.57748941741836 -208.02095900190017 2.420000000000011
    vertex 113.68468741741837 -207.20671428190016 2.420000000000011
  endloop
endfacet
facet normal -0.6087614001669187 -0.7933533624223273 -2.761783481295891e-31
  outer loop
    vertex 112.76324441741836 -204.98215650190016 11.97900000000001
    vertex 112.11168641741837 -204.48219850190017 2.420000000000011
    vertex 112.76324441741836 -204.98215650190016 2.420000000000011
  endloop
endfacet
facet normal -0.6087614001669187 -0.7933533624223273 -2.761783481295891e-31
  outer loop
    vertex 112.11168641741837 -204.48219850190017 2.420000000000011
    vertex 112.76324441741836 -204.98215650190016 11.97900000000001
    vertex 112.11168641741837 -204.48219850190017 11.97900000000001
  endloop
endfacet
facet normal -0.3826839222164134 -0.9238793296080727 -1.4144839678241012e-18
  outer loop
    vertex 112.11168641741837 -204.48219850190017 11.97900000000001
    vertex 111.35293161741836 -204.16791150190016 2.420000000000011
    vertex 112.11168641741837 -204.48219850190017 2.420000000000011
  endloop
endfacet
facet normal -0.3826839222164134 -0.9238793296080727 -1.4144839678241012e-18
  outer loop
    vertex 111.35293161741836 -204.16791150190016 2.420000000000011
    vertex 112.11168641741837 -204.48219850190017 11.97900000000001
    vertex 111.35293161741836 -204.16791150190016 11.97900000000001
  endloop
endfacet
facet normal -0.13052577522413766 -0.9914449162722747 -2.2719001832720963e-32
  outer loop
    vertex 111.35293161741836 -204.16791150190016 11.97900000000001
    vertex 110.53868691741837 -204.06071450190015 2.420000000000011
    vertex 111.35293161741836 -204.16791150190016 2.420000000000011
  endloop
endfacet
facet normal -0.13052577522413766 -0.9914449162722747 -2.2719001832720963e-32
  outer loop
    vertex 110.53868691741837 -204.06071450190015 2.420000000000011
    vertex 111.35293161741836 -204.16791150190016 11.97900000000001
    vertex 110.53868691741837 -204.06071450190015 11.97900000000001
  endloop
endfacet
facet normal 0.13052580673850497 -0.9914449121233426 0.0
  outer loop
    vertex 110.53868691741837 -204.06071450190015 11.97900000000001
    vertex 109.72444241741836 -204.16791150190016 2.420000000000011
    vertex 110.53868691741837 -204.06071450190015 2.420000000000011
  endloop
endfacet
facet normal 0.13052580673850497 -0.9914449121233426 0.0
  outer loop
    vertex 109.72444241741836 -204.16791150190016 2.420000000000011
    vertex 110.53868691741837 -204.06071450190015 11.97900000000001
    vertex 109.72444241741836 -204.16791150190016 11.97900000000001
  endloop
endfacet
facet normal 0.382683836117208 -0.9238793652715801 1.4144840224259516e-18
  outer loop
    vertex 109.72444241741836 -204.16791150190016 11.97900000000001
    vertex 108.96568741741838 -204.48219850190017 2.420000000000011
    vertex 109.72444241741836 -204.16791150190016 2.420000000000011
  endloop
endfacet
facet normal 0.382683836117208 -0.9238793652715801 1.4144840224259516e-18
  outer loop
    vertex 108.96568741741838 -204.48219850190017 2.420000000000011
    vertex 109.72444241741836 -204.16791150190016 11.97900000000001
    vertex 108.96568741741838 -204.48219850190017 11.97900000000001
  endloop
endfacet
facet normal 0.6087614001669054 -0.7933533624223376 3.8213789016128856e-31
  outer loop
    vertex 108.96568741741838 -204.48219850190017 11.97900000000001
    vertex 108.31412941741837 -204.98215650190016 2.420000000000011
    vertex 108.96568741741838 -204.48219850190017 2.420000000000011
  endloop
endfacet
facet normal 0.6087614001669054 -0.7933533624223376 3.8213789016128856e-31
  outer loop
    vertex 108.31412941741837 -204.98215650190016 2.420000000000011
    vertex 108.96568741741838 -204.48219850190017 11.97900000000001
    vertex 108.31412941741837 -204.98215650190016 11.97900000000001
  endloop
endfacet
facet normal 0.7933533624223273 -0.6087614001669187 0.0
  outer loop
    vertex 108.31412941741837 -204.98215650190016 2.420000000000011
    vertex 107.81417141741835 -205.63371450190016 11.97900000000001
    vertex 107.81417141741835 -205.63371450190016 2.420000000000011
  endloop
endfacet
facet normal 0.7933533624223273 -0.6087614001669187 0.0
  outer loop
    vertex 107.81417141741835 -205.63371450190016 11.97900000000001
    vertex 108.31412941741837 -204.98215650190016 2.420000000000011
    vertex 108.31412941741837 -204.98215650190016 11.97900000000001
  endloop
endfacet
facet normal 0.9238793652715882 -0.38268383611718865 1.3321805228384212e-31
  outer loop
    vertex 107.81417141741835 -205.63371450190016 2.420000000000011
    vertex 107.49988441741836 -206.3924695019002 11.97900000000001
    vertex 107.49988441741836 -206.3924695019002 2.420000000000011
  endloop
endfacet
facet normal 0.9238793652715882 -0.38268383611718865 1.3321805228384212e-31
  outer loop
    vertex 107.49988441741836 -206.3924695019002 11.97900000000001
    vertex 107.81417141741835 -205.63371450190016 2.420000000000011
    vertex 107.81417141741835 -205.63371450190016 11.97900000000001
  endloop
endfacet
facet normal 0.9914449179318502 -0.13052576261836873 1.2713051348481031e-31
  outer loop
    vertex 107.49988441741836 -206.3924695019002 2.420000000000011
    vertex 107.39268741741837 -207.20671428190016 11.97900000000001
    vertex 107.39268741741837 -207.20671428190016 2.420000000000011
  endloop
endfacet
facet normal 0.9914449179318502 -0.13052576261836873 1.2713051348481031e-31
  outer loop
    vertex 107.39268741741837 -207.20671428190016 11.97900000000001
    vertex 107.49988441741836 -206.3924695019002 2.420000000000011
    vertex 107.49988441741836 -206.3924695019002 11.97900000000001
  endloop
endfacet
facet normal 0.9914449166871714 0.13052577207267582 1.725685125453469e-31
  outer loop
    vertex 107.39268741741837 -207.20671428190016 2.420000000000011
    vertex 107.49988441741836 -208.02095900190017 11.97900000000001
    vertex 107.49988441741836 -208.02095900190017 2.420000000000011
  endloop
endfacet
facet normal 0.9914449166871714 0.13052577207267582 1.725685125453469e-31
  outer loop
    vertex 107.49988441741836 -208.02095900190017 11.97900000000001
    vertex 107.39268741741837 -207.20671428190016 2.420000000000011
    vertex 107.39268741741837 -207.20671428190016 11.97900000000001
  endloop
endfacet
facet normal -0.9914447603593702 -0.1305269594986065 1.3631524778808348e-31
  outer loop
    vertex 113.57748941741836 -206.3924695019002 11.97900000000001
    vertex 113.68468741741837 -207.20671428190016 2.420000000000011
    vertex 113.68468741741837 -207.20671428190016 11.97900000000001
  endloop
endfacet
facet normal -0.9914447603593702 -0.1305269594986065 1.3631524778808348e-31
  outer loop
    vertex 113.68468741741837 -207.20671428190016 2.420000000000011
    vertex 113.57748941741836 -206.3924695019002 11.97900000000001
    vertex 113.57748941741836 -206.3924695019002 2.420000000000011
  endloop
endfacet
facet normal -0.9238793652715882 -0.38268383611718865 -3.996541568515264e-31
  outer loop
    vertex 113.26320241741837 -205.63371450190016 11.97900000000001
    vertex 113.57748941741836 -206.3924695019002 2.420000000000011
    vertex 113.57748941741836 -206.3924695019002 11.97900000000001
  endloop
endfacet
facet normal -0.9238793652715882 -0.38268383611718865 -3.996541568515264e-31
  outer loop
    vertex 113.57748941741836 -206.3924695019002 2.420000000000011
    vertex 113.26320241741837 -205.63371450190016 11.97900000000001
    vertex 113.26320241741837 -205.63371450190016 2.420000000000011
  endloop
endfacet
facet normal -0.7933533624223273 -0.6087614001669187 -0.0
  outer loop
    vertex 112.76324441741836 -204.98215650190016 11.97900000000001
    vertex 113.26320241741837 -205.63371450190016 2.420000000000011
    vertex 113.26320241741837 -205.63371450190016 11.97900000000001
  endloop
endfacet
facet normal -0.7933533624223273 -0.6087614001669187 -0.0
  outer loop
    vertex 113.26320241741837 -205.63371450190016 2.420000000000011
    vertex 112.76324441741836 -204.98215650190016 11.97900000000001
    vertex 112.76324441741836 -204.98215650190016 2.420000000000011
  endloop
endfacet
facet normal -0.0 -1.0 -0.0
  outer loop
    vertex 116.81980241741837 -213.06348350190015 13.189000000000009
    vertex 104.71980241741836 -213.06348350190015 1.1279865945205804e-14
    vertex 116.81980241741837 -213.06348350190015 1.1279865945205804e-14
  endloop
endfacet
facet normal -0.0 -1.0 -0.0
  outer loop
    vertex 104.71980241741836 -213.06348350190015 1.1279865945205804e-14
    vertex 116.81980241741837 -213.06348350190015 13.189000000000009
    vertex 104.71980241741836 -213.06348350190015 13.189000000000009
  endloop
endfacet
facet normal 0.9238797431800013 0.38268292376542584 2.017621831242937e-17
  outer loop
    vertex 106.91549941741837 -208.1775445019002 11.97900000000001
    vertex 107.29022541741836 -209.08221450190015 13.189000000000009
    vertex 107.29022541741836 -209.08221450190015 11.97900000000001
  endloop
endfacet
facet normal 0.9238797431800013 0.38268292376542584 2.017621831242937e-17
  outer loop
    vertex 107.29022541741836 -209.08221450190015 13.189000000000009
    vertex 106.91549941741837 -208.1775445019002 11.97900000000001
    vertex 106.91549941741837 -208.1775445019002 13.189000000000009
  endloop
endfacet
facet normal 0.9914447587131523 0.13052697200279742 -3.1180080590656735e-18
  outer loop
    vertex 106.78768641741837 -207.20671428190016 11.97900000000001
    vertex 106.91549941741837 -208.1775445019002 13.189000000000009
    vertex 106.91549941741837 -208.1775445019002 11.97900000000001
  endloop
endfacet
facet normal 0.9914447587131523 0.13052697200279742 -3.1180080590656735e-18
  outer loop
    vertex 106.91549941741837 -208.1775445019002 13.189000000000009
    vertex 106.78768641741837 -207.20671428190016 11.97900000000001
    vertex 106.78768641741837 -207.20671428190016 13.189000000000009
  endloop
endfacet
facet normal -0.9914447597570989 -0.13052696407328523 -0.0
  outer loop
    vertex 114.16187441741837 -206.23588400190016 13.189000000000009
    vertex 114.28968741741835 -207.20671428190016 11.97900000000001
    vertex 114.28968741741835 -207.20671428190016 13.189000000000009
  endloop
endfacet
facet normal -0.9914447597570989 -0.13052696407328523 -0.0
  outer loop
    vertex 114.28968741741835 -207.20671428190016 11.97900000000001
    vertex 114.16187441741837 -206.23588400190016 13.189000000000009
    vertex 114.16187441741837 -206.23588400190016 11.97900000000001
  endloop
endfacet
facet normal -0.9238796684020123 -0.38268310429569247 -0.0
  outer loop
    vertex 113.78714841741836 -205.3312145019002 13.189000000000009
    vertex 114.16187441741837 -206.23588400190016 11.97900000000001
    vertex 114.16187441741837 -206.23588400190016 13.189000000000009
  endloop
endfacet
facet normal -0.9238796684020123 -0.38268310429569247 -0.0
  outer loop
    vertex 114.16187441741837 -206.23588400190016 11.97900000000001
    vertex 113.78714841741836 -205.3312145019002 13.189000000000009
    vertex 113.78714841741836 -205.3312145019002 11.97900000000001
  endloop
endfacet
endsolid Design - Rolled
