solid Design - Rolled
facet normal 0.0 0.0 -1.0
  outer loop
    vertex -220.90561552774702 1128.4412837698749 111.3125000152661
    vertex -216.855615527747 1120.6912837698749 111.3125000152661
    vertex -220.90561552774702 1112.9412837698749 111.3125000152661
  endloop
endfacet
facet normal 0.0 0.0 -1.0
  outer loop
    vertex -216.855615527747 1120.6912837698749 111.3125000152661
    vertex -220.90561552774702 1128.4412837698749 111.3125000152661
    vertex -215.00561552774698 1123.8955777638773 111.3125000152661
  endloop
endfacet
facet normal 0.0 0.0 -1.0
  outer loop
    vertex -215.00561552774698 1123.8955777638773 111.3125000152661
    vertex -220.90561552774702 1128.4412837698749 111.3125000152661
    vertex -205.40561552774705 1128.4412837698749 111.3125000152661
  endloop
endfacet
facet normal 0.0 0.0 -1.0
  outer loop
    vertex -215.00561552774698 1123.8955777638773 111.3125000152661
    vertex -205.40561552774705 1128.4412837698749 111.3125000152661
    vertex -211.30561552774697 1123.8955777638773 111.3125000152661
  endloop
endfacet
facet normal 0.0 0.0 -1.0
  outer loop
    vertex -211.30561552774697 1123.8955777638773 111.3125000152661
    vertex -205.40561552774705 1128.4412837698749 111.3125000152661
    vertex -209.45561552774697 1120.6912837698749 111.3125000152661
  endloop
endfacet
facet normal 0.0 0.0 -1.0
  outer loop
    vertex -220.90561552774702 1112.9412837698749 111.3125000152661
    vertex -215.005615527747 1117.4869897758724 111.3125000152661
    vertex -205.40561552774705 1112.9412837698749 111.3125000152661
  endloop
endfacet
facet normal 0.0 0.0 -1.0
  outer loop
    vertex -215.005615527747 1117.4869897758724 111.3125000152661
    vertex -220.90561552774702 1112.9412837698749 111.3125000152661
    vertex -216.855615527747 1120.6912837698749 111.3125000152661
  endloop
endfacet
facet normal 0.0 0.0 -1.0
  outer loop
    vertex -205.40561552774705 1112.9412837698749 111.3125000152661
    vertex -215.005615527747 1117.4869897758724 111.3125000152661
    vertex -211.305615527747 1117.4869897758724 111.3125000152661
  endloop
endfacet
facet normal 0.0 0.0 -1.0
  outer loop
    vertex -205.40561552774705 1112.9412837698749 111.3125000152661
    vertex -211.305615527747 1117.4869897758724 111.3125000152661
    vertex -209.45561552774697 1120.6912837698749 111.3125000152661
  endloop
endfacet
facet normal 0.0 0.0 -1.0
  outer loop
    vertex -205.40561552774705 1112.9412837698749 111.3125000152661
    vertex -209.45561552774697 1120.6912837698749 111.3125000152661
    vertex -205.40561552774705 1128.4412837698749 111.3125000152661
  endloop
endfacet
facet normal 0.0 1.0 0.0
  outer loop
    vertex -220.90561552774702 1128.4412837698749 115.3125000152661
    vertex -205.40561552774705 1128.4412837698749 111.3125000152661
    vertex -220.90561552774702 1128.4412837698749 111.3125000152661
  endloop
endfacet
facet normal 0.0 1.0 0.0
  outer loop
    vertex -205.40561552774705 1128.4412837698749 111.3125000152661
    vertex -220.90561552774702 1128.4412837698749 115.3125000152661
    vertex -205.40561552774705 1128.4412837698749 115.3125000152661
  endloop
endfacet
facet normal -1.0 0.0 0.0
  outer loop
    vertex -220.90561552774702 1128.4412837698749 115.3125000152661
    vertex -220.90561552774702 1112.9412837698749 111.3125000152661
    vertex -220.90561552774702 1112.9412837698749 115.3125000152661
  endloop
endfacet
facet normal -1.0 0.0 0.0
  outer loop
    vertex -220.90561552774702 1112.9412837698749 111.3125000152661
    vertex -220.90561552774702 1128.4412837698749 115.3125000152661
    vertex -220.90561552774702 1128.4412837698749 111.3125000152661
  endloop
endfacet
facet normal 0.0 -1.0 0.0
  outer loop
    vertex -205.40561552774705 1112.9412837698749 115.3125000152661
    vertex -220.90561552774702 1112.9412837698749 111.3125000152661
    vertex -205.40561552774705 1112.9412837698749 111.3125000152661
  endloop
endfacet
facet normal 0.0 -1.0 0.0
  outer loop
    vertex -220.90561552774702 1112.9412837698749 111.3125000152661
    vertex -205.40561552774705 1112.9412837698749 115.3125000152661
    vertex -220.90561552774702 1112.9412837698749 115.3125000152661
  endloop
endfacet
facet normal 1.0 0.0 0.0
  outer loop
    vertex -205.40561552774705 1128.4412837698749 111.3125000152661
    vertex -205.40561552774705 1112.9412837698749 115.3125000152661
    vertex -205.40561552774705 1112.9412837698749 111.3125000152661
  endloop
endfacet
facet normal 1.0 0.0 0.0
  outer loop
    vertex -205.40561552774705 1112.9412837698749 115.3125000152661
    vertex -205.40561552774705 1128.4412837698749 111.3125000152661
    vertex -205.40561552774705 1128.4412837698749 115.3125000152661
  endloop
endfacet
facet normal 0.0 0.0 1.0
  outer loop
    vertex -220.90561552774702 1112.9412837698749 115.3125000152661
    vertex -218.95117048548138 1119.1383694992596 115.3125000152661
    vertex -220.90561552774702 1128.4412837698749 115.3125000152661
  endloop
endfacet
facet normal 0.0 0.0 1.0
  outer loop
    vertex -218.95117048548138 1119.1383694992596 115.3125000152661
    vertex -220.90561552774702 1112.9412837698749 115.3125000152661
    vertex -218.35176795045368 1117.6912837698749 115.3125000152661
  endloop
endfacet
facet normal 0.0 0.0 1.0
  outer loop
    vertex -218.35176795045368 1117.6912837698749 115.3125000152661
    vertex -220.90561552774702 1112.9412837698749 115.3125000152661
    vertex -217.39825621486628 1116.4486430827556 115.3125000152661
  endloop
endfacet
facet normal 0.0 0.0 1.0
  outer loop
    vertex -217.39825621486628 1116.4486430827556 115.3125000152661
    vertex -220.90561552774702 1112.9412837698749 115.3125000152661
    vertex -216.15561552774702 1115.4951313471681 115.3125000152661
  endloop
endfacet
facet normal 0.0 0.0 1.0
  outer loop
    vertex -216.15561552774702 1115.4951313471681 115.3125000152661
    vertex -220.90561552774702 1112.9412837698749 115.3125000152661
    vertex -214.7085297983621 1114.8957288121405 115.3125000152661
  endloop
endfacet
facet normal 0.0 0.0 1.0
  outer loop
    vertex -214.7085297983621 1114.8957288121405 115.3125000152661
    vertex -220.90561552774702 1112.9412837698749 115.3125000152661
    vertex -205.40561552774705 1112.9412837698749 115.3125000152661
  endloop
endfacet
facet normal 0.0 0.0 1.0
  outer loop
    vertex -220.90561552774702 1128.4412837698749 115.3125000152661
    vertex -218.95117048548138 1119.1383694992596 115.3125000152661
    vertex -219.15561552774707 1120.6912837698749 115.3125000152661
  endloop
endfacet
facet normal 0.0 0.0 1.0
  outer loop
    vertex -214.7085297983621 1114.8957288121405 115.3125000152661
    vertex -205.40561552774705 1112.9412837698749 115.3125000152661
    vertex -213.155615527747 1114.6912837698749 115.3125000152661
  endloop
endfacet
facet normal 0.0 0.0 1.0
  outer loop
    vertex -213.155615527747 1114.6912837698749 115.3125000152661
    vertex -205.40561552774705 1112.9412837698749 115.3125000152661
    vertex -211.60270125713188 1114.8957288121405 115.3125000152661
  endloop
endfacet
facet normal 0.0 0.0 1.0
  outer loop
    vertex -211.60270125713188 1114.8957288121405 115.3125000152661
    vertex -205.40561552774705 1112.9412837698749 115.3125000152661
    vertex -210.15561552774705 1115.4951313471681 115.3125000152661
  endloop
endfacet
facet normal 0.0 0.0 1.0
  outer loop
    vertex -210.15561552774705 1115.4951313471681 115.3125000152661
    vertex -205.40561552774705 1112.9412837698749 115.3125000152661
    vertex -208.9129748406277 1116.4486430827556 115.3125000152661
  endloop
endfacet
facet normal 0.0 0.0 1.0
  outer loop
    vertex -208.9129748406277 1116.4486430827556 115.3125000152661
    vertex -205.40561552774705 1112.9412837698749 115.3125000152661
    vertex -207.95946310504038 1117.6912837698749 115.3125000152661
  endloop
endfacet
facet normal 0.0 0.0 1.0
  outer loop
    vertex -207.95946310504038 1117.6912837698749 115.3125000152661
    vertex -205.40561552774705 1112.9412837698749 115.3125000152661
    vertex -207.36006057001256 1119.1383694992596 115.3125000152661
  endloop
endfacet
facet normal 0.0 0.0 1.0
  outer loop
    vertex -207.36006057001256 1119.1383694992596 115.3125000152661
    vertex -205.40561552774705 1112.9412837698749 115.3125000152661
    vertex -207.155615527747 1120.6912837698749 115.3125000152661
  endloop
endfacet
facet normal 0.0 0.0 1.0
  outer loop
    vertex -220.90561552774702 1128.4412837698749 115.3125000152661
    vertex -214.70852979836218 1126.4868387276094 115.3125000152661
    vertex -205.40561552774705 1128.4412837698749 115.3125000152661
  endloop
endfacet
facet normal 0.0 0.0 1.0
  outer loop
    vertex -214.70852979836218 1126.4868387276094 115.3125000152661
    vertex -220.90561552774702 1128.4412837698749 115.3125000152661
    vertex -216.15561552774702 1125.8874361925814 115.3125000152661
  endloop
endfacet
facet normal 0.0 0.0 1.0
  outer loop
    vertex -216.15561552774702 1125.8874361925814 115.3125000152661
    vertex -220.90561552774702 1128.4412837698749 115.3125000152661
    vertex -217.39825621486628 1124.9339244569942 115.3125000152661
  endloop
endfacet
facet normal 0.0 0.0 1.0
  outer loop
    vertex -217.39825621486628 1124.9339244569942 115.3125000152661
    vertex -220.90561552774702 1128.4412837698749 115.3125000152661
    vertex -218.35176795045368 1123.6912837698749 115.3125000152661
  endloop
endfacet
facet normal 0.0 0.0 1.0
  outer loop
    vertex -218.35176795045368 1123.6912837698749 115.3125000152661
    vertex -220.90561552774702 1128.4412837698749 115.3125000152661
    vertex -218.95117048548138 1122.24419804049 115.3125000152661
  endloop
endfacet
facet normal 0.0 0.0 1.0
  outer loop
    vertex -218.95117048548138 1122.24419804049 115.3125000152661
    vertex -220.90561552774702 1128.4412837698749 115.3125000152661
    vertex -219.15561552774707 1120.6912837698749 115.3125000152661
  endloop
endfacet
facet normal 0.0 0.0 1.0
  outer loop
    vertex -205.40561552774705 1128.4412837698749 115.3125000152661
    vertex -214.70852979836218 1126.4868387276094 115.3125000152661
    vertex -213.155615527747 1126.6912837698749 115.3125000152661
  endloop
endfacet
facet normal 0.0 0.0 1.0
  outer loop
    vertex -205.40561552774705 1128.4412837698749 115.3125000152661
    vertex -213.155615527747 1126.6912837698749 115.3125000152661
    vertex -211.60270125713188 1126.4868387276094 115.3125000152661
  endloop
endfacet
facet normal 0.0 0.0 1.0
  outer loop
    vertex -205.40561552774705 1128.4412837698749 115.3125000152661
    vertex -211.60270125713188 1126.4868387276094 115.3125000152661
    vertex -210.15561552774705 1125.8874361925814 115.3125000152661
  endloop
endfacet
facet normal 0.0 0.0 1.0
  outer loop
    vertex -205.40561552774705 1128.4412837698749 115.3125000152661
    vertex -210.15561552774705 1125.8874361925814 115.3125000152661
    vertex -208.9129748406277 1124.9339244569942 115.3125000152661
  endloop
endfacet
facet normal 0.0 0.0 1.0
  outer loop
    vertex -205.40561552774705 1128.4412837698749 115.3125000152661
    vertex -208.9129748406277 1124.9339244569942 115.3125000152661
    vertex -207.95946310504038 1123.6912837698749 115.3125000152661
  endloop
endfacet
facet normal 0.0 0.0 1.0
  outer loop
    vertex -205.40561552774705 1128.4412837698749 115.3125000152661
    vertex -207.95946310504038 1123.6912837698749 115.3125000152661
    vertex -207.36006057001256 1122.24419804049 115.3125000152661
  endloop
endfacet
facet normal 0.0 0.0 1.0
  outer loop
    vertex -205.40561552774705 1128.4412837698749 115.3125000152661
    vertex -207.36006057001256 1122.24419804049 115.3125000152661
    vertex -207.155615527747 1120.6912837698749 115.3125000152661
  endloop
endfacet
facet normal 0.0 0.0 1.0
  outer loop
    vertex -205.40561552774705 1128.4412837698749 115.3125000152661
    vertex -207.155615527747 1120.6912837698749 115.3125000152661
    vertex -205.40561552774705 1112.9412837698749 115.3125000152661
  endloop
endfacet
facet normal 0.0 0.0 1.0
  outer loop
    vertex -218.95117048548138 1119.1383694992596 111.8125000152661
    vertex -218.95117048548138 1122.24419804049 111.8125000152661
    vertex -219.15561552774707 1120.6912837698749 111.8125000152661
  endloop
endfacet
facet normal 0.0 0.0 1.0
  outer loop
    vertex -218.95117048548138 1122.24419804049 111.8125000152661
    vertex -218.95117048548138 1119.1383694992596 111.8125000152661
    vertex -218.35176795045368 1117.6912837698749 111.8125000152661
  endloop
endfacet
facet normal 0.0 0.0 1.0
  outer loop
    vertex -218.95117048548138 1122.24419804049 111.8125000152661
    vertex -218.35176795045368 1117.6912837698749 111.8125000152661
    vertex -218.35176795045368 1123.6912837698749 111.8125000152661
  endloop
endfacet
facet normal 0.0 0.0 1.0
  outer loop
    vertex -218.35176795045368 1123.6912837698749 111.8125000152661
    vertex -218.35176795045368 1117.6912837698749 111.8125000152661
    vertex -217.39825621486628 1116.4486430827556 111.8125000152661
  endloop
endfacet
facet normal 0.0 0.0 1.0
  outer loop
    vertex -218.35176795045368 1123.6912837698749 111.8125000152661
    vertex -217.39825621486628 1116.4486430827556 111.8125000152661
    vertex -217.39825621486628 1124.9339244569942 111.8125000152661
  endloop
endfacet
facet normal 0.0 0.0 1.0
  outer loop
    vertex -217.39825621486628 1124.9339244569942 111.8125000152661
    vertex -217.39825621486628 1116.4486430827556 111.8125000152661
    vertex -216.15561552774702 1115.4951313471681 111.8125000152661
  endloop
endfacet
facet normal 0.0 0.0 1.0
  outer loop
    vertex -217.39825621486628 1124.9339244569942 111.8125000152661
    vertex -216.15561552774702 1115.4951313471681 111.8125000152661
    vertex -216.15561552774702 1125.8874361925814 111.8125000152661
  endloop
endfacet
facet normal 0.0 0.0 1.0
  outer loop
    vertex -216.15561552774702 1125.8874361925814 111.8125000152661
    vertex -216.15561552774702 1115.4951313471681 111.8125000152661
    vertex -214.7085297983621 1114.8957288121405 111.8125000152661
  endloop
endfacet
facet normal 0.0 0.0 1.0
  outer loop
    vertex -216.15561552774702 1125.8874361925814 111.8125000152661
    vertex -214.7085297983621 1114.8957288121405 111.8125000152661
    vertex -215.055615527747 1120.6912837698749 111.8125000152661
  endloop
endfacet
facet normal 0.0 0.0 1.0
  outer loop
    vertex -215.055615527747 1120.6912837698749 111.8125000152661
    vertex -214.7085297983621 1114.8957288121405 111.8125000152661
    vertex -214.99087459769626 1120.19952758418 111.8125000152661
  endloop
endfacet
facet normal 0.0 0.0 1.0
  outer loop
    vertex -214.99087459769626 1120.19952758418 111.8125000152661
    vertex -214.7085297983621 1114.8957288121405 111.8125000152661
    vertex -214.80106379493748 1119.7412837698748 111.8125000152661
  endloop
endfacet
facet normal 0.0 0.0 1.0
  outer loop
    vertex -214.80106379493748 1119.7412837698748 111.8125000152661
    vertex -214.7085297983621 1114.8957288121405 111.8125000152661
    vertex -214.49911841200145 1119.3477808856205 111.8125000152661
  endloop
endfacet
facet normal 0.0 0.0 1.0
  outer loop
    vertex -214.49911841200145 1119.3477808856205 111.8125000152661
    vertex -214.7085297983621 1114.8957288121405 111.8125000152661
    vertex -213.155615527747 1114.6912837698749 111.8125000152661
  endloop
endfacet
facet normal 0.0 0.0 1.0
  outer loop
    vertex -214.49911841200145 1119.3477808856205 111.8125000152661
    vertex -213.155615527747 1114.6912837698749 111.8125000152661
    vertex -214.10561552774703 1119.0458355026844 111.8125000152661
  endloop
endfacet
facet normal 0.0 0.0 1.0
  outer loop
    vertex -214.10561552774703 1119.0458355026844 111.8125000152661
    vertex -213.155615527747 1114.6912837698749 111.8125000152661
    vertex -213.6473717134418 1118.8560246999257 111.8125000152661
  endloop
endfacet
facet normal 0.0 0.0 1.0
  outer loop
    vertex -213.6473717134418 1118.8560246999257 111.8125000152661
    vertex -213.155615527747 1114.6912837698749 111.8125000152661
    vertex -213.155615527747 1118.7912837698748 111.8125000152661
  endloop
endfacet
facet normal 0.0 0.0 1.0
  outer loop
    vertex -213.155615527747 1118.7912837698748 111.8125000152661
    vertex -213.155615527747 1114.6912837698749 111.8125000152661
    vertex -211.60270125713188 1114.8957288121405 111.8125000152661
  endloop
endfacet
facet normal 0.0 0.0 1.0
  outer loop
    vertex -213.155615527747 1118.7912837698748 111.8125000152661
    vertex -211.60270125713188 1114.8957288121405 111.8125000152661
    vertex -212.66385934205226 1118.8560246999257 111.8125000152661
  endloop
endfacet
facet normal 0.0 0.0 1.0
  outer loop
    vertex -212.66385934205226 1118.8560246999257 111.8125000152661
    vertex -211.60270125713188 1114.8957288121405 111.8125000152661
    vertex -212.20561552774703 1119.0458355026844 111.8125000152661
  endloop
endfacet
facet normal 0.0 0.0 1.0
  outer loop
    vertex -212.20561552774703 1119.0458355026844 111.8125000152661
    vertex -211.60270125713188 1114.8957288121405 111.8125000152661
    vertex -211.8121126434926 1119.3477808856205 111.8125000152661
  endloop
endfacet
facet normal 0.0 0.0 1.0
  outer loop
    vertex -211.8121126434926 1119.3477808856205 111.8125000152661
    vertex -211.60270125713188 1114.8957288121405 111.8125000152661
    vertex -211.51016726055659 1119.7412837698748 111.8125000152661
  endloop
endfacet
facet normal 0.0 0.0 1.0
  outer loop
    vertex -211.51016726055659 1119.7412837698748 111.8125000152661
    vertex -211.60270125713188 1114.8957288121405 111.8125000152661
    vertex -210.15561552774705 1115.4951313471681 111.8125000152661
  endloop
endfacet
facet normal 0.0 0.0 1.0
  outer loop
    vertex -211.51016726055659 1119.7412837698748 111.8125000152661
    vertex -210.15561552774705 1115.4951313471681 111.8125000152661
    vertex -211.3203564577978 1120.19952758418 111.8125000152661
  endloop
endfacet
facet normal 0.0 0.0 1.0
  outer loop
    vertex -211.3203564577978 1120.19952758418 111.8125000152661
    vertex -210.15561552774705 1115.4951313471681 111.8125000152661
    vertex -211.25561552774707 1120.6912837698749 111.8125000152661
  endloop
endfacet
facet normal 0.0 0.0 1.0
  outer loop
    vertex -215.055615527747 1120.6912837698749 111.8125000152661
    vertex -214.70852979836218 1126.4868387276094 111.8125000152661
    vertex -216.15561552774702 1125.8874361925814 111.8125000152661
  endloop
endfacet
facet normal 0.0 0.0 1.0
  outer loop
    vertex -214.70852979836218 1126.4868387276094 111.8125000152661
    vertex -215.055615527747 1120.6912837698749 111.8125000152661
    vertex -214.99087459769626 1121.1830399555697 111.8125000152661
  endloop
endfacet
facet normal 0.0 0.0 1.0
  outer loop
    vertex -214.70852979836218 1126.4868387276094 111.8125000152661
    vertex -214.99087459769626 1121.1830399555697 111.8125000152661
    vertex -214.80106379493748 1121.641283769875 111.8125000152661
  endloop
endfacet
facet normal 0.0 0.0 1.0
  outer loop
    vertex -214.70852979836218 1126.4868387276094 111.8125000152661
    vertex -214.80106379493748 1121.641283769875 111.8125000152661
    vertex -214.49911841200145 1122.0347866541292 111.8125000152661
  endloop
endfacet
facet normal 0.0 0.0 1.0
  outer loop
    vertex -214.70852979836218 1126.4868387276094 111.8125000152661
    vertex -214.49911841200145 1122.0347866541292 111.8125000152661
    vertex -213.155615527747 1126.6912837698749 111.8125000152661
  endloop
endfacet
facet normal 0.0 0.0 1.0
  outer loop
    vertex -213.155615527747 1126.6912837698749 111.8125000152661
    vertex -214.49911841200145 1122.0347866541292 111.8125000152661
    vertex -214.10561552774703 1122.3367320370653 111.8125000152661
  endloop
endfacet
facet normal 0.0 0.0 1.0
  outer loop
    vertex -213.155615527747 1126.6912837698749 111.8125000152661
    vertex -214.10561552774703 1122.3367320370653 111.8125000152661
    vertex -213.6473717134418 1122.526542839824 111.8125000152661
  endloop
endfacet
facet normal 0.0 0.0 1.0
  outer loop
    vertex -213.155615527747 1126.6912837698749 111.8125000152661
    vertex -213.6473717134418 1122.526542839824 111.8125000152661
    vertex -213.155615527747 1122.591283769875 111.8125000152661
  endloop
endfacet
facet normal 0.0 0.0 1.0
  outer loop
    vertex -213.155615527747 1126.6912837698749 111.8125000152661
    vertex -213.155615527747 1122.591283769875 111.8125000152661
    vertex -212.66385934205226 1122.526542839824 111.8125000152661
  endloop
endfacet
facet normal 0.0 0.0 1.0
  outer loop
    vertex -213.155615527747 1126.6912837698749 111.8125000152661
    vertex -212.66385934205226 1122.526542839824 111.8125000152661
    vertex -211.60270125713188 1126.4868387276094 111.8125000152661
  endloop
endfacet
facet normal 0.0 0.0 1.0
  outer loop
    vertex -211.60270125713188 1126.4868387276094 111.8125000152661
    vertex -212.66385934205226 1122.526542839824 111.8125000152661
    vertex -212.20561552774703 1122.3367320370653 111.8125000152661
  endloop
endfacet
facet normal 0.0 0.0 1.0
  outer loop
    vertex -211.60270125713188 1126.4868387276094 111.8125000152661
    vertex -212.20561552774703 1122.3367320370653 111.8125000152661
    vertex -211.8121126434926 1122.0347866541292 111.8125000152661
  endloop
endfacet
facet normal 0.0 0.0 1.0
  outer loop
    vertex -211.60270125713188 1126.4868387276094 111.8125000152661
    vertex -211.8121126434926 1122.0347866541292 111.8125000152661
    vertex -211.51016726055659 1121.641283769875 111.8125000152661
  endloop
endfacet
facet normal 0.0 0.0 1.0
  outer loop
    vertex -211.60270125713188 1126.4868387276094 111.8125000152661
    vertex -211.51016726055659 1121.641283769875 111.8125000152661
    vertex -210.15561552774705 1125.8874361925814 111.8125000152661
  endloop
endfacet
facet normal 0.0 0.0 1.0
  outer loop
    vertex -210.15561552774705 1125.8874361925814 111.8125000152661
    vertex -211.51016726055659 1121.641283769875 111.8125000152661
    vertex -211.3203564577978 1121.1830399555697 111.8125000152661
  endloop
endfacet
facet normal 0.0 0.0 1.0
  outer loop
    vertex -210.15561552774705 1125.8874361925814 111.8125000152661
    vertex -211.3203564577978 1121.1830399555697 111.8125000152661
    vertex -211.25561552774707 1120.6912837698749 111.8125000152661
  endloop
endfacet
facet normal 0.0 0.0 1.0
  outer loop
    vertex -210.15561552774705 1125.8874361925814 111.8125000152661
    vertex -211.25561552774707 1120.6912837698749 111.8125000152661
    vertex -210.15561552774705 1115.4951313471681 111.8125000152661
  endloop
endfacet
facet normal 0.0 0.0 1.0
  outer loop
    vertex -210.15561552774705 1125.8874361925814 111.8125000152661
    vertex -210.15561552774705 1115.4951313471681 111.8125000152661
    vertex -208.9129748406277 1116.4486430827556 111.8125000152661
  endloop
endfacet
facet normal 0.0 0.0 1.0
  outer loop
    vertex -210.15561552774705 1125.8874361925814 111.8125000152661
    vertex -208.9129748406277 1116.4486430827556 111.8125000152661
    vertex -208.9129748406277 1124.9339244569942 111.8125000152661
  endloop
endfacet
facet normal 0.0 0.0 1.0
  outer loop
    vertex -208.9129748406277 1124.9339244569942 111.8125000152661
    vertex -208.9129748406277 1116.4486430827556 111.8125000152661
    vertex -207.95946310504038 1117.6912837698749 111.8125000152661
  endloop
endfacet
facet normal 0.0 0.0 1.0
  outer loop
    vertex -208.9129748406277 1124.9339244569942 111.8125000152661
    vertex -207.95946310504038 1117.6912837698749 111.8125000152661
    vertex -207.95946310504038 1123.6912837698749 111.8125000152661
  endloop
endfacet
facet normal 0.0 0.0 1.0
  outer loop
    vertex -207.95946310504038 1123.6912837698749 111.8125000152661
    vertex -207.95946310504038 1117.6912837698749 111.8125000152661
    vertex -207.36006057001256 1119.1383694992596 111.8125000152661
  endloop
endfacet
facet normal 0.0 0.0 1.0
  outer loop
    vertex -207.95946310504038 1123.6912837698749 111.8125000152661
    vertex -207.36006057001256 1119.1383694992596 111.8125000152661
    vertex -207.36006057001256 1122.24419804049 111.8125000152661
  endloop
endfacet
facet normal 0.0 0.0 1.0
  outer loop
    vertex -207.36006057001256 1122.24419804049 111.8125000152661
    vertex -207.36006057001256 1119.1383694992596 111.8125000152661
    vertex -207.155615527747 1120.6912837698749 111.8125000152661
  endloop
endfacet
facet normal -0.9914448613738114 0.1305261922200446 0.0
  outer loop
    vertex -207.155615527747 1120.6912837698749 115.3125000152661
    vertex -207.36006057001256 1119.1383694992596 111.8125000152661
    vertex -207.36006057001256 1119.1383694992596 115.3125000152661
  endloop
endfacet
facet normal -0.9914448613738114 0.1305261922200446 0.0
  outer loop
    vertex -207.36006057001256 1119.1383694992596 111.8125000152661
    vertex -207.155615527747 1120.6912837698749 115.3125000152661
    vertex -207.155615527747 1120.6912837698749 111.8125000152661
  endloop
endfacet
facet normal -0.9914448613738114 -0.1305261922200446 -0.0
  outer loop
    vertex -207.36006057001256 1122.24419804049 115.3125000152661
    vertex -207.155615527747 1120.6912837698749 111.8125000152661
    vertex -207.155615527747 1120.6912837698749 115.3125000152661
  endloop
endfacet
facet normal -0.9914448613738114 -0.1305261922200446 -0.0
  outer loop
    vertex -207.155615527747 1120.6912837698749 111.8125000152661
    vertex -207.36006057001256 1122.24419804049 115.3125000152661
    vertex -207.36006057001256 1122.24419804049 111.8125000152661
  endloop
endfacet
facet normal -0.923879532511285 -0.38268343236509444 -0.0
  outer loop
    vertex -207.95946310504038 1123.6912837698749 115.3125000152661
    vertex -207.36006057001256 1122.24419804049 111.8125000152661
    vertex -207.36006057001256 1122.24419804049 115.3125000152661
  endloop
endfacet
facet normal -0.923879532511285 -0.38268343236509444 -0.0
  outer loop
    vertex -207.36006057001256 1122.24419804049 111.8125000152661
    vertex -207.95946310504038 1123.6912837698749 115.3125000152661
    vertex -207.95946310504038 1123.6912837698749 111.8125000152661
  endloop
endfacet
facet normal -0.7933533402912407 -0.6087614290087133 -0.0
  outer loop
    vertex -208.9129748406277 1124.9339244569942 115.3125000152661
    vertex -207.95946310504038 1123.6912837698749 111.8125000152661
    vertex -207.95946310504038 1123.6912837698749 115.3125000152661
  endloop
endfacet
facet normal -0.7933533402912407 -0.6087614290087133 -0.0
  outer loop
    vertex -207.95946310504038 1123.6912837698749 111.8125000152661
    vertex -208.9129748406277 1124.9339244569942 115.3125000152661
    vertex -208.9129748406277 1124.9339244569942 111.8125000152661
  endloop
endfacet
facet normal -0.608761429008715 -0.7933533402912395 -0.0
  outer loop
    vertex -208.9129748406277 1124.9339244569942 115.3125000152661
    vertex -210.15561552774705 1125.8874361925814 111.8125000152661
    vertex -208.9129748406277 1124.9339244569942 111.8125000152661
  endloop
endfacet
facet normal -0.608761429008715 -0.7933533402912395 -0.0
  outer loop
    vertex -210.15561552774705 1125.8874361925814 111.8125000152661
    vertex -208.9129748406277 1124.9339244569942 115.3125000152661
    vertex -210.15561552774705 1125.8874361925814 115.3125000152661
  endloop
endfacet
facet normal -0.38268343236509006 -0.9238795325112867 -0.0
  outer loop
    vertex -210.15561552774705 1125.8874361925814 115.3125000152661
    vertex -211.60270125713188 1126.4868387276094 111.8125000152661
    vertex -210.15561552774705 1125.8874361925814 111.8125000152661
  endloop
endfacet
facet normal -0.38268343236509006 -0.9238795325112867 -0.0
  outer loop
    vertex -211.60270125713188 1126.4868387276094 111.8125000152661
    vertex -210.15561552774705 1125.8874361925814 115.3125000152661
    vertex -211.60270125713188 1126.4868387276094 115.3125000152661
  endloop
endfacet
facet normal -0.13052619222005263 -0.9914448613738104 -0.0
  outer loop
    vertex -211.60270125713188 1126.4868387276094 115.3125000152661
    vertex -213.155615527747 1126.6912837698749 111.8125000152661
    vertex -211.60270125713188 1126.4868387276094 111.8125000152661
  endloop
endfacet
facet normal -0.13052619222005263 -0.9914448613738104 -0.0
  outer loop
    vertex -213.155615527747 1126.6912837698749 111.8125000152661
    vertex -211.60270125713188 1126.4868387276094 115.3125000152661
    vertex -213.155615527747 1126.6912837698749 115.3125000152661
  endloop
endfacet
facet normal 0.13052619222005074 -0.9914448613738105 0.0
  outer loop
    vertex -213.155615527747 1126.6912837698749 115.3125000152661
    vertex -214.70852979836218 1126.4868387276094 111.8125000152661
    vertex -213.155615527747 1126.6912837698749 111.8125000152661
  endloop
endfacet
facet normal 0.13052619222005074 -0.9914448613738105 0.0
  outer loop
    vertex -214.70852979836218 1126.4868387276094 111.8125000152661
    vertex -213.155615527747 1126.6912837698749 115.3125000152661
    vertex -214.70852979836218 1126.4868387276094 115.3125000152661
  endloop
endfacet
facet normal 0.38268343236509256 -0.9238795325112856 0.0
  outer loop
    vertex -214.70852979836218 1126.4868387276094 115.3125000152661
    vertex -216.15561552774702 1125.8874361925814 111.8125000152661
    vertex -214.70852979836218 1126.4868387276094 111.8125000152661
  endloop
endfacet
facet normal 0.38268343236509256 -0.9238795325112856 0.0
  outer loop
    vertex -216.15561552774702 1125.8874361925814 111.8125000152661
    vertex -214.70852979836218 1126.4868387276094 115.3125000152661
    vertex -216.15561552774702 1125.8874361925814 115.3125000152661
  endloop
endfacet
facet normal 0.608761429008722 -0.7933533402912343 0.0
  outer loop
    vertex -216.15561552774702 1125.8874361925814 115.3125000152661
    vertex -217.39825621486628 1124.9339244569942 111.8125000152661
    vertex -216.15561552774702 1125.8874361925814 111.8125000152661
  endloop
endfacet
facet normal 0.608761429008722 -0.7933533402912343 0.0
  outer loop
    vertex -217.39825621486628 1124.9339244569942 111.8125000152661
    vertex -216.15561552774702 1125.8874361925814 115.3125000152661
    vertex -217.39825621486628 1124.9339244569942 115.3125000152661
  endloop
endfacet
facet normal 0.793353340291235 -0.6087614290087207 0.0
  outer loop
    vertex -217.39825621486628 1124.9339244569942 111.8125000152661
    vertex -218.35176795045368 1123.6912837698749 115.3125000152661
    vertex -218.35176795045368 1123.6912837698749 111.8125000152661
  endloop
endfacet
facet normal 0.793353340291235 -0.6087614290087207 0.0
  outer loop
    vertex -218.35176795045368 1123.6912837698749 115.3125000152661
    vertex -217.39825621486628 1124.9339244569942 111.8125000152661
    vertex -217.39825621486628 1124.9339244569942 115.3125000152661
  endloop
endfacet
facet normal 0.9238795325112874 -0.3826834323650882 0.0
  outer loop
    vertex -218.35176795045368 1123.6912837698749 111.8125000152661
    vertex -218.95117048548138 1122.24419804049 115.3125000152661
    vertex -218.95117048548138 1122.24419804049 111.8125000152661
  endloop
endfacet
facet normal 0.9238795325112874 -0.3826834323650882 0.0
  outer loop
    vertex -218.95117048548138 1122.24419804049 115.3125000152661
    vertex -218.35176795045368 1123.6912837698749 111.8125000152661
    vertex -218.35176795045368 1123.6912837698749 115.3125000152661
  endloop
endfacet
facet normal 0.9914448613738104 -0.13052619222005216 0.0
  outer loop
    vertex -218.95117048548138 1122.24419804049 111.8125000152661
    vertex -219.15561552774707 1120.6912837698749 115.3125000152661
    vertex -219.15561552774707 1120.6912837698749 111.8125000152661
  endloop
endfacet
facet normal 0.9914448613738104 -0.13052619222005216 0.0
  outer loop
    vertex -219.15561552774707 1120.6912837698749 115.3125000152661
    vertex -218.95117048548138 1122.24419804049 111.8125000152661
    vertex -218.95117048548138 1122.24419804049 115.3125000152661
  endloop
endfacet
facet normal 0.9914448613738105 0.13052619222005168 0.0
  outer loop
    vertex -219.15561552774707 1120.6912837698749 111.8125000152661
    vertex -218.95117048548138 1119.1383694992596 115.3125000152661
    vertex -218.95117048548138 1119.1383694992596 111.8125000152661
  endloop
endfacet
facet normal 0.9914448613738105 0.13052619222005168 0.0
  outer loop
    vertex -218.95117048548138 1119.1383694992596 115.3125000152661
    vertex -219.15561552774707 1120.6912837698749 111.8125000152661
    vertex -219.15561552774707 1120.6912837698749 115.3125000152661
  endloop
endfacet
facet normal 0.923879532511288 0.38268343236508695 0.0
  outer loop
    vertex -218.95117048548138 1119.1383694992596 111.8125000152661
    vertex -218.35176795045368 1117.6912837698749 115.3125000152661
    vertex -218.35176795045368 1117.6912837698749 111.8125000152661
  endloop
endfacet
facet normal 0.923879532511288 0.38268343236508695 0.0
  outer loop
    vertex -218.35176795045368 1117.6912837698749 115.3125000152661
    vertex -218.95117048548138 1119.1383694992596 111.8125000152661
    vertex -218.95117048548138 1119.1383694992596 115.3125000152661
  endloop
endfacet
facet normal 0.7933533402912324 0.6087614290087242 0.0
  outer loop
    vertex -218.35176795045368 1117.6912837698749 111.8125000152661
    vertex -217.39825621486628 1116.4486430827556 115.3125000152661
    vertex -217.39825621486628 1116.4486430827556 111.8125000152661
  endloop
endfacet
facet normal 0.7933533402912324 0.6087614290087242 0.0
  outer loop
    vertex -217.39825621486628 1116.4486430827556 115.3125000152661
    vertex -218.35176795045368 1117.6912837698749 111.8125000152661
    vertex -218.35176795045368 1117.6912837698749 115.3125000152661
  endloop
endfacet
facet normal 0.6087614290087207 0.793353340291235 0.0
  outer loop
    vertex -217.39825621486628 1116.4486430827556 115.3125000152661
    vertex -216.15561552774702 1115.4951313471681 111.8125000152661
    vertex -217.39825621486628 1116.4486430827556 111.8125000152661
  endloop
endfacet
facet normal 0.6087614290087207 0.793353340291235 0.0
  outer loop
    vertex -216.15561552774702 1115.4951313471681 111.8125000152661
    vertex -217.39825621486628 1116.4486430827556 115.3125000152661
    vertex -216.15561552774702 1115.4951313471681 115.3125000152661
  endloop
endfacet
facet normal 0.38268343236508695 0.923879532511288 0.0
  outer loop
    vertex -216.15561552774702 1115.4951313471681 115.3125000152661
    vertex -214.7085297983621 1114.8957288121405 111.8125000152661
    vertex -216.15561552774702 1115.4951313471681 111.8125000152661
  endloop
endfacet
facet normal 0.38268343236508695 0.923879532511288 0.0
  outer loop
    vertex -214.7085297983621 1114.8957288121405 111.8125000152661
    vertex -216.15561552774702 1115.4951313471681 115.3125000152661
    vertex -214.7085297983621 1114.8957288121405 115.3125000152661
  endloop
endfacet
facet normal 0.13052619222005263 0.9914448613738104 0.0
  outer loop
    vertex -214.7085297983621 1114.8957288121405 115.3125000152661
    vertex -213.155615527747 1114.6912837698749 111.8125000152661
    vertex -214.7085297983621 1114.8957288121405 111.8125000152661
  endloop
endfacet
facet normal 0.13052619222005263 0.9914448613738104 0.0
  outer loop
    vertex -213.155615527747 1114.6912837698749 111.8125000152661
    vertex -214.7085297983621 1114.8957288121405 115.3125000152661
    vertex -213.155615527747 1114.6912837698749 115.3125000152661
  endloop
endfacet
facet normal -0.13052619222005074 0.9914448613738105 0.0
  outer loop
    vertex -213.155615527747 1114.6912837698749 115.3125000152661
    vertex -211.60270125713188 1114.8957288121405 111.8125000152661
    vertex -213.155615527747 1114.6912837698749 111.8125000152661
  endloop
endfacet
facet normal -0.13052619222005074 0.9914448613738105 0.0
  outer loop
    vertex -211.60270125713188 1114.8957288121405 111.8125000152661
    vertex -213.155615527747 1114.6912837698749 115.3125000152661
    vertex -211.60270125713188 1114.8957288121405 115.3125000152661
  endloop
endfacet
facet normal -0.38268343236509206 0.9238795325112859 0.0
  outer loop
    vertex -211.60270125713188 1114.8957288121405 115.3125000152661
    vertex -210.15561552774705 1115.4951313471681 111.8125000152661
    vertex -211.60270125713188 1114.8957288121405 111.8125000152661
  endloop
endfacet
facet normal -0.38268343236509206 0.9238795325112859 0.0
  outer loop
    vertex -210.15561552774705 1115.4951313471681 111.8125000152661
    vertex -211.60270125713188 1114.8957288121405 115.3125000152661
    vertex -210.15561552774705 1115.4951313471681 115.3125000152661
  endloop
endfacet
facet normal -0.6087614290087172 0.7933533402912378 0.0
  outer loop
    vertex -210.15561552774705 1115.4951313471681 115.3125000152661
    vertex -208.9129748406277 1116.4486430827556 111.8125000152661
    vertex -210.15561552774705 1115.4951313471681 111.8125000152661
  endloop
endfacet
facet normal -0.6087614290087172 0.7933533402912378 0.0
  outer loop
    vertex -208.9129748406277 1116.4486430827556 111.8125000152661
    vertex -210.15561552774705 1115.4951313471681 115.3125000152661
    vertex -208.9129748406277 1116.4486430827556 115.3125000152661
  endloop
endfacet
facet normal -0.793353340291242 0.6087614290087117 0.0
  outer loop
    vertex -207.95946310504038 1117.6912837698749 115.3125000152661
    vertex -208.9129748406277 1116.4486430827556 111.8125000152661
    vertex -208.9129748406277 1116.4486430827556 115.3125000152661
  endloop
endfacet
facet normal -0.793353340291242 0.6087614290087117 0.0
  outer loop
    vertex -208.9129748406277 1116.4486430827556 111.8125000152661
    vertex -207.95946310504038 1117.6912837698749 115.3125000152661
    vertex -207.95946310504038 1117.6912837698749 111.8125000152661
  endloop
endfacet
facet normal -0.9238795325112844 0.3826834323650957 0.0
  outer loop
    vertex -207.36006057001256 1119.1383694992596 115.3125000152661
    vertex -207.95946310504038 1117.6912837698749 111.8125000152661
    vertex -207.95946310504038 1117.6912837698749 115.3125000152661
  endloop
endfacet
facet normal -0.9238795325112844 0.3826834323650957 0.0
  outer loop
    vertex -207.95946310504038 1117.6912837698749 111.8125000152661
    vertex -207.36006057001256 1119.1383694992596 115.3125000152661
    vertex -207.36006057001256 1119.1383694992596 111.8125000152661
  endloop
endfacet
facet normal 0.923879532511292 -0.3826834323650772 0.0
  outer loop
    vertex -214.80106379493748 1121.641283769875 109.8125000152661
    vertex -214.99087459769626 1121.1830399555697 111.8125000152661
    vertex -214.99087459769626 1121.1830399555697 109.8125000152661
  endloop
endfacet
facet normal 0.923879532511292 -0.3826834323650772 0.0
  outer loop
    vertex -214.99087459769626 1121.1830399555697 111.8125000152661
    vertex -214.80106379493748 1121.641283769875 109.8125000152661
    vertex -214.80106379493748 1121.641283769875 111.8125000152661
  endloop
endfacet
facet normal 0.9914448613738094 -0.13052619222006034 0.0
  outer loop
    vertex -214.99087459769626 1121.1830399555697 109.8125000152661
    vertex -215.055615527747 1120.6912837698749 111.8125000152661
    vertex -215.055615527747 1120.6912837698749 109.8125000152661
  endloop
endfacet
facet normal 0.9914448613738094 -0.13052619222006034 0.0
  outer loop
    vertex -215.055615527747 1120.6912837698749 111.8125000152661
    vertex -214.99087459769626 1121.1830399555697 109.8125000152661
    vertex -214.99087459769626 1121.1830399555697 111.8125000152661
  endloop
endfacet
facet normal 0.9914448613738096 0.13052619222005887 0.0
  outer loop
    vertex -215.055615527747 1120.6912837698749 109.8125000152661
    vertex -214.99087459769626 1120.19952758418 111.8125000152661
    vertex -214.99087459769626 1120.19952758418 109.8125000152661
  endloop
endfacet
facet normal 0.9914448613738096 0.13052619222005887 0.0
  outer loop
    vertex -214.99087459769626 1120.19952758418 111.8125000152661
    vertex -215.055615527747 1120.6912837698749 109.8125000152661
    vertex -215.055615527747 1120.6912837698749 111.8125000152661
  endloop
endfacet
facet normal 0.9238795325112903 0.38268343236508123 0.0
  outer loop
    vertex -214.99087459769626 1120.19952758418 109.8125000152661
    vertex -214.80106379493748 1119.7412837698748 111.8125000152661
    vertex -214.80106379493748 1119.7412837698748 109.8125000152661
  endloop
endfacet
facet normal 0.9238795325112903 0.38268343236508123 0.0
  outer loop
    vertex -214.80106379493748 1119.7412837698748 111.8125000152661
    vertex -214.99087459769626 1120.19952758418 109.8125000152661
    vertex -214.99087459769626 1120.19952758418 111.8125000152661
  endloop
endfacet
facet normal 0.7933533402912281 0.60876142900873 0.0
  outer loop
    vertex -214.80106379493748 1119.7412837698748 109.8125000152661
    vertex -214.49911841200145 1119.3477808856205 111.8125000152661
    vertex -214.49911841200145 1119.3477808856205 109.8125000152661
  endloop
endfacet
facet normal 0.7933533402912281 0.60876142900873 0.0
  outer loop
    vertex -214.49911841200145 1119.3477808856205 111.8125000152661
    vertex -214.80106379493748 1119.7412837698748 109.8125000152661
    vertex -214.80106379493748 1119.7412837698748 111.8125000152661
  endloop
endfacet
facet normal 0.6087614290087157 0.7933533402912392 0.0
  outer loop
    vertex -214.49911841200145 1119.3477808856205 111.8125000152661
    vertex -214.10561552774703 1119.0458355026844 109.8125000152661
    vertex -214.49911841200145 1119.3477808856205 109.8125000152661
  endloop
endfacet
facet normal 0.6087614290087157 0.7933533402912392 0.0
  outer loop
    vertex -214.10561552774703 1119.0458355026844 109.8125000152661
    vertex -214.49911841200145 1119.3477808856205 111.8125000152661
    vertex -214.10561552774703 1119.0458355026844 111.8125000152661
  endloop
endfacet
facet normal 0.3826834323650892 0.923879532511287 0.0
  outer loop
    vertex -214.10561552774703 1119.0458355026844 111.8125000152661
    vertex -213.6473717134418 1118.8560246999257 109.8125000152661
    vertex -214.10561552774703 1119.0458355026844 109.8125000152661
  endloop
endfacet
facet normal 0.3826834323650892 0.923879532511287 0.0
  outer loop
    vertex -213.6473717134418 1118.8560246999257 109.8125000152661
    vertex -214.10561552774703 1119.0458355026844 111.8125000152661
    vertex -213.6473717134418 1118.8560246999257 111.8125000152661
  endloop
endfacet
facet normal 0.13052619222005887 0.9914448613738096 0.0
  outer loop
    vertex -213.6473717134418 1118.8560246999257 111.8125000152661
    vertex -213.155615527747 1118.7912837698748 109.8125000152661
    vertex -213.6473717134418 1118.8560246999257 109.8125000152661
  endloop
endfacet
facet normal 0.13052619222005887 0.9914448613738096 0.0
  outer loop
    vertex -213.155615527747 1118.7912837698748 109.8125000152661
    vertex -213.6473717134418 1118.8560246999257 111.8125000152661
    vertex -213.155615527747 1118.7912837698748 111.8125000152661
  endloop
endfacet
facet normal -0.13052619222005887 0.9914448613738096 0.0
  outer loop
    vertex -213.155615527747 1118.7912837698748 111.8125000152661
    vertex -212.66385934205226 1118.8560246999257 109.8125000152661
    vertex -213.155615527747 1118.7912837698748 109.8125000152661
  endloop
endfacet
facet normal -0.13052619222005887 0.9914448613738096 0.0
  outer loop
    vertex -212.66385934205226 1118.8560246999257 109.8125000152661
    vertex -213.155615527747 1118.7912837698748 111.8125000152661
    vertex -212.66385934205226 1118.8560246999257 111.8125000152661
  endloop
endfacet
facet normal -0.38268343236507324 0.9238795325112937 0.0
  outer loop
    vertex -212.66385934205226 1118.8560246999257 111.8125000152661
    vertex -212.20561552774703 1119.0458355026844 109.8125000152661
    vertex -212.66385934205226 1118.8560246999257 109.8125000152661
  endloop
endfacet
facet normal -0.38268343236507324 0.9238795325112937 0.0
  outer loop
    vertex -212.20561552774703 1119.0458355026844 109.8125000152661
    vertex -212.66385934205226 1118.8560246999257 111.8125000152661
    vertex -212.20561552774703 1119.0458355026844 111.8125000152661
  endloop
endfacet
facet normal -0.6087614290087376 0.7933533402912222 0.0
  outer loop
    vertex -212.20561552774703 1119.0458355026844 111.8125000152661
    vertex -211.8121126434926 1119.3477808856205 109.8125000152661
    vertex -212.20561552774703 1119.0458355026844 109.8125000152661
  endloop
endfacet
facet normal -0.6087614290087376 0.7933533402912222 0.0
  outer loop
    vertex -211.8121126434926 1119.3477808856205 109.8125000152661
    vertex -212.20561552774703 1119.0458355026844 111.8125000152661
    vertex -211.8121126434926 1119.3477808856205 111.8125000152661
  endloop
endfacet
facet normal -0.7933533402912281 0.60876142900873 0.0
  outer loop
    vertex -211.51016726055659 1119.7412837698748 111.8125000152661
    vertex -211.8121126434926 1119.3477808856205 109.8125000152661
    vertex -211.8121126434926 1119.3477808856205 111.8125000152661
  endloop
endfacet
facet normal -0.7933533402912281 0.60876142900873 0.0
  outer loop
    vertex -211.8121126434926 1119.3477808856205 109.8125000152661
    vertex -211.51016726055659 1119.7412837698748 111.8125000152661
    vertex -211.51016726055659 1119.7412837698748 109.8125000152661
  endloop
endfacet
facet normal -0.923879532511292 0.3826834323650772 0.0
  outer loop
    vertex -211.3203564577978 1120.19952758418 111.8125000152661
    vertex -211.51016726055659 1119.7412837698748 109.8125000152661
    vertex -211.51016726055659 1119.7412837698748 111.8125000152661
  endloop
endfacet
facet normal -0.923879532511292 0.3826834323650772 0.0
  outer loop
    vertex -211.51016726055659 1119.7412837698748 109.8125000152661
    vertex -211.3203564577978 1120.19952758418 111.8125000152661
    vertex -211.3203564577978 1120.19952758418 109.8125000152661
  endloop
endfacet
facet normal -0.9914448613738094 0.13052619222006034 0.0
  outer loop
    vertex -211.25561552774707 1120.6912837698749 111.8125000152661
    vertex -211.3203564577978 1120.19952758418 109.8125000152661
    vertex -211.3203564577978 1120.19952758418 111.8125000152661
  endloop
endfacet
facet normal -0.9914448613738094 0.13052619222006034 0.0
  outer loop
    vertex -211.3203564577978 1120.19952758418 109.8125000152661
    vertex -211.25561552774707 1120.6912837698749 111.8125000152661
    vertex -211.25561552774707 1120.6912837698749 109.8125000152661
  endloop
endfacet
facet normal -0.9914448613738094 -0.13052619222006034 -0.0
  outer loop
    vertex -211.3203564577978 1121.1830399555697 111.8125000152661
    vertex -211.25561552774707 1120.6912837698749 109.8125000152661
    vertex -211.25561552774707 1120.6912837698749 111.8125000152661
  endloop
endfacet
facet normal -0.9914448613738094 -0.13052619222006034 -0.0
  outer loop
    vertex -211.25561552774707 1120.6912837698749 109.8125000152661
    vertex -211.3203564577978 1121.1830399555697 111.8125000152661
    vertex -211.3203564577978 1121.1830399555697 109.8125000152661
  endloop
endfacet
facet normal -0.923879532511292 -0.3826834323650772 -0.0
  outer loop
    vertex -211.51016726055659 1121.641283769875 111.8125000152661
    vertex -211.3203564577978 1121.1830399555697 109.8125000152661
    vertex -211.3203564577978 1121.1830399555697 111.8125000152661
  endloop
endfacet
facet normal -0.923879532511292 -0.3826834323650772 -0.0
  outer loop
    vertex -211.3203564577978 1121.1830399555697 109.8125000152661
    vertex -211.51016726055659 1121.641283769875 111.8125000152661
    vertex -211.51016726055659 1121.641283769875 109.8125000152661
  endloop
endfacet
facet normal -0.793353340291224 -0.6087614290087354 -0.0
  outer loop
    vertex -211.8121126434926 1122.0347866541292 111.8125000152661
    vertex -211.51016726055659 1121.641283769875 109.8125000152661
    vertex -211.51016726055659 1121.641283769875 111.8125000152661
  endloop
endfacet
facet normal -0.793353340291224 -0.6087614290087354 -0.0
  outer loop
    vertex -211.51016726055659 1121.641283769875 109.8125000152661
    vertex -211.8121126434926 1122.0347866541292 111.8125000152661
    vertex -211.8121126434926 1122.0347866541292 109.8125000152661
  endloop
endfacet
facet normal -0.6087614290087228 -0.7933533402912336 -0.0
  outer loop
    vertex -211.8121126434926 1122.0347866541292 111.8125000152661
    vertex -212.20561552774703 1122.3367320370653 109.8125000152661
    vertex -211.8121126434926 1122.0347866541292 109.8125000152661
  endloop
endfacet
facet normal -0.6087614290087228 -0.7933533402912336 -0.0
  outer loop
    vertex -212.20561552774703 1122.3367320370653 109.8125000152661
    vertex -211.8121126434926 1122.0347866541292 111.8125000152661
    vertex -212.20561552774703 1122.3367320370653 111.8125000152661
  endloop
endfacet
facet normal -0.382683432365099 -0.923879532511283 -0.0
  outer loop
    vertex -212.20561552774703 1122.3367320370653 111.8125000152661
    vertex -212.66385934205226 1122.526542839824 109.8125000152661
    vertex -212.20561552774703 1122.3367320370653 109.8125000152661
  endloop
endfacet
facet normal -0.382683432365099 -0.923879532511283 -0.0
  outer loop
    vertex -212.66385934205226 1122.526542839824 109.8125000152661
    vertex -212.20561552774703 1122.3367320370653 111.8125000152661
    vertex -212.66385934205226 1122.526542839824 111.8125000152661
  endloop
endfacet
facet normal -0.1305261922200477 -0.9914448613738109 -0.0
  outer loop
    vertex -212.66385934205226 1122.526542839824 111.8125000152661
    vertex -213.155615527747 1122.591283769875 109.8125000152661
    vertex -212.66385934205226 1122.526542839824 109.8125000152661
  endloop
endfacet
facet normal -0.1305261922200477 -0.9914448613738109 -0.0
  outer loop
    vertex -213.155615527747 1122.591283769875 109.8125000152661
    vertex -212.66385934205226 1122.526542839824 111.8125000152661
    vertex -213.155615527747 1122.591283769875 111.8125000152661
  endloop
endfacet
facet normal 0.1305261922200477 -0.9914448613738109 0.0
  outer loop
    vertex -213.155615527747 1122.591283769875 111.8125000152661
    vertex -213.6473717134418 1122.526542839824 109.8125000152661
    vertex -213.155615527747 1122.591283769875 109.8125000152661
  endloop
endfacet
facet normal 0.1305261922200477 -0.9914448613738109 0.0
  outer loop
    vertex -213.6473717134418 1122.526542839824 109.8125000152661
    vertex -213.155615527747 1122.591283769875 111.8125000152661
    vertex -213.6473717134418 1122.526542839824 111.8125000152661
  endloop
endfacet
facet normal 0.3826834323650829 -0.9238795325112896 0.0
  outer loop
    vertex -213.6473717134418 1122.526542839824 111.8125000152661
    vertex -214.10561552774703 1122.3367320370653 109.8125000152661
    vertex -213.6473717134418 1122.526542839824 109.8125000152661
  endloop
endfacet
facet normal 0.3826834323650829 -0.9238795325112896 0.0
  outer loop
    vertex -214.10561552774703 1122.3367320370653 109.8125000152661
    vertex -213.6473717134418 1122.526542839824 111.8125000152661
    vertex -214.10561552774703 1122.3367320370653 111.8125000152661
  endloop
endfacet
facet normal 0.6087614290087447 -0.7933533402912167 0.0
  outer loop
    vertex -214.10561552774703 1122.3367320370653 111.8125000152661
    vertex -214.49911841200145 1122.0347866541292 109.8125000152661
    vertex -214.10561552774703 1122.3367320370653 109.8125000152661
  endloop
endfacet
facet normal 0.6087614290087447 -0.7933533402912167 0.0
  outer loop
    vertex -214.49911841200145 1122.0347866541292 109.8125000152661
    vertex -214.10561552774703 1122.3367320370653 111.8125000152661
    vertex -214.49911841200145 1122.0347866541292 111.8125000152661
  endloop
endfacet
facet normal 0.793353340291224 -0.6087614290087354 0.0
  outer loop
    vertex -214.49911841200145 1122.0347866541292 109.8125000152661
    vertex -214.80106379493748 1121.641283769875 111.8125000152661
    vertex -214.80106379493748 1121.641283769875 109.8125000152661
  endloop
endfacet
facet normal 0.793353340291224 -0.6087614290087354 0.0
  outer loop
    vertex -214.80106379493748 1121.641283769875 111.8125000152661
    vertex -214.49911841200145 1122.0347866541292 109.8125000152661
    vertex -214.49911841200145 1122.0347866541292 111.8125000152661
  endloop
endfacet
facet normal 0.0 0.0 -1.0
  outer loop
    vertex -215.00561552774698 1123.8955777638773 109.8125000152661
    vertex -215.055615527747 1120.6912837698749 109.8125000152661
    vertex -216.855615527747 1120.6912837698749 109.8125000152661
  endloop
endfacet
facet normal 0.0 0.0 -1.0
  outer loop
    vertex -215.055615527747 1120.6912837698749 109.8125000152661
    vertex -215.00561552774698 1123.8955777638773 109.8125000152661
    vertex -214.99087459769626 1121.1830399555697 109.8125000152661
  endloop
endfacet
facet normal 0.0 0.0 -1.0
  outer loop
    vertex -214.99087459769626 1121.1830399555697 109.8125000152661
    vertex -215.00561552774698 1123.8955777638773 109.8125000152661
    vertex -214.80106379493748 1121.641283769875 109.8125000152661
  endloop
endfacet
facet normal 0.0 0.0 -1.0
  outer loop
    vertex -214.80106379493748 1121.641283769875 109.8125000152661
    vertex -215.00561552774698 1123.8955777638773 109.8125000152661
    vertex -214.49911841200145 1122.0347866541292 109.8125000152661
  endloop
endfacet
facet normal 0.0 0.0 -1.0
  outer loop
    vertex -214.49911841200145 1122.0347866541292 109.8125000152661
    vertex -215.00561552774698 1123.8955777638773 109.8125000152661
    vertex -214.10561552774703 1122.3367320370653 109.8125000152661
  endloop
endfacet
facet normal 0.0 0.0 -1.0
  outer loop
    vertex -214.10561552774703 1122.3367320370653 109.8125000152661
    vertex -215.00561552774698 1123.8955777638773 109.8125000152661
    vertex -211.30561552774697 1123.8955777638773 109.8125000152661
  endloop
endfacet
facet normal 0.0 0.0 -1.0
  outer loop
    vertex -214.10561552774703 1122.3367320370653 109.8125000152661
    vertex -211.30561552774697 1123.8955777638773 109.8125000152661
    vertex -213.6473717134418 1122.526542839824 109.8125000152661
  endloop
endfacet
facet normal 0.0 0.0 -1.0
  outer loop
    vertex -213.6473717134418 1122.526542839824 109.8125000152661
    vertex -211.30561552774697 1123.8955777638773 109.8125000152661
    vertex -213.155615527747 1122.591283769875 109.8125000152661
  endloop
endfacet
facet normal 0.0 0.0 -1.0
  outer loop
    vertex -213.155615527747 1122.591283769875 109.8125000152661
    vertex -211.30561552774697 1123.8955777638773 109.8125000152661
    vertex -212.66385934205226 1122.526542839824 109.8125000152661
  endloop
endfacet
facet normal 0.0 0.0 -1.0
  outer loop
    vertex -212.66385934205226 1122.526542839824 109.8125000152661
    vertex -211.30561552774697 1123.8955777638773 109.8125000152661
    vertex -212.20561552774703 1122.3367320370653 109.8125000152661
  endloop
endfacet
facet normal 0.0 0.0 -1.0
  outer loop
    vertex -212.20561552774703 1122.3367320370653 109.8125000152661
    vertex -211.30561552774697 1123.8955777638773 109.8125000152661
    vertex -211.8121126434926 1122.0347866541292 109.8125000152661
  endloop
endfacet
facet normal 0.0 0.0 -1.0
  outer loop
    vertex -211.8121126434926 1122.0347866541292 109.8125000152661
    vertex -211.30561552774697 1123.8955777638773 109.8125000152661
    vertex -211.51016726055659 1121.641283769875 109.8125000152661
  endloop
endfacet
facet normal 0.0 0.0 -1.0
  outer loop
    vertex -211.51016726055659 1121.641283769875 109.8125000152661
    vertex -211.30561552774697 1123.8955777638773 109.8125000152661
    vertex -211.3203564577978 1121.1830399555697 109.8125000152661
  endloop
endfacet
facet normal 0.0 0.0 -1.0
  outer loop
    vertex -211.3203564577978 1121.1830399555697 109.8125000152661
    vertex -211.30561552774697 1123.8955777638773 109.8125000152661
    vertex -211.25561552774707 1120.6912837698749 109.8125000152661
  endloop
endfacet
facet normal 0.0 0.0 -1.0
  outer loop
    vertex -211.25561552774707 1120.6912837698749 109.8125000152661
    vertex -211.30561552774697 1123.8955777638773 109.8125000152661
    vertex -209.45561552774697 1120.6912837698749 109.8125000152661
  endloop
endfacet
facet normal 0.0 0.0 -1.0
  outer loop
    vertex -215.055615527747 1120.6912837698749 109.8125000152661
    vertex -215.005615527747 1117.4869897758724 109.8125000152661
    vertex -216.855615527747 1120.6912837698749 109.8125000152661
  endloop
endfacet
facet normal 0.0 0.0 -1.0
  outer loop
    vertex -215.005615527747 1117.4869897758724 109.8125000152661
    vertex -215.055615527747 1120.6912837698749 109.8125000152661
    vertex -214.99087459769626 1120.19952758418 109.8125000152661
  endloop
endfacet
facet normal 0.0 0.0 -1.0
  outer loop
    vertex -215.005615527747 1117.4869897758724 109.8125000152661
    vertex -214.99087459769626 1120.19952758418 109.8125000152661
    vertex -214.80106379493748 1119.7412837698748 109.8125000152661
  endloop
endfacet
facet normal 0.0 0.0 -1.0
  outer loop
    vertex -215.005615527747 1117.4869897758724 109.8125000152661
    vertex -214.80106379493748 1119.7412837698748 109.8125000152661
    vertex -214.49911841200145 1119.3477808856205 109.8125000152661
  endloop
endfacet
facet normal 0.0 0.0 -1.0
  outer loop
    vertex -215.005615527747 1117.4869897758724 109.8125000152661
    vertex -214.49911841200145 1119.3477808856205 109.8125000152661
    vertex -214.10561552774703 1119.0458355026844 109.8125000152661
  endloop
endfacet
facet normal 0.0 0.0 -1.0
  outer loop
    vertex -215.005615527747 1117.4869897758724 109.8125000152661
    vertex -214.10561552774703 1119.0458355026844 109.8125000152661
    vertex -211.305615527747 1117.4869897758724 109.8125000152661
  endloop
endfacet
facet normal 0.0 0.0 -1.0
  outer loop
    vertex -211.305615527747 1117.4869897758724 109.8125000152661
    vertex -214.10561552774703 1119.0458355026844 109.8125000152661
    vertex -213.6473717134418 1118.8560246999257 109.8125000152661
  endloop
endfacet
facet normal 0.0 0.0 -1.0
  outer loop
    vertex -211.305615527747 1117.4869897758724 109.8125000152661
    vertex -213.6473717134418 1118.8560246999257 109.8125000152661
    vertex -213.155615527747 1118.7912837698748 109.8125000152661
  endloop
endfacet
facet normal 0.0 0.0 -1.0
  outer loop
    vertex -211.305615527747 1117.4869897758724 109.8125000152661
    vertex -213.155615527747 1118.7912837698748 109.8125000152661
    vertex -212.66385934205226 1118.8560246999257 109.8125000152661
  endloop
endfacet
facet normal 0.0 0.0 -1.0
  outer loop
    vertex -211.305615527747 1117.4869897758724 109.8125000152661
    vertex -212.66385934205226 1118.8560246999257 109.8125000152661
    vertex -212.20561552774703 1119.0458355026844 109.8125000152661
  endloop
endfacet
facet normal 0.0 0.0 -1.0
  outer loop
    vertex -211.305615527747 1117.4869897758724 109.8125000152661
    vertex -212.20561552774703 1119.0458355026844 109.8125000152661
    vertex -211.8121126434926 1119.3477808856205 109.8125000152661
  endloop
endfacet
facet normal 0.0 0.0 -1.0
  outer loop
    vertex -211.305615527747 1117.4869897758724 109.8125000152661
    vertex -211.8121126434926 1119.3477808856205 109.8125000152661
    vertex -211.51016726055659 1119.7412837698748 109.8125000152661
  endloop
endfacet
facet normal 0.0 0.0 -1.0
  outer loop
    vertex -211.305615527747 1117.4869897758724 109.8125000152661
    vertex -211.51016726055659 1119.7412837698748 109.8125000152661
    vertex -211.3203564577978 1120.19952758418 109.8125000152661
  endloop
endfacet
facet normal 0.0 0.0 -1.0
  outer loop
    vertex -211.305615527747 1117.4869897758724 109.8125000152661
    vertex -211.3203564577978 1120.19952758418 109.8125000152661
    vertex -211.25561552774707 1120.6912837698749 109.8125000152661
  endloop
endfacet
facet normal 0.0 0.0 -1.0
  outer loop
    vertex -211.305615527747 1117.4869897758724 109.8125000152661
    vertex -211.25561552774707 1120.6912837698749 109.8125000152661
    vertex -209.45561552774697 1120.6912837698749 109.8125000152661
  endloop
endfacet
facet normal 0.0 1.0 0.0
  outer loop
    vertex -215.00561552774698 1123.8955777638773 111.3125000152661
    vertex -211.30561552774697 1123.8955777638773 109.8125000152661
    vertex -215.00561552774698 1123.8955777638773 109.8125000152661
  endloop
endfacet
facet normal 0.0 1.0 0.0
  outer loop
    vertex -211.30561552774697 1123.8955777638773 109.8125000152661
    vertex -215.00561552774698 1123.8955777638773 111.3125000152661
    vertex -211.30561552774697 1123.8955777638773 111.3125000152661
  endloop
endfacet
facet normal 0.8660254037844424 0.4999999999999934 0.0
  outer loop
    vertex -211.30561552774697 1123.8955777638773 109.8125000152661
    vertex -209.45561552774697 1120.6912837698749 111.3125000152661
    vertex -209.45561552774697 1120.6912837698749 109.8125000152661
  endloop
endfacet
facet normal 0.8660254037844424 0.4999999999999934 0.0
  outer loop
    vertex -209.45561552774697 1120.6912837698749 111.3125000152661
    vertex -211.30561552774697 1123.8955777638773 109.8125000152661
    vertex -211.30561552774697 1123.8955777638773 111.3125000152661
  endloop
endfacet
facet normal 0.8660254037844372 -0.5000000000000026 0.0
  outer loop
    vertex -209.45561552774697 1120.6912837698749 109.8125000152661
    vertex -211.305615527747 1117.4869897758724 111.3125000152661
    vertex -211.305615527747 1117.4869897758724 109.8125000152661
  endloop
endfacet
facet normal 0.8660254037844372 -0.5000000000000026 0.0
  outer loop
    vertex -211.305615527747 1117.4869897758724 111.3125000152661
    vertex -209.45561552774697 1120.6912837698749 109.8125000152661
    vertex -209.45561552774697 1120.6912837698749 111.3125000152661
  endloop
endfacet
facet normal -0.0 -1.0 -0.0
  outer loop
    vertex -211.305615527747 1117.4869897758724 111.3125000152661
    vertex -215.005615527747 1117.4869897758724 109.8125000152661
    vertex -211.305615527747 1117.4869897758724 109.8125000152661
  endloop
endfacet
facet normal -0.0 -1.0 -0.0
  outer loop
    vertex -215.005615527747 1117.4869897758724 109.8125000152661
    vertex -211.305615527747 1117.4869897758724 111.3125000152661
    vertex -215.005615527747 1117.4869897758724 111.3125000152661
  endloop
endfacet
facet normal -0.8660254037844424 -0.4999999999999934 -0.0
  outer loop
    vertex -216.855615527747 1120.6912837698749 111.3125000152661
    vertex -215.005615527747 1117.4869897758724 109.8125000152661
    vertex -215.005615527747 1117.4869897758724 111.3125000152661
  endloop
endfacet
facet normal -0.8660254037844424 -0.4999999999999934 -0.0
  outer loop
    vertex -215.005615527747 1117.4869897758724 109.8125000152661
    vertex -216.855615527747 1120.6912837698749 111.3125000152661
    vertex -216.855615527747 1120.6912837698749 109.8125000152661
  endloop
endfacet
facet normal -0.8660254037844372 0.5000000000000026 0.0
  outer loop
    vertex -215.00561552774698 1123.8955777638773 111.3125000152661
    vertex -216.855615527747 1120.6912837698749 109.8125000152661
    vertex -216.855615527747 1120.6912837698749 111.3125000152661
  endloop
endfacet
facet normal -0.8660254037844372 0.5000000000000026 0.0
  outer loop
    vertex -216.855615527747 1120.6912837698749 109.8125000152661
    vertex -215.00561552774698 1123.8955777638773 111.3125000152661
    vertex -215.00561552774698 1123.8955777638773 109.8125000152661
  endloop
endfacet
endsolid Design - Rolled
