solid Design - Rolled
facet normal 2.117776038962013e-33 -1.0 0.0
  outer loop
    vertex -12.202645016867042 -101.71835336838312 207.38000019986816
    vertex -27.202645016866818 -101.71835336838312 170.00000019986825
    vertex -12.202645016866796 -101.71835336838312 170.0000001998683
  endloop
endfacet
facet normal 2.117776038962013e-33 -1.0 0.0
  outer loop
    vertex -27.202645016866818 -101.71835336838312 170.00000019986825
    vertex -12.202645016867042 -101.71835336838312 207.38000019986816
    vertex -27.20264501686704 -101.71835336838312 207.38000019986802
  endloop
endfacet
facet normal 0.6087614290087239 0.7933533402912328 6.8823521086306565e-15
  outer loop
    vertex -23.597528270615772 -98.11323662213192 188.92000019986816
    vertex -22.456743377522642 -98.98859165808095 187.2500001998683
    vertex -23.597528270615744 -98.11323662213192 187.25000019986817
  endloop
endfacet
facet normal 0.6087614290087239 0.7933533402912328 6.8823521086306565e-15
  outer loop
    vertex -22.456743377522642 -98.98859165808095 187.2500001998683
    vertex -23.597528270615772 -98.11323662213192 188.92000019986816
    vertex -22.45674337752267 -98.98859165808095 188.9200001998683
  endloop
endfacet
facet normal -2.629693021160948e-15 2.6692582183481614e-15 1.0
  outer loop
    vertex -12.202645016867045 -86.71835336838312 207.38000019986822
    vertex -16.50264501686708 -88.6757907841627 207.3800001998683
    vertex -13.302645016867089 -94.21835336838313 207.38000019986845
  endloop
endfacet
facet normal -2.629693021160948e-15 2.6692582183481614e-15 1.0
  outer loop
    vertex -16.50264501686708 -88.6757907841627 207.3800001998683
    vertex -12.202645016867045 -86.71835336838312 207.38000019986822
    vertex -18.202645016867034 -86.7183533683831 207.38000019986816
  endloop
endfacet
facet normal -2.629693021160948e-15 2.6692582183481614e-15 1.0
  outer loop
    vertex -16.50264501686708 -88.6757907841627 207.3800001998683
    vertex -18.202645016867034 -86.7183533683831 207.38000019986816
    vertex -18.202645016867034 -88.6757907841627 207.3800001998681
  endloop
endfacet
facet normal -2.629693021160948e-15 2.6692582183481614e-15 1.0
  outer loop
    vertex -27.20264501686704 -86.71835336838312 207.3800001998681
    vertex -21.202645016867027 -88.6757907841627 207.3800001998681
    vertex -21.202645016867027 -86.71835336838312 207.3800001998681
  endloop
endfacet
facet normal -2.629693021160948e-15 2.6692582183481614e-15 1.0
  outer loop
    vertex -21.202645016867027 -88.6757907841627 207.3800001998681
    vertex -27.20264501686704 -86.71835336838312 207.3800001998681
    vertex -22.90264501686707 -88.6757907841627 207.3800001998684
  endloop
endfacet
facet normal -2.629693021160948e-15 2.6692582183481614e-15 1.0
  outer loop
    vertex -22.90264501686707 -88.6757907841627 207.3800001998684
    vertex -27.20264501686704 -86.71835336838312 207.3800001998681
    vertex -26.102645016867044 -94.21835336838313 207.3800001998684
  endloop
endfacet
facet normal -2.629693021160948e-15 2.6692582183481614e-15 1.0
  outer loop
    vertex -12.202645016867042 -101.71835336838312 207.38000019986816
    vertex -16.502645016867106 -99.76091595260351 207.38000019986825
    vertex -27.20264501686704 -101.71835336838312 207.38000019986802
  endloop
endfacet
facet normal -2.629693021160948e-15 2.6692582183481614e-15 1.0
  outer loop
    vertex -16.502645016867106 -99.76091595260351 207.38000019986825
    vertex -12.202645016867042 -101.71835336838312 207.38000019986816
    vertex -13.302645016867089 -94.21835336838313 207.38000019986845
  endloop
endfacet
facet normal -2.629693021160948e-15 2.6692582183481614e-15 1.0
  outer loop
    vertex -13.302645016867089 -94.21835336838313 207.38000019986845
    vertex -12.202645016867042 -101.71835336838312 207.38000019986816
    vertex -12.202645016867045 -86.71835336838312 207.38000019986822
  endloop
endfacet
facet normal -2.629693021160948e-15 2.6692582183481614e-15 1.0
  outer loop
    vertex -27.20264501686704 -101.71835336838312 207.38000019986802
    vertex -16.502645016867106 -99.76091595260351 207.38000019986825
    vertex -22.902645016867073 -99.76091595260351 207.3800001998683
  endloop
endfacet
facet normal -2.629693021160948e-15 2.6692582183481614e-15 1.0
  outer loop
    vertex -27.20264501686704 -101.71835336838312 207.38000019986802
    vertex -22.902645016867073 -99.76091595260351 207.3800001998683
    vertex -26.102645016867044 -94.21835336838313 207.3800001998684
  endloop
endfacet
facet normal -2.629693021160948e-15 2.6692582183481614e-15 1.0
  outer loop
    vertex -27.20264501686704 -101.71835336838312 207.38000019986802
    vertex -26.102645016867044 -94.21835336838313 207.3800001998684
    vertex -27.20264501686704 -86.71835336838312 207.3800001998681
  endloop
endfacet
facet normal -0.9914448613738103 0.13052619222005266 -1.171396512260492e-14
  outer loop
    vertex -14.382135547471394 -95.64397958402975 187.2500001998684
    vertex -14.194448295555475 -94.2183533683831 188.92000019986838
    vertex -14.194448295555446 -94.2183533683831 187.2500001998684
  endloop
endfacet
facet normal -0.9914448613738103 0.13052619222005266 -1.171396512260492e-14
  outer loop
    vertex -14.194448295555475 -94.2183533683831 188.92000019986838
    vertex -14.382135547471394 -95.64397958402975 187.2500001998684
    vertex -14.382135547471446 -95.64397958402975 188.92000019986838
  endloop
endfacet
facet normal -0.3826834323650859 0.9238795325112885 -4.831613013974253e-15
  outer loop
    vertex -18.277018801220233 -99.53886283777855 187.25000019986837
    vertex -16.948546656211207 -98.98859165808095 188.92000019986835
    vertex -16.94854665621116 -98.98859165808095 187.25000019986837
  endloop
endfacet
facet normal -0.3826834323650859 0.9238795325112885 -4.831613013974253e-15
  outer loop
    vertex -16.948546656211207 -98.98859165808095 188.92000019986835
    vertex -18.277018801220233 -99.53886283777855 187.25000019986837
    vertex -18.27701880122028 -99.5388628377786 188.92000019986835
  endloop
endfacet
facet normal 1.879977655031855e-15 1.0 3.017620634080221e-16
  outer loop
    vertex -18.202645016867034 -86.7183533683831 207.38000019986816
    vertex -12.202645016866796 -86.7183533683831 170.00000019986837
    vertex -18.202645016867027 -86.7183533683831 170.0000001998683
  endloop
endfacet
facet normal 1.879977655031855e-15 1.0 3.017620634080221e-16
  outer loop
    vertex -12.202645016866796 -86.7183533683831 170.00000019986837
    vertex -18.202645016867034 -86.7183533683831 207.38000019986816
    vertex -12.202645016867045 -86.71835336838312 207.38000019986822
  endloop
endfacet
facet normal -0.6274087597113133 -0.48142767382078816 0.6120340212088023
  outer loop
    vertex -16.497712510925 -91.01342086244117 186.00000019986817
    vertex -14.932406727169028 -91.46425500772736 187.2500001998684
    vertex -15.807761763118053 -90.3234701146342 187.2500001998682
  endloop
endfacet
facet normal -0.6274087597113133 -0.48142767382078816 0.6120340212088023
  outer loop
    vertex -14.932406727169028 -91.46425500772736 187.2500001998684
    vertex -16.497712510925 -91.01342086244117 186.00000019986817
    vertex -15.77742036705833 -91.95212386018635 186.0000001998683
  endloop
endfacet
facet normal -0.6274087597112736 0.481427673820821 0.6120340212088169
  outer loop
    vertex -16.497712510925 -97.423285874325 186.00000019986814
    vertex -14.932406727169028 -96.97245172903882 187.25000019986825
    vertex -15.77742036705833 -96.48458287657982 186.00000019986823
  endloop
endfacet
facet normal -0.6274087597112736 0.481427673820821 0.6120340212088169
  outer loop
    vertex -14.932406727169028 -96.97245172903882 187.25000019986825
    vertex -16.497712510925 -97.423285874325 186.00000019986814
    vertex -15.807761763118059 -98.11323662213192 187.25000019986817
  endloop
endfacet
facet normal 0.48142767382082546 -0.627408759711246 0.6120340212088418
  outer loop
    vertex -22.456743377522642 -89.44811507868518 187.25000019986837
    vertex -22.90757752280879 -91.01342086244117 186.0000001998683
    vertex -21.968874525063605 -90.29312871857454 186.0000001998683
  endloop
endfacet
facet normal 0.48142767382082546 -0.627408759711246 0.6120340212088418
  outer loop
    vertex -22.90757752280879 -91.01342086244117 186.0000001998683
    vertex -22.456743377522642 -89.44811507868518 187.25000019986837
    vertex -23.597528270615744 -90.3234701146342 187.25000019986825
  endloop
endfacet
facet normal -0.9238795325112859 -0.38268343236509234 -1.0736588759389496e-14
  outer loop
    vertex -14.382135547471394 -92.79272715273643 187.2500001998684
    vertex -14.932406727169056 -91.46425500772736 188.92000019986838
    vertex -14.932406727169028 -91.46425500772736 187.2500001998684
  endloop
endfacet
facet normal -0.9238795325112859 -0.38268343236509234 -1.0736588759389496e-14
  outer loop
    vertex -14.932406727169056 -91.46425500772736 188.92000019986838
    vertex -14.382135547471394 -92.79272715273643 187.2500001998684
    vertex -14.382135547471446 -92.79272715273643 188.92000019986838
  endloop
endfacet
facet normal 0.13052619222005266 0.9914448613738103 1.1839947683375199e-15
  outer loop
    vertex -21.128271232513576 -99.53886283777855 187.25000019986837
    vertex -19.702645016866942 -99.72655008969453 188.92000019986818
    vertex -19.702645016866917 -99.72655008969453 187.25000019986817
  endloop
endfacet
facet normal 0.13052619222005266 0.9914448613738103 1.1839947683375199e-15
  outer loop
    vertex -19.702645016866942 -99.72655008969453 188.92000019986818
    vertex -21.128271232513576 -99.53886283777855 187.25000019986837
    vertex -21.128271232513622 -99.5388628377786 188.92000019986833
  endloop
endfacet
facet normal 0.38268343236508584 0.9238795325112885 4.175448392325134e-15
  outer loop
    vertex -22.45674337752267 -98.98859165808095 188.9200001998683
    vertex -21.128271232513576 -99.53886283777855 187.25000019986837
    vertex -22.456743377522642 -98.98859165808095 187.2500001998683
  endloop
endfacet
facet normal 0.38268343236508584 0.9238795325112885 4.175448392325134e-15
  outer loop
    vertex -21.128271232513576 -99.53886283777855 187.25000019986837
    vertex -22.45674337752267 -98.98859165808095 188.9200001998683
    vertex -21.128271232513622 -99.5388628377786 188.92000019986833
  endloop
endfacet
facet normal 0.382683432365055 -0.9238795325113013 8.827912514138161e-15
  outer loop
    vertex -21.202645016867027 -88.9286505291518 188.92000019986818
    vertex -22.456743377522642 -89.44811507868518 187.25000019986837
    vertex -21.20264501686702 -88.92865052915182 187.25000019986817
  endloop
endfacet
facet normal 0.382683432365055 -0.9238795325113013 8.827912514138161e-15
  outer loop
    vertex -22.456743377522642 -89.44811507868518 187.25000019986837
    vertex -21.202645016867027 -88.9286505291518 188.92000019986818
    vertex -22.45674337752267 -89.44811507868518 188.92000019986833
  endloop
endfacet
facet normal -0.13052619222005257 0.9914448613738103 -1.8881461424685055e-15
  outer loop
    vertex -19.702645016866942 -99.72655008969453 188.92000019986818
    vertex -18.277018801220233 -99.53886283777855 187.25000019986837
    vertex -19.702645016866917 -99.72655008969453 187.25000019986817
  endloop
endfacet
facet normal -0.13052619222005257 0.9914448613738103 -1.8881461424685055e-15
  outer loop
    vertex -18.277018801220233 -99.53886283777855 187.25000019986837
    vertex -19.702645016866942 -99.72655008969453 188.92000019986818
    vertex -18.27701880122028 -99.5388628377786 188.92000019986835
  endloop
endfacet
facet normal 0.7306329754693244 0.30263808755639515 0.6120340212088291
  outer loop
    vertex -25.023154486262403 -95.64397958402975 187.25000019986808
    vertex -23.627869666675462 -96.48458287657982 186.0000001998681
    vertex -24.08066423739807 -95.3914400829724 186.0000001998681
  endloop
endfacet
facet normal 0.7306329754693244 0.30263808755639515 0.6120340212088291
  outer loop
    vertex -23.627869666675462 -96.48458287657982 186.0000001998681
    vertex -25.023154486262403 -95.64397958402975 187.25000019986808
    vertex -24.472883306564793 -96.97245172903882 187.25000019986808
  endloop
endfacet
facet normal -0.30263808755630345 -0.7306329754693611 0.6120340212088307
  outer loop
    vertex -16.948546656211157 -89.44811507868518 187.25000019986814
    vertex -18.202645016867013 -89.97574606438894 186.00000019986828
    vertex -17.436415508670162 -90.29312871857454 186.0000001998681
  endloop
endfacet
facet normal -0.30263808755630345 -0.7306329754693611 0.6120340212088307
  outer loop
    vertex -18.202645016867013 -89.97574606438894 186.00000019986828
    vertex -16.948546656211157 -89.44811507868518 187.25000019986814
    vertex -18.202645016867027 -88.92865052915164 187.2500001998684
  endloop
endfacet
facet normal 0.3026380875564504 -0.7306329754692981 0.6120340212088332
  outer loop
    vertex -21.20264501686702 -88.92865052915182 187.25000019986817
    vertex -21.968874525063605 -90.29312871857454 186.0000001998683
    vertex -21.202645016867027 -89.97574606438904 186.00000019986823
  endloop
endfacet
facet normal 0.3026380875564504 -0.7306329754692981 0.6120340212088332
  outer loop
    vertex -21.968874525063605 -90.29312871857454 186.0000001998683
    vertex -21.20264501686702 -88.92865052915182 187.25000019986817
    vertex -22.456743377522642 -89.44811507868518 187.25000019986837
  endloop
endfacet
facet normal 1.0 -1.903416512241557e-33 6.015928496102181e-15
  outer loop
    vertex -12.202645016867042 -101.71835336838312 207.38000019986816
    vertex -12.202645016866796 -86.7183533683831 170.00000019986837
    vertex -12.202645016867045 -86.71835336838312 207.38000019986822
  endloop
endfacet
facet normal 1.0 -1.903416512241557e-33 6.015928496102181e-15
  outer loop
    vertex -12.202645016866796 -86.7183533683831 170.00000019986837
    vertex -12.202645016867042 -101.71835336838312 207.38000019986816
    vertex -12.202645016866796 -101.71835336838312 170.0000001998683
  endloop
endfacet
facet normal -0.6087614290087239 -0.7933533402912328 -6.8823521086306565e-15
  outer loop
    vertex -15.807761763118053 -90.3234701146342 187.2500001998682
    vertex -16.9485466562112 -89.44811507868518 188.92000019986816
    vertex -16.948546656211157 -89.44811507868518 187.25000019986814
  endloop
endfacet
facet normal -0.6087614290087239 -0.7933533402912328 -6.8823521086306565e-15
  outer loop
    vertex -16.9485466562112 -89.44811507868518 188.92000019986816
    vertex -15.807761763118053 -90.3234701146342 187.2500001998682
    vertex -15.807761763118076 -90.3234701146342 188.92000019986818
  endloop
endfacet
facet normal 0.9238795325112859 0.38268343236509234 1.0736588759389496e-14
  outer loop
    vertex -24.47288330656482 -96.97245172903882 188.9200001998681
    vertex -25.023154486262403 -95.64397958402975 187.25000019986808
    vertex -25.023154486262428 -95.64397958402975 188.9200001998681
  endloop
endfacet
facet normal 0.9238795325112859 0.38268343236509234 1.0736588759389496e-14
  outer loop
    vertex -25.023154486262403 -95.64397958402975 187.25000019986808
    vertex -24.47288330656482 -96.97245172903882 188.9200001998681
    vertex -24.472883306564793 -96.97245172903882 187.25000019986808
  endloop
endfacet
facet normal 0.9914448613738103 -0.13052619222005266 1.171396512260492e-14
  outer loop
    vertex -25.210841738178395 -94.2183533683831 188.9200001998681
    vertex -25.023154486262403 -92.79272715273643 187.25000019986808
    vertex -25.023154486262428 -92.79272715273643 188.9200001998681
  endloop
endfacet
facet normal 0.9914448613738103 -0.13052619222005266 1.171396512260492e-14
  outer loop
    vertex -25.023154486262403 -92.79272715273643 187.25000019986808
    vertex -25.210841738178395 -94.2183533683831 188.9200001998681
    vertex -25.210841738178353 -94.21835336838306 187.25000019986808
  endloop
endfacet
facet normal 0.7840657613772384 -0.10322421575806172 0.6120340212088413
  outer loop
    vertex -25.210841738178353 -94.21835336838306 187.25000019986808
    vertex -24.08066423739807 -93.04526665379379 186.0000001998681
    vertex -25.023154486262403 -92.79272715273643 187.25000019986808
  endloop
endfacet
facet normal 0.7840657613772384 -0.10322421575806172 0.6120340212088413
  outer loop
    vertex -24.08066423739807 -93.04526665379379 186.0000001998681
    vertex -25.210841738178353 -94.21835336838306 187.25000019986808
    vertex -24.235104033260292 -94.2183533683831 186.0000001998681
  endloop
endfacet
facet normal -0.7306329754693667 0.30263808755634664 0.6120340212088026
  outer loop
    vertex -15.77742036705833 -96.48458287657982 186.00000019986823
    vertex -14.382135547471394 -95.64397958402975 187.2500001998684
    vertex -15.324625796335763 -95.3914400829724 186.0000001998683
  endloop
endfacet
facet normal -0.7306329754693667 0.30263808755634664 0.6120340212088026
  outer loop
    vertex -14.382135547471394 -95.64397958402975 187.2500001998684
    vertex -15.77742036705833 -96.48458287657982 186.00000019986823
    vertex -14.932406727169028 -96.97245172903882 187.25000019986825
  endloop
endfacet
facet normal -0.9914448613738103 -0.13052619222005257 -1.1621261835520979e-14
  outer loop
    vertex -14.194448295555446 -94.2183533683831 187.2500001998684
    vertex -14.382135547471446 -92.79272715273643 188.92000019986838
    vertex -14.382135547471394 -92.79272715273643 187.2500001998684
  endloop
endfacet
facet normal -0.9914448613738103 -0.13052619222005257 -1.1621261835520979e-14
  outer loop
    vertex -14.382135547471446 -92.79272715273643 188.92000019986838
    vertex -14.194448295555446 -94.2183533683831 187.2500001998684
    vertex -14.194448295555475 -94.2183533683831 188.92000019986838
  endloop
endfacet
facet normal -0.7306329754693515 -0.3026380875564047 0.6120340212087921
  outer loop
    vertex -15.77742036705833 -91.95212386018635 186.0000001998683
    vertex -14.382135547471394 -92.79272715273643 187.2500001998684
    vertex -14.932406727169028 -91.46425500772736 187.2500001998684
  endloop
endfacet
facet normal -0.7306329754693515 -0.3026380875564047 0.6120340212087921
  outer loop
    vertex -14.382135547471394 -92.79272715273643 187.2500001998684
    vertex -15.77742036705833 -91.95212386018635 186.0000001998683
    vertex -15.324625796335763 -93.04526665379379 186.0000001998683
  endloop
endfacet
facet normal 0.7840657613772408 0.10322421575806089 0.6120340212088385
  outer loop
    vertex -25.023154486262403 -95.64397958402975 187.25000019986808
    vertex -24.235104033260292 -94.2183533683831 186.0000001998681
    vertex -25.210841738178353 -94.21835336838306 187.25000019986808
  endloop
endfacet
facet normal 0.7840657613772408 0.10322421575806089 0.6120340212088385
  outer loop
    vertex -24.235104033260292 -94.2183533683831 186.0000001998681
    vertex -25.023154486262403 -95.64397958402975 187.25000019986808
    vertex -24.08066423739807 -95.3914400829724 186.0000001998681
  endloop
endfacet
facet normal 0.7306329754693138 -0.3026380875564134 0.6120340212088327
  outer loop
    vertex -25.023154486262403 -92.79272715273643 187.25000019986808
    vertex -23.627869666675462 -91.95212386018635 186.00000019986817
    vertex -24.472883306564793 -91.46425500772736 187.25000019986817
  endloop
endfacet
facet normal 0.7306329754693138 -0.3026380875564134 0.6120340212088327
  outer loop
    vertex -23.627869666675462 -91.95212386018635 186.00000019986817
    vertex -25.023154486262403 -92.79272715273643 187.25000019986808
    vertex -24.08066423739807 -93.04526665379379 186.0000001998681
  endloop
endfacet
facet normal -0.784065761377272 -0.10322421575809383 0.6120340212087929
  outer loop
    vertex -15.324625796335763 -93.04526665379379 186.0000001998683
    vertex -14.194448295555446 -94.2183533683831 187.2500001998684
    vertex -14.382135547471394 -92.79272715273643 187.2500001998684
  endloop
endfacet
facet normal -0.784065761377272 -0.10322421575809383 0.6120340212087929
  outer loop
    vertex -14.194448295555446 -94.2183533683831 187.2500001998684
    vertex -15.324625796335763 -93.04526665379379 186.0000001998683
    vertex -15.17018600047343 -94.2183533683831 186.0000001998683
  endloop
endfacet
facet normal 0.6087614290087258 -0.7933533402912314 7.445813443195856e-15
  outer loop
    vertex -22.456743377522642 -89.44811507868518 187.25000019986837
    vertex -23.597528270615772 -90.3234701146342 188.92000019986824
    vertex -23.597528270615744 -90.3234701146342 187.25000019986825
  endloop
endfacet
facet normal 0.6087614290087258 -0.7933533402912314 7.445813443195856e-15
  outer loop
    vertex -23.597528270615772 -90.3234701146342 188.92000019986824
    vertex -22.456743377522642 -89.44811507868518 187.25000019986837
    vertex -22.45674337752267 -89.44811507868518 188.92000019986833
  endloop
endfacet
facet normal -0.1032242157581806 0.784065761377239 0.6120340212088204
  outer loop
    vertex -19.702645016866917 -99.72655008969453 187.25000019986817
    vertex -18.52955830227764 -98.59637258891419 186.0000001998683
    vertex -19.70264501686687 -98.75081238477652 186.00000019986817
  endloop
endfacet
facet normal -0.1032242157581806 0.784065761377239 0.6120340212088204
  outer loop
    vertex -18.52955830227764 -98.59637258891419 186.0000001998683
    vertex -19.702645016866917 -99.72655008969453 187.25000019986817
    vertex -18.277018801220233 -99.53886283777855 187.25000019986837
  endloop
endfacet
facet normal 0.10322421575816672 0.7840657613772468 0.612034021208813
  outer loop
    vertex -20.875731731456153 -98.59637258891419 186.00000019986823
    vertex -19.702645016866917 -99.72655008969453 187.25000019986817
    vertex -19.70264501686687 -98.75081238477652 186.00000019986817
  endloop
endfacet
facet normal 0.10322421575816672 0.7840657613772468 0.612034021208813
  outer loop
    vertex -19.702645016866917 -99.72655008969453 187.25000019986817
    vertex -20.875731731456153 -98.59637258891419 186.00000019986823
    vertex -21.128271232513576 -99.53886283777855 187.25000019986837
  endloop
endfacet
facet normal 0.6274087597112269 0.4814276738208607 0.6120340212088337
  outer loop
    vertex -24.472883306564793 -96.97245172903882 187.25000019986808
    vertex -22.907577522808815 -97.423285874325 186.00000019986817
    vertex -23.627869666675462 -96.48458287657982 186.0000001998681
  endloop
endfacet
facet normal 0.6274087597112269 0.4814276738208607 0.6120340212088337
  outer loop
    vertex -22.907577522808815 -97.423285874325 186.00000019986817
    vertex -24.472883306564793 -96.97245172903882 187.25000019986808
    vertex -23.597528270615744 -98.11323662213192 187.25000019986817
  endloop
endfacet
facet normal -0.3826834323651055 -0.9238795325112803 -5.163625464759935e-15
  outer loop
    vertex -16.9485466562112 -89.44811507868518 188.92000019986816
    vertex -18.202645016867027 -88.92865052915164 187.2500001998684
    vertex -16.948546656211157 -89.44811507868518 187.25000019986814
  endloop
endfacet
facet normal -0.3826834323651055 -0.9238795325112803 -5.163625464759935e-15
  outer loop
    vertex -18.202645016867027 -88.92865052915164 187.2500001998684
    vertex -16.9485466562112 -89.44811507868518 188.92000019986816
    vertex -18.202645016867027 -88.92865052915164 188.92000019986838
  endloop
endfacet
facet normal -0.4814276738207708 0.6274087597113028 0.6120340212088267
  outer loop
    vertex -17.436415508670162 -98.14357801819163 186.00000019986837
    vertex -15.807761763118059 -98.11323662213192 187.25000019986817
    vertex -16.497712510925 -97.423285874325 186.00000019986814
  endloop
endfacet
facet normal -0.4814276738207708 0.6274087597113028 0.6120340212088267
  outer loop
    vertex -15.807761763118059 -98.11323662213192 187.25000019986817
    vertex -17.436415508670162 -98.14357801819163 186.00000019986837
    vertex -16.94854665621116 -98.98859165808095 187.25000019986837
  endloop
endfacet
facet normal -0.7933533402912302 0.6087614290087271 -9.552593991051944e-15
  outer loop
    vertex -15.807761763118059 -98.11323662213192 187.25000019986817
    vertex -14.932406727169058 -96.97245172903882 188.92000019986824
    vertex -14.932406727169028 -96.97245172903882 187.25000019986825
  endloop
endfacet
facet normal -0.7933533402912302 0.6087614290087271 -9.552593991051944e-15
  outer loop
    vertex -14.932406727169058 -96.97245172903882 188.92000019986824
    vertex -15.807761763118059 -98.11323662213192 187.25000019986817
    vertex -15.807761763118082 -98.11323662213192 188.92000019986818
  endloop
endfacet
facet normal -0.7928519792535624 0.6083767211538376 0.03554580357530757
  outer loop
    vertex -16.890910248922292 -97.03008813632741 170.50000019986823
    vertex -15.77742036705833 -96.48458287657982 186.00000019986823
    vertex -16.25898728011333 -96.2065500896945 170.50000019986825
  endloop
endfacet
facet normal -0.7928519792535624 0.6083767211538376 0.03554580357530757
  outer loop
    vertex -15.77742036705833 -96.48458287657982 186.00000019986823
    vertex -16.890910248922292 -97.03008813632741 170.50000019986823
    vertex -16.497712510925 -97.423285874325 186.00000019986814
  endloop
endfacet
facet normal -0.792851979253576 -0.6083767211538204 0.03554580357530176
  outer loop
    vertex -16.890910248922292 -91.40661860043862 170.50000019986823
    vertex -15.77742036705833 -91.95212386018635 186.0000001998683
    vertex -16.497712510925 -91.01342086244117 186.00000019986817
  endloop
endfacet
facet normal -0.792851979253576 -0.6083767211538204 0.03554580357530176
  outer loop
    vertex -15.77742036705833 -91.95212386018635 186.0000001998683
    vertex -16.890910248922292 -91.40661860043862 170.50000019986823
    vertex -16.25898728011333 -92.23015664707155 170.50000019986837
  endloop
endfacet
facet normal -0.9238795325112881 0.3826834323650864 -1.1008381044825998e-14
  outer loop
    vertex -14.932406727169028 -96.97245172903882 187.25000019986825
    vertex -14.382135547471446 -95.64397958402975 188.92000019986838
    vertex -14.382135547471394 -95.64397958402975 187.2500001998684
  endloop
endfacet
facet normal -0.9238795325112881 0.3826834323650864 -1.1008381044825998e-14
  outer loop
    vertex -14.382135547471446 -95.64397958402975 188.92000019986838
    vertex -14.932406727169028 -96.97245172903882 187.25000019986825
    vertex -14.932406727169058 -96.97245172903882 188.92000019986824
  endloop
endfacet
facet normal -1.0 5.874930171974783e-17 -6.015928496102181e-15
  outer loop
    vertex -27.202645016866818 -101.71835336838312 170.00000019986825
    vertex -27.20264501686704 -86.71835336838312 207.3800001998681
    vertex -27.202645016866818 -86.7183533683831 170.00000019986825
  endloop
endfacet
facet normal -1.0 5.874930171974783e-17 -6.015928496102181e-15
  outer loop
    vertex -27.20264501686704 -86.71835336838312 207.3800001998681
    vertex -27.202645016866818 -101.71835336838312 170.00000019986825
    vertex -27.20264501686704 -101.71835336838312 207.38000019986802
  endloop
endfacet
facet normal 0.6274087597111997 -0.4814276738208793 0.6120340212088468
  outer loop
    vertex -24.472883306564793 -91.46425500772736 187.25000019986817
    vertex -22.90757752280879 -91.01342086244117 186.0000001998683
    vertex -23.597528270615744 -90.3234701146342 187.25000019986825
  endloop
endfacet
facet normal 0.6274087597111997 -0.4814276738208793 0.6120340212088468
  outer loop
    vertex -22.90757752280879 -91.01342086244117 186.0000001998683
    vertex -24.472883306564793 -91.46425500772736 187.25000019986817
    vertex -23.627869666675462 -91.95212386018635 186.00000019986817
  endloop
endfacet
facet normal -0.38244159489743484 0.9232956852170877 0.03554580357531375
  outer loop
    vertex -18.52955830227764 -98.59637258891419 186.0000001998683
    vertex -17.7144482955552 -97.66201110513634 170.5000001998684
    vertex -18.67347866309507 -98.05925449009895 170.50000019986837
  endloop
endfacet
facet normal -0.38244159489743484 0.9232956852170877 0.03554580357531375
  outer loop
    vertex -17.7144482955552 -97.66201110513634 170.5000001998684
    vertex -18.52955830227764 -98.59637258891419 186.0000001998683
    vertex -17.436415508670162 -98.14357801819163 186.00000019986837
  endloop
endfacet
facet normal 0.9238795325112881 -0.3826834323650864 1.1008381044825998e-14
  outer loop
    vertex -25.023154486262428 -92.79272715273643 188.9200001998681
    vertex -24.472883306564793 -91.46425500772736 187.25000019986817
    vertex -24.47288330656482 -91.46425500772736 188.92000019986816
  endloop
endfacet
facet normal 0.9238795325112881 -0.3826834323650864 1.1008381044825998e-14
  outer loop
    vertex -24.472883306564793 -91.46425500772736 187.25000019986817
    vertex -25.023154486262428 -92.79272715273643 188.9200001998681
    vertex -25.023154486262403 -92.79272715273643 187.25000019986808
  endloop
endfacet
facet normal -0.7933533402912384 -0.6087614290087167 -9.120234902357533e-15
  outer loop
    vertex -14.932406727169028 -91.46425500772736 187.2500001998684
    vertex -15.807761763118076 -90.3234701146342 188.92000019986818
    vertex -15.807761763118053 -90.3234701146342 187.2500001998682
  endloop
endfacet
facet normal -0.7933533402912384 -0.6087614290087167 -9.120234902357533e-15
  outer loop
    vertex -15.807761763118076 -90.3234701146342 188.92000019986818
    vertex -14.932406727169028 -91.46425500772736 187.2500001998684
    vertex -14.932406727169056 -91.46425500772736 188.92000019986838
  endloop
endfacet
facet normal 5.0785564932259166e-15 1.2872846451978552e-15 -1.0
  outer loop
    vertex -12.202645016866796 -101.71835336838312 170.0000001998683
    vertex -16.258987280113352 -96.20655008969455 170.00000019986834
    vertex -12.202645016866796 -86.7183533683831 170.00000019986837
  endloop
endfacet
facet normal 5.0785564932259166e-15 1.2872846451978552e-15 -1.0
  outer loop
    vertex -16.258987280113352 -96.20655008969455 170.00000019986834
    vertex -12.202645016866796 -101.71835336838312 170.0000001998683
    vertex -16.890910248922317 -97.03008813632744 170.00000019986828
  endloop
endfacet
facet normal 5.0785564932259166e-15 1.2872846451978552e-15 -1.0
  outer loop
    vertex -16.890910248922317 -97.03008813632744 170.00000019986828
    vertex -12.202645016866796 -101.71835336838312 170.0000001998683
    vertex -17.714448295555158 -97.66201110513634 170.0000001998683
  endloop
endfacet
facet normal 5.0785564932259166e-15 1.2872846451978552e-15 -1.0
  outer loop
    vertex -17.714448295555158 -97.66201110513634 170.0000001998683
    vertex -12.202645016866796 -101.71835336838312 170.0000001998683
    vertex -27.202645016866818 -101.71835336838312 170.00000019986825
  endloop
endfacet
facet normal 5.0785564932259166e-15 1.2872846451978552e-15 -1.0
  outer loop
    vertex -12.202645016866796 -86.7183533683831 170.00000019986837
    vertex -16.258987280113352 -96.20655008969455 170.00000019986834
    vertex -15.8617438951507 -95.24751972215468 170.00000019986834
  endloop
endfacet
facet normal 5.0785564932259166e-15 1.2872846451978552e-15 -1.0
  outer loop
    vertex -12.202645016866796 -86.7183533683831 170.00000019986837
    vertex -15.8617438951507 -95.24751972215468 170.00000019986834
    vertex -15.726251574243696 -94.21835336838309 170.00000019986834
  endloop
endfacet
facet normal 5.0785564932259166e-15 1.2872846451978552e-15 -1.0
  outer loop
    vertex -17.714448295555158 -97.66201110513634 170.0000001998683
    vertex -27.202645016866818 -101.71835336838312 170.00000019986825
    vertex -18.673478663095047 -98.05925449009895 170.0000001998683
  endloop
endfacet
facet normal 5.0785564932259166e-15 1.2872846451978552e-15 -1.0
  outer loop
    vertex -18.673478663095047 -98.05925449009895 170.0000001998683
    vertex -27.202645016866818 -101.71835336838312 170.00000019986825
    vertex -19.702645016866686 -98.19474681100596 170.0000001998683
  endloop
endfacet
facet normal 5.0785564932259166e-15 1.2872846451978552e-15 -1.0
  outer loop
    vertex -19.702645016866686 -98.19474681100596 170.0000001998683
    vertex -27.202645016866818 -101.71835336838312 170.00000019986825
    vertex -20.73181137063823 -98.05925449009894 170.00000019986825
  endloop
endfacet
facet normal 5.0785564932259166e-15 1.2872846451978552e-15 -1.0
  outer loop
    vertex -20.73181137063823 -98.05925449009894 170.00000019986825
    vertex -27.202645016866818 -101.71835336838312 170.00000019986825
    vertex -21.690841738178122 -97.66201110513634 170.00000019986828
  endloop
endfacet
facet normal 5.0785564932259166e-15 1.2872846451978552e-15 -1.0
  outer loop
    vertex -21.690841738178122 -97.66201110513634 170.00000019986828
    vertex -27.202645016866818 -101.71835336838312 170.00000019986825
    vertex -22.514379784811055 -97.03008813632748 170.00000019986828
  endloop
endfacet
facet normal 5.0785564932259166e-15 1.2872846451978552e-15 -1.0
  outer loop
    vertex -22.514379784811055 -97.03008813632748 170.00000019986828
    vertex -27.202645016866818 -101.71835336838312 170.00000019986825
    vertex -23.146302753620017 -96.20655008969457 170.00000019986828
  endloop
endfacet
facet normal 5.0785564932259166e-15 1.2872846451978552e-15 -1.0
  outer loop
    vertex -23.146302753620017 -96.20655008969457 170.00000019986828
    vertex -27.202645016866818 -101.71835336838312 170.00000019986825
    vertex -23.543546138582645 -95.2475197221547 170.00000019986828
  endloop
endfacet
facet normal 5.0785564932259166e-15 1.2872846451978552e-15 -1.0
  outer loop
    vertex -23.543546138582645 -95.2475197221547 170.00000019986828
    vertex -27.202645016866818 -101.71835336838312 170.00000019986825
    vertex -23.679038459489604 -94.21835336838303 170.00000019986828
  endloop
endfacet
facet normal 5.0785564932259166e-15 1.2872846451978552e-15 -1.0
  outer loop
    vertex -21.690841738178122 -90.77469563162968 170.00000019986825
    vertex -21.20264501686702 -86.7183533683831 170.0000001998683
    vertex -21.20264501686702 -90.57247792855658 170.0000001998683
  endloop
endfacet
facet normal 5.0785564932259166e-15 1.2872846451978552e-15 -1.0
  outer loop
    vertex -21.20264501686702 -86.7183533683831 170.0000001998683
    vertex -21.690841738178122 -90.77469563162968 170.00000019986825
    vertex -27.202645016866818 -86.7183533683831 170.00000019986825
  endloop
endfacet
facet normal 5.0785564932259166e-15 1.2872846451978552e-15 -1.0
  outer loop
    vertex -27.202645016866818 -86.7183533683831 170.00000019986825
    vertex -21.690841738178122 -90.77469563162968 170.00000019986825
    vertex -22.514379784811076 -91.4066186004386 170.00000019986828
  endloop
endfacet
facet normal 5.0785564932259166e-15 1.2872846451978552e-15 -1.0
  outer loop
    vertex -27.202645016866818 -86.7183533683831 170.00000019986825
    vertex -22.514379784811076 -91.4066186004386 170.00000019986828
    vertex -23.14630275362006 -92.2301566470715 170.00000019986828
  endloop
endfacet
facet normal 5.0785564932259166e-15 1.2872846451978552e-15 -1.0
  outer loop
    vertex -27.202645016866818 -86.7183533683831 170.00000019986825
    vertex -23.14630275362006 -92.2301566470715 170.00000019986828
    vertex -23.54354613858269 -93.18918701461138 170.00000019986828
  endloop
endfacet
facet normal 5.0785564932259166e-15 1.2872846451978552e-15 -1.0
  outer loop
    vertex -27.202645016866818 -86.7183533683831 170.00000019986825
    vertex -23.54354613858269 -93.18918701461138 170.00000019986828
    vertex -23.679038459489604 -94.21835336838303 170.00000019986828
  endloop
endfacet
facet normal 5.0785564932259166e-15 1.2872846451978552e-15 -1.0
  outer loop
    vertex -27.202645016866818 -86.7183533683831 170.00000019986825
    vertex -23.679038459489604 -94.21835336838303 170.00000019986828
    vertex -27.202645016866818 -101.71835336838312 170.00000019986825
  endloop
endfacet
facet normal 5.0785564932259166e-15 1.2872846451978552e-15 -1.0
  outer loop
    vertex -12.202645016866796 -86.7183533683831 170.00000019986837
    vertex -15.8617438951507 -93.18918701461138 170.00000019986834
    vertex -18.202645016867027 -86.7183533683831 170.0000001998683
  endloop
endfacet
facet normal 5.0785564932259166e-15 1.2872846451978552e-15 -1.0
  outer loop
    vertex -15.8617438951507 -93.18918701461138 170.00000019986834
    vertex -12.202645016866796 -86.7183533683831 170.00000019986837
    vertex -15.726251574243696 -94.21835336838309 170.00000019986834
  endloop
endfacet
facet normal 5.0785564932259166e-15 1.2872846451978552e-15 -1.0
  outer loop
    vertex -18.202645016867027 -86.7183533683831 170.0000001998683
    vertex -15.8617438951507 -93.18918701461138 170.00000019986834
    vertex -16.258987280113285 -92.23015664707158 170.00000019986834
  endloop
endfacet
facet normal 5.0785564932259166e-15 1.2872846451978552e-15 -1.0
  outer loop
    vertex -18.202645016867027 -86.7183533683831 170.0000001998683
    vertex -16.258987280113285 -92.23015664707158 170.00000019986834
    vertex -16.890910248922246 -91.40661860043865 170.0000001998683
  endloop
endfacet
facet normal 5.0785564932259166e-15 1.2872846451978552e-15 -1.0
  outer loop
    vertex -18.202645016867027 -86.7183533683831 170.0000001998683
    vertex -16.890910248922246 -91.40661860043865 170.0000001998683
    vertex -17.71444829555518 -90.77469563162968 170.00000019986834
  endloop
endfacet
facet normal 5.0785564932259166e-15 1.2872846451978552e-15 -1.0
  outer loop
    vertex -18.202645016867027 -86.7183533683831 170.0000001998683
    vertex -17.71444829555518 -90.77469563162968 170.00000019986834
    vertex -18.202645016867027 -90.57247792855627 170.0000001998683
  endloop
endfacet
facet normal 0.7933533402912384 0.6087614290087167 9.120234902357533e-15
  outer loop
    vertex -23.597528270615772 -98.11323662213192 188.92000019986816
    vertex -24.472883306564793 -96.97245172903882 187.25000019986808
    vertex -24.47288330656482 -96.97245172903882 188.9200001998681
  endloop
endfacet
facet normal 0.7933533402912384 0.6087614290087167 9.120234902357533e-15
  outer loop
    vertex -24.472883306564793 -96.97245172903882 187.25000019986808
    vertex -23.597528270615772 -98.11323662213192 188.92000019986816
    vertex -23.597528270615744 -98.11323662213192 187.25000019986817
  endloop
endfacet
facet normal 0.9914448613738103 0.13052619222005257 1.1621261835520979e-14
  outer loop
    vertex -25.210841738178395 -94.2183533683831 188.9200001998681
    vertex -25.023154486262403 -95.64397958402975 187.25000019986808
    vertex -25.210841738178353 -94.21835336838306 187.25000019986808
  endloop
endfacet
facet normal 0.9914448613738103 0.13052619222005257 1.1621261835520979e-14
  outer loop
    vertex -25.023154486262403 -95.64397958402975 187.25000019986808
    vertex -25.210841738178395 -94.2183533683831 188.9200001998681
    vertex -25.023154486262428 -95.64397958402975 188.9200001998681
  endloop
endfacet
facet normal -0.4814276738208598 -0.6274087597112377 0.6120340212088233
  outer loop
    vertex -16.497712510925 -91.01342086244117 186.00000019986817
    vertex -16.948546656211157 -89.44811507868518 187.25000019986814
    vertex -17.436415508670162 -90.29312871857454 186.0000001998681
  endloop
endfacet
facet normal -0.4814276738208598 -0.6274087597112377 0.6120340212088233
  outer loop
    vertex -16.948546656211157 -89.44811507868518 187.25000019986814
    vertex -16.497712510925 -91.01342086244117 186.00000019986817
    vertex -15.807761763118053 -90.3234701146342 187.2500001998682
  endloop
endfacet
facet normal 0.3026380875564012 0.7306329754693349 0.6120340212088133
  outer loop
    vertex -21.968874525063605 -98.14357801819163 186.0000001998683
    vertex -21.128271232513576 -99.53886283777855 187.25000019986837
    vertex -20.875731731456153 -98.59637258891419 186.00000019986823
  endloop
endfacet
facet normal 0.3026380875564012 0.7306329754693349 0.6120340212088133
  outer loop
    vertex -21.128271232513576 -99.53886283777855 187.25000019986837
    vertex -21.968874525063605 -98.14357801819163 186.0000001998683
    vertex -22.456743377522642 -98.98859165808095 187.2500001998683
  endloop
endfacet
facet normal -0.9238795325113026 -0.38268343236505137 -5.390428255698062e-14
  outer loop
    vertex -16.258987280113285 -92.23015664707158 170.00000019986834
    vertex -15.861743895150724 -93.18918701461138 170.50000019986837
    vertex -16.25898728011333 -92.23015664707155 170.50000019986837
  endloop
endfacet
facet normal -0.9238795325113026 -0.38268343236505137 -5.390428255698062e-14
  outer loop
    vertex -15.861743895150724 -93.18918701461138 170.50000019986837
    vertex -16.258987280113285 -92.23015664707158 170.00000019986834
    vertex -15.8617438951507 -93.18918701461138 170.00000019986834
  endloop
endfacet
facet normal 0.4814276738207781 0.6274087597112918 0.6120340212088321
  outer loop
    vertex -23.597528270615744 -98.11323662213192 187.25000019986817
    vertex -21.968874525063605 -98.14357801819163 186.0000001998683
    vertex -22.907577522808815 -97.423285874325 186.00000019986817
  endloop
endfacet
facet normal 0.4814276738207781 0.6274087597112918 0.6120340212088321
  outer loop
    vertex -21.968874525063605 -98.14357801819163 186.0000001998683
    vertex -23.597528270615744 -98.11323662213192 187.25000019986817
    vertex -22.456743377522642 -98.98859165808095 187.2500001998683
  endloop
endfacet
facet normal -0.30263808755639743 0.7306329754693293 0.6120340212088222
  outer loop
    vertex -18.277018801220233 -99.53886283777855 187.25000019986837
    vertex -17.436415508670162 -98.14357801819163 186.00000019986837
    vertex -18.52955830227764 -98.59637258891419 186.0000001998683
  endloop
endfacet
facet normal -0.30263808755639743 0.7306329754693293 0.6120340212088222
  outer loop
    vertex -17.436415508670162 -98.14357801819163 186.00000019986837
    vertex -18.277018801220233 -99.53886283777855 187.25000019986837
    vertex -16.94854665621116 -98.98859165808095 187.25000019986837
  endloop
endfacet
facet normal 0.9232956852170702 -0.38244159489747626 0.03554580357532328
  outer loop
    vertex -24.08066423739807 -93.04526665379379 186.0000001998681
    vertex -23.146302753620038 -92.23015664707151 170.50000019986825
    vertex -23.627869666675462 -91.95212386018635 186.00000019986817
  endloop
endfacet
facet normal 0.9232956852170702 -0.38244159489747626 0.03554580357532328
  outer loop
    vertex -23.146302753620038 -92.23015664707151 170.50000019986825
    vertex -24.08066423739807 -93.04526665379379 186.0000001998681
    vertex -23.543546138582713 -93.18918701461138 170.50000019986817
  endloop
endfacet
facet normal -0.9908183160512752 -0.13044370596353513 0.03554580357530077
  outer loop
    vertex -15.861743895150724 -93.18918701461138 170.50000019986837
    vertex -15.17018600047343 -94.2183533683831 186.0000001998683
    vertex -15.324625796335763 -93.04526665379379 186.0000001998683
  endloop
endfacet
facet normal -0.9908183160512752 -0.13044370596353513 0.03554580357530077
  outer loop
    vertex -15.17018600047343 -94.2183533683831 186.0000001998683
    vertex -15.861743895150724 -93.18918701461138 170.50000019986837
    vertex -15.726251574243719 -94.21835336838306 170.50000019986837
  endloop
endfacet
facet normal -0.7840657613772728 0.10322421575809827 0.6120340212087912
  outer loop
    vertex -15.324625796335763 -95.3914400829724 186.0000001998683
    vertex -14.194448295555446 -94.2183533683831 187.2500001998684
    vertex -15.17018600047343 -94.2183533683831 186.0000001998683
  endloop
endfacet
facet normal -0.7840657613772728 0.10322421575809827 0.6120340212087912
  outer loop
    vertex -14.194448295555446 -94.2183533683831 187.2500001998684
    vertex -15.324625796335763 -95.3914400829724 186.0000001998683
    vertex -14.382135547471394 -95.64397958402975 187.2500001998684
  endloop
endfacet
facet normal -0.6087614290087258 0.7933533402912314 -7.445813443195856e-15
  outer loop
    vertex -16.94854665621116 -98.98859165808095 187.25000019986837
    vertex -15.807761763118082 -98.11323662213192 188.92000019986818
    vertex -15.807761763118059 -98.11323662213192 187.25000019986817
  endloop
endfacet
facet normal -0.6087614290087258 0.7933533402912314 -7.445813443195856e-15
  outer loop
    vertex -15.807761763118082 -98.11323662213192 188.92000019986818
    vertex -16.94854665621116 -98.98859165808095 187.25000019986837
    vertex -16.948546656211207 -98.98859165808095 188.92000019986835
  endloop
endfacet
facet normal 0.7933533402912302 -0.6087614290087271 9.552593991051944e-15
  outer loop
    vertex -24.47288330656482 -91.46425500772736 188.92000019986816
    vertex -23.597528270615744 -90.3234701146342 187.25000019986825
    vertex -23.597528270615772 -90.3234701146342 188.92000019986824
  endloop
endfacet
facet normal 0.7933533402912302 -0.6087614290087271 9.552593991051944e-15
  outer loop
    vertex -23.597528270615744 -90.3234701146342 187.25000019986825
    vertex -24.47288330656482 -91.46425500772736 188.92000019986816
    vertex -24.472883306564793 -91.46425500772736 187.25000019986817
  endloop
endfacet
facet normal -0.8660254037844393 -0.49999999999999906 -6.476637889943086e-15
  outer loop
    vertex -13.30264501686695 -94.2183533683831 188.92000019986838
    vertex -16.50264501686708 -88.6757907841627 207.3800001998683
    vertex -16.50264501686694 -88.67579078416269 188.9200001998682
  endloop
endfacet
facet normal -0.8660254037844393 -0.49999999999999906 -6.476637889943086e-15
  outer loop
    vertex -16.50264501686708 -88.6757907841627 207.3800001998683
    vertex -13.30264501686695 -94.2183533683831 188.92000019986838
    vertex -13.302645016867089 -94.21835336838313 207.38000019986845
  endloop
endfacet
facet normal 0.13052619222013553 0.9914448613737994 4.768561259662627e-14
  outer loop
    vertex -20.731811370638255 -98.05925449009895 170.50000019986825
    vertex -19.702645016866686 -98.19474681100596 170.0000001998683
    vertex -20.73181137063823 -98.05925449009894 170.00000019986825
  endloop
endfacet
facet normal 0.13052619222013553 0.9914448613737994 4.768561259662627e-14
  outer loop
    vertex -19.702645016866686 -98.19474681100596 170.0000001998683
    vertex -20.731811370638255 -98.05925449009895 170.50000019986825
    vertex -19.702645016866686 -98.19474681100598 170.50000019986823
  endloop
endfacet
facet normal 0.38244159489743906 0.9232956852170857 0.03554580357532454
  outer loop
    vertex -21.690841738178122 -97.66201110513634 170.50000019986837
    vertex -20.875731731456153 -98.59637258891419 186.00000019986823
    vertex -20.731811370638255 -98.05925449009895 170.50000019986825
  endloop
endfacet
facet normal 0.38244159489743906 0.9232956852170857 0.03554580357532454
  outer loop
    vertex -20.875731731456153 -98.59637258891419 186.00000019986823
    vertex -21.690841738178122 -97.66201110513634 170.50000019986837
    vertex -21.968874525063605 -98.14357801819163 186.0000001998683
  endloop
endfacet
facet normal -0.9908183160512739 0.1304437059635454 0.0355458035753021
  outer loop
    vertex -15.861743895150724 -95.24751972215464 170.50000019986837
    vertex -15.17018600047343 -94.2183533683831 186.0000001998683
    vertex -15.726251574243719 -94.21835336838306 170.50000019986837
  endloop
endfacet
facet normal -0.9908183160512739 0.1304437059635454 0.0355458035753021
  outer loop
    vertex -15.17018600047343 -94.2183533683831 186.0000001998683
    vertex -15.861743895150724 -95.24751972215464 170.50000019986837
    vertex -15.324625796335763 -95.3914400829724 186.0000001998683
  endloop
endfacet
facet normal 0.3826834323650485 -0.923879532511304 2.082798395439344e-14
  outer loop
    vertex -21.20264501686702 -90.57247792855658 170.0000001998683
    vertex -21.690841738178122 -90.77469563162968 170.50000019986823
    vertex -21.690841738178122 -90.77469563162968 170.00000019986825
  endloop
endfacet
facet normal 0.3826834323650485 -0.923879532511304 2.082798395439344e-14
  outer loop
    vertex -21.690841738178122 -90.77469563162968 170.50000019986823
    vertex -21.20264501686702 -90.57247792855658 170.0000001998683
    vertex -21.20264501686702 -90.57247792855657 170.50000019986823
  endloop
endfacet
facet normal 0.1304437059635554 0.9908183160512719 0.03554580357532132
  outer loop
    vertex -20.731811370638255 -98.05925449009895 170.50000019986825
    vertex -19.70264501686687 -98.75081238477652 186.00000019986817
    vertex -19.702645016866686 -98.19474681100598 170.50000019986823
  endloop
endfacet
facet normal 0.1304437059635554 0.9908183160512719 0.03554580357532132
  outer loop
    vertex -19.70264501686687 -98.75081238477652 186.00000019986817
    vertex -20.731811370638255 -98.05925449009895 170.50000019986825
    vertex -20.875731731456153 -98.59637258891419 186.00000019986823
  endloop
endfacet
facet normal 0.9238795325112935 -0.3826834323650734 -8.634553050360493e-15
  outer loop
    vertex -23.146302753620038 -92.23015664707151 170.50000019986825
    vertex -23.54354613858269 -93.18918701461138 170.00000019986828
    vertex -23.14630275362006 -92.2301566470715 170.00000019986828
  endloop
endfacet
facet normal 0.9238795325112935 -0.3826834323650734 -8.634553050360493e-15
  outer loop
    vertex -23.54354613858269 -93.18918701461138 170.00000019986828
    vertex -23.146302753620038 -92.23015664707151 170.50000019986825
    vertex -23.543546138582713 -93.18918701461138 170.50000019986817
  endloop
endfacet
facet normal 0.7933533402912084 0.6087614290087554 -4.6638411791536046e-14
  outer loop
    vertex -22.514379784811076 -97.03008813632741 170.50000019986828
    vertex -23.146302753620017 -96.20655008969457 170.00000019986828
    vertex -23.146302753620038 -96.2065500896945 170.50000019986823
  endloop
endfacet
facet normal 0.7933533402912084 0.6087614290087554 -4.6638411791536046e-14
  outer loop
    vertex -23.146302753620017 -96.20655008969457 170.00000019986828
    vertex -22.514379784811076 -97.03008813632741 170.50000019986828
    vertex -22.514379784811055 -97.03008813632748 170.00000019986828
  endloop
endfacet
facet normal -0.9238795325112986 0.382683432365061 -3.451560635856999e-14
  outer loop
    vertex -15.8617438951507 -95.24751972215468 170.00000019986834
    vertex -16.25898728011333 -96.2065500896945 170.50000019986825
    vertex -15.861743895150724 -95.24751972215464 170.50000019986837
  endloop
endfacet
facet normal -0.9238795325112986 0.382683432365061 -3.451560635856999e-14
  outer loop
    vertex -16.25898728011333 -96.2065500896945 170.50000019986825
    vertex -15.8617438951507 -95.24751972215468 170.00000019986834
    vertex -16.258987280113352 -96.20655008969455 170.00000019986834
  endloop
endfacet
facet normal 0.7928519792535679 0.6083767211538293 0.03554580357532852
  outer loop
    vertex -23.627869666675462 -96.48458287657982 186.0000001998681
    vertex -22.514379784811076 -97.03008813632741 170.50000019986828
    vertex -23.146302753620038 -96.2065500896945 170.50000019986823
  endloop
endfacet
facet normal 0.7928519792535679 0.6083767211538293 0.03554580357532852
  outer loop
    vertex -22.514379784811076 -97.03008813632741 170.50000019986828
    vertex -23.627869666675462 -96.48458287657982 186.0000001998681
    vertex -22.907577522808815 -97.423285874325 186.00000019986817
  endloop
endfacet
facet normal -0.6087614290087425 -0.7933533402912185 -2.3253321591306627e-14
  outer loop
    vertex -16.890910248922292 -91.40661860043862 170.50000019986823
    vertex -17.71444829555518 -90.77469563162968 170.00000019986834
    vertex -16.890910248922246 -91.40661860043865 170.0000001998683
  endloop
endfacet
facet normal -0.6087614290087425 -0.7933533402912185 -2.3253321591306627e-14
  outer loop
    vertex -17.71444829555518 -90.77469563162968 170.00000019986834
    vertex -16.890910248922292 -91.40661860043862 170.50000019986823
    vertex -17.7144482955552 -90.77469563162968 170.5000001998683
  endloop
endfacet
facet normal -0.9232956852170864 -0.3824415948974391 0.03554580357530016
  outer loop
    vertex -16.25898728011333 -92.23015664707155 170.50000019986837
    vertex -15.324625796335763 -93.04526665379379 186.0000001998683
    vertex -15.77742036705833 -91.95212386018635 186.0000001998683
  endloop
endfacet
facet normal -0.9232956852170864 -0.3824415948974391 0.03554580357530016
  outer loop
    vertex -15.324625796335763 -93.04526665379379 186.0000001998683
    vertex -16.25898728011333 -92.23015664707155 170.50000019986837
    vertex -15.861743895150724 -93.18918701461138 170.50000019986837
  endloop
endfacet
facet normal 0.9238795325112918 0.38268343236507724 3.159325519979398e-14
  outer loop
    vertex -23.146302753620038 -96.2065500896945 170.50000019986823
    vertex -23.543546138582645 -95.2475197221547 170.00000019986828
    vertex -23.543546138582713 -95.24751972215464 170.50000019986817
  endloop
endfacet
facet normal 0.9238795325112918 0.38268343236507724 3.159325519979398e-14
  outer loop
    vertex -23.543546138582645 -95.2475197221547 170.00000019986828
    vertex -23.146302753620038 -96.2065500896945 170.50000019986823
    vertex -23.146302753620017 -96.20655008969457 170.00000019986828
  endloop
endfacet
facet normal 0.9232956852170707 0.3824415948974748 0.035545803575327724
  outer loop
    vertex -24.08066423739807 -95.3914400829724 186.0000001998681
    vertex -23.146302753620038 -96.2065500896945 170.50000019986823
    vertex -23.543546138582713 -95.24751972215464 170.50000019986817
  endloop
endfacet
facet normal 0.9232956852170707 0.3824415948974748 0.035545803575327724
  outer loop
    vertex -23.146302753620038 -96.2065500896945 170.50000019986823
    vertex -24.08066423739807 -95.3914400829724 186.0000001998681
    vertex -23.627869666675462 -96.48458287657982 186.0000001998681
  endloop
endfacet
facet normal 0.866025403784439 0.49999999999999944 6.476637889943086e-15
  outer loop
    vertex -26.102645016867044 -94.21835336838313 207.3800001998684
    vertex -22.902645016866934 -99.7609159526035 188.92000019986827
    vertex -26.102645016866866 -94.2183533683831 188.92000019986833
  endloop
endfacet
facet normal 0.866025403784439 0.49999999999999944 6.476637889943086e-15
  outer loop
    vertex -22.902645016866934 -99.7609159526035 188.92000019986827
    vertex -26.102645016867044 -94.21835336838313 207.3800001998684
    vertex -22.902645016867073 -99.76091595260351 207.3800001998683
  endloop
endfacet
facet normal -0.6083767211538155 0.7928519792535794 0.03554580357531053
  outer loop
    vertex -17.7144482955552 -97.66201110513634 170.5000001998684
    vertex -16.497712510925 -97.423285874325 186.00000019986814
    vertex -16.890910248922292 -97.03008813632741 170.50000019986823
  endloop
endfacet
facet normal -0.6083767211538155 0.7928519792535794 0.03554580357531053
  outer loop
    vertex -16.497712510925 -97.423285874325 186.00000019986814
    vertex -17.7144482955552 -97.66201110513634 170.5000001998684
    vertex -17.436415508670162 -98.14357801819163 186.00000019986837
  endloop
endfacet
facet normal -0.8660254037844388 0.4999999999999999 -6.5031876847506634e-15
  outer loop
    vertex -16.502645016866943 -99.7609159526035 188.92000019986818
    vertex -13.302645016867089 -94.21835336838313 207.38000019986845
    vertex -13.30264501686695 -94.2183533683831 188.92000019986838
  endloop
endfacet
facet normal -0.8660254037844388 0.4999999999999999 -6.5031876847506634e-15
  outer loop
    vertex -13.302645016867089 -94.21835336838313 207.38000019986845
    vertex -16.502645016866943 -99.7609159526035 188.92000019986818
    vertex -16.502645016867106 -99.76091595260351 207.38000019986825
  endloop
endfacet
facet normal 0.3824415948974698 -0.9232956852170734 0.03554580357531599
  outer loop
    vertex -21.202645016867027 -89.97574606438904 186.00000019986823
    vertex -21.690841738178122 -90.77469563162968 170.50000019986823
    vertex -21.20264501686702 -90.57247792855657 170.50000019986823
  endloop
endfacet
facet normal 0.3824415948974698 -0.9232956852170734 0.03554580357531599
  outer loop
    vertex -21.690841738178122 -90.77469563162968 170.50000019986823
    vertex -21.202645016867027 -89.97574606438904 186.00000019986823
    vertex -21.968874525063605 -90.29312871857454 186.0000001998683
  endloop
endfacet
facet normal -0.13044370596355795 0.9908183160512718 0.03554580357531792
  outer loop
    vertex -19.70264501686687 -98.75081238477652 186.00000019986817
    vertex -18.67347866309507 -98.05925449009895 170.50000019986837
    vertex -19.702645016866686 -98.19474681100598 170.50000019986823
  endloop
endfacet
facet normal -0.13044370596355795 0.9908183160512718 0.03554580357531792
  outer loop
    vertex -18.67347866309507 -98.05925449009895 170.50000019986837
    vertex -19.70264501686687 -98.75081238477652 186.00000019986817
    vertex -18.52955830227764 -98.59637258891419 186.0000001998683
  endloop
endfacet
facet normal -1.3009781381555924e-14 3.5266836764727624e-15 1.0
  outer loop
    vertex -13.30264501686695 -94.2183533683831 188.92000019986838
    vertex -14.382135547471446 -92.79272715273643 188.92000019986838
    vertex -14.194448295555475 -94.2183533683831 188.92000019986838
  endloop
endfacet
facet normal -1.3009781381555924e-14 3.5266836764727624e-15 1.0
  outer loop
    vertex -14.382135547471446 -92.79272715273643 188.92000019986838
    vertex -13.30264501686695 -94.2183533683831 188.92000019986838
    vertex -14.932406727169056 -91.46425500772736 188.92000019986838
  endloop
endfacet
facet normal -1.3009781381555924e-14 3.5266836764727624e-15 1.0
  outer loop
    vertex -14.932406727169056 -91.46425500772736 188.92000019986838
    vertex -13.30264501686695 -94.2183533683831 188.92000019986838
    vertex -16.50264501686694 -88.67579078416269 188.9200001998682
  endloop
endfacet
facet normal -1.3009781381555924e-14 3.5266836764727624e-15 1.0
  outer loop
    vertex -14.932406727169056 -91.46425500772736 188.92000019986838
    vertex -16.50264501686694 -88.67579078416269 188.9200001998682
    vertex -15.807761763118076 -90.3234701146342 188.92000019986818
  endloop
endfacet
facet normal -1.3009781381555924e-14 3.5266836764727624e-15 1.0
  outer loop
    vertex -15.807761763118076 -90.3234701146342 188.92000019986818
    vertex -16.50264501686694 -88.67579078416269 188.9200001998682
    vertex -16.9485466562112 -89.44811507868518 188.92000019986816
  endloop
endfacet
facet normal -1.3009781381555924e-14 3.5266836764727624e-15 1.0
  outer loop
    vertex -16.9485466562112 -89.44811507868518 188.92000019986816
    vertex -16.50264501686694 -88.67579078416269 188.9200001998682
    vertex -18.202645016867027 -88.67579078416269 188.92000019986807
  endloop
endfacet
facet normal -1.3009781381555924e-14 3.5266836764727624e-15 1.0
  outer loop
    vertex -16.9485466562112 -89.44811507868518 188.92000019986816
    vertex -18.202645016867027 -88.67579078416269 188.92000019986807
    vertex -18.202645016867027 -88.92865052915164 188.92000019986838
  endloop
endfacet
facet normal -1.3009781381555924e-14 3.5266836764727624e-15 1.0
  outer loop
    vertex -22.90264501686691 -88.67579078416269 188.92000019986833
    vertex -21.202645016867027 -88.9286505291518 188.92000019986818
    vertex -21.202645016867027 -88.67579078416269 188.92000019986807
  endloop
endfacet
facet normal -1.3009781381555924e-14 3.5266836764727624e-15 1.0
  outer loop
    vertex -21.202645016867027 -88.9286505291518 188.92000019986818
    vertex -22.90264501686691 -88.67579078416269 188.92000019986833
    vertex -22.45674337752267 -89.44811507868518 188.92000019986833
  endloop
endfacet
facet normal -1.3009781381555924e-14 3.5266836764727624e-15 1.0
  outer loop
    vertex -22.45674337752267 -89.44811507868518 188.92000019986833
    vertex -22.90264501686691 -88.67579078416269 188.92000019986833
    vertex -23.597528270615772 -90.3234701146342 188.92000019986824
  endloop
endfacet
facet normal -1.3009781381555924e-14 3.5266836764727624e-15 1.0
  outer loop
    vertex -23.597528270615772 -90.3234701146342 188.92000019986824
    vertex -22.90264501686691 -88.67579078416269 188.92000019986833
    vertex -24.47288330656482 -91.46425500772736 188.92000019986816
  endloop
endfacet
facet normal -1.3009781381555924e-14 3.5266836764727624e-15 1.0
  outer loop
    vertex -24.47288330656482 -91.46425500772736 188.92000019986816
    vertex -22.90264501686691 -88.67579078416269 188.92000019986833
    vertex -26.102645016866866 -94.2183533683831 188.92000019986833
  endloop
endfacet
facet normal -1.3009781381555924e-14 3.5266836764727624e-15 1.0
  outer loop
    vertex -24.47288330656482 -91.46425500772736 188.92000019986816
    vertex -26.102645016866866 -94.2183533683831 188.92000019986833
    vertex -25.023154486262428 -92.79272715273643 188.9200001998681
  endloop
endfacet
facet normal -1.3009781381555924e-14 3.5266836764727624e-15 1.0
  outer loop
    vertex -25.023154486262428 -92.79272715273643 188.9200001998681
    vertex -26.102645016866866 -94.2183533683831 188.92000019986833
    vertex -25.210841738178395 -94.2183533683831 188.9200001998681
  endloop
endfacet
facet normal -1.3009781381555924e-14 3.5266836764727624e-15 1.0
  outer loop
    vertex -13.30264501686695 -94.2183533683831 188.92000019986838
    vertex -14.932406727169058 -96.97245172903882 188.92000019986824
    vertex -16.502645016866943 -99.7609159526035 188.92000019986818
  endloop
endfacet
facet normal -1.3009781381555924e-14 3.5266836764727624e-15 1.0
  outer loop
    vertex -14.932406727169058 -96.97245172903882 188.92000019986824
    vertex -13.30264501686695 -94.2183533683831 188.92000019986838
    vertex -14.382135547471446 -95.64397958402975 188.92000019986838
  endloop
endfacet
facet normal -1.3009781381555924e-14 3.5266836764727624e-15 1.0
  outer loop
    vertex -14.382135547471446 -95.64397958402975 188.92000019986838
    vertex -13.30264501686695 -94.2183533683831 188.92000019986838
    vertex -14.194448295555475 -94.2183533683831 188.92000019986838
  endloop
endfacet
facet normal -1.3009781381555924e-14 3.5266836764727624e-15 1.0
  outer loop
    vertex -16.502645016866943 -99.7609159526035 188.92000019986818
    vertex -14.932406727169058 -96.97245172903882 188.92000019986824
    vertex -15.807761763118082 -98.11323662213192 188.92000019986818
  endloop
endfacet
facet normal -1.3009781381555924e-14 3.5266836764727624e-15 1.0
  outer loop
    vertex -16.502645016866943 -99.7609159526035 188.92000019986818
    vertex -15.807761763118082 -98.11323662213192 188.92000019986818
    vertex -16.948546656211207 -98.98859165808095 188.92000019986835
  endloop
endfacet
facet normal -1.3009781381555924e-14 3.5266836764727624e-15 1.0
  outer loop
    vertex -16.502645016866943 -99.7609159526035 188.92000019986818
    vertex -16.948546656211207 -98.98859165808095 188.92000019986835
    vertex -18.27701880122028 -99.5388628377786 188.92000019986835
  endloop
endfacet
facet normal -1.3009781381555924e-14 3.5266836764727624e-15 1.0
  outer loop
    vertex -16.502645016866943 -99.7609159526035 188.92000019986818
    vertex -18.27701880122028 -99.5388628377786 188.92000019986835
    vertex -19.702645016866942 -99.72655008969453 188.92000019986818
  endloop
endfacet
facet normal -1.3009781381555924e-14 3.5266836764727624e-15 1.0
  outer loop
    vertex -16.502645016866943 -99.7609159526035 188.92000019986818
    vertex -19.702645016866942 -99.72655008969453 188.92000019986818
    vertex -22.902645016866934 -99.7609159526035 188.92000019986827
  endloop
endfacet
facet normal -1.3009781381555924e-14 3.5266836764727624e-15 1.0
  outer loop
    vertex -22.902645016866934 -99.7609159526035 188.92000019986827
    vertex -19.702645016866942 -99.72655008969453 188.92000019986818
    vertex -21.128271232513622 -99.5388628377786 188.92000019986833
  endloop
endfacet
facet normal -1.3009781381555924e-14 3.5266836764727624e-15 1.0
  outer loop
    vertex -22.902645016866934 -99.7609159526035 188.92000019986827
    vertex -21.128271232513622 -99.5388628377786 188.92000019986833
    vertex -22.45674337752267 -98.98859165808095 188.9200001998683
  endloop
endfacet
facet normal -1.3009781381555924e-14 3.5266836764727624e-15 1.0
  outer loop
    vertex -22.902645016866934 -99.7609159526035 188.92000019986827
    vertex -22.45674337752267 -98.98859165808095 188.9200001998683
    vertex -23.597528270615772 -98.11323662213192 188.92000019986816
  endloop
endfacet
facet normal -1.3009781381555924e-14 3.5266836764727624e-15 1.0
  outer loop
    vertex -22.902645016866934 -99.7609159526035 188.92000019986827
    vertex -23.597528270615772 -98.11323662213192 188.92000019986816
    vertex -24.47288330656482 -96.97245172903882 188.9200001998681
  endloop
endfacet
facet normal -1.3009781381555924e-14 3.5266836764727624e-15 1.0
  outer loop
    vertex -22.902645016866934 -99.7609159526035 188.92000019986827
    vertex -24.47288330656482 -96.97245172903882 188.9200001998681
    vertex -26.102645016866866 -94.2183533683831 188.92000019986833
  endloop
endfacet
facet normal -1.3009781381555924e-14 3.5266836764727624e-15 1.0
  outer loop
    vertex -26.102645016866866 -94.2183533683831 188.92000019986833
    vertex -24.47288330656482 -96.97245172903882 188.9200001998681
    vertex -25.023154486262428 -95.64397958402975 188.9200001998681
  endloop
endfacet
facet normal -1.3009781381555924e-14 3.5266836764727624e-15 1.0
  outer loop
    vertex -26.102645016866866 -94.2183533683831 188.92000019986833
    vertex -25.023154486262428 -95.64397958402975 188.9200001998681
    vertex -25.210841738178395 -94.2183533683831 188.9200001998681
  endloop
endfacet
facet normal -0.9232956852170914 0.38244159489742674 0.035545803575304354
  outer loop
    vertex -16.25898728011333 -96.2065500896945 170.50000019986825
    vertex -15.324625796335763 -95.3914400829724 186.0000001998683
    vertex -15.861743895150724 -95.24751972215464 170.50000019986837
  endloop
endfacet
facet normal -0.9232956852170914 0.38244159489742674 0.035545803575304354
  outer loop
    vertex -15.324625796335763 -95.3914400829724 186.0000001998683
    vertex -16.25898728011333 -96.2065500896945 170.50000019986825
    vertex -15.77742036705833 -96.48458287657982 186.00000019986823
  endloop
endfacet
facet normal 0.38268343236502705 0.9238795325113127 2.9478645759466915e-14
  outer loop
    vertex -21.690841738178122 -97.66201110513634 170.00000019986828
    vertex -20.731811370638255 -98.05925449009895 170.50000019986825
    vertex -20.73181137063823 -98.05925449009894 170.00000019986825
  endloop
endfacet
facet normal 0.38268343236502705 0.9238795325113127 2.9478645759466915e-14
  outer loop
    vertex -20.731811370638255 -98.05925449009895 170.50000019986825
    vertex -21.690841738178122 -97.66201110513634 170.00000019986828
    vertex -21.690841738178122 -97.66201110513634 170.50000019986837
  endloop
endfacet
facet normal -0.3826834323650368 0.9238795325113087 -2.5919124318600976e-14
  outer loop
    vertex -18.67347866309507 -98.05925449009895 170.50000019986837
    vertex -17.714448295555158 -97.66201110513634 170.0000001998683
    vertex -18.673478663095047 -98.05925449009895 170.0000001998683
  endloop
endfacet
facet normal -0.3826834323650368 0.9238795325113087 -2.5919124318600976e-14
  outer loop
    vertex -17.714448295555158 -97.66201110513634 170.0000001998683
    vertex -18.67347866309507 -98.05925449009895 170.50000019986837
    vertex -17.7144482955552 -97.66201110513634 170.5000001998684
  endloop
endfacet
facet normal 0.9908183160512872 -0.13044370596343835 0.03554580357532544
  outer loop
    vertex -24.235104033260292 -94.2183533683831 186.0000001998681
    vertex -23.543546138582713 -93.18918701461138 170.50000019986817
    vertex -24.08066423739807 -93.04526665379379 186.0000001998681
  endloop
endfacet
facet normal 0.9908183160512872 -0.13044370596343835 0.03554580357532544
  outer loop
    vertex -23.543546138582713 -93.18918701461138 170.50000019986817
    vertex -24.235104033260292 -94.2183533683831 186.0000001998681
    vertex -23.679038459489604 -94.21835336838303 170.50000019986817
  endloop
endfacet
facet normal -0.3826834323650316 -0.9238795325113108 -2.9501982344988466e-14
  outer loop
    vertex -17.7144482955552 -90.77469563162968 170.5000001998683
    vertex -18.202645016867027 -90.57247792855627 170.0000001998683
    vertex -17.71444829555518 -90.77469563162968 170.00000019986834
  endloop
endfacet
facet normal -0.3826834323650316 -0.9238795325113108 -2.9501982344988466e-14
  outer loop
    vertex -18.202645016867027 -90.57247792855627 170.0000001998683
    vertex -17.7144482955552 -90.77469563162968 170.5000001998683
    vertex -18.202645016867027 -90.5724779285563 170.50000019986837
  endloop
endfacet
facet normal 0.9914448613738132 0.13052619222003092 5.825816164913493e-14
  outer loop
    vertex -23.543546138582713 -95.24751972215464 170.50000019986817
    vertex -23.679038459489604 -94.21835336838303 170.00000019986828
    vertex -23.679038459489604 -94.21835336838303 170.50000019986817
  endloop
endfacet
facet normal 0.9914448613738132 0.13052619222003092 5.825816164913493e-14
  outer loop
    vertex -23.679038459489604 -94.21835336838303 170.00000019986828
    vertex -23.543546138582713 -95.24751972215464 170.50000019986817
    vertex -23.543546138582645 -95.2475197221547 170.00000019986828
  endloop
endfacet
facet normal -0.13052619222011638 0.9914448613738018 1.9416128719644597e-14
  outer loop
    vertex -19.702645016866686 -98.19474681100598 170.50000019986823
    vertex -18.673478663095047 -98.05925449009895 170.0000001998683
    vertex -19.702645016866686 -98.19474681100596 170.0000001998683
  endloop
endfacet
facet normal -0.13052619222011638 0.9914448613738018 1.9416128719644597e-14
  outer loop
    vertex -18.673478663095047 -98.05925449009895 170.0000001998683
    vertex -19.702645016866686 -98.19474681100598 170.50000019986823
    vertex -18.67347866309507 -98.05925449009895 170.50000019986837
  endloop
endfacet
facet normal -0.6087614290087497 0.7933533402912128 -3.16186037849894e-14
  outer loop
    vertex -17.714448295555158 -97.66201110513634 170.0000001998683
    vertex -16.890910248922292 -97.03008813632741 170.50000019986823
    vertex -16.890910248922317 -97.03008813632744 170.00000019986828
  endloop
endfacet
facet normal -0.6087614290087497 0.7933533402912128 -3.16186037849894e-14
  outer loop
    vertex -16.890910248922292 -97.03008813632741 170.50000019986823
    vertex -17.714448295555158 -97.66201110513634 170.0000001998683
    vertex -17.7144482955552 -97.66201110513634 170.5000001998684
  endloop
endfacet
facet normal -0.7933533402912051 0.6087614290087597 -5.420288229998497e-15
  outer loop
    vertex -16.258987280113352 -96.20655008969455 170.00000019986834
    vertex -16.890910248922292 -97.03008813632741 170.50000019986823
    vertex -16.25898728011333 -96.2065500896945 170.50000019986825
  endloop
endfacet
facet normal -0.7933533402912051 0.6087614290087597 -5.420288229998497e-15
  outer loop
    vertex -16.890910248922292 -97.03008813632741 170.50000019986823
    vertex -16.258987280113352 -96.20655008969455 170.00000019986834
    vertex -16.890910248922317 -97.03008813632744 170.00000019986828
  endloop
endfacet
facet normal 0.6083767211537978 0.7928519792535923 0.03554580357532728
  outer loop
    vertex -22.907577522808815 -97.423285874325 186.00000019986817
    vertex -21.690841738178122 -97.66201110513634 170.50000019986837
    vertex -22.514379784811076 -97.03008813632741 170.50000019986828
  endloop
endfacet
facet normal 0.6083767211537978 0.7928519792535923 0.03554580357532728
  outer loop
    vertex -21.690841738178122 -97.66201110513634 170.50000019986837
    vertex -22.907577522808815 -97.423285874325 186.00000019986817
    vertex -21.968874525063605 -98.14357801819163 186.0000001998683
  endloop
endfacet
facet normal 0.6083767211538065 -0.7928519792535857 0.03554580357531971
  outer loop
    vertex -21.968874525063605 -90.29312871857454 186.0000001998683
    vertex -22.514379784811076 -91.40661860043862 170.50000019986837
    vertex -21.690841738178122 -90.77469563162968 170.50000019986823
  endloop
endfacet
facet normal 0.6083767211538065 -0.7928519792535857 0.03554580357531971
  outer loop
    vertex -22.514379784811076 -91.40661860043862 170.50000019986837
    vertex -21.968874525063605 -90.29312871857454 186.0000001998683
    vertex -22.90757752280879 -91.01342086244117 186.0000001998683
  endloop
endfacet
facet normal 0.7928519792535628 -0.6083767211538362 0.03554580357532167
  outer loop
    vertex -23.627869666675462 -91.95212386018635 186.00000019986817
    vertex -22.514379784811076 -91.40661860043862 170.50000019986837
    vertex -22.90757752280879 -91.01342086244117 186.0000001998683
  endloop
endfacet
facet normal 0.7928519792535628 -0.6083767211538362 0.03554580357532167
  outer loop
    vertex -22.514379784811076 -91.40661860043862 170.50000019986837
    vertex -23.627869666675462 -91.95212386018635 186.00000019986817
    vertex -23.146302753620038 -92.23015664707151 170.50000019986825
  endloop
endfacet
facet normal 0.9914448613738166 -0.1305261922200054 2.2365365070084045e-14
  outer loop
    vertex -23.679038459489604 -94.21835336838303 170.50000019986817
    vertex -23.54354613858269 -93.18918701461138 170.00000019986828
    vertex -23.543546138582713 -93.18918701461138 170.50000019986817
  endloop
endfacet
facet normal 0.9914448613738166 -0.1305261922200054 2.2365365070084045e-14
  outer loop
    vertex -23.54354613858269 -93.18918701461138 170.00000019986828
    vertex -23.679038459489604 -94.21835336838303 170.50000019986817
    vertex -23.679038459489604 -94.21835336838303 170.00000019986828
  endloop
endfacet
facet normal -0.38244159489744944 -0.923295685217082 0.03554580357530679
  outer loop
    vertex -17.436415508670162 -90.29312871857454 186.0000001998681
    vertex -18.202645016867027 -90.5724779285563 170.50000019986837
    vertex -17.7144482955552 -90.77469563162968 170.5000001998683
  endloop
endfacet
facet normal -0.38244159489744944 -0.923295685217082 0.03554580357530679
  outer loop
    vertex -18.202645016867027 -90.5724779285563 170.50000019986837
    vertex -17.436415508670162 -90.29312871857454 186.0000001998681
    vertex -18.202645016867013 -89.97574606438894 186.00000019986828
  endloop
endfacet
facet normal 0.6087614290087054 0.793353340291247 -3.991516038229504e-14
  outer loop
    vertex -22.514379784811076 -97.03008813632741 170.50000019986828
    vertex -21.690841738178122 -97.66201110513634 170.00000019986828
    vertex -22.514379784811055 -97.03008813632748 170.00000019986828
  endloop
endfacet
facet normal 0.6087614290087054 0.793353340291247 -3.991516038229504e-14
  outer loop
    vertex -21.690841738178122 -97.66201110513634 170.00000019986828
    vertex -22.514379784811076 -97.03008813632741 170.50000019986828
    vertex -21.690841738178122 -97.66201110513634 170.50000019986837
  endloop
endfacet
facet normal -0.6083767211538192 -0.7928519792535769 0.035545803575303694
  outer loop
    vertex -16.497712510925 -91.01342086244117 186.00000019986817
    vertex -17.7144482955552 -90.77469563162968 170.5000001998683
    vertex -16.890910248922292 -91.40661860043862 170.50000019986823
  endloop
endfacet
facet normal -0.6083767211538192 -0.7928519792535769 0.035545803575303694
  outer loop
    vertex -17.7144482955552 -90.77469563162968 170.5000001998683
    vertex -16.497712510925 -91.01342086244117 186.00000019986817
    vertex -17.436415508670162 -90.29312871857454 186.0000001998681
  endloop
endfacet
facet normal 1.1374300013001693e-28 -1.0 -1.2220873163804498e-15
  outer loop
    vertex -16.50264501686694 -88.67579078416269 188.9200001998682
    vertex -18.202645016867034 -88.6757907841627 207.3800001998681
    vertex -18.202645016867027 -88.67579078416269 188.92000019986807
  endloop
endfacet
facet normal 1.1374300013001693e-28 -1.0 -1.2220873163804498e-15
  outer loop
    vertex -18.202645016867034 -88.6757907841627 207.3800001998681
    vertex -16.50264501686694 -88.67579078416269 188.9200001998682
    vertex -16.50264501686708 -88.6757907841627 207.3800001998683
  endloop
endfacet
facet normal 0.8660254037844385 -0.5000000000000007 6.503187684750665e-15
  outer loop
    vertex -22.90264501686707 -88.6757907841627 207.3800001998684
    vertex -26.102645016866866 -94.2183533683831 188.92000019986833
    vertex -22.90264501686691 -88.67579078416269 188.92000019986833
  endloop
endfacet
facet normal 0.8660254037844385 -0.5000000000000007 6.503187684750665e-15
  outer loop
    vertex -26.102645016866866 -94.2183533683831 188.92000019986833
    vertex -22.90264501686707 -88.6757907841627 207.3800001998684
    vertex -26.102645016867044 -94.21835336838313 207.3800001998684
  endloop
endfacet
facet normal 0.6087614290087131 -0.7933533402912409 -1.792335660675871e-14
  outer loop
    vertex -21.690841738178122 -90.77469563162968 170.50000019986823
    vertex -22.514379784811076 -91.4066186004386 170.00000019986828
    vertex -21.690841738178122 -90.77469563162968 170.00000019986825
  endloop
endfacet
facet normal 0.6087614290087131 -0.7933533402912409 -1.792335660675871e-14
  outer loop
    vertex -22.514379784811076 -91.4066186004386 170.00000019986828
    vertex -21.690841738178122 -90.77469563162968 170.50000019986823
    vertex -22.514379784811076 -91.40661860043862 170.50000019986837
  endloop
endfacet
facet normal -0.9914448613738026 0.13052619222011133 -5.356866370126114e-14
  outer loop
    vertex -15.726251574243696 -94.21835336838309 170.00000019986834
    vertex -15.861743895150724 -95.24751972215464 170.50000019986837
    vertex -15.726251574243719 -94.21835336838306 170.50000019986837
  endloop
endfacet
facet normal -0.9914448613738026 0.13052619222011133 -5.356866370126114e-14
  outer loop
    vertex -15.861743895150724 -95.24751972215464 170.50000019986837
    vertex -15.726251574243696 -94.21835336838309 170.00000019986834
    vertex -15.8617438951507 -95.24751972215468 170.00000019986834
  endloop
endfacet
facet normal -0.9914448613738044 -0.13052619222009731 -4.1781708920886144e-14
  outer loop
    vertex -15.726251574243696 -94.21835336838309 170.00000019986834
    vertex -15.861743895150724 -93.18918701461138 170.50000019986837
    vertex -15.8617438951507 -93.18918701461138 170.00000019986834
  endloop
endfacet
facet normal -0.9914448613738044 -0.13052619222009731 -4.1781708920886144e-14
  outer loop
    vertex -15.861743895150724 -93.18918701461138 170.50000019986837
    vertex -15.726251574243696 -94.21835336838309 170.00000019986834
    vertex -15.726251574243719 -94.21835336838306 170.50000019986837
  endloop
endfacet
facet normal 0.9908183160512866 0.13044370596344335 0.03554580357532676
  outer loop
    vertex -24.235104033260292 -94.2183533683831 186.0000001998681
    vertex -23.543546138582713 -95.24751972215464 170.50000019986817
    vertex -23.679038459489604 -94.21835336838303 170.50000019986817
  endloop
endfacet
facet normal 0.9908183160512866 0.13044370596344335 0.03554580357532676
  outer loop
    vertex -23.543546138582713 -95.24751972215464 170.50000019986817
    vertex -24.235104033260292 -94.2183533683831 186.0000001998681
    vertex -24.08066423739807 -95.3914400829724 186.0000001998681
  endloop
endfacet
facet normal 2.2803088904810353e-31 1.0 -2.654979480758188e-17
  outer loop
    vertex -22.902645016866934 -99.7609159526035 188.92000019986827
    vertex -16.502645016867106 -99.76091595260351 207.38000019986825
    vertex -16.502645016866943 -99.7609159526035 188.92000019986818
  endloop
endfacet
facet normal 2.2803088904810353e-31 1.0 -2.654979480758188e-17
  outer loop
    vertex -16.502645016867106 -99.76091595260351 207.38000019986825
    vertex -22.902645016866934 -99.7609159526035 188.92000019986827
    vertex -22.902645016867073 -99.76091595260351 207.3800001998683
  endloop
endfacet
facet normal 0.7933533402911959 -0.6087614290087718 -4.535818277812329e-14
  outer loop
    vertex -22.514379784811076 -91.40661860043862 170.50000019986837
    vertex -23.14630275362006 -92.2301566470715 170.00000019986828
    vertex -22.514379784811076 -91.4066186004386 170.00000019986828
  endloop
endfacet
facet normal 0.7933533402911959 -0.6087614290087718 -4.535818277812329e-14
  outer loop
    vertex -23.14630275362006 -92.2301566470715 170.00000019986828
    vertex -22.514379784811076 -91.40661860043862 170.50000019986837
    vertex -23.146302753620038 -92.23015664707151 170.50000019986825
  endloop
endfacet
facet normal -0.7933533402912172 -0.6087614290087441 -4.407474741022454e-14
  outer loop
    vertex -16.890910248922246 -91.40661860043865 170.0000001998683
    vertex -16.25898728011333 -92.23015664707155 170.50000019986837
    vertex -16.890910248922292 -91.40661860043862 170.50000019986823
  endloop
endfacet
facet normal -0.7933533402912172 -0.6087614290087441 -4.407474741022454e-14
  outer loop
    vertex -16.25898728011333 -92.23015664707155 170.50000019986837
    vertex -16.890910248922246 -91.40661860043865 170.0000001998683
    vertex -16.258987280113285 -92.23015664707158 170.00000019986834
  endloop
endfacet
facet normal -2.2432540628753657e-30 1.0 6.035241268160321e-16
  outer loop
    vertex -27.20264501686704 -86.71835336838312 207.3800001998681
    vertex -21.20264501686702 -86.7183533683831 170.0000001998683
    vertex -27.202645016866818 -86.7183533683831 170.00000019986825
  endloop
endfacet
facet normal -2.2432540628753657e-30 1.0 6.035241268160321e-16
  outer loop
    vertex -21.20264501686702 -86.7183533683831 170.0000001998683
    vertex -27.20264501686704 -86.71835336838312 207.3800001998681
    vertex -21.202645016867027 -86.71835336838312 207.3800001998681
  endloop
endfacet
facet normal -1.9433183526207634e-28 -1.0 -1.22208731638045e-15
  outer loop
    vertex -21.202645016867027 -88.6757907841627 207.3800001998681
    vertex -22.90264501686691 -88.67579078416269 188.92000019986833
    vertex -21.202645016867027 -88.67579078416269 188.92000019986807
  endloop
endfacet
facet normal -1.9433183526207634e-28 -1.0 -1.22208731638045e-15
  outer loop
    vertex -22.90264501686691 -88.67579078416269 188.92000019986833
    vertex -21.202645016867027 -88.6757907841627 207.3800001998681
    vertex -22.90264501686707 -88.6757907841627 207.3800001998684
  endloop
endfacet
facet normal 1.0 -2.117776038962013e-33 0.0
  outer loop
    vertex -21.202645016867027 -88.6757907841627 207.3800001998681
    vertex -21.20264501686702 -86.7183533683831 170.0000001998683
    vertex -21.202645016867027 -86.71835336838312 207.3800001998681
  endloop
endfacet
facet normal 1.0 -2.117776038962013e-33 0.0
  outer loop
    vertex -21.20264501686702 -86.7183533683831 170.0000001998683
    vertex -21.202645016867027 -88.6757907841627 207.3800001998681
    vertex -21.202645016867027 -88.67579078416269 188.92000019986807
  endloop
endfacet
facet normal 1.0 -2.117776038962013e-33 0.0
  outer loop
    vertex -21.202645016867027 -88.67579078416269 188.92000019986807
    vertex -21.20264501686702 -90.57247792855658 170.0000001998683
    vertex -21.20264501686702 -86.7183533683831 170.0000001998683
  endloop
endfacet
facet normal 1.0 -2.117776038962013e-33 0.0
  outer loop
    vertex -21.20264501686702 -90.57247792855658 170.0000001998683
    vertex -21.202645016867027 -88.67579078416269 188.92000019986807
    vertex -21.20264501686702 -88.92865052915182 187.25000019986817
  endloop
endfacet
facet normal 1.0 -2.117776038962013e-33 0.0
  outer loop
    vertex -21.20264501686702 -88.92865052915182 187.25000019986817
    vertex -21.202645016867027 -88.67579078416269 188.92000019986807
    vertex -21.202645016867027 -88.9286505291518 188.92000019986818
  endloop
endfacet
facet normal 1.0 -2.117776038962013e-33 0.0
  outer loop
    vertex -21.20264501686702 -90.57247792855658 170.0000001998683
    vertex -21.20264501686702 -88.92865052915182 187.25000019986817
    vertex -21.202645016867027 -89.97574606438904 186.00000019986823
  endloop
endfacet
facet normal 1.0 -2.117776038962013e-33 0.0
  outer loop
    vertex -21.20264501686702 -90.57247792855658 170.0000001998683
    vertex -21.202645016867027 -89.97574606438904 186.00000019986823
    vertex -21.20264501686702 -90.57247792855657 170.50000019986823
  endloop
endfacet
facet normal -1.0 -1.8443671257924504e-15 7.27780129505606e-17
  outer loop
    vertex -18.202645016867027 -86.7183533683831 170.0000001998683
    vertex -18.202645016867034 -88.6757907841627 207.3800001998681
    vertex -18.202645016867034 -86.7183533683831 207.38000019986816
  endloop
endfacet
facet normal -1.0 -1.8443671257924504e-15 7.27780129505606e-17
  outer loop
    vertex -18.202645016867034 -88.6757907841627 207.3800001998681
    vertex -18.202645016867027 -86.7183533683831 170.0000001998683
    vertex -18.202645016867027 -88.67579078416269 188.92000019986807
  endloop
endfacet
facet normal -1.0 -1.8443671257924504e-15 7.27780129505606e-17
  outer loop
    vertex -18.202645016867027 -90.57247792855627 170.0000001998683
    vertex -18.202645016867027 -88.67579078416269 188.92000019986807
    vertex -18.202645016867027 -86.7183533683831 170.0000001998683
  endloop
endfacet
facet normal -1.0 -1.8443671257924504e-15 7.27780129505606e-17
  outer loop
    vertex -18.202645016867027 -88.67579078416269 188.92000019986807
    vertex -18.202645016867027 -90.57247792855627 170.0000001998683
    vertex -18.202645016867027 -88.92865052915164 187.2500001998684
  endloop
endfacet
facet normal -1.0 -1.8443671257924504e-15 7.27780129505606e-17
  outer loop
    vertex -18.202645016867027 -88.92865052915164 187.2500001998684
    vertex -18.202645016867027 -90.57247792855627 170.0000001998683
    vertex -18.202645016867013 -89.97574606438894 186.00000019986828
  endloop
endfacet
facet normal -1.0 -1.8443671257924504e-15 7.27780129505606e-17
  outer loop
    vertex -18.202645016867013 -89.97574606438894 186.00000019986828
    vertex -18.202645016867027 -90.57247792855627 170.0000001998683
    vertex -18.202645016867027 -90.5724779285563 170.50000019986837
  endloop
endfacet
facet normal -1.0 -1.8443671257924504e-15 7.27780129505606e-17
  outer loop
    vertex -18.202645016867027 -88.92865052915164 188.92000019986838
    vertex -18.202645016867027 -88.67579078416269 188.92000019986807
    vertex -18.202645016867027 -88.92865052915164 187.2500001998684
  endloop
endfacet
endsolid Design - Rolled
