solid Design - Rolled
facet normal 2.6372593770697915e-14 5.864195325098505e-15 1.0
  outer loop
    vertex 260.39231405361136 344.6557974361174 18.12499933110755
    vertex 257.95941502964774 344.6557974361173 18.124999331107627
    vertex 259.17586454162955 344.15490708256664 18.1249993311076
  endloop
endfacet
facet normal 2.6372593770697915e-14 5.864195325098505e-15 1.0
  outer loop
    vertex 257.95941502964774 344.6557974361173 18.124999331107627
    vertex 260.39231405361136 344.6557974361174 18.12499933110755
    vertex 256.8258645416296 346.12433364693544 18.124999331107635
  endloop
endfacet
facet normal 2.6372593770697915e-14 5.864195325098505e-15 1.0
  outer loop
    vertex 256.8258645416296 346.12433364693544 18.124999331107635
    vertex 260.39231405361136 344.6557974361174 18.12499933110755
    vertex 261.52586454162946 346.12433364693544 18.12499933110752
  endloop
endfacet
facet normal 2.6372593770697915e-14 5.864195325098505e-15 1.0
  outer loop
    vertex 256.8258645416296 346.12433364693544 18.124999331107635
    vertex 261.52586454162946 346.12433364693544 18.12499933110752
    vertex 262.49926641320627 348.46043739912454 18.124999331107468
  endloop
endfacet
facet normal 2.6372593770697915e-14 5.864195325098505e-15 1.0
  outer loop
    vertex 256.8258645416296 346.12433364693544 18.124999331107635
    vertex 262.49926641320627 348.46043739912454 18.124999331107468
    vertex 255.8524626700528 348.46043739912454 18.12499933110764
  endloop
endfacet
facet normal 2.6372593770697915e-14 5.864195325098505e-15 1.0
  outer loop
    vertex 255.8524626700528 348.46043739912454 18.12499933110764
    vertex 262.49926641320627 348.46043739912454 18.124999331107468
    vertex 263.24618393941637 351.5049070825669 18.124999331107432
  endloop
endfacet
facet normal 2.6372593770697915e-14 5.864195325098505e-15 1.0
  outer loop
    vertex 255.8524626700528 348.46043739912454 18.12499933110764
    vertex 263.24618393941637 351.5049070825669 18.124999331107432
    vertex 255.10554514384262 351.5049070825669 18.124999331107652
  endloop
endfacet
facet normal 2.6372593770697915e-14 5.864195325098505e-15 1.0
  outer loop
    vertex 255.10554514384262 351.5049070825669 18.124999331107652
    vertex 263.24618393941637 351.5049070825669 18.124999331107432
    vertex 263.71571592518814 355.05026711955975 18.124999331107418
  endloop
endfacet
facet normal 2.6372593770697915e-14 5.864195325098505e-15 1.0
  outer loop
    vertex 255.10554514384262 351.5049070825669 18.124999331107652
    vertex 263.71571592518814 355.05026711955975 18.124999331107418
    vertex 254.6360131580709 355.05026711955975 18.12499933110765
  endloop
endfacet
facet normal 2.6372593770697915e-14 5.864195325098505e-15 1.0
  outer loop
    vertex 254.6360131580709 355.05026711955975 18.12499933110765
    vertex 263.71571592518814 355.05026711955975 18.124999331107418
    vertex 263.87586454162954 358.8549070825671 18.124999331107375
  endloop
endfacet
facet normal 2.6372593770697915e-14 5.864195325098505e-15 1.0
  outer loop
    vertex 254.6360131580709 355.05026711955975 18.12499933110765
    vertex 263.87586454162954 358.8549070825671 18.124999331107375
    vertex 254.47586454162953 358.8549070825671 18.124999331107624
  endloop
endfacet
facet normal 2.6372593770697915e-14 5.864195325098505e-15 1.0
  outer loop
    vertex 254.47586454162953 358.8549070825671 18.124999331107624
    vertex 263.87586454162954 358.8549070825671 18.124999331107375
    vertex 263.71571592518814 362.6595470455743 18.12499933110737
  endloop
endfacet
facet normal 2.6372593770697915e-14 5.864195325098505e-15 1.0
  outer loop
    vertex 254.47586454162953 358.8549070825671 18.124999331107624
    vertex 263.71571592518814 362.6595470455743 18.12499933110737
    vertex 254.6360131580709 362.6595470455743 18.124999331107603
  endloop
endfacet
facet normal 2.6372593770697915e-14 5.864195325098505e-15 1.0
  outer loop
    vertex 254.6360131580709 362.6595470455743 18.124999331107603
    vertex 263.71571592518814 362.6595470455743 18.12499933110737
    vertex 263.24618393941637 366.2049070825671 18.12499933110734
  endloop
endfacet
facet normal 2.6372593770697915e-14 5.864195325098505e-15 1.0
  outer loop
    vertex 254.6360131580709 362.6595470455743 18.124999331107603
    vertex 263.24618393941637 366.2049070825671 18.12499933110734
    vertex 255.10554514384262 366.2049070825671 18.124999331107563
  endloop
endfacet
facet normal 2.6372593770697915e-14 5.864195325098505e-15 1.0
  outer loop
    vertex 255.10554514384262 366.2049070825671 18.124999331107563
    vertex 263.24618393941637 366.2049070825671 18.12499933110734
    vertex 262.49926641320627 369.24937676600985 18.124999331107354
  endloop
endfacet
facet normal 2.6372593770697915e-14 5.864195325098505e-15 1.0
  outer loop
    vertex 255.10554514384262 366.2049070825671 18.124999331107563
    vertex 262.49926641320627 369.24937676600985 18.124999331107354
    vertex 255.8524626700528 369.24937676600985 18.124999331107528
  endloop
endfacet
facet normal 2.6372593770697915e-14 5.864195325098505e-15 1.0
  outer loop
    vertex 255.8524626700528 369.24937676600985 18.124999331107528
    vertex 262.49926641320627 369.24937676600985 18.124999331107354
    vertex 261.52586454162946 371.58548051819906 18.124999331107364
  endloop
endfacet
facet normal 2.6372593770697915e-14 5.864195325098505e-15 1.0
  outer loop
    vertex 255.8524626700528 369.24937676600985 18.124999331107528
    vertex 261.52586454162946 371.58548051819906 18.124999331107364
    vertex 256.8258645416296 371.58548051819906 18.1249993311075
  endloop
endfacet
facet normal 2.6372593770697915e-14 5.864195325098505e-15 1.0
  outer loop
    vertex 256.8258645416296 371.58548051819906 18.1249993311075
    vertex 261.52586454162946 371.58548051819906 18.124999331107364
    vertex 260.39231405361136 373.0540167290169 18.124999331107393
  endloop
endfacet
facet normal 2.6372593770697915e-14 5.864195325098505e-15 1.0
  outer loop
    vertex 256.8258645416296 371.58548051819906 18.1249993311075
    vertex 260.39231405361136 373.0540167290169 18.124999331107393
    vertex 257.95941502964774 373.0540167290169 18.124999331107446
  endloop
endfacet
facet normal 2.6372593770697915e-14 5.864195325098505e-15 1.0
  outer loop
    vertex 257.95941502964774 373.0540167290169 18.124999331107446
    vertex 260.39231405361136 373.0540167290169 18.124999331107393
    vertex 259.17586454162955 373.5549070825673 18.124999331107418
  endloop
endfacet
facet normal 0.3807494010059269 0.924678264929823 -1.5463843239587536e-14
  outer loop
    vertex 259.17586454162955 373.5549070825673 18.124999331107418
    vertex 260.39231405361124 373.0540167290169 13.1249993311074
    vertex 259.1758645416294 373.55490708256724 13.124999331107428
  endloop
endfacet
facet normal 0.3807494010059269 0.924678264929823 -1.5463843239587536e-14
  outer loop
    vertex 260.39231405361124 373.0540167290169 13.1249993311074
    vertex 259.17586454162955 373.5549070825673 18.124999331107418
    vertex 260.39231405361136 373.0540167290169 18.124999331107393
  endloop
endfacet
facet normal -0.9230733727029296 0.3846239054021972 2.20883293708617e-14
  outer loop
    vertex 256.8258645416296 371.58548051819906 18.1249993311075
    vertex 255.85246267005263 369.2493767660098 13.124999331107539
    vertex 255.8524626700528 369.24937676600985 18.124999331107528
  endloop
endfacet
facet normal -0.9230733727029296 0.3846239054021972 2.20883293708617e-14
  outer loop
    vertex 255.85246267005263 369.2493767660098 13.124999331107539
    vertex 256.8258645416296 371.58548051819906 18.1249993311075
    vertex 256.82586454162947 371.585480518199 13.124999331107508
  endloop
endfacet
facet normal 0.9711989740620709 -0.23826991581141949 -2.4215774687044632e-14
  outer loop
    vertex 262.49926641320616 348.46043739912454 13.124999331107475
    vertex 263.24618393941637 351.5049070825669 18.124999331107432
    vertex 262.49926641320627 348.46043739912454 18.124999331107468
  endloop
endfacet
facet normal 0.9711989740620709 -0.23826991581141949 -2.4215774687044632e-14
  outer loop
    vertex 263.24618393941637 351.5049070825669 18.124999331107432
    vertex 262.49926641320616 348.46043739912454 13.124999331107475
    vertex 263.24618393941626 351.50490708256683 13.124999331107439
  endloop
endfacet
facet normal -0.9230733727029231 -0.3846239054022131 2.6599348786823018e-14
  outer loop
    vertex 255.85246267005263 348.46043739912454 13.124999331107652
    vertex 256.8258645416296 346.12433364693544 18.124999331107635
    vertex 255.8524626700528 348.46043739912454 18.12499933110764
  endloop
endfacet
facet normal -0.9230733727029231 -0.3846239054022131 2.6599348786823018e-14
  outer loop
    vertex 256.8258645416296 346.12433364693544 18.124999331107635
    vertex 255.85246267005263 348.46043739912454 13.124999331107652
    vertex 256.82586454162947 346.1243336469354 13.124999331107643
  endloop
endfacet
facet normal 0.9711989740620778 0.23826991581139206 -2.7010297339870542e-14
  outer loop
    vertex 263.24618393941637 366.2049070825671 18.12499933110734
    vertex 262.49926641320616 369.2493767660098 13.124999331107361
    vertex 262.49926641320627 369.24937676600985 18.124999331107354
  endloop
endfacet
facet normal 0.9711989740620778 0.23826991581139206 -2.7010297339870542e-14
  outer loop
    vertex 262.49926641320616 369.2493767660098 13.124999331107361
    vertex 263.24618393941637 366.2049070825671 18.12499933110734
    vertex 263.24618393941626 366.20490708256705 13.12499933110735
  endloop
endfacet
facet normal -0.7916050293247179 -0.6110331231183894 2.445989544929339e-14
  outer loop
    vertex 256.82586454162947 346.1243336469354 13.124999331107643
    vertex 257.95941502964774 344.6557974361173 18.124999331107627
    vertex 256.8258645416296 346.12433364693544 18.124999331107635
  endloop
endfacet
facet normal -0.7916050293247179 -0.6110331231183894 2.445989544929339e-14
  outer loop
    vertex 257.95941502964774 344.6557974361173 18.124999331107627
    vertex 256.82586454162947 346.1243336469354 13.124999331107643
    vertex 257.9594150296476 344.6557974361173 13.124999331107638
  endloop
endfacet
facet normal -0.9991152662275468 -0.04205573434216168 2.659588408704468e-14
  outer loop
    vertex 254.47586454162953 358.8549070825671 18.124999331107624
    vertex 254.63601315807077 355.05026711955975 13.124999331107658
    vertex 254.6360131580709 355.05026711955975 18.12499933110765
  endloop
endfacet
facet normal -0.9991152662275468 -0.04205573434216168 2.659588408704468e-14
  outer loop
    vertex 254.63601315807077 355.05026711955975 13.124999331107658
    vertex 254.47586454162953 358.8549070825671 18.124999331107624
    vertex 254.4758645416294 358.8549070825671 13.124999331107631
  endloop
endfacet
facet normal -2.6372593770697915e-14 -5.864195325098505e-15 -1.0
  outer loop
    vertex 257.9594150296476 344.6557974361173 13.124999331107638
    vertex 260.39231405361124 344.6557974361174 13.124999331107558
    vertex 259.1758645416294 344.15490708256664 13.12499933110761
  endloop
endfacet
facet normal -2.6372593770697915e-14 -5.864195325098505e-15 -1.0
  outer loop
    vertex 260.39231405361124 344.6557974361174 13.124999331107558
    vertex 257.9594150296476 344.6557974361173 13.124999331107638
    vertex 256.82586454162947 346.1243336469354 13.124999331107643
  endloop
endfacet
facet normal -2.6372593770697915e-14 -5.864195325098505e-15 -1.0
  outer loop
    vertex 260.39231405361124 344.6557974361174 13.124999331107558
    vertex 256.82586454162947 346.1243336469354 13.124999331107643
    vertex 261.52586454162935 346.1243336469354 13.12499933110753
  endloop
endfacet
facet normal -2.6372593770697915e-14 -5.864195325098505e-15 -1.0
  outer loop
    vertex 261.52586454162935 346.1243336469354 13.12499933110753
    vertex 256.82586454162947 346.1243336469354 13.124999331107643
    vertex 255.85246267005263 348.46043739912454 13.124999331107652
  endloop
endfacet
facet normal -2.6372593770697915e-14 -5.864195325098505e-15 -1.0
  outer loop
    vertex 261.52586454162935 346.1243336469354 13.12499933110753
    vertex 255.85246267005263 348.46043739912454 13.124999331107652
    vertex 262.49926641320616 348.46043739912454 13.124999331107475
  endloop
endfacet
facet normal -2.6372593770697915e-14 -5.864195325098505e-15 -1.0
  outer loop
    vertex 262.49926641320616 348.46043739912454 13.124999331107475
    vertex 255.85246267005263 348.46043739912454 13.124999331107652
    vertex 255.10554514384248 351.50490708256683 13.124999331107663
  endloop
endfacet
facet normal -2.6372593770697915e-14 -5.864195325098505e-15 -1.0
  outer loop
    vertex 262.49926641320616 348.46043739912454 13.124999331107475
    vertex 255.10554514384248 351.50490708256683 13.124999331107663
    vertex 263.24618393941626 351.50490708256683 13.124999331107439
  endloop
endfacet
facet normal -2.6372593770697915e-14 -5.864195325098505e-15 -1.0
  outer loop
    vertex 263.24618393941626 351.50490708256683 13.124999331107439
    vertex 255.10554514384248 351.50490708256683 13.124999331107663
    vertex 254.63601315807077 355.05026711955975 13.124999331107658
  endloop
endfacet
facet normal -2.6372593770697915e-14 -5.864195325098505e-15 -1.0
  outer loop
    vertex 263.24618393941626 351.50490708256683 13.124999331107439
    vertex 254.63601315807077 355.05026711955975 13.124999331107658
    vertex 263.71571592518796 355.05026711955975 13.124999331107427
  endloop
endfacet
facet normal -2.6372593770697915e-14 -5.864195325098505e-15 -1.0
  outer loop
    vertex 263.71571592518796 355.05026711955975 13.124999331107427
    vertex 254.63601315807077 355.05026711955975 13.124999331107658
    vertex 254.4758645416294 358.8549070825671 13.124999331107631
  endloop
endfacet
facet normal -2.6372593770697915e-14 -5.864195325098505e-15 -1.0
  outer loop
    vertex 263.71571592518796 355.05026711955975 13.124999331107427
    vertex 254.4758645416294 358.8549070825671 13.124999331107631
    vertex 263.87586454162937 358.8549070825671 13.124999331107384
  endloop
endfacet
facet normal -2.6372593770697915e-14 -5.864195325098505e-15 -1.0
  outer loop
    vertex 263.87586454162937 358.8549070825671 13.124999331107384
    vertex 254.4758645416294 358.8549070825671 13.124999331107631
    vertex 254.63601315807077 362.65954704557424 13.124999331107611
  endloop
endfacet
facet normal -2.6372593770697915e-14 -5.864195325098505e-15 -1.0
  outer loop
    vertex 263.87586454162937 358.8549070825671 13.124999331107384
    vertex 254.63601315807077 362.65954704557424 13.124999331107611
    vertex 263.71571592518796 362.65954704557424 13.12499933110738
  endloop
endfacet
facet normal -2.6372593770697915e-14 -5.864195325098505e-15 -1.0
  outer loop
    vertex 263.71571592518796 362.65954704557424 13.12499933110738
    vertex 254.63601315807077 362.65954704557424 13.124999331107611
    vertex 255.10554514384248 366.20490708256705 13.124999331107572
  endloop
endfacet
facet normal -2.6372593770697915e-14 -5.864195325098505e-15 -1.0
  outer loop
    vertex 263.71571592518796 362.65954704557424 13.12499933110738
    vertex 255.10554514384248 366.20490708256705 13.124999331107572
    vertex 263.24618393941626 366.20490708256705 13.12499933110735
  endloop
endfacet
facet normal -2.6372593770697915e-14 -5.864195325098505e-15 -1.0
  outer loop
    vertex 263.24618393941626 366.20490708256705 13.12499933110735
    vertex 255.10554514384248 366.20490708256705 13.124999331107572
    vertex 255.85246267005263 369.2493767660098 13.124999331107539
  endloop
endfacet
facet normal -2.6372593770697915e-14 -5.864195325098505e-15 -1.0
  outer loop
    vertex 263.24618393941626 366.20490708256705 13.12499933110735
    vertex 255.85246267005263 369.2493767660098 13.124999331107539
    vertex 262.49926641320616 369.2493767660098 13.124999331107361
  endloop
endfacet
facet normal -2.6372593770697915e-14 -5.864195325098505e-15 -1.0
  outer loop
    vertex 262.49926641320616 369.2493767660098 13.124999331107361
    vertex 255.85246267005263 369.2493767660098 13.124999331107539
    vertex 256.82586454162947 371.585480518199 13.124999331107508
  endloop
endfacet
facet normal -2.6372593770697915e-14 -5.864195325098505e-15 -1.0
  outer loop
    vertex 262.49926641320616 369.2493767660098 13.124999331107361
    vertex 256.82586454162947 371.585480518199 13.124999331107508
    vertex 261.52586454162935 371.585480518199 13.124999331107372
  endloop
endfacet
facet normal -2.6372593770697915e-14 -5.864195325098505e-15 -1.0
  outer loop
    vertex 261.52586454162935 371.585480518199 13.124999331107372
    vertex 256.82586454162947 371.585480518199 13.124999331107508
    vertex 257.9594150296476 373.0540167290169 13.124999331107457
  endloop
endfacet
facet normal -2.6372593770697915e-14 -5.864195325098505e-15 -1.0
  outer loop
    vertex 261.52586454162935 371.585480518199 13.124999331107372
    vertex 257.9594150296476 373.0540167290169 13.124999331107457
    vertex 260.39231405361124 373.0540167290169 13.1249993311074
  endloop
endfacet
facet normal -2.6372593770697915e-14 -5.864195325098505e-15 -1.0
  outer loop
    vertex 260.39231405361124 373.0540167290169 13.1249993311074
    vertex 257.9594150296476 373.0540167290169 13.124999331107457
    vertex 259.1758645416294 373.55490708256724 13.124999331107428
  endloop
endfacet
facet normal -0.38074940100593896 0.924678264929818 4.618855322744551e-15
  outer loop
    vertex 257.95941502964774 373.0540167290169 18.124999331107446
    vertex 259.1758645416294 373.55490708256724 13.124999331107428
    vertex 257.9594150296476 373.0540167290169 13.124999331107457
  endloop
endfacet
facet normal -0.38074940100593896 0.924678264929818 4.618855322744551e-15
  outer loop
    vertex 259.1758645416294 373.55490708256724 13.124999331107428
    vertex 257.95941502964774 373.0540167290169 18.124999331107446
    vertex 259.17586454162955 373.5549070825673 18.124999331107418
  endloop
endfacet
facet normal 0.9991152662275463 0.04205573434217525 -2.6595884087044743e-14
  outer loop
    vertex 263.87586454162937 358.8549070825671 13.124999331107384
    vertex 263.71571592518814 362.6595470455743 18.12499933110737
    vertex 263.87586454162954 358.8549070825671 18.124999331107375
  endloop
endfacet
facet normal 0.9991152662275463 0.04205573434217525 -2.6595884087044743e-14
  outer loop
    vertex 263.71571592518814 362.6595470455743 18.12499933110737
    vertex 263.87586454162937 358.8549070825671 13.124999331107384
    vertex 263.71571592518796 362.65954704557424 13.12499933110738
  endloop
endfacet
facet normal -0.9991152662275467 0.04205573434216342 2.610263800559888e-14
  outer loop
    vertex 254.6360131580709 362.6595470455743 18.124999331107603
    vertex 254.4758645416294 358.8549070825671 13.124999331107631
    vertex 254.47586454162953 358.8549070825671 18.124999331107624
  endloop
endfacet
facet normal -0.9991152662275467 0.04205573434216342 2.610263800559888e-14
  outer loop
    vertex 254.4758645416294 358.8549070825671 13.124999331107631
    vertex 254.6360131580709 362.6595470455743 18.124999331107603
    vertex 254.63601315807077 362.65954704557424 13.124999331107611
  endloop
endfacet
facet normal -0.9913441002752533 -0.13128927926319192 2.6914221221228038e-14
  outer loop
    vertex 254.63601315807077 355.05026711955975 13.124999331107658
    vertex 255.10554514384262 351.5049070825669 18.124999331107652
    vertex 254.6360131580709 355.05026711955975 18.12499933110765
  endloop
endfacet
facet normal -0.9913441002752533 -0.13128927926319192 2.6914221221228038e-14
  outer loop
    vertex 255.10554514384262 351.5049070825669 18.124999331107652
    vertex 254.63601315807077 355.05026711955975 13.124999331107658
    vertex 255.10554514384248 351.50490708256683 13.124999331107663
  endloop
endfacet
facet normal 0.9913441002752542 -0.13128927926318573 -2.5374409265846578e-14
  outer loop
    vertex 263.24618393941626 351.50490708256683 13.124999331107439
    vertex 263.71571592518814 355.05026711955975 18.124999331107418
    vertex 263.24618393941637 351.5049070825669 18.124999331107432
  endloop
endfacet
facet normal 0.9913441002752542 -0.13128927926318573 -2.5374409265846578e-14
  outer loop
    vertex 263.71571592518814 355.05026711955975 18.124999331107418
    vertex 263.24618393941626 351.50490708256683 13.124999331107439
    vertex 263.71571592518796 355.05026711955975 13.124999331107427
  endloop
endfacet
facet normal -0.9711989740620677 -0.2382699158114331 2.701029733987051e-14
  outer loop
    vertex 255.10554514384248 351.50490708256683 13.124999331107663
    vertex 255.8524626700528 348.46043739912454 18.12499933110764
    vertex 255.10554514384262 351.5049070825669 18.124999331107652
  endloop
endfacet
facet normal -0.9711989740620677 -0.2382699158114331 2.701029733987051e-14
  outer loop
    vertex 255.8524626700528 348.46043739912454 18.12499933110764
    vertex 255.10554514384248 351.50490708256683 13.124999331107663
    vertex 255.85246267005263 348.46043739912454 13.124999331107652
  endloop
endfacet
facet normal -0.3807494010061369 -0.9246782649297365 1.5463843239592566e-14
  outer loop
    vertex 259.1758645416294 344.15490708256664 13.12499933110761
    vertex 257.95941502964774 344.6557974361173 18.124999331107627
    vertex 257.9594150296476 344.6557974361173 13.124999331107638
  endloop
endfacet
facet normal -0.3807494010061369 -0.9246782649297365 1.5463843239592566e-14
  outer loop
    vertex 257.95941502964774 344.6557974361173 18.124999331107627
    vertex 259.1758645416294 344.15490708256664 13.12499933110761
    vertex 259.17586454162955 344.15490708256664 18.1249993311076
  endloop
endfacet
facet normal 0.7916050293247144 -0.6110331231183935 -1.729346028115088e-14
  outer loop
    vertex 260.39231405361124 344.6557974361174 13.124999331107558
    vertex 261.52586454162946 346.12433364693544 18.12499933110752
    vertex 260.39231405361136 344.6557974361174 18.12499933110755
  endloop
endfacet
facet normal 0.7916050293247144 -0.6110331231183935 -1.729346028115088e-14
  outer loop
    vertex 261.52586454162946 346.12433364693544 18.12499933110752
    vertex 260.39231405361124 344.6557974361174 13.124999331107558
    vertex 261.52586454162935 346.1243336469354 13.12499933110753
  endloop
endfacet
facet normal 0.9230733727029198 -0.38462390540222063 -2.2088329370861303e-14
  outer loop
    vertex 261.52586454162935 346.1243336469354 13.12499933110753
    vertex 262.49926641320627 348.46043739912454 18.124999331107468
    vertex 261.52586454162946 346.12433364693544 18.12499933110752
  endloop
endfacet
facet normal 0.9230733727029198 -0.38462390540222063 -2.2088329370861303e-14
  outer loop
    vertex 262.49926641320627 348.46043739912454 18.124999331107468
    vertex 261.52586454162935 346.1243336469354 13.12499933110753
    vertex 262.49926641320616 348.46043739912454 13.124999331107475
  endloop
endfacet
facet normal 0.7916050293246736 0.6110331231184465 -2.4459895449292564e-14
  outer loop
    vertex 261.52586454162946 371.58548051819906 18.124999331107364
    vertex 260.39231405361124 373.0540167290169 13.1249993311074
    vertex 260.39231405361136 373.0540167290169 18.124999331107393
  endloop
endfacet
facet normal 0.7916050293246736 0.6110331231184465 -2.4459895449292564e-14
  outer loop
    vertex 260.39231405361124 373.0540167290169 13.1249993311074
    vertex 261.52586454162946 371.58548051819906 18.124999331107364
    vertex 261.52586454162935 371.585480518199 13.124999331107372
  endloop
endfacet
facet normal 0.9913441002752541 0.13128927926318698 -2.691422122122803e-14
  outer loop
    vertex 263.71571592518796 362.65954704557424 13.12499933110738
    vertex 263.24618393941637 366.2049070825671 18.12499933110734
    vertex 263.71571592518814 362.6595470455743 18.12499933110737
  endloop
endfacet
facet normal 0.9913441002752541 0.13128927926318698 -2.691422122122803e-14
  outer loop
    vertex 263.24618393941637 366.2049070825671 18.12499933110734
    vertex 263.71571592518796 362.65954704557424 13.12499933110738
    vertex 263.24618393941626 366.20490708256705 13.12499933110735
  endloop
endfacet
facet normal -0.7916050293246678 0.6110331231184541 1.7293460281149298e-14
  outer loop
    vertex 257.95941502964774 373.0540167290169 18.124999331107446
    vertex 256.82586454162947 371.585480518199 13.124999331107508
    vertex 256.8258645416296 371.58548051819906 18.1249993311075
  endloop
endfacet
facet normal -0.7916050293246678 0.6110331231184541 1.7293460281149298e-14
  outer loop
    vertex 256.82586454162947 371.585480518199 13.124999331107508
    vertex 257.95941502964774 373.0540167290169 18.124999331107446
    vertex 257.9594150296476 373.0540167290169 13.124999331107457
  endloop
endfacet
facet normal 0.9991152662275463 -0.04205573434217351 -2.6102638005598822e-14
  outer loop
    vertex 263.71571592518796 355.05026711955975 13.124999331107427
    vertex 263.87586454162954 358.8549070825671 18.124999331107375
    vertex 263.71571592518814 355.05026711955975 18.124999331107418
  endloop
endfacet
facet normal 0.9991152662275463 -0.04205573434217351 -2.6102638005598822e-14
  outer loop
    vertex 263.87586454162954 358.8549070825671 18.124999331107375
    vertex 263.71571592518796 355.05026711955975 13.124999331107427
    vertex 263.87586454162937 358.8549070825671 13.124999331107384
  endloop
endfacet
facet normal -0.9711989740620744 0.2382699158114056 2.421577468704481e-14
  outer loop
    vertex 255.8524626700528 369.24937676600985 18.124999331107528
    vertex 255.10554514384248 366.20490708256705 13.124999331107572
    vertex 255.10554514384262 366.2049070825671 18.124999331107563
  endloop
endfacet
facet normal -0.9711989740620744 0.2382699158114056 2.421577468704481e-14
  outer loop
    vertex 255.10554514384248 366.20490708256705 13.124999331107572
    vertex 255.8524626700528 369.24937676600985 18.124999331107528
    vertex 255.85246267005263 369.2493767660098 13.124999331107539
  endloop
endfacet
facet normal -0.9913441002752533 0.13128927926319317 2.5374409265846502e-14
  outer loop
    vertex 255.10554514384262 366.2049070825671 18.124999331107563
    vertex 254.63601315807077 362.65954704557424 13.124999331107611
    vertex 254.6360131580709 362.6595470455743 18.124999331107603
  endloop
endfacet
facet normal -0.9913441002752533 0.13128927926319317 2.5374409265846502e-14
  outer loop
    vertex 254.63601315807077 362.65954704557424 13.124999331107611
    vertex 255.10554514384262 366.2049070825671 18.124999331107563
    vertex 255.10554514384248 366.20490708256705 13.124999331107572
  endloop
endfacet
facet normal 0.3807494010061542 -0.9246782649297294 -4.6188553227507465e-15
  outer loop
    vertex 260.39231405361124 344.6557974361174 13.124999331107558
    vertex 259.17586454162955 344.15490708256664 18.1249993311076
    vertex 259.1758645416294 344.15490708256664 13.12499933110761
  endloop
endfacet
facet normal 0.3807494010061542 -0.9246782649297294 -4.6188553227507465e-15
  outer loop
    vertex 259.17586454162955 344.15490708256664 18.1249993311076
    vertex 260.39231405361124 344.6557974361174 13.124999331107558
    vertex 260.39231405361136 344.6557974361174 18.12499933110755
  endloop
endfacet
facet normal 0.9230733727029264 0.38462390540220487 -2.659934878682305e-14
  outer loop
    vertex 262.49926641320627 369.24937676600985 18.124999331107354
    vertex 261.52586454162935 371.585480518199 13.124999331107372
    vertex 261.52586454162946 371.58548051819906 18.124999331107364
  endloop
endfacet
facet normal 0.9230733727029264 0.38462390540220487 -2.659934878682305e-14
  outer loop
    vertex 261.52586454162935 371.585480518199 13.124999331107372
    vertex 262.49926641320627 369.24937676600985 18.124999331107354
    vertex 262.49926641320616 369.2493767660098 13.124999331107361
  endloop
endfacet
endsolid Design - Rolled
