solid Untitled-558056ac
facet normal 1.0 -1.3024182930367868e-15 1.0037938610263316e-16
  outer loop
    vertex 53.49999935520983 4.897180592400283 5.09305536917133
    vertex 53.49999935520983 4.897180592400283 6.906944630828378
    vertex 53.49999935520983 4.8016593717426215 5.9999999999998535
  endloop
endfacet
facet normal 1.0 -1.3024182930367868e-15 1.0037938610263316e-16
  outer loop
    vertex 53.49999935520983 4.897180592400283 6.906944630828378
    vertex 53.49999935520983 4.897180592400283 5.09305536917133
    vertex 53.49999935520983 5.175768876180272 4.252340852896428
  endloop
endfacet
facet normal 1.0 -1.3024182930367868e-15 1.0037938610263316e-16
  outer loop
    vertex 53.49999935520983 4.897180592400283 6.906944630828378
    vertex 53.49999935520983 5.175768876180272 4.252340852896428
    vertex 53.49999935520983 5.1757688761802605 7.747659147103212
  endloop
endfacet
facet normal 1.0 -1.3024182930367868e-15 1.0037938610263316e-16
  outer loop
    vertex 53.49999935520983 5.1757688761802605 7.747659147103212
    vertex 53.49999935520983 5.175768876180272 4.252340852896428
    vertex 53.49999935520983 5.614175815190609 8.461837955288177
  endloop
endfacet
facet normal 1.0 -1.3024182930367868e-15 1.0037938610263316e-16
  outer loop
    vertex 53.49999935520983 5.614175815190609 8.461837955288177
    vertex 53.49999935520983 5.175768876180272 4.252340852896428
    vertex 53.49999935520983 5.6141758151906425 3.538162044711486
  endloop
endfacet
facet normal 1.0 -1.3024182930367868e-15 1.0037938610263316e-16
  outer loop
    vertex 53.49999935520983 5.614175815190609 8.461837955288177
    vertex 53.49999935520983 5.6141758151906425 3.538162044711486
    vertex 53.49999935520981 6.1764036500592825 9.001103694147806
  endloop
endfacet
facet normal 1.0 -1.3024182930367868e-15 1.0037938610263316e-16
  outer loop
    vertex 53.49999935520981 6.1764036500592825 9.001103694147806
    vertex 53.49999935520983 5.6141758151906425 3.538162044711486
    vertex 53.49999935520981 6.1764036500592825 2.998896305851878
  endloop
endfacet
facet normal 1.0 -1.3024182930367868e-15 1.0037938610263316e-16
  outer loop
    vertex 53.49999935520981 6.1764036500592825 9.001103694147806
    vertex 53.49999935520981 6.1764036500592825 2.998896305851878
    vertex 53.49999935520983 6.819217482929916 2.6660685462817946
  endloop
endfacet
facet normal 1.0 -1.3024182930367868e-15 1.0037938610263316e-16
  outer loop
    vertex 53.49999935520981 6.1764036500592825 9.001103694147806
    vertex 53.49999935520983 6.819217482929916 2.6660685462817946
    vertex 53.49999935520983 6.819217482929916 9.33393145371789
  endloop
endfacet
facet normal 1.0 -1.3024182930367868e-15 1.0037938610263316e-16
  outer loop
    vertex 53.49999935520983 6.819217482929916 9.33393145371789
    vertex 53.49999935520983 6.819217482929916 2.6660685462817946
    vertex 53.49999935520983 7.500000052153506 2.5540351393414937
  endloop
endfacet
facet normal 1.0 -1.3024182930367868e-15 1.0037938610263316e-16
  outer loop
    vertex 53.49999935520983 6.819217482929916 9.33393145371789
    vertex 53.49999935520983 7.500000052153506 2.5540351393414937
    vertex 53.49999935520983 7.500000052153506 9.445964860658192
  endloop
endfacet
facet normal 1.0 -1.3024182930367868e-15 1.0037938610263316e-16
  outer loop
    vertex 53.49999935520983 7.500000052153506 9.445964860658192
    vertex 53.49999935520983 7.500000052153506 2.5540351393414937
    vertex 53.49999935520983 8.180782621377098 2.6660685462817946
  endloop
endfacet
facet normal 1.0 -1.3024182930367868e-15 1.0037938610263316e-16
  outer loop
    vertex 53.49999935520983 7.500000052153506 9.445964860658192
    vertex 53.49999935520983 8.180782621377098 2.6660685462817946
    vertex 53.49999935520983 8.180782621377098 9.33393145371789
  endloop
endfacet
facet normal 1.0 -1.3024182930367868e-15 1.0037938610263316e-16
  outer loop
    vertex 53.49999935520983 8.180782621377098 9.33393145371789
    vertex 53.49999935520983 8.180782621377098 2.6660685462817946
    vertex 53.49999935520983 8.823596454247731 2.9988963058519005
  endloop
endfacet
facet normal 1.0 -1.3024182930367868e-15 1.0037938610263316e-16
  outer loop
    vertex 53.49999935520983 8.180782621377098 9.33393145371789
    vertex 53.49999935520983 8.823596454247731 2.9988963058519005
    vertex 53.49999935520983 8.823596454247742 9.001103694147785
  endloop
endfacet
facet normal 1.0 -1.3024182930367868e-15 1.0037938610263316e-16
  outer loop
    vertex 53.49999935520983 8.823596454247742 9.001103694147785
    vertex 53.49999935520983 8.823596454247731 2.9988963058519005
    vertex 53.49999935520983 9.385824289116393 3.538162044711486
  endloop
endfacet
facet normal 1.0 -1.3024182930367868e-15 1.0037938610263316e-16
  outer loop
    vertex 53.49999935520983 8.823596454247742 9.001103694147785
    vertex 53.49999935520983 9.385824289116393 3.538162044711486
    vertex 53.49999935520983 9.385824289116426 8.461837955288177
  endloop
endfacet
facet normal 1.0 -1.3024182930367868e-15 1.0037938610263316e-16
  outer loop
    vertex 53.49999935520983 9.385824289116426 8.461837955288177
    vertex 53.49999935520983 9.385824289116393 3.538162044711486
    vertex 53.49999935520983 9.824231228126763 4.252340852896428
  endloop
endfacet
facet normal 1.0 -1.3024182930367868e-15 1.0037938610263316e-16
  outer loop
    vertex 53.49999935520983 9.385824289116426 8.461837955288177
    vertex 53.49999935520983 9.824231228126763 4.252340852896428
    vertex 53.49999935520983 9.824231228126775 7.747659147103234
  endloop
endfacet
facet normal 1.0 -1.3024182930367868e-15 1.0037938610263316e-16
  outer loop
    vertex 53.49999935520983 9.824231228126775 7.747659147103234
    vertex 53.49999935520983 9.824231228126763 4.252340852896428
    vertex 53.49999935520983 10.102819511906741 5.093055369171284
  endloop
endfacet
facet normal 1.0 -1.3024182930367868e-15 1.0037938610263316e-16
  outer loop
    vertex 53.49999935520983 9.824231228126775 7.747659147103234
    vertex 53.49999935520983 10.102819511906741 5.093055369171284
    vertex 53.49999935520983 10.10281951190673 6.906944630828423
  endloop
endfacet
facet normal 1.0 -1.3024182930367868e-15 1.0037938610263316e-16
  outer loop
    vertex 53.49999935520983 10.10281951190673 6.906944630828423
    vertex 53.49999935520983 10.102819511906741 5.093055369171284
    vertex 53.49999935520985 10.122658745868986 5.281422797873921
  endloop
endfacet
facet normal 1.0 -1.3024182930367868e-15 1.0037938610263316e-16
  outer loop
    vertex 53.49999935520983 10.10281951190673 6.906944630828423
    vertex 53.49999935520985 10.122658745868986 5.281422797873921
    vertex 53.49999935520983 10.19834073256438 5.9999999999998535
  endloop
endfacet
facet normal 8.748925538569792e-16 0.6922158099393148 -0.7216905655958504
  outer loop
    vertex 53.49999935520983 9.385824289116393 3.538162044711486
    vertex 50.49999935520981 8.823596454247731 2.9988963058519005
    vertex 50.49999935520981 9.385824289116393 3.538162044711486
  endloop
endfacet
facet normal 8.748925538569792e-16 0.6922158099393148 -0.7216905655958504
  outer loop
    vertex 50.49999935520981 8.823596454247731 2.9988963058519005
    vertex 53.49999935520983 9.385824289116393 3.538162044711486
    vertex 53.49999935520983 8.823596454247731 2.9988963058519005
  endloop
endfacet
facet normal 6.176645113529859e-16 0.459791091962421 -0.8880271120590885
  outer loop
    vertex 53.49999935520983 8.823596454247731 2.9988963058519005
    vertex 50.49999935520981 8.180782621377098 2.6660685462817946
    vertex 50.49999935520981 8.823596454247731 2.9988963058519005
  endloop
endfacet
facet normal 6.176645113529859e-16 0.459791091962421 -0.8880271120590885
  outer loop
    vertex 50.49999935520981 8.180782621377098 2.6660685462817946
    vertex 53.49999935520983 8.823596454247731 2.9988963058519005
    vertex 53.49999935520983 8.180782621377098 2.6660685462817946
  endloop
endfacet
facet normal 2.78312412072882e-16 0.1623815151833016 -0.9867280494273868
  outer loop
    vertex 53.49999935520983 8.180782621377098 2.6660685462817946
    vertex 50.49999935520981 7.500000052153506 2.5540351393414937
    vertex 50.49999935520981 8.180782621377098 2.6660685462817946
  endloop
endfacet
facet normal 2.78312412072882e-16 0.1623815151833016 -0.9867280494273868
  outer loop
    vertex 50.49999935520981 7.500000052153506 2.5540351393414937
    vertex 53.49999935520983 8.180782621377098 2.6660685462817946
    vertex 53.49999935520983 7.500000052153506 2.5540351393414937
  endloop
endfacet
facet normal -1.0188607300085494e-16 -0.1623815151833016 -0.9867280494273868
  outer loop
    vertex 53.49999935520983 7.500000052153506 2.5540351393414937
    vertex 50.49999935520981 6.819217482929916 2.6660685462817946
    vertex 50.49999935520981 7.500000052153506 2.5540351393414937
  endloop
endfacet
facet normal -1.0188607300085494e-16 -0.1623815151833016 -0.9867280494273868
  outer loop
    vertex 50.49999935520981 6.819217482929916 2.6660685462817946
    vertex 53.49999935520983 7.500000052153506 2.5540351393414937
    vertex 53.49999935520983 6.819217482929916 2.6660685462817946
  endloop
endfacet
facet normal -4.588858362476842e-16 -0.4597910919623964 -0.8880271120591012
  outer loop
    vertex 50.49999935520981 6.819217482929916 2.6660685462817946
    vertex 53.49999935520981 6.1764036500592825 2.998896305851878
    vertex 50.499999355209766 6.1764036500592825 2.998896305851878
  endloop
endfacet
facet normal -4.588858362476842e-16 -0.4597910919623964 -0.8880271120591012
  outer loop
    vertex 53.49999935520981 6.1764036500592825 2.998896305851878
    vertex 50.49999935520981 6.819217482929916 2.6660685462817946
    vertex 53.49999935520983 6.819217482929916 2.6660685462817946
  endloop
endfacet
facet normal -7.458547460184885e-16 -0.6922158099393444 -0.7216905655958221
  outer loop
    vertex 53.49999935520981 6.1764036500592825 2.998896305851878
    vertex 50.49999935520981 5.6141758151906425 3.538162044711486
    vertex 50.499999355209766 6.1764036500592825 2.998896305851878
  endloop
endfacet
facet normal -7.458547460184885e-16 -0.6922158099393444 -0.7216905655958221
  outer loop
    vertex 50.49999935520981 5.6141758151906425 3.538162044711486
    vertex 53.49999935520981 6.1764036500592825 2.998896305851878
    vertex 53.49999935520983 5.6141758151906425 3.538162044711486
  endloop
endfacet
facet normal -9.509399021108236e-16 -0.8522371515530391 -0.5231556532359773
  outer loop
    vertex 53.49999935520983 5.175768876180272 4.252340852896428
    vertex 50.49999935520981 5.6141758151906425 3.538162044711486
    vertex 53.49999935520983 5.6141758151906425 3.538162044711486
  endloop
endfacet
facet normal -9.509399021108236e-16 -0.8522371515530391 -0.5231556532359773
  outer loop
    vertex 50.49999935520981 5.6141758151906425 3.538162044711486
    vertex 53.49999935520983 5.175768876180272 4.252340852896428
    vertex 50.49999935520981 5.175768876180272 4.252340852896428
  endloop
endfacet
facet normal -1.0831506698766773e-15 -0.9492406772917646 -0.3145506899923638
  outer loop
    vertex 53.49999935520983 4.897180592400283 5.09305536917133
    vertex 50.49999935520981 5.175768876180272 4.252340852896428
    vertex 53.49999935520983 5.175768876180272 4.252340852896428
  endloop
endfacet
facet normal -1.0831506698766773e-15 -0.9492406772917646 -0.3145506899923638
  outer loop
    vertex 50.49999935520981 5.175768876180272 4.252340852896428
    vertex 53.49999935520983 4.897180592400283 5.09305536917133
    vertex 50.49999935520981 4.897180592400283 5.09305536917133
  endloop
endfacet
facet normal -1.1548915567437887e-15 -0.9944993591068938 -0.10474265958040999
  outer loop
    vertex 53.49999935520983 4.8016593717426215 5.9999999999998535
    vertex 50.49999935520981 4.897180592400283 5.09305536917133
    vertex 53.49999935520983 4.897180592400283 5.09305536917133
  endloop
endfacet
facet normal -1.1548915567437887e-15 -0.9944993591068938 -0.10474265958040999
  outer loop
    vertex 50.49999935520981 4.897180592400283 5.09305536917133
    vertex 53.49999935520983 4.8016593717426215 5.9999999999998535
    vertex 50.49999935520981 4.8016593717426215 5.9999999999998535
  endloop
endfacet
facet normal -1.1736194767468365e-15 -0.9944993591068938 0.10474265958040999
  outer loop
    vertex 53.49999935520983 4.897180592400283 6.906944630828378
    vertex 50.49999935520981 4.8016593717426215 5.9999999999998535
    vertex 53.49999935520983 4.8016593717426215 5.9999999999998535
  endloop
endfacet
facet normal -1.1736194767468365e-15 -0.9944993591068938 0.10474265958040999
  outer loop
    vertex 50.49999935520981 4.8016593717426215 5.9999999999998535
    vertex 53.49999935520983 4.897180592400283 6.906944630828378
    vertex 50.49999935520981 4.897180592400283 6.906944630828378
  endloop
endfacet
facet normal -1.1393921304494602e-15 -0.9492406772917609 0.3145506899923751
  outer loop
    vertex 53.49999935520983 5.1757688761802605 7.747659147103212
    vertex 50.49999935520981 4.897180592400283 6.906944630828378
    vertex 53.49999935520983 4.897180592400283 6.906944630828378
  endloop
endfacet
facet normal -1.1393921304494602e-15 -0.9492406772917609 0.3145506899923751
  outer loop
    vertex 50.49999935520981 4.897180592400283 6.906944630828378
    vertex 53.49999935520983 5.1757688761802605 7.747659147103212
    vertex 50.49999935520981 5.1757688761802605 7.747659147103212
  endloop
endfacet
facet normal -1.044479795619314e-15 -0.8522371515530586 0.5231556532359458
  outer loop
    vertex 53.49999935520983 5.614175815190609 8.461837955288177
    vertex 50.49999935520981 5.1757688761802605 7.747659147103212
    vertex 53.49999935520983 5.1757688761802605 7.747659147103212
  endloop
endfacet
facet normal -1.044479795619314e-15 -0.8522371515530586 0.5231556532359458
  outer loop
    vertex 50.49999935520981 5.1757688761802605 7.747659147103212
    vertex 53.49999935520983 5.614175815190609 8.461837955288177
    vertex 50.49999935520981 5.614175815190609 8.461837955288177
  endloop
endfacet
facet normal -8.74892553857004e-16 -0.6922158099393377 0.7216905655958284
  outer loop
    vertex 50.49999935520981 5.614175815190609 8.461837955288177
    vertex 53.49999935520981 6.1764036500592825 9.001103694147806
    vertex 50.499999355209766 6.1764036500592825 9.001103694147806
  endloop
endfacet
facet normal -8.74892553857004e-16 -0.6922158099393377 0.7216905655958284
  outer loop
    vertex 53.49999935520981 6.1764036500592825 9.001103694147806
    vertex 50.49999935520981 5.614175815190609 8.461837955288177
    vertex 53.49999935520983 5.614175815190609 8.461837955288177
  endloop
endfacet
facet normal -6.176645113529583e-16 -0.4597910919623964 0.8880271120591012
  outer loop
    vertex 53.49999935520981 6.1764036500592825 9.001103694147806
    vertex 50.49999935520981 6.819217482929916 9.33393145371789
    vertex 50.499999355209766 6.1764036500592825 9.001103694147806
  endloop
endfacet
facet normal -6.176645113529583e-16 -0.4597910919623964 0.8880271120591012
  outer loop
    vertex 50.49999935520981 6.819217482929916 9.33393145371789
    vertex 53.49999935520981 6.1764036500592825 9.001103694147806
    vertex 53.49999935520983 6.819217482929916 9.33393145371789
  endloop
endfacet
facet normal -2.78312412072882e-16 -0.1623815151833016 0.9867280494273868
  outer loop
    vertex 53.49999935520983 6.819217482929916 9.33393145371789
    vertex 50.49999935520981 7.500000052153506 9.445964860658192
    vertex 50.49999935520981 6.819217482929916 9.33393145371789
  endloop
endfacet
facet normal -2.78312412072882e-16 -0.1623815151833016 0.9867280494273868
  outer loop
    vertex 50.49999935520981 7.500000052153506 9.445964860658192
    vertex 53.49999935520983 6.819217482929916 9.33393145371789
    vertex 53.49999935520983 7.500000052153506 9.445964860658192
  endloop
endfacet
facet normal 1.0188607300085494e-16 0.1623815151833016 0.9867280494273868
  outer loop
    vertex 53.49999935520983 7.500000052153506 9.445964860658192
    vertex 50.49999935520981 8.180782621377098 9.33393145371789
    vertex 50.49999935520981 7.500000052153506 9.445964860658192
  endloop
endfacet
facet normal 1.0188607300085494e-16 0.1623815151833016 0.9867280494273868
  outer loop
    vertex 50.49999935520981 8.180782621377098 9.33393145371789
    vertex 53.49999935520983 7.500000052153506 9.445964860658192
    vertex 53.49999935520983 8.180782621377098 9.33393145371789
  endloop
endfacet
facet normal 4.588858362477064e-16 0.4597910919624146 0.8880271120590916
  outer loop
    vertex 53.49999935520983 8.180782621377098 9.33393145371789
    vertex 50.49999935520981 8.823596454247742 9.001103694147785
    vertex 50.49999935520981 8.180782621377098 9.33393145371789
  endloop
endfacet
facet normal 4.588858362477064e-16 0.4597910919624146 0.8880271120590916
  outer loop
    vertex 50.49999935520981 8.823596454247742 9.001103694147785
    vertex 53.49999935520983 8.180782621377098 9.33393145371789
    vertex 53.49999935520983 8.823596454247742 9.001103694147785
  endloop
endfacet
facet normal 7.458547460184521e-16 0.6922158099393154 0.7216905655958498
  outer loop
    vertex 53.49999935520983 8.823596454247742 9.001103694147785
    vertex 50.49999935520981 9.385824289116426 8.461837955288177
    vertex 50.49999935520981 8.823596454247742 9.001103694147785
  endloop
endfacet
facet normal 7.458547460184521e-16 0.6922158099393154 0.7216905655958498
  outer loop
    vertex 50.49999935520981 9.385824289116426 8.461837955288177
    vertex 53.49999935520983 8.823596454247742 9.001103694147785
    vertex 53.49999935520983 9.385824289116426 8.461837955288177
  endloop
endfacet
facet normal 9.509399021108396e-16 0.8522371515530512 0.5231556532359578
  outer loop
    vertex 50.49999935520981 9.385824289116426 8.461837955288177
    vertex 53.49999935520983 9.824231228126775 7.747659147103234
    vertex 50.49999935520981 9.824231228126775 7.747659147103234
  endloop
endfacet
facet normal 9.509399021108396e-16 0.8522371515530512 0.5231556532359578
  outer loop
    vertex 53.49999935520983 9.824231228126775 7.747659147103234
    vertex 50.49999935520981 9.385824289116426 8.461837955288177
    vertex 53.49999935520983 9.385824289116426 8.461837955288177
  endloop
endfacet
facet normal 1.083150669876679e-15 0.9492406772917659 0.31455068999235974
  outer loop
    vertex 50.49999935520981 9.824231228126775 7.747659147103234
    vertex 53.49999935520983 10.10281951190673 6.906944630828423
    vertex 50.49999935520981 10.10281951190673 6.906944630828423
  endloop
endfacet
facet normal 1.083150669876679e-15 0.9492406772917659 0.31455068999235974
  outer loop
    vertex 53.49999935520983 10.10281951190673 6.906944630828423
    vertex 50.49999935520981 9.824231228126775 7.747659147103234
    vertex 53.49999935520983 9.824231228126775 7.747659147103234
  endloop
endfacet
facet normal 1.1548915567437926e-15 0.9944993591068957 0.10474265958039261
  outer loop
    vertex 50.49999935520981 10.10281951190673 6.906944630828423
    vertex 53.49999935520983 10.19834073256438 5.9999999999998535
    vertex 50.49999935520981 10.19834073256438 5.9999999999998535
  endloop
endfacet
facet normal 1.1548915567437926e-15 0.9944993591068957 0.10474265958039261
  outer loop
    vertex 53.49999935520983 10.19834073256438 5.9999999999998535
    vertex 50.49999935520981 10.10281951190673 6.906944630828423
    vertex 53.49999935520983 10.10281951190673 6.906944630828423
  endloop
endfacet
facet normal 1.1736194767468374e-15 0.9944993591068959 -0.10474265958039114
  outer loop
    vertex 50.49999935520981 10.19834073256438 5.9999999999998535
    vertex 53.49999935520985 10.122658745868986 5.281422797873921
    vertex 50.49999935520981 10.122658745868986 5.281422797873921
  endloop
endfacet
facet normal 1.1736194767468374e-15 0.9944993591068959 -0.10474265958039114
  outer loop
    vertex 53.49999935520985 10.122658745868986 5.281422797873921
    vertex 50.49999935520981 10.19834073256438 5.9999999999998535
    vertex 53.49999935520983 10.19834073256438 5.9999999999998535
  endloop
endfacet
facet normal 1.173619476746839e-15 0.9944993591069012 -0.10474265958033933
  outer loop
    vertex 50.49999935520981 10.122658745868986 5.281422797873921
    vertex 53.49999935520983 10.102819511906741 5.093055369171284
    vertex 50.49999935520981 10.102819511906741 5.093055369171284
  endloop
endfacet
facet normal 1.173619476746839e-15 0.9944993591069012 -0.10474265958033933
  outer loop
    vertex 53.49999935520983 10.102819511906741 5.093055369171284
    vertex 50.49999935520981 10.122658745868986 5.281422797873921
    vertex 53.49999935520985 10.122658745868986 5.281422797873921
  endloop
endfacet
facet normal 1.1393921304494623e-15 0.9492406772917633 -0.3145506899923675
  outer loop
    vertex 50.49999935520981 10.102819511906741 5.093055369171284
    vertex 53.49999935520983 9.824231228126763 4.252340852896428
    vertex 50.49999935520981 9.824231228126763 4.252340852896428
  endloop
endfacet
facet normal 1.1393921304494623e-15 0.9492406772917633 -0.3145506899923675
  outer loop
    vertex 53.49999935520983 9.824231228126763 4.252340852896428
    vertex 50.49999935520981 10.102819511906741 5.093055369171284
    vertex 53.49999935520983 10.102819511906741 5.093055369171284
  endloop
endfacet
facet normal 1.044479795619294e-15 0.8522371515530391 -0.5231556532359773
  outer loop
    vertex 50.49999935520981 9.824231228126763 4.252340852896428
    vertex 53.49999935520983 9.385824289116393 3.538162044711486
    vertex 50.49999935520981 9.385824289116393 3.538162044711486
  endloop
endfacet
facet normal 1.044479795619294e-15 0.8522371515530391 -0.5231556532359773
  outer loop
    vertex 53.49999935520983 9.385824289116393 3.538162044711486
    vertex 50.49999935520981 9.824231228126763 4.252340852896428
    vertex 53.49999935520983 9.824231228126763 4.252340852896428
  endloop
endfacet
facet normal -1.0 1.3866920446070227e-15 -5.879140330826306e-19
  outer loop
    vertex 50.49999935520981 4.897180592400283 6.906944630828378
    vertex 50.49999935520981 4.897180592400283 5.09305536917133
    vertex 50.49999935520981 4.8016593717426215 5.9999999999998535
  endloop
endfacet
facet normal -1.0 1.3866920446070227e-15 -5.879140330826306e-19
  outer loop
    vertex 50.49999935520981 4.897180592400283 5.09305536917133
    vertex 50.49999935520981 4.897180592400283 6.906944630828378
    vertex 50.49999935520981 5.1757688761802605 7.747659147103212
  endloop
endfacet
facet normal -1.0 1.3866920446070227e-15 -5.879140330826306e-19
  outer loop
    vertex 50.49999935520981 4.897180592400283 5.09305536917133
    vertex 50.49999935520981 5.1757688761802605 7.747659147103212
    vertex 50.49999935520981 5.175768876180272 4.252340852896428
  endloop
endfacet
facet normal -1.0 1.3866920446070227e-15 -5.879140330826306e-19
  outer loop
    vertex 50.49999935520981 5.175768876180272 4.252340852896428
    vertex 50.49999935520981 5.1757688761802605 7.747659147103212
    vertex 50.49999935520981 5.614175815190609 8.461837955288177
  endloop
endfacet
facet normal -1.0 1.3866920446070227e-15 -5.879140330826306e-19
  outer loop
    vertex 50.49999935520981 5.175768876180272 4.252340852896428
    vertex 50.49999935520981 5.614175815190609 8.461837955288177
    vertex 50.49999935520981 5.6141758151906425 3.538162044711486
  endloop
endfacet
facet normal -1.0 1.3866920446070227e-15 -5.879140330826306e-19
  outer loop
    vertex 50.49999935520981 5.6141758151906425 3.538162044711486
    vertex 50.49999935520981 5.614175815190609 8.461837955288177
    vertex 50.499999355209766 6.1764036500592825 9.001103694147806
  endloop
endfacet
facet normal -1.0 1.3866920446070227e-15 -5.879140330826306e-19
  outer loop
    vertex 50.49999935520981 5.6141758151906425 3.538162044711486
    vertex 50.499999355209766 6.1764036500592825 9.001103694147806
    vertex 50.499999355209766 6.1764036500592825 2.998896305851878
  endloop
endfacet
facet normal -1.0 1.3866920446070227e-15 -5.879140330826306e-19
  outer loop
    vertex 50.499999355209766 6.1764036500592825 2.998896305851878
    vertex 50.499999355209766 6.1764036500592825 9.001103694147806
    vertex 50.49999935520981 6.819217482929916 9.33393145371789
  endloop
endfacet
facet normal -1.0 1.3866920446070227e-15 -5.879140330826306e-19
  outer loop
    vertex 50.499999355209766 6.1764036500592825 2.998896305851878
    vertex 50.49999935520981 6.819217482929916 9.33393145371789
    vertex 50.49999935520981 6.819217482929916 2.6660685462817946
  endloop
endfacet
facet normal -1.0 1.3866920446070227e-15 -5.879140330826306e-19
  outer loop
    vertex 50.49999935520981 6.819217482929916 2.6660685462817946
    vertex 50.49999935520981 6.819217482929916 9.33393145371789
    vertex 50.49999935520981 7.500000052153506 9.445964860658192
  endloop
endfacet
facet normal -1.0 1.3866920446070227e-15 -5.879140330826306e-19
  outer loop
    vertex 50.49999935520981 6.819217482929916 2.6660685462817946
    vertex 50.49999935520981 7.500000052153506 9.445964860658192
    vertex 50.49999935520981 7.500000052153506 2.5540351393414937
  endloop
endfacet
facet normal -1.0 1.3866920446070227e-15 -5.879140330826306e-19
  outer loop
    vertex 50.49999935520981 7.500000052153506 2.5540351393414937
    vertex 50.49999935520981 7.500000052153506 9.445964860658192
    vertex 50.49999935520981 8.180782621377098 9.33393145371789
  endloop
endfacet
facet normal -1.0 1.3866920446070227e-15 -5.879140330826306e-19
  outer loop
    vertex 50.49999935520981 7.500000052153506 2.5540351393414937
    vertex 50.49999935520981 8.180782621377098 9.33393145371789
    vertex 50.49999935520981 8.180782621377098 2.6660685462817946
  endloop
endfacet
facet normal -1.0 1.3866920446070227e-15 -5.879140330826306e-19
  outer loop
    vertex 50.49999935520981 8.180782621377098 2.6660685462817946
    vertex 50.49999935520981 8.180782621377098 9.33393145371789
    vertex 50.49999935520981 8.823596454247742 9.001103694147785
  endloop
endfacet
facet normal -1.0 1.3866920446070227e-15 -5.879140330826306e-19
  outer loop
    vertex 50.49999935520981 8.180782621377098 2.6660685462817946
    vertex 50.49999935520981 8.823596454247742 9.001103694147785
    vertex 50.49999935520981 8.823596454247731 2.9988963058519005
  endloop
endfacet
facet normal -1.0 1.3866920446070227e-15 -5.879140330826306e-19
  outer loop
    vertex 50.49999935520981 8.823596454247731 2.9988963058519005
    vertex 50.49999935520981 8.823596454247742 9.001103694147785
    vertex 50.49999935520981 9.385824289116393 3.538162044711486
  endloop
endfacet
facet normal -1.0 1.3866920446070227e-15 -5.879140330826306e-19
  outer loop
    vertex 50.49999935520981 9.385824289116393 3.538162044711486
    vertex 50.49999935520981 8.823596454247742 9.001103694147785
    vertex 50.49999935520981 9.385824289116426 8.461837955288177
  endloop
endfacet
facet normal -1.0 1.3866920446070227e-15 -5.879140330826306e-19
  outer loop
    vertex 50.49999935520981 9.385824289116393 3.538162044711486
    vertex 50.49999935520981 9.385824289116426 8.461837955288177
    vertex 50.49999935520981 9.824231228126763 4.252340852896428
  endloop
endfacet
facet normal -1.0 1.3866920446070227e-15 -5.879140330826306e-19
  outer loop
    vertex 50.49999935520981 9.824231228126763 4.252340852896428
    vertex 50.49999935520981 9.385824289116426 8.461837955288177
    vertex 50.49999935520981 9.824231228126775 7.747659147103234
  endloop
endfacet
facet normal -1.0 1.3866920446070227e-15 -5.879140330826306e-19
  outer loop
    vertex 50.49999935520981 9.824231228126763 4.252340852896428
    vertex 50.49999935520981 9.824231228126775 7.747659147103234
    vertex 50.49999935520981 10.102819511906741 5.093055369171284
  endloop
endfacet
facet normal -1.0 1.3866920446070227e-15 -5.879140330826306e-19
  outer loop
    vertex 50.49999935520981 10.102819511906741 5.093055369171284
    vertex 50.49999935520981 9.824231228126775 7.747659147103234
    vertex 50.49999935520981 10.10281951190673 6.906944630828423
  endloop
endfacet
facet normal -1.0 1.3866920446070227e-15 -5.879140330826306e-19
  outer loop
    vertex 50.49999935520981 10.102819511906741 5.093055369171284
    vertex 50.49999935520981 10.10281951190673 6.906944630828423
    vertex 50.49999935520981 10.122658745868986 5.281422797873921
  endloop
endfacet
facet normal -1.0 1.3866920446070227e-15 -5.879140330826306e-19
  outer loop
    vertex 50.49999935520981 10.122658745868986 5.281422797873921
    vertex 50.49999935520981 10.10281951190673 6.906944630828423
    vertex 50.49999935520981 10.19834073256438 5.9999999999998535
  endloop
endfacet
endsolid Untitled-558056ac
