solid Design - Rolled
facet normal 0.9503696638297404 -0.3111229693740826 4.7322234378603785e-14
  outer loop
    vertex 125.3920674403994 -409.9925663663708 -7.499999999999781
    vertex 125.90713038113024 -408.41923285512394 19.500000000000263
    vertex 125.39206744039805 -409.992566366371 19.500000000000238
  endloop
endfacet
facet normal 0.9503696638297404 -0.3111229693740826 4.7322234378603785e-14
  outer loop
    vertex 125.90713038113024 -408.41923285512394 19.500000000000263
    vertex 125.3920674403994 -409.9925663663708 -7.499999999999781
    vertex 125.90713038113161 -408.41923285512377 -7.4999999999997575
  endloop
endfacet
facet normal 0.8641735457839875 0.503193881885631 4.303022774589032e-14
  outer loop
    vertex 125.3920674403994 -403.5533010520822 -7.499999999999781
    vertex 124.55903180473331 -402.1226648997917 19.500000000000195
    vertex 125.39206744039805 -403.55330105208236 19.500000000000238
  endloop
endfacet
facet normal 0.8641735457839875 0.503193881885631 4.303022774589032e-14
  outer loop
    vertex 124.55903180473331 -402.1226648997917 19.500000000000195
    vertex 125.3920674403994 -403.5533010520822 -7.499999999999781
    vertex 124.55903180473457 -402.12266489979146 -7.49999999999982
  endloop
endfacet
facet normal 0.9503696638297404 0.3111229693740826 4.7322234378603785e-14
  outer loop
    vertex 125.90713038113161 -405.1266345633285 -7.4999999999997575
    vertex 125.39206744039805 -403.55330105208236 19.500000000000238
    vertex 125.90713038113024 -405.12663456332865 19.500000000000263
  endloop
endfacet
facet normal 0.9503696638297404 0.3111229693740826 4.7322234378603785e-14
  outer loop
    vertex 125.39206744039805 -403.55330105208236 19.500000000000238
    vertex 125.90713038113161 -405.1266345633285 -7.4999999999997575
    vertex 125.3920674403994 -403.5533010520822 -7.499999999999781
  endloop
endfacet
facet normal 0.9944444421133862 -0.1052627738082003 4.9516871968064287e-14
  outer loop
    vertex 125.90713038113161 -408.41923285512377 -7.4999999999997575
    vertex 126.08139251914066 -406.7729337092263 19.50000000000027
    vertex 125.90713038113024 -408.41923285512394 19.500000000000263
  endloop
endfacet
facet normal 0.9944444421133862 -0.1052627738082003 4.9516871968064287e-14
  outer loop
    vertex 126.08139251914066 -406.7729337092263 19.50000000000027
    vertex 125.90713038113161 -408.41923285512377 -7.4999999999997575
    vertex 126.08139251914203 -406.77293370922615 -7.499999999999747
  endloop
endfacet
facet normal 0.7396763866583549 0.6729627352387649 4.281478638593426e-14
  outer loop
    vertex 124.55903180473331 -402.1226648997917 19.500000000000195
    vertex 123.44494445170827 -400.8981333402323 19.500000000000185
    vertex 123.56986871829046 -401.03544187943197 19.500000000000192
  endloop
endfacet
facet normal 0.7396763866583549 0.6729627352387649 4.281478638593426e-14
  outer loop
    vertex 123.44494445170827 -400.8981333402323 19.500000000000185
    vertex 124.55903180473331 -402.1226648997917 19.500000000000195
    vertex 123.44494445170962 -400.89813334023205 -7.499999999999831
  endloop
endfacet
facet normal 0.7396763866583549 0.6729627352387649 4.281478638593426e-14
  outer loop
    vertex 123.44494445170962 -400.89813334023205 -7.499999999999831
    vertex 124.55903180473331 -402.1226648997917 19.500000000000195
    vertex 124.55903180473457 -402.12266489979146 -7.49999999999982
  endloop
endfacet
facet normal 0.8641735457839875 -0.503193881885631 4.303022774589032e-14
  outer loop
    vertex 124.55903180473454 -411.42320251866073 -7.49999999999982
    vertex 125.39206744039805 -409.992566366371 19.500000000000238
    vertex 124.55903180473328 -411.42320251866096 19.500000000000195
  endloop
endfacet
facet normal 0.8641735457839875 -0.503193881885631 4.303022774589032e-14
  outer loop
    vertex 125.39206744039805 -409.992566366371 19.500000000000238
    vertex 124.55903180473454 -411.42320251866073 -7.49999999999982
    vertex 125.3920674403994 -409.9925663663708 -7.499999999999781
  endloop
endfacet
facet normal 0.5823960258142633 -0.8129052030315417 2.899953805731682e-14
  outer loop
    vertex 123.44494445170959 -412.6477340782202 -7.4999999999998765
    vertex 122.09918285380292 -413.6118885742059 19.500000000000075
    vertex 122.09918285380427 -413.61188857420575 -7.499999999999944
  endloop
endfacet
facet normal 0.5823960258142633 -0.8129052030315417 2.899953805731682e-14
  outer loop
    vertex 122.09918285380292 -413.6118885742059 19.500000000000075
    vertex 123.44494445170959 -412.6477340782202 -7.4999999999998765
    vertex 123.44494445170824 -412.64773407822037 19.50000000000014
  endloop
endfacet
facet normal 0.3993032871000206 -0.9168188942812634 9.805402159718147e-15
  outer loop
    vertex 122.09918285380427 -413.61188857420575 -7.499999999999944
    vertex 120.58139251914059 -414.2729337092262 19.499999999999996
    vertex 120.58139251914194 -414.27293370922604 -7.500000000000023
  endloop
endfacet
facet normal 0.3993032871000206 -0.9168188942812634 9.805402159718147e-15
  outer loop
    vertex 120.58139251914059 -414.2729337092262 19.499999999999996
    vertex 122.09918285380427 -413.61188857420575 -7.499999999999944
    vertex 122.09918285380292 -413.6118885742059 19.500000000000075
  endloop
endfacet
facet normal 0.9944444421133862 0.1052627738082003 4.9516871968064287e-14
  outer loop
    vertex 126.08139251914203 -406.77293370922615 -7.499999999999747
    vertex 125.90713038113024 -405.12663456332865 19.500000000000263
    vertex 126.08139251914066 -406.7729337092263 19.50000000000027
  endloop
endfacet
facet normal 0.9944444421133862 0.1052627738082003 4.9516871968064287e-14
  outer loop
    vertex 125.90713038113024 -405.12663456332865 19.500000000000263
    vertex 126.08139251914203 -406.77293370922615 -7.499999999999747
    vertex 125.90713038113161 -405.1266345633285 -7.4999999999997575
  endloop
endfacet
facet normal 0.5823960258142633 0.8129052030315417 2.8999538057316826e-14
  outer loop
    vertex 123.44494445170827 -400.8981333402323 19.500000000000185
    vertex 122.0991828538043 -399.933978844245 -7.499999999999944
    vertex 122.09918285380293 -399.93397884424525 19.500000000000075
  endloop
endfacet
facet normal 0.5823960258142633 0.8129052030315417 2.8999538057316826e-14
  outer loop
    vertex 122.0991828538043 -399.933978844245 -7.499999999999944
    vertex 123.44494445170827 -400.8981333402323 19.500000000000185
    vertex 123.44494445170962 -400.89813334023205 -7.499999999999831
  endloop
endfacet
facet normal 0.7396763866583563 -0.6729627352387634 2.7784503790675932e-14
  outer loop
    vertex 123.44494445170959 -412.6477340782202 -7.4999999999998765
    vertex 123.56986871829045 -412.5104255390207 19.50000000000015
    vertex 123.44494445170824 -412.64773407822037 19.50000000000014
  endloop
endfacet
facet normal 0.7396763866583563 -0.6729627352387634 2.7784503790675932e-14
  outer loop
    vertex 123.56986871829045 -412.5104255390207 19.50000000000015
    vertex 123.44494445170959 -412.6477340782202 -7.4999999999998765
    vertex 124.55903180473328 -411.42320251866096 19.500000000000195
  endloop
endfacet
facet normal 0.7396763866583563 -0.6729627352387634 2.7784503790675932e-14
  outer loop
    vertex 124.55903180473328 -411.42320251866096 19.500000000000195
    vertex 123.44494445170959 -412.6477340782202 -7.4999999999998765
    vertex 124.55903180473454 -411.42320251866073 -7.49999999999982
  endloop
endfacet
facet normal 0.3993032870992819 0.9168188942815854 2.995862469464492e-14
  outer loop
    vertex 122.09918285380293 -399.93397884424525 19.500000000000075
    vertex 120.58139251914196 -399.2729337092262 -7.500000000000023
    vertex 120.5813925191406 -399.2729337092264 19.499999999999996
  endloop
endfacet
facet normal 0.3993032870992819 0.9168188942815854 2.995862469464492e-14
  outer loop
    vertex 120.58139251914196 -399.2729337092262 -7.500000000000023
    vertex 122.09918285380293 -399.93397884424525 19.500000000000075
    vertex 122.0991828538043 -399.933978844245 -7.499999999999944
  endloop
endfacet
facet normal -4.979350265443827e-14 0.0 1.0
  outer loop
    vertex 120.5813925191406 -402.67293370922636 19.499999999999996
    vertex 119.52023443422028 -410.73322959701153 19.499999999999943
    vertex 120.5813925191406 -410.8729337092263 19.499999999999996
  endloop
endfacet
facet normal -4.979350265443827e-14 0.0 1.0
  outer loop
    vertex 119.52023443422028 -410.73322959701153 19.499999999999943
    vertex 120.5813925191406 -402.67293370922636 19.499999999999996
    vertex 118.53139251914062 -410.3236378647425 19.499999999999897
  endloop
endfacet
facet normal -4.979350265443827e-14 0.0 1.0
  outer loop
    vertex 118.53139251914062 -410.3236378647425 19.499999999999897
    vertex 120.5813925191406 -402.67293370922636 19.499999999999996
    vertex 117.68225471627576 -409.6720715120911 19.499999999999854
  endloop
endfacet
facet normal -4.979350265443827e-14 0.0 1.0
  outer loop
    vertex 117.68225471627576 -409.6720715120911 19.499999999999854
    vertex 120.5813925191406 -402.67293370922636 19.499999999999996
    vertex 117.03068836362442 -408.8229337092263 19.49999999999982
  endloop
endfacet
facet normal -4.979350265443827e-14 0.0 1.0
  outer loop
    vertex 117.03068836362442 -408.8229337092263 19.49999999999982
    vertex 120.5813925191406 -402.67293370922636 19.499999999999996
    vertex 116.62109663135544 -407.8340917941466 19.4999999999998
  endloop
endfacet
facet normal -4.979350265443827e-14 0.0 1.0
  outer loop
    vertex 116.62109663135544 -407.8340917941466 19.4999999999998
    vertex 120.5813925191406 -402.67293370922636 19.499999999999996
    vertex 116.48139251914061 -406.7729337092263 19.499999999999794
  endloop
endfacet
facet normal -4.979350265443827e-14 0.0 1.0
  outer loop
    vertex 116.48139251914061 -406.7729337092263 19.499999999999794
    vertex 120.5813925191406 -402.67293370922636 19.499999999999996
    vertex 116.62109663135544 -405.711775624306 19.4999999999998
  endloop
endfacet
facet normal -4.979350265443827e-14 0.0 1.0
  outer loop
    vertex 116.62109663135544 -405.711775624306 19.4999999999998
    vertex 120.5813925191406 -402.67293370922636 19.499999999999996
    vertex 117.03068836362442 -404.7229337092263 19.49999999999982
  endloop
endfacet
facet normal -4.979350265443827e-14 0.0 1.0
  outer loop
    vertex 117.03068836362442 -404.7229337092263 19.49999999999982
    vertex 120.5813925191406 -402.67293370922636 19.499999999999996
    vertex 117.68225471627576 -403.87379590636147 19.499999999999854
  endloop
endfacet
facet normal -4.979350265443827e-14 0.0 1.0
  outer loop
    vertex 117.68225471627576 -403.87379590636147 19.499999999999854
    vertex 120.5813925191406 -402.67293370922636 19.499999999999996
    vertex 118.53139251914061 -403.2222295537101 19.499999999999897
  endloop
endfacet
facet normal -4.979350265443827e-14 0.0 1.0
  outer loop
    vertex 118.53139251914061 -403.2222295537101 19.499999999999897
    vertex 120.5813925191406 -402.67293370922636 19.499999999999996
    vertex 119.52023443422027 -402.8126378214412 19.499999999999943
  endloop
endfacet
facet normal -0.6087614290087191 -0.7933533402912364 -3.011100307039768e-14
  outer loop
    vertex 117.33139251914196 -412.4020988338252 -7.500000000000181
    vertex 115.98519844142933 -411.3691277869389 -6.500000000000205
    vertex 115.98519844142939 -411.3691277869389 -7.500000000000249
  endloop
endfacet
facet normal -0.6087614290087191 -0.7933533402912364 -3.011100307039768e-14
  outer loop
    vertex 115.98519844142933 -411.3691277869389 -6.500000000000205
    vertex 117.33139251914196 -412.4020988338252 -7.500000000000181
    vertex 117.33139251914189 -412.4020988338252 -6.500000000000138
  endloop
endfacet
facet normal -0.9914448613738104 0.13052619222005282 -4.9267706170655205e-14
  outer loop
    vertex 114.30287464826301 -405.0906099160599 -7.500000000000333
    vertex 114.08139251914189 -406.7729337092263 -6.500000000000301
    vertex 114.30287464826294 -405.0906099160599 -6.5000000000002895
  endloop
endfacet
facet normal -0.9914448613738104 0.13052619222005282 -4.9267706170655205e-14
  outer loop
    vertex 114.08139251914189 -406.7729337092263 -6.500000000000301
    vertex 114.30287464826301 -405.0906099160599 -7.500000000000333
    vertex 114.08139251914196 -406.7729337092263 -7.500000000000345
  endloop
endfacet
facet normal -0.6087614290087191 0.7933533402912364 -3.0365454890738396e-14
  outer loop
    vertex 117.33139251914189 -401.1437685846274 -6.500000000000138
    vertex 115.98519844142939 -402.1767396315137 -7.500000000000249
    vertex 115.98519844142933 -402.1767396315137 -6.500000000000205
  endloop
endfacet
facet normal -0.6087614290087191 0.7933533402912364 -3.0365454890738396e-14
  outer loop
    vertex 115.98519844142939 -402.1767396315137 -7.500000000000249
    vertex 117.33139251914189 -401.1437685846274 -6.500000000000138
    vertex 117.33139251914196 -401.1437685846274 -7.500000000000181
  endloop
endfacet
facet normal -0.7933533402912364 -0.6087614290087191 -3.93096033628148e-14
  outer loop
    vertex 114.9522273945431 -410.02293370922627 -7.500000000000299
    vertex 115.98519844142933 -411.3691277869389 -6.500000000000205
    vertex 114.95222739454303 -410.02293370922627 -6.500000000000256
  endloop
endfacet
facet normal -0.7933533402912364 -0.6087614290087191 -3.93096033628148e-14
  outer loop
    vertex 115.98519844142933 -411.3691277869389 -6.500000000000205
    vertex 114.9522273945431 -410.02293370922627 -7.500000000000299
    vertex 115.98519844142939 -411.3691277869389 -7.500000000000249
  endloop
endfacet
facet normal -0.9238795325112876 0.3826834323650881 -4.595205701425736e-14
  outer loop
    vertex 114.9522273945431 -403.5229337092263 -7.500000000000299
    vertex 114.30287464826294 -405.0906099160599 -6.5000000000002895
    vertex 114.95222739454303 -403.5229337092263 -6.500000000000256
  endloop
endfacet
facet normal -0.9238795325112876 0.3826834323650881 -4.595205701425736e-14
  outer loop
    vertex 114.30287464826294 -405.0906099160599 -6.5000000000002895
    vertex 114.9522273945431 -403.5229337092263 -7.500000000000299
    vertex 114.30287464826301 -405.0906099160599 -7.500000000000333
  endloop
endfacet
facet normal -0.7933533402912364 0.6087614290087191 -3.95048511117026e-14
  outer loop
    vertex 115.98519844142939 -402.1767396315137 -7.500000000000249
    vertex 114.95222739454303 -403.5229337092263 -6.500000000000256
    vertex 115.98519844142933 -402.1767396315137 -6.500000000000205
  endloop
endfacet
facet normal -0.7933533402912364 0.6087614290087191 -3.95048511117026e-14
  outer loop
    vertex 114.95222739454303 -403.5229337092263 -6.500000000000256
    vertex 115.98519844142939 -402.1767396315137 -7.500000000000249
    vertex 114.9522273945431 -403.5229337092263 -7.500000000000299
  endloop
endfacet
facet normal -0.3826834323650857 -0.9238795325112884 -1.8860387679518316e-14
  outer loop
    vertex 118.89906872597558 -413.05145158010527 -7.500000000000102
    vertex 117.33139251914189 -412.4020988338252 -6.500000000000138
    vertex 117.33139251914196 -412.4020988338252 -7.500000000000181
  endloop
endfacet
facet normal -0.3826834323650857 -0.9238795325112884 -1.8860387679518316e-14
  outer loop
    vertex 117.33139251914189 -412.4020988338252 -6.500000000000138
    vertex 118.89906872597558 -413.05145158010527 -7.500000000000102
    vertex 118.89906872597551 -413.05145158010527 -6.500000000000059
  endloop
endfacet
facet normal -0.9238795325112876 -0.3826834323650881 -4.582931914824701e-14
  outer loop
    vertex 114.30287464826301 -408.45525750239267 -7.500000000000333
    vertex 114.95222739454303 -410.02293370922627 -6.500000000000256
    vertex 114.30287464826294 -408.45525750239267 -6.5000000000002895
  endloop
endfacet
facet normal -0.9238795325112876 -0.3826834323650881 -4.582931914824701e-14
  outer loop
    vertex 114.95222739454303 -410.02293370922627 -6.500000000000256
    vertex 114.30287464826301 -408.45525750239267 -7.500000000000333
    vertex 114.9522273945431 -410.02293370922627 -7.500000000000299
  endloop
endfacet
facet normal -0.9914448613738104 -0.13052619222005282 -4.9225842570256996e-14
  outer loop
    vertex 114.08139251914196 -406.7729337092263 -7.500000000000345
    vertex 114.30287464826294 -408.45525750239267 -6.5000000000002895
    vertex 114.08139251914189 -406.7729337092263 -6.500000000000301
  endloop
endfacet
facet normal -0.9914448613738104 -0.13052619222005282 -4.9225842570256996e-14
  outer loop
    vertex 114.30287464826294 -408.45525750239267 -6.5000000000002895
    vertex 114.08139251914196 -406.7729337092263 -7.500000000000345
    vertex 114.30287464826301 -408.45525750239267 -7.500000000000333
  endloop
endfacet
facet normal -0.13052619222005366 -0.9914448613738102 -6.324468036544523e-15
  outer loop
    vertex 120.58139251914196 -413.27293370922627 -7.500000000000023
    vertex 118.89906872597551 -413.05145158010527 -6.500000000000059
    vertex 118.89906872597558 -413.05145158010527 -7.500000000000102
  endloop
endfacet
facet normal -0.13052619222005366 -0.9914448613738102 -6.324468036544523e-15
  outer loop
    vertex 118.89906872597551 -413.05145158010527 -6.500000000000059
    vertex 120.58139251914196 -413.27293370922627 -7.500000000000023
    vertex 120.5813925191419 -413.27293370922627 -6.49999999999998
  endloop
endfacet
facet normal -0.13052619222005366 0.9914448613738102 -6.642453651442681e-15
  outer loop
    vertex 120.5813925191419 -400.2729337092263 -6.49999999999998
    vertex 118.89906872597558 -400.4944158383473 -7.500000000000102
    vertex 118.89906872597551 -400.4944158383473 -6.500000000000059
  endloop
endfacet
facet normal -0.13052619222005366 0.9914448613738102 -6.642453651442681e-15
  outer loop
    vertex 118.89906872597558 -400.4944158383473 -7.500000000000102
    vertex 120.5813925191419 -400.2729337092263 -6.49999999999998
    vertex 120.58139251914196 -400.2729337092263 -7.500000000000023
  endloop
endfacet
facet normal -0.3826834323650857 0.9238795325112884 -1.915670310025724e-14
  outer loop
    vertex 118.89906872597551 -400.4944158383473 -6.500000000000059
    vertex 117.33139251914196 -401.1437685846274 -7.500000000000181
    vertex 117.33139251914189 -401.1437685846274 -6.500000000000138
  endloop
endfacet
facet normal -0.3826834323650857 0.9238795325112884 -1.915670310025724e-14
  outer loop
    vertex 117.33139251914196 -401.1437685846274 -7.500000000000181
    vertex 118.89906872597551 -400.4944158383473 -6.500000000000059
    vertex 118.89906872597558 -400.4944158383473 -7.500000000000102
  endloop
endfacet
facet normal 4.989140157937739e-14 2.324144503777024e-16 -1.0
  outer loop
    vertex 120.58139251914196 -413.27293370922627 -7.500000000000023
    vertex 122.09918285380427 -413.61188857420575 -7.499999999999944
    vertex 120.58139251914194 -414.27293370922604 -7.500000000000023
  endloop
endfacet
facet normal 4.989140157937739e-14 2.324144503777024e-16 -1.0
  outer loop
    vertex 122.09918285380427 -413.61188857420575 -7.499999999999944
    vertex 120.58139251914196 -413.27293370922627 -7.500000000000023
    vertex 123.44494445170959 -412.6477340782202 -7.4999999999998765
  endloop
endfacet
facet normal 4.989140157937739e-14 2.324144503777024e-16 -1.0
  outer loop
    vertex 123.44494445170959 -412.6477340782202 -7.4999999999998765
    vertex 120.58139251914196 -413.27293370922627 -7.500000000000023
    vertex 118.89906872597558 -413.05145158010527 -7.500000000000102
  endloop
endfacet
facet normal 4.989140157937739e-14 2.324144503777024e-16 -1.0
  outer loop
    vertex 123.44494445170959 -412.6477340782202 -7.4999999999998765
    vertex 118.89906872597558 -413.05145158010527 -7.500000000000102
    vertex 117.33139251914196 -412.4020988338252 -7.500000000000181
  endloop
endfacet
facet normal 4.989140157937739e-14 2.324144503777024e-16 -1.0
  outer loop
    vertex 123.44494445170959 -412.6477340782202 -7.4999999999998765
    vertex 117.33139251914196 -412.4020988338252 -7.500000000000181
    vertex 124.55903180473454 -411.42320251866073 -7.49999999999982
  endloop
endfacet
facet normal 4.989140157937739e-14 2.324144503777024e-16 -1.0
  outer loop
    vertex 124.55903180473454 -411.42320251866073 -7.49999999999982
    vertex 117.33139251914196 -412.4020988338252 -7.500000000000181
    vertex 115.98519844142939 -411.3691277869389 -7.500000000000249
  endloop
endfacet
facet normal 4.989140157937739e-14 2.324144503777024e-16 -1.0
  outer loop
    vertex 124.55903180473454 -411.42320251866073 -7.49999999999982
    vertex 115.98519844142939 -411.3691277869389 -7.500000000000249
    vertex 125.3920674403994 -409.9925663663708 -7.499999999999781
  endloop
endfacet
facet normal 4.989140157937739e-14 2.324144503777024e-16 -1.0
  outer loop
    vertex 125.3920674403994 -409.9925663663708 -7.499999999999781
    vertex 115.98519844142939 -411.3691277869389 -7.500000000000249
    vertex 114.9522273945431 -410.02293370922627 -7.500000000000299
  endloop
endfacet
facet normal 4.989140157937739e-14 2.324144503777024e-16 -1.0
  outer loop
    vertex 125.3920674403994 -409.9925663663708 -7.499999999999781
    vertex 114.9522273945431 -410.02293370922627 -7.500000000000299
    vertex 114.30287464826301 -408.45525750239267 -7.500000000000333
  endloop
endfacet
facet normal 4.989140157937739e-14 2.324144503777024e-16 -1.0
  outer loop
    vertex 125.3920674403994 -409.9925663663708 -7.499999999999781
    vertex 114.30287464826301 -408.45525750239267 -7.500000000000333
    vertex 125.90713038113161 -408.41923285512377 -7.4999999999997575
  endloop
endfacet
facet normal 4.989140157937739e-14 2.324144503777024e-16 -1.0
  outer loop
    vertex 125.90713038113161 -408.41923285512377 -7.4999999999997575
    vertex 114.30287464826301 -408.45525750239267 -7.500000000000333
    vertex 114.08139251914196 -406.7729337092263 -7.500000000000345
  endloop
endfacet
facet normal 4.989140157937739e-14 2.324144503777024e-16 -1.0
  outer loop
    vertex 125.90713038113161 -408.41923285512377 -7.4999999999997575
    vertex 114.08139251914196 -406.7729337092263 -7.500000000000345
    vertex 126.08139251914203 -406.77293370922615 -7.499999999999747
  endloop
endfacet
facet normal 4.989140157937739e-14 2.324144503777024e-16 -1.0
  outer loop
    vertex 126.08139251914203 -406.77293370922615 -7.499999999999747
    vertex 114.08139251914196 -406.7729337092263 -7.500000000000345
    vertex 114.30287464826301 -405.0906099160599 -7.500000000000333
  endloop
endfacet
facet normal 4.989140157937739e-14 2.324144503777024e-16 -1.0
  outer loop
    vertex 126.08139251914203 -406.77293370922615 -7.499999999999747
    vertex 114.30287464826301 -405.0906099160599 -7.500000000000333
    vertex 125.90713038113161 -405.1266345633285 -7.4999999999997575
  endloop
endfacet
facet normal 4.989140157937739e-14 2.324144503777024e-16 -1.0
  outer loop
    vertex 125.90713038113161 -405.1266345633285 -7.4999999999997575
    vertex 114.30287464826301 -405.0906099160599 -7.500000000000333
    vertex 125.3920674403994 -403.5533010520822 -7.499999999999781
  endloop
endfacet
facet normal 4.989140157937739e-14 2.324144503777024e-16 -1.0
  outer loop
    vertex 125.3920674403994 -403.5533010520822 -7.499999999999781
    vertex 114.30287464826301 -405.0906099160599 -7.500000000000333
    vertex 114.9522273945431 -403.5229337092263 -7.500000000000299
  endloop
endfacet
facet normal 4.989140157937739e-14 2.324144503777024e-16 -1.0
  outer loop
    vertex 125.3920674403994 -403.5533010520822 -7.499999999999781
    vertex 114.9522273945431 -403.5229337092263 -7.500000000000299
    vertex 124.55903180473457 -402.12266489979146 -7.49999999999982
  endloop
endfacet
facet normal 4.989140157937739e-14 2.324144503777024e-16 -1.0
  outer loop
    vertex 124.55903180473457 -402.12266489979146 -7.49999999999982
    vertex 114.9522273945431 -403.5229337092263 -7.500000000000299
    vertex 115.98519844142939 -402.1767396315137 -7.500000000000249
  endloop
endfacet
facet normal 4.989140157937739e-14 2.324144503777024e-16 -1.0
  outer loop
    vertex 124.55903180473457 -402.12266489979146 -7.49999999999982
    vertex 115.98519844142939 -402.1767396315137 -7.500000000000249
    vertex 117.33139251914196 -401.1437685846274 -7.500000000000181
  endloop
endfacet
facet normal 4.989140157937739e-14 2.324144503777024e-16 -1.0
  outer loop
    vertex 124.55903180473457 -402.12266489979146 -7.49999999999982
    vertex 117.33139251914196 -401.1437685846274 -7.500000000000181
    vertex 123.44494445170962 -400.89813334023205 -7.499999999999831
  endloop
endfacet
facet normal 4.989140157937739e-14 2.324144503777024e-16 -1.0
  outer loop
    vertex 123.44494445170962 -400.89813334023205 -7.499999999999831
    vertex 117.33139251914196 -401.1437685846274 -7.500000000000181
    vertex 118.89906872597558 -400.4944158383473 -7.500000000000102
  endloop
endfacet
facet normal 4.989140157937739e-14 2.324144503777024e-16 -1.0
  outer loop
    vertex 123.44494445170962 -400.89813334023205 -7.499999999999831
    vertex 118.89906872597558 -400.4944158383473 -7.500000000000102
    vertex 120.58139251914196 -400.2729337092263 -7.500000000000023
  endloop
endfacet
facet normal 4.989140157937739e-14 2.324144503777024e-16 -1.0
  outer loop
    vertex 123.44494445170962 -400.89813334023205 -7.499999999999831
    vertex 120.58139251914196 -400.2729337092263 -7.500000000000023
    vertex 122.0991828538043 -399.933978844245 -7.499999999999944
  endloop
endfacet
facet normal 4.989140157937739e-14 2.324144503777024e-16 -1.0
  outer loop
    vertex 122.0991828538043 -399.933978844245 -7.499999999999944
    vertex 120.58139251914196 -400.2729337092263 -7.500000000000023
    vertex 120.58139251914196 -399.2729337092262 -7.500000000000023
  endloop
endfacet
facet normal -1.0 7.749909209154506e-15 -5.0159263703777364e-14
  outer loop
    vertex 120.5813925191419 -411.5729337092263 -6.49999999999998
    vertex 120.58139251914059 -414.2729337092262 19.499999999999996
    vertex 120.5813925191406 -411.5729337092263 19.499999999999996
  endloop
endfacet
facet normal -1.0 7.749909209154506e-15 -5.0159263703777364e-14
  outer loop
    vertex 120.58139251914059 -414.2729337092262 19.499999999999996
    vertex 120.5813925191419 -411.5729337092263 -6.49999999999998
    vertex 120.5813925191419 -413.27293370922627 -6.49999999999998
  endloop
endfacet
facet normal -1.0 7.749909209154506e-15 -5.0159263703777364e-14
  outer loop
    vertex 120.58139251914059 -414.2729337092262 19.499999999999996
    vertex 120.5813925191419 -413.27293370922627 -6.49999999999998
    vertex 120.58139251914194 -414.27293370922604 -7.500000000000023
  endloop
endfacet
facet normal -1.0 7.749909209154506e-15 -5.0159263703777364e-14
  outer loop
    vertex 120.58139251914194 -414.27293370922604 -7.500000000000023
    vertex 120.5813925191419 -413.27293370922627 -6.49999999999998
    vertex 120.58139251914196 -413.27293370922627 -7.500000000000023
  endloop
endfacet
facet normal -4.979350265443827e-14 0.0 1.0
  outer loop
    vertex 123.28139251914189 -404.7729337092263 -6.499999999999845
    vertex 121.28139251914189 -408.7729337092263 -6.4999999999999405
    vertex 123.28139251914189 -408.7729337092263 -6.499999999999845
  endloop
endfacet
facet normal -4.979350265443827e-14 0.0 1.0
  outer loop
    vertex 121.28139251914189 -408.7729337092263 -6.4999999999999405
    vertex 120.5813925191419 -411.5729337092263 -6.49999999999998
    vertex 121.28139251914189 -411.5729337092263 -6.4999999999999405
  endloop
endfacet
facet normal -4.979350265443827e-14 0.0 1.0
  outer loop
    vertex 120.5813925191419 -411.5729337092263 -6.49999999999998
    vertex 121.28139251914189 -408.7729337092263 -6.4999999999999405
    vertex 120.5813925191419 -410.8729337092263 -6.49999999999998
  endloop
endfacet
facet normal -4.979350265443827e-14 0.0 1.0
  outer loop
    vertex 120.5813925191419 -411.5729337092263 -6.49999999999998
    vertex 120.5813925191419 -410.8729337092263 -6.49999999999998
    vertex 115.98519844142933 -411.3691277869389 -6.500000000000205
  endloop
endfacet
facet normal -4.979350265443827e-14 0.0 1.0
  outer loop
    vertex 120.5813925191419 -410.8729337092263 -6.49999999999998
    vertex 121.28139251914189 -408.7729337092263 -6.4999999999999405
    vertex 120.5813925191419 -402.67293370922636 -6.49999999999998
  endloop
endfacet
facet normal -4.979350265443827e-14 0.0 1.0
  outer loop
    vertex 120.5813925191419 -402.67293370922636 -6.49999999999998
    vertex 121.28139251914189 -408.7729337092263 -6.4999999999999405
    vertex 121.28139251914189 -404.7729337092263 -6.4999999999999405
  endloop
endfacet
facet normal -4.979350265443827e-14 0.0 1.0
  outer loop
    vertex 121.28139251914189 -404.7729337092263 -6.4999999999999405
    vertex 121.28139251914189 -408.7729337092263 -6.4999999999999405
    vertex 123.28139251914189 -404.7729337092263 -6.499999999999845
  endloop
endfacet
facet normal -4.979350265443827e-14 0.0 1.0
  outer loop
    vertex 120.5813925191419 -402.67293370922636 -6.49999999999998
    vertex 121.28139251914189 -404.7729337092263 -6.4999999999999405
    vertex 121.28139251914189 -401.9729337092263 -6.4999999999999405
  endloop
endfacet
facet normal -4.979350265443827e-14 0.0 1.0
  outer loop
    vertex 120.5813925191419 -402.67293370922636 -6.49999999999998
    vertex 121.28139251914189 -401.9729337092263 -6.4999999999999405
    vertex 115.98519844142933 -402.1767396315137 -6.500000000000205
  endloop
endfacet
facet normal -4.979350265443827e-14 0.0 1.0
  outer loop
    vertex 115.98519844142933 -402.1767396315137 -6.500000000000205
    vertex 121.28139251914189 -401.9729337092263 -6.4999999999999405
    vertex 120.5813925191419 -401.9729337092263 -6.49999999999998
  endloop
endfacet
facet normal -4.979350265443827e-14 0.0 1.0
  outer loop
    vertex 115.98519844142933 -402.1767396315137 -6.500000000000205
    vertex 120.5813925191419 -401.9729337092263 -6.49999999999998
    vertex 117.33139251914189 -401.1437685846274 -6.500000000000138
  endloop
endfacet
facet normal -4.979350265443827e-14 0.0 1.0
  outer loop
    vertex 117.33139251914189 -401.1437685846274 -6.500000000000138
    vertex 120.5813925191419 -401.9729337092263 -6.49999999999998
    vertex 120.5813925191419 -400.2729337092263 -6.49999999999998
  endloop
endfacet
facet normal -4.979350265443827e-14 0.0 1.0
  outer loop
    vertex 117.33139251914189 -401.1437685846274 -6.500000000000138
    vertex 120.5813925191419 -400.2729337092263 -6.49999999999998
    vertex 118.89906872597551 -400.4944158383473 -6.500000000000059
  endloop
endfacet
facet normal -4.979350265443827e-14 0.0 1.0
  outer loop
    vertex 115.98519844142933 -411.3691277869389 -6.500000000000205
    vertex 119.52023443422158 -410.73322959701153 -6.50000000000003
    vertex 114.95222739454303 -410.02293370922627 -6.500000000000256
  endloop
endfacet
facet normal -4.979350265443827e-14 0.0 1.0
  outer loop
    vertex 119.52023443422158 -410.73322959701153 -6.50000000000003
    vertex 115.98519844142933 -411.3691277869389 -6.500000000000205
    vertex 120.5813925191419 -410.8729337092263 -6.49999999999998
  endloop
endfacet
facet normal -4.979350265443827e-14 0.0 1.0
  outer loop
    vertex 114.95222739454303 -410.02293370922627 -6.500000000000256
    vertex 119.52023443422158 -410.73322959701153 -6.50000000000003
    vertex 118.53139251914192 -410.3236378647425 -6.500000000000081
  endloop
endfacet
facet normal -4.979350265443827e-14 0.0 1.0
  outer loop
    vertex 114.95222739454303 -410.02293370922627 -6.500000000000256
    vertex 118.53139251914192 -410.3236378647425 -6.500000000000081
    vertex 117.68225471627706 -409.6720715120911 -6.500000000000121
  endloop
endfacet
facet normal -4.979350265443827e-14 0.0 1.0
  outer loop
    vertex 114.95222739454303 -410.02293370922627 -6.500000000000256
    vertex 117.68225471627706 -409.6720715120911 -6.500000000000121
    vertex 114.30287464826294 -408.45525750239267 -6.5000000000002895
  endloop
endfacet
facet normal -4.979350265443827e-14 0.0 1.0
  outer loop
    vertex 114.30287464826294 -408.45525750239267 -6.5000000000002895
    vertex 117.68225471627706 -409.6720715120911 -6.500000000000121
    vertex 117.0306883636257 -408.8229337092263 -6.5000000000001545
  endloop
endfacet
facet normal -4.979350265443827e-14 0.0 1.0
  outer loop
    vertex 114.30287464826294 -408.45525750239267 -6.5000000000002895
    vertex 117.0306883636257 -408.8229337092263 -6.5000000000001545
    vertex 116.62109663135674 -407.8340917941466 -6.500000000000177
  endloop
endfacet
facet normal -4.979350265443827e-14 0.0 1.0
  outer loop
    vertex 114.30287464826294 -408.45525750239267 -6.5000000000002895
    vertex 116.62109663135674 -407.8340917941466 -6.500000000000177
    vertex 114.08139251914189 -406.7729337092263 -6.500000000000301
  endloop
endfacet
facet normal -4.979350265443827e-14 0.0 1.0
  outer loop
    vertex 114.08139251914189 -406.7729337092263 -6.500000000000301
    vertex 116.62109663135674 -407.8340917941466 -6.500000000000177
    vertex 116.4813925191419 -406.7729337092263 -6.500000000000183
  endloop
endfacet
facet normal -4.979350265443827e-14 0.0 1.0
  outer loop
    vertex 114.08139251914189 -406.7729337092263 -6.500000000000301
    vertex 116.4813925191419 -406.7729337092263 -6.500000000000183
    vertex 116.62109663135674 -405.711775624306 -6.500000000000177
  endloop
endfacet
facet normal -4.979350265443827e-14 0.0 1.0
  outer loop
    vertex 114.08139251914189 -406.7729337092263 -6.500000000000301
    vertex 116.62109663135674 -405.711775624306 -6.500000000000177
    vertex 114.30287464826294 -405.0906099160599 -6.5000000000002895
  endloop
endfacet
facet normal -4.979350265443827e-14 0.0 1.0
  outer loop
    vertex 114.30287464826294 -405.0906099160599 -6.5000000000002895
    vertex 116.62109663135674 -405.711775624306 -6.500000000000177
    vertex 117.0306883636257 -404.7229337092263 -6.5000000000001545
  endloop
endfacet
facet normal -4.979350265443827e-14 0.0 1.0
  outer loop
    vertex 114.30287464826294 -405.0906099160599 -6.5000000000002895
    vertex 117.0306883636257 -404.7229337092263 -6.5000000000001545
    vertex 114.95222739454303 -403.5229337092263 -6.500000000000256
  endloop
endfacet
facet normal -4.979350265443827e-14 0.0 1.0
  outer loop
    vertex 114.95222739454303 -403.5229337092263 -6.500000000000256
    vertex 117.0306883636257 -404.7229337092263 -6.5000000000001545
    vertex 117.68225471627706 -403.87379590636147 -6.500000000000121
  endloop
endfacet
facet normal -4.979350265443827e-14 0.0 1.0
  outer loop
    vertex 114.95222739454303 -403.5229337092263 -6.500000000000256
    vertex 117.68225471627706 -403.87379590636147 -6.500000000000121
    vertex 118.53139251914189 -403.2222295537101 -6.500000000000081
  endloop
endfacet
facet normal -4.979350265443827e-14 0.0 1.0
  outer loop
    vertex 114.95222739454303 -403.5229337092263 -6.500000000000256
    vertex 118.53139251914189 -403.2222295537101 -6.500000000000081
    vertex 115.98519844142933 -402.1767396315137 -6.500000000000205
  endloop
endfacet
facet normal -4.979350265443827e-14 0.0 1.0
  outer loop
    vertex 115.98519844142933 -402.1767396315137 -6.500000000000205
    vertex 118.53139251914189 -403.2222295537101 -6.500000000000081
    vertex 119.52023443422155 -402.8126378214412 -6.50000000000003
  endloop
endfacet
facet normal -4.979350265443827e-14 0.0 1.0
  outer loop
    vertex 115.98519844142933 -402.1767396315137 -6.500000000000205
    vertex 119.52023443422155 -402.8126378214412 -6.50000000000003
    vertex 120.5813925191419 -402.67293370922636 -6.49999999999998
  endloop
endfacet
facet normal -4.979350265443827e-14 0.0 1.0
  outer loop
    vertex 120.5813925191419 -411.5729337092263 -6.49999999999998
    vertex 118.89906872597551 -413.05145158010527 -6.500000000000059
    vertex 120.5813925191419 -413.27293370922627 -6.49999999999998
  endloop
endfacet
facet normal -4.979350265443827e-14 0.0 1.0
  outer loop
    vertex 118.89906872597551 -413.05145158010527 -6.500000000000059
    vertex 120.5813925191419 -411.5729337092263 -6.49999999999998
    vertex 117.33139251914189 -412.4020988338252 -6.500000000000138
  endloop
endfacet
facet normal -4.979350265443827e-14 0.0 1.0
  outer loop
    vertex 117.33139251914189 -412.4020988338252 -6.500000000000138
    vertex 120.5813925191419 -411.5729337092263 -6.49999999999998
    vertex 115.98519844142933 -411.3691277869389 -6.500000000000205
  endloop
endfacet
facet normal -1.0 0.0 -4.979350265443827e-14
  outer loop
    vertex 120.5813925191419 -401.9729337092263 -6.49999999999998
    vertex 120.5813925191406 -401.9729337092263 19.499999999999996
    vertex 120.5813925191419 -400.2729337092263 -6.49999999999998
  endloop
endfacet
facet normal -1.0 0.0 -4.979350265443827e-14
  outer loop
    vertex 120.58139251914196 -399.2729337092262 -7.500000000000023
    vertex 120.5813925191406 -401.9729337092263 19.499999999999996
    vertex 120.5813925191406 -399.2729337092264 19.499999999999996
  endloop
endfacet
facet normal -1.0 0.0 -4.979350265443827e-14
  outer loop
    vertex 120.5813925191406 -401.9729337092263 19.499999999999996
    vertex 120.58139251914196 -399.2729337092262 -7.500000000000023
    vertex 120.5813925191419 -400.2729337092263 -6.49999999999998
  endloop
endfacet
facet normal -1.0 0.0 -4.979350265443827e-14
  outer loop
    vertex 120.5813925191419 -400.2729337092263 -6.49999999999998
    vertex 120.58139251914196 -399.2729337092262 -7.500000000000023
    vertex 120.58139251914196 -400.2729337092263 -7.500000000000023
  endloop
endfacet
facet normal -0.9914448613738096 -0.1305261922200587 -4.9367512336545974e-14
  outer loop
    vertex 116.4813925191419 -406.7729337092263 -6.500000000000183
    vertex 116.62109663135544 -407.8340917941466 19.4999999999998
    vertex 116.48139251914061 -406.7729337092263 19.499999999999794
  endloop
endfacet
facet normal -0.9914448613738096 -0.1305261922200587 -4.9367512336545974e-14
  outer loop
    vertex 116.62109663135544 -407.8340917941466 19.4999999999998
    vertex 116.4813925191419 -406.7729337092263 -6.500000000000183
    vertex 116.62109663135674 -407.8340917941466 -6.500000000000177
  endloop
endfacet
facet normal -0.3826834323650934 0.9238795325112854 -1.9055148505280826e-14
  outer loop
    vertex 119.52023443422027 -402.8126378214412 19.499999999999943
    vertex 118.53139251914189 -403.2222295537101 -6.500000000000081
    vertex 118.53139251914061 -403.2222295537101 19.499999999999897
  endloop
endfacet
facet normal -0.3826834323650934 0.9238795325112854 -1.9055148505280826e-14
  outer loop
    vertex 118.53139251914189 -403.2222295537101 -6.500000000000081
    vertex 119.52023443422027 -402.8126378214412 19.499999999999943
    vertex 119.52023443422155 -402.8126378214412 -6.50000000000003
  endloop
endfacet
facet normal -5.059199216608937e-14 -2.1949848614641077e-16 1.0
  outer loop
    vertex 125.90713038113024 -408.41923285512394 19.500000000000263
    vertex 123.28139251914061 -408.7729337092263 19.50000000000013
    vertex 125.39206744039805 -409.992566366371 19.500000000000238
  endloop
endfacet
facet normal -5.059199216608937e-14 -2.1949848614641077e-16 1.0
  outer loop
    vertex 123.28139251914061 -408.7729337092263 19.50000000000013
    vertex 125.90713038113024 -408.41923285512394 19.500000000000263
    vertex 123.28139251914061 -404.7729337092263 19.50000000000013
  endloop
endfacet
facet normal -5.059199216608937e-14 -2.1949848614641077e-16 1.0
  outer loop
    vertex 123.28139251914061 -404.7729337092263 19.50000000000013
    vertex 125.90713038113024 -408.41923285512394 19.500000000000263
    vertex 126.08139251914066 -406.7729337092263 19.50000000000027
  endloop
endfacet
facet normal -5.059199216608937e-14 -2.1949848614641077e-16 1.0
  outer loop
    vertex 123.28139251914061 -404.7729337092263 19.50000000000013
    vertex 126.08139251914066 -406.7729337092263 19.50000000000027
    vertex 125.90713038113024 -405.12663456332865 19.500000000000263
  endloop
endfacet
facet normal -5.059199216608937e-14 -2.1949848614641077e-16 1.0
  outer loop
    vertex 123.28139251914061 -404.7729337092263 19.50000000000013
    vertex 125.90713038113024 -405.12663456332865 19.500000000000263
    vertex 125.39206744039805 -403.55330105208236 19.500000000000238
  endloop
endfacet
facet normal -5.059199216608937e-14 -2.1949848614641077e-16 1.0
  outer loop
    vertex 123.28139251914061 -404.7729337092263 19.50000000000013
    vertex 125.39206744039805 -403.55330105208236 19.500000000000238
    vertex 121.28139251914061 -404.7729337092263 19.500000000000032
  endloop
endfacet
facet normal -5.059199216608937e-14 -2.1949848614641077e-16 1.0
  outer loop
    vertex 121.28139251914061 -404.7729337092263 19.500000000000032
    vertex 125.39206744039805 -403.55330105208236 19.500000000000238
    vertex 121.28139251914061 -401.9729337092263 19.500000000000032
  endloop
endfacet
facet normal -5.059199216608937e-14 -2.1949848614641077e-16 1.0
  outer loop
    vertex 121.28139251914061 -401.9729337092263 19.500000000000032
    vertex 125.39206744039805 -403.55330105208236 19.500000000000238
    vertex 124.55903180473331 -402.1226648997917 19.500000000000195
  endloop
endfacet
facet normal -5.059199216608937e-14 -2.1949848614641077e-16 1.0
  outer loop
    vertex 121.28139251914061 -401.9729337092263 19.500000000000032
    vertex 124.55903180473331 -402.1226648997917 19.500000000000195
    vertex 123.56986871829046 -401.03544187943197 19.500000000000192
  endloop
endfacet
facet normal -5.059199216608937e-14 -2.1949848614641077e-16 1.0
  outer loop
    vertex 121.28139251914061 -401.9729337092263 19.500000000000032
    vertex 123.56986871829046 -401.03544187943197 19.500000000000192
    vertex 120.5813925191406 -401.9729337092263 19.499999999999996
  endloop
endfacet
facet normal -5.059199216608937e-14 -2.1949848614641077e-16 1.0
  outer loop
    vertex 120.5813925191406 -401.9729337092263 19.499999999999996
    vertex 123.56986871829046 -401.03544187943197 19.500000000000192
    vertex 120.5813925191406 -399.2729337092264 19.499999999999996
  endloop
endfacet
facet normal -5.059199216608937e-14 -2.1949848614641077e-16 1.0
  outer loop
    vertex 120.5813925191406 -399.2729337092264 19.499999999999996
    vertex 123.56986871829046 -401.03544187943197 19.500000000000192
    vertex 123.44494445170827 -400.8981333402323 19.500000000000185
  endloop
endfacet
facet normal -5.059199216608937e-14 -2.1949848614641077e-16 1.0
  outer loop
    vertex 120.5813925191406 -399.2729337092264 19.499999999999996
    vertex 123.44494445170827 -400.8981333402323 19.500000000000185
    vertex 122.09918285380293 -399.93397884424525 19.500000000000075
  endloop
endfacet
facet normal -5.059199216608937e-14 -2.1949848614641077e-16 1.0
  outer loop
    vertex 124.55903180473328 -411.42320251866096 19.500000000000195
    vertex 121.28139251914061 -411.5729337092263 19.500000000000032
    vertex 123.56986871829045 -412.5104255390207 19.50000000000015
  endloop
endfacet
facet normal -5.059199216608937e-14 -2.1949848614641077e-16 1.0
  outer loop
    vertex 121.28139251914061 -411.5729337092263 19.500000000000032
    vertex 124.55903180473328 -411.42320251866096 19.500000000000195
    vertex 121.28139251914061 -408.7729337092263 19.500000000000032
  endloop
endfacet
facet normal -5.059199216608937e-14 -2.1949848614641077e-16 1.0
  outer loop
    vertex 121.28139251914061 -408.7729337092263 19.500000000000032
    vertex 124.55903180473328 -411.42320251866096 19.500000000000195
    vertex 125.39206744039805 -409.992566366371 19.500000000000238
  endloop
endfacet
facet normal -5.059199216608937e-14 -2.1949848614641077e-16 1.0
  outer loop
    vertex 121.28139251914061 -408.7729337092263 19.500000000000032
    vertex 125.39206744039805 -409.992566366371 19.500000000000238
    vertex 123.28139251914061 -408.7729337092263 19.50000000000013
  endloop
endfacet
facet normal -5.059199216608937e-14 -2.1949848614641077e-16 1.0
  outer loop
    vertex 122.09918285380292 -413.6118885742059 19.500000000000075
    vertex 120.5813925191406 -411.5729337092263 19.499999999999996
    vertex 120.58139251914059 -414.2729337092262 19.499999999999996
  endloop
endfacet
facet normal -5.059199216608937e-14 -2.1949848614641077e-16 1.0
  outer loop
    vertex 120.5813925191406 -411.5729337092263 19.499999999999996
    vertex 122.09918285380292 -413.6118885742059 19.500000000000075
    vertex 123.44494445170824 -412.64773407822037 19.50000000000014
  endloop
endfacet
facet normal -5.059199216608937e-14 -2.1949848614641077e-16 1.0
  outer loop
    vertex 120.5813925191406 -411.5729337092263 19.499999999999996
    vertex 123.44494445170824 -412.64773407822037 19.50000000000014
    vertex 123.56986871829045 -412.5104255390207 19.50000000000015
  endloop
endfacet
facet normal -5.059199216608937e-14 -2.1949848614641077e-16 1.0
  outer loop
    vertex 120.5813925191406 -411.5729337092263 19.499999999999996
    vertex 123.56986871829045 -412.5104255390207 19.50000000000015
    vertex 121.28139251914061 -411.5729337092263 19.500000000000032
  endloop
endfacet
facet normal 1.0 0.0 4.979350265443827e-14
  outer loop
    vertex 120.5813925191419 -410.8729337092263 -6.49999999999998
    vertex 120.5813925191406 -402.67293370922636 19.499999999999996
    vertex 120.5813925191406 -410.8729337092263 19.499999999999996
  endloop
endfacet
facet normal 1.0 0.0 4.979350265443827e-14
  outer loop
    vertex 120.5813925191406 -402.67293370922636 19.499999999999996
    vertex 120.5813925191419 -410.8729337092263 -6.49999999999998
    vertex 120.5813925191419 -402.67293370922636 -6.49999999999998
  endloop
endfacet
facet normal -0.130526192220047 0.9914448613738112 -6.499356298782629e-15
  outer loop
    vertex 120.5813925191406 -402.67293370922636 19.499999999999996
    vertex 119.52023443422155 -402.8126378214412 -6.50000000000003
    vertex 119.52023443422027 -402.8126378214412 19.499999999999943
  endloop
endfacet
facet normal -0.130526192220047 0.9914448613738112 -6.499356298782629e-15
  outer loop
    vertex 119.52023443422155 -402.8126378214412 -6.50000000000003
    vertex 120.5813925191406 -402.67293370922636 19.499999999999996
    vertex 120.5813925191419 -402.67293370922636 -6.49999999999998
  endloop
endfacet
facet normal 0.0 1.0 0.0
  outer loop
    vertex 121.28139251914061 -411.5729337092263 19.500000000000032
    vertex 120.5813925191419 -411.5729337092263 -6.49999999999998
    vertex 120.5813925191406 -411.5729337092263 19.499999999999996
  endloop
endfacet
facet normal 0.0 1.0 0.0
  outer loop
    vertex 120.5813925191419 -411.5729337092263 -6.49999999999998
    vertex 121.28139251914061 -411.5729337092263 19.500000000000032
    vertex 121.28139251914189 -411.5729337092263 -6.4999999999999405
  endloop
endfacet
facet normal -1.0 0.0 -4.979350265443827e-14
  outer loop
    vertex 121.28139251914189 -408.7729337092263 -6.4999999999999405
    vertex 121.28139251914061 -411.5729337092263 19.500000000000032
    vertex 121.28139251914061 -408.7729337092263 19.500000000000032
  endloop
endfacet
facet normal -1.0 0.0 -4.979350265443827e-14
  outer loop
    vertex 121.28139251914061 -411.5729337092263 19.500000000000032
    vertex 121.28139251914189 -408.7729337092263 -6.4999999999999405
    vertex 121.28139251914189 -411.5729337092263 -6.4999999999999405
  endloop
endfacet
facet normal 0.0 1.0 0.0
  outer loop
    vertex 123.28139251914061 -408.7729337092263 19.50000000000013
    vertex 121.28139251914189 -408.7729337092263 -6.4999999999999405
    vertex 121.28139251914061 -408.7729337092263 19.500000000000032
  endloop
endfacet
facet normal 0.0 1.0 0.0
  outer loop
    vertex 121.28139251914189 -408.7729337092263 -6.4999999999999405
    vertex 123.28139251914061 -408.7729337092263 19.50000000000013
    vertex 123.28139251914189 -408.7729337092263 -6.499999999999845
  endloop
endfacet
facet normal -1.0 0.0 -4.979350265443827e-14
  outer loop
    vertex 123.28139251914189 -404.7729337092263 -6.499999999999845
    vertex 123.28139251914061 -408.7729337092263 19.50000000000013
    vertex 123.28139251914061 -404.7729337092263 19.50000000000013
  endloop
endfacet
facet normal -1.0 0.0 -4.979350265443827e-14
  outer loop
    vertex 123.28139251914061 -408.7729337092263 19.50000000000013
    vertex 123.28139251914189 -404.7729337092263 -6.499999999999845
    vertex 123.28139251914189 -408.7729337092263 -6.499999999999845
  endloop
endfacet
facet normal -0.7933533402912385 0.6087614290087164 -3.950384165569925e-14
  outer loop
    vertex 117.68225471627706 -403.87379590636147 -6.500000000000121
    vertex 117.03068836362442 -404.7229337092263 19.49999999999982
    vertex 117.68225471627576 -403.87379590636147 19.499999999999854
  endloop
endfacet
facet normal -0.7933533402912385 0.6087614290087164 -3.950384165569925e-14
  outer loop
    vertex 117.03068836362442 -404.7229337092263 19.49999999999982
    vertex 117.68225471627706 -403.87379590636147 -6.500000000000121
    vertex 117.0306883636257 -404.7229337092263 -6.5000000000001545
  endloop
endfacet
facet normal -0.6087614290087215 0.7933533402912346 -3.031236383126541e-14
  outer loop
    vertex 118.53139251914061 -403.2222295537101 19.499999999999897
    vertex 117.68225471627706 -403.87379590636147 -6.500000000000121
    vertex 117.68225471627576 -403.87379590636147 19.499999999999854
  endloop
endfacet
facet normal -0.6087614290087215 0.7933533402912346 -3.031236383126541e-14
  outer loop
    vertex 117.68225471627706 -403.87379590636147 -6.500000000000121
    vertex 118.53139251914061 -403.2222295537101 19.499999999999897
    vertex 118.53139251914189 -403.2222295537101 -6.500000000000081
  endloop
endfacet
facet normal 0.0 -1.0 0.0
  outer loop
    vertex 121.28139251914189 -401.9729337092263 -6.4999999999999405
    vertex 120.5813925191406 -401.9729337092263 19.499999999999996
    vertex 120.5813925191419 -401.9729337092263 -6.49999999999998
  endloop
endfacet
facet normal 0.0 -1.0 0.0
  outer loop
    vertex 120.5813925191406 -401.9729337092263 19.499999999999996
    vertex 121.28139251914189 -401.9729337092263 -6.4999999999999405
    vertex 121.28139251914061 -401.9729337092263 19.500000000000032
  endloop
endfacet
facet normal -0.9914448613738096 0.1305261922200587 -4.9367512336545974e-14
  outer loop
    vertex 116.62109663135674 -405.711775624306 -6.500000000000177
    vertex 116.48139251914061 -406.7729337092263 19.499999999999794
    vertex 116.62109663135544 -405.711775624306 19.4999999999998
  endloop
endfacet
facet normal -0.9914448613738096 0.1305261922200587 -4.9367512336545974e-14
  outer loop
    vertex 116.48139251914061 -406.7729337092263 19.499999999999794
    vertex 116.62109663135674 -405.711775624306 -6.500000000000177
    vertex 116.4813925191419 -406.7729337092263 -6.500000000000183
  endloop
endfacet
facet normal -0.9238795325112892 0.38268343236508445 -4.600319795448207e-14
  outer loop
    vertex 117.0306883636257 -404.7229337092263 -6.5000000000001545
    vertex 116.62109663135544 -405.711775624306 19.4999999999998
    vertex 117.03068836362442 -404.7229337092263 19.49999999999982
  endloop
endfacet
facet normal -0.9238795325112892 0.38268343236508445 -4.600319795448207e-14
  outer loop
    vertex 116.62109663135544 -405.711775624306 19.4999999999998
    vertex 117.0306883636257 -404.7229337092263 -6.5000000000001545
    vertex 116.62109663135674 -405.711775624306 -6.500000000000177
  endloop
endfacet
facet normal -0.3826834323650934 -0.9238795325112854 -1.9055148505280826e-14
  outer loop
    vertex 119.52023443422158 -410.73322959701153 -6.50000000000003
    vertex 118.53139251914062 -410.3236378647425 19.499999999999897
    vertex 118.53139251914192 -410.3236378647425 -6.500000000000081
  endloop
endfacet
facet normal -0.3826834323650934 -0.9238795325112854 -1.9055148505280826e-14
  outer loop
    vertex 118.53139251914062 -410.3236378647425 19.499999999999897
    vertex 119.52023443422158 -410.73322959701153 -6.50000000000003
    vertex 119.52023443422028 -410.73322959701153 19.499999999999943
  endloop
endfacet
facet normal -0.7933533402912385 -0.6087614290087164 -3.950384165569925e-14
  outer loop
    vertex 117.0306883636257 -408.8229337092263 -6.5000000000001545
    vertex 117.68225471627576 -409.6720715120911 19.499999999999854
    vertex 117.03068836362442 -408.8229337092263 19.49999999999982
  endloop
endfacet
facet normal -0.7933533402912385 -0.6087614290087164 -3.950384165569925e-14
  outer loop
    vertex 117.68225471627576 -409.6720715120911 19.499999999999854
    vertex 117.0306883636257 -408.8229337092263 -6.5000000000001545
    vertex 117.68225471627706 -409.6720715120911 -6.500000000000121
  endloop
endfacet
facet normal -1.0 0.0 -4.979350265443827e-14
  outer loop
    vertex 121.28139251914189 -401.9729337092263 -6.4999999999999405
    vertex 121.28139251914061 -404.7729337092263 19.500000000000032
    vertex 121.28139251914061 -401.9729337092263 19.500000000000032
  endloop
endfacet
facet normal -1.0 0.0 -4.979350265443827e-14
  outer loop
    vertex 121.28139251914061 -404.7729337092263 19.500000000000032
    vertex 121.28139251914189 -401.9729337092263 -6.4999999999999405
    vertex 121.28139251914189 -404.7729337092263 -6.4999999999999405
  endloop
endfacet
facet normal 0.0 -1.0 0.0
  outer loop
    vertex 123.28139251914189 -404.7729337092263 -6.499999999999845
    vertex 121.28139251914061 -404.7729337092263 19.500000000000032
    vertex 121.28139251914189 -404.7729337092263 -6.4999999999999405
  endloop
endfacet
facet normal 0.0 -1.0 0.0
  outer loop
    vertex 121.28139251914061 -404.7729337092263 19.500000000000032
    vertex 123.28139251914189 -404.7729337092263 -6.499999999999845
    vertex 123.28139251914061 -404.7729337092263 19.50000000000013
  endloop
endfacet
facet normal -0.9238795325112892 -0.38268343236508445 -4.600319795448207e-14
  outer loop
    vertex 116.62109663135674 -407.8340917941466 -6.500000000000177
    vertex 117.03068836362442 -408.8229337092263 19.49999999999982
    vertex 116.62109663135544 -407.8340917941466 19.4999999999998
  endloop
endfacet
facet normal -0.9238795325112892 -0.38268343236508445 -4.600319795448207e-14
  outer loop
    vertex 117.03068836362442 -408.8229337092263 19.49999999999982
    vertex 116.62109663135674 -407.8340917941466 -6.500000000000177
    vertex 117.0306883636257 -408.8229337092263 -6.5000000000001545
  endloop
endfacet
facet normal -0.1305261922200497 -0.9914448613738107 -6.4993562987827646e-15
  outer loop
    vertex 120.5813925191419 -410.8729337092263 -6.49999999999998
    vertex 119.52023443422028 -410.73322959701153 19.499999999999943
    vertex 119.52023443422158 -410.73322959701153 -6.50000000000003
  endloop
endfacet
facet normal -0.1305261922200497 -0.9914448613738107 -6.4993562987827646e-15
  outer loop
    vertex 119.52023443422028 -410.73322959701153 19.499999999999943
    vertex 120.5813925191419 -410.8729337092263 -6.49999999999998
    vertex 120.5813925191406 -410.8729337092263 19.499999999999996
  endloop
endfacet
facet normal -0.6087614290087113 -0.7933533402912423 -3.03123638312649e-14
  outer loop
    vertex 118.53139251914192 -410.3236378647425 -6.500000000000081
    vertex 117.68225471627576 -409.6720715120911 19.499999999999854
    vertex 117.68225471627706 -409.6720715120911 -6.500000000000121
  endloop
endfacet
facet normal -0.6087614290087113 -0.7933533402912423 -3.03123638312649e-14
  outer loop
    vertex 117.68225471627576 -409.6720715120911 19.499999999999854
    vertex 118.53139251914192 -410.3236378647425 -6.500000000000081
    vertex 118.53139251914062 -410.3236378647425 19.499999999999897
  endloop
endfacet
endsolid Design - Rolled
