solid Design - Rolled
facet normal 0.573545863531469 -0.8191734507574947 5.277366584219347e-15
  outer loop
    vertex 259.7452664408546 312.05357491498455 8.625000000002279
    vertex 259.175864541629 311.65490708256664 17.625000000002256
    vertex 259.17586454162904 311.65490708256664 8.625000000002252
  endloop
endfacet
facet normal 0.573545863531469 -0.8191734507574947 5.277366584219347e-15
  outer loop
    vertex 259.175864541629 311.65490708256664 17.625000000002256
    vertex 259.7452664408546 312.05357491498455 8.625000000002279
    vertex 259.7452664408545 312.05357491498455 17.625000000002284
  endloop
endfacet
facet normal 0.9105690149230616 -0.41335707210841943 8.045991218736417e-15
  outer loop
    vertex 259.7452664408546 312.05357491498455 8.625000000002279
    vertex 260.27586454162895 313.22240985828876 17.625000000002284
    vertex 259.7452664408545 312.05357491498455 17.625000000002284
  endloop
endfacet
facet normal 0.9105690149230616 -0.41335707210841943 8.045991218736417e-15
  outer loop
    vertex 260.27586454162895 313.22240985828876 17.625000000002284
    vertex 259.7452664408546 312.05357491498455 8.625000000002279
    vertex 260.275864541629 313.22240985828876 8.625000000002279
  endloop
endfacet
facet normal 0.9712629757544852 0.23800889044013132 8.32790441787532e-15
  outer loop
    vertex 260.7314994602394 331.62805642244905 8.625000000002279
    vertex 260.27586454162895 333.4874043068446 17.625000000002274
    vertex 260.7314994602394 331.62805642244905 17.625000000002284
  endloop
endfacet
facet normal 0.9712629757544852 0.23800889044013132 8.32790441787532e-15
  outer loop
    vertex 260.27586454162895 333.4874043068446 17.625000000002274
    vertex 260.7314994602394 331.62805642244905 8.625000000002279
    vertex 260.275864541629 333.4874043068446 8.625000000002267
  endloop
endfacet
facet normal -0.9996937315251379 0.02474758875821708 -8.672744357904751e-15
  outer loop
    vertex 257.0508277237932 326.38308991026594 8.625000000002236
    vertex 256.975864541629 323.3549070825664 17.62500000000224
    vertex 257.0508277237931 326.38308991026594 17.62500000000224
  endloop
endfacet
facet normal -0.9996937315251379 0.02474758875821708 -8.672744357904751e-15
  outer loop
    vertex 256.975864541629 323.3549070825664 17.62500000000224
    vertex 257.0508277237932 326.38308991026594 8.625000000002236
    vertex 256.9758645416291 323.3549070825664 8.625000000002235
  endloop
endfacet
facet normal -0.9712629757544724 -0.23800889044018328 -8.32790441787519e-15
  outer loop
    vertex 257.6202296230187 315.0817577426839 8.625000000002238
    vertex 258.075864541629 313.22240985828876 17.625000000002256
    vertex 257.62022962301864 315.0817577426839 17.62500000000224
  endloop
endfacet
facet normal -0.9712629757544724 -0.23800889044018328 -8.32790441787519e-15
  outer loop
    vertex 258.075864541629 313.22240985828876 17.625000000002256
    vertex 257.6202296230187 315.0817577426839 8.625000000002238
    vertex 258.07586454162913 313.22240985828876 8.625000000002249
  endloop
endfacet
facet normal 0.9969805917915305 0.07765114030720623 8.610862915231129e-15
  outer loop
    vertex 261.30090135946494 326.38308991026594 8.62500000000228
    vertex 261.0811204299547 329.2049070825666 17.625000000002284
    vertex 261.30090135946494 326.38308991026594 17.625000000002284
  endloop
endfacet
facet normal 0.9969805917915305 0.07765114030720623 8.610862915231129e-15
  outer loop
    vertex 261.0811204299547 329.2049070825666 17.625000000002284
    vertex 261.30090135946494 326.38308991026594 8.62500000000228
    vertex 261.08112042995475 329.2049070825666 8.625000000002276
  endloop
endfacet
facet normal 0.9996937315251381 0.02474758875820964 8.654198404032153e-15
  outer loop
    vertex 261.375864541629 323.3549070825664 8.625000000002283
    vertex 261.30090135946494 326.38308991026594 17.625000000002284
    vertex 261.37586454162897 323.3549070825664 17.625000000002288
  endloop
endfacet
facet normal 0.9996937315251381 0.02474758875820964 8.654198404032153e-15
  outer loop
    vertex 261.30090135946494 326.38308991026594 17.625000000002284
    vertex 261.375864541629 323.3549070825664 8.625000000002283
    vertex 261.30090135946494 326.38308991026594 8.62500000000228
  endloop
endfacet
facet normal -0.910569014923075 -0.4133570721083903 -7.736219577259309e-15
  outer loop
    vertex 258.07586454162913 313.22240985828876 8.625000000002249
    vertex 258.6064626424034 312.05357491498455 17.625000000002256
    vertex 258.075864541629 313.22240985828876 17.625000000002256
  endloop
endfacet
facet normal -0.910569014923075 -0.4133570721083903 -7.736219577259309e-15
  outer loop
    vertex 258.6064626424034 312.05357491498455 17.625000000002256
    vertex 258.07586454162913 313.22240985828876 8.625000000002249
    vertex 258.6064626424035 312.05357491498455 8.62500000000225
  endloop
endfacet
facet normal 0.989750854571886 0.14280492244394563 8.523795836754562e-15
  outer loop
    vertex 261.0811204299547 329.2049070825666 17.625000000002284
    vertex 260.7314994602394 331.62805642244905 8.625000000002279
    vertex 260.7314994602394 331.62805642244905 17.625000000002284
  endloop
endfacet
facet normal 0.989750854571886 0.14280492244394563 8.523795836754562e-15
  outer loop
    vertex 260.7314994602394 331.62805642244905 8.625000000002279
    vertex 261.0811204299547 329.2049070825666 17.625000000002284
    vertex 261.08112042995475 329.2049070825666 8.625000000002276
  endloop
endfacet
facet normal -0.9996937315251379 -0.02474758875821911 -8.65419840403215e-15
  outer loop
    vertex 256.9758645416291 323.3549070825664 8.625000000002235
    vertex 257.0508277237931 320.3267242548671 17.62500000000224
    vertex 256.975864541629 323.3549070825664 17.62500000000224
  endloop
endfacet
facet normal -0.9996937315251379 -0.02474758875821911 -8.65419840403215e-15
  outer loop
    vertex 257.0508277237931 320.3267242548671 17.62500000000224
    vertex 256.9758645416291 323.3549070825664 8.625000000002235
    vertex 257.0508277237932 320.3267242548671 8.625000000002236
  endloop
endfacet
facet normal -0.5735458635314538 -0.8191734507575054 -4.663474330721819e-15
  outer loop
    vertex 259.17586454162904 311.65490708256664 8.625000000002252
    vertex 258.6064626424034 312.05357491498455 17.625000000002256
    vertex 258.6064626424035 312.05357491498455 8.62500000000225
  endloop
endfacet
facet normal -0.5735458635314538 -0.8191734507575054 -4.663474330721819e-15
  outer loop
    vertex 258.6064626424034 312.05357491498455 17.625000000002256
    vertex 259.17586454162904 311.65490708256664 8.625000000002252
    vertex 259.175864541629 311.65490708256664 17.625000000002256
  endloop
endfacet
facet normal 0.9996937315251379 -0.02474758875821166 8.672744357904748e-15
  outer loop
    vertex 261.30090135946494 320.3267242548671 8.62500000000228
    vertex 261.37586454162897 323.3549070825664 17.625000000002288
    vertex 261.30090135946494 320.3267242548671 17.625000000002284
  endloop
endfacet
facet normal 0.9996937315251379 -0.02474758875821166 8.672744357904748e-15
  outer loop
    vertex 261.37586454162897 323.3549070825664 17.625000000002288
    vertex 261.30090135946494 320.3267242548671 8.62500000000228
    vertex 261.375864541629 323.3549070825664 8.625000000002283
  endloop
endfacet
facet normal -0.9969805917915308 -0.07765114030720509 -8.610862915231134e-15
  outer loop
    vertex 257.0508277237932 320.3267242548671 8.625000000002236
    vertex 257.2706086533033 317.50490708256666 17.625000000002245
    vertex 257.0508277237931 320.3267242548671 17.62500000000224
  endloop
endfacet
facet normal -0.9969805917915308 -0.07765114030720509 -8.610862915231134e-15
  outer loop
    vertex 257.2706086533033 317.50490708256666 17.625000000002245
    vertex 257.0508277237932 320.3267242548671 8.625000000002236
    vertex 257.2706086533034 317.50490708256666 8.625000000002242
  endloop
endfacet
facet normal -0.9897508545718898 -0.14280492244391965 -8.523795836754603e-15
  outer loop
    vertex 257.2706086533034 317.50490708256666 8.625000000002242
    vertex 257.62022962301864 315.0817577426839 17.62500000000224
    vertex 257.2706086533033 317.50490708256666 17.625000000002245
  endloop
endfacet
facet normal -0.9897508545718898 -0.14280492244391965 -8.523795836754603e-15
  outer loop
    vertex 257.62022962301864 315.0817577426839 17.62500000000224
    vertex 257.2706086533034 317.50490708256666 8.625000000002242
    vertex 257.6202296230187 315.0817577426839 8.625000000002238
  endloop
endfacet
facet normal 0.9712629757544778 -0.23800889044016105 8.506269346535488e-15
  outer loop
    vertex 260.275864541629 313.22240985828876 8.625000000002279
    vertex 260.7314994602394 315.0817577426839 17.625000000002284
    vertex 260.27586454162895 313.22240985828876 17.625000000002284
  endloop
endfacet
facet normal 0.9712629757544778 -0.23800889044016105 8.506269346535488e-15
  outer loop
    vertex 260.7314994602394 315.0817577426839 17.625000000002284
    vertex 260.275864541629 313.22240985828876 8.625000000002279
    vertex 260.7314994602394 315.0817577426839 8.625000000002279
  endloop
endfacet
facet normal -0.9969805917915312 0.0776511403071983 -8.669055027616798e-15
  outer loop
    vertex 257.2706086533033 329.2049070825666 17.625000000002235
    vertex 257.0508277237932 326.38308991026594 8.625000000002236
    vertex 257.0508277237931 326.38308991026594 17.62500000000224
  endloop
endfacet
facet normal -0.9969805917915312 0.0776511403071983 -8.669055027616798e-15
  outer loop
    vertex 257.0508277237932 326.38308991026594 8.625000000002236
    vertex 257.2706086533033 329.2049070825666 17.625000000002235
    vertex 257.2706086533034 329.2049070825666 8.625000000002231
  endloop
endfacet
facet normal 0.9897508545718886 -0.1428049224439287 8.630814485330856e-15
  outer loop
    vertex 260.7314994602394 315.0817577426839 8.625000000002279
    vertex 261.0811204299547 317.50490708256666 17.625000000002295
    vertex 260.7314994602394 315.0817577426839 17.625000000002284
  endloop
endfacet
facet normal 0.9897508545718886 -0.1428049224439287 8.630814485330856e-15
  outer loop
    vertex 261.0811204299547 317.50490708256666 17.625000000002295
    vertex 260.7314994602394 315.0817577426839 8.625000000002279
    vertex 261.08112042995475 317.50490708256666 8.625000000002286
  endloop
endfacet
facet normal -0.9712629757544852 0.23800889044013132 -8.506269346535542e-15
  outer loop
    vertex 258.07586454162896 333.4874043068446 17.62500000000224
    vertex 257.6202296230187 331.62805642244905 8.625000000002238
    vertex 257.62022962301864 331.62805642244905 17.62500000000224
  endloop
endfacet
facet normal -0.9712629757544852 0.23800889044013132 -8.506269346535542e-15
  outer loop
    vertex 257.6202296230187 331.62805642244905 8.625000000002238
    vertex 258.07586454162896 333.4874043068446 17.62500000000224
    vertex 258.0758645416291 333.4874043068446 8.625000000002238
  endloop
endfacet
facet normal 0.9105690149230458 0.41335707210845446 7.736219577259028e-15
  outer loop
    vertex 260.27586454162895 333.4874043068446 17.625000000002274
    vertex 259.7452664408546 334.65623925014864 8.625000000002267
    vertex 259.7452664408545 334.65623925014864 17.62500000000227
  endloop
endfacet
facet normal 0.9105690149230458 0.41335707210845446 7.736219577259028e-15
  outer loop
    vertex 259.7452664408546 334.65623925014864 8.625000000002267
    vertex 260.27586454162895 333.4874043068446 17.625000000002274
    vertex 260.275864541629 333.4874043068446 8.625000000002267
  endloop
endfacet
facet normal 8.666125542021168e-15 -3.747022397574792e-16 -1.0
  outer loop
    vertex 258.6064626424035 312.05357491498455 8.62500000000225
    vertex 259.7452664408546 312.05357491498455 8.625000000002279
    vertex 259.17586454162904 311.65490708256664 8.625000000002252
  endloop
endfacet
facet normal 8.666125542021168e-15 -3.747022397574792e-16 -1.0
  outer loop
    vertex 259.7452664408546 312.05357491498455 8.625000000002279
    vertex 258.6064626424035 312.05357491498455 8.62500000000225
    vertex 258.07586454162913 313.22240985828876 8.625000000002249
  endloop
endfacet
facet normal 8.666125542021168e-15 -3.747022397574792e-16 -1.0
  outer loop
    vertex 259.7452664408546 312.05357491498455 8.625000000002279
    vertex 258.07586454162913 313.22240985828876 8.625000000002249
    vertex 260.275864541629 313.22240985828876 8.625000000002279
  endloop
endfacet
facet normal 8.666125542021168e-15 -3.747022397574792e-16 -1.0
  outer loop
    vertex 260.275864541629 313.22240985828876 8.625000000002279
    vertex 258.07586454162913 313.22240985828876 8.625000000002249
    vertex 257.6202296230187 315.0817577426839 8.625000000002238
  endloop
endfacet
facet normal 8.666125542021168e-15 -3.747022397574792e-16 -1.0
  outer loop
    vertex 260.275864541629 313.22240985828876 8.625000000002279
    vertex 257.6202296230187 315.0817577426839 8.625000000002238
    vertex 260.7314994602394 315.0817577426839 8.625000000002279
  endloop
endfacet
facet normal 8.666125542021168e-15 -3.747022397574792e-16 -1.0
  outer loop
    vertex 260.7314994602394 315.0817577426839 8.625000000002279
    vertex 257.6202296230187 315.0817577426839 8.625000000002238
    vertex 257.2706086533034 317.50490708256666 8.625000000002242
  endloop
endfacet
facet normal 8.666125542021168e-15 -3.747022397574792e-16 -1.0
  outer loop
    vertex 260.7314994602394 315.0817577426839 8.625000000002279
    vertex 257.2706086533034 317.50490708256666 8.625000000002242
    vertex 261.08112042995475 317.50490708256666 8.625000000002286
  endloop
endfacet
facet normal 8.666125542021168e-15 -3.747022397574792e-16 -1.0
  outer loop
    vertex 261.08112042995475 317.50490708256666 8.625000000002286
    vertex 257.2706086533034 317.50490708256666 8.625000000002242
    vertex 257.0508277237932 320.3267242548671 8.625000000002236
  endloop
endfacet
facet normal 8.666125542021168e-15 -3.747022397574792e-16 -1.0
  outer loop
    vertex 261.08112042995475 317.50490708256666 8.625000000002286
    vertex 257.0508277237932 320.3267242548671 8.625000000002236
    vertex 261.30090135946494 320.3267242548671 8.62500000000228
  endloop
endfacet
facet normal 8.666125542021168e-15 -3.747022397574792e-16 -1.0
  outer loop
    vertex 261.30090135946494 320.3267242548671 8.62500000000228
    vertex 257.0508277237932 320.3267242548671 8.625000000002236
    vertex 256.9758645416291 323.3549070825664 8.625000000002235
  endloop
endfacet
facet normal 8.666125542021168e-15 -3.747022397574792e-16 -1.0
  outer loop
    vertex 261.30090135946494 320.3267242548671 8.62500000000228
    vertex 256.9758645416291 323.3549070825664 8.625000000002235
    vertex 261.375864541629 323.3549070825664 8.625000000002283
  endloop
endfacet
facet normal 8.666125542021168e-15 -3.747022397574792e-16 -1.0
  outer loop
    vertex 261.375864541629 323.3549070825664 8.625000000002283
    vertex 256.9758645416291 323.3549070825664 8.625000000002235
    vertex 257.0508277237932 326.38308991026594 8.625000000002236
  endloop
endfacet
facet normal 8.666125542021168e-15 -3.747022397574792e-16 -1.0
  outer loop
    vertex 261.375864541629 323.3549070825664 8.625000000002283
    vertex 257.0508277237932 326.38308991026594 8.625000000002236
    vertex 261.30090135946494 326.38308991026594 8.62500000000228
  endloop
endfacet
facet normal 8.666125542021168e-15 -3.747022397574792e-16 -1.0
  outer loop
    vertex 261.30090135946494 326.38308991026594 8.62500000000228
    vertex 257.0508277237932 326.38308991026594 8.625000000002236
    vertex 257.2706086533034 329.2049070825666 8.625000000002231
  endloop
endfacet
facet normal 8.666125542021168e-15 -3.747022397574792e-16 -1.0
  outer loop
    vertex 261.30090135946494 326.38308991026594 8.62500000000228
    vertex 257.2706086533034 329.2049070825666 8.625000000002231
    vertex 261.08112042995475 329.2049070825666 8.625000000002276
  endloop
endfacet
facet normal 8.666125542021168e-15 -3.747022397574792e-16 -1.0
  outer loop
    vertex 261.08112042995475 329.2049070825666 8.625000000002276
    vertex 257.2706086533034 329.2049070825666 8.625000000002231
    vertex 257.6202296230187 331.62805642244905 8.625000000002238
  endloop
endfacet
facet normal 8.666125542021168e-15 -3.747022397574792e-16 -1.0
  outer loop
    vertex 261.08112042995475 329.2049070825666 8.625000000002276
    vertex 257.6202296230187 331.62805642244905 8.625000000002238
    vertex 260.7314994602394 331.62805642244905 8.625000000002279
  endloop
endfacet
facet normal 8.666125542021168e-15 -3.747022397574792e-16 -1.0
  outer loop
    vertex 260.7314994602394 331.62805642244905 8.625000000002279
    vertex 257.6202296230187 331.62805642244905 8.625000000002238
    vertex 258.0758645416291 333.4874043068446 8.625000000002238
  endloop
endfacet
facet normal 8.666125542021168e-15 -3.747022397574792e-16 -1.0
  outer loop
    vertex 260.7314994602394 331.62805642244905 8.625000000002279
    vertex 258.0758645416291 333.4874043068446 8.625000000002238
    vertex 260.275864541629 333.4874043068446 8.625000000002267
  endloop
endfacet
facet normal 8.666125542021168e-15 -3.747022397574792e-16 -1.0
  outer loop
    vertex 260.275864541629 333.4874043068446 8.625000000002267
    vertex 258.0758645416291 333.4874043068446 8.625000000002238
    vertex 258.6064626424035 334.65623925014864 8.625000000002238
  endloop
endfacet
facet normal 8.666125542021168e-15 -3.747022397574792e-16 -1.0
  outer loop
    vertex 260.275864541629 333.4874043068446 8.625000000002267
    vertex 258.6064626424035 334.65623925014864 8.625000000002238
    vertex 259.7452664408546 334.65623925014864 8.625000000002267
  endloop
endfacet
facet normal 8.666125542021168e-15 -3.747022397574792e-16 -1.0
  outer loop
    vertex 259.7452664408546 334.65623925014864 8.625000000002267
    vertex 258.6064626424035 334.65623925014864 8.625000000002238
    vertex 259.17586454162904 335.0549070825666 8.625000000002252
  endloop
endfacet
facet normal -0.9897508545718875 0.1428049224439366 -8.630814485330853e-15
  outer loop
    vertex 257.6202296230187 331.62805642244905 8.625000000002238
    vertex 257.2706086533033 329.2049070825666 17.625000000002235
    vertex 257.62022962301864 331.62805642244905 17.62500000000224
  endloop
endfacet
facet normal -0.9897508545718875 0.1428049224439366 -8.630814485330853e-15
  outer loop
    vertex 257.2706086533033 329.2049070825666 17.625000000002235
    vertex 257.6202296230187 331.62805642244905 8.625000000002238
    vertex 257.2706086533034 329.2049070825666 8.625000000002231
  endloop
endfacet
facet normal 0.5735458635315888 0.8191734507574108 4.663474330723025e-15
  outer loop
    vertex 259.175864541629 335.0549070825666 17.625000000002256
    vertex 259.7452664408546 334.65623925014864 8.625000000002267
    vertex 259.17586454162904 335.0549070825666 8.625000000002252
  endloop
endfacet
facet normal 0.5735458635315888 0.8191734507574108 4.663474330723025e-15
  outer loop
    vertex 259.7452664408546 334.65623925014864 8.625000000002267
    vertex 259.175864541629 335.0549070825666 17.625000000002256
    vertex 259.7452664408545 334.65623925014864 17.62500000000227
  endloop
endfacet
facet normal -0.5735458635315734 0.8191734507574214 -5.277366584220225e-15
  outer loop
    vertex 258.6064626424034 334.65623925014864 17.625000000002245
    vertex 259.17586454162904 335.0549070825666 8.625000000002252
    vertex 258.6064626424035 334.65623925014864 8.625000000002238
  endloop
endfacet
facet normal -0.5735458635315734 0.8191734507574214 -5.277366584220225e-15
  outer loop
    vertex 259.17586454162904 335.0549070825666 8.625000000002252
    vertex 258.6064626424034 334.65623925014864 17.625000000002245
    vertex 259.175864541629 335.0549070825666 17.625000000002256
  endloop
endfacet
facet normal -0.9105690149230458 0.41335707210845446 -8.045991218736292e-15
  outer loop
    vertex 258.6064626424034 334.65623925014864 17.625000000002245
    vertex 258.0758645416291 333.4874043068446 8.625000000002238
    vertex 258.07586454162896 333.4874043068446 17.62500000000224
  endloop
endfacet
facet normal -0.9105690149230458 0.41335707210845446 -8.045991218736292e-15
  outer loop
    vertex 258.0758645416291 333.4874043068446 8.625000000002238
    vertex 258.6064626424034 334.65623925014864 17.625000000002245
    vertex 258.6064626424035 334.65623925014864 8.625000000002238
  endloop
endfacet
facet normal 0.9969805917915301 -0.07765114030721301 8.669055027616792e-15
  outer loop
    vertex 261.08112042995475 317.50490708256666 8.625000000002286
    vertex 261.30090135946494 320.3267242548671 17.625000000002284
    vertex 261.0811204299547 317.50490708256666 17.625000000002295
  endloop
endfacet
facet normal 0.9969805917915301 -0.07765114030721301 8.669055027616792e-15
  outer loop
    vertex 261.30090135946494 320.3267242548671 17.625000000002284
    vertex 261.08112042995475 317.50490708256666 8.625000000002286
    vertex 261.30090135946494 320.3267242548671 8.62500000000228
  endloop
endfacet
facet normal -8.666125542021168e-15 3.747022397574792e-16 1.0
  outer loop
    vertex 259.7452664408545 312.05357491498455 17.625000000002284
    vertex 258.6064626424034 312.05357491498455 17.625000000002256
    vertex 259.175864541629 311.65490708256664 17.625000000002256
  endloop
endfacet
facet normal -8.666125542021168e-15 3.747022397574792e-16 1.0
  outer loop
    vertex 258.6064626424034 312.05357491498455 17.625000000002256
    vertex 259.7452664408545 312.05357491498455 17.625000000002284
    vertex 260.27586454162895 313.22240985828876 17.625000000002284
  endloop
endfacet
facet normal -8.666125542021168e-15 3.747022397574792e-16 1.0
  outer loop
    vertex 258.6064626424034 312.05357491498455 17.625000000002256
    vertex 260.27586454162895 313.22240985828876 17.625000000002284
    vertex 258.075864541629 313.22240985828876 17.625000000002256
  endloop
endfacet
facet normal -8.666125542021168e-15 3.747022397574792e-16 1.0
  outer loop
    vertex 258.075864541629 313.22240985828876 17.625000000002256
    vertex 260.27586454162895 313.22240985828876 17.625000000002284
    vertex 260.7314994602394 315.0817577426839 17.625000000002284
  endloop
endfacet
facet normal -8.666125542021168e-15 3.747022397574792e-16 1.0
  outer loop
    vertex 258.075864541629 313.22240985828876 17.625000000002256
    vertex 260.7314994602394 315.0817577426839 17.625000000002284
    vertex 257.62022962301864 315.0817577426839 17.62500000000224
  endloop
endfacet
facet normal -8.666125542021168e-15 3.747022397574792e-16 1.0
  outer loop
    vertex 257.62022962301864 315.0817577426839 17.62500000000224
    vertex 260.7314994602394 315.0817577426839 17.625000000002284
    vertex 261.0811204299547 317.50490708256666 17.625000000002295
  endloop
endfacet
facet normal -8.666125542021168e-15 3.747022397574792e-16 1.0
  outer loop
    vertex 257.62022962301864 315.0817577426839 17.62500000000224
    vertex 261.0811204299547 317.50490708256666 17.625000000002295
    vertex 257.2706086533033 317.50490708256666 17.625000000002245
  endloop
endfacet
facet normal -8.666125542021168e-15 3.747022397574792e-16 1.0
  outer loop
    vertex 257.2706086533033 317.50490708256666 17.625000000002245
    vertex 261.0811204299547 317.50490708256666 17.625000000002295
    vertex 261.30090135946494 320.3267242548671 17.625000000002284
  endloop
endfacet
facet normal -8.666125542021168e-15 3.747022397574792e-16 1.0
  outer loop
    vertex 257.2706086533033 317.50490708256666 17.625000000002245
    vertex 261.30090135946494 320.3267242548671 17.625000000002284
    vertex 257.0508277237931 320.3267242548671 17.62500000000224
  endloop
endfacet
facet normal -8.666125542021168e-15 3.747022397574792e-16 1.0
  outer loop
    vertex 257.0508277237931 320.3267242548671 17.62500000000224
    vertex 261.30090135946494 320.3267242548671 17.625000000002284
    vertex 261.37586454162897 323.3549070825664 17.625000000002288
  endloop
endfacet
facet normal -8.666125542021168e-15 3.747022397574792e-16 1.0
  outer loop
    vertex 257.0508277237931 320.3267242548671 17.62500000000224
    vertex 261.37586454162897 323.3549070825664 17.625000000002288
    vertex 256.975864541629 323.3549070825664 17.62500000000224
  endloop
endfacet
facet normal -8.666125542021168e-15 3.747022397574792e-16 1.0
  outer loop
    vertex 256.975864541629 323.3549070825664 17.62500000000224
    vertex 261.37586454162897 323.3549070825664 17.625000000002288
    vertex 261.30090135946494 326.38308991026594 17.625000000002284
  endloop
endfacet
facet normal -8.666125542021168e-15 3.747022397574792e-16 1.0
  outer loop
    vertex 256.975864541629 323.3549070825664 17.62500000000224
    vertex 261.30090135946494 326.38308991026594 17.625000000002284
    vertex 257.0508277237931 326.38308991026594 17.62500000000224
  endloop
endfacet
facet normal -8.666125542021168e-15 3.747022397574792e-16 1.0
  outer loop
    vertex 257.0508277237931 326.38308991026594 17.62500000000224
    vertex 261.30090135946494 326.38308991026594 17.625000000002284
    vertex 261.0811204299547 329.2049070825666 17.625000000002284
  endloop
endfacet
facet normal -8.666125542021168e-15 3.747022397574792e-16 1.0
  outer loop
    vertex 257.0508277237931 326.38308991026594 17.62500000000224
    vertex 261.0811204299547 329.2049070825666 17.625000000002284
    vertex 257.2706086533033 329.2049070825666 17.625000000002235
  endloop
endfacet
facet normal -8.666125542021168e-15 3.747022397574792e-16 1.0
  outer loop
    vertex 257.2706086533033 329.2049070825666 17.625000000002235
    vertex 261.0811204299547 329.2049070825666 17.625000000002284
    vertex 260.7314994602394 331.62805642244905 17.625000000002284
  endloop
endfacet
facet normal -8.666125542021168e-15 3.747022397574792e-16 1.0
  outer loop
    vertex 257.2706086533033 329.2049070825666 17.625000000002235
    vertex 260.7314994602394 331.62805642244905 17.625000000002284
    vertex 257.62022962301864 331.62805642244905 17.62500000000224
  endloop
endfacet
facet normal -8.666125542021168e-15 3.747022397574792e-16 1.0
  outer loop
    vertex 257.62022962301864 331.62805642244905 17.62500000000224
    vertex 260.7314994602394 331.62805642244905 17.625000000002284
    vertex 260.27586454162895 333.4874043068446 17.625000000002274
  endloop
endfacet
facet normal -8.666125542021168e-15 3.747022397574792e-16 1.0
  outer loop
    vertex 257.62022962301864 331.62805642244905 17.62500000000224
    vertex 260.27586454162895 333.4874043068446 17.625000000002274
    vertex 258.07586454162896 333.4874043068446 17.62500000000224
  endloop
endfacet
facet normal -8.666125542021168e-15 3.747022397574792e-16 1.0
  outer loop
    vertex 258.07586454162896 333.4874043068446 17.62500000000224
    vertex 260.27586454162895 333.4874043068446 17.625000000002274
    vertex 259.7452664408545 334.65623925014864 17.62500000000227
  endloop
endfacet
facet normal -8.666125542021168e-15 3.747022397574792e-16 1.0
  outer loop
    vertex 258.07586454162896 333.4874043068446 17.62500000000224
    vertex 259.7452664408545 334.65623925014864 17.62500000000227
    vertex 258.6064626424034 334.65623925014864 17.625000000002245
  endloop
endfacet
facet normal -8.666125542021168e-15 3.747022397574792e-16 1.0
  outer loop
    vertex 258.6064626424034 334.65623925014864 17.625000000002245
    vertex 259.7452664408545 334.65623925014864 17.62500000000227
    vertex 259.175864541629 335.0549070825666 17.625000000002256
  endloop
endfacet
endsolid Design - Rolled
