solid Design
facet normal 2.3592239273284573e-14 -4.898583650804786e-16 -1.0
  outer loop
    vertex 367.3602590638071 45.91762405001446 -0.49999999822166125
    vertex 369.3602590936094 43.917624079816726 -0.49999999822161306
    vertex 367.3602592724229 31.91762405001448 -0.49999999822165436
  endloop
endfacet
facet normal 2.3592239273284573e-14 -4.898583650804786e-16 -1.0
  outer loop
    vertex 369.3602590936094 43.917624079816726 -0.49999999822161306
    vertex 367.3602590638071 45.91762405001446 -0.49999999822166125
    vertex 376.3602590638071 45.91762418412463 -0.49999999822144897
  endloop
endfacet
facet normal 2.3592239273284573e-14 -4.898583650804786e-16 -1.0
  outer loop
    vertex 369.3602590936094 43.917624079816726 -0.49999999822161306
    vertex 376.3602590638071 45.91762418412463 -0.49999999822144897
    vertex 374.3602590936094 43.91762415432237 -0.49999999822149516
  endloop
endfacet
facet normal 2.3592239273284573e-14 -4.898583650804786e-16 -1.0
  outer loop
    vertex 374.3602590936094 43.91762415432237 -0.49999999822149516
    vertex 376.3602590638071 45.91762418412463 -0.49999999822144897
    vertex 374.36025924262066 33.91762415432239 -0.4999999982214902
  endloop
endfacet
facet normal 2.3592239273284573e-14 -4.898583650804786e-16 -1.0
  outer loop
    vertex 367.3602592724229 31.91762405001448 -0.49999999822165436
    vertex 369.3602592426207 33.91762407981674 -0.4999999982216082
    vertex 376.36025927242287 31.917624184124648 -0.4999999982214421
  endloop
endfacet
facet normal 2.3592239273284573e-14 -4.898583650804786e-16 -1.0
  outer loop
    vertex 369.3602592426207 33.91762407981674 -0.4999999982216082
    vertex 367.3602592724229 31.91762405001448 -0.49999999822165436
    vertex 369.3602590936094 43.917624079816726 -0.49999999822161306
  endloop
endfacet
facet normal 2.3592239273284573e-14 -4.898583650804786e-16 -1.0
  outer loop
    vertex 376.36025927242287 31.917624184124648 -0.4999999982214421
    vertex 369.3602592426207 33.91762407981674 -0.4999999982216082
    vertex 374.36025924262066 33.91762415432239 -0.4999999982214902
  endloop
endfacet
facet normal 2.3592239273284573e-14 -4.898583650804786e-16 -1.0
  outer loop
    vertex 376.36025927242287 31.917624184124648 -0.4999999982214421
    vertex 374.36025924262066 33.91762415432239 -0.4999999982214902
    vertex 376.3602590638071 45.91762418412463 -0.49999999822144897
  endloop
endfacet
facet normal 0.9999999999999998 1.490112972390992e-08 2.368771844654237e-14
  outer loop
    vertex 369.3602590936094 43.917624079816726 -0.49999999822161306
    vertex 369.36025924262054 33.91762407981674 3.500000001778391
    vertex 369.3602592426207 33.91762407981674 -0.4999999982216082
  endloop
endfacet
facet normal 0.9999999999999998 1.490112972390992e-08 2.368771844654237e-14
  outer loop
    vertex 369.36025924262054 33.91762407981674 3.500000001778391
    vertex 369.3602590936094 43.917624079816726 -0.49999999822161306
    vertex 369.3602590936093 43.917624079816726 3.5000000017783863
  endloop
endfacet
facet normal 0.9999999999999998 1.4901143775400094e-08 -2.931583978902272e-10
  outer loop
    vertex 376.3602590638071 45.91762418412463 -0.49999999822144897
    vertex 376.3602592744753 31.917624184124662 5.500000000273363
    vertex 376.36025927242287 31.917624184124648 -0.4999999982214421
  endloop
endfacet
facet normal 0.9999999999999998 1.4901143775400094e-08 -2.931583978902272e-10
  outer loop
    vertex 376.3602592744753 31.917624184124662 5.500000000273363
    vertex 376.3602590638071 45.91762418412463 -0.49999999822144897
    vertex 376.36025906585894 45.9176241841245 5.50000000027322
  endloop
endfacet
facet normal 1.4901129734583396e-08 -0.9999999999999998 -5.066639735972105e-15
  outer loop
    vertex 374.3602590936094 43.91762415432237 -0.49999999822149516
    vertex 369.3602590936093 43.917624079816726 3.5000000017783863
    vertex 369.3602590936094 43.917624079816726 -0.49999999822161306
  endloop
endfacet
facet normal 1.4901129734583396e-08 -0.9999999999999998 -5.066639735972105e-15
  outer loop
    vertex 369.3602590936093 43.917624079816726 3.5000000017783863
    vertex 374.3602590936094 43.91762415432237 -0.49999999822149516
    vertex 374.3602590936093 43.91762415432237 3.500000001778505
  endloop
endfacet
facet normal 1.4901129734583396e-08 -0.9999999999999998 -5.066639735972105e-15
  outer loop
    vertex 369.3602590936093 43.917624079816726 3.5000000017783863
    vertex 374.3602590936093 43.91762415432237 3.500000001778505
    vertex 369.86025927334754 43.91762408726729 3.500000001778399
  endloop
endfacet
facet normal 1.4901129734583396e-08 -0.9999999999999998 -5.066639735972105e-15
  outer loop
    vertex 369.86025927334754 43.91762408726729 3.500000001778399
    vertex 374.3602590936093 43.91762415432237 3.500000001778505
    vertex 373.86025909360933 43.9176241468718 3.500000001778641
  endloop
endfacet
facet normal 1.4901129734583396e-08 -0.9999999999999998 -5.066639735972105e-15
  outer loop
    vertex 369.86025927334754 43.91762408726729 3.500000001778399
    vertex 373.86025909360933 43.9176241468718 3.500000001778641
    vertex 369.3602590936093 43.91762407981669 5.500000029637658
  endloop
endfacet
facet normal 1.4901129734583396e-08 -0.9999999999999998 -5.066639735972105e-15
  outer loop
    vertex 369.3602590936093 43.91762407981669 5.500000029637658
    vertex 373.86025909360933 43.9176241468718 3.500000001778641
    vertex 374.3602590936093 43.91762415432234 5.5000000004002585
  endloop
endfacet
facet normal 1.4901129734583396e-08 -0.9999999999999998 -5.066639735972105e-15
  outer loop
    vertex 369.3602590936093 43.91762407981669 5.500000029637658
    vertex 374.3602590936093 43.91762415432234 5.5000000004002585
    vertex 374.3602590936092 43.91762415432234 6.500000001778493
  endloop
endfacet
facet normal 1.4901129734583396e-08 -0.9999999999999998 -5.066639735972105e-15
  outer loop
    vertex 369.3602590936093 43.91762407981669 5.500000029637658
    vertex 374.3602590936092 43.91762415432234 6.500000001778493
    vertex 369.3602590936092 43.91762407981669 6.500000001778375
  endloop
endfacet
facet normal -0.9999999999999998 -1.490112972390992e-08 -2.3687718446542375e-14
  outer loop
    vertex 374.36025924262054 33.91762415432239 3.500000001778509
    vertex 374.3602590936094 43.91762415432237 -0.49999999822149516
    vertex 374.36025924262066 33.91762415432239 -0.4999999982214902
  endloop
endfacet
facet normal -0.9999999999999998 -1.490112972390992e-08 -2.3687718446542375e-14
  outer loop
    vertex 374.3602590936094 43.91762415432237 -0.49999999822149516
    vertex 374.36025924262054 33.91762415432239 3.500000001778509
    vertex 374.3602590936093 43.91762415432237 3.500000001778505
  endloop
endfacet
facet normal -1.8442176632126273e-08 1.8050365675843994e-09 0.9999999999999998
  outer loop
    vertex 369.3602592714662 45.917624050014005 5.500000003284013
    vertex 367.36025927091947 45.91762405001431 5.500000001778555
    vertex 369.3602590936093 43.91762407981669 5.500000029637658
  endloop
endfacet
facet normal -1.8442176632126273e-08 1.8050365675843994e-09 0.9999999999999998
  outer loop
    vertex 369.3602592714644 31.917624050014172 5.500000003283884
    vertex 367.36025927091947 45.91762405001431 5.500000001778555
    vertex 367.36025927091765 31.91762405001447 5.500000001778425
  endloop
endfacet
facet normal -1.8442176632126273e-08 1.8050365675843994e-09 0.9999999999999998
  outer loop
    vertex 367.36025927091947 45.91762405001431 5.500000001778555
    vertex 369.3602592714644 31.917624050014172 5.500000003283884
    vertex 369.3602590936093 43.91762407981669 5.500000029637658
  endloop
endfacet
facet normal -1.8442176632126273e-08 1.8050365675843994e-09 0.9999999999999998
  outer loop
    vertex 369.3602590936093 43.91762407981669 5.500000029637658
    vertex 369.3602592714644 31.917624050014172 5.500000003283884
    vertex 369.36025924262066 33.917623974447565 5.5000001184458185
  endloop
endfacet
facet normal -0.9999999999999998 -9.934042996037893e-09 1.4686219627080337e-08
  outer loop
    vertex 367.36025927091947 45.91762405001431 5.500000001778555
    vertex 367.3602592724229 31.91762405001448 -0.49999999822165436
    vertex 367.36025927091765 31.91762405001447 5.500000001778425
  endloop
endfacet
facet normal -0.9999999999999998 -9.934042996037893e-09 1.4686219627080337e-08
  outer loop
    vertex 367.3602592724229 31.91762405001448 -0.49999999822165436
    vertex 367.36025927091947 45.91762405001431 5.500000001778555
    vertex 367.3602590638071 45.91762405001446 -0.49999999822166125
  endloop
endfacet
facet normal 1.5055818209094995e-09 -7.527837366998084e-11 -1.0
  outer loop
    vertex 369.86025927334754 43.91762408726729 3.500000001778399
    vertex 369.36025924262054 33.91762407981674 3.500000001778391
    vertex 369.3602590936093 43.917624079816726 3.5000000017783863
  endloop
endfacet
facet normal 1.5055818209094995e-09 -7.527837366998084e-11 -1.0
  outer loop
    vertex 369.36025924262054 33.91762407981674 3.500000001778391
    vertex 369.86025927334754 43.91762408726729 3.500000001778399
    vertex 369.8602592729699 33.917624087267306 3.5000000032839615
  endloop
endfacet
facet normal -0.9999999999999994 -2.8385844078389485e-08 5.312354410738127e-09
  outer loop
    vertex 369.36025924262054 33.91762397444755 9.50000000177842
    vertex 369.3602592714644 31.917624050014172 5.500000003283884
    vertex 369.36025931457044 31.917623974447555 9.50000000177842
  endloop
endfacet
facet normal -0.9999999999999994 -2.8385844078389485e-08 5.312354410738127e-09
  outer loop
    vertex 369.3602592714644 31.917624050014172 5.500000003283884
    vertex 369.36025924262054 33.91762397444755 9.50000000177842
    vertex 369.36025924262066 33.917623974447565 5.5000001184458185
  endloop
endfacet
facet normal -0.9999999999999994 -2.8385844078389485e-08 5.312354410738127e-09
  outer loop
    vertex 369.36025924262066 33.917623974447565 5.5000001184458185
    vertex 369.36025924262054 33.91762397444755 9.50000000177842
    vertex 369.3602592426206 33.91762397444757 6.500000001778425
  endloop
endfacet
facet normal -0.9999999999999994 -2.8385844078389485e-08 5.312354410738127e-09
  outer loop
    vertex 369.3602592426206 33.91762397444757 6.500000001778425
    vertex 369.36025924262054 33.91762397444755 9.50000000177842
    vertex 369.3602591706707 35.917623974447565 6.500000001778468
  endloop
endfacet
facet normal -2.3592239273284583e-14 4.898583650804788e-16 1.0
  outer loop
    vertex 369.36025931457044 31.917623974447555 9.50000000177842
    vertex 374.36025924262054 33.91762415432234 9.500000001778535
    vertex 369.36025924262054 33.91762397444755 9.50000000177842
  endloop
endfacet
facet normal -2.3592239273284583e-14 4.898583650804788e-16 1.0
  outer loop
    vertex 374.36025924262054 33.91762415432234 9.500000001778535
    vertex 369.36025931457044 31.917623974447555 9.50000000177842
    vertex 374.36025931457044 31.917624154322365 9.500000001778535
  endloop
endfacet
facet normal -2.993298655100539e-08 0.8320502943378378 0.5547001962252373
  outer loop
    vertex 369.36025924262054 33.91762397444755 9.50000000177842
    vertex 374.3602591706707 35.917624154322354 6.500000001778586
    vertex 369.3602591706707 35.917623974447565 6.500000001778468
  endloop
endfacet
facet normal -2.993298655100539e-08 0.8320502943378378 0.5547001962252373
  outer loop
    vertex 374.3602591706707 35.917624154322354 6.500000001778586
    vertex 369.36025924262054 33.91762397444755 9.50000000177842
    vertex 374.36025924262054 33.91762415432234 9.500000001778535
  endloop
endfacet
facet normal 2.3592238521499332e-14 2.020469878812439e-14 -1.0
  outer loop
    vertex 374.3602591706707 35.917624154322354 6.500000001778586
    vertex 369.3602592426206 33.91762397444757 6.500000001778425
    vertex 369.3602591706707 35.917623974447565 6.500000001778468
  endloop
endfacet
facet normal 2.3592238521499332e-14 2.020469878812439e-14 -1.0
  outer loop
    vertex 369.3602592426206 33.91762397444757 6.500000001778425
    vertex 374.3602591706707 35.917624154322354 6.500000001778586
    vertex 374.3602592426206 33.917624154322354 6.500000001778541
  endloop
endfacet
facet normal -2.2934133448032203e-08 0.9999999999999996 9.012609782854237e-09
  outer loop
    vertex 369.36025924262054 33.91762407981674 3.500000001778391
    vertex 374.36025924262066 33.91762415432239 -0.4999999982214902
    vertex 369.3602592426207 33.91762407981674 -0.4999999982216082
  endloop
endfacet
facet normal -2.2934133448032203e-08 0.9999999999999996 9.012609782854237e-09
  outer loop
    vertex 374.36025924262066 33.91762415432239 -0.4999999982214902
    vertex 369.36025924262054 33.91762407981674 3.500000001778391
    vertex 374.36025924262054 33.91762415432239 3.500000001778509
  endloop
endfacet
facet normal -2.2934133448032203e-08 0.9999999999999996 9.012609782854237e-09
  outer loop
    vertex 374.36025924262054 33.91762415432239 3.500000001778509
    vertex 369.36025924262054 33.91762407981674 3.500000001778391
    vertex 373.86025924262105 33.917624141114096 3.5000000017785142
  endloop
endfacet
facet normal -2.2934133448032203e-08 0.9999999999999996 9.012609782854237e-09
  outer loop
    vertex 373.86025924262105 33.917624141114096 3.5000000017785142
    vertex 369.36025924262054 33.91762407981674 3.500000001778391
    vertex 369.8602592729699 33.917624087267306 3.5000000032839615
  endloop
endfacet
facet normal -2.2934133448032203e-08 0.9999999999999996 9.012609782854237e-09
  outer loop
    vertex 373.86025924262105 33.917624141114096 3.5000000017785142
    vertex 369.8602592729699 33.917624087267306 3.5000000032839615
    vertex 374.3602592426206 33.91762413455594 5.499999995755543
  endloop
endfacet
facet normal -2.2934133448032203e-08 0.9999999999999996 9.012609782854237e-09
  outer loop
    vertex 374.3602592426206 33.91762413455594 5.499999995755543
    vertex 369.8602592729699 33.917624087267306 3.5000000032839615
    vertex 369.36025924262066 33.917623974447565 5.5000001184458185
  endloop
endfacet
facet normal -2.2934133448032203e-08 0.9999999999999996 9.012609782854237e-09
  outer loop
    vertex 374.3602592426206 33.91762413455594 5.499999995755543
    vertex 369.36025924262066 33.917623974447565 5.5000001184458185
    vertex 374.3602592426206 33.917624154322354 6.500000001778541
  endloop
endfacet
facet normal -2.2934133448032203e-08 0.9999999999999996 9.012609782854237e-09
  outer loop
    vertex 374.3602592426206 33.917624154322354 6.500000001778541
    vertex 369.36025924262066 33.917623974447565 5.5000001184458185
    vertex 369.3602592426206 33.91762397444757 6.500000001778425
  endloop
endfacet
facet normal 0.9999999999999994 2.8819711315865954e-08 -5.008652389923041e-09
  outer loop
    vertex 374.3602592426206 33.91762413455594 5.499999995755543
    vertex 374.36025931457044 31.917624154322365 9.500000001778535
    vertex 374.3602592739287 31.91762413689356 5.5000000017787025
  endloop
endfacet
facet normal 0.9999999999999994 2.8819711315865954e-08 -5.008652389923041e-09
  outer loop
    vertex 374.36025931457044 31.917624154322365 9.500000001778535
    vertex 374.3602592426206 33.91762413455594 5.499999995755543
    vertex 374.36025924262054 33.91762415432234 9.500000001778535
  endloop
endfacet
facet normal 0.9999999999999994 2.8819711315865954e-08 -5.008652389923041e-09
  outer loop
    vertex 374.36025924262054 33.91762415432234 9.500000001778535
    vertex 374.3602592426206 33.91762413455594 5.499999995755543
    vertex 374.3602592426206 33.917624154322354 6.500000001778541
  endloop
endfacet
facet normal 0.9999999999999994 2.8819711315865954e-08 -5.008652389923041e-09
  outer loop
    vertex 374.36025924262054 33.91762415432234 9.500000001778535
    vertex 374.3602592426206 33.917624154322354 6.500000001778541
    vertex 374.3602591706707 35.917624154322354 6.500000001778586
  endloop
endfacet
facet normal -1.4043433095744074e-13 6.119325174625778e-15 -1.0
  outer loop
    vertex 374.3602590936093 43.91762415432237 3.500000001778505
    vertex 373.86025924262105 33.917624141114096 3.5000000017785142
    vertex 373.86025909360933 43.9176241468718 3.500000001778641
  endloop
endfacet
facet normal -1.4043433095744074e-13 6.119325174625778e-15 -1.0
  outer loop
    vertex 373.86025924262105 33.917624141114096 3.5000000017785142
    vertex 374.3602590936093 43.91762415432237 3.500000001778505
    vertex 374.36025924262054 33.91762415432239 3.500000001778509
  endloop
endfacet
facet normal 1.7654561737638507e-08 -0.9999999999999998 -4.872019718717826e-09
  outer loop
    vertex 376.36025927242287 31.917624184124648 -0.4999999982214421
    vertex 367.36025927091765 31.91762405001447 5.500000001778425
    vertex 367.3602592724229 31.91762405001448 -0.49999999822165436
  endloop
endfacet
facet normal 1.7654561737638507e-08 -0.9999999999999998 -4.872019718717826e-09
  outer loop
    vertex 367.36025927091765 31.91762405001447 5.500000001778425
    vertex 376.36025927242287 31.917624184124648 -0.4999999982214421
    vertex 376.3602592744753 31.917624184124662 5.500000000273363
  endloop
endfacet
facet normal 1.7654561737638507e-08 -0.9999999999999998 -4.872019718717826e-09
  outer loop
    vertex 367.36025927091765 31.91762405001447 5.500000001778425
    vertex 376.3602592744753 31.917624184124662 5.500000000273363
    vertex 374.3602592739287 31.91762413689356 5.5000000017787025
  endloop
endfacet
facet normal 1.7654561737638507e-08 -0.9999999999999998 -4.872019718717826e-09
  outer loop
    vertex 367.36025927091765 31.91762405001447 5.500000001778425
    vertex 374.3602592739287 31.91762413689356 5.5000000017787025
    vertex 369.3602592714644 31.917624050014172 5.500000003283884
  endloop
endfacet
facet normal 1.7654561737638507e-08 -0.9999999999999998 -4.872019718717826e-09
  outer loop
    vertex 369.3602592714644 31.917624050014172 5.500000003283884
    vertex 374.3602592739287 31.91762413689356 5.5000000017787025
    vertex 374.36025931457044 31.917624154322365 9.500000001778535
  endloop
endfacet
facet normal 1.7654561737638507e-08 -0.9999999999999998 -4.872019718717826e-09
  outer loop
    vertex 369.3602592714644 31.917624050014172 5.500000003283884
    vertex 374.36025931457044 31.917624154322365 9.500000001778535
    vertex 369.36025931457044 31.917623974447555 9.50000000177842
  endloop
endfacet
facet normal -1.7250975667721757e-10 -9.439738559602705e-11 1.0
  outer loop
    vertex 374.3602590936093 43.91762415432234 5.5000000004002585
    vertex 376.36025906585894 45.9176241841245 5.50000000027322
    vertex 374.3602590653122 45.9176241543222 5.5000000017785835
  endloop
endfacet
facet normal -1.7250975667721757e-10 -9.439738559602705e-11 1.0
  outer loop
    vertex 376.36025906585894 45.9176241841245 5.50000000027322
    vertex 374.3602590936093 43.91762415432234 5.5000000004002585
    vertex 374.3602592426206 33.91762413455594 5.499999995755543
  endloop
endfacet
facet normal -1.7250975667721757e-10 -9.439738559602705e-11 1.0
  outer loop
    vertex 376.36025906585894 45.9176241841245 5.50000000027322
    vertex 374.3602592426206 33.91762413455594 5.499999995755543
    vertex 374.3602592739287 31.91762413689356 5.5000000017787025
  endloop
endfacet
facet normal -1.7250975667721757e-10 -9.439738559602705e-11 1.0
  outer loop
    vertex 376.36025906585894 45.9176241841245 5.50000000027322
    vertex 374.3602592739287 31.91762413689356 5.5000000017787025
    vertex 376.3602592744753 31.917624184124662 5.500000000273363
  endloop
endfacet
facet normal -0.9701425000397713 -1.4512567230744493e-08 0.24253562545857543
  outer loop
    vertex 374.3602590936093 43.91762415432234 5.5000000004002585
    vertex 373.86025924262105 33.917624141114096 3.5000000017785142
    vertex 374.3602592426206 33.91762413455594 5.499999995755543
  endloop
endfacet
facet normal -0.9701425000397713 -1.4512567230744493e-08 0.24253562545857543
  outer loop
    vertex 373.86025924262105 33.917624141114096 3.5000000017785142
    vertex 374.3602590936093 43.91762415432234 5.5000000004002585
    vertex 373.86025909360933 43.9176241468718 3.500000001778641
  endloop
endfacet
facet normal 0.9701424901966731 8.305011916028242e-09 0.24253566483096423
  outer loop
    vertex 369.8602592729699 33.917624087267306 3.5000000032839615
    vertex 369.3602590936093 43.91762407981669 5.500000029637658
    vertex 369.36025924262066 33.917623974447565 5.5000001184458185
  endloop
endfacet
facet normal 0.9701424901966731 8.305011916028242e-09 0.24253566483096423
  outer loop
    vertex 369.3602590936093 43.91762407981669 5.500000029637658
    vertex 369.8602592729699 33.917624087267306 3.5000000032839615
    vertex 369.86025927334754 43.91762408726729 3.500000001778399
  endloop
endfacet
facet normal -1.5604021632744625e-08 0.9999999999999998 1.4609563943677503e-10
  outer loop
    vertex 367.36025927091947 45.91762405001431 5.500000001778555
    vertex 376.3602590638071 45.91762418412463 -0.49999999822144897
    vertex 367.3602590638071 45.91762405001446 -0.49999999822166125
  endloop
endfacet
facet normal -1.5604021632744625e-08 0.9999999999999998 1.4609563943677503e-10
  outer loop
    vertex 376.3602590638071 45.91762418412463 -0.49999999822144897
    vertex 367.36025927091947 45.91762405001431 5.500000001778555
    vertex 376.36025906585894 45.9176241841245 5.50000000027322
  endloop
endfacet
facet normal -1.5604021632744625e-08 0.9999999999999998 1.4609563943677503e-10
  outer loop
    vertex 376.36025906585894 45.9176241841245 5.50000000027322
    vertex 367.36025927091947 45.91762405001431 5.500000001778555
    vertex 374.3602590653122 45.9176241543222 5.5000000017785835
  endloop
endfacet
facet normal -1.5604021632744625e-08 0.9999999999999998 1.4609563943677503e-10
  outer loop
    vertex 374.3602590653122 45.9176241543222 5.5000000017785835
    vertex 367.36025927091947 45.91762405001431 5.500000001778555
    vertex 369.3602592714662 45.917624050014005 5.500000003284013
  endloop
endfacet
facet normal -1.5604021632744625e-08 0.9999999999999998 1.4609563943677503e-10
  outer loop
    vertex 374.3602590653122 45.9176241543222 5.5000000017785835
    vertex 369.3602592714662 45.917624050014005 5.500000003284013
    vertex 374.3602590638069 45.917624154322354 9.500000001778487
  endloop
endfacet
facet normal -1.5604021632744625e-08 0.9999999999999998 1.4609563943677503e-10
  outer loop
    vertex 374.3602590638069 45.917624154322354 9.500000001778487
    vertex 369.3602592714662 45.917624050014005 5.500000003284013
    vertex 369.36025906380695 45.91762407981668 9.500000001778366
  endloop
endfacet
facet normal 1.2398475828286054e-08 -0.8320502943378376 0.5547001962252381
  outer loop
    vertex 374.3602591234115 41.91762415432234 6.500000001778538
    vertex 369.3602590936092 43.91762407981671 9.50000000177837
    vertex 369.3602591234115 41.9176240798167 6.50000000177842
  endloop
endfacet
facet normal 1.2398475828286054e-08 -0.8320502943378376 0.5547001962252381
  outer loop
    vertex 369.3602590936092 43.91762407981671 9.50000000177837
    vertex 374.3602591234115 41.91762415432234 6.500000001778538
    vertex 374.36025909360916 43.91762415432236 9.500000001778487
  endloop
endfacet
facet normal -0.9999999999999994 2.165858811907605e-08 -2.559182612219895e-08
  outer loop
    vertex 369.3602590936092 43.91762407981671 9.50000000177837
    vertex 369.3602590936092 43.91762407981669 6.500000001778375
    vertex 369.3602591234115 41.9176240798167 6.50000000177842
  endloop
endfacet
facet normal -0.9999999999999994 2.165858811907605e-08 -2.559182612219895e-08
  outer loop
    vertex 369.3602590936092 43.91762407981669 6.500000001778375
    vertex 369.3602592714662 45.917624050014005 5.500000003284013
    vertex 369.3602590936093 43.91762407981669 5.500000029637658
  endloop
endfacet
facet normal -0.9999999999999994 2.165858811907605e-08 -2.559182612219895e-08
  outer loop
    vertex 369.3602592714662 45.917624050014005 5.500000003284013
    vertex 369.3602590936092 43.91762407981669 6.500000001778375
    vertex 369.3602590936092 43.91762407981671 9.50000000177837
  endloop
endfacet
facet normal -0.9999999999999994 2.165858811907605e-08 -2.559182612219895e-08
  outer loop
    vertex 369.3602592714662 45.917624050014005 5.500000003284013
    vertex 369.3602590936092 43.91762407981671 9.50000000177837
    vertex 369.36025906380695 45.91762407981668 9.500000001778366
  endloop
endfacet
facet normal -2.3592239273284573e-14 4.898583650804786e-16 1.0
  outer loop
    vertex 369.3602590936092 43.91762407981671 9.50000000177837
    vertex 374.3602590638069 45.917624154322354 9.500000001778487
    vertex 369.36025906380695 45.91762407981668 9.500000001778366
  endloop
endfacet
facet normal -2.3592239273284573e-14 4.898583650804786e-16 1.0
  outer loop
    vertex 374.3602590638069 45.917624154322354 9.500000001778487
    vertex 369.3602590936092 43.91762407981671 9.50000000177837
    vertex 374.36025909360916 43.91762415432236 9.500000001778487
  endloop
endfacet
facet normal 0.9999999999999998 1.4636124519182616e-08 1.8552769192508718e-10
  outer loop
    vertex 374.3602590653122 45.9176241543222 5.5000000017785835
    vertex 374.3602590936092 43.91762415432234 6.500000001778493
    vertex 374.3602590936093 43.91762415432234 5.5000000004002585
  endloop
endfacet
facet normal 0.9999999999999998 1.4636124519182616e-08 1.8552769192508718e-10
  outer loop
    vertex 374.3602590936092 43.91762415432234 6.500000001778493
    vertex 374.3602590653122 45.9176241543222 5.5000000017785835
    vertex 374.36025909360916 43.91762415432236 9.500000001778487
  endloop
endfacet
facet normal 0.9999999999999998 1.4636124519182616e-08 1.8552769192508718e-10
  outer loop
    vertex 374.36025909360916 43.91762415432236 9.500000001778487
    vertex 374.3602590653122 45.9176241543222 5.5000000017785835
    vertex 374.3602590638069 45.917624154322354 9.500000001778487
  endloop
endfacet
facet normal 0.9999999999999998 1.4636124519182616e-08 1.8552769192508718e-10
  outer loop
    vertex 374.36025909360916 43.91762415432236 9.500000001778487
    vertex 374.3602591234115 41.91762415432234 6.500000001778538
    vertex 374.3602590936092 43.91762415432234 6.500000001778493
  endloop
endfacet
facet normal 2.359223958895629e-14 -2.1184415518285352e-14 -1.0
  outer loop
    vertex 374.3602590936092 43.91762415432234 6.500000001778493
    vertex 369.3602591234115 41.9176240798167 6.50000000177842
    vertex 369.3602590936092 43.91762407981669 6.500000001778375
  endloop
endfacet
facet normal 2.359223958895629e-14 -2.1184415518285352e-14 -1.0
  outer loop
    vertex 369.3602591234115 41.9176240798167 6.50000000177842
    vertex 374.3602590936092 43.91762415432234 6.500000001778493
    vertex 374.3602591234115 41.91762415432234 6.500000001778538
  endloop
endfacet
endsolid Design
