solid Design - Rolled
facet normal 0.9832549075638674 0.18223552549261793 -5.7096631195010904e-15
  outer loop
    vertex 261.04244991708237 448.78449796768774 15.627224407819146
    vertex 261.1375959540014 448.2711358914237 12.627224407819197
    vertex 261.04244991708237 448.78449796768774 12.627224407819151
  endloop
endfacet
facet normal 0.9832549075638674 0.18223552549261793 -5.7096631195010904e-15
  outer loop
    vertex 261.1375959540014 448.2711358914237 12.627224407819197
    vertex 261.04244991708237 448.78449796768774 15.627224407819146
    vertex 261.1375959540014 448.27113589142374 15.62722440781919
  endloop
endfacet
facet normal 0.6494480483307614 -0.7604059655995374 -1.7618228586506747e-15
  outer loop
    vertex 261.5534193356361 450.2274310928915 15.627224407819146
    vertex 261.9504309165606 450.566511016065 12.627224407819153
    vertex 261.9504309165606 450.566511016065 15.62722440781915
  endloop
endfacet
facet normal 0.6494480483307614 -0.7604059655995374 -1.7618228586506747e-15
  outer loop
    vertex 261.9504309165606 450.566511016065 12.627224407819153
    vertex 261.5534193356361 450.2274310928915 15.627224407819146
    vertex 261.5534193356361 450.2274310928915 12.627224407819153
  endloop
endfacet
facet normal 0.824126188622222 -0.5664062369245328 -3.1449036427158134e-15
  outer loop
    vertex 261.5534193356361 450.2274310928915 15.627224407819146
    vertex 261.2576959382143 449.7971508796528 12.627224407819151
    vertex 261.5534193356361 450.2274310928915 12.627224407819153
  endloop
endfacet
facet normal 0.824126188622222 -0.5664062369245328 -3.1449036427158134e-15
  outer loop
    vertex 261.2576959382143 449.7971508796528 12.627224407819151
    vertex 261.5534193356361 450.2274310928915 15.627224407819146
    vertex 261.2576959382143 449.7971508796528 15.627224407819146
  endloop
endfacet
facet normal 0.9025852843496602 0.4305110968087153 -5.841765997294251e-15
  outer loop
    vertex 261.1375959540014 448.2711358914237 12.627224407819197
    vertex 261.3623678507011 447.7998918101436 15.627224407819146
    vertex 261.3623678507011 447.7998918101436 12.627224407819153
  endloop
endfacet
facet normal 0.9025852843496602 0.4305110968087153 -5.841765997294251e-15
  outer loop
    vertex 261.3623678507011 447.7998918101436 15.627224407819146
    vertex 261.1375959540014 448.2711358914237 12.627224407819197
    vertex 261.1375959540014 448.27113589142374 15.62722440781919
  endloop
endfacet
facet normal -0.9558914778138508 -0.29372007531466526 5.816685251655386e-15
  outer loop
    vertex 263.03970898659344 443.8891698801746 15.62722440781915
    vertex 262.2500832434865 446.45895173008626 12.627224407819154
    vertex 263.0397089865934 443.8891698801746 12.627224407819154
  endloop
endfacet
facet normal -0.9558914778138508 -0.29372007531466526 5.816685251655386e-15
  outer loop
    vertex 262.2500832434865 446.45895173008626 12.627224407819154
    vertex 263.03970898659344 443.8891698801746 15.62722440781915
    vertex 262.2500832434865 446.45895173008626 15.62722440781915
  endloop
endfacet
facet normal -0.5747311030173738 0.8183423239845492 1.2273627934983778e-15
  outer loop
    vertex 260.484426405116 448.8891698801733 12.627224407819197
    vertex 258.2844264051164 447.3440849082981 15.627224407819188
    vertex 260.484426405116 448.8891698801733 15.62722440781919
  endloop
endfacet
facet normal -0.5747311030173738 0.8183423239845492 1.2273627934983778e-15
  outer loop
    vertex 258.2844264051164 447.3440849082981 15.627224407819188
    vertex 260.484426405116 448.8891698801733 12.627224407819197
    vertex 258.2844264051164 447.3440849082981 12.627224407819192
  endloop
endfacet
facet normal 0.9558914778140052 -0.29372007531416294 -4.4764597858761714e-15
  outer loop
    vertex 263.829334729699 446.4589517300868 15.627224407819151
    vertex 263.0397089865934 443.8891698801746 12.627224407819154
    vertex 263.829334729699 446.4589517300867 12.627224407819154
  endloop
endfacet
facet normal 0.9558914778140052 -0.29372007531416294 -4.4764597858761714e-15
  outer loop
    vertex 263.0397089865934 443.8891698801746 12.627224407819154
    vertex 263.829334729699 446.4589517300868 15.627224407819151
    vertex 263.03970898659344 443.8891698801746 15.62722440781915
  endloop
endfacet
facet normal 0.016042319828490192 -0.9998713137071794 2.194800921660374e-15
  outer loop
    vertex 258.2844264051164 447.3440849082981 15.627224407819188
    vertex 260.97244195274806 447.3872124633423 12.627224407819197
    vertex 260.97244195274806 447.3872124633423 15.62722440781919
  endloop
endfacet
facet normal 0.016042319828490192 -0.9998713137071794 2.194800921660374e-15
  outer loop
    vertex 260.97244195274806 447.3872124633423 12.627224407819197
    vertex 258.2844264051164 447.3440849082981 15.627224407819188
    vertex 258.2844264051164 447.3440849082981 12.627224407819192
  endloop
endfacet
facet normal 0.6006881217578386 -0.7994834459693585 -1.4101427288179621e-15
  outer loop
    vertex 260.1007827251307 444.84408490829867 15.627224407819188
    vertex 262.2500832434865 446.45895173008626 12.627224407819154
    vertex 262.2500832434865 446.45895173008626 15.62722440781915
  endloop
endfacet
facet normal 0.6006881217578386 -0.7994834459693585 -1.4101427288179621e-15
  outer loop
    vertex 262.2500832434865 446.45895173008626 12.627224407819154
    vertex 260.1007827251307 444.84408490829867 15.627224407819188
    vertex 260.1007827251307 444.84408490829867 12.62722440781915
  endloop
endfacet
facet normal 0.9426414910923032 -0.33380685923341863 -4.313664440731116e-15
  outer loop
    vertex 261.2576959382143 449.7971508796528 15.627224407819146
    vertex 261.08341378512364 449.3049932618092 12.627224407819151
    vertex 261.2576959382143 449.7971508796528 12.627224407819151
  endloop
endfacet
facet normal 0.9426414910923032 -0.33380685923341863 -4.313664440731116e-15
  outer loop
    vertex 261.08341378512364 449.3049932618092 12.627224407819151
    vertex 261.2576959382143 449.7971508796528 15.627224407819146
    vertex 261.08341378512364 449.3049932618092 15.627224407819146
  endloop
endfacet
facet normal 0.0160423198279111 0.9998713137071886 -2.3675463938846618e-15
  outer loop
    vertex 260.9724419527466 450.39112729700486 12.627224407819151
    vertex 258.28442640511525 450.43425485204756 15.627224407819188
    vertex 260.97244195274664 450.39112729700486 15.627224407819146
  endloop
endfacet
facet normal 0.0160423198279111 0.9998713137071886 -2.3675463938846618e-15
  outer loop
    vertex 258.28442640511525 450.43425485204756 15.627224407819188
    vertex 260.9724419527466 450.39112729700486 12.627224407819151
    vertex 258.28442640511525 450.43425485204756 12.627224407819147
  endloop
endfacet
facet normal -0.9459767789017998 0.3242343809323365 4.3534611102925035e-15
  outer loop
    vertex 260.1007827251307 444.84408490829867 15.627224407819188
    vertex 260.97244195274806 447.3872124633423 12.627224407819197
    vertex 260.1007827251307 444.84408490829867 12.62722440781915
  endloop
endfacet
facet normal -0.9459767789017998 0.3242343809323365 4.3534611102925035e-15
  outer loop
    vertex 260.97244195274806 447.3872124633423 12.627224407819197
    vertex 260.1007827251307 444.84408490829867 15.627224407819188
    vertex 260.97244195274806 447.3872124633423 15.62722440781919
  endloop
endfacet
facet normal -5.384055238713018e-15 -2.281467251336832e-15 -1.0
  outer loop
    vertex 263.829334729699 446.4589517300867 12.627224407819154
    vertex 265.10697602043643 447.38721246334416 12.627224407819158
    vertex 265.9786352480554 444.84408490830094 12.62722440781916
  endloop
endfacet
facet normal -5.384055238713018e-15 -2.281467251336832e-15 -1.0
  outer loop
    vertex 265.10697602043643 447.38721246334416 12.627224407819158
    vertex 263.829334729699 446.4589517300867 12.627224407819154
    vertex 263.65774297534233 446.98705684758437 12.627224407819154
  endloop
endfacet
facet normal -5.384055238713018e-15 -2.281467251336832e-15 -1.0
  outer loop
    vertex 263.65774297534233 446.98705684758437 12.627224407819154
    vertex 263.829334729699 446.4589517300867 12.627224407819154
    vertex 263.1443808990783 446.8919108106653 12.627224407819154
  endloop
endfacet
facet normal -5.384055238713018e-15 -2.281467251336832e-15 -1.0
  outer loop
    vertex 265.10697602043643 447.38721246334416 12.627224407819158
    vertex 263.65774297534233 446.98705684758437 12.627224407819154
    vertex 264.1289870566224 447.21182874428405 12.627224407819156
  endloop
endfacet
facet normal -5.384055238713018e-15 -2.281467251336832e-15 -1.0
  outer loop
    vertex 265.10697602043643 447.38721246334416 12.627224407819158
    vertex 264.1289870566224 447.21182874428405 12.627224407819156
    vertex 264.525998637547 447.55090866745746 12.627224407819156
  endloop
endfacet
facet normal -5.384055238713018e-15 -2.281467251336832e-15 -1.0
  outer loop
    vertex 260.97244195274806 447.3872124633423 12.627224407819197
    vertex 262.2500832434865 446.45895173008626 12.627224407819154
    vertex 260.1007827251307 444.84408490829867 12.62722440781915
  endloop
endfacet
facet normal -5.384055238713018e-15 -2.281467251336832e-15 -1.0
  outer loop
    vertex 262.2500832434865 446.45895173008626 12.627224407819154
    vertex 260.97244195274806 447.3872124633423 12.627224407819197
    vertex 263.829334729699 446.4589517300867 12.627224407819154
  endloop
endfacet
facet normal -5.384055238713018e-15 -2.281467251336832e-15 -1.0
  outer loop
    vertex 263.829334729699 446.4589517300867 12.627224407819154
    vertex 260.97244195274806 447.3872124633423 12.627224407819197
    vertex 262.6238856049569 446.93287467870647 12.627224407819154
  endloop
endfacet
facet normal -5.384055238713018e-15 -2.281467251336832e-15 -1.0
  outer loop
    vertex 263.829334729699 446.4589517300867 12.627224407819154
    vertex 262.6238856049569 446.93287467870647 12.627224407819154
    vertex 263.1443808990783 446.8919108106653 12.627224407819154
  endloop
endfacet
facet normal -5.384055238713018e-15 -2.281467251336832e-15 -1.0
  outer loop
    vertex 262.6238856049569 446.93287467870647 12.627224407819154
    vertex 260.97244195274806 447.3872124633423 12.627224407819197
    vertex 262.13172798711327 447.10715683179717 12.627224407819153
  endloop
endfacet
facet normal -5.384055238713018e-15 -2.281467251336832e-15 -1.0
  outer loop
    vertex 262.13172798711327 447.10715683179717 12.627224407819153
    vertex 260.97244195274806 447.3872124633423 12.627224407819197
    vertex 261.7014477738744 447.4028802292191 12.627224407819153
  endloop
endfacet
facet normal -5.384055238713018e-15 -2.281467251336832e-15 -1.0
  outer loop
    vertex 263.829334729699 446.4589517300867 12.627224407819154
    vertex 263.0397089865934 443.8891698801746 12.627224407819154
    vertex 262.2500832434865 446.45895173008626 12.627224407819154
  endloop
endfacet
facet normal -5.384055238713018e-15 -2.281467251336832e-15 -1.0
  outer loop
    vertex 260.484426405116 448.8891698801733 12.627224407819197
    vertex 260.97244195274806 447.3872124633423 12.627224407819197
    vertex 258.2844264051164 447.3440849082981 12.627224407819192
  endloop
endfacet
facet normal -5.384055238713018e-15 -2.281467251336832e-15 -1.0
  outer loop
    vertex 260.97244195274806 447.3872124633423 12.627224407819197
    vertex 260.484426405116 448.8891698801733 12.627224407819197
    vertex 261.3623678507011 447.7998918101436 12.627224407819153
  endloop
endfacet
facet normal -5.384055238713018e-15 -2.281467251336832e-15 -1.0
  outer loop
    vertex 260.97244195274806 447.3872124633423 12.627224407819197
    vertex 261.3623678507011 447.7998918101436 12.627224407819153
    vertex 261.7014477738744 447.4028802292191 12.627224407819153
  endloop
endfacet
facet normal -5.384055238713018e-15 -2.281467251336832e-15 -1.0
  outer loop
    vertex 261.3623678507011 447.7998918101436 12.627224407819153
    vertex 260.484426405116 448.8891698801733 12.627224407819197
    vertex 261.1375959540014 448.2711358914237 12.627224407819197
  endloop
endfacet
facet normal -5.384055238713018e-15 -2.281467251336832e-15 -1.0
  outer loop
    vertex 261.1375959540014 448.2711358914237 12.627224407819197
    vertex 260.484426405116 448.8891698801733 12.627224407819197
    vertex 261.04244991708237 448.78449796768774 12.627224407819151
  endloop
endfacet
facet normal -5.384055238713018e-15 -2.281467251336832e-15 -1.0
  outer loop
    vertex 261.04244991708237 448.78449796768774 12.627224407819151
    vertex 260.484426405116 448.8891698801733 12.627224407819197
    vertex 261.08341378512364 449.3049932618092 12.627224407819151
  endloop
endfacet
facet normal -5.384055238713018e-15 -2.281467251336832e-15 -1.0
  outer loop
    vertex 261.08341378512364 449.3049932618092 12.627224407819151
    vertex 260.484426405116 448.8891698801733 12.627224407819197
    vertex 258.28442640511525 450.43425485204756 12.627224407819147
  endloop
endfacet
facet normal -5.384055238713018e-15 -2.281467251336832e-15 -1.0
  outer loop
    vertex 261.08341378512364 449.3049932618092 12.627224407819151
    vertex 258.28442640511525 450.43425485204756 12.627224407819147
    vertex 261.2576959382143 449.7971508796528 12.627224407819151
  endloop
endfacet
facet normal -5.384055238713018e-15 -2.281467251336832e-15 -1.0
  outer loop
    vertex 261.2576959382143 449.7971508796528 12.627224407819151
    vertex 258.28442640511525 450.43425485204756 12.627224407819147
    vertex 261.5534193356361 450.2274310928915 12.627224407819153
  endloop
endfacet
facet normal -5.384055238713018e-15 -2.281467251336832e-15 -1.0
  outer loop
    vertex 261.5534193356361 450.2274310928915 12.627224407819153
    vertex 258.28442640511525 450.43425485204756 12.627224407819147
    vertex 260.9724419527466 450.39112729700486 12.627224407819151
  endloop
endfacet
facet normal -5.384055238713018e-15 -2.281467251336832e-15 -1.0
  outer loop
    vertex 260.9724419527466 450.39112729700486 12.627224407819151
    vertex 261.9504309165606 450.566511016065 12.627224407819153
    vertex 261.5534193356361 450.2274310928915 12.627224407819153
  endloop
endfacet
facet normal -5.384055238713018e-15 -2.281467251336832e-15 -1.0
  outer loop
    vertex 261.9504309165606 450.566511016065 12.627224407819153
    vertex 260.9724419527466 450.39112729700486 12.627224407819151
    vertex 260.1007827251277 452.9342548520481 12.62722440781915
  endloop
endfacet
facet normal -5.384055238713018e-15 -2.281467251336832e-15 -1.0
  outer loop
    vertex 261.9504309165606 450.566511016065 12.627224407819153
    vertex 260.1007827251277 452.9342548520481 12.62722440781915
    vertex 262.4216749978407 450.7912829127646 12.627224407819154
  endloop
endfacet
facet normal -5.384055238713018e-15 -2.281467251336832e-15 -1.0
  outer loop
    vertex 262.4216749978407 450.7912829127646 12.627224407819154
    vertex 260.1007827251277 452.9342548520481 12.62722440781915
    vertex 262.2500832434841 451.31938803026225 12.627224407819154
  endloop
endfacet
facet normal -5.384055238713018e-15 -2.281467251336832e-15 -1.0
  outer loop
    vertex 262.4216749978407 450.7912829127646 12.627224407819154
    vertex 262.2500832434841 451.31938803026225 12.627224407819154
    vertex 262.93503707410474 450.88642894968365 12.627224407819154
  endloop
endfacet
facet normal -5.384055238713018e-15 -2.281467251336832e-15 -1.0
  outer loop
    vertex 263.0397089865898 453.88916988017445 12.627224407819154
    vertex 263.82933472969677 451.3193880302627 12.627224407819154
    vertex 262.2500832434841 451.31938803026225 12.627224407819154
  endloop
endfacet
facet normal -5.384055238713018e-15 -2.281467251336832e-15 -1.0
  outer loop
    vertex 263.9476899860698 450.6711829285518 12.627224407819156
    vertex 265.106976020435 450.39112729700696 12.627224407819114
    vertex 264.3779701993086 450.3754595311299 12.627224407819156
  endloop
endfacet
facet normal -5.384055238713018e-15 -2.281467251336832e-15 -1.0
  outer loop
    vertex 265.106976020435 450.39112729700696 12.627224407819114
    vertex 263.9476899860698 450.6711829285518 12.627224407819156
    vertex 265.97863524805246 452.9342548520504 12.62722440781916
  endloop
endfacet
facet normal -5.384055238713018e-15 -2.281467251336832e-15 -1.0
  outer loop
    vertex 265.97863524805246 452.9342548520504 12.62722440781916
    vertex 263.9476899860698 450.6711829285518 12.627224407819156
    vertex 263.4555323682261 450.8454650816425 12.627224407819154
  endloop
endfacet
facet normal -5.384055238713018e-15 -2.281467251336832e-15 -1.0
  outer loop
    vertex 265.97863524805246 452.9342548520504 12.62722440781916
    vertex 263.4555323682261 450.8454650816425 12.627224407819154
    vertex 263.82933472969677 451.3193880302627 12.627224407819154
  endloop
endfacet
facet normal -5.384055238713018e-15 -2.281467251336832e-15 -1.0
  outer loop
    vertex 263.82933472969677 451.3193880302627 12.627224407819154
    vertex 263.4555323682261 450.8454650816425 12.627224407819154
    vertex 262.93503707410474 450.88642894968365 12.627224407819154
  endloop
endfacet
facet normal -5.384055238713018e-15 -2.281467251336832e-15 -1.0
  outer loop
    vertex 263.82933472969677 451.3193880302627 12.627224407819154
    vertex 262.93503707410474 450.88642894968365 12.627224407819154
    vertex 262.2500832434841 451.31938803026225 12.627224407819154
  endloop
endfacet
facet normal -5.384055238713018e-15 -2.281467251336832e-15 -1.0
  outer loop
    vertex 265.10697602043643 447.38721246334416 12.627224407819158
    vertex 265.59499156806737 448.8891698801758 12.627224407819114
    vertex 267.7949915680679 447.3440849083015 12.627224407819162
  endloop
endfacet
facet normal -5.384055238713018e-15 -2.281467251336832e-15 -1.0
  outer loop
    vertex 265.59499156806737 448.8891698801758 12.627224407819114
    vertex 265.10697602043643 447.38721246334416 12.627224407819158
    vertex 264.525998637547 447.55090866745746 12.627224407819156
  endloop
endfacet
facet normal -5.384055238713018e-15 -2.281467251336832e-15 -1.0
  outer loop
    vertex 265.59499156806737 448.8891698801758 12.627224407819114
    vertex 264.525998637547 447.55090866745746 12.627224407819156
    vertex 264.8217220349688 447.98118888069615 12.627224407819158
  endloop
endfacet
facet normal -5.384055238713018e-15 -2.281467251336832e-15 -1.0
  outer loop
    vertex 265.59499156806737 448.8891698801758 12.627224407819114
    vertex 264.8217220349688 447.98118888069615 12.627224407819158
    vertex 264.99600418805943 448.47334649853985 12.627224407819158
  endloop
endfacet
facet normal -5.384055238713018e-15 -2.281467251336832e-15 -1.0
  outer loop
    vertex 265.59499156806737 448.8891698801758 12.627224407819114
    vertex 264.99600418805943 448.47334649853985 12.627224407819158
    vertex 265.0369680561007 448.9938417926613 12.627224407819114
  endloop
endfacet
facet normal -5.384055238713018e-15 -2.281467251336832e-15 -1.0
  outer loop
    vertex 265.59499156806737 448.8891698801758 12.627224407819114
    vertex 265.0369680561007 448.9938417926613 12.627224407819114
    vertex 267.7949915680668 450.43425485205097 12.627224407819117
  endloop
endfacet
facet normal -5.384055238713018e-15 -2.281467251336832e-15 -1.0
  outer loop
    vertex 267.7949915680668 450.43425485205097 12.627224407819117
    vertex 265.0369680561007 448.9938417926613 12.627224407819114
    vertex 264.94182201918164 449.5072038689253 12.627224407819114
  endloop
endfacet
facet normal -5.384055238713018e-15 -2.281467251336832e-15 -1.0
  outer loop
    vertex 267.7949915680668 450.43425485205097 12.627224407819117
    vertex 264.94182201918164 449.5072038689253 12.627224407819114
    vertex 264.7170501224819 449.97844795020535 12.627224407819112
  endloop
endfacet
facet normal -5.384055238713018e-15 -2.281467251336832e-15 -1.0
  outer loop
    vertex 267.7949915680668 450.43425485205097 12.627224407819117
    vertex 264.7170501224819 449.97844795020535 12.627224407819112
    vertex 264.3779701993086 450.3754595311299 12.627224407819156
  endloop
endfacet
facet normal -5.384055238713018e-15 -2.281467251336832e-15 -1.0
  outer loop
    vertex 267.7949915680668 450.43425485205097 12.627224407819117
    vertex 264.3779701993086 450.3754595311299 12.627224407819156
    vertex 265.106976020435 450.39112729700696 12.627224407819114
  endloop
endfacet
facet normal -0.5747311030169229 -0.818342323984866 4.961405218603922e-15
  outer loop
    vertex 258.28442640511525 450.43425485204756 15.627224407819188
    vertex 260.484426405116 448.8891698801733 12.627224407819197
    vertex 260.484426405116 448.8891698801733 15.62722440781919
  endloop
endfacet
facet normal -0.5747311030169229 -0.818342323984866 4.961405218603922e-15
  outer loop
    vertex 260.484426405116 448.8891698801733 12.627224407819197
    vertex 258.28442640511525 450.43425485204756 15.627224407819188
    vertex 258.28442640511525 450.43425485204756 12.627224407819147
  endloop
endfacet
facet normal -0.9459767789016202 -0.3242343809328606 5.832921354001927e-15
  outer loop
    vertex 260.97244195274664 450.39112729700486 15.627224407819146
    vertex 260.1007827251277 452.9342548520481 12.62722440781915
    vertex 260.9724419527466 450.39112729700486 12.627224407819151
  endloop
endfacet
facet normal -0.9459767789016202 -0.3242343809328606 5.832921354001927e-15
  outer loop
    vertex 260.1007827251277 452.9342548520481 12.62722440781915
    vertex 260.97244195274664 450.39112729700486 15.627224407819146
    vertex 260.1007827251278 452.9342548520481 15.627224407819142
  endloop
endfacet
facet normal -0.07845909572720529 -0.9969173337331785 2.696862354577024e-15
  outer loop
    vertex 262.93503707410474 450.88642894968365 15.62722440781915
    vertex 263.4555323682261 450.8454650816425 12.627224407819154
    vertex 263.4555323682261 450.8454650816425 15.62722440781915
  endloop
endfacet
facet normal -0.07845909572720529 -0.9969173337331785 2.696862354577024e-15
  outer loop
    vertex 263.4555323682261 450.8454650816425 12.627224407819154
    vertex 262.93503707410474 450.88642894968365 15.62722440781915
    vertex 262.93503707410474 450.88642894968365 12.627224407819154
  endloop
endfacet
facet normal -0.9426414910923032 0.33380685923341863 4.313664440731116e-15
  outer loop
    vertex 264.8217220349688 447.98118888069615 15.627224407819151
    vertex 264.99600418805943 448.47334649853985 12.627224407819158
    vertex 264.8217220349688 447.98118888069615 12.627224407819158
  endloop
endfacet
facet normal -0.9426414910923032 0.33380685923341863 4.313664440731116e-15
  outer loop
    vertex 264.99600418805943 448.47334649853985 12.627224407819158
    vertex 264.8217220349688 447.98118888069615 15.627224407819151
    vertex 264.9960041880595 448.47334649853985 15.627224407819151
  endloop
endfacet
facet normal -0.5664062369245999 -0.824126188622176 4.929779377464154e-15
  outer loop
    vertex 263.9476899860698 450.6711829285518 15.627224407819151
    vertex 264.3779701993086 450.3754595311299 12.627224407819156
    vertex 264.37797019930866 450.3754595311299 15.627224407819151
  endloop
endfacet
facet normal -0.5664062369245999 -0.824126188622176 4.929779377464154e-15
  outer loop
    vertex 264.3779701993086 450.3754595311299 12.627224407819156
    vertex 263.9476899860698 450.6711829285518 15.627224407819151
    vertex 263.9476899860698 450.6711829285518 12.627224407819156
  endloop
endfacet
facet normal -0.3338068592333519 -0.942641491092327 3.947840260852131e-15
  outer loop
    vertex 263.4555323682261 450.8454650816425 15.62722440781915
    vertex 263.9476899860698 450.6711829285518 12.627224407819156
    vertex 263.9476899860698 450.6711829285518 15.627224407819151
  endloop
endfacet
facet normal -0.3338068592333519 -0.942641491092327 3.947840260852131e-15
  outer loop
    vertex 263.9476899860698 450.6711829285518 12.627224407819156
    vertex 263.4555323682261 450.8454650816425 15.62722440781915
    vertex 263.4555323682261 450.8454650816425 12.627224407819154
  endloop
endfacet
facet normal 0.1822355254925758 -0.9832549075638753 1.2620977356152829e-15
  outer loop
    vertex 262.4216749978407 450.7912829127646 15.62722440781915
    vertex 262.93503707410474 450.88642894968365 12.627224407819154
    vertex 262.93503707410474 450.88642894968365 15.62722440781915
  endloop
endfacet
facet normal 0.1822355254925758 -0.9832549075638753 1.2620977356152829e-15
  outer loop
    vertex 262.93503707410474 450.88642894968365 12.627224407819154
    vertex 262.4216749978407 450.7912829127646 15.62722440781915
    vertex 262.4216749978407 450.7912829127646 12.627224407819154
  endloop
endfacet
facet normal -0.9969173337331667 0.07845909572735484 5.188456135778408e-15
  outer loop
    vertex 264.99600418805943 448.47334649853985 12.627224407819158
    vertex 265.03696805610076 448.9938417926613 15.627224407819151
    vertex 265.0369680561007 448.9938417926613 12.627224407819114
  endloop
endfacet
facet normal -0.9969173337331667 0.07845909572735484 5.188456135778408e-15
  outer loop
    vertex 265.03696805610076 448.9938417926613 15.627224407819151
    vertex 264.99600418805943 448.47334649853985 12.627224407819158
    vertex 264.9960041880595 448.47334649853985 15.627224407819151
  endloop
endfacet
facet normal 0.9969173337331667 -0.07845909572735484 -5.188456135778408e-15
  outer loop
    vertex 261.08341378512364 449.3049932618092 15.627224407819146
    vertex 261.04244991708237 448.78449796768774 12.627224407819151
    vertex 261.08341378512364 449.3049932618092 12.627224407819151
  endloop
endfacet
facet normal 0.9969173337331667 -0.07845909572735484 -5.188456135778408e-15
  outer loop
    vertex 261.04244991708237 448.78449796768774 12.627224407819151
    vertex 261.08341378512364 449.3049932618092 15.627224407819146
    vertex 261.04244991708237 448.78449796768774 15.627224407819146
  endloop
endfacet
facet normal 0.7604059655996867 0.6494480483305868 -5.575762176346477e-15
  outer loop
    vertex 261.3623678507011 447.7998918101436 15.627224407819146
    vertex 261.7014477738744 447.4028802292191 12.627224407819153
    vertex 261.3623678507011 447.7998918101436 12.627224407819153
  endloop
endfacet
facet normal 0.7604059655996867 0.6494480483305868 -5.575762176346477e-15
  outer loop
    vertex 261.7014477738744 447.4028802292191 12.627224407819153
    vertex 261.3623678507011 447.7998918101436 15.627224407819146
    vertex 261.7014477738744 447.4028802292191 15.62722440781915
  endloop
endfacet
facet normal 0.4305110968085606 -0.9025852843497341 -2.5867675831375695e-16
  outer loop
    vertex 261.9504309165606 450.566511016065 15.62722440781915
    vertex 262.4216749978407 450.7912829127646 12.627224407819154
    vertex 262.4216749978407 450.7912829127646 15.62722440781915
  endloop
endfacet
facet normal 0.4305110968085606 -0.9025852843497341 -2.5867675831375695e-16
  outer loop
    vertex 262.4216749978407 450.7912829127646 12.627224407819154
    vertex 261.9504309165606 450.566511016065 15.62722440781915
    vertex 261.9504309165606 450.566511016065 12.627224407819153
  endloop
endfacet
facet normal -0.4305110968085657 0.9025852843497315 2.586767583137898e-16
  outer loop
    vertex 264.1289870566224 447.21182874428405 12.627224407819156
    vertex 263.65774297534233 446.98705684758437 15.627224407819151
    vertex 264.1289870566224 447.21182874428405 15.627224407819151
  endloop
endfacet
facet normal -0.4305110968085657 0.9025852843497315 2.586767583137898e-16
  outer loop
    vertex 263.65774297534233 446.98705684758437 15.627224407819151
    vertex 264.1289870566224 447.21182874428405 12.627224407819156
    vertex 263.65774297534233 446.98705684758437 12.627224407819154
  endloop
endfacet
facet normal 0.9558914778138455 0.29372007531468236 -5.816685251655399e-15
  outer loop
    vertex 263.0397089865898 453.88916988017445 15.62722440781915
    vertex 263.82933472969677 451.3193880302627 12.627224407819154
    vertex 263.0397089865898 453.88916988017445 12.627224407819154
  endloop
endfacet
facet normal 0.9558914778138455 0.29372007531468236 -5.816685251655399e-15
  outer loop
    vertex 263.82933472969677 451.3193880302627 12.627224407819154
    vertex 263.0397089865898 453.88916988017445 15.62722440781915
    vertex 263.8293347296968 451.3193880302627 15.627224407819151
  endloop
endfacet
facet normal -0.6006881217578937 0.7994834459693171 1.4101427288183536e-15
  outer loop
    vertex 265.97863524805246 452.9342548520504 12.62722440781916
    vertex 263.8293347296968 451.3193880302627 15.627224407819151
    vertex 265.9786352480525 452.9342548520504 15.627224407819154
  endloop
endfacet
facet normal -0.6006881217578937 0.7994834459693171 1.4101427288183536e-15
  outer loop
    vertex 263.8293347296968 451.3193880302627 15.627224407819151
    vertex 265.97863524805246 452.9342548520504 12.62722440781916
    vertex 263.82933472969677 451.3193880302627 12.627224407819154
  endloop
endfacet
facet normal -0.9832549075638674 -0.18223552549261793 5.7096631195010904e-15
  outer loop
    vertex 265.03696805610076 448.9938417926613 15.627224407819151
    vertex 264.94182201918164 449.5072038689253 12.627224407819114
    vertex 265.0369680561007 448.9938417926613 12.627224407819114
  endloop
endfacet
facet normal -0.9832549075638674 -0.18223552549261793 5.7096631195010904e-15
  outer loop
    vertex 264.94182201918164 449.5072038689253 12.627224407819114
    vertex 265.03696805610076 448.9938417926613 15.627224407819151
    vertex 264.94182201918164 449.5072038689253 15.627224407819151
  endloop
endfacet
facet normal 0.57473110301739 -0.818342323984538 -1.2273627934984906e-15
  outer loop
    vertex 265.59499156806737 448.8891698801758 15.627224407819154
    vertex 267.7949915680668 450.43425485205097 12.627224407819117
    vertex 267.7949915680668 450.43425485205097 15.627224407819112
  endloop
endfacet
facet normal 0.57473110301739 -0.818342323984538 -1.2273627934984906e-15
  outer loop
    vertex 267.7949915680668 450.43425485205097 12.627224407819117
    vertex 265.59499156806737 448.8891698801758 15.627224407819154
    vertex 265.59499156806737 448.8891698801758 12.627224407819114
  endloop
endfacet
facet normal 0.5664062369245999 0.824126188622176 -4.929779377464154e-15
  outer loop
    vertex 262.13172798711327 447.10715683179717 12.627224407819153
    vertex 261.7014477738744 447.4028802292191 15.62722440781915
    vertex 262.13172798711327 447.10715683179717 15.62722440781915
  endloop
endfacet
facet normal 0.5664062369245999 0.824126188622176 -4.929779377464154e-15
  outer loop
    vertex 261.7014477738744 447.4028802292191 15.62722440781915
    vertex 262.13172798711327 447.10715683179717 12.627224407819153
    vertex 261.7014477738744 447.4028802292191 12.627224407819153
  endloop
endfacet
facet normal 0.3338068592333519 0.942641491092327 -3.947840260852131e-15
  outer loop
    vertex 262.6238856049569 446.93287467870647 12.627224407819154
    vertex 262.13172798711327 447.10715683179717 15.62722440781915
    vertex 262.62388560495697 446.9328746787066 15.62722440781915
  endloop
endfacet
facet normal 0.3338068592333519 0.942641491092327 -3.947840260852131e-15
  outer loop
    vertex 262.13172798711327 447.10715683179717 15.62722440781915
    vertex 262.6238856049569 446.93287467870647 12.627224407819154
    vertex 262.13172798711327 447.10715683179717 12.627224407819153
  endloop
endfacet
facet normal -0.1822355254925758 0.9832549075638753 -1.2620977356152829e-15
  outer loop
    vertex 263.65774297534233 446.98705684758437 12.627224407819154
    vertex 263.1443808990784 446.8919108106653 15.62722440781915
    vertex 263.65774297534233 446.98705684758437 15.627224407819151
  endloop
endfacet
facet normal -0.1822355254925758 0.9832549075638753 -1.2620977356152829e-15
  outer loop
    vertex 263.1443808990784 446.8919108106653 15.62722440781915
    vertex 263.65774297534233 446.98705684758437 12.627224407819154
    vertex 263.1443808990783 446.8919108106653 12.627224407819154
  endloop
endfacet
facet normal 0.9459767789016039 0.32423438093290824 -5.832921354001947e-15
  outer loop
    vertex 265.10697602043643 447.38721246334416 15.627224407819154
    vertex 265.9786352480554 444.84408490830094 12.62722440781916
    vertex 265.10697602043643 447.38721246334416 12.627224407819158
  endloop
endfacet
facet normal 0.9459767789016039 0.32423438093290824 -5.832921354001947e-15
  outer loop
    vertex 265.9786352480554 444.84408490830094 12.62722440781916
    vertex 265.10697602043643 447.38721246334416 15.627224407819154
    vertex 265.9786352480554 444.84408490830094 15.627224407819154
  endloop
endfacet
facet normal -0.016042319828425966 0.9998713137071804 -2.1948009216607217e-15
  outer loop
    vertex 267.7949915680668 450.43425485205097 12.627224407819117
    vertex 265.10697602043507 450.39112729700696 15.627224407819154
    vertex 267.7949915680668 450.43425485205097 15.627224407819112
  endloop
endfacet
facet normal -0.016042319828425966 0.9998713137071804 -2.1948009216607217e-15
  outer loop
    vertex 265.10697602043507 450.39112729700696 15.627224407819154
    vertex 267.7949915680668 450.43425485205097 12.627224407819117
    vertex 265.106976020435 450.39112729700696 12.627224407819114
  endloop
endfacet
facet normal 0.9459767789017868 -0.32423438093237467 -4.3534611102923465e-15
  outer loop
    vertex 265.97863524805246 452.9342548520504 12.62722440781916
    vertex 265.10697602043507 450.39112729700696 15.627224407819154
    vertex 265.106976020435 450.39112729700696 12.627224407819114
  endloop
endfacet
facet normal 0.9459767789017868 -0.32423438093237467 -4.3534611102923465e-15
  outer loop
    vertex 265.10697602043507 450.39112729700696 15.627224407819154
    vertex 265.97863524805246 452.9342548520504 12.62722440781916
    vertex 265.9786352480525 452.9342548520504 15.627224407819154
  endloop
endfacet
facet normal -0.7604059655996867 -0.6494480483305868 5.575762176346477e-15
  outer loop
    vertex 264.71705012248196 449.97844795020535 15.627224407819151
    vertex 264.3779701993086 450.3754595311299 12.627224407819156
    vertex 264.7170501224819 449.97844795020535 12.627224407819112
  endloop
endfacet
facet normal -0.7604059655996867 -0.6494480483305868 5.575762176346477e-15
  outer loop
    vertex 264.3779701993086 450.3754595311299 12.627224407819156
    vertex 264.71705012248196 449.97844795020535 15.627224407819151
    vertex 264.37797019930866 450.3754595311299 15.627224407819151
  endloop
endfacet
facet normal 0.07845909572720529 0.9969173337331785 -2.696862354577024e-15
  outer loop
    vertex 263.1443808990783 446.8919108106653 12.627224407819154
    vertex 262.62388560495697 446.9328746787066 15.62722440781915
    vertex 263.1443808990784 446.8919108106653 15.62722440781915
  endloop
endfacet
facet normal 0.07845909572720529 0.9969173337331785 -2.696862354577024e-15
  outer loop
    vertex 262.62388560495697 446.9328746787066 15.62722440781915
    vertex 263.1443808990783 446.8919108106653 12.627224407819154
    vertex 262.6238856049569 446.93287467870647 12.627224407819154
  endloop
endfacet
facet normal 0.5747311030169667 0.8183423239848351 -4.9614052186040865e-15
  outer loop
    vertex 267.7949915680679 447.3440849083015 12.627224407819162
    vertex 265.59499156806737 448.8891698801758 15.627224407819154
    vertex 267.7949915680679 447.3440849083015 15.627224407819156
  endloop
endfacet
facet normal 0.5747311030169667 0.8183423239848351 -4.9614052186040865e-15
  outer loop
    vertex 265.59499156806737 448.8891698801758 15.627224407819154
    vertex 267.7949915680679 447.3440849083015 12.627224407819162
    vertex 265.59499156806737 448.8891698801758 12.627224407819114
  endloop
endfacet
facet normal -0.9558914778139929 0.2937200753142023 4.476459785876016e-15
  outer loop
    vertex 262.2500832434841 451.31938803026225 15.62722440781915
    vertex 263.0397089865898 453.88916988017445 12.627224407819154
    vertex 262.2500832434841 451.31938803026225 12.627224407819154
  endloop
endfacet
facet normal -0.9558914778139929 0.2937200753142023 4.476459785876016e-15
  outer loop
    vertex 263.0397089865898 453.88916988017445 12.627224407819154
    vertex 262.2500832434841 451.31938803026225 15.62722440781915
    vertex 263.0397089865898 453.88916988017445 15.62722440781915
  endloop
endfacet
facet normal 0.6006881217573509 0.7994834459697249 -5.058133328746195e-15
  outer loop
    vertex 262.2500832434841 451.31938803026225 12.627224407819154
    vertex 260.1007827251278 452.9342548520481 15.627224407819142
    vertex 262.2500832434841 451.31938803026225 15.62722440781915
  endloop
endfacet
facet normal 0.6006881217573509 0.7994834459697249 -5.058133328746195e-15
  outer loop
    vertex 260.1007827251278 452.9342548520481 15.627224407819142
    vertex 262.2500832434841 451.31938803026225 12.627224407819154
    vertex 260.1007827251277 452.9342548520481 12.62722440781915
  endloop
endfacet
facet normal -0.9025852843496602 -0.4305110968087153 5.841765997294251e-15
  outer loop
    vertex 264.94182201918164 449.5072038689253 15.627224407819151
    vertex 264.7170501224819 449.97844795020535 12.627224407819112
    vertex 264.94182201918164 449.5072038689253 12.627224407819114
  endloop
endfacet
facet normal -0.9025852843496602 -0.4305110968087153 5.841765997294251e-15
  outer loop
    vertex 264.7170501224819 449.97844795020535 12.627224407819112
    vertex 264.94182201918164 449.5072038689253 15.627224407819151
    vertex 264.71705012248196 449.97844795020535 15.627224407819151
  endloop
endfacet
facet normal -0.824126188622222 0.5664062369245328 3.1449036427158134e-15
  outer loop
    vertex 264.525998637547 447.55090866745746 15.627224407819151
    vertex 264.8217220349688 447.98118888069615 12.627224407819158
    vertex 264.525998637547 447.55090866745746 12.627224407819156
  endloop
endfacet
facet normal -0.824126188622222 0.5664062369245328 3.1449036427158134e-15
  outer loop
    vertex 264.8217220349688 447.98118888069615 12.627224407819158
    vertex 264.525998637547 447.55090866745746 15.627224407819151
    vertex 264.8217220349688 447.98118888069615 15.627224407819151
  endloop
endfacet
facet normal -0.6006881217573181 -0.7994834459697495 5.058133328746074e-15
  outer loop
    vertex 263.829334729699 446.4589517300868 15.627224407819151
    vertex 265.9786352480554 444.84408490830094 12.62722440781916
    vertex 265.9786352480554 444.84408490830094 15.627224407819154
  endloop
endfacet
facet normal -0.6006881217573181 -0.7994834459697495 5.058133328746074e-15
  outer loop
    vertex 265.9786352480554 444.84408490830094 12.62722440781916
    vertex 263.829334729699 446.4589517300868 15.627224407819151
    vertex 263.829334729699 446.4589517300867 12.627224407819154
  endloop
endfacet
facet normal -0.01604231982789478 -0.9998713137071888 2.367546393884574e-15
  outer loop
    vertex 265.10697602043643 447.38721246334416 15.627224407819154
    vertex 267.7949915680679 447.3440849083015 12.627224407819162
    vertex 267.7949915680679 447.3440849083015 15.627224407819156
  endloop
endfacet
facet normal -0.01604231982789478 -0.9998713137071888 2.367546393884574e-15
  outer loop
    vertex 267.7949915680679 447.3440849083015 12.627224407819162
    vertex 265.10697602043643 447.38721246334416 15.627224407819154
    vertex 265.10697602043643 447.38721246334416 12.627224407819158
  endloop
endfacet
facet normal -0.6494480483307489 0.7604059655995481 1.7618228586505818e-15
  outer loop
    vertex 264.525998637547 447.55090866745746 12.627224407819156
    vertex 264.1289870566224 447.21182874428405 15.627224407819151
    vertex 264.525998637547 447.55090866745746 15.627224407819151
  endloop
endfacet
facet normal -0.6494480483307489 0.7604059655995481 1.7618228586505818e-15
  outer loop
    vertex 264.1289870566224 447.21182874428405 15.627224407819151
    vertex 264.525998637547 447.55090866745746 12.627224407819156
    vertex 264.1289870566224 447.21182874428405 12.627224407819156
  endloop
endfacet
facet normal 5.384055238713018e-15 2.281467251336832e-15 1.0
  outer loop
    vertex 263.829334729699 446.4589517300868 15.627224407819151
    vertex 262.2500832434865 446.45895173008626 15.62722440781915
    vertex 263.03970898659344 443.8891698801746 15.62722440781915
  endloop
endfacet
facet normal 5.384055238713018e-15 2.281467251336832e-15 1.0
  outer loop
    vertex 262.2500832434865 446.45895173008626 15.62722440781915
    vertex 260.97244195274806 447.3872124633423 15.62722440781919
    vertex 260.1007827251307 444.84408490829867 15.627224407819188
  endloop
endfacet
facet normal 5.384055238713018e-15 2.281467251336832e-15 1.0
  outer loop
    vertex 260.97244195274806 447.3872124633423 15.62722440781919
    vertex 262.2500832434865 446.45895173008626 15.62722440781915
    vertex 263.829334729699 446.4589517300868 15.627224407819151
  endloop
endfacet
facet normal 5.384055238713018e-15 2.281467251336832e-15 1.0
  outer loop
    vertex 260.97244195274806 447.3872124633423 15.62722440781919
    vertex 263.829334729699 446.4589517300868 15.627224407819151
    vertex 262.62388560495697 446.9328746787066 15.62722440781915
  endloop
endfacet
facet normal 5.384055238713018e-15 2.281467251336832e-15 1.0
  outer loop
    vertex 262.62388560495697 446.9328746787066 15.62722440781915
    vertex 263.829334729699 446.4589517300868 15.627224407819151
    vertex 263.1443808990784 446.8919108106653 15.62722440781915
  endloop
endfacet
facet normal 5.384055238713018e-15 2.281467251336832e-15 1.0
  outer loop
    vertex 260.97244195274806 447.3872124633423 15.62722440781919
    vertex 262.62388560495697 446.9328746787066 15.62722440781915
    vertex 262.13172798711327 447.10715683179717 15.62722440781915
  endloop
endfacet
facet normal 5.384055238713018e-15 2.281467251336832e-15 1.0
  outer loop
    vertex 260.97244195274806 447.3872124633423 15.62722440781919
    vertex 262.13172798711327 447.10715683179717 15.62722440781915
    vertex 261.7014477738744 447.4028802292191 15.62722440781915
  endloop
endfacet
facet normal 5.384055238713018e-15 2.281467251336832e-15 1.0
  outer loop
    vertex 260.97244195274806 447.3872124633423 15.62722440781919
    vertex 260.484426405116 448.8891698801733 15.62722440781919
    vertex 258.2844264051164 447.3440849082981 15.627224407819188
  endloop
endfacet
facet normal 5.384055238713018e-15 2.281467251336832e-15 1.0
  outer loop
    vertex 260.484426405116 448.8891698801733 15.62722440781919
    vertex 260.97244195274806 447.3872124633423 15.62722440781919
    vertex 261.3623678507011 447.7998918101436 15.627224407819146
  endloop
endfacet
facet normal 5.384055238713018e-15 2.281467251336832e-15 1.0
  outer loop
    vertex 261.3623678507011 447.7998918101436 15.627224407819146
    vertex 260.97244195274806 447.3872124633423 15.62722440781919
    vertex 261.7014477738744 447.4028802292191 15.62722440781915
  endloop
endfacet
facet normal 5.384055238713018e-15 2.281467251336832e-15 1.0
  outer loop
    vertex 260.484426405116 448.8891698801733 15.62722440781919
    vertex 261.3623678507011 447.7998918101436 15.627224407819146
    vertex 261.1375959540014 448.27113589142374 15.62722440781919
  endloop
endfacet
facet normal 5.384055238713018e-15 2.281467251336832e-15 1.0
  outer loop
    vertex 260.484426405116 448.8891698801733 15.62722440781919
    vertex 261.1375959540014 448.27113589142374 15.62722440781919
    vertex 261.04244991708237 448.78449796768774 15.627224407819146
  endloop
endfacet
facet normal 5.384055238713018e-15 2.281467251336832e-15 1.0
  outer loop
    vertex 260.484426405116 448.8891698801733 15.62722440781919
    vertex 261.04244991708237 448.78449796768774 15.627224407819146
    vertex 261.08341378512364 449.3049932618092 15.627224407819146
  endloop
endfacet
facet normal 5.384055238713018e-15 2.281467251336832e-15 1.0
  outer loop
    vertex 260.484426405116 448.8891698801733 15.62722440781919
    vertex 261.08341378512364 449.3049932618092 15.627224407819146
    vertex 258.28442640511525 450.43425485204756 15.627224407819188
  endloop
endfacet
facet normal 5.384055238713018e-15 2.281467251336832e-15 1.0
  outer loop
    vertex 258.28442640511525 450.43425485204756 15.627224407819188
    vertex 261.08341378512364 449.3049932618092 15.627224407819146
    vertex 261.2576959382143 449.7971508796528 15.627224407819146
  endloop
endfacet
facet normal 5.384055238713018e-15 2.281467251336832e-15 1.0
  outer loop
    vertex 258.28442640511525 450.43425485204756 15.627224407819188
    vertex 261.2576959382143 449.7971508796528 15.627224407819146
    vertex 261.5534193356361 450.2274310928915 15.627224407819146
  endloop
endfacet
facet normal 5.384055238713018e-15 2.281467251336832e-15 1.0
  outer loop
    vertex 258.28442640511525 450.43425485204756 15.627224407819188
    vertex 261.5534193356361 450.2274310928915 15.627224407819146
    vertex 260.97244195274664 450.39112729700486 15.627224407819146
  endloop
endfacet
facet normal 5.384055238713018e-15 2.281467251336832e-15 1.0
  outer loop
    vertex 265.10697602043643 447.38721246334416 15.627224407819154
    vertex 263.829334729699 446.4589517300868 15.627224407819151
    vertex 265.9786352480554 444.84408490830094 15.627224407819154
  endloop
endfacet
facet normal 5.384055238713018e-15 2.281467251336832e-15 1.0
  outer loop
    vertex 263.829334729699 446.4589517300868 15.627224407819151
    vertex 265.10697602043643 447.38721246334416 15.627224407819154
    vertex 263.65774297534233 446.98705684758437 15.627224407819151
  endloop
endfacet
facet normal 5.384055238713018e-15 2.281467251336832e-15 1.0
  outer loop
    vertex 263.829334729699 446.4589517300868 15.627224407819151
    vertex 263.65774297534233 446.98705684758437 15.627224407819151
    vertex 263.1443808990784 446.8919108106653 15.62722440781915
  endloop
endfacet
facet normal 5.384055238713018e-15 2.281467251336832e-15 1.0
  outer loop
    vertex 263.65774297534233 446.98705684758437 15.627224407819151
    vertex 265.10697602043643 447.38721246334416 15.627224407819154
    vertex 264.1289870566224 447.21182874428405 15.627224407819151
  endloop
endfacet
facet normal 5.384055238713018e-15 2.281467251336832e-15 1.0
  outer loop
    vertex 264.1289870566224 447.21182874428405 15.627224407819151
    vertex 265.10697602043643 447.38721246334416 15.627224407819154
    vertex 264.525998637547 447.55090866745746 15.627224407819151
  endloop
endfacet
facet normal 5.384055238713018e-15 2.281467251336832e-15 1.0
  outer loop
    vertex 265.59499156806737 448.8891698801758 15.627224407819154
    vertex 265.10697602043643 447.38721246334416 15.627224407819154
    vertex 267.7949915680679 447.3440849083015 15.627224407819156
  endloop
endfacet
facet normal 5.384055238713018e-15 2.281467251336832e-15 1.0
  outer loop
    vertex 265.10697602043643 447.38721246334416 15.627224407819154
    vertex 265.59499156806737 448.8891698801758 15.627224407819154
    vertex 264.525998637547 447.55090866745746 15.627224407819151
  endloop
endfacet
facet normal 5.384055238713018e-15 2.281467251336832e-15 1.0
  outer loop
    vertex 264.525998637547 447.55090866745746 15.627224407819151
    vertex 265.59499156806737 448.8891698801758 15.627224407819154
    vertex 264.8217220349688 447.98118888069615 15.627224407819151
  endloop
endfacet
facet normal 5.384055238713018e-15 2.281467251336832e-15 1.0
  outer loop
    vertex 264.8217220349688 447.98118888069615 15.627224407819151
    vertex 265.59499156806737 448.8891698801758 15.627224407819154
    vertex 264.9960041880595 448.47334649853985 15.627224407819151
  endloop
endfacet
facet normal 5.384055238713018e-15 2.281467251336832e-15 1.0
  outer loop
    vertex 264.9960041880595 448.47334649853985 15.627224407819151
    vertex 265.59499156806737 448.8891698801758 15.627224407819154
    vertex 265.03696805610076 448.9938417926613 15.627224407819151
  endloop
endfacet
facet normal 5.384055238713018e-15 2.281467251336832e-15 1.0
  outer loop
    vertex 265.03696805610076 448.9938417926613 15.627224407819151
    vertex 265.59499156806737 448.8891698801758 15.627224407819154
    vertex 267.7949915680668 450.43425485205097 15.627224407819112
  endloop
endfacet
facet normal 5.384055238713018e-15 2.281467251336832e-15 1.0
  outer loop
    vertex 265.03696805610076 448.9938417926613 15.627224407819151
    vertex 267.7949915680668 450.43425485205097 15.627224407819112
    vertex 264.94182201918164 449.5072038689253 15.627224407819151
  endloop
endfacet
facet normal 5.384055238713018e-15 2.281467251336832e-15 1.0
  outer loop
    vertex 264.94182201918164 449.5072038689253 15.627224407819151
    vertex 267.7949915680668 450.43425485205097 15.627224407819112
    vertex 264.71705012248196 449.97844795020535 15.627224407819151
  endloop
endfacet
facet normal 5.384055238713018e-15 2.281467251336832e-15 1.0
  outer loop
    vertex 264.71705012248196 449.97844795020535 15.627224407819151
    vertex 267.7949915680668 450.43425485205097 15.627224407819112
    vertex 264.37797019930866 450.3754595311299 15.627224407819151
  endloop
endfacet
facet normal 5.384055238713018e-15 2.281467251336832e-15 1.0
  outer loop
    vertex 264.37797019930866 450.3754595311299 15.627224407819151
    vertex 267.7949915680668 450.43425485205097 15.627224407819112
    vertex 265.10697602043507 450.39112729700696 15.627224407819154
  endloop
endfacet
facet normal 5.384055238713018e-15 2.281467251336832e-15 1.0
  outer loop
    vertex 265.10697602043507 450.39112729700696 15.627224407819154
    vertex 263.9476899860698 450.6711829285518 15.627224407819151
    vertex 264.37797019930866 450.3754595311299 15.627224407819151
  endloop
endfacet
facet normal 5.384055238713018e-15 2.281467251336832e-15 1.0
  outer loop
    vertex 263.9476899860698 450.6711829285518 15.627224407819151
    vertex 265.10697602043507 450.39112729700696 15.627224407819154
    vertex 265.9786352480525 452.9342548520504 15.627224407819154
  endloop
endfacet
facet normal 5.384055238713018e-15 2.281467251336832e-15 1.0
  outer loop
    vertex 263.9476899860698 450.6711829285518 15.627224407819151
    vertex 265.9786352480525 452.9342548520504 15.627224407819154
    vertex 263.4555323682261 450.8454650816425 15.62722440781915
  endloop
endfacet
facet normal 5.384055238713018e-15 2.281467251336832e-15 1.0
  outer loop
    vertex 263.4555323682261 450.8454650816425 15.62722440781915
    vertex 265.9786352480525 452.9342548520504 15.627224407819154
    vertex 263.8293347296968 451.3193880302627 15.627224407819151
  endloop
endfacet
facet normal 5.384055238713018e-15 2.281467251336832e-15 1.0
  outer loop
    vertex 263.4555323682261 450.8454650816425 15.62722440781915
    vertex 263.8293347296968 451.3193880302627 15.627224407819151
    vertex 262.93503707410474 450.88642894968365 15.62722440781915
  endloop
endfacet
facet normal 5.384055238713018e-15 2.281467251336832e-15 1.0
  outer loop
    vertex 262.93503707410474 450.88642894968365 15.62722440781915
    vertex 263.8293347296968 451.3193880302627 15.627224407819151
    vertex 262.2500832434841 451.31938803026225 15.62722440781915
  endloop
endfacet
facet normal 5.384055238713018e-15 2.281467251336832e-15 1.0
  outer loop
    vertex 263.0397089865898 453.88916988017445 15.62722440781915
    vertex 262.2500832434841 451.31938803026225 15.62722440781915
    vertex 263.8293347296968 451.3193880302627 15.627224407819151
  endloop
endfacet
facet normal 5.384055238713018e-15 2.281467251336832e-15 1.0
  outer loop
    vertex 261.9504309165606 450.566511016065 15.62722440781915
    vertex 260.97244195274664 450.39112729700486 15.627224407819146
    vertex 261.5534193356361 450.2274310928915 15.627224407819146
  endloop
endfacet
facet normal 5.384055238713018e-15 2.281467251336832e-15 1.0
  outer loop
    vertex 260.97244195274664 450.39112729700486 15.627224407819146
    vertex 261.9504309165606 450.566511016065 15.62722440781915
    vertex 260.1007827251278 452.9342548520481 15.627224407819142
  endloop
endfacet
facet normal 5.384055238713018e-15 2.281467251336832e-15 1.0
  outer loop
    vertex 260.1007827251278 452.9342548520481 15.627224407819142
    vertex 261.9504309165606 450.566511016065 15.62722440781915
    vertex 262.4216749978407 450.7912829127646 15.62722440781915
  endloop
endfacet
facet normal 5.384055238713018e-15 2.281467251336832e-15 1.0
  outer loop
    vertex 260.1007827251278 452.9342548520481 15.627224407819142
    vertex 262.4216749978407 450.7912829127646 15.62722440781915
    vertex 262.2500832434841 451.31938803026225 15.62722440781915
  endloop
endfacet
facet normal 5.384055238713018e-15 2.281467251336832e-15 1.0
  outer loop
    vertex 262.2500832434841 451.31938803026225 15.62722440781915
    vertex 262.4216749978407 450.7912829127646 15.62722440781915
    vertex 262.93503707410474 450.88642894968365 15.62722440781915
  endloop
endfacet
endsolid Design - Rolled
