solid Design - Rolled
facet normal 2.117776038962013e-33 -1.0 0.0
  outer loop
    vertex -10.537818948688482 -60.816276809226785 176.00000019986837
    vertex -23.797818948688455 -60.816276809226785 169.00000019986834
    vertex -10.537818948688457 -60.816276809226785 169.00000019986837
  endloop
endfacet
facet normal 2.117776038962013e-33 -1.0 0.0
  outer loop
    vertex -23.797818948688455 -60.816276809226785 169.00000019986834
    vertex -10.537818948688482 -60.816276809226785 176.00000019986837
    vertex -23.79781894868846 -60.816276809226785 176.0000001998683
  endloop
endfacet
facet normal -3.402674488745578e-15 0.0 1.0
  outer loop
    vertex -10.537818948688482 -51.60627680922679 176.00000019986837
    vertex -12.537818948688475 -53.606276809226785 176.00000019986834
    vertex -10.537818948688482 -60.816276809226785 176.00000019986837
  endloop
endfacet
facet normal -3.402674488745578e-15 0.0 1.0
  outer loop
    vertex -12.537818948688475 -53.606276809226785 176.00000019986834
    vertex -10.537818948688482 -51.60627680922679 176.00000019986837
    vertex -23.79781894868846 -51.60627680922679 176.0000001998683
  endloop
endfacet
facet normal -3.402674488745578e-15 0.0 1.0
  outer loop
    vertex -12.537818948688475 -53.606276809226785 176.00000019986834
    vertex -23.79781894868846 -51.60627680922679 176.0000001998683
    vertex -21.797818948688462 -53.606276809226785 176.0000001998683
  endloop
endfacet
facet normal -3.402674488745578e-15 0.0 1.0
  outer loop
    vertex -21.797818948688462 -53.606276809226785 176.0000001998683
    vertex -23.79781894868846 -51.60627680922679 176.0000001998683
    vertex -21.797818948688462 -58.81627680922679 176.0000001998683
  endloop
endfacet
facet normal -3.402674488745578e-15 0.0 1.0
  outer loop
    vertex -10.537818948688482 -60.816276809226785 176.00000019986837
    vertex -12.537818948688475 -58.81627680922679 176.0000001998683
    vertex -23.79781894868846 -60.816276809226785 176.0000001998683
  endloop
endfacet
facet normal -3.402674488745578e-15 0.0 1.0
  outer loop
    vertex -12.537818948688475 -58.81627680922679 176.0000001998683
    vertex -10.537818948688482 -60.816276809226785 176.00000019986837
    vertex -12.537818948688475 -53.606276809226785 176.00000019986834
  endloop
endfacet
facet normal -3.402674488745578e-15 0.0 1.0
  outer loop
    vertex -23.79781894868846 -60.816276809226785 176.0000001998683
    vertex -12.537818948688475 -58.81627680922679 176.0000001998683
    vertex -21.797818948688462 -58.81627680922679 176.0000001998683
  endloop
endfacet
facet normal -3.402674488745578e-15 0.0 1.0
  outer loop
    vertex -23.79781894868846 -60.816276809226785 176.0000001998683
    vertex -21.797818948688462 -58.81627680922679 176.0000001998683
    vertex -23.79781894868846 -51.60627680922679 176.0000001998683
  endloop
endfacet
facet normal 2.117776038962013e-33 -1.0 0.0
  outer loop
    vertex -13.537818948688454 -53.606276809226785 169.00000019986837
    vertex -20.797818948688462 -53.606276809226785 170.00000019986828
    vertex -20.797818948688462 -53.606276809226785 169.00000019986828
  endloop
endfacet
facet normal 2.117776038962013e-33 -1.0 0.0
  outer loop
    vertex -20.797818948688462 -53.606276809226785 170.00000019986828
    vertex -13.537818948688454 -53.606276809226785 169.00000019986837
    vertex -13.537818948688452 -53.606276809226785 170.00000019986837
  endloop
endfacet
facet normal 2.117776038962013e-33 -1.0 0.0
  outer loop
    vertex -12.537818948688475 -53.606276809226785 176.00000019986834
    vertex -13.287818948688455 -53.606276809226785 169.0000001998683
    vertex -12.537818948688455 -53.606276809226785 169.0000001998683
  endloop
endfacet
facet normal 2.117776038962013e-33 -1.0 0.0
  outer loop
    vertex -13.287818948688455 -53.606276809226785 169.0000001998683
    vertex -12.537818948688475 -53.606276809226785 176.00000019986834
    vertex -13.287818948688448 -53.606276809226785 170.0000001998683
  endloop
endfacet
facet normal 2.117776038962013e-33 -1.0 0.0
  outer loop
    vertex -13.287818948688448 -53.606276809226785 170.0000001998683
    vertex -12.537818948688475 -53.606276809226785 176.00000019986834
    vertex -13.537818948688452 -53.606276809226785 170.00000019986837
  endloop
endfacet
facet normal 2.117776038962013e-33 -1.0 0.0
  outer loop
    vertex -21.047818948688455 -53.606276809226785 170.00000019986825
    vertex -21.797818948688455 -53.606276809226785 169.00000019986834
    vertex -21.047818948688455 -53.606276809226785 169.00000019986828
  endloop
endfacet
facet normal 2.117776038962013e-33 -1.0 0.0
  outer loop
    vertex -21.797818948688455 -53.606276809226785 169.00000019986834
    vertex -21.047818948688455 -53.606276809226785 170.00000019986825
    vertex -21.797818948688462 -53.606276809226785 176.0000001998683
  endloop
endfacet
facet normal 2.117776038962013e-33 -1.0 0.0
  outer loop
    vertex -21.797818948688462 -53.606276809226785 176.0000001998683
    vertex -21.047818948688455 -53.606276809226785 170.00000019986825
    vertex -20.797818948688462 -53.606276809226785 170.00000019986828
  endloop
endfacet
facet normal 2.117776038962013e-33 -1.0 0.0
  outer loop
    vertex -21.797818948688462 -53.606276809226785 176.0000001998683
    vertex -20.797818948688462 -53.606276809226785 170.00000019986828
    vertex -13.537818948688452 -53.606276809226785 170.00000019986837
  endloop
endfacet
facet normal 2.117776038962013e-33 -1.0 0.0
  outer loop
    vertex -21.797818948688462 -53.606276809226785 176.0000001998683
    vertex -13.537818948688452 -53.606276809226785 170.00000019986837
    vertex -12.537818948688475 -53.606276809226785 176.00000019986834
  endloop
endfacet
facet normal -1.0 -4.1799562471908475e-33 -2.6232246349282784e-16
  outer loop
    vertex -23.797818948688455 -60.816276809226785 169.00000019986834
    vertex -23.79781894868846 -51.60627680922679 176.0000001998683
    vertex -23.797818948688455 -51.60627680922679 169.00000019986834
  endloop
endfacet
facet normal -1.0 -4.1799562471908475e-33 -2.6232246349282784e-16
  outer loop
    vertex -23.79781894868846 -51.60627680922679 176.0000001998683
    vertex -23.797818948688455 -60.816276809226785 169.00000019986834
    vertex -23.79781894868846 -60.816276809226785 176.0000001998683
  endloop
endfacet
facet normal 1.0 -6.186094376176641e-32 3.672514488899594e-15
  outer loop
    vertex -10.537818948688482 -60.816276809226785 176.00000019986837
    vertex -10.537818948688457 -51.60627680922679 169.00000019986837
    vertex -10.537818948688482 -51.60627680922679 176.00000019986837
  endloop
endfacet
facet normal 1.0 -6.186094376176641e-32 3.672514488899594e-15
  outer loop
    vertex -10.537818948688457 -51.60627680922679 169.00000019986837
    vertex -10.537818948688482 -60.816276809226785 176.00000019986837
    vertex -10.537818948688457 -60.816276809226785 169.00000019986837
  endloop
endfacet
facet normal -2.117776038962013e-33 1.0 0.0
  outer loop
    vertex -21.797818948688455 -58.81627680922679 169.00000019986834
    vertex -21.047818948688455 -58.81627680922679 170.00000019986825
    vertex -21.047818948688455 -58.81627680922679 169.00000019986828
  endloop
endfacet
facet normal -2.117776038962013e-33 1.0 0.0
  outer loop
    vertex -21.047818948688455 -58.81627680922679 170.00000019986825
    vertex -21.797818948688455 -58.81627680922679 169.00000019986834
    vertex -21.797818948688462 -58.81627680922679 176.0000001998683
  endloop
endfacet
facet normal -2.117776038962013e-33 1.0 0.0
  outer loop
    vertex -21.047818948688455 -58.81627680922679 170.00000019986825
    vertex -21.797818948688462 -58.81627680922679 176.0000001998683
    vertex -20.797818948688462 -58.81627680922679 170.00000019986828
  endloop
endfacet
facet normal -2.117776038962013e-33 1.0 0.0
  outer loop
    vertex -20.797818948688462 -58.81627680922679 170.00000019986828
    vertex -21.797818948688462 -58.81627680922679 176.0000001998683
    vertex -13.537818948688454 -58.81627680922679 170.00000019986837
  endloop
endfacet
facet normal -2.117776038962013e-33 1.0 0.0
  outer loop
    vertex -13.537818948688454 -58.81627680922679 170.00000019986837
    vertex -21.797818948688462 -58.81627680922679 176.0000001998683
    vertex -13.287818948688455 -58.81627680922679 170.00000019986837
  endloop
endfacet
facet normal -2.117776038962013e-33 1.0 0.0
  outer loop
    vertex -13.287818948688455 -58.81627680922679 170.00000019986837
    vertex -21.797818948688462 -58.81627680922679 176.0000001998683
    vertex -12.537818948688475 -58.81627680922679 176.0000001998683
  endloop
endfacet
facet normal -2.117776038962013e-33 1.0 0.0
  outer loop
    vertex -13.287818948688455 -58.81627680922679 169.00000019986837
    vertex -12.537818948688475 -58.81627680922679 176.0000001998683
    vertex -12.537818948688455 -58.81627680922679 169.0000001998683
  endloop
endfacet
facet normal -2.117776038962013e-33 1.0 0.0
  outer loop
    vertex -12.537818948688475 -58.81627680922679 176.0000001998683
    vertex -13.287818948688455 -58.81627680922679 169.00000019986837
    vertex -13.287818948688455 -58.81627680922679 170.00000019986837
  endloop
endfacet
facet normal -2.117776038962013e-33 1.0 0.0
  outer loop
    vertex -20.797818948688462 -58.81627680922679 170.00000019986828
    vertex -13.537818948688454 -58.81627680922679 169.00000019986837
    vertex -20.797818948688462 -58.81627680922679 169.00000019986828
  endloop
endfacet
facet normal -2.117776038962013e-33 1.0 0.0
  outer loop
    vertex -13.537818948688454 -58.81627680922679 169.00000019986837
    vertex -20.797818948688462 -58.81627680922679 170.00000019986828
    vertex -13.537818948688454 -58.81627680922679 170.00000019986837
  endloop
endfacet
facet normal -2.117776038962013e-33 1.0 0.0
  outer loop
    vertex -23.797818948688455 -51.60627680922679 169.00000019986834
    vertex -10.537818948688482 -51.60627680922679 176.00000019986837
    vertex -10.537818948688457 -51.60627680922679 169.00000019986837
  endloop
endfacet
facet normal -2.117776038962013e-33 1.0 0.0
  outer loop
    vertex -10.537818948688482 -51.60627680922679 176.00000019986837
    vertex -23.797818948688455 -51.60627680922679 169.00000019986834
    vertex -23.79781894868846 -51.60627680922679 176.0000001998683
  endloop
endfacet
facet normal 3.402674488745578e-15 0.0 -1.0
  outer loop
    vertex -10.537818948688457 -60.816276809226785 169.00000019986837
    vertex -12.537818948688455 -58.81627680922679 169.0000001998683
    vertex -10.537818948688457 -51.60627680922679 169.00000019986837
  endloop
endfacet
facet normal 3.402674488745578e-15 0.0 -1.0
  outer loop
    vertex -12.537818948688455 -58.81627680922679 169.0000001998683
    vertex -10.537818948688457 -60.816276809226785 169.00000019986837
    vertex -23.797818948688455 -60.816276809226785 169.00000019986834
  endloop
endfacet
facet normal 3.402674488745578e-15 0.0 -1.0
  outer loop
    vertex -12.537818948688455 -58.81627680922679 169.0000001998683
    vertex -23.797818948688455 -60.816276809226785 169.00000019986834
    vertex -13.287818948688455 -58.81627680922679 169.00000019986837
  endloop
endfacet
facet normal 3.402674488745578e-15 0.0 -1.0
  outer loop
    vertex -13.287818948688455 -58.81627680922679 169.00000019986837
    vertex -23.797818948688455 -60.816276809226785 169.00000019986834
    vertex -13.537818948688454 -58.81627680922679 169.00000019986837
  endloop
endfacet
facet normal 3.402674488745578e-15 0.0 -1.0
  outer loop
    vertex -13.287818948688455 -58.81627680922679 169.00000019986837
    vertex -13.537818948688454 -58.81627680922679 169.00000019986837
    vertex -13.287818948688455 -53.606276809226785 169.0000001998683
  endloop
endfacet
facet normal 3.402674488745578e-15 0.0 -1.0
  outer loop
    vertex -13.537818948688454 -58.81627680922679 169.00000019986837
    vertex -23.797818948688455 -60.816276809226785 169.00000019986834
    vertex -20.797818948688462 -58.81627680922679 169.00000019986828
  endloop
endfacet
facet normal 3.402674488745578e-15 0.0 -1.0
  outer loop
    vertex -20.797818948688462 -58.81627680922679 169.00000019986828
    vertex -23.797818948688455 -60.816276809226785 169.00000019986834
    vertex -21.047818948688455 -58.81627680922679 169.00000019986828
  endloop
endfacet
facet normal 3.402674488745578e-15 0.0 -1.0
  outer loop
    vertex -20.797818948688462 -58.81627680922679 169.00000019986828
    vertex -21.047818948688455 -58.81627680922679 169.00000019986828
    vertex -20.797818948688462 -53.606276809226785 169.00000019986828
  endloop
endfacet
facet normal 3.402674488745578e-15 0.0 -1.0
  outer loop
    vertex -21.047818948688455 -58.81627680922679 169.00000019986828
    vertex -23.797818948688455 -60.816276809226785 169.00000019986834
    vertex -21.797818948688455 -58.81627680922679 169.00000019986834
  endloop
endfacet
facet normal 3.402674488745578e-15 0.0 -1.0
  outer loop
    vertex -21.797818948688455 -58.81627680922679 169.00000019986834
    vertex -23.797818948688455 -60.816276809226785 169.00000019986834
    vertex -21.797818948688455 -53.606276809226785 169.00000019986834
  endloop
endfacet
facet normal 3.402674488745578e-15 0.0 -1.0
  outer loop
    vertex -10.537818948688457 -51.60627680922679 169.00000019986837
    vertex -12.537818948688455 -53.606276809226785 169.0000001998683
    vertex -23.797818948688455 -51.60627680922679 169.00000019986834
  endloop
endfacet
facet normal 3.402674488745578e-15 0.0 -1.0
  outer loop
    vertex -12.537818948688455 -53.606276809226785 169.0000001998683
    vertex -10.537818948688457 -51.60627680922679 169.00000019986837
    vertex -12.537818948688455 -58.81627680922679 169.0000001998683
  endloop
endfacet
facet normal 3.402674488745578e-15 0.0 -1.0
  outer loop
    vertex -23.797818948688455 -51.60627680922679 169.00000019986834
    vertex -12.537818948688455 -53.606276809226785 169.0000001998683
    vertex -13.287818948688455 -53.606276809226785 169.0000001998683
  endloop
endfacet
facet normal 3.402674488745578e-15 0.0 -1.0
  outer loop
    vertex -23.797818948688455 -51.60627680922679 169.00000019986834
    vertex -13.287818948688455 -53.606276809226785 169.0000001998683
    vertex -13.537818948688454 -53.606276809226785 169.00000019986837
  endloop
endfacet
facet normal 3.402674488745578e-15 0.0 -1.0
  outer loop
    vertex -13.537818948688454 -53.606276809226785 169.00000019986837
    vertex -13.287818948688455 -53.606276809226785 169.0000001998683
    vertex -13.537818948688454 -58.81627680922679 169.00000019986837
  endloop
endfacet
facet normal 3.402674488745578e-15 0.0 -1.0
  outer loop
    vertex -23.797818948688455 -51.60627680922679 169.00000019986834
    vertex -13.537818948688454 -53.606276809226785 169.00000019986837
    vertex -20.797818948688462 -53.606276809226785 169.00000019986828
  endloop
endfacet
facet normal 3.402674488745578e-15 0.0 -1.0
  outer loop
    vertex -23.797818948688455 -51.60627680922679 169.00000019986834
    vertex -20.797818948688462 -53.606276809226785 169.00000019986828
    vertex -21.047818948688455 -53.606276809226785 169.00000019986828
  endloop
endfacet
facet normal 3.402674488745578e-15 0.0 -1.0
  outer loop
    vertex -21.047818948688455 -53.606276809226785 169.00000019986828
    vertex -20.797818948688462 -53.606276809226785 169.00000019986828
    vertex -21.047818948688455 -58.81627680922679 169.00000019986828
  endloop
endfacet
facet normal 3.402674488745578e-15 0.0 -1.0
  outer loop
    vertex -23.797818948688455 -51.60627680922679 169.00000019986834
    vertex -21.047818948688455 -53.606276809226785 169.00000019986828
    vertex -21.797818948688455 -53.606276809226785 169.00000019986834
  endloop
endfacet
facet normal 3.402674488745578e-15 0.0 -1.0
  outer loop
    vertex -23.797818948688455 -51.60627680922679 169.00000019986834
    vertex -21.797818948688455 -53.606276809226785 169.00000019986834
    vertex -23.797818948688455 -60.816276809226785 169.00000019986834
  endloop
endfacet
facet normal 0.0 0.0 1.0
  outer loop
    vertex -13.537818948688452 -53.606276809226785 170.00000019986837
    vertex -13.287818948688455 -58.81627680922679 170.00000019986837
    vertex -13.287818948688448 -53.606276809226785 170.0000001998683
  endloop
endfacet
facet normal 0.0 0.0 1.0
  outer loop
    vertex -13.287818948688455 -58.81627680922679 170.00000019986837
    vertex -13.537818948688452 -53.606276809226785 170.00000019986837
    vertex -13.537818948688454 -58.81627680922679 170.00000019986837
  endloop
endfacet
facet normal 1.0 -2.4706070259965784e-33 3.402674488745578e-15
  outer loop
    vertex -20.797818948688462 -58.81627680922679 170.00000019986828
    vertex -20.797818948688462 -53.606276809226785 169.00000019986828
    vertex -20.797818948688462 -53.606276809226785 170.00000019986828
  endloop
endfacet
facet normal 1.0 -2.4706070259965784e-33 3.402674488745578e-15
  outer loop
    vertex -20.797818948688462 -53.606276809226785 169.00000019986828
    vertex -20.797818948688462 -58.81627680922679 170.00000019986828
    vertex -20.797818948688462 -58.81627680922679 169.00000019986828
  endloop
endfacet
facet normal 6.941455957041186e-15 0.0 1.0
  outer loop
    vertex -21.047818948688455 -53.606276809226785 170.00000019986825
    vertex -20.797818948688462 -58.81627680922679 170.00000019986828
    vertex -20.797818948688462 -53.606276809226785 170.00000019986828
  endloop
endfacet
facet normal 6.941455957041186e-15 0.0 1.0
  outer loop
    vertex -20.797818948688462 -58.81627680922679 170.00000019986828
    vertex -21.047818948688455 -53.606276809226785 170.00000019986825
    vertex -21.047818948688455 -58.81627680922679 170.00000019986825
  endloop
endfacet
facet normal -1.0 2.4706070259965784e-33 -3.402674488745578e-15
  outer loop
    vertex -13.537818948688454 -58.81627680922679 169.00000019986837
    vertex -13.537818948688452 -53.606276809226785 170.00000019986837
    vertex -13.537818948688454 -53.606276809226785 169.00000019986837
  endloop
endfacet
facet normal -1.0 2.4706070259965784e-33 -3.402674488745578e-15
  outer loop
    vertex -13.537818948688452 -53.606276809226785 170.00000019986837
    vertex -13.537818948688454 -58.81627680922679 169.00000019986837
    vertex -13.537818948688454 -58.81627680922679 170.00000019986837
  endloop
endfacet
facet normal -1.0 1.2879150053652941e-33 -3.1150792539773237e-15
  outer loop
    vertex -12.537818948688455 -58.81627680922679 169.0000001998683
    vertex -12.537818948688475 -53.606276809226785 176.00000019986834
    vertex -12.537818948688455 -53.606276809226785 169.0000001998683
  endloop
endfacet
facet normal -1.0 1.2879150053652941e-33 -3.1150792539773237e-15
  outer loop
    vertex -12.537818948688475 -53.606276809226785 176.00000019986834
    vertex -12.537818948688455 -58.81627680922679 169.0000001998683
    vertex -12.537818948688475 -58.81627680922679 176.0000001998683
  endloop
endfacet
facet normal -1.0 2.117776038962013e-33 0.0
  outer loop
    vertex -21.047818948688455 -58.81627680922679 169.00000019986828
    vertex -21.047818948688455 -53.606276809226785 170.00000019986825
    vertex -21.047818948688455 -53.606276809226785 169.00000019986828
  endloop
endfacet
facet normal -1.0 2.117776038962013e-33 0.0
  outer loop
    vertex -21.047818948688455 -53.606276809226785 170.00000019986825
    vertex -21.047818948688455 -58.81627680922679 169.00000019986828
    vertex -21.047818948688455 -58.81627680922679 170.00000019986825
  endloop
endfacet
facet normal 1.0 -3.6464468435663127e-32 6.230158507954672e-16
  outer loop
    vertex -21.797818948688462 -58.81627680922679 176.0000001998683
    vertex -21.797818948688455 -53.606276809226785 169.00000019986834
    vertex -21.797818948688462 -53.606276809226785 176.0000001998683
  endloop
endfacet
facet normal 1.0 -3.6464468435663127e-32 6.230158507954672e-16
  outer loop
    vertex -21.797818948688455 -53.606276809226785 169.00000019986834
    vertex -21.797818948688462 -58.81627680922679 176.0000001998683
    vertex -21.797818948688455 -58.81627680922679 169.00000019986834
  endloop
endfacet
facet normal 1.0 -2.117776038962013e-33 0.0
  outer loop
    vertex -13.287818948688455 -58.81627680922679 170.00000019986837
    vertex -13.287818948688455 -53.606276809226785 169.0000001998683
    vertex -13.287818948688448 -53.606276809226785 170.0000001998683
  endloop
endfacet
facet normal 1.0 -2.117776038962013e-33 0.0
  outer loop
    vertex -13.287818948688455 -53.606276809226785 169.0000001998683
    vertex -13.287818948688455 -58.81627680922679 170.00000019986837
    vertex -13.287818948688455 -58.81627680922679 169.00000019986837
  endloop
endfacet
endsolid Design - Rolled
