solid Design - Rolled
facet normal 1.0 -4.494308653396984e-31 3.413766343794188e-30
  outer loop
    vertex 178.13205628490593 1434.3797577548921 122.06242881304982
    vertex 178.13205628490593 1434.2619556933023 122.95722430685896
    vertex 178.13205628490593 1432.7619556933018 122.30459334575964
  endloop
endfacet
facet normal 1.0 -4.494308653396984e-31 3.413766343794188e-30
  outer loop
    vertex 178.13205628490593 1434.725135923842 121.22861215342449
    vertex 178.13205628490593 1434.3797577548921 122.06242881304982
    vertex 178.13205628490593 1433.0997823376144 121.04380714503445
  endloop
endfacet
facet normal 1.0 -4.494308653396984e-31 3.413766343794188e-30
  outer loop
    vertex 178.13205628490593 1434.3797577548921 122.06242881304982
    vertex 178.13205628490593 1434.725135923842 121.22861215342449
    vertex 178.13205628490593 1434.3797577548924 123.85201980066796
  endloop
endfacet
facet normal 1.0 -4.494308653396984e-31 3.413766343794188e-30
  outer loop
    vertex 178.13205628490593 1435.2745532487008 120.51259755538902
    vertex 178.13205628490593 1434.725135923842 121.22861215342449
    vertex 178.13205628490593 1433.7524132987146 119.91341716181617
  endloop
endfacet
facet normal 1.0 -4.494308653396984e-31 3.413766343794188e-30
  outer loop
    vertex 178.13205628490593 1434.725135923842 121.22861215342449
    vertex 178.13205628490593 1435.2745532487008 120.51259755538902
    vertex 178.13205628490593 1434.725135923842 124.6858364602941
  endloop
endfacet
facet normal 1.0 -4.494308653396984e-31 3.413766343794188e-30
  outer loop
    vertex 178.13205628490593 1434.725135923842 124.6858364602941
    vertex 178.13205628490593 1435.2745532487017 125.40185105832951
    vertex 178.13205628490593 1433.7524132987155 126.00103145190333
  endloop
endfacet
facet normal 1.0 -4.494308653396984e-31 3.413766343794188e-30
  outer loop
    vertex 178.13205628490593 1435.2745532487017 125.40185105832951
    vertex 178.13205628490593 1434.725135923842 124.6858364602941
    vertex 178.13205628490593 1435.2745532487008 120.51259755538902
  endloop
endfacet
facet normal 1.0 -4.494308653396984e-31 3.413766343794188e-30
  outer loop
    vertex 178.13205628490593 1435.2745532487017 125.40185105832951
    vertex 178.13205628490593 1435.2745532487008 120.51259755538902
    vertex 178.13205628490593 1435.48842906208 122.66354037436433
  endloop
endfacet
facet normal 1.0 -4.494308653396984e-31 3.413766343794188e-30
  outer loop
    vertex 178.13205628490593 1435.2745532487017 125.40185105832951
    vertex 178.13205628490593 1435.48842906208 122.66354037436433
    vertex 178.13205628490593 1435.4884290620803 123.25090823935459
  endloop
endfacet
facet normal 1.0 -4.494308653396984e-31 3.413766343794188e-30
  outer loop
    vertex 178.13205628490593 1435.2745532487017 125.40185105832951
    vertex 178.13205628490593 1435.4884290620803 123.25090823935459
    vertex 178.13205628490593 1435.640451052021 123.8182620296809
  endloop
endfacet
facet normal 1.0 -4.494308653396984e-31 3.413766343794188e-30
  outer loop
    vertex 178.13205628490593 1435.2745532487017 125.40185105832951
    vertex 178.13205628490593 1435.9905678467373 125.95126838318889
    vertex 178.13205628490593 1434.6753728551287 126.92399100831575
  endloop
endfacet
facet normal 1.0 -4.494308653396984e-31 3.413766343794188e-30
  outer loop
    vertex 178.13205628490593 1435.9905678467373 125.95126838318889
    vertex 178.13205628490593 1435.2745532487017 125.40185105832951
    vertex 178.13205628490593 1435.640451052021 123.8182620296809
  endloop
endfacet
facet normal 1.0 -4.494308653396984e-31 3.413766343794188e-30
  outer loop
    vertex 178.13205628490593 1435.9905678467373 125.95126838318889
    vertex 178.13205628490593 1435.640451052021 123.8182620296809
    vertex 178.13205628490593 1435.9341349845163 124.32693752212901
  endloop
endfacet
facet normal 1.0 -4.494308653396984e-31 3.413766343794188e-30
  outer loop
    vertex 178.13205628490593 1435.9905678467373 125.95126838318889
    vertex 178.13205628490593 1435.9341349845163 124.32693752212901
    vertex 178.13205628490593 1436.3494667849018 124.74226932251459
  endloop
endfacet
facet normal 1.0 -4.494308653396984e-31 3.413766343794188e-30
  outer loop
    vertex 178.13205628490593 1435.9905678467373 125.95126838318889
    vertex 178.13205628490593 1436.3494667849018 124.74226932251459
    vertex 178.13205628490593 1435.8057628383465 127.57662196941577
  endloop
endfacet
facet normal 1.0 -4.494308653396984e-31 3.413766343794188e-30
  outer loop
    vertex 178.13205628490593 1435.8057628383465 127.57662196941577
    vertex 178.13205628490593 1436.3494667849018 124.74226932251459
    vertex 178.13205628490593 1436.8243845063628 126.29664655213826
  endloop
endfacet
facet normal 1.0 -4.494308653396984e-31 3.413766343794188e-30
  outer loop
    vertex 178.13205628490593 1436.8243845063628 126.29664655213826
    vertex 178.13205628490593 1436.3494667849018 124.74226932251459
    vertex 178.13205628490593 1436.8581422773502 125.03595325500963
  endloop
endfacet
facet normal 1.0 -4.494308653396984e-31 3.413766343794188e-30
  outer loop
    vertex 178.13205628490593 1436.8243845063628 126.29664655213826
    vertex 178.13205628490593 1436.8581422773502 125.03595325500963
    vertex 178.13205628490593 1437.4254960676762 125.18797524495018
  endloop
endfacet
facet normal 1.0 -4.494308653396984e-31 3.413766343794188e-30
  outer loop
    vertex 178.13205628490593 1436.8243845063628 126.29664655213826
    vertex 178.13205628490593 1437.4254960676762 125.18797524495018
    vertex 178.13205628490593 1437.0665490390718 127.91444861372814
  endloop
endfacet
facet normal 1.0 -4.494308653396984e-31 3.413766343794188e-30
  outer loop
    vertex 178.13205628490593 1437.0665490390718 127.91444861372814
    vertex 178.13205628490593 1437.4254960676762 125.18797524495018
    vertex 178.13205628490593 1438.0128639326667 125.18797524495008
  endloop
endfacet
facet normal 1.0 -4.494308653396984e-31 3.413766343794188e-30
  outer loop
    vertex 178.13205628490593 1437.0665490390718 127.91444861372814
    vertex 178.13205628490593 1438.0128639326667 125.18797524495008
    vertex 178.13205628490593 1437.7191800001717 126.41444861372791
  endloop
endfacet
facet normal 1.0 -4.494308653396984e-31 3.413766343794188e-30
  outer loop
    vertex 178.13205628490593 1437.7191800001717 126.41444861372791
    vertex 178.13205628490593 1438.0128639326667 125.18797524495008
    vertex 178.13205628490593 1438.3718109612726 127.91444861372794
  endloop
endfacet
facet normal 1.0 -4.494308653396984e-31 3.413766343794188e-30
  outer loop
    vertex 178.13205628490593 1438.3718109612726 127.91444861372794
    vertex 178.13205628490593 1438.0128639326667 125.18797524495008
    vertex 178.13205628490593 1438.580217722993 125.03595325500929
  endloop
endfacet
facet normal 1.0 -4.494308653396984e-31 3.413766343794188e-30
  outer loop
    vertex 178.13205628490593 1438.3718109612726 127.91444861372794
    vertex 178.13205628490593 1438.580217722993 125.03595325500929
    vertex 178.13205628490593 1438.6139754939802 126.29664655213797
  endloop
endfacet
facet normal 1.0 -4.494308653396984e-31 3.413766343794188e-30
  outer loop
    vertex 178.13205628490593 1438.6139754939802 126.29664655213797
    vertex 178.13205628490593 1438.580217722993 125.03595325500929
    vertex 178.13205628490593 1439.088893215441 124.74226932251403
  endloop
endfacet
facet normal 1.0 -4.494308653396984e-31 3.413766343794188e-30
  outer loop
    vertex 178.13205628490593 1438.6139754939802 126.29664655213797
    vertex 178.13205628490593 1439.088893215441 124.74226932251403
    vertex 178.13205628490593 1439.6325971619974 127.57662196941509
  endloop
endfacet
facet normal 1.0 -4.494308653396984e-31 3.413766343794188e-30
  outer loop
    vertex 178.13205628490593 1439.6325971619974 127.57662196941509
    vertex 178.13205628490593 1439.088893215441 124.74226932251403
    vertex 178.13205628490593 1439.447792153606 125.95126838318842
  endloop
endfacet
facet normal 1.0 -4.494308653396984e-31 3.413766343794188e-30
  outer loop
    vertex 178.13205628490593 1439.447792153606 125.95126838318842
    vertex 178.13205628490593 1439.088893215441 124.74226932251403
    vertex 178.13205628490593 1439.5042250158267 124.32693752212832
  endloop
endfacet
facet normal 1.0 -4.494308653396984e-31 3.413766343794188e-30
  outer loop
    vertex 178.13205628490593 1435.9905678467364 119.96318023052952
    vertex 178.13205628490593 1435.2745532487008 120.51259755538902
    vertex 178.13205628490593 1434.6753728551269 118.99045760540349
  endloop
endfacet
facet normal 1.0 -4.494308653396984e-31 3.413766343794188e-30
  outer loop
    vertex 178.13205628490593 1435.2745532487008 120.51259755538902
    vertex 178.13205628490593 1435.9905678467364 119.96318023052952
    vertex 178.13205628490593 1435.48842906208 122.66354037436433
  endloop
endfacet
facet normal 1.0 -4.494308653396984e-31 3.413766343794188e-30
  outer loop
    vertex 178.13205628490593 1435.48842906208 122.66354037436433
    vertex 178.13205628490593 1435.9905678467364 119.96318023052952
    vertex 178.13205628490593 1435.6404510520206 122.09618658403797
  endloop
endfacet
facet normal 1.0 -4.494308653396984e-31 3.413766343794188e-30
  outer loop
    vertex 178.13205628490593 1435.6404510520206 122.09618658403797
    vertex 178.13205628490593 1435.9905678467364 119.96318023052952
    vertex 178.13205628490593 1435.9341349845156 121.58751109158975
  endloop
endfacet
facet normal 1.0 -4.494308653396984e-31 3.413766343794188e-30
  outer loop
    vertex 178.13205628490593 1434.3797577548924 123.85201980066796
    vertex 178.13205628490593 1434.725135923842 124.6858364602941
    vertex 178.13205628490593 1433.0997823376151 124.87064146868532
  endloop
endfacet
facet normal 1.0 -4.494308653396984e-31 3.413766343794188e-30
  outer loop
    vertex 178.13205628490593 1434.725135923842 124.6858364602941
    vertex 178.13205628490593 1434.3797577548924 123.85201980066796
    vertex 178.13205628490593 1434.725135923842 121.22861215342449
  endloop
endfacet
facet normal 1.0 -4.494308653396984e-31 3.413766343794188e-30
  outer loop
    vertex 178.13205628490593 1434.2619556933023 122.95722430685896
    vertex 178.13205628490593 1434.3797577548924 123.85201980066796
    vertex 178.13205628490593 1432.7619556933023 123.60985526796017
  endloop
endfacet
facet normal 1.0 -4.494308653396984e-31 3.413766343794188e-30
  outer loop
    vertex 178.13205628490593 1434.3797577548924 123.85201980066796
    vertex 178.13205628490593 1434.2619556933023 122.95722430685896
    vertex 178.13205628490593 1434.3797577548921 122.06242881304982
  endloop
endfacet
facet normal 1.0 -4.494308653396984e-31 3.413766343794188e-30
  outer loop
    vertex 178.13205628490593 1436.8243845063619 119.61780206158028
    vertex 178.13205628490593 1435.9905678467364 119.96318023052952
    vertex 178.13205628490593 1435.805762838345 118.33782664430302
  endloop
endfacet
facet normal 1.0 -4.494308653396984e-31 3.413766343794188e-30
  outer loop
    vertex 178.13205628490593 1435.9905678467364 119.96318023052952
    vertex 178.13205628490593 1436.8243845063619 119.61780206158028
    vertex 178.13205628490593 1435.9341349845156 121.58751109158975
  endloop
endfacet
facet normal 1.0 -4.494308653396984e-31 3.413766343794188e-30
  outer loop
    vertex 178.13205628490593 1435.9341349845156 121.58751109158975
    vertex 178.13205628490593 1436.8243845063619 119.61780206158028
    vertex 178.13205628490593 1436.3494667849013 121.17217929120399
  endloop
endfacet
facet normal 1.0 -4.494308653396984e-31 3.413766343794188e-30
  outer loop
    vertex 178.13205628490593 1436.3494667849013 121.17217929120399
    vertex 178.13205628490593 1436.8243845063619 119.61780206158028
    vertex 178.13205628490593 1436.8581422773495 120.87849535870878
  endloop
endfacet
facet normal 1.0 -4.494308653396984e-31 3.413766343794188e-30
  outer loop
    vertex 178.13205628490593 1436.8581422773495 120.87849535870878
    vertex 178.13205628490593 1436.8243845063619 119.61780206158028
    vertex 178.13205628490593 1437.06654903907 117.9999999999902
  endloop
endfacet
facet normal 1.0 -4.494308653396984e-31 3.413766343794188e-30
  outer loop
    vertex 178.13205628490593 1436.8581422773495 120.87849535870878
    vertex 178.13205628490593 1437.06654903907 117.9999999999902
    vertex 178.13205628490593 1437.7191800001708 119.49999999999012
  endloop
endfacet
facet normal 1.0 -4.494308653396984e-31 3.413766343794188e-30
  outer loop
    vertex 178.13205628490593 1436.8581422773495 120.87849535870878
    vertex 178.13205628490593 1437.7191800001708 119.49999999999012
    vertex 178.13205628490593 1437.4254960676756 120.72647336876798
  endloop
endfacet
facet normal 1.0 -4.494308653396984e-31 3.413766343794188e-30
  outer loop
    vertex 178.13205628490593 1437.4254960676756 120.72647336876798
    vertex 178.13205628490593 1437.7191800001708 119.49999999999012
    vertex 178.13205628490593 1438.012863932666 120.72647336876788
  endloop
endfacet
facet normal 1.0 -4.494308653396984e-31 3.413766343794188e-30
  outer loop
    vertex 178.13205628490593 1438.012863932666 120.72647336876788
    vertex 178.13205628490593 1437.7191800001708 119.49999999999012
    vertex 178.13205628490593 1438.3718109612705 117.99999999998992
  endloop
endfacet
facet normal 1.0 -4.494308653396984e-31 3.413766343794188e-30
  outer loop
    vertex 178.13205628490593 1438.012863932666 120.72647336876788
    vertex 178.13205628490593 1438.3718109612705 117.99999999998992
    vertex 178.13205628490593 1438.61397549398 119.61780206157992
  endloop
endfacet
facet normal 1.0 -4.494308653396984e-31 3.413766343794188e-30
  outer loop
    vertex 178.13205628490593 1438.012863932666 120.72647336876788
    vertex 178.13205628490593 1438.61397549398 119.61780206157992
    vertex 178.13205628490593 1438.580217722992 120.87849535870846
  endloop
endfacet
facet normal 1.0 -4.494308653396984e-31 3.413766343794188e-30
  outer loop
    vertex 178.13205628490593 1438.580217722992 120.87849535870846
    vertex 178.13205628490593 1438.61397549398 119.61780206157992
    vertex 178.13205628490593 1439.6325971619958 118.3378266443023
  endloop
endfacet
facet normal 1.0 -4.494308653396984e-31 3.413766343794188e-30
  outer loop
    vertex 178.13205628490593 1438.580217722992 120.87849535870846
    vertex 178.13205628490593 1439.6325971619958 118.3378266443023
    vertex 178.13205628490593 1439.0888932154405 121.17217929120353
  endloop
endfacet
facet normal 1.0 -4.494308653396984e-31 3.413766343794188e-30
  outer loop
    vertex 178.13205628490593 1439.0888932154405 121.17217929120353
    vertex 178.13205628490593 1439.6325971619958 118.3378266443023
    vertex 178.13205628490593 1439.4477921536056 119.96318023052945
  endloop
endfacet
facet normal 1.0 -4.494308653396984e-31 3.413766343794188e-30
  outer loop
    vertex 178.13205628490593 1439.0888932154405 121.17217929120353
    vertex 178.13205628490593 1439.4477921536056 119.96318023052945
    vertex 178.13205628490593 1439.5042250158263 121.58751109158905
  endloop
endfacet
facet normal 1.0 -4.494308653396984e-31 3.413766343794188e-30
  outer loop
    vertex 178.13205628490593 1439.5042250158263 121.58751109158905
    vertex 178.13205628490593 1439.4477921536056 119.96318023052945
    vertex 178.13205628490593 1440.7629871452139 118.99045760540234
  endloop
endfacet
facet normal 1.0 -4.494308653396984e-31 3.413766343794188e-30
  outer loop
    vertex 178.13205628490593 1439.5042250158263 121.58751109158905
    vertex 178.13205628490593 1440.7629871452139 118.99045760540234
    vertex 178.13205628490593 1440.163806751641 120.5125975553888
  endloop
endfacet
facet normal 1.0 -4.494308653396984e-31 3.413766343794188e-30
  outer loop
    vertex 178.13205628490593 1439.5042250158263 121.58751109158905
    vertex 178.13205628490593 1440.163806751641 120.5125975553888
    vertex 178.13205628490593 1439.7979089483215 122.09618658403717
  endloop
endfacet
facet normal 1.0 -4.494308653396984e-31 3.413766343794188e-30
  outer loop
    vertex 178.13205628490593 1440.163806751641 120.5125975553888
    vertex 178.13205628490593 1439.9499309382622 122.66354037436348
    vertex 178.13205628490593 1439.7979089483215 122.09618658403717
  endloop
endfacet
facet normal 1.0 -4.494308653396984e-31 3.413766343794188e-30
  outer loop
    vertex 178.13205628490593 1439.9499309382622 122.66354037436348
    vertex 178.13205628490593 1440.163806751641 120.5125975553888
    vertex 178.13205628490593 1440.7132240765004 121.22861215342434
  endloop
endfacet
facet normal 1.0 -4.494308653396984e-31 3.413766343794188e-30
  outer loop
    vertex 178.13205628490593 1440.7132240765004 121.22861215342434
    vertex 178.13205628490593 1440.163806751641 120.5125975553888
    vertex 178.13205628490593 1441.6859467016268 119.9134171618147
  endloop
endfacet
facet normal 1.0 -4.494308653396984e-31 3.413766343794188e-30
  outer loop
    vertex 178.13205628490593 1439.9499309382622 122.66354037436348
    vertex 178.13205628490593 1440.7132240765004 121.22861215342434
    vertex 178.13205628490593 1439.9499309382625 123.25090823935373
  endloop
endfacet
facet normal 1.0 -4.494308653396984e-31 3.413766343794188e-30
  outer loop
    vertex 178.13205628490593 1439.9499309382625 123.25090823935373
    vertex 178.13205628490593 1440.7132240765004 121.22861215342434
    vertex 178.13205628490593 1440.1638067516415 125.40185105832877
  endloop
endfacet
facet normal 1.0 -4.494308653396984e-31 3.413766343794188e-30
  outer loop
    vertex 178.13205628490593 1440.7132240765004 121.22861215342434
    vertex 178.13205628490593 1441.0586022454502 122.06242881304979
    vertex 178.13205628490593 1440.7132240765009 124.68583646029319
  endloop
endfacet
facet normal 1.0 -4.494308653396984e-31 3.413766343794188e-30
  outer loop
    vertex 178.13205628490593 1441.0586022454502 122.06242881304979
    vertex 178.13205628490593 1440.7132240765004 121.22861215342434
    vertex 178.13205628490593 1442.3385776627272 121.04380714503276
  endloop
endfacet
facet normal 1.0 -4.494308653396984e-31 3.413766343794188e-30
  outer loop
    vertex 178.13205628490593 1441.0586022454502 122.06242881304979
    vertex 178.13205628490593 1441.1764043070402 122.95722430685872
    vertex 178.13205628490593 1441.05860224545 123.8520198006678
  endloop
endfacet
facet normal 1.0 -4.494308653396984e-31 3.413766343794188e-30
  outer loop
    vertex 178.13205628490593 1441.1764043070402 122.95722430685872
    vertex 178.13205628490593 1441.0586022454502 122.06242881304979
    vertex 178.13205628490593 1442.67640430704 122.3045933457579
  endloop
endfacet
facet normal 1.0 -4.494308653396984e-31 3.413766343794188e-30
  outer loop
    vertex 178.13205628490593 1442.6764043070402 123.60985526795842
    vertex 178.13205628490593 1441.05860224545 123.8520198006678
    vertex 178.13205628490593 1441.1764043070402 122.95722430685872
  endloop
endfacet
facet normal 1.0 -4.494308653396984e-31 3.413766343794188e-30
  outer loop
    vertex 178.13205628490593 1440.7132240765009 124.68583646029319
    vertex 178.13205628490593 1441.05860224545 123.8520198006678
    vertex 178.13205628490593 1442.3385776627279 124.87064146868362
  endloop
endfacet
facet normal 1.0 -4.494308653396984e-31 3.413766343794188e-30
  outer loop
    vertex 178.13205628490593 1441.05860224545 123.8520198006678
    vertex 178.13205628490593 1440.7132240765009 124.68583646029319
    vertex 178.13205628490593 1441.0586022454502 122.06242881304979
  endloop
endfacet
facet normal 1.0 -4.494308653396984e-31 3.413766343794188e-30
  outer loop
    vertex 178.13205628490593 1440.1638067516415 125.40185105832877
    vertex 178.13205628490593 1440.7132240765009 124.68583646029319
    vertex 178.13205628490593 1441.6859467016277 126.00103145190187
  endloop
endfacet
facet normal 1.0 -4.494308653396984e-31 3.413766343794188e-30
  outer loop
    vertex 178.13205628490593 1440.7132240765009 124.68583646029319
    vertex 178.13205628490593 1440.1638067516415 125.40185105832877
    vertex 178.13205628490593 1440.7132240765004 121.22861215342434
  endloop
endfacet
facet normal 1.0 -4.494308653396984e-31 3.413766343794188e-30
  outer loop
    vertex 178.13205628490593 1439.7979089483215 123.8182620296801
    vertex 178.13205628490593 1439.447792153606 125.95126838318842
    vertex 178.13205628490593 1439.5042250158267 124.32693752212832
  endloop
endfacet
facet normal 1.0 -4.494308653396984e-31 3.413766343794188e-30
  outer loop
    vertex 178.13205628490593 1439.447792153606 125.95126838318842
    vertex 178.13205628490593 1439.7979089483215 123.8182620296801
    vertex 178.13205628490593 1440.1638067516415 125.40185105832877
  endloop
endfacet
facet normal 1.0 -4.494308653396984e-31 3.413766343794188e-30
  outer loop
    vertex 178.13205628490593 1439.447792153606 125.95126838318842
    vertex 178.13205628490593 1440.1638067516415 125.40185105832877
    vertex 178.13205628490593 1440.7629871452154 126.92399100831462
  endloop
endfacet
facet normal 1.0 -4.494308653396984e-31 3.413766343794188e-30
  outer loop
    vertex 178.13205628490593 1440.1638067516415 125.40185105832877
    vertex 178.13205628490593 1439.7979089483215 123.8182620296801
    vertex 178.13205628490593 1439.9499309382625 123.25090823935373
  endloop
endfacet
facet normal 0.0 0.11297350218933203 0.9935980011066232
  outer loop
    vertex 178.13205628490593 1433.0997823376151 124.87064146868532
    vertex 175.13205628490593 1434.725135923842 124.6858364602941
    vertex 175.13205628490593 1433.0997823376151 124.87064146868532
  endloop
endfacet
facet normal 0.0 0.11297350218933203 0.9935980011066232
  outer loop
    vertex 175.13205628490593 1434.725135923842 124.6858364602941
    vertex 178.13205628490593 1433.0997823376151 124.87064146868532
    vertex 178.13205628490593 1434.725135923842 124.6858364602941
  endloop
endfacet
facet normal 0.0 -0.8039943590133463 -0.5946369234034483
  outer loop
    vertex 178.13205628490593 1433.7524132987155 126.00103145190333
    vertex 175.13205628490593 1434.725135923842 124.6858364602941
    vertex 178.13205628490593 1434.725135923842 124.6858364602941
  endloop
endfacet
facet normal 0.0 -0.8039943590133463 -0.5946369234034483
  outer loop
    vertex 175.13205628490593 1434.725135923842 124.6858364602941
    vertex 178.13205628490593 1433.7524132987155 126.00103145190333
    vertex 175.13205628490593 1433.7524132987155 126.00103145190333
  endloop
endfacet
facet normal 0.0 0.3662861093132054 0.930502276259545
  outer loop
    vertex 178.13205628490593 1433.7524132987155 126.00103145190333
    vertex 175.13205628490593 1435.2745532487017 125.40185105832951
    vertex 175.13205628490593 1433.7524132987155 126.00103145190333
  endloop
endfacet
facet normal 0.0 0.3662861093132054 0.930502276259545
  outer loop
    vertex 175.13205628490593 1435.2745532487017 125.40185105832951
    vertex 178.13205628490593 1433.7524132987155 126.00103145190333
    vertex 178.13205628490593 1435.2745532487017 125.40185105832951
  endloop
endfacet
facet normal 0.0 -0.9305022762596757 -0.3662861093128734
  outer loop
    vertex 178.13205628490593 1434.6753728551287 126.92399100831575
    vertex 175.13205628490593 1435.2745532487017 125.40185105832951
    vertex 178.13205628490593 1435.2745532487017 125.40185105832951
  endloop
endfacet
facet normal 0.0 -0.9305022762596757 -0.3662861093128734
  outer loop
    vertex 175.13205628490593 1435.2745532487017 125.40185105832951
    vertex 178.13205628490593 1434.6753728551287 126.92399100831575
    vertex 175.13205628490593 1434.6753728551287 126.92399100831575
  endloop
endfacet
facet normal 2.70652216282362e-15 0.5946369234037882 0.8039943590130951
  outer loop
    vertex 178.13205628490593 1434.6753728551287 126.92399100831575
    vertex 175.13205628490593 1435.9905678467373 125.95126838318892
    vertex 175.13205628490593 1434.6753728551287 126.92399100831575
  endloop
endfacet
facet normal 2.70652216282362e-15 0.5946369234037882 0.8039943590130951
  outer loop
    vertex 175.13205628490593 1435.9905678467373 125.95126838318892
    vertex 178.13205628490593 1434.6753728551287 126.92399100831575
    vertex 178.13205628490593 1435.9905678467373 125.95126838318889
  endloop
endfacet
facet normal 6.651971703727015e-17 -0.9935980011066625 -0.11297350218898508
  outer loop
    vertex 178.13205628490593 1435.8057628383465 127.57662196941577
    vertex 175.13205628490593 1435.9905678467373 125.95126838318892
    vertex 178.13205628490593 1435.9905678467373 125.95126838318889
  endloop
endfacet
facet normal 6.651971703727015e-17 -0.9935980011066625 -0.11297350218898508
  outer loop
    vertex 175.13205628490593 1435.9905678467373 125.95126838318892
    vertex 178.13205628490593 1435.8057628383465 127.57662196941577
    vertex 175.13205628490593 1435.8057628383465 127.57662196941577
  endloop
endfacet
facet normal 0.0 0.7824642138483938 0.6226955548633819
  outer loop
    vertex 175.13205628490593 1435.8057628383465 127.57662196941577
    vertex 178.13205628490593 1436.8243845063628 126.29664655213826
    vertex 175.13205628490593 1436.8243845063628 126.29664655213826
  endloop
endfacet
facet normal 0.0 0.7824642138483938 0.6226955548633819
  outer loop
    vertex 178.13205628490593 1436.8243845063628 126.29664655213826
    vertex 175.13205628490593 1435.8057628383465 127.57662196941577
    vertex 178.13205628490593 1435.8057628383465 127.57662196941577
  endloop
endfacet
facet normal 0.0 -0.9889816641765432 0.1480380624116495
  outer loop
    vertex 178.13205628490593 1437.0665490390718 127.91444861372814
    vertex 175.13205628490593 1436.8243845063628 126.29664655213826
    vertex 178.13205628490593 1436.8243845063628 126.29664655213826
  endloop
endfacet
facet normal 0.0 -0.9889816641765432 0.1480380624116495
  outer loop
    vertex 175.13205628490593 1436.8243845063628 126.29664655213826
    vertex 178.13205628490593 1437.0665490390718 127.91444861372814
    vertex 175.13205628490593 1437.0665490390718 127.91444861372814
  endloop
endfacet
facet normal 0.0 0.916967861202448 0.3989610777028355
  outer loop
    vertex 175.13205628490593 1437.0665490390718 127.91444861372814
    vertex 178.13205628490593 1437.7191800001717 126.41444861372791
    vertex 175.13205628490593 1437.7191800001717 126.41444861372791
  endloop
endfacet
facet normal 0.0 0.916967861202448 0.3989610777028355
  outer loop
    vertex 178.13205628490593 1437.7191800001717 126.41444861372791
    vertex 175.13205628490593 1437.0665490390718 127.91444861372814
    vertex 178.13205628490593 1437.0665490390718 127.91444861372814
  endloop
endfacet
facet normal 0.0 -0.9169678612022851 0.39896107770321
  outer loop
    vertex 178.13205628490593 1438.3718109612726 127.91444861372794
    vertex 175.13205628490593 1437.7191800001717 126.41444861372791
    vertex 178.13205628490593 1437.7191800001717 126.41444861372791
  endloop
endfacet
facet normal 0.0 -0.9169678612022851 0.39896107770321
  outer loop
    vertex 175.13205628490593 1437.7191800001717 126.41444861372791
    vertex 178.13205628490593 1438.3718109612726 127.91444861372794
    vertex 175.13205628490593 1438.3718109612726 127.91444861372794
  endloop
endfacet
facet normal 0.0 0.9889816641766472 0.148038062410954
  outer loop
    vertex 175.13205628490593 1438.3718109612726 127.91444861372794
    vertex 178.13205628490593 1438.6139754939802 126.29664655213797
    vertex 175.13205628490593 1438.6139754939802 126.29664655213797
  endloop
endfacet
facet normal 0.0 0.9889816641766472 0.148038062410954
  outer loop
    vertex 178.13205628490593 1438.6139754939802 126.29664655213797
    vertex 175.13205628490593 1438.3718109612726 127.91444861372794
    vertex 178.13205628490593 1438.3718109612726 127.91444861372794
  endloop
endfacet
facet normal 0.0 -0.7824642138480363 0.6226955548638312
  outer loop
    vertex 178.13205628490593 1438.6139754939802 126.29664655213797
    vertex 175.13205628490593 1439.6325971619974 127.57662196941509
    vertex 175.13205628490593 1438.6139754939802 126.29664655213797
  endloop
endfacet
facet normal 0.0 -0.7824642138480363 0.6226955548638312
  outer loop
    vertex 175.13205628490593 1439.6325971619974 127.57662196941509
    vertex 178.13205628490593 1438.6139754939802 126.29664655213797
    vertex 178.13205628490593 1439.6325971619974 127.57662196941509
  endloop
endfacet
facet normal 0.0 0.9935980011066174 -0.11297350218938176
  outer loop
    vertex 175.13205628490593 1439.6325971619974 127.57662196941509
    vertex 178.13205628490593 1439.447792153606 125.95126838318842
    vertex 175.13205628490593 1439.447792153606 125.95126838318842
  endloop
endfacet
facet normal 0.0 0.9935980011066174 -0.11297350218938176
  outer loop
    vertex 178.13205628490593 1439.447792153606 125.95126838318842
    vertex 175.13205628490593 1439.6325971619974 127.57662196941509
    vertex 178.13205628490593 1439.6325971619974 127.57662196941509
  endloop
endfacet
facet normal 0.0 -0.5946369234034204 0.803994359013367
  outer loop
    vertex 178.13205628490593 1439.447792153606 125.95126838318842
    vertex 175.13205628490593 1440.7629871452154 126.92399100831462
    vertex 175.13205628490593 1439.447792153606 125.95126838318842
  endloop
endfacet
facet normal 0.0 -0.5946369234034204 0.803994359013367
  outer loop
    vertex 175.13205628490593 1440.7629871452154 126.92399100831462
    vertex 178.13205628490593 1439.447792153606 125.95126838318842
    vertex 178.13205628490593 1440.7629871452154 126.92399100831462
  endloop
endfacet
facet normal 0.0 0.9305022762595082 -0.36628610931329875
  outer loop
    vertex 175.13205628490593 1440.7629871452154 126.92399100831462
    vertex 178.13205628490593 1440.1638067516415 125.40185105832877
    vertex 175.13205628490593 1440.1638067516415 125.40185105832877
  endloop
endfacet
facet normal 0.0 0.9305022762595082 -0.36628610931329875
  outer loop
    vertex 178.13205628490593 1440.1638067516415 125.40185105832877
    vertex 175.13205628490593 1440.7629871452154 126.92399100831462
    vertex 178.13205628490593 1440.7629871452154 126.92399100831462
  endloop
endfacet
facet normal 0.0 -0.3662861093127241 0.9305022762597346
  outer loop
    vertex 178.13205628490593 1440.1638067516415 125.40185105832877
    vertex 175.13205628490593 1441.6859467016277 126.00103145190187
    vertex 175.13205628490593 1440.1638067516415 125.40185105832877
  endloop
endfacet
facet normal 0.0 -0.3662861093127241 0.9305022762597346
  outer loop
    vertex 175.13205628490593 1441.6859467016277 126.00103145190187
    vertex 178.13205628490593 1440.1638067516415 125.40185105832877
    vertex 178.13205628490593 1441.6859467016277 126.00103145190187
  endloop
endfacet
facet normal 0.0 0.8039943590129992 -0.5946369234039175
  outer loop
    vertex 175.13205628490593 1441.6859467016277 126.00103145190187
    vertex 178.13205628490593 1440.7132240765009 124.68583646029319
    vertex 175.13205628490593 1440.7132240765009 124.68583646029319
  endloop
endfacet
facet normal 0.0 0.8039943590129992 -0.5946369234039175
  outer loop
    vertex 178.13205628490593 1440.7132240765009 124.68583646029319
    vertex 175.13205628490593 1441.6859467016277 126.00103145190187
    vertex 178.13205628490593 1441.6859467016277 126.00103145190187
  endloop
endfacet
facet normal 0.0 -0.11297350218883671 0.9935980011066794
  outer loop
    vertex 178.13205628490593 1440.7132240765009 124.68583646029319
    vertex 175.13205628490593 1442.3385776627279 124.87064146868362
    vertex 175.13205628490593 1440.7132240765009 124.68583646029319
  endloop
endfacet
facet normal 0.0 -0.11297350218883671 0.9935980011066794
  outer loop
    vertex 175.13205628490593 1442.3385776627279 124.87064146868362
    vertex 178.13205628490593 1440.7132240765009 124.68583646029319
    vertex 178.13205628490593 1442.3385776627279 124.87064146868362
  endloop
endfacet
facet normal 8.950820431487784e-19 0.6226955548631875 -0.7824642138485485
  outer loop
    vertex 175.13205628490593 1442.3385776627279 124.87064146868362
    vertex 178.13205628490593 1441.05860224545 123.8520198006678
    vertex 175.1320562849059 1441.05860224545 123.8520198006678
  endloop
endfacet
facet normal 8.950820431487784e-19 0.6226955548631875 -0.7824642138485485
  outer loop
    vertex 178.13205628490593 1441.05860224545 123.8520198006678
    vertex 175.13205628490593 1442.3385776627279 124.87064146868362
    vertex 178.13205628490593 1442.3385776627279 124.87064146868362
  endloop
endfacet
facet normal 7.703246687621651e-19 0.14803806241171094 0.988981664176534
  outer loop
    vertex 178.13205628490593 1441.05860224545 123.8520198006678
    vertex 175.13205628490593 1442.6764043070402 123.60985526795842
    vertex 175.1320562849059 1441.05860224545 123.8520198006678
  endloop
endfacet
facet normal 7.703246687621651e-19 0.14803806241171094 0.988981664176534
  outer loop
    vertex 175.13205628490593 1442.6764043070402 123.60985526795842
    vertex 178.13205628490593 1441.05860224545 123.8520198006678
    vertex 178.13205628490593 1442.6764043070402 123.60985526795842
  endloop
endfacet
facet normal 0.0 -0.14803806241075038 0.9889816641766778
  outer loop
    vertex 178.13205628490593 1432.7619556933023 123.60985526796017
    vertex 175.13205628490593 1434.3797577548924 123.85201980066796
    vertex 175.13205628490593 1432.7619556933023 123.60985526796017
  endloop
endfacet
facet normal 0.0 -0.14803806241075038 0.9889816641766778
  outer loop
    vertex 175.13205628490593 1434.3797577548924 123.85201980066796
    vertex 178.13205628490593 1432.7619556933023 123.60985526796017
    vertex 178.13205628490593 1434.3797577548924 123.85201980066796
  endloop
endfacet
facet normal 0.0 -0.6226955548640123 -0.7824642138478923
  outer loop
    vertex 178.13205628490593 1433.0997823376151 124.87064146868532
    vertex 175.13205628490593 1434.3797577548924 123.85201980066796
    vertex 178.13205628490593 1434.3797577548924 123.85201980066796
  endloop
endfacet
facet normal 0.0 -0.6226955548640123 -0.7824642138478923
  outer loop
    vertex 175.13205628490593 1434.3797577548924 123.85201980066796
    vertex 178.13205628490593 1433.0997823376151 124.87064146868532
    vertex 175.13205628490593 1433.0997823376151 124.87064146868532
  endloop
endfacet
facet normal 0.0 -0.39896107770250056 0.9169678612025938
  outer loop
    vertex 178.13205628490593 1432.7619556933018 122.30459334575964
    vertex 175.13205628490593 1434.2619556933023 122.95722430685896
    vertex 175.13205628490593 1432.7619556933018 122.30459334575964
  endloop
endfacet
facet normal 0.0 -0.39896107770250056 0.9169678612025938
  outer loop
    vertex 175.13205628490593 1434.2619556933023 122.95722430685896
    vertex 178.13205628490593 1432.7619556933018 122.30459334575964
    vertex 178.13205628490593 1434.2619556933023 122.95722430685896
  endloop
endfacet
facet normal 0.0 -0.3989610777035807 -0.9169678612021239
  outer loop
    vertex 178.13205628490593 1434.2619556933023 122.95722430685896
    vertex 175.13205628490593 1432.7619556933023 123.60985526796017
    vertex 175.13205628490593 1434.2619556933023 122.95722430685896
  endloop
endfacet
facet normal 0.0 -0.3989610777035807 -0.9169678612021239
  outer loop
    vertex 175.13205628490593 1432.7619556933023 123.60985526796017
    vertex 178.13205628490593 1434.2619556933023 122.95722430685896
    vertex 178.13205628490593 1432.7619556933023 123.60985526796017
  endloop
endfacet
facet normal 0.0 -0.6226955548630916 0.782464213848625
  outer loop
    vertex 178.13205628490593 1433.0997823376144 121.04380714503445
    vertex 175.13205628490593 1434.3797577548921 122.06242881304982
    vertex 175.13205628490593 1433.0997823376144 121.04380714503445
  endloop
endfacet
facet normal 0.0 -0.6226955548630916 0.782464213848625
  outer loop
    vertex 175.13205628490593 1434.3797577548921 122.06242881304982
    vertex 178.13205628490593 1433.0997823376144 121.04380714503445
    vertex 178.13205628490593 1434.3797577548921 122.06242881304982
  endloop
endfacet
facet normal 0.0 -0.8039943590128381 0.5946369234041353
  outer loop
    vertex 178.13205628490593 1434.725135923842 121.22861215342449
    vertex 175.13205628490593 1433.7524132987146 119.91341716181617
    vertex 178.13205628490593 1433.7524132987146 119.91341716181617
  endloop
endfacet
facet normal 0.0 -0.8039943590128381 0.5946369234041353
  outer loop
    vertex 175.13205628490593 1433.7524132987146 119.91341716181617
    vertex 178.13205628490593 1434.725135923842 121.22861215342449
    vertex 175.13205628490593 1434.725135923842 121.22861215342449
  endloop
endfacet
facet normal 0.0 0.11297350218855096 -0.993598001106712
  outer loop
    vertex 178.13205628490593 1434.725135923842 121.22861215342449
    vertex 175.13205628490593 1433.0997823376144 121.04380714503445
    vertex 175.13205628490593 1434.725135923842 121.22861215342449
  endloop
endfacet
facet normal 0.0 0.11297350218855096 -0.993598001106712
  outer loop
    vertex 175.13205628490593 1433.0997823376144 121.04380714503445
    vertex 178.13205628490593 1434.725135923842 121.22861215342449
    vertex 178.13205628490593 1433.0997823376144 121.04380714503445
  endloop
endfacet
facet normal 0.0 -0.9305022762594387 0.36628610931347566
  outer loop
    vertex 178.13205628490593 1435.2745532487008 120.51259755538902
    vertex 175.13205628490593 1434.6753728551269 118.99045760540349
    vertex 178.13205628490593 1434.6753728551269 118.99045760540349
  endloop
endfacet
facet normal 1.884809297856134e-17 -0.6087614290090836 -0.7933533402909568
  outer loop
    vertex 175.13205628490593 1434.6753728551269 118.99045760540349
    vertex 178.13205628490593 1435.2745532487008 120.51259755538902
    vertex 175.13205628490593 1435.2745532487008 120.51259755538902
  endloop
endfacet
facet normal 0.0 0.366286109312525 -0.9305022762598129
  outer loop
    vertex 178.13205628490593 1435.2745532487008 120.51259755538902
    vertex 175.13205628490593 1433.7524132987146 119.91341716181617
    vertex 175.13205628490593 1435.2745532487008 120.51259755538902
  endloop
endfacet
facet normal 0.0 0.366286109312525 -0.9305022762598129
  outer loop
    vertex 175.13205628490593 1433.7524132987146 119.91341716181617
    vertex 178.13205628490593 1435.2745532487008 120.51259755538902
    vertex 178.13205628490593 1433.7524132987146 119.91341716181617
  endloop
endfacet
facet normal -1.7714706083238996e-18 -0.9935980011065904 0.11297350218962102
  outer loop
    vertex 178.13205628490593 1435.9905678467364 119.96318023052952
    vertex 175.13205628490593 1435.805762838345 118.33782664430302
    vertex 178.13205628490593 1435.805762838345 118.33782664430302
  endloop
endfacet
facet normal -1.7714706083238996e-18 -0.9935980011065904 0.11297350218962102
  outer loop
    vertex 175.13205628490593 1435.805762838345 118.33782664430302
    vertex 178.13205628490593 1435.9905678467364 119.96318023052952
    vertex 175.1320562849059 1435.9905678467364 119.96318023052952
  endloop
endfacet
facet normal 1.0398854292090857e-17 0.5946369234032567 -0.8039943590134879
  outer loop
    vertex 178.13205628490593 1435.9905678467364 119.96318023052952
    vertex 175.13205628490593 1434.6753728551269 118.99045760540349
    vertex 175.1320562849059 1435.9905678467364 119.96318023052952
  endloop
endfacet
facet normal 1.884809297856134e-17 -0.6087614290090836 -0.7933533402909568
  outer loop
    vertex 175.13205628490593 1434.6753728551269 118.99045760540349
    vertex 178.13205628490593 1435.9905678467364 119.96318023052952
    vertex 178.13205628490593 1434.6753728551269 118.99045760540349
  endloop
endfacet
facet normal 0.0 -0.9889816641766638 -0.1480380624108434
  outer loop
    vertex 178.13205628490593 1436.8243845063619 119.61780206158028
    vertex 175.13205628490593 1437.06654903907 117.9999999999902
    vertex 178.13205628490593 1437.06654903907 117.9999999999902
  endloop
endfacet
facet normal 0.0 -0.9889816641766638 -0.1480380624108434
  outer loop
    vertex 175.13205628490593 1437.06654903907 117.9999999999902
    vertex 178.13205628490593 1436.8243845063619 119.61780206158028
    vertex 175.13205628490593 1436.8243845063619 119.61780206158028
  endloop
endfacet
facet normal 0.0 0.7824642138480259 -0.6226955548638444
  outer loop
    vertex 178.13205628490593 1436.8243845063619 119.61780206158028
    vertex 175.13205628490593 1435.805762838345 118.33782664430302
    vertex 175.13205628490593 1436.8243845063619 119.61780206158028
  endloop
endfacet
facet normal 0.0 0.7824642138480259 -0.6226955548638444
  outer loop
    vertex 175.13205628490593 1435.805762838345 118.33782664430302
    vertex 178.13205628490593 1436.8243845063619 119.61780206158028
    vertex 178.13205628490593 1435.805762838345 118.33782664430302
  endloop
endfacet
facet normal 0.0 -0.9169678612025688 -0.39896107770255784
  outer loop
    vertex 178.13205628490593 1437.7191800001708 119.49999999999012
    vertex 175.13205628490593 1438.3718109612705 117.99999999998992
    vertex 178.13205628490593 1438.3718109612705 117.99999999998992
  endloop
endfacet
facet normal 0.0 -0.9169678612025688 -0.39896107770255784
  outer loop
    vertex 175.13205628490593 1438.3718109612705 117.99999999998992
    vertex 178.13205628490593 1437.7191800001708 119.49999999999012
    vertex 175.13205628490593 1437.7191800001708 119.49999999999012
  endloop
endfacet
facet normal 0.0 0.9169678612021608 -0.39896107770349587
  outer loop
    vertex 175.13205628490593 1437.7191800001708 119.49999999999012
    vertex 178.13205628490593 1437.06654903907 117.9999999999902
    vertex 175.13205628490593 1437.06654903907 117.9999999999902
  endloop
endfacet
facet normal 0.0 0.9169678612021608 -0.39896107770349587
  outer loop
    vertex 178.13205628490593 1437.06654903907 117.9999999999902
    vertex 175.13205628490593 1437.7191800001708 119.49999999999012
    vertex 178.13205628490593 1437.7191800001708 119.49999999999012
  endloop
endfacet
facet normal 0.0 -0.7824642138485204 -0.6226955548632229
  outer loop
    vertex 178.13205628490593 1438.61397549398 119.61780206157992
    vertex 175.13205628490593 1439.6325971619958 118.3378266443023
    vertex 178.13205628490593 1439.6325971619958 118.3378266443023
  endloop
endfacet
facet normal 0.0 -0.7824642138485204 -0.6226955548632229
  outer loop
    vertex 175.13205628490593 1439.6325971619958 118.3378266443023
    vertex 178.13205628490593 1438.61397549398 119.61780206157992
    vertex 175.13205628490593 1438.61397549398 119.61780206157992
  endloop
endfacet
facet normal 0.0 0.9889816641765128 -0.14803806241185155
  outer loop
    vertex 175.13205628490593 1438.61397549398 119.61780206157992
    vertex 178.13205628490593 1438.3718109612705 117.99999999998992
    vertex 175.13205628490593 1438.3718109612705 117.99999999998992
  endloop
endfacet
facet normal 0.0 0.9889816641765128 -0.14803806241185155
  outer loop
    vertex 178.13205628490593 1438.3718109612705 117.99999999998992
    vertex 175.13205628490593 1438.61397549398 119.61780206157992
    vertex 178.13205628490593 1438.61397549398 119.61780206157992
  endloop
endfacet
facet normal 0.0 -0.5946369234040487 -0.8039943590129024
  outer loop
    vertex 178.13205628490593 1440.7629871452139 118.99045760540234
    vertex 175.13205628490593 1439.4477921536056 119.96318023052945
    vertex 175.13205628490593 1440.7629871452139 118.99045760540234
  endloop
endfacet
facet normal 0.0 -0.5946369234040487 -0.8039943590129024
  outer loop
    vertex 175.13205628490593 1439.4477921536056 119.96318023052945
    vertex 178.13205628490593 1440.7629871452139 118.99045760540234
    vertex 178.13205628490593 1439.4477921536056 119.96318023052945
  endloop
endfacet
facet normal 0.0 0.9935980011066998 0.11297350218865859
  outer loop
    vertex 175.13205628490593 1439.4477921536056 119.96318023052945
    vertex 178.13205628490593 1439.6325971619958 118.3378266443023
    vertex 175.13205628490593 1439.6325971619958 118.3378266443023
  endloop
endfacet
facet normal 0.0 0.9935980011066998 0.11297350218865859
  outer loop
    vertex 178.13205628490593 1439.6325971619958 118.3378266443023
    vertex 175.13205628490593 1439.4477921536056 119.96318023052945
    vertex 178.13205628490593 1439.4477921536056 119.96318023052945
  endloop
endfacet
facet normal 0.0 0.930502276259765 0.3662861093126464
  outer loop
    vertex 175.13205628490593 1440.163806751641 120.5125975553888
    vertex 178.13205628490593 1440.7629871452139 118.99045760540234
    vertex 175.13205628490593 1440.7629871452139 118.99045760540234
  endloop
endfacet
facet normal 0.0 0.930502276259765 0.3662861093126464
  outer loop
    vertex 178.13205628490593 1440.7629871452139 118.99045760540234
    vertex 175.13205628490593 1440.163806751641 120.5125975553888
    vertex 178.13205628490593 1440.163806751641 120.5125975553888
  endloop
endfacet
facet normal 1.7714706083783152e-18 -0.11297350218951818 -0.993598001106602
  outer loop
    vertex 178.13205628490593 1442.3385776627272 121.04380714503276
    vertex 175.13205628490596 1440.7132240765004 121.22861215342434
    vertex 175.13205628490593 1442.3385776627272 121.04380714503276
  endloop
endfacet
facet normal 1.7714706083783152e-18 -0.11297350218951818 -0.993598001106602
  outer loop
    vertex 175.13205628490596 1440.7132240765004 121.22861215342434
    vertex 178.13205628490593 1442.3385776627272 121.04380714503276
    vertex 178.13205628490593 1440.7132240765004 121.22861215342434
  endloop
endfacet
facet normal 3.4340366193998427e-19 0.14803806241097056 -0.9889816641766447
  outer loop
    vertex 178.13205628490593 1442.67640430704 122.3045933457579
    vertex 175.13205628490596 1441.0586022454502 122.06242881304979
    vertex 175.13205628490593 1442.67640430704 122.3045933457579
  endloop
endfacet
facet normal 3.4340366193998427e-19 0.14803806241097056 -0.9889816641766447
  outer loop
    vertex 175.13205628490596 1441.0586022454502 122.06242881304979
    vertex 178.13205628490593 1442.67640430704 122.3045933457579
    vertex 178.13205628490593 1441.0586022454502 122.06242881304979
  endloop
endfacet
facet normal -7.806386286109766e-18 0.6226955548639544 0.7824642138479383
  outer loop
    vertex 175.13205628490596 1441.0586022454502 122.06242881304979
    vertex 178.13205628490593 1442.3385776627272 121.04380714503276
    vertex 175.13205628490593 1442.3385776627272 121.04380714503276
  endloop
endfacet
facet normal -7.806386286109766e-18 0.6226955548639544 0.7824642138479383
  outer loop
    vertex 178.13205628490593 1442.3385776627272 121.04380714503276
    vertex 175.13205628490596 1441.0586022454502 122.06242881304979
    vertex 178.13205628490593 1441.0586022454502 122.06242881304979
  endloop
endfacet
facet normal 0.0 0.3989610777026794 -0.9169678612025159
  outer loop
    vertex 178.13205628490593 1442.6764043070402 123.60985526795842
    vertex 175.13205628490593 1441.1764043070402 122.95722430685872
    vertex 175.13205628490593 1442.6764043070402 123.60985526795842
  endloop
endfacet
facet normal 0.0 0.3989610777026794 -0.9169678612025159
  outer loop
    vertex 175.13205628490593 1441.1764043070402 122.95722430685872
    vertex 178.13205628490593 1442.6764043070402 123.60985526795842
    vertex 178.13205628490593 1441.1764043070402 122.95722430685872
  endloop
endfacet
facet normal 0.0 0.3989610777033443 0.9169678612022268
  outer loop
    vertex 178.13205628490593 1441.1764043070402 122.95722430685872
    vertex 175.13205628490593 1442.67640430704 122.3045933457579
    vertex 175.13205628490593 1441.1764043070402 122.95722430685872
  endloop
endfacet
facet normal 0.0 0.3989610777033443 0.9169678612022268
  outer loop
    vertex 175.13205628490593 1442.67640430704 122.3045933457579
    vertex 178.13205628490593 1441.1764043070402 122.95722430685872
    vertex 178.13205628490593 1442.67640430704 122.3045933457579
  endloop
endfacet
facet normal -1.0 2.220669410665965e-16 -2.6636902092745834e-17
  outer loop
    vertex 175.13205628490593 1434.3797577548924 123.85201980066796
    vertex 175.13205628490593 1434.2619556933023 122.95722430685896
    vertex 175.13205628490593 1432.7619556933023 123.60985526796017
  endloop
endfacet
facet normal -1.0 2.220669410665965e-16 -2.6636902092745834e-17
  outer loop
    vertex 175.13205628490593 1434.2619556933023 122.95722430685896
    vertex 175.13205628490593 1434.3797577548924 123.85201980066796
    vertex 175.13205628490593 1434.3797577548921 122.06242881304982
  endloop
endfacet
facet normal -1.0 2.220669410665965e-16 -2.6636902092745834e-17
  outer loop
    vertex 175.13205628490593 1434.725135923842 124.6858364602941
    vertex 175.13205628490593 1434.3797577548924 123.85201980066796
    vertex 175.13205628490593 1433.0997823376151 124.87064146868532
  endloop
endfacet
facet normal -1.0 2.220669410665965e-16 -2.6636902092745834e-17
  outer loop
    vertex 175.13205628490593 1434.3797577548924 123.85201980066796
    vertex 175.13205628490593 1434.725135923842 124.6858364602941
    vertex 175.13205628490593 1434.725135923842 121.22861215342449
  endloop
endfacet
facet normal -1.0 2.220669410665965e-16 -2.6636902092745834e-17
  outer loop
    vertex 175.13205628490593 1435.2745532487008 120.51259755538902
    vertex 175.1320562849059 1435.9905678467364 119.96318023052952
    vertex 175.13205628490593 1434.6753728551269 118.99045760540349
  endloop
endfacet
facet normal -1.0 2.220669410665965e-16 -2.6636902092745834e-17
  outer loop
    vertex 175.1320562849059 1435.9905678467364 119.96318023052952
    vertex 175.13205628490593 1435.2745532487008 120.51259755538902
    vertex 175.13205628490587 1435.48842906208 122.66354037436433
  endloop
endfacet
facet normal -1.0 2.220669410665965e-16 -2.6636902092745834e-17
  outer loop
    vertex 175.1320562849059 1435.9905678467364 119.96318023052952
    vertex 175.13205628490587 1435.48842906208 122.66354037436433
    vertex 175.13205628490587 1435.6404510520206 122.09618658403797
  endloop
endfacet
facet normal -1.0 2.220669410665965e-16 -2.6636902092745834e-17
  outer loop
    vertex 175.1320562849059 1435.9905678467364 119.96318023052952
    vertex 175.13205628490587 1435.6404510520206 122.09618658403797
    vertex 175.13205628490587 1435.9341349845156 121.58751109158975
  endloop
endfacet
facet normal -1.0 2.220669410665965e-16 -2.6636902092745834e-17
  outer loop
    vertex 175.13205628490593 1435.2745532487017 125.40185105832951
    vertex 175.13205628490593 1434.725135923842 124.6858364602941
    vertex 175.13205628490593 1433.7524132987155 126.00103145190333
  endloop
endfacet
facet normal -1.0 2.220669410665965e-16 -2.6636902092745834e-17
  outer loop
    vertex 175.13205628490593 1434.725135923842 124.6858364602941
    vertex 175.13205628490593 1435.2745532487017 125.40185105832951
    vertex 175.13205628490593 1435.2745532487008 120.51259755538902
  endloop
endfacet
facet normal -1.0 2.220669410665965e-16 -2.6636902092745834e-17
  outer loop
    vertex 175.13205628490593 1435.2745532487008 120.51259755538902
    vertex 175.13205628490593 1435.2745532487017 125.40185105832951
    vertex 175.13205628490587 1435.48842906208 122.66354037436433
  endloop
endfacet
facet normal -1.0 2.220669410665965e-16 -2.6636902092745834e-17
  outer loop
    vertex 175.13205628490587 1435.48842906208 122.66354037436433
    vertex 175.13205628490593 1435.2745532487017 125.40185105832951
    vertex 175.13205628490587 1435.4884290620803 123.25090823935459
  endloop
endfacet
facet normal -1.0 2.220669410665965e-16 -2.6636902092745834e-17
  outer loop
    vertex 175.13205628490587 1435.4884290620803 123.25090823935459
    vertex 175.13205628490593 1435.2745532487017 125.40185105832951
    vertex 175.13205628490587 1435.640451052021 123.8182620296809
  endloop
endfacet
facet normal -1.0 2.220669410665965e-16 -2.6636902092745834e-17
  outer loop
    vertex 175.13205628490593 1434.725135923842 121.22861215342449
    vertex 175.13205628490593 1435.2745532487008 120.51259755538902
    vertex 175.13205628490593 1433.7524132987146 119.91341716181617
  endloop
endfacet
facet normal -1.0 2.220669410665965e-16 -2.6636902092745834e-17
  outer loop
    vertex 175.13205628490593 1435.2745532487008 120.51259755538902
    vertex 175.13205628490593 1434.725135923842 121.22861215342449
    vertex 175.13205628490593 1434.725135923842 124.6858364602941
  endloop
endfacet
facet normal -1.0 2.220669410665965e-16 -2.6636902092745834e-17
  outer loop
    vertex 175.13205628490593 1434.3797577548921 122.06242881304982
    vertex 175.13205628490593 1434.725135923842 121.22861215342449
    vertex 175.13205628490593 1433.0997823376144 121.04380714503445
  endloop
endfacet
facet normal -1.0 2.220669410665965e-16 -2.6636902092745834e-17
  outer loop
    vertex 175.13205628490593 1434.725135923842 121.22861215342449
    vertex 175.13205628490593 1434.3797577548921 122.06242881304982
    vertex 175.13205628490593 1434.3797577548924 123.85201980066796
  endloop
endfacet
facet normal -1.0 2.220669410665965e-16 -2.6636902092745834e-17
  outer loop
    vertex 175.13205628490593 1434.3797577548921 122.06242881304982
    vertex 175.13205628490593 1432.7619556933018 122.30459334575964
    vertex 175.13205628490593 1434.2619556933023 122.95722430685896
  endloop
endfacet
facet normal -1.0 2.220669410665965e-16 -2.6636902092745834e-17
  outer loop
    vertex 175.13205628490593 1435.9905678467373 125.95126838318892
    vertex 175.13205628490593 1435.2745532487017 125.40185105832951
    vertex 175.13205628490593 1434.6753728551287 126.92399100831575
  endloop
endfacet
facet normal -1.0 2.220669410665965e-16 -2.6636902092745834e-17
  outer loop
    vertex 175.13205628490593 1435.2745532487017 125.40185105832951
    vertex 175.13205628490593 1435.9905678467373 125.95126838318892
    vertex 175.13205628490587 1435.640451052021 123.8182620296809
  endloop
endfacet
facet normal -1.0 2.220669410665965e-16 -2.6636902092745834e-17
  outer loop
    vertex 175.13205628490587 1435.640451052021 123.8182620296809
    vertex 175.13205628490593 1435.9905678467373 125.95126838318892
    vertex 175.13205628490587 1435.9341349845163 124.32693752212901
  endloop
endfacet
facet normal -1.0 2.220669410665965e-16 -2.6636902092745834e-17
  outer loop
    vertex 175.13205628490587 1435.9341349845163 124.32693752212901
    vertex 175.13205628490593 1435.9905678467373 125.95126838318892
    vertex 175.13205628490587 1436.3494667849018 124.74226932251459
  endloop
endfacet
facet normal -1.0 2.220669410665965e-16 -2.6636902092745834e-17
  outer loop
    vertex 175.13205628490587 1436.3494667849018 124.74226932251459
    vertex 175.13205628490593 1435.9905678467373 125.95126838318892
    vertex 175.13205628490593 1435.8057628383465 127.57662196941577
  endloop
endfacet
facet normal -1.0 2.220669410665965e-16 -2.6636902092745834e-17
  outer loop
    vertex 175.13205628490587 1436.3494667849018 124.74226932251459
    vertex 175.13205628490593 1435.8057628383465 127.57662196941577
    vertex 175.13205628490593 1436.8243845063628 126.29664655213826
  endloop
endfacet
facet normal -1.0 2.220669410665965e-16 -2.6636902092745834e-17
  outer loop
    vertex 175.13205628490587 1436.3494667849018 124.74226932251459
    vertex 175.13205628490593 1436.8243845063628 126.29664655213826
    vertex 175.13205628490587 1436.8581422773502 125.03595325500963
  endloop
endfacet
facet normal -1.0 2.220669410665965e-16 -2.6636902092745834e-17
  outer loop
    vertex 175.13205628490587 1436.8581422773502 125.03595325500963
    vertex 175.13205628490593 1436.8243845063628 126.29664655213826
    vertex 175.13205628490587 1437.4254960676762 125.18797524495018
  endloop
endfacet
facet normal -1.0 2.220669410665965e-16 -2.6636902092745834e-17
  outer loop
    vertex 175.13205628490587 1437.4254960676762 125.18797524495018
    vertex 175.13205628490593 1436.8243845063628 126.29664655213826
    vertex 175.13205628490593 1437.0665490390718 127.91444861372814
  endloop
endfacet
facet normal -1.0 2.220669410665965e-16 -2.6636902092745834e-17
  outer loop
    vertex 175.13205628490587 1437.4254960676762 125.18797524495018
    vertex 175.13205628490593 1437.0665490390718 127.91444861372814
    vertex 175.13205628490587 1438.0128639326667 125.18797524495008
  endloop
endfacet
facet normal -1.0 2.220669410665965e-16 -2.6636902092745834e-17
  outer loop
    vertex 175.13205628490587 1438.0128639326667 125.18797524495008
    vertex 175.13205628490593 1437.0665490390718 127.91444861372814
    vertex 175.13205628490593 1437.7191800001717 126.41444861372791
  endloop
endfacet
facet normal -1.0 2.220669410665965e-16 -2.6636902092745834e-17
  outer loop
    vertex 175.13205628490587 1438.0128639326667 125.18797524495008
    vertex 175.13205628490593 1437.7191800001717 126.41444861372791
    vertex 175.13205628490593 1438.3718109612726 127.91444861372794
  endloop
endfacet
facet normal -1.0 2.220669410665965e-16 -2.6636902092745834e-17
  outer loop
    vertex 175.13205628490587 1438.0128639326667 125.18797524495008
    vertex 175.13205628490593 1438.3718109612726 127.91444861372794
    vertex 175.13205628490587 1438.580217722993 125.03595325500929
  endloop
endfacet
facet normal -1.0 2.220669410665965e-16 -2.6636902092745834e-17
  outer loop
    vertex 175.13205628490587 1438.580217722993 125.03595325500929
    vertex 175.13205628490593 1438.3718109612726 127.91444861372794
    vertex 175.13205628490593 1438.6139754939802 126.29664655213797
  endloop
endfacet
facet normal -1.0 2.220669410665965e-16 -2.6636902092745834e-17
  outer loop
    vertex 175.13205628490587 1438.580217722993 125.03595325500929
    vertex 175.13205628490593 1438.6139754939802 126.29664655213797
    vertex 175.13205628490587 1439.088893215441 124.74226932251403
  endloop
endfacet
facet normal -1.0 2.220669410665965e-16 -2.6636902092745834e-17
  outer loop
    vertex 175.13205628490587 1439.088893215441 124.74226932251403
    vertex 175.13205628490593 1438.6139754939802 126.29664655213797
    vertex 175.13205628490593 1439.6325971619974 127.57662196941509
  endloop
endfacet
facet normal -1.0 2.220669410665965e-16 -2.6636902092745834e-17
  outer loop
    vertex 175.13205628490587 1439.088893215441 124.74226932251403
    vertex 175.13205628490593 1439.6325971619974 127.57662196941509
    vertex 175.13205628490593 1439.447792153606 125.95126838318842
  endloop
endfacet
facet normal -1.0 2.220669410665965e-16 -2.6636902092745834e-17
  outer loop
    vertex 175.13205628490587 1439.088893215441 124.74226932251403
    vertex 175.13205628490593 1439.447792153606 125.95126838318842
    vertex 175.13205628490587 1439.5042250158267 124.32693752212832
  endloop
endfacet
facet normal -1.0 2.220669410665965e-16 -2.6636902092745834e-17
  outer loop
    vertex 175.13205628490593 1439.447792153606 125.95126838318842
    vertex 175.13205628490587 1439.7979089483215 123.8182620296801
    vertex 175.13205628490587 1439.5042250158267 124.32693752212832
  endloop
endfacet
facet normal -1.0 2.220669410665965e-16 -2.6636902092745834e-17
  outer loop
    vertex 175.13205628490587 1439.7979089483215 123.8182620296801
    vertex 175.13205628490593 1439.447792153606 125.95126838318842
    vertex 175.13205628490593 1440.1638067516415 125.40185105832877
  endloop
endfacet
facet normal -1.0 2.220669410665965e-16 -2.6636902092745834e-17
  outer loop
    vertex 175.13205628490593 1440.1638067516415 125.40185105832877
    vertex 175.13205628490593 1439.447792153606 125.95126838318842
    vertex 175.13205628490593 1440.7629871452154 126.92399100831462
  endloop
endfacet
facet normal -1.0 2.220669410665965e-16 -2.6636902092745834e-17
  outer loop
    vertex 175.13205628490587 1439.7979089483215 123.8182620296801
    vertex 175.13205628490593 1440.1638067516415 125.40185105832877
    vertex 175.13205628490587 1439.9499309382625 123.25090823935373
  endloop
endfacet
facet normal -1.0 2.220669410665965e-16 -2.6636902092745834e-17
  outer loop
    vertex 175.13205628490593 1440.1638067516415 125.40185105832877
    vertex 175.13205628490593 1440.7132240765009 124.68583646029319
    vertex 175.13205628490596 1440.7132240765004 121.22861215342434
  endloop
endfacet
facet normal -1.0 2.220669410665965e-16 -2.6636902092745834e-17
  outer loop
    vertex 175.13205628490593 1440.7132240765009 124.68583646029319
    vertex 175.13205628490593 1440.1638067516415 125.40185105832877
    vertex 175.13205628490593 1441.6859467016277 126.00103145190187
  endloop
endfacet
facet normal -1.0 2.220669410665965e-16 -2.6636902092745834e-17
  outer loop
    vertex 175.13205628490593 1442.6764043070402 123.60985526795842
    vertex 175.13205628490593 1441.1764043070402 122.95722430685872
    vertex 175.1320562849059 1441.05860224545 123.8520198006678
  endloop
endfacet
facet normal -1.0 2.220669410665965e-16 -2.6636902092745834e-17
  outer loop
    vertex 175.13205628490596 1441.0586022454502 122.06242881304979
    vertex 175.13205628490593 1441.1764043070402 122.95722430685872
    vertex 175.13205628490593 1442.67640430704 122.3045933457579
  endloop
endfacet
facet normal -1.0 2.220669410665965e-16 -2.6636902092745834e-17
  outer loop
    vertex 175.13205628490593 1441.1764043070402 122.95722430685872
    vertex 175.13205628490596 1441.0586022454502 122.06242881304979
    vertex 175.1320562849059 1441.05860224545 123.8520198006678
  endloop
endfacet
facet normal -1.0 2.220669410665965e-16 -2.6636902092745834e-17
  outer loop
    vertex 175.13205628490593 1440.7132240765009 124.68583646029319
    vertex 175.1320562849059 1441.05860224545 123.8520198006678
    vertex 175.13205628490596 1441.0586022454502 122.06242881304979
  endloop
endfacet
facet normal -1.0 2.220669410665965e-16 -2.6636902092745834e-17
  outer loop
    vertex 175.1320562849059 1441.05860224545 123.8520198006678
    vertex 175.13205628490593 1440.7132240765009 124.68583646029319
    vertex 175.13205628490593 1442.3385776627279 124.87064146868362
  endloop
endfacet
facet normal -1.0 2.220669410665965e-16 -2.6636902092745834e-17
  outer loop
    vertex 175.13205628490596 1440.7132240765004 121.22861215342434
    vertex 175.13205628490596 1441.0586022454502 122.06242881304979
    vertex 175.13205628490593 1442.3385776627272 121.04380714503276
  endloop
endfacet
facet normal -1.0 2.220669410665965e-16 -2.6636902092745834e-17
  outer loop
    vertex 175.13205628490596 1441.0586022454502 122.06242881304979
    vertex 175.13205628490596 1440.7132240765004 121.22861215342434
    vertex 175.13205628490593 1440.7132240765009 124.68583646029319
  endloop
endfacet
facet normal -1.0 2.220669410665965e-16 -2.6636902092745834e-17
  outer loop
    vertex 175.13205628490587 1439.9499309382622 122.66354037436348
    vertex 175.13205628490593 1440.163806751641 120.5125975553888
    vertex 175.13205628490587 1439.7979089483215 122.09618658403717
  endloop
endfacet
facet normal -1.0 2.220669410665965e-16 -2.6636902092745834e-17
  outer loop
    vertex 175.13205628490593 1440.163806751641 120.5125975553888
    vertex 175.13205628490587 1439.9499309382622 122.66354037436348
    vertex 175.13205628490596 1440.7132240765004 121.22861215342434
  endloop
endfacet
facet normal -1.0 2.220669410665965e-16 -2.6636902092745834e-17
  outer loop
    vertex 175.13205628490593 1440.163806751641 120.5125975553888
    vertex 175.13205628490596 1440.7132240765004 121.22861215342434
    vertex 175.13205628490593 1441.6859467016268 119.9134171618147
  endloop
endfacet
facet normal -1.0 2.220669410665965e-16 -2.6636902092745834e-17
  outer loop
    vertex 175.13205628490596 1440.7132240765004 121.22861215342434
    vertex 175.13205628490587 1439.9499309382622 122.66354037436348
    vertex 175.13205628490587 1439.9499309382625 123.25090823935373
  endloop
endfacet
facet normal -1.0 2.220669410665965e-16 -2.6636902092745834e-17
  outer loop
    vertex 175.13205628490596 1440.7132240765004 121.22861215342434
    vertex 175.13205628490587 1439.9499309382625 123.25090823935373
    vertex 175.13205628490593 1440.1638067516415 125.40185105832877
  endloop
endfacet
facet normal -1.0 2.220669410665965e-16 -2.6636902092745834e-17
  outer loop
    vertex 175.1320562849059 1435.9905678467364 119.96318023052952
    vertex 175.13205628490593 1436.8243845063619 119.61780206158028
    vertex 175.13205628490593 1435.805762838345 118.33782664430302
  endloop
endfacet
facet normal -1.0 2.220669410665965e-16 -2.6636902092745834e-17
  outer loop
    vertex 175.13205628490593 1436.8243845063619 119.61780206158028
    vertex 175.1320562849059 1435.9905678467364 119.96318023052952
    vertex 175.13205628490587 1435.9341349845156 121.58751109158975
  endloop
endfacet
facet normal -1.0 2.220669410665965e-16 -2.6636902092745834e-17
  outer loop
    vertex 175.13205628490593 1436.8243845063619 119.61780206158028
    vertex 175.13205628490587 1435.9341349845156 121.58751109158975
    vertex 175.13205628490587 1436.3494667849013 121.17217929120399
  endloop
endfacet
facet normal -1.0 2.220669410665965e-16 -2.6636902092745834e-17
  outer loop
    vertex 175.13205628490593 1436.8243845063619 119.61780206158028
    vertex 175.13205628490587 1436.3494667849013 121.17217929120399
    vertex 175.13205628490587 1436.8581422773495 120.87849535870878
  endloop
endfacet
facet normal -1.0 2.220669410665965e-16 -2.6636902092745834e-17
  outer loop
    vertex 175.13205628490593 1436.8243845063619 119.61780206158028
    vertex 175.13205628490587 1436.8581422773495 120.87849535870878
    vertex 175.13205628490593 1437.06654903907 117.9999999999902
  endloop
endfacet
facet normal -1.0 2.220669410665965e-16 -2.6636902092745834e-17
  outer loop
    vertex 175.13205628490593 1437.06654903907 117.9999999999902
    vertex 175.13205628490587 1436.8581422773495 120.87849535870878
    vertex 175.13205628490593 1437.7191800001708 119.49999999999012
  endloop
endfacet
facet normal -1.0 2.220669410665965e-16 -2.6636902092745834e-17
  outer loop
    vertex 175.13205628490593 1437.7191800001708 119.49999999999012
    vertex 175.13205628490587 1436.8581422773495 120.87849535870878
    vertex 175.13205628490587 1437.4254960676756 120.72647336876798
  endloop
endfacet
facet normal -1.0 2.220669410665965e-16 -2.6636902092745834e-17
  outer loop
    vertex 175.13205628490593 1437.7191800001708 119.49999999999012
    vertex 175.13205628490587 1437.4254960676756 120.72647336876798
    vertex 175.13205628490587 1438.012863932666 120.72647336876788
  endloop
endfacet
facet normal -1.0 2.220669410665965e-16 -2.6636902092745834e-17
  outer loop
    vertex 175.13205628490593 1437.7191800001708 119.49999999999012
    vertex 175.13205628490587 1438.012863932666 120.72647336876788
    vertex 175.13205628490593 1438.3718109612705 117.99999999998992
  endloop
endfacet
facet normal -1.0 2.220669410665965e-16 -2.6636902092745834e-17
  outer loop
    vertex 175.13205628490593 1438.3718109612705 117.99999999998992
    vertex 175.13205628490587 1438.012863932666 120.72647336876788
    vertex 175.13205628490593 1438.61397549398 119.61780206157992
  endloop
endfacet
facet normal -1.0 2.220669410665965e-16 -2.6636902092745834e-17
  outer loop
    vertex 175.13205628490593 1438.61397549398 119.61780206157992
    vertex 175.13205628490587 1438.012863932666 120.72647336876788
    vertex 175.13205628490587 1438.580217722992 120.87849535870846
  endloop
endfacet
facet normal -1.0 2.220669410665965e-16 -2.6636902092745834e-17
  outer loop
    vertex 175.13205628490593 1438.61397549398 119.61780206157992
    vertex 175.13205628490587 1438.580217722992 120.87849535870846
    vertex 175.13205628490593 1439.6325971619958 118.3378266443023
  endloop
endfacet
facet normal -1.0 2.220669410665965e-16 -2.6636902092745834e-17
  outer loop
    vertex 175.13205628490593 1439.6325971619958 118.3378266443023
    vertex 175.13205628490587 1438.580217722992 120.87849535870846
    vertex 175.13205628490587 1439.0888932154405 121.17217929120353
  endloop
endfacet
facet normal -1.0 2.220669410665965e-16 -2.6636902092745834e-17
  outer loop
    vertex 175.13205628490593 1439.6325971619958 118.3378266443023
    vertex 175.13205628490587 1439.0888932154405 121.17217929120353
    vertex 175.13205628490593 1439.4477921536056 119.96318023052945
  endloop
endfacet
facet normal -1.0 2.220669410665965e-16 -2.6636902092745834e-17
  outer loop
    vertex 175.13205628490593 1439.4477921536056 119.96318023052945
    vertex 175.13205628490587 1439.0888932154405 121.17217929120353
    vertex 175.13205628490587 1439.5042250158263 121.58751109158905
  endloop
endfacet
facet normal -1.0 2.220669410665965e-16 -2.6636902092745834e-17
  outer loop
    vertex 175.13205628490593 1439.4477921536056 119.96318023052945
    vertex 175.13205628490587 1439.5042250158263 121.58751109158905
    vertex 175.13205628490593 1440.7629871452139 118.99045760540234
  endloop
endfacet
facet normal -1.0 2.220669410665965e-16 -2.6636902092745834e-17
  outer loop
    vertex 175.13205628490593 1440.7629871452139 118.99045760540234
    vertex 175.13205628490587 1439.5042250158263 121.58751109158905
    vertex 175.13205628490593 1440.163806751641 120.5125975553888
  endloop
endfacet
facet normal -1.0 2.220669410665965e-16 -2.6636902092745834e-17
  outer loop
    vertex 175.13205628490593 1440.163806751641 120.5125975553888
    vertex 175.13205628490587 1439.5042250158263 121.58751109158905
    vertex 175.13205628490587 1439.7979089483215 122.09618658403717
  endloop
endfacet
facet normal 0.0 -0.3662861093134058 -0.9305022762594662
  outer loop
    vertex 178.13205628490593 1441.6859467016268 119.9134171618147
    vertex 175.13205628490593 1440.163806751641 120.5125975553888
    vertex 175.13205628490593 1441.6859467016268 119.9134171618147
  endloop
endfacet
facet normal 0.0 -0.3662861093134058 -0.9305022762594662
  outer loop
    vertex 175.13205628490593 1440.163806751641 120.5125975553888
    vertex 178.13205628490593 1441.6859467016268 119.9134171618147
    vertex 178.13205628490593 1440.163806751641 120.5125975553888
  endloop
endfacet
facet normal 3.93237780442421e-18 0.8039943590134019 0.5946369234033733
  outer loop
    vertex 175.13205628490596 1440.7132240765004 121.22861215342434
    vertex 178.13205628490593 1441.6859467016268 119.9134171618147
    vertex 175.13205628490593 1441.6859467016268 119.9134171618147
  endloop
endfacet
facet normal 3.93237780442421e-18 0.8039943590134019 0.5946369234033733
  outer loop
    vertex 178.13205628490593 1441.6859467016268 119.9134171618147
    vertex 175.13205628490596 1440.7132240765004 121.22861215342434
    vertex 178.13205628490593 1440.7132240765004 121.22861215342434
  endloop
endfacet
facet normal 0.0 -0.14803806241202014 -0.9889816641764877
  outer loop
    vertex 178.13205628490593 1434.3797577548921 122.06242881304982
    vertex 175.13205628490593 1432.7619556933018 122.30459334575964
    vertex 175.13205628490593 1434.3797577548921 122.06242881304982
  endloop
endfacet
facet normal 0.0 -0.14803806241202014 -0.9889816641764877
  outer loop
    vertex 175.13205628490593 1432.7619556933018 122.30459334575964
    vertex 178.13205628490593 1434.3797577548921 122.06242881304982
    vertex 178.13205628490593 1432.7619556933018 122.30459334575964
  endloop
endfacet
facet normal 0.0 0.1305261922202608 0.991444861373783
  outer loop
    vertex 178.13205628490593 1437.4254960676756 120.72647336876798
    vertex 175.13205628490587 1438.012863932666 120.72647336876788
    vertex 175.13205628490587 1437.4254960676756 120.72647336876798
  endloop
endfacet
facet normal 0.0 -0.13052619221986966 0.9914448613738344
  outer loop
    vertex 175.13205628490587 1438.012863932666 120.72647336876788
    vertex 178.13205628490593 1437.4254960676756 120.72647336876798
    vertex 178.13205628490593 1438.012863932666 120.72647336876788
  endloop
endfacet
facet normal 0.0 -0.13052619221986966 0.9914448613738344
  outer loop
    vertex 178.13205628490593 1438.012863932666 120.72647336876788
    vertex 175.13205628490587 1438.580217722992 120.87849535870846
    vertex 175.13205628490587 1438.012863932666 120.72647336876788
  endloop
endfacet
facet normal 0.0 -0.3826834323648914 0.923879532511369
  outer loop
    vertex 175.13205628490587 1438.580217722992 120.87849535870846
    vertex 178.13205628490593 1438.012863932666 120.72647336876788
    vertex 178.13205628490593 1438.580217722992 120.87849535870846
  endloop
endfacet
facet normal 0.0 -0.3826834323648914 0.923879532511369
  outer loop
    vertex 178.13205628490593 1438.580217722992 120.87849535870846
    vertex 175.13205628490587 1439.0888932154405 121.17217929120353
    vertex 175.13205628490587 1438.580217722992 120.87849535870846
  endloop
endfacet
facet normal 0.0 -0.6087614290086034 0.7933533402913252
  outer loop
    vertex 175.13205628490587 1439.0888932154405 121.17217929120353
    vertex 178.13205628490593 1438.580217722992 120.87849535870846
    vertex 178.13205628490593 1439.0888932154405 121.17217929120353
  endloop
endfacet
facet normal 0.0 -0.6087614290086034 0.7933533402913252
  outer loop
    vertex 178.13205628490593 1439.0888932154405 121.17217929120353
    vertex 175.13205628490587 1439.5042250158263 121.58751109158905
    vertex 175.13205628490587 1439.0888932154405 121.17217929120353
  endloop
endfacet
facet normal 0.0 -0.7933533402911662 0.6087614290088107
  outer loop
    vertex 175.13205628490587 1439.5042250158263 121.58751109158905
    vertex 178.13205628490593 1439.0888932154405 121.17217929120353
    vertex 178.13205628490593 1439.5042250158263 121.58751109158905
  endloop
endfacet
facet normal 0.0 -0.9238795325112226 0.38268343236524505
  outer loop
    vertex 178.13205628490593 1439.7979089483215 122.09618658403717
    vertex 175.13205628490587 1439.5042250158263 121.58751109158905
    vertex 178.13205628490593 1439.5042250158263 121.58751109158905
  endloop
endfacet
facet normal 0.0 -0.7933533402911662 0.6087614290088107
  outer loop
    vertex 175.13205628490587 1439.5042250158263 121.58751109158905
    vertex 178.13205628490593 1439.7979089483215 122.09618658403717
    vertex 175.13205628490587 1439.7979089483215 122.09618658403717
  endloop
endfacet
facet normal 0.0 -0.991444861373781 0.13052619222027545
  outer loop
    vertex 178.13205628490593 1439.9499309382622 122.66354037436348
    vertex 175.13205628490587 1439.7979089483215 122.09618658403717
    vertex 178.13205628490593 1439.7979089483215 122.09618658403717
  endloop
endfacet
facet normal 0.0 -0.9238795325112226 0.38268343236524505
  outer loop
    vertex 175.13205628490587 1439.7979089483215 122.09618658403717
    vertex 178.13205628490593 1439.9499309382622 122.66354037436348
    vertex 175.13205628490587 1439.9499309382622 122.66354037436348
  endloop
endfacet
facet normal 0.0 -0.9914448613738344 -0.13052619221986966
  outer loop
    vertex 178.13205628490593 1439.9499309382625 123.25090823935373
    vertex 175.13205628490587 1439.9499309382622 122.66354037436348
    vertex 178.13205628490593 1439.9499309382622 122.66354037436348
  endloop
endfacet
facet normal 0.0 -0.991444861373781 0.13052619222027545
  outer loop
    vertex 175.13205628490587 1439.9499309382622 122.66354037436348
    vertex 178.13205628490593 1439.9499309382625 123.25090823935373
    vertex 175.13205628490587 1439.9499309382625 123.25090823935373
  endloop
endfacet
facet normal 0.0 -0.9238795325113409 -0.38268343236495944
  outer loop
    vertex 178.13205628490593 1439.7979089483215 123.8182620296801
    vertex 175.13205628490587 1439.9499309382625 123.25090823935373
    vertex 178.13205628490593 1439.9499309382625 123.25090823935373
  endloop
endfacet
facet normal 0.0 -0.9914448613738344 -0.13052619221986966
  outer loop
    vertex 175.13205628490587 1439.9499309382625 123.25090823935373
    vertex 178.13205628490593 1439.7979089483215 123.8182620296801
    vertex 175.13205628490587 1439.7979089483215 123.8182620296801
  endloop
endfacet
facet normal 0.0 -0.7933533402913563 -0.6087614290085628
  outer loop
    vertex 178.13205628490593 1439.5042250158267 124.32693752212832
    vertex 175.13205628490587 1439.7979089483215 123.8182620296801
    vertex 178.13205628490593 1439.7979089483215 123.8182620296801
  endloop
endfacet
facet normal 0.0 -0.9238795325113409 -0.38268343236495944
  outer loop
    vertex 175.13205628490587 1439.7979089483215 123.8182620296801
    vertex 178.13205628490593 1439.5042250158267 124.32693752212832
    vertex 175.13205628490587 1439.5042250158267 124.32693752212832
  endloop
endfacet
facet normal 0.0 -0.6087614290088479 -0.7933533402911378
  outer loop
    vertex 178.13205628490593 1439.088893215441 124.74226932251403
    vertex 175.13205628490587 1439.5042250158267 124.32693752212832
    vertex 178.13205628490593 1439.5042250158267 124.32693752212832
  endloop
endfacet
facet normal 0.0 -0.7933533402913563 -0.6087614290085628
  outer loop
    vertex 175.13205628490587 1439.5042250158267 124.32693752212832
    vertex 178.13205628490593 1439.088893215441 124.74226932251403
    vertex 175.13205628490587 1439.088893215441 124.74226932251403
  endloop
endfacet
facet normal 0.0 -0.6087614290088479 -0.7933533402911378
  outer loop
    vertex 178.13205628490593 1439.088893215441 124.74226932251403
    vertex 175.13205628490587 1438.580217722993 125.03595325500929
    vertex 175.13205628490587 1439.088893215441 124.74226932251403
  endloop
endfacet
facet normal 0.0 -0.3826834323652603 -0.9238795325112161
  outer loop
    vertex 175.13205628490587 1438.580217722993 125.03595325500929
    vertex 178.13205628490593 1439.088893215441 124.74226932251403
    vertex 178.13205628490593 1438.580217722993 125.03595325500929
  endloop
endfacet
facet normal 0.0 -0.3826834323652603 -0.9238795325112161
  outer loop
    vertex 178.13205628490593 1438.580217722993 125.03595325500929
    vertex 175.13205628490587 1438.0128639326667 125.18797524495008
    vertex 175.13205628490587 1438.580217722993 125.03595325500929
  endloop
endfacet
facet normal 0.0 -0.1305261922202608 -0.991444861373783
  outer loop
    vertex 175.13205628490587 1438.0128639326667 125.18797524495008
    vertex 178.13205628490593 1438.580217722993 125.03595325500929
    vertex 178.13205628490593 1438.0128639326667 125.18797524495008
  endloop
endfacet
facet normal 0.0 -0.1305261922202608 -0.991444861373783
  outer loop
    vertex 178.13205628490593 1438.0128639326667 125.18797524495008
    vertex 175.13205628490587 1437.4254960676762 125.18797524495018
    vertex 175.13205628490587 1438.0128639326667 125.18797524495008
  endloop
endfacet
facet normal 0.0 0.13052619221986966 -0.9914448613738344
  outer loop
    vertex 175.13205628490587 1437.4254960676762 125.18797524495018
    vertex 178.13205628490593 1438.0128639326667 125.18797524495008
    vertex 178.13205628490593 1437.4254960676762 125.18797524495018
  endloop
endfacet
facet normal 0.0 0.13052619221986966 -0.9914448613738344
  outer loop
    vertex 178.13205628490593 1437.4254960676762 125.18797524495018
    vertex 175.13205628490587 1436.8581422773502 125.03595325500963
    vertex 175.13205628490587 1437.4254960676762 125.18797524495018
  endloop
endfacet
facet normal 0.0 0.3826834323648914 -0.923879532511369
  outer loop
    vertex 175.13205628490587 1436.8581422773502 125.03595325500963
    vertex 178.13205628490593 1437.4254960676762 125.18797524495018
    vertex 178.13205628490593 1436.8581422773502 125.03595325500963
  endloop
endfacet
facet normal 0.0 0.3826834323648914 -0.923879532511369
  outer loop
    vertex 178.13205628490593 1436.8581422773502 125.03595325500963
    vertex 175.13205628490587 1436.3494667849018 124.74226932251459
    vertex 175.13205628490587 1436.8581422773502 125.03595325500963
  endloop
endfacet
facet normal 0.0 0.6087614290086034 -0.7933533402913252
  outer loop
    vertex 175.13205628490587 1436.3494667849018 124.74226932251459
    vertex 178.13205628490593 1436.8581422773502 125.03595325500963
    vertex 178.13205628490593 1436.3494667849018 124.74226932251459
  endloop
endfacet
facet normal 0.0 0.6087614290086034 -0.7933533402913252
  outer loop
    vertex 178.13205628490593 1436.3494667849018 124.74226932251459
    vertex 175.13205628490587 1435.9341349845163 124.32693752212901
    vertex 175.13205628490587 1436.3494667849018 124.74226932251459
  endloop
endfacet
facet normal 0.0 0.7933533402911662 -0.6087614290088107
  outer loop
    vertex 175.13205628490587 1435.9341349845163 124.32693752212901
    vertex 178.13205628490593 1436.3494667849018 124.74226932251459
    vertex 178.13205628490593 1435.9341349845163 124.32693752212901
  endloop
endfacet
facet normal 0.0 0.7933533402911662 -0.6087614290088107
  outer loop
    vertex 175.13205628490587 1435.9341349845163 124.32693752212901
    vertex 178.13205628490593 1435.640451052021 123.8182620296809
    vertex 175.13205628490587 1435.640451052021 123.8182620296809
  endloop
endfacet
facet normal 0.0 0.9238795325112226 -0.38268343236524505
  outer loop
    vertex 178.13205628490593 1435.640451052021 123.8182620296809
    vertex 175.13205628490587 1435.9341349845163 124.32693752212901
    vertex 178.13205628490593 1435.9341349845163 124.32693752212901
  endloop
endfacet
facet normal 0.0 0.9238795325112226 -0.38268343236524505
  outer loop
    vertex 175.13205628490587 1435.640451052021 123.8182620296809
    vertex 178.13205628490593 1435.4884290620803 123.25090823935459
    vertex 175.13205628490587 1435.4884290620803 123.25090823935459
  endloop
endfacet
facet normal 0.0 0.991444861373781 -0.13052619222027545
  outer loop
    vertex 178.13205628490593 1435.4884290620803 123.25090823935459
    vertex 175.13205628490587 1435.640451052021 123.8182620296809
    vertex 178.13205628490593 1435.640451052021 123.8182620296809
  endloop
endfacet
facet normal 0.0 0.991444861373781 -0.13052619222027545
  outer loop
    vertex 175.13205628490587 1435.4884290620803 123.25090823935459
    vertex 178.13205628490593 1435.48842906208 122.66354037436433
    vertex 175.13205628490587 1435.48842906208 122.66354037436433
  endloop
endfacet
facet normal 0.0 0.9914448613738344 0.13052619221986966
  outer loop
    vertex 178.13205628490593 1435.48842906208 122.66354037436433
    vertex 175.13205628490587 1435.4884290620803 123.25090823935459
    vertex 178.13205628490593 1435.4884290620803 123.25090823935459
  endloop
endfacet
facet normal 0.0 0.9914448613738344 0.13052619221986966
  outer loop
    vertex 175.13205628490587 1435.48842906208 122.66354037436433
    vertex 178.13205628490593 1435.6404510520206 122.09618658403797
    vertex 175.13205628490587 1435.6404510520206 122.09618658403797
  endloop
endfacet
facet normal 0.0 0.9238795325113409 0.38268343236495944
  outer loop
    vertex 178.13205628490593 1435.6404510520206 122.09618658403797
    vertex 175.13205628490587 1435.48842906208 122.66354037436433
    vertex 178.13205628490593 1435.48842906208 122.66354037436433
  endloop
endfacet
facet normal 0.0 0.9238795325113409 0.38268343236495944
  outer loop
    vertex 175.13205628490587 1435.6404510520206 122.09618658403797
    vertex 178.13205628490593 1435.9341349845156 121.58751109158975
    vertex 175.13205628490587 1435.9341349845156 121.58751109158975
  endloop
endfacet
facet normal 0.0 0.7933533402913563 0.6087614290085628
  outer loop
    vertex 178.13205628490593 1435.9341349845156 121.58751109158975
    vertex 175.13205628490587 1435.6404510520206 122.09618658403797
    vertex 178.13205628490593 1435.6404510520206 122.09618658403797
  endloop
endfacet
facet normal 0.0 0.7933533402913563 0.6087614290085628
  outer loop
    vertex 175.13205628490587 1435.9341349845156 121.58751109158975
    vertex 178.13205628490593 1436.3494667849013 121.17217929120399
    vertex 175.13205628490587 1436.3494667849013 121.17217929120399
  endloop
endfacet
facet normal 0.0 0.6087614290088479 0.7933533402911378
  outer loop
    vertex 178.13205628490593 1436.3494667849013 121.17217929120399
    vertex 175.13205628490587 1435.9341349845156 121.58751109158975
    vertex 178.13205628490593 1435.9341349845156 121.58751109158975
  endloop
endfacet
facet normal 0.0 0.6087614290088479 0.7933533402911378
  outer loop
    vertex 178.13205628490593 1436.3494667849013 121.17217929120399
    vertex 175.13205628490587 1436.8581422773495 120.87849535870878
    vertex 175.13205628490587 1436.3494667849013 121.17217929120399
  endloop
endfacet
facet normal 0.0 0.3826834323652603 0.9238795325112161
  outer loop
    vertex 175.13205628490587 1436.8581422773495 120.87849535870878
    vertex 178.13205628490593 1436.3494667849013 121.17217929120399
    vertex 178.13205628490593 1436.8581422773495 120.87849535870878
  endloop
endfacet
facet normal 0.0 0.3826834323652603 0.9238795325112161
  outer loop
    vertex 178.13205628490593 1436.8581422773495 120.87849535870878
    vertex 175.13205628490587 1437.4254960676756 120.72647336876798
    vertex 175.13205628490587 1436.8581422773495 120.87849535870878
  endloop
endfacet
facet normal 0.0 0.1305261922202608 0.991444861373783
  outer loop
    vertex 175.13205628490587 1437.4254960676756 120.72647336876798
    vertex 178.13205628490593 1436.8581422773495 120.87849535870878
    vertex 178.13205628490593 1437.4254960676756 120.72647336876798
  endloop
endfacet
endsolid Design - Rolled
