solid Design - Rolled
facet normal -2.9547107397048223e-08 -0.9914448613738105 -0.1305261922200477
  outer loop
    vertex 361.9392102895189 148.49390708366388 7.499999999999964
    vertex 351.43921029459625 148.66427826514027 6.205904774487384
    vertex 361.93921029459625 148.66427795221853 6.205904774487361
  endloop
endfacet
facet normal -2.9547107397048223e-08 -0.9914448613738105 -0.1305261922200477
  outer loop
    vertex 351.43921029459625 148.66427826514027 6.205904774487384
    vertex 361.9392102895189 148.49390708366388 7.499999999999964
    vertex 351.4392102895189 148.49390739658563 7.499999999999987
  endloop
endfacet
facet normal 3.889950485745337e-09 0.1305261922200549 -0.99144486137381
  outer loop
    vertex 351.4392104770959 154.78800262209825 2.6703708685546372
    vertex 361.9392104385292 153.4939070836639 2.4999999999999503
    vertex 351.4392104385292 153.49390739658563 2.499999999999973
  endloop
endfacet
facet normal 3.889950485745337e-09 0.1305261922200549 -0.99144486137381
  outer loop
    vertex 361.9392104385292 153.4939070836639 2.4999999999999503
    vertex 351.4392104770959 154.78800262209825 2.6703708685546372
    vertex 361.9392104770959 154.78800230917653 2.6703708685546146
  endloop
endfacet
facet normal -2.753352085925066e-08 -0.923879532511283 -0.3826834323650978
  outer loop
    vertex 361.93921029459625 148.66427795221853 6.205904774487361
    vertex 351.43921030948246 149.16378037766344 4.999999999999991
    vertex 361.9392103094824 149.1637800647417 4.999999999999968
  endloop
endfacet
facet normal -2.753352085925066e-08 -0.923879532511283 -0.3826834323650978
  outer loop
    vertex 351.43921030948246 149.16378037766344 4.999999999999991
    vertex 361.93921029459625 148.66427795221853 6.205904774487361
    vertex 351.43921029459625 148.66427826514027 6.205904774487384
  endloop
endfacet
facet normal -3.889946971907948e-09 -0.13052619222004627 0.9914448613738112
  outer loop
    vertex 351.4392104177032 152.79509597480882 10.10799973098047
    vertex 343.8992104385292 153.49390762129318 10.200000000000005
    vertex 343.89921041770316 152.7950961995164 10.107999730980493
  endloop
endfacet
facet normal -3.889946971907948e-09 -0.13052619222004627 0.9914448613738112
  outer loop
    vertex 343.8992104385292 153.49390762129318 10.200000000000005
    vertex 351.4392104177032 152.79509597480882 10.10799973098047
    vertex 351.4392104385292 153.49390739658563 10.199999999999982
  endloop
endfacet
facet normal -2.9547107398255504e-08 -0.9914448613738105 0.13052619222004766
  outer loop
    vertex 361.93921029459625 148.66427795221853 8.794095225512566
    vertex 351.4392102895189 148.49390739658563 7.499999999999987
    vertex 361.9392102895189 148.49390708366388 7.499999999999964
  endloop
endfacet
facet normal -2.9547107398255504e-08 -0.9914448613738105 0.13052619222004766
  outer loop
    vertex 351.4392102895189 148.49390739658563 7.499999999999987
    vertex 361.93921029459625 148.66427795221853 8.794095225512566
    vertex 351.43921029459625 148.66427826514027 8.794095225512589
  endloop
endfacet
facet normal -2.3643570371895816e-08 -0.7933533402912388 -0.6087614290087157
  outer loop
    vertex 361.9392103094824 149.1637800647417 4.999999999999968
    vertex 351.439210333163 149.95837349065286 3.96446609406724
    vertex 361.9392103331629 149.95837317773118 3.9644660940672174
  endloop
endfacet
facet normal -2.3643570371895816e-08 -0.7933533402912388 -0.6087614290087157
  outer loop
    vertex 351.439210333163 149.95837349065286 3.96446609406724
    vertex 361.9392103094824 149.1637800647417 4.999999999999968
    vertex 351.43921030948246 149.16378037766344 4.999999999999991
  endloop
endfacet
facet normal -3.889950351563398e-09 -0.13052619222005546 0.99144486137381
  outer loop
    vertex 361.9392103999625 152.19981185815132 12.329629131445312
    vertex 351.43921043852924 153.49390739658563 12.5
    vertex 351.4392103999625 152.19981217107303 12.329629131445335
  endloop
endfacet
facet normal -3.889950351563398e-09 -0.13052619222005546 0.99144486137381
  outer loop
    vertex 351.43921043852924 153.49390739658563 12.5
    vertex 361.9392103999625 152.19981185815132 12.329629131445312
    vertex 361.93921043852924 153.4939070836639 12.499999999999977
  endloop
endfacet
facet normal 2.3643568746524188e-08 0.7933533402912428 0.6087614290087101
  outer loop
    vertex 351.43921056757597 157.82403441550784 9.999999999999982
    vertex 361.93921054389546 157.0294409895967 11.03553390593271
    vertex 361.93921056757597 157.82403410258613 9.99999999999996
  endloop
endfacet
facet normal 2.3643568746524188e-08 0.7933533402912428 0.6087614290087101
  outer loop
    vertex 361.93921054389546 157.0294409895967 11.03553390593271
    vertex 351.43921056757597 157.82403441550784 9.999999999999982
    vertex 351.43921054389546 157.02944130251836 11.035533905932732
  endloop
endfacet
facet normal -0.9999999999999996 2.9802069064049836e-08 4.096441632683469e-15
  outer loop
    vertex 351.43921029459625 148.66427826514027 8.794095225512589
    vertex 351.43921029459625 148.66427826514027 6.205904774487384
    vertex 351.4392102895189 148.49390739658563 7.499999999999987
  endloop
endfacet
facet normal -0.9999999999999996 2.9802069064049836e-08 4.096441632683469e-15
  outer loop
    vertex 351.43921029459625 148.66427826514027 6.205904774487384
    vertex 351.43921029459625 148.66427826514027 8.794095225512589
    vertex 351.43921030948246 149.16378037766344 9.999999999999982
  endloop
endfacet
facet normal -0.9999999999999996 2.9802069064049836e-08 4.096441632683469e-15
  outer loop
    vertex 351.43921029459625 148.66427826514027 6.205904774487384
    vertex 351.43921030948246 149.16378037766344 9.999999999999982
    vertex 351.43921030948246 149.16378037766344 4.999999999999991
  endloop
endfacet
facet normal -0.9999999999999996 2.9802069064049836e-08 4.096441632683469e-15
  outer loop
    vertex 351.43921030948246 149.16378037766344 4.999999999999991
    vertex 351.43921030948246 149.16378037766344 9.999999999999982
    vertex 351.439210333163 149.95837349065286 11.035533905932732
  endloop
endfacet
facet normal -0.9999999999999996 2.9802069064049836e-08 4.096441632683469e-15
  outer loop
    vertex 351.43921030948246 149.16378037766344 4.999999999999991
    vertex 351.439210333163 149.95837349065286 11.035533905932732
    vertex 351.439210333163 149.95837349065286 3.96446609406724
  endloop
endfacet
facet normal -0.9999999999999996 2.9802069064049836e-08 4.096441632683469e-15
  outer loop
    vertex 351.439210333163 149.95837349065286 3.96446609406724
    vertex 351.439210333163 149.95837349065286 11.035533905932732
    vertex 351.43921036402406 150.99390739658566 11.830127018922177
  endloop
endfacet
facet normal -0.9999999999999996 2.9802069064049836e-08 4.096441632683469e-15
  outer loop
    vertex 351.439210333163 149.95837349065286 3.96446609406724
    vertex 351.43921036402406 150.99390739658566 11.830127018922177
    vertex 351.4392103580636 150.79390739658564 7.499999999999987
  endloop
endfacet
facet normal -0.9999999999999996 2.9802069064049836e-08 4.096441632683469e-15
  outer loop
    vertex 351.4392103580636 150.79390739658564 7.499999999999987
    vertex 351.43921036402406 150.99390739658566 11.830127018922177
    vertex 351.4392103608054 150.88590766560515 8.198811421776783
  endloop
endfacet
facet normal -0.9999999999999996 2.9802069064049836e-08 4.096441632683469e-15
  outer loop
    vertex 351.4392103608054 150.88590766560515 8.198811421776783
    vertex 351.43921036402406 150.99390739658566 11.830127018922177
    vertex 351.439210368844 151.15563880636765 8.849999999999994
  endloop
endfacet
facet normal -0.9999999999999996 2.9802069064049836e-08 4.096441632683469e-15
  outer loop
    vertex 351.439210368844 151.15563880636765 8.849999999999994
    vertex 351.43921036402406 150.99390739658566 11.830127018922177
    vertex 351.4392103999625 152.19981217107303 12.329629131445335
  endloop
endfacet
facet normal -0.9999999999999996 2.9802069064049836e-08 4.096441632683469e-15
  outer loop
    vertex 351.439210368844 151.15563880636765 8.849999999999994
    vertex 351.4392103999625 152.19981217107303 12.329629131445335
    vertex 351.4392103816315 151.58471908738196 9.409188309203675
  endloop
endfacet
facet normal -0.9999999999999996 2.9802069064049836e-08 4.096441632683469e-15
  outer loop
    vertex 351.4392103816315 151.58471908738196 9.409188309203675
    vertex 351.4392103999625 152.19981217107303 12.329629131445335
    vertex 351.43921039829644 152.14390739658563 9.838268590217961
  endloop
endfacet
facet normal -0.9999999999999996 2.9802069064049836e-08 4.096441632683469e-15
  outer loop
    vertex 351.43921039829644 152.14390739658563 9.838268590217961
    vertex 351.4392103999625 152.19981217107303 12.329629131445335
    vertex 351.4392104177032 152.79509597480882 10.10799973098047
  endloop
endfacet
facet normal -0.9999999999999996 2.9802069064049836e-08 4.096441632683469e-15
  outer loop
    vertex 351.4392104177032 152.79509597480882 10.10799973098047
    vertex 351.4392103999625 152.19981217107303 12.329629131445335
    vertex 351.43921043852924 153.49390739658563 12.5
  endloop
endfacet
facet normal -0.9999999999999996 2.9802069064049836e-08 4.096441632683469e-15
  outer loop
    vertex 351.4392104177032 152.79509597480882 10.10799973098047
    vertex 351.43921043852924 153.49390739658563 12.5
    vertex 351.4392104385292 153.49390739658563 10.199999999999982
  endloop
endfacet
facet normal -0.9999999999999996 2.9802069064049836e-08 4.096441632683469e-15
  outer loop
    vertex 351.4392104385292 153.49390739658563 10.199999999999982
    vertex 351.43921043852924 153.49390739658563 12.5
    vertex 351.4392104770959 154.78800262209825 12.329629131445335
  endloop
endfacet
facet normal -0.9999999999999996 2.9802069064049836e-08 4.096441632683469e-15
  outer loop
    vertex 351.4392104385292 153.49390739658563 10.199999999999982
    vertex 351.4392104770959 154.78800262209825 12.329629131445335
    vertex 351.43921045935525 154.19271881836247 10.10799973098047
  endloop
endfacet
facet normal -0.9999999999999996 2.9802069064049836e-08 4.096441632683469e-15
  outer loop
    vertex 351.43921045935525 154.19271881836247 10.10799973098047
    vertex 351.4392104770959 154.78800262209825 12.329629131445335
    vertex 351.43921047876205 154.84390739658562 9.838268590217961
  endloop
endfacet
facet normal -0.9999999999999996 2.9802069064049836e-08 4.096441632683469e-15
  outer loop
    vertex 351.43921047876205 154.84390739658562 9.838268590217961
    vertex 351.4392104770959 154.78800262209825 12.329629131445335
    vertex 351.4392105130344 155.99390739658563 11.830127018922177
  endloop
endfacet
facet normal -0.9999999999999996 2.9802069064049836e-08 4.096441632683469e-15
  outer loop
    vertex 351.43921047876205 154.84390739658562 9.838268590217961
    vertex 351.4392105130344 155.99390739658563 11.830127018922177
    vertex 351.439210495427 155.4030957057893 9.409188309203651
  endloop
endfacet
facet normal -0.9999999999999996 2.9802069064049836e-08 4.096441632683469e-15
  outer loop
    vertex 351.439210495427 155.4030957057893 9.409188309203651
    vertex 351.4392105130344 155.99390739658563 11.830127018922177
    vertex 351.43921050821444 155.83217598680363 8.849999999999994
  endloop
endfacet
facet normal -0.9999999999999996 2.9802069064049836e-08 4.096441632683469e-15
  outer loop
    vertex 351.43921050821444 155.83217598680363 8.849999999999994
    vertex 351.4392105130344 155.99390739658563 11.830127018922177
    vertex 351.43921051625296 156.10190712756616 8.198811421776783
  endloop
endfacet
facet normal -0.9999999999999996 2.9802069064049836e-08 4.096441632683469e-15
  outer loop
    vertex 351.43921051625296 156.10190712756616 8.198811421776783
    vertex 351.4392105130344 155.99390739658563 11.830127018922177
    vertex 351.43921054389546 157.02944130251836 11.035533905932732
  endloop
endfacet
facet normal -0.9999999999999996 2.9802069064049836e-08 4.096441632683469e-15
  outer loop
    vertex 351.43921051625296 156.10190712756616 8.198811421776783
    vertex 351.43921054389546 157.02944130251836 11.035533905932732
    vertex 351.4392105189948 156.19390739658564 7.499999999999987
  endloop
endfacet
facet normal -0.9999999999999996 2.9802069064049836e-08 4.096441632683469e-15
  outer loop
    vertex 351.4392103580636 150.79390739658564 7.499999999999987
    vertex 351.439210364024 150.99390739658563 3.169872981077796
    vertex 351.439210333163 149.95837349065286 3.96446609406724
  endloop
endfacet
facet normal -0.9999999999999996 2.9802069064049836e-08 4.096441632683469e-15
  outer loop
    vertex 351.439210364024 150.99390739658563 3.169872981077796
    vertex 351.4392103580636 150.79390739658564 7.499999999999987
    vertex 351.4392103608054 150.88590766560515 6.801188578223189
  endloop
endfacet
facet normal -0.9999999999999996 2.9802069064049836e-08 4.096441632683469e-15
  outer loop
    vertex 351.439210364024 150.99390739658563 3.169872981077796
    vertex 351.4392103608054 150.88590766560515 6.801188578223189
    vertex 351.439210368844 151.15563880636765 6.149999999999977
  endloop
endfacet
facet normal -0.9999999999999996 2.9802069064049836e-08 4.096441632683469e-15
  outer loop
    vertex 351.439210364024 150.99390739658563 3.169872981077796
    vertex 351.439210368844 151.15563880636765 6.149999999999977
    vertex 351.4392103999625 152.19981217107303 2.6703708685546372
  endloop
endfacet
facet normal -0.9999999999999996 2.9802069064049836e-08 4.096441632683469e-15
  outer loop
    vertex 351.4392103999625 152.19981217107303 2.6703708685546372
    vertex 351.439210368844 151.15563880636765 6.149999999999977
    vertex 351.4392103816315 151.58471908738196 5.590811690796321
  endloop
endfacet
facet normal -0.9999999999999996 2.9802069064049836e-08 4.096441632683469e-15
  outer loop
    vertex 351.4392103999625 152.19981217107303 2.6703708685546372
    vertex 351.4392103816315 151.58471908738196 5.590811690796321
    vertex 351.43921039829644 152.14390739658563 5.1617314097820115
  endloop
endfacet
facet normal -0.9999999999999996 2.9802069064049836e-08 4.096441632683469e-15
  outer loop
    vertex 351.4392103999625 152.19981217107303 2.6703708685546372
    vertex 351.43921039829644 152.14390739658563 5.1617314097820115
    vertex 351.4392104177031 152.79509597480882 4.892000269019502
  endloop
endfacet
facet normal -0.9999999999999996 2.9802069064049836e-08 4.096441632683469e-15
  outer loop
    vertex 351.4392103999625 152.19981217107303 2.6703708685546372
    vertex 351.4392104177031 152.79509597480882 4.892000269019502
    vertex 351.4392104385292 153.49390739658563 2.499999999999973
  endloop
endfacet
facet normal -0.9999999999999996 2.9802069064049836e-08 4.096441632683469e-15
  outer loop
    vertex 351.4392104385292 153.49390739658563 2.499999999999973
    vertex 351.4392104177031 152.79509597480882 4.892000269019502
    vertex 351.4392104385292 153.49390739658563 4.799999999999991
  endloop
endfacet
facet normal -0.9999999999999996 2.9802069064049836e-08 4.096441632683469e-15
  outer loop
    vertex 351.4392104385292 153.49390739658563 2.499999999999973
    vertex 351.4392104385292 153.49390739658563 4.799999999999991
    vertex 351.43921045935525 154.19271881836247 4.892000269019502
  endloop
endfacet
facet normal -0.9999999999999996 2.9802069064049836e-08 4.096441632683469e-15
  outer loop
    vertex 351.4392104385292 153.49390739658563 2.499999999999973
    vertex 351.43921045935525 154.19271881836247 4.892000269019502
    vertex 351.4392104770959 154.78800262209825 2.6703708685546372
  endloop
endfacet
facet normal -0.9999999999999996 2.9802069064049836e-08 4.096441632683469e-15
  outer loop
    vertex 351.4392104770959 154.78800262209825 2.6703708685546372
    vertex 351.43921045935525 154.19271881836247 4.892000269019502
    vertex 351.439210478762 154.84390739658562 5.1617314097820115
  endloop
endfacet
facet normal -0.9999999999999996 2.9802069064049836e-08 4.096441632683469e-15
  outer loop
    vertex 351.4392104770959 154.78800262209825 2.6703708685546372
    vertex 351.439210478762 154.84390739658562 5.1617314097820115
    vertex 351.43921051303437 155.99390739658563 3.169872981077796
  endloop
endfacet
facet normal -0.9999999999999996 2.9802069064049836e-08 4.096441632683469e-15
  outer loop
    vertex 351.43921051303437 155.99390739658563 3.169872981077796
    vertex 351.439210478762 154.84390739658562 5.1617314097820115
    vertex 351.43921049542695 155.4030957057893 5.590811690796321
  endloop
endfacet
facet normal -0.9999999999999996 2.9802069064049836e-08 4.096441632683469e-15
  outer loop
    vertex 351.43921051303437 155.99390739658563 3.169872981077796
    vertex 351.43921049542695 155.4030957057893 5.590811690796321
    vertex 351.43921050821444 155.83217598680363 6.149999999999977
  endloop
endfacet
facet normal -0.9999999999999996 2.9802069064049836e-08 4.096441632683469e-15
  outer loop
    vertex 351.43921051303437 155.99390739658563 3.169872981077796
    vertex 351.43921050821444 155.83217598680363 6.149999999999977
    vertex 351.43921051625296 156.10190712756616 6.801188578223189
  endloop
endfacet
facet normal -0.9999999999999996 2.9802069064049836e-08 4.096441632683469e-15
  outer loop
    vertex 351.43921051303437 155.99390739658563 3.169872981077796
    vertex 351.43921051625296 156.10190712756616 6.801188578223189
    vertex 351.4392105438954 157.02944130251836 3.96446609406724
  endloop
endfacet
facet normal -0.9999999999999996 2.9802069064049836e-08 4.096441632683469e-15
  outer loop
    vertex 351.4392105438954 157.02944130251836 3.96446609406724
    vertex 351.43921051625296 156.10190712756616 6.801188578223189
    vertex 351.4392105189948 156.19390739658564 7.499999999999987
  endloop
endfacet
facet normal -0.9999999999999996 2.9802069064049836e-08 4.096441632683469e-15
  outer loop
    vertex 351.4392105438954 157.02944130251836 3.96446609406724
    vertex 351.4392105189948 156.19390739658564 7.499999999999987
    vertex 351.43921054389546 157.02944130251836 11.035533905932732
  endloop
endfacet
facet normal -0.9999999999999996 2.9802069064049836e-08 4.096441632683469e-15
  outer loop
    vertex 351.4392105438954 157.02944130251836 3.96446609406724
    vertex 351.43921054389546 157.02944130251836 11.035533905932732
    vertex 351.43921056757597 157.82403441550784 9.999999999999982
  endloop
endfacet
facet normal -0.9999999999999996 2.9802069064049836e-08 4.096441632683469e-15
  outer loop
    vertex 351.4392105438954 157.02944130251836 3.96446609406724
    vertex 351.43921056757597 157.82403441550784 9.999999999999982
    vertex 351.43921056757597 157.82403441550784 4.999999999999991
  endloop
endfacet
facet normal -0.9999999999999996 2.9802069064049836e-08 4.096441632683469e-15
  outer loop
    vertex 351.43921056757597 157.82403441550784 4.999999999999991
    vertex 351.43921056757597 157.82403441550784 9.999999999999982
    vertex 351.4392105824621 158.32353652803098 8.794095225512589
  endloop
endfacet
facet normal -0.9999999999999996 2.9802069064049836e-08 4.096441632683469e-15
  outer loop
    vertex 351.43921056757597 157.82403441550784 4.999999999999991
    vertex 351.4392105824621 158.32353652803098 8.794095225512589
    vertex 351.4392105824621 158.32353652803098 6.205904774487384
  endloop
endfacet
facet normal -0.9999999999999996 2.9802069064049836e-08 4.096441632683469e-15
  outer loop
    vertex 351.4392105824621 158.32353652803098 6.205904774487384
    vertex 351.4392105824621 158.32353652803098 8.794095225512589
    vertex 351.43921058753955 158.4939073965856 7.499999999999987
  endloop
endfacet
facet normal 1.814234838988123e-08 0.6087614290087094 0.7933533402912435
  outer loop
    vertex 361.93921051303437 155.99390708366394 11.830127018922154
    vertex 351.43921054389546 157.02944130251836 11.035533905932732
    vertex 351.4392105130344 155.99390739658563 11.830127018922177
  endloop
endfacet
facet normal 1.814234838988123e-08 0.6087614290087094 0.7933533402912435
  outer loop
    vertex 351.43921054389546 157.02944130251836 11.035533905932732
    vertex 361.93921051303437 155.99390708366394 11.830127018922154
    vertex 361.93921054389546 157.0294409895967 11.03553390593271
  endloop
endfacet
facet normal 3.889946582105573e-09 0.1305261922200421 -0.9914448613738116
  outer loop
    vertex 343.8992104593552 154.19271904306999 4.892000269019524
    vertex 351.4392104385292 153.49390739658563 4.799999999999991
    vertex 343.8992104385292 153.49390762129318 4.800000000000014
  endloop
endfacet
facet normal 3.889946582105573e-09 0.1305261922200421 -0.9914448613738116
  outer loop
    vertex 351.4392104385292 153.49390739658563 4.799999999999991
    vertex 343.8992104593552 154.19271904306999 4.892000269019524
    vertex 351.43921045935525 154.19271881836247 4.892000269019502
  endloop
endfacet
facet normal 1.1404758546820419e-08 0.38268343236509733 -0.9238795325112836
  outer loop
    vertex 351.43921051303437 155.99390739658563 3.169872981077796
    vertex 361.9392104770959 154.78800230917653 2.6703708685546146
    vertex 351.4392104770959 154.78800262209825 2.6703708685546372
  endloop
endfacet
facet normal 1.1404758546820419e-08 0.38268343236509733 -0.9238795325112836
  outer loop
    vertex 361.9392104770959 154.78800230917653 2.6703708685546146
    vertex 351.43921051303437 155.99390739658563 3.169872981077796
    vertex 361.93921051303437 155.99390708366394 3.1698729810777735
  endloop
endfacet
facet normal -2.3643570370442982e-08 -0.7933533402912388 0.6087614290087157
  outer loop
    vertex 361.939210333163 149.95837317773118 11.03553390593271
    vertex 351.43921030948246 149.16378037766344 9.999999999999982
    vertex 361.93921030948246 149.1637800647417 9.99999999999996
  endloop
endfacet
facet normal -2.3643570370442982e-08 -0.7933533402912388 0.6087614290087157
  outer loop
    vertex 351.43921030948246 149.16378037766344 9.999999999999982
    vertex 361.939210333163 149.95837317773118 11.03553390593271
    vertex 351.439210333163 149.95837349065286 11.035533905932732
  endloop
endfacet
facet normal -2.7533520864820586e-08 -0.923879532511283 0.3826834323650978
  outer loop
    vertex 361.93921030948246 149.1637800647417 9.99999999999996
    vertex 351.43921029459625 148.66427826514027 8.794095225512589
    vertex 361.93921029459625 148.66427795221853 8.794095225512566
  endloop
endfacet
facet normal -2.7533520864820586e-08 -0.923879532511283 0.3826834323650978
  outer loop
    vertex 351.43921029459625 148.66427826514027 8.794095225512589
    vertex 361.93921030948246 149.1637800647417 9.99999999999996
    vertex 351.43921030948246 149.16378037766344 9.999999999999982
  endloop
endfacet
facet normal -1.1404757764069666e-08 -0.38268343236509733 0.9238795325112836
  outer loop
    vertex 361.93921036402406 150.9939070836639 11.830127018922154
    vertex 351.4392103999625 152.19981217107303 12.329629131445335
    vertex 351.43921036402406 150.99390739658566 11.830127018922177
  endloop
endfacet
facet normal -1.1404757764069666e-08 -0.38268343236509733 0.9238795325112836
  outer loop
    vertex 351.4392103999625 152.19981217107303 12.329629131445335
    vertex 361.93921036402406 150.9939070836639 11.830127018922154
    vertex 361.9392103999625 152.19981185815132 12.329629131445312
  endloop
endfacet
facet normal 2.7533522755072685e-08 0.9238795325112831 -0.3826834323650978
  outer loop
    vertex 351.43921056757597 157.82403441550784 4.999999999999991
    vertex 361.9392105824621 158.32353621510927 6.205904774487361
    vertex 361.93921056757597 157.82403410258613 4.999999999999968
  endloop
endfacet
facet normal 2.7533522755072685e-08 0.9238795325112831 -0.3826834323650978
  outer loop
    vertex 361.9392105824621 158.32353621510927 6.205904774487361
    vertex 351.43921056757597 157.82403441550784 4.999999999999991
    vertex 351.4392105824621 158.32353652803098 6.205904774487384
  endloop
endfacet
facet normal -1.140475891755095e-08 -0.3826834323650974 -0.9238795325112835
  outer loop
    vertex 343.89921041770316 152.7950961995164 4.892000269019524
    vertex 351.43921039829644 152.14390739658563 5.1617314097820115
    vertex 343.89921039829636 152.1439076212932 5.161731409782034
  endloop
endfacet
facet normal -1.140475891755095e-08 -0.3826834323650974 -0.9238795325112835
  outer loop
    vertex 351.43921039829644 152.14390739658563 5.1617314097820115
    vertex 343.89921041770316 152.7950961995164 4.892000269019524
    vertex 351.4392104177031 152.79509597480882 4.892000269019502
  endloop
endfacet
facet normal -3.88995035173666e-09 -0.1305261922200555 -0.99144486137381
  outer loop
    vertex 351.4392104385292 153.49390739658563 2.499999999999973
    vertex 361.93921039996246 152.19981185815132 2.6703708685546146
    vertex 351.4392103999625 152.19981217107303 2.6703708685546372
  endloop
endfacet
facet normal -3.88995035173666e-09 -0.1305261922200555 -0.99144486137381
  outer loop
    vertex 361.93921039996246 152.19981185815132 2.6703708685546146
    vertex 351.4392104385292 153.49390739658563 2.499999999999973
    vertex 361.9392104385292 153.4939070836639 2.4999999999999503
  endloop
endfacet
facet normal 1.814234945832947e-08 0.6087614290087235 0.793353340291233
  outer loop
    vertex 351.43921047876205 154.84390739658562 9.838268590217961
    vertex 343.899210495427 155.40309593049687 9.409188309203675
    vertex 343.899210478762 154.8439076212932 9.838268590217984
  endloop
endfacet
facet normal 1.814234945832947e-08 0.6087614290087235 0.793353340291233
  outer loop
    vertex 343.899210495427 155.40309593049687 9.409188309203675
    vertex 351.43921047876205 154.84390739658562 9.838268590217961
    vertex 351.439210495427 155.4030957057893 9.409188309203651
  endloop
endfacet
facet normal 1.1404757771851923e-08 0.382683432365103 0.9238795325112812
  outer loop
    vertex 351.43921045935525 154.19271881836247 10.10799973098047
    vertex 343.899210478762 154.8439076212932 9.838268590217984
    vertex 343.89921045935523 154.19271904306999 10.107999730980493
  endloop
endfacet
facet normal 1.1404757771851923e-08 0.382683432365103 0.9238795325112812
  outer loop
    vertex 343.899210478762 154.8439076212932 9.838268590217984
    vertex 351.43921045935525 154.19271881836247 10.10799973098047
    vertex 351.43921047876205 154.84390739658562 9.838268590217961
  endloop
endfacet
facet normal 2.9547105365460452e-08 0.9914448613738116 -0.13052619222003922
  outer loop
    vertex 351.4392105824621 158.32353652803098 6.205904774487384
    vertex 361.9392105875395 158.49390708366394 7.499999999999964
    vertex 361.9392105824621 158.32353621510927 6.205904774487361
  endloop
endfacet
facet normal 2.9547105365460452e-08 0.9914448613738116 -0.13052619222003922
  outer loop
    vertex 361.9392105875395 158.49390708366394 7.499999999999964
    vertex 351.4392105824621 158.32353652803098 6.205904774487384
    vertex 351.43921058753955 158.4939073965856 7.499999999999987
  endloop
endfacet
facet normal -1.814234963905269e-08 -0.6087614290087137 -0.7933533402912405
  outer loop
    vertex 351.439210364024 150.99390739658563 3.169872981077796
    vertex 361.9392103331629 149.95837317773118 3.9644660940672174
    vertex 351.439210333163 149.95837349065286 3.96446609406724
  endloop
endfacet
facet normal -1.814234963905269e-08 -0.6087614290087137 -0.7933533402912405
  outer loop
    vertex 361.9392103331629 149.95837317773118 3.9644660940672174
    vertex 351.439210364024 150.99390739658563 3.169872981077796
    vertex 361.939210364024 150.99390708366388 3.1698729810777735
  endloop
endfacet
facet normal -1.1404753390245452e-08 -0.38268343236509733 0.9238795325112835
  outer loop
    vertex 351.43921039829644 152.14390739658563 9.838268590217961
    vertex 343.89921041770316 152.7950961995164 10.107999730980493
    vertex 343.8992103982964 152.1439076212932 9.838268590217984
  endloop
endfacet
facet normal -1.1404753390245452e-08 -0.38268343236509733 0.9238795325112835
  outer loop
    vertex 343.89921041770316 152.7950961995164 10.107999730980493
    vertex 351.43921039829644 152.14390739658563 9.838268590217961
    vertex 351.4392104177032 152.79509597480882 10.10799973098047
  endloop
endfacet
facet normal -1.814234963905257e-08 -0.6087614290087096 0.7933533402912435
  outer loop
    vertex 361.939210333163 149.95837317773118 11.03553390593271
    vertex 351.43921036402406 150.99390739658566 11.830127018922177
    vertex 351.439210333163 149.95837349065286 11.035533905932732
  endloop
endfacet
facet normal -1.814234963905257e-08 -0.6087614290087096 0.7933533402912435
  outer loop
    vertex 351.43921036402406 150.99390739658566 11.830127018922177
    vertex 361.939210333163 149.95837317773118 11.03553390593271
    vertex 361.93921036402406 150.9939070836639 11.830127018922154
  endloop
endfacet
facet normal 2.3643566493422133e-08 0.7933533402912204 0.6087614290087395
  outer loop
    vertex 343.8992105082144 155.83217621151115 8.850000000000017
    vertex 351.439210495427 155.4030957057893 9.409188309203651
    vertex 351.43921050821444 155.83217598680363 8.849999999999994
  endloop
endfacet
facet normal 2.3643566493422133e-08 0.7933533402912204 0.6087614290087395
  outer loop
    vertex 351.439210495427 155.4030957057893 9.409188309203651
    vertex 343.8992105082144 155.83217621151115 8.850000000000017
    vertex 343.899210495427 155.40309593049687 9.409188309203675
  endloop
endfacet
facet normal 3.889950485918614e-09 0.13052619222005493 0.99144486137381
  outer loop
    vertex 361.93921043852924 153.4939070836639 12.499999999999977
    vertex 351.4392104770959 154.78800262209825 12.329629131445335
    vertex 351.43921043852924 153.49390739658563 12.5
  endloop
endfacet
facet normal 3.889950485918614e-09 0.13052619222005493 0.99144486137381
  outer loop
    vertex 351.4392104770959 154.78800262209825 12.329629131445335
    vertex 361.93921043852924 153.4939070836639 12.499999999999977
    vertex 361.9392104770959 154.78800230917653 12.329629131445312
  endloop
endfacet
facet normal 3.889952513833319e-09 0.1305261922200421 0.9914448613738116
  outer loop
    vertex 351.4392104385292 153.49390739658563 10.199999999999982
    vertex 343.89921045935523 154.19271904306999 10.107999730980493
    vertex 343.8992104385292 153.49390762129318 10.200000000000005
  endloop
endfacet
facet normal 3.889952513833319e-09 0.1305261922200421 0.9914448613738116
  outer loop
    vertex 343.89921045935523 154.19271904306999 10.107999730980493
    vertex 351.4392104385292 153.49390739658563 10.199999999999982
    vertex 351.43921045935525 154.19271881836247 10.10799973098047
  endloop
endfacet
facet normal 2.9547105363813254e-08 0.9914448613738116 0.13052619222003922
  outer loop
    vertex 351.43921058753955 158.4939073965856 7.499999999999987
    vertex 361.9392105824621 158.32353621510927 8.794095225512566
    vertex 361.9392105875395 158.49390708366394 7.499999999999964
  endloop
endfacet
facet normal 2.9547105363813254e-08 0.9914448613738116 0.13052619222003922
  outer loop
    vertex 361.9392105824621 158.32353621510927 8.794095225512566
    vertex 351.43921058753955 158.4939073965856 7.499999999999987
    vertex 351.4392105824621 158.32353652803098 8.794095225512589
  endloop
endfacet
facet normal -1.140475775900282e-08 -0.38268343236509417 -0.9238795325112849
  outer loop
    vertex 351.4392103999625 152.19981217107303 2.6703708685546372
    vertex 361.939210364024 150.99390708366388 3.1698729810777735
    vertex 351.439210364024 150.99390739658563 3.169872981077796
  endloop
endfacet
facet normal -1.140475775900282e-08 -0.38268343236509417 -0.9238795325112849
  outer loop
    vertex 361.939210364024 150.99390708366388 3.1698729810777735
    vertex 351.4392103999625 152.19981217107303 2.6703708685546372
    vertex 361.93921039996246 152.19981185815132 2.6703708685546146
  endloop
endfacet
facet normal 1.1404752244635363e-08 0.38268343236510305 -0.9238795325112812
  outer loop
    vertex 343.899210478762 154.8439076212932 5.161731409782034
    vertex 351.43921045935525 154.19271881836247 4.892000269019502
    vertex 343.8992104593552 154.19271904306999 4.892000269019524
  endloop
endfacet
facet normal 1.1404752244635363e-08 0.38268343236510305 -0.9238795325112812
  outer loop
    vertex 351.43921045935525 154.19271881836247 4.892000269019502
    vertex 343.899210478762 154.8439076212932 5.161731409782034
    vertex 351.439210478762 154.84390739658562 5.1617314097820115
  endloop
endfacet
facet normal -2.954710433357598e-08 -0.9914448613738107 0.13052619222004647
  outer loop
    vertex 351.4392103608054 150.88590766560515 8.198811421776783
    vertex 343.8992103580636 150.79390762129322 7.500000000000009
    vertex 351.4392103580636 150.79390739658564 7.499999999999987
  endloop
endfacet
facet normal -2.954710433357598e-08 -0.9914448613738107 0.13052619222004647
  outer loop
    vertex 343.8992103580636 150.79390762129322 7.500000000000009
    vertex 351.4392103608054 150.88590766560515 8.198811421776783
    vertex 343.8992103608054 150.88590789031272 8.198811421776806
  endloop
endfacet
facet normal -2.7533517220098813e-08 -0.9238795325112854 0.38268343236509217
  outer loop
    vertex 351.439210368844 151.15563880636765 8.849999999999994
    vertex 343.8992103608054 150.88590789031272 8.198811421776806
    vertex 351.4392103608054 150.88590766560515 8.198811421776783
  endloop
endfacet
facet normal -2.7533517220098813e-08 -0.9238795325112854 0.38268343236509217
  outer loop
    vertex 343.8992103608054 150.88590789031272 8.198811421776806
    vertex 351.439210368844 151.15563880636765 8.849999999999994
    vertex 343.89921036884397 151.15563903107522 8.850000000000017
  endloop
endfacet
facet normal -0.9999999999999996 2.9802064267779618e-08 5.753860059154993e-15
  outer loop
    vertex 343.8992103608054 150.88590789031272 8.198811421776806
    vertex 343.8992103608054 150.88590789031272 6.801188578223212
    vertex 343.8992103580636 150.79390762129322 7.500000000000009
  endloop
endfacet
facet normal -0.9999999999999996 2.9802064267779618e-08 5.753860059154993e-15
  outer loop
    vertex 343.8992103608054 150.88590789031272 6.801188578223212
    vertex 343.8992103608054 150.88590789031272 8.198811421776806
    vertex 343.89921036884397 151.15563903107522 8.850000000000017
  endloop
endfacet
facet normal -0.9999999999999996 2.9802064267779618e-08 5.753860059154993e-15
  outer loop
    vertex 343.8992103608054 150.88590789031272 6.801188578223212
    vertex 343.89921036884397 151.15563903107522 8.850000000000017
    vertex 343.89921036884397 151.15563903107522 6.15
  endloop
endfacet
facet normal -0.9999999999999996 2.9802064267779618e-08 5.753860059154993e-15
  outer loop
    vertex 343.89921036884397 151.15563903107522 6.15
    vertex 343.89921036884397 151.15563903107522 8.850000000000017
    vertex 343.89921038163146 151.58471931208953 9.409188309203696
  endloop
endfacet
facet normal -0.9999999999999996 2.9802064267779618e-08 5.753860059154993e-15
  outer loop
    vertex 343.89921036884397 151.15563903107522 6.15
    vertex 343.89921038163146 151.58471931208953 9.409188309203696
    vertex 343.8992103816314 151.58471931208953 5.590811690796344
  endloop
endfacet
facet normal -0.9999999999999996 2.9802064267779618e-08 5.753860059154993e-15
  outer loop
    vertex 343.8992103816314 151.58471931208953 5.590811690796344
    vertex 343.89921038163146 151.58471931208953 9.409188309203696
    vertex 343.8992103982964 152.1439076212932 9.838268590217984
  endloop
endfacet
facet normal -0.9999999999999996 2.9802064267779618e-08 5.753860059154993e-15
  outer loop
    vertex 343.8992103816314 151.58471931208953 5.590811690796344
    vertex 343.8992103982964 152.1439076212932 9.838268590217984
    vertex 343.89921039829636 152.1439076212932 5.161731409782034
  endloop
endfacet
facet normal -0.9999999999999996 2.9802064267779618e-08 5.753860059154993e-15
  outer loop
    vertex 343.89921039829636 152.1439076212932 5.161731409782034
    vertex 343.8992103982964 152.1439076212932 9.838268590217984
    vertex 343.89921041770316 152.7950961995164 10.107999730980493
  endloop
endfacet
facet normal -0.9999999999999996 2.9802064267779618e-08 5.753860059154993e-15
  outer loop
    vertex 343.89921039829636 152.1439076212932 5.161731409782034
    vertex 343.89921041770316 152.7950961995164 10.107999730980493
    vertex 343.89921041770316 152.7950961995164 4.892000269019524
  endloop
endfacet
facet normal -0.9999999999999996 2.9802064267779618e-08 5.753860059154993e-15
  outer loop
    vertex 343.89921041770316 152.7950961995164 4.892000269019524
    vertex 343.89921041770316 152.7950961995164 10.107999730980493
    vertex 343.8992104385292 153.49390762129318 10.200000000000005
  endloop
endfacet
facet normal -0.9999999999999996 2.9802064267779618e-08 5.753860059154993e-15
  outer loop
    vertex 343.89921041770316 152.7950961995164 4.892000269019524
    vertex 343.8992104385292 153.49390762129318 10.200000000000005
    vertex 343.8992104385292 153.49390762129318 4.800000000000014
  endloop
endfacet
facet normal -0.9999999999999996 2.9802064267779618e-08 5.753860059154993e-15
  outer loop
    vertex 343.8992104385292 153.49390762129318 4.800000000000014
    vertex 343.8992104385292 153.49390762129318 10.200000000000005
    vertex 343.89921045935523 154.19271904306999 10.107999730980493
  endloop
endfacet
facet normal -0.9999999999999996 2.9802064267779618e-08 5.753860059154993e-15
  outer loop
    vertex 343.8992104385292 153.49390762129318 4.800000000000014
    vertex 343.89921045935523 154.19271904306999 10.107999730980493
    vertex 343.8992104593552 154.19271904306999 4.892000269019524
  endloop
endfacet
facet normal -0.9999999999999996 2.9802064267779618e-08 5.753860059154993e-15
  outer loop
    vertex 343.8992104593552 154.19271904306999 4.892000269019524
    vertex 343.89921045935523 154.19271904306999 10.107999730980493
    vertex 343.899210478762 154.8439076212932 9.838268590217984
  endloop
endfacet
facet normal -0.9999999999999996 2.9802064267779618e-08 5.753860059154993e-15
  outer loop
    vertex 343.8992104593552 154.19271904306999 4.892000269019524
    vertex 343.899210478762 154.8439076212932 9.838268590217984
    vertex 343.899210478762 154.8439076212932 5.161731409782034
  endloop
endfacet
facet normal -0.9999999999999996 2.9802064267779618e-08 5.753860059154993e-15
  outer loop
    vertex 343.899210478762 154.8439076212932 5.161731409782034
    vertex 343.899210478762 154.8439076212932 9.838268590217984
    vertex 343.899210495427 155.40309593049687 9.409188309203675
  endloop
endfacet
facet normal -0.9999999999999996 2.9802064267779618e-08 5.753860059154993e-15
  outer loop
    vertex 343.899210478762 154.8439076212932 5.161731409782034
    vertex 343.899210495427 155.40309593049687 9.409188309203675
    vertex 343.8992104954269 155.40309593049687 5.590811690796344
  endloop
endfacet
facet normal -0.9999999999999996 2.9802064267779618e-08 5.753860059154993e-15
  outer loop
    vertex 343.8992104954269 155.40309593049687 5.590811690796344
    vertex 343.899210495427 155.40309593049687 9.409188309203675
    vertex 343.8992105082144 155.83217621151115 8.850000000000017
  endloop
endfacet
facet normal -0.9999999999999996 2.9802064267779618e-08 5.753860059154993e-15
  outer loop
    vertex 343.8992104954269 155.40309593049687 5.590811690796344
    vertex 343.8992105082144 155.83217621151115 8.850000000000017
    vertex 343.8992105082144 155.83217621151115 6.15
  endloop
endfacet
facet normal -0.9999999999999996 2.9802064267779618e-08 5.753860059154993e-15
  outer loop
    vertex 343.8992105082144 155.83217621151115 6.15
    vertex 343.8992105082144 155.83217621151115 8.850000000000017
    vertex 343.899210516253 156.10190735227366 8.198811421776806
  endloop
endfacet
facet normal -0.9999999999999996 2.9802064267779618e-08 5.753860059154993e-15
  outer loop
    vertex 343.8992105082144 155.83217621151115 6.15
    vertex 343.899210516253 156.10190735227366 8.198811421776806
    vertex 343.899210516253 156.10190735227366 6.801188578223212
  endloop
endfacet
facet normal -0.9999999999999996 2.9802064267779618e-08 5.753860059154993e-15
  outer loop
    vertex 343.899210516253 156.10190735227366 6.801188578223212
    vertex 343.899210516253 156.10190735227366 8.198811421776806
    vertex 343.8992105189948 156.1939076212932 7.500000000000009
  endloop
endfacet
facet normal 2.364356284993555e-08 0.7933533402912204 -0.6087614290087394
  outer loop
    vertex 343.8992104954269 155.40309593049687 5.590811690796344
    vertex 351.43921050821444 155.83217598680363 6.149999999999977
    vertex 351.43921049542695 155.4030957057893 5.590811690796321
  endloop
endfacet
facet normal 2.364356284993555e-08 0.7933533402912204 -0.6087614290087394
  outer loop
    vertex 351.43921050821444 155.83217598680363 6.149999999999977
    vertex 343.8992104954269 155.40309593049687 5.590811690796344
    vertex 343.8992105082144 155.83217621151115 6.15
  endloop
endfacet
facet normal 1.81423508876069e-08 0.6087614290087179 -0.7933533402912373
  outer loop
    vertex 351.4392105438954 157.02944130251836 3.96446609406724
    vertex 361.93921051303437 155.99390708366394 3.1698729810777735
    vertex 351.43921051303437 155.99390739658563 3.169872981077796
  endloop
endfacet
facet normal 1.81423508876069e-08 0.6087614290087179 -0.7933533402912373
  outer loop
    vertex 361.93921051303437 155.99390708366394 3.1698729810777735
    vertex 351.4392105438954 157.02944130251836 3.96446609406724
    vertex 361.9392105438954 157.02944098959665 3.9644660940672174
  endloop
endfacet
facet normal -2.9547105113802377e-08 -0.9914448613738107 -0.13052619222004644
  outer loop
    vertex 351.4392103580636 150.79390739658564 7.499999999999987
    vertex 343.8992103608054 150.88590789031272 6.801188578223212
    vertex 351.4392103608054 150.88590766560515 6.801188578223189
  endloop
endfacet
facet normal -2.9547105113802377e-08 -0.9914448613738107 -0.13052619222004644
  outer loop
    vertex 343.8992103608054 150.88590789031272 6.801188578223212
    vertex 351.4392103580636 150.79390739658564 7.499999999999987
    vertex 343.8992103580636 150.79390762129322 7.500000000000009
  endloop
endfacet
facet normal -2.7533519510360458e-08 -0.9238795325112854 -0.38268343236509217
  outer loop
    vertex 351.4392103608054 150.88590766560515 6.801188578223189
    vertex 343.89921036884397 151.15563903107522 6.15
    vertex 351.439210368844 151.15563880636765 6.149999999999977
  endloop
endfacet
facet normal -2.7533519510360458e-08 -0.9238795325112854 -0.38268343236509217
  outer loop
    vertex 343.89921036884397 151.15563903107522 6.15
    vertex 351.4392103608054 150.88590766560515 6.801188578223189
    vertex 343.8992103608054 150.88590789031272 6.801188578223212
  endloop
endfacet
facet normal -2.364357064616034e-08 -0.7933533402912244 -0.6087614290087344
  outer loop
    vertex 351.439210368844 151.15563880636765 6.149999999999977
    vertex 343.8992103816314 151.58471931208953 5.590811690796344
    vertex 351.4392103816315 151.58471908738196 5.590811690796321
  endloop
endfacet
facet normal -2.364357064616034e-08 -0.7933533402912244 -0.6087614290087344
  outer loop
    vertex 343.8992103816314 151.58471931208953 5.590811690796344
    vertex 351.439210368844 151.15563880636765 6.149999999999977
    vertex 343.89921036884397 151.15563903107522 6.15
  endloop
endfacet
facet normal -3.8899529051989595e-09 -0.13052619222004627 -0.9914448613738112
  outer loop
    vertex 343.8992104385292 153.49390762129318 4.800000000000014
    vertex 351.4392104177031 152.79509597480882 4.892000269019502
    vertex 343.89921041770316 152.7950961995164 4.892000269019524
  endloop
endfacet
facet normal -3.8899529051989595e-09 -0.13052619222004627 -0.9914448613738112
  outer loop
    vertex 351.4392104177031 152.79509597480882 4.892000269019502
    vertex 343.8992104385292 153.49390762129318 4.800000000000014
    vertex 351.4392104385292 153.49390739658563 4.799999999999991
  endloop
endfacet
facet normal -2.36435670041721e-08 -0.793353340291236 0.608761429008719
  outer loop
    vertex 351.4392103816315 151.58471908738196 9.409188309203675
    vertex 343.89921036884397 151.15563903107522 8.850000000000017
    vertex 351.439210368844 151.15563880636765 8.849999999999994
  endloop
endfacet
facet normal -2.36435670041721e-08 -0.793353340291236 0.608761429008719
  outer loop
    vertex 343.89921036884397 151.15563903107522 8.850000000000017
    vertex 351.4392103816315 151.58471908738196 9.409188309203675
    vertex 343.89921038163146 151.58471931208953 9.409188309203696
  endloop
endfacet
facet normal 2.3643571994652217e-08 0.7933533402912345 -0.6087614290087211
  outer loop
    vertex 351.4392105438954 157.02944130251836 3.96446609406724
    vertex 361.93921056757597 157.82403410258613 4.999999999999968
    vertex 361.9392105438954 157.02944098959665 3.9644660940672174
  endloop
endfacet
facet normal 2.3643571994652217e-08 0.7933533402912345 -0.6087614290087211
  outer loop
    vertex 361.93921056757597 157.82403410258613 4.999999999999968
    vertex 351.4392105438954 157.02944130251836 3.96446609406724
    vertex 351.43921056757597 157.82403441550784 4.999999999999991
  endloop
endfacet
facet normal 1.8142344714403107e-08 0.6087614290087233 -0.7933533402912328
  outer loop
    vertex 343.8992104954269 155.40309593049687 5.590811690796344
    vertex 351.439210478762 154.84390739658562 5.1617314097820115
    vertex 343.899210478762 154.8439076212932 5.161731409782034
  endloop
endfacet
facet normal 1.8142344714403107e-08 0.6087614290087233 -0.7933533402912328
  outer loop
    vertex 351.439210478762 154.84390739658562 5.1617314097820115
    vertex 343.8992104954269 155.40309593049687 5.590811690796344
    vertex 351.43921049542695 155.4030957057893 5.590811690796321
  endloop
endfacet
facet normal 2.95471006651615e-08 0.9914448613738107 0.1305261922200464
  outer loop
    vertex 343.8992105189948 156.1939076212932 7.500000000000009
    vertex 351.43921051625296 156.10190712756616 8.198811421776783
    vertex 351.4392105189948 156.19390739658564 7.499999999999987
  endloop
endfacet
facet normal 2.95471006651615e-08 0.9914448613738107 0.1305261922200464
  outer loop
    vertex 351.43921051625296 156.10190712756616 8.198811421776783
    vertex 343.8992105189948 156.1939076212932 7.500000000000009
    vertex 343.899210516253 156.10190735227366 8.198811421776806
  endloop
endfacet
facet normal 2.7533510309503873e-08 0.9238795325112854 -0.3826834323650922
  outer loop
    vertex 343.8992105082144 155.83217621151115 6.15
    vertex 351.43921051625296 156.10190712756616 6.801188578223189
    vertex 351.43921050821444 155.83217598680363 6.149999999999977
  endloop
endfacet
facet normal 2.7533510309503873e-08 0.9238795325112854 -0.3826834323650922
  outer loop
    vertex 351.43921051625296 156.10190712756616 6.801188578223189
    vertex 343.8992105082144 155.83217621151115 6.15
    vertex 343.899210516253 156.10190735227366 6.801188578223212
  endloop
endfacet
facet normal 2.9547099884026226e-08 0.9914448613738107 -0.1305261922200464
  outer loop
    vertex 343.899210516253 156.10190735227366 6.801188578223212
    vertex 351.4392105189948 156.19390739658564 7.499999999999987
    vertex 351.43921051625296 156.10190712756616 6.801188578223189
  endloop
endfacet
facet normal 2.9547099884026226e-08 0.9914448613738107 -0.1305261922200464
  outer loop
    vertex 351.4392105189948 156.19390739658564 7.499999999999987
    vertex 343.899210516253 156.10190735227366 6.801188578223212
    vertex 343.8992105189948 156.1939076212932 7.500000000000009
  endloop
endfacet
facet normal 1.1404758544287034e-08 0.3826834323650973 0.9238795325112836
  outer loop
    vertex 361.9392104770959 154.78800230917653 12.329629131445312
    vertex 351.4392105130344 155.99390739658563 11.830127018922177
    vertex 351.4392104770959 154.78800262209825 12.329629131445335
  endloop
endfacet
facet normal 1.1404758544287034e-08 0.3826834323650973 0.9238795325112836
  outer loop
    vertex 351.4392105130344 155.99390739658563 11.830127018922177
    vertex 361.9392104770959 154.78800230917653 12.329629131445312
    vertex 361.93921051303437 155.99390708366394 11.830127018922154
  endloop
endfacet
facet normal 2.7533522752036138e-08 0.923879532511283 0.3826834323650978
  outer loop
    vertex 351.4392105824621 158.32353652803098 8.794095225512589
    vertex 361.93921056757597 157.82403410258613 9.99999999999996
    vertex 361.9392105824621 158.32353621510927 8.794095225512566
  endloop
endfacet
facet normal 2.7533522752036138e-08 0.923879532511283 0.3826834323650978
  outer loop
    vertex 361.93921056757597 157.82403410258613 9.99999999999996
    vertex 351.4392105824621 158.32353652803098 8.794095225512589
    vertex 351.43921056757597 157.82403441550784 9.999999999999982
  endloop
endfacet
facet normal 2.7533512599676616e-08 0.9238795325112854 0.3826834323650921
  outer loop
    vertex 343.899210516253 156.10190735227366 8.198811421776806
    vertex 351.43921050821444 155.83217598680363 8.849999999999994
    vertex 351.43921051625296 156.10190712756616 8.198811421776783
  endloop
endfacet
facet normal 2.7533512599676616e-08 0.9238795325112854 0.3826834323650921
  outer loop
    vertex 351.43921050821444 155.83217598680363 8.849999999999994
    vertex 343.899210516253 156.10190735227366 8.198811421776806
    vertex 343.8992105082144 155.83217621151115 8.850000000000017
  endloop
endfacet
facet normal -1.814234562208507e-08 -0.6087614290087111 0.7933533402912423
  outer loop
    vertex 351.4392103816315 151.58471908738196 9.409188309203675
    vertex 343.8992103982964 152.1439076212932 9.838268590217984
    vertex 343.89921038163146 151.58471931208953 9.409188309203696
  endloop
endfacet
facet normal -1.814234562208507e-08 -0.6087614290087111 0.7933533402912423
  outer loop
    vertex 343.8992103982964 152.1439076212932 9.838268590217984
    vertex 351.4392103816315 151.58471908738196 9.409188309203675
    vertex 351.43921039829644 152.14390739658563 9.838268590217961
  endloop
endfacet
facet normal -1.8142350369916487e-08 -0.6087614290087312 -0.7933533402912268
  outer loop
    vertex 343.89921039829636 152.1439076212932 5.161731409782034
    vertex 351.4392103816315 151.58471908738196 5.590811690796321
    vertex 343.8992103816314 151.58471931208953 5.590811690796344
  endloop
endfacet
facet normal -1.8142350369916487e-08 -0.6087614290087312 -0.7933533402912268
  outer loop
    vertex 351.4392103816315 151.58471908738196 5.590811690796321
    vertex 343.89921039829636 152.1439076212932 5.161731409782034
    vertex 351.43921039829644 152.14390739658563 5.1617314097820115
  endloop
endfacet
facet normal 0.9999999999999996 -2.9802068857271027e-08 -3.863102369705648e-15
  outer loop
    vertex 361.93921029459625 148.66427795221853 6.205904774487361
    vertex 361.93921029459625 148.66427795221853 8.794095225512566
    vertex 361.9392102895189 148.49390708366388 7.499999999999964
  endloop
endfacet
facet normal 0.9999999999999996 -2.9802068857271027e-08 -3.863102369705648e-15
  outer loop
    vertex 361.93921029459625 148.66427795221853 8.794095225512566
    vertex 361.93921029459625 148.66427795221853 6.205904774487361
    vertex 361.9392103094824 149.1637800647417 4.999999999999968
  endloop
endfacet
facet normal 0.9999999999999996 -2.9802068857271027e-08 -3.863102369705648e-15
  outer loop
    vertex 361.93921029459625 148.66427795221853 8.794095225512566
    vertex 361.9392103094824 149.1637800647417 4.999999999999968
    vertex 361.93921030948246 149.1637800647417 9.99999999999996
  endloop
endfacet
facet normal 0.9999999999999996 -2.9802068857271027e-08 -3.863102369705648e-15
  outer loop
    vertex 361.93921030948246 149.1637800647417 9.99999999999996
    vertex 361.9392103094824 149.1637800647417 4.999999999999968
    vertex 361.9392103331629 149.95837317773118 3.9644660940672174
  endloop
endfacet
facet normal 0.9999999999999996 -2.9802068857271027e-08 -3.863102369705648e-15
  outer loop
    vertex 361.93921030948246 149.1637800647417 9.99999999999996
    vertex 361.9392103331629 149.95837317773118 3.9644660940672174
    vertex 361.939210333163 149.95837317773118 11.03553390593271
  endloop
endfacet
facet normal 0.9999999999999996 -2.9802068857271027e-08 -3.863102369705648e-15
  outer loop
    vertex 361.939210333163 149.95837317773118 11.03553390593271
    vertex 361.9392103331629 149.95837317773118 3.9644660940672174
    vertex 361.939210364024 150.99390708366388 3.1698729810777735
  endloop
endfacet
facet normal 0.9999999999999996 -2.9802068857271027e-08 -3.863102369705648e-15
  outer loop
    vertex 361.939210333163 149.95837317773118 11.03553390593271
    vertex 361.939210364024 150.99390708366388 3.1698729810777735
    vertex 361.93921036402406 150.9939070836639 11.830127018922154
  endloop
endfacet
facet normal 0.9999999999999996 -2.9802068857271027e-08 -3.863102369705648e-15
  outer loop
    vertex 361.93921036402406 150.9939070836639 11.830127018922154
    vertex 361.939210364024 150.99390708366388 3.1698729810777735
    vertex 361.93921039996246 152.19981185815132 2.6703708685546146
  endloop
endfacet
facet normal 0.9999999999999996 -2.9802068857271027e-08 -3.863102369705648e-15
  outer loop
    vertex 361.93921036402406 150.9939070836639 11.830127018922154
    vertex 361.93921039996246 152.19981185815132 2.6703708685546146
    vertex 361.9392103999625 152.19981185815132 12.329629131445312
  endloop
endfacet
facet normal 0.9999999999999996 -2.9802068857271027e-08 -3.863102369705648e-15
  outer loop
    vertex 361.9392103999625 152.19981185815132 12.329629131445312
    vertex 361.93921039996246 152.19981185815132 2.6703708685546146
    vertex 361.9392104385292 153.4939070836639 2.4999999999999503
  endloop
endfacet
facet normal 0.9999999999999996 -2.9802068857271027e-08 -3.863102369705648e-15
  outer loop
    vertex 361.9392103999625 152.19981185815132 12.329629131445312
    vertex 361.9392104385292 153.4939070836639 2.4999999999999503
    vertex 361.93921043852924 153.4939070836639 12.499999999999977
  endloop
endfacet
facet normal 0.9999999999999996 -2.9802068857271027e-08 -3.863102369705648e-15
  outer loop
    vertex 361.93921043852924 153.4939070836639 12.499999999999977
    vertex 361.9392104385292 153.4939070836639 2.4999999999999503
    vertex 361.9392104770959 154.78800230917653 2.6703708685546146
  endloop
endfacet
facet normal 0.9999999999999996 -2.9802068857271027e-08 -3.863102369705648e-15
  outer loop
    vertex 361.93921043852924 153.4939070836639 12.499999999999977
    vertex 361.9392104770959 154.78800230917653 2.6703708685546146
    vertex 361.9392104770959 154.78800230917653 12.329629131445312
  endloop
endfacet
facet normal 0.9999999999999996 -2.9802068857271027e-08 -3.863102369705648e-15
  outer loop
    vertex 361.9392104770959 154.78800230917653 12.329629131445312
    vertex 361.9392104770959 154.78800230917653 2.6703708685546146
    vertex 361.93921051303437 155.99390708366394 3.1698729810777735
  endloop
endfacet
facet normal 0.9999999999999996 -2.9802068857271027e-08 -3.863102369705648e-15
  outer loop
    vertex 361.9392104770959 154.78800230917653 12.329629131445312
    vertex 361.93921051303437 155.99390708366394 3.1698729810777735
    vertex 361.93921051303437 155.99390708366394 11.830127018922154
  endloop
endfacet
facet normal 0.9999999999999996 -2.9802068857271027e-08 -3.863102369705648e-15
  outer loop
    vertex 361.93921051303437 155.99390708366394 11.830127018922154
    vertex 361.93921051303437 155.99390708366394 3.1698729810777735
    vertex 361.9392105438954 157.02944098959665 3.9644660940672174
  endloop
endfacet
facet normal 0.9999999999999996 -2.9802068857271027e-08 -3.863102369705648e-15
  outer loop
    vertex 361.93921051303437 155.99390708366394 11.830127018922154
    vertex 361.9392105438954 157.02944098959665 3.9644660940672174
    vertex 361.93921054389546 157.0294409895967 11.03553390593271
  endloop
endfacet
facet normal 0.9999999999999996 -2.9802068857271027e-08 -3.863102369705648e-15
  outer loop
    vertex 361.93921054389546 157.0294409895967 11.03553390593271
    vertex 361.9392105438954 157.02944098959665 3.9644660940672174
    vertex 361.93921056757597 157.82403410258613 4.999999999999968
  endloop
endfacet
facet normal 0.9999999999999996 -2.9802068857271027e-08 -3.863102369705648e-15
  outer loop
    vertex 361.93921054389546 157.0294409895967 11.03553390593271
    vertex 361.93921056757597 157.82403410258613 4.999999999999968
    vertex 361.93921056757597 157.82403410258613 9.99999999999996
  endloop
endfacet
facet normal 0.9999999999999996 -2.9802068857271027e-08 -3.863102369705648e-15
  outer loop
    vertex 361.93921056757597 157.82403410258613 9.99999999999996
    vertex 361.93921056757597 157.82403410258613 4.999999999999968
    vertex 361.9392105824621 158.32353621510927 6.205904774487361
  endloop
endfacet
facet normal 0.9999999999999996 -2.9802068857271027e-08 -3.863102369705648e-15
  outer loop
    vertex 361.93921056757597 157.82403410258613 9.99999999999996
    vertex 361.9392105824621 158.32353621510927 6.205904774487361
    vertex 361.9392105824621 158.32353621510927 8.794095225512566
  endloop
endfacet
facet normal 0.9999999999999996 -2.9802068857271027e-08 -3.863102369705648e-15
  outer loop
    vertex 361.9392105824621 158.32353621510927 8.794095225512566
    vertex 361.9392105824621 158.32353621510927 6.205904774487361
    vertex 361.9392105875395 158.49390708366394 7.499999999999964
  endloop
endfacet
endsolid Design - Rolled
