solid Design - Rolled
facet normal 3.307076834602185e-13 -1.7442606162407957e-42 1.0
  outer loop
    vertex 909.0062429289696 1568.539704757338 12.478612153435146
    vertex 901.0666567123028 1568.6078531047547 12.47861215343777
    vertex 900.5490186220977 1568.5397047573329 12.478612153437942
  endloop
endfacet
facet normal 3.307076834602185e-13 -1.7442606162407957e-42 1.0
  outer loop
    vertex 901.0666567123028 1568.6078531047547 12.47861215343777
    vertex 909.0062429289696 1568.539704757338 12.478612153435146
    vertex 908.4886048387646 1568.60785310476 12.478612153435316
  endloop
endfacet
facet normal 3.307076834602185e-13 -1.7442606162407957e-42 1.0
  outer loop
    vertex 901.0666567123028 1568.6078531047547 12.47861215343777
    vertex 908.4886048387646 1568.60785310476 12.478612153435316
    vertex 901.5490186220976 1568.807653949764 12.478612153437611
  endloop
endfacet
facet normal 3.307076834602185e-13 -1.7442606162407957e-42 1.0
  outer loop
    vertex 901.5490186220976 1568.807653949764 12.478612153437611
    vertex 908.4886048387646 1568.60785310476 12.478612153435316
    vertex 908.0062429289694 1568.8076539497692 12.478612153435476
  endloop
endfacet
facet normal 3.307076834602185e-13 -1.7442606162407957e-42 1.0
  outer loop
    vertex 901.5490186220976 1568.807653949764 12.478612153437611
    vertex 908.0062429289694 1568.8076539497692 12.478612153435476
    vertex 901.9632321844708 1569.1254911949597 12.478612153437474
  endloop
endfacet
facet normal 3.307076834602185e-13 -1.7442606162407957e-42 1.0
  outer loop
    vertex 901.9632321844708 1569.1254911949597 12.478612153437474
    vertex 908.0062429289694 1568.8076539497692 12.478612153435476
    vertex 907.5920293665964 1569.125491194965 12.478612153435613
  endloop
endfacet
facet normal 3.307076834602185e-13 -1.7442606162407957e-42 1.0
  outer loop
    vertex 901.9632321844708 1569.1254911949597 12.478612153437474
    vertex 907.5920293665964 1569.125491194965 12.478612153435613
    vertex 902.2810694296667 1569.5397047573329 12.47861215343737
  endloop
endfacet
facet normal 3.307076834602185e-13 -1.7442606162407957e-42 1.0
  outer loop
    vertex 902.2810694296667 1569.5397047573329 12.47861215343737
    vertex 907.5920293665964 1569.125491194965 12.478612153435613
    vertex 907.2741921214007 1569.5397047573379 12.478612153435718
  endloop
endfacet
facet normal 3.307076834602185e-13 -1.7442606162407957e-42 1.0
  outer loop
    vertex 902.2810694296667 1569.5397047573329 12.47861215343737
    vertex 907.2741921214007 1569.5397047573379 12.478612153435718
    vertex 902.4808702746759 1570.0220666671278 12.478612153437304
  endloop
endfacet
facet normal 3.307076834602185e-13 -1.7442606162407957e-42 1.0
  outer loop
    vertex 902.4808702746759 1570.0220666671278 12.478612153437304
    vertex 907.2741921214007 1569.5397047573379 12.478612153435718
    vertex 907.0743912763913 1570.022066667133 12.478612153435783
  endloop
endfacet
facet normal 3.307076834602185e-13 -1.7442606162407957e-42 1.0
  outer loop
    vertex 902.4808702746759 1570.0220666671278 12.478612153437304
    vertex 907.0743912763913 1570.022066667133 12.478612153435783
    vertex 902.5490186220977 1570.5397047573329 12.47861215343728
  endloop
endfacet
facet normal 3.307076834602185e-13 -1.7442606162407957e-42 1.0
  outer loop
    vertex 902.5490186220977 1570.5397047573329 12.47861215343728
    vertex 907.0743912763913 1570.022066667133 12.478612153435783
    vertex 907.0062429289695 1570.539704757338 12.478612153435806
  endloop
endfacet
facet normal 3.307076834602185e-13 -1.7442606162407957e-42 1.0
  outer loop
    vertex 902.5490186220977 1570.5397047573329 12.47861215343728
    vertex 907.0062429289695 1570.539704757338 12.478612153435806
    vertex 902.4808702746759 1571.057342847538 12.478612153437304
  endloop
endfacet
facet normal 3.307076834602185e-13 -1.7442606162407957e-42 1.0
  outer loop
    vertex 902.4808702746759 1571.057342847538 12.478612153437304
    vertex 907.0062429289695 1570.539704757338 12.478612153435806
    vertex 907.0743912763913 1571.0573428475432 12.478612153435783
  endloop
endfacet
facet normal 3.307076834602185e-13 -1.7442606162407957e-42 1.0
  outer loop
    vertex 902.4808702746759 1571.057342847538 12.478612153437304
    vertex 907.0743912763913 1571.0573428475432 12.478612153435783
    vertex 902.2810694296667 1571.539704757333 12.47861215343737
  endloop
endfacet
facet normal 3.307076834602185e-13 -1.7442606162407957e-42 1.0
  outer loop
    vertex 902.2810694296667 1571.539704757333 12.47861215343737
    vertex 907.0743912763913 1571.0573428475432 12.478612153435783
    vertex 907.2741921214007 1571.539704757338 12.478612153435718
  endloop
endfacet
facet normal 3.307076834602185e-13 -1.7442606162407957e-42 1.0
  outer loop
    vertex 902.2810694296667 1571.539704757333 12.47861215343737
    vertex 907.2741921214007 1571.539704757338 12.478612153435718
    vertex 901.9632321844708 1571.953918319706 12.478612153437474
  endloop
endfacet
facet normal 3.307076834602185e-13 -1.7442606162407957e-42 1.0
  outer loop
    vertex 901.9632321844708 1571.953918319706 12.478612153437474
    vertex 907.2741921214007 1571.539704757338 12.478612153435718
    vertex 907.5920293665964 1571.9539183197112 12.478612153435613
  endloop
endfacet
facet normal 3.307076834602185e-13 -1.7442606162407957e-42 1.0
  outer loop
    vertex 901.9632321844708 1571.953918319706 12.478612153437474
    vertex 907.5920293665964 1571.9539183197112 12.478612153435613
    vertex 901.5490186220976 1572.271755564902 12.478612153437611
  endloop
endfacet
facet normal 3.307076834602185e-13 -1.7442606162407957e-42 1.0
  outer loop
    vertex 901.5490186220976 1572.271755564902 12.478612153437611
    vertex 907.5920293665964 1571.9539183197112 12.478612153435613
    vertex 908.0062429289694 1572.2717555649072 12.478612153435476
  endloop
endfacet
facet normal 3.307076834602185e-13 -1.7442606162407957e-42 1.0
  outer loop
    vertex 901.5490186220976 1572.271755564902 12.478612153437611
    vertex 908.0062429289694 1572.2717555649072 12.478612153435476
    vertex 901.0666567123028 1572.471556409911 12.47861215343777
  endloop
endfacet
facet normal 3.307076834602185e-13 -1.7442606162407957e-42 1.0
  outer loop
    vertex 901.0666567123028 1572.471556409911 12.47861215343777
    vertex 908.0062429289694 1572.2717555649072 12.478612153435476
    vertex 908.4886048387646 1572.4715564099163 12.478612153435316
  endloop
endfacet
facet normal 3.307076834602185e-13 -1.7442606162407957e-42 1.0
  outer loop
    vertex 901.0666567123028 1572.471556409911 12.47861215343777
    vertex 908.4886048387646 1572.4715564099163 12.478612153435316
    vertex 900.5490186220977 1572.5397047573329 12.478612153437942
  endloop
endfacet
facet normal 3.307076834602185e-13 -1.7442606162407957e-42 1.0
  outer loop
    vertex 900.5490186220977 1572.5397047573329 12.478612153437942
    vertex 908.4886048387646 1572.4715564099163 12.478612153435316
    vertex 909.0062429289696 1572.539704757338 12.478612153435146
  endloop
endfacet
facet normal 3.307076834602185e-13 -1.7442606162407957e-42 1.0
  outer loop
    vertex 912.4703445441073 1568.539704757338 12.478612153434
    vertex 900.5490186220977 1568.5397047573329 12.478612153437942
    vertex 911.8346700537159 1567.7112776325919 12.47861215343421
  endloop
endfacet
facet normal 3.307076834602185e-13 -1.7442606162407957e-42 1.0
  outer loop
    vertex 900.5490186220977 1568.5397047573329 12.478612153437942
    vertex 912.4703445441073 1568.539704757338 12.478612153434
    vertex 909.0062429289696 1568.539704757338 12.478612153435146
  endloop
endfacet
facet normal 3.307076834602185e-13 -1.7442606162407957e-42 1.0
  outer loop
    vertex 909.0062429289696 1568.539704757338 12.478612153435146
    vertex 912.4703445441073 1568.539704757338 12.478612153434
    vertex 909.5238810191747 1568.60785310476 12.478612153434973
  endloop
endfacet
facet normal 3.307076834602185e-13 -1.7442606162407957e-42 1.0
  outer loop
    vertex 909.5238810191747 1568.60785310476 12.478612153434973
    vertex 912.4703445441073 1568.539704757338 12.478612153434
    vertex 912.8699462341258 1569.504428576928 12.478612153433867
  endloop
endfacet
facet normal 3.307076834602185e-13 -1.7442606162407957e-42 1.0
  outer loop
    vertex 909.5238810191747 1568.60785310476 12.478612153434973
    vertex 912.8699462341258 1569.504428576928 12.478612153433867
    vertex 910.0062429289695 1568.8076539497692 12.478612153434815
  endloop
endfacet
facet normal 3.307076834602185e-13 -1.7442606162407957e-42 1.0
  outer loop
    vertex 910.0062429289695 1568.8076539497692 12.478612153434815
    vertex 912.8699462341258 1569.504428576928 12.478612153433867
    vertex 910.4204564913427 1569.125491194965 12.478612153434677
  endloop
endfacet
facet normal 3.307076834602185e-13 -1.7442606162407957e-42 1.0
  outer loop
    vertex 910.4204564913427 1569.125491194965 12.478612153434677
    vertex 912.8699462341258 1569.504428576928 12.478612153433867
    vertex 910.7382937365386 1569.539704757338 12.478612153434572
  endloop
endfacet
facet normal 3.307076834602185e-13 -1.7442606162407957e-42 1.0
  outer loop
    vertex 910.7382937365386 1569.539704757338 12.478612153434572
    vertex 912.8699462341258 1569.504428576928 12.478612153433867
    vertex 913.0062429289696 1570.539704757338 12.478612153433822
  endloop
endfacet
facet normal 3.307076834602185e-13 -1.7442606162407957e-42 1.0
  outer loop
    vertex 910.7382937365386 1569.539704757338 12.478612153434572
    vertex 913.0062429289696 1570.539704757338 12.478612153433822
    vertex 910.9380945815477 1570.022066667133 12.478612153434506
  endloop
endfacet
facet normal 3.307076834602185e-13 -1.7442606162407957e-42 1.0
  outer loop
    vertex 910.9380945815477 1570.022066667133 12.478612153434506
    vertex 913.0062429289696 1570.539704757338 12.478612153433822
    vertex 911.0062429289696 1570.539704757338 12.478612153434483
  endloop
endfacet
facet normal 3.307076834602185e-13 -1.7442606162407957e-42 1.0
  outer loop
    vertex 911.0062429289696 1570.539704757338 12.478612153434483
    vertex 913.0062429289696 1570.539704757338 12.478612153433822
    vertex 912.8699462341258 1571.5749809377483 12.478612153433867
  endloop
endfacet
facet normal 3.307076834602185e-13 -1.7442606162407957e-42 1.0
  outer loop
    vertex 911.0062429289696 1570.539704757338 12.478612153434483
    vertex 912.8699462341258 1571.5749809377483 12.478612153433867
    vertex 910.9380945815477 1571.0573428475432 12.478612153434506
  endloop
endfacet
facet normal 3.307076834602185e-13 -1.7442606162407957e-42 1.0
  outer loop
    vertex 910.9380945815477 1571.0573428475432 12.478612153434506
    vertex 912.8699462341258 1571.5749809377483 12.478612153433867
    vertex 910.7382937365386 1571.5397047573383 12.478612153434572
  endloop
endfacet
facet normal 3.307076834602185e-13 -1.7442606162407957e-42 1.0
  outer loop
    vertex 910.7382937365386 1571.5397047573383 12.478612153434572
    vertex 912.8699462341258 1571.5749809377483 12.478612153433867
    vertex 910.4204564913427 1571.9539183197112 12.478612153434677
  endloop
endfacet
facet normal 3.307076834602185e-13 -1.7442606162407957e-42 1.0
  outer loop
    vertex 910.4204564913427 1571.9539183197112 12.478612153434677
    vertex 912.8699462341258 1571.5749809377483 12.478612153433867
    vertex 912.4703445441073 1572.539704757338 12.478612153434
  endloop
endfacet
facet normal 3.307076834602185e-13 -1.7442606162407957e-42 1.0
  outer loop
    vertex 910.4204564913427 1571.9539183197112 12.478612153434677
    vertex 912.4703445441073 1572.539704757338 12.478612153434
    vertex 910.0062429289695 1572.2717555649072 12.478612153434815
  endloop
endfacet
facet normal 3.307076834602185e-13 -1.7442606162407957e-42 1.0
  outer loop
    vertex 910.0062429289695 1572.2717555649072 12.478612153434815
    vertex 912.4703445441073 1572.539704757338 12.478612153434
    vertex 909.5238810191747 1572.4715564099163 12.478612153434973
  endloop
endfacet
facet normal 3.307076834602185e-13 -1.7442606162407957e-42 1.0
  outer loop
    vertex 909.5238810191747 1572.4715564099163 12.478612153434973
    vertex 912.4703445441073 1572.539704757338 12.478612153434
    vertex 909.0062429289696 1572.539704757338 12.478612153435146
  endloop
endfacet
facet normal 3.307076834602185e-13 -1.7442606162407957e-42 1.0
  outer loop
    vertex 909.0062429289696 1572.539704757338 12.478612153435146
    vertex 912.4703445441073 1572.539704757338 12.478612153434
    vertex 911.8346700537159 1573.3681318820843 12.47861215343421
  endloop
endfacet
facet normal 3.307076834602185e-13 -1.7442606162407957e-42 1.0
  outer loop
    vertex 909.0062429289696 1572.539704757338 12.478612153435146
    vertex 911.8346700537159 1573.3681318820843 12.47861215343421
    vertex 897.7205914973515 1573.368131882079 12.478612153438878
  endloop
endfacet
facet normal 3.307076834602185e-13 -1.7442606162407957e-42 1.0
  outer loop
    vertex 897.7205914973515 1573.368131882079 12.478612153438878
    vertex 911.8346700537159 1573.3681318820843 12.47861215343421
    vertex 898.5490186220976 1574.0038063724705 12.478612153438604
  endloop
endfacet
facet normal 3.307076834602185e-13 -1.7442606162407957e-42 1.0
  outer loop
    vertex 898.5490186220976 1574.0038063724705 12.478612153438604
    vertex 911.8346700537159 1573.3681318820843 12.47861215343421
    vertex 911.0062429289695 1574.0038063724758 12.478612153434483
  endloop
endfacet
facet normal 3.307076834602185e-13 -1.7442606162407957e-42 1.0
  outer loop
    vertex 898.5490186220976 1574.0038063724705 12.478612153438604
    vertex 911.0062429289695 1574.0038063724758 12.478612153434483
    vertex 899.5137424416876 1574.4034080624892 12.478612153438284
  endloop
endfacet
facet normal 3.307076834602185e-13 -1.7442606162407957e-42 1.0
  outer loop
    vertex 899.5137424416876 1574.4034080624892 12.478612153438284
    vertex 911.0062429289695 1574.0038063724758 12.478612153434483
    vertex 910.0415191093796 1574.4034080624945 12.478612153434803
  endloop
endfacet
facet normal 3.307076834602185e-13 -1.7442606162407957e-42 1.0
  outer loop
    vertex 899.5137424416876 1574.4034080624892 12.478612153438284
    vertex 910.0415191093796 1574.4034080624945 12.478612153434803
    vertex 900.5490186220977 1574.5397047573329 12.478612153437942
  endloop
endfacet
facet normal 3.307076834602185e-13 -1.7442606162407957e-42 1.0
  outer loop
    vertex 900.5490186220977 1574.5397047573329 12.478612153437942
    vertex 910.0415191093796 1574.4034080624945 12.478612153434803
    vertex 909.0062429289696 1574.539704757338 12.478612153435146
  endloop
endfacet
facet normal 3.307076834602185e-13 -1.7442606162407957e-42 1.0
  outer loop
    vertex 909.0062429289696 1566.539704757338 12.478612153435146
    vertex 899.5137424416876 1566.6760014521765 12.478612153438284
    vertex 900.5490186220977 1566.5397047573329 12.478612153437942
  endloop
endfacet
facet normal 3.307076834602185e-13 -1.7442606162407957e-42 1.0
  outer loop
    vertex 899.5137424416876 1566.6760014521765 12.478612153438284
    vertex 909.0062429289696 1566.539704757338 12.478612153435146
    vertex 910.0415191093796 1566.6760014521817 12.478612153434803
  endloop
endfacet
facet normal 3.307076834602185e-13 -1.7442606162407957e-42 1.0
  outer loop
    vertex 899.5137424416876 1566.6760014521765 12.478612153438284
    vertex 910.0415191093796 1566.6760014521817 12.478612153434803
    vertex 898.5490186220976 1567.0756031421952 12.478612153438604
  endloop
endfacet
facet normal 3.307076834602185e-13 -1.7442606162407957e-42 1.0
  outer loop
    vertex 898.5490186220976 1567.0756031421952 12.478612153438604
    vertex 910.0415191093796 1566.6760014521817 12.478612153434803
    vertex 911.0062429289695 1567.0756031422004 12.478612153434483
  endloop
endfacet
facet normal 3.307076834602185e-13 -1.7442606162407957e-42 1.0
  outer loop
    vertex 898.5490186220976 1567.0756031421952 12.478612153438604
    vertex 911.0062429289695 1567.0756031422004 12.478612153434483
    vertex 897.7205914973515 1567.7112776325866 12.478612153438878
  endloop
endfacet
facet normal 3.307076834602185e-13 -1.7442606162407957e-42 1.0
  outer loop
    vertex 897.7205914973515 1567.7112776325866 12.478612153438878
    vertex 911.0062429289695 1567.0756031422004 12.478612153434483
    vertex 911.8346700537159 1567.7112776325919 12.47861215343421
  endloop
endfacet
facet normal 3.307076834602185e-13 -1.7442606162407957e-42 1.0
  outer loop
    vertex 897.7205914973515 1567.7112776325866 12.478612153438878
    vertex 911.8346700537159 1567.7112776325919 12.47861215343421
    vertex 897.0849170069599 1568.5397047573329 12.478612153439087
  endloop
endfacet
facet normal 3.307076834602185e-13 -1.7442606162407957e-42 1.0
  outer loop
    vertex 897.0849170069599 1568.5397047573329 12.478612153439087
    vertex 911.8346700537159 1567.7112776325919 12.47861215343421
    vertex 900.5490186220977 1568.5397047573329 12.478612153437942
  endloop
endfacet
facet normal 3.307076834602185e-13 -1.7442606162407957e-42 1.0
  outer loop
    vertex 897.0849170069599 1568.5397047573329 12.478612153439087
    vertex 900.5490186220977 1568.5397047573329 12.478612153437942
    vertex 900.0313805318926 1568.6078531047547 12.478612153438112
  endloop
endfacet
facet normal 3.307076834602185e-13 -1.7442606162407957e-42 1.0
  outer loop
    vertex 897.0849170069599 1568.5397047573329 12.478612153439087
    vertex 900.0313805318926 1568.6078531047547 12.478612153438112
    vertex 896.6853153169413 1569.5044285769227 12.478612153439219
  endloop
endfacet
facet normal 3.307076834602185e-13 -1.7442606162407957e-42 1.0
  outer loop
    vertex 896.6853153169413 1569.5044285769227 12.478612153439219
    vertex 900.0313805318926 1568.6078531047547 12.478612153438112
    vertex 899.5490186220975 1568.807653949764 12.478612153438272
  endloop
endfacet
facet normal 3.307076834602185e-13 -1.7442606162407957e-42 1.0
  outer loop
    vertex 896.6853153169413 1569.5044285769227 12.478612153439219
    vertex 899.5490186220975 1568.807653949764 12.478612153438272
    vertex 899.1348050597245 1569.1254911949597 12.47861215343841
  endloop
endfacet
facet normal 3.307076834602185e-13 -1.7442606162407957e-42 1.0
  outer loop
    vertex 896.6853153169413 1569.5044285769227 12.478612153439219
    vertex 899.1348050597245 1569.1254911949597 12.47861215343841
    vertex 898.8169678145288 1569.5397047573326 12.478612153438515
  endloop
endfacet
facet normal 3.307076834602185e-13 -1.7442606162407957e-42 1.0
  outer loop
    vertex 896.6853153169413 1569.5044285769227 12.478612153439219
    vertex 898.8169678145288 1569.5397047573326 12.478612153438515
    vertex 896.5490186220977 1570.5397047573329 12.478612153439265
  endloop
endfacet
facet normal 3.307076834602185e-13 -1.7442606162407957e-42 1.0
  outer loop
    vertex 896.5490186220977 1570.5397047573329 12.478612153439265
    vertex 898.8169678145288 1569.5397047573326 12.478612153438515
    vertex 898.6171669695194 1570.0220666671278 12.478612153438581
  endloop
endfacet
facet normal 3.307076834602185e-13 -1.7442606162407957e-42 1.0
  outer loop
    vertex 896.5490186220977 1570.5397047573329 12.478612153439265
    vertex 898.6171669695194 1570.0220666671278 12.478612153438581
    vertex 898.5490186220976 1570.5397047573329 12.478612153438604
  endloop
endfacet
facet normal 3.307076834602185e-13 -1.7442606162407957e-42 1.0
  outer loop
    vertex 896.5490186220977 1570.5397047573329 12.478612153439265
    vertex 898.5490186220976 1570.5397047573329 12.478612153438604
    vertex 898.6171669695194 1571.057342847538 12.478612153438581
  endloop
endfacet
facet normal 3.307076834602185e-13 -1.7442606162407957e-42 1.0
  outer loop
    vertex 896.5490186220977 1570.5397047573329 12.478612153439265
    vertex 898.6171669695194 1571.057342847538 12.478612153438581
    vertex 896.6853153169413 1571.574980937743 12.478612153439219
  endloop
endfacet
facet normal 3.307076834602185e-13 -1.7442606162407957e-42 1.0
  outer loop
    vertex 896.6853153169413 1571.574980937743 12.478612153439219
    vertex 898.6171669695194 1571.057342847538 12.478612153438581
    vertex 898.8169678145288 1571.5397047573329 12.478612153438515
  endloop
endfacet
facet normal 3.307076834602185e-13 -1.7442606162407957e-42 1.0
  outer loop
    vertex 896.6853153169413 1571.574980937743 12.478612153439219
    vertex 898.8169678145288 1571.5397047573329 12.478612153438515
    vertex 899.1348050597245 1571.953918319706 12.47861215343841
  endloop
endfacet
facet normal 3.307076834602185e-13 -1.7442606162407957e-42 1.0
  outer loop
    vertex 896.6853153169413 1571.574980937743 12.478612153439219
    vertex 899.1348050597245 1571.953918319706 12.47861215343841
    vertex 897.0849170069599 1572.5397047573329 12.478612153439087
  endloop
endfacet
facet normal 3.307076834602185e-13 -1.7442606162407957e-42 1.0
  outer loop
    vertex 897.0849170069599 1572.5397047573329 12.478612153439087
    vertex 899.1348050597245 1571.953918319706 12.47861215343841
    vertex 899.5490186220975 1572.271755564902 12.478612153438272
  endloop
endfacet
facet normal 3.307076834602185e-13 -1.7442606162407957e-42 1.0
  outer loop
    vertex 897.0849170069599 1572.5397047573329 12.478612153439087
    vertex 899.5490186220975 1572.271755564902 12.478612153438272
    vertex 900.0313805318926 1572.471556409911 12.478612153438112
  endloop
endfacet
facet normal 3.307076834602185e-13 -1.7442606162407957e-42 1.0
  outer loop
    vertex 897.0849170069599 1572.5397047573329 12.478612153439087
    vertex 900.0313805318926 1572.471556409911 12.478612153438112
    vertex 900.5490186220977 1572.5397047573329 12.478612153437942
  endloop
endfacet
facet normal 3.307076834602185e-13 -1.7442606162407957e-42 1.0
  outer loop
    vertex 897.0849170069599 1572.5397047573329 12.478612153439087
    vertex 900.5490186220977 1572.5397047573329 12.478612153437942
    vertex 897.7205914973515 1573.368131882079 12.478612153438878
  endloop
endfacet
facet normal 3.307076834602185e-13 -1.7442606162407957e-42 1.0
  outer loop
    vertex 897.7205914973515 1573.368131882079 12.478612153438878
    vertex 900.5490186220977 1572.5397047573329 12.478612153437942
    vertex 909.0062429289696 1572.539704757338 12.478612153435146
  endloop
endfacet
facet normal -3.307076834602185e-13 1.7442606162407957e-42 -1.0
  outer loop
    vertex 897.0849170069592 1568.5397047573329 10.478612153439
    vertex 900.0313805318918 1568.6078531047547 10.478612153438027
    vertex 900.5490186220969 1568.5397047573329 10.478612153437856
  endloop
endfacet
facet normal -3.307076834602185e-13 1.7442606162407957e-42 -1.0
  outer loop
    vertex 900.0313805318918 1568.6078531047547 10.478612153438027
    vertex 897.0849170069592 1568.5397047573329 10.478612153439
    vertex 896.6853153169408 1569.5044285769227 10.478612153439133
  endloop
endfacet
facet normal -3.307076834602185e-13 1.7442606162407957e-42 -1.0
  outer loop
    vertex 900.0313805318918 1568.6078531047547 10.478612153438027
    vertex 896.6853153169408 1569.5044285769227 10.478612153439133
    vertex 899.549018622097 1568.807653949764 10.478612153438185
  endloop
endfacet
facet normal -3.307076834602185e-13 1.7442606162407957e-42 -1.0
  outer loop
    vertex 899.549018622097 1568.807653949764 10.478612153438185
    vertex 896.6853153169408 1569.5044285769227 10.478612153439133
    vertex 899.1348050597238 1569.1254911949597 10.478612153438323
  endloop
endfacet
facet normal -3.307076834602185e-13 1.7442606162407957e-42 -1.0
  outer loop
    vertex 899.1348050597238 1569.1254911949597 10.478612153438323
    vertex 896.6853153169408 1569.5044285769227 10.478612153439133
    vertex 898.816967814528 1569.5397047573326 10.478612153438428
  endloop
endfacet
facet normal -3.307076834602185e-13 1.7442606162407957e-42 -1.0
  outer loop
    vertex 898.816967814528 1569.5397047573326 10.478612153438428
    vertex 896.6853153169408 1569.5044285769227 10.478612153439133
    vertex 896.5490186220969 1570.5397047573329 10.478612153439178
  endloop
endfacet
facet normal -3.307076834602185e-13 1.7442606162407957e-42 -1.0
  outer loop
    vertex 898.816967814528 1569.5397047573326 10.478612153438428
    vertex 896.5490186220969 1570.5397047573329 10.478612153439178
    vertex 898.6171669695187 1570.0220666671278 10.478612153438494
  endloop
endfacet
facet normal -3.307076834602185e-13 1.7442606162407957e-42 -1.0
  outer loop
    vertex 898.6171669695187 1570.0220666671278 10.478612153438494
    vertex 896.5490186220969 1570.5397047573329 10.478612153439178
    vertex 898.5490186220969 1570.5397047573329 10.478612153438517
  endloop
endfacet
facet normal -3.307076834602185e-13 1.7442606162407957e-42 -1.0
  outer loop
    vertex 898.5490186220969 1570.5397047573329 10.478612153438517
    vertex 896.5490186220969 1570.5397047573329 10.478612153439178
    vertex 896.6853153169408 1571.574980937743 10.478612153439133
  endloop
endfacet
facet normal -3.307076834602185e-13 1.7442606162407957e-42 -1.0
  outer loop
    vertex 898.5490186220969 1570.5397047573329 10.478612153438517
    vertex 896.6853153169408 1571.574980937743 10.478612153439133
    vertex 898.6171669695187 1571.057342847538 10.478612153438494
  endloop
endfacet
facet normal -3.307076834602185e-13 1.7442606162407957e-42 -1.0
  outer loop
    vertex 898.6171669695187 1571.057342847538 10.478612153438494
    vertex 896.6853153169408 1571.574980937743 10.478612153439133
    vertex 898.816967814528 1571.5397047573329 10.478612153438428
  endloop
endfacet
facet normal -3.307076834602185e-13 1.7442606162407957e-42 -1.0
  outer loop
    vertex 898.816967814528 1571.5397047573329 10.478612153438428
    vertex 896.6853153169408 1571.574980937743 10.478612153439133
    vertex 899.1348050597238 1571.953918319706 10.478612153438323
  endloop
endfacet
facet normal -3.307076834602185e-13 1.7442606162407957e-42 -1.0
  outer loop
    vertex 899.1348050597238 1571.953918319706 10.478612153438323
    vertex 896.6853153169408 1571.574980937743 10.478612153439133
    vertex 897.0849170069592 1572.5397047573329 10.478612153439
  endloop
endfacet
facet normal -3.307076834602185e-13 1.7442606162407957e-42 -1.0
  outer loop
    vertex 899.1348050597238 1571.953918319706 10.478612153438323
    vertex 897.0849170069592 1572.5397047573329 10.478612153439
    vertex 899.549018622097 1572.271755564902 10.478612153438185
  endloop
endfacet
facet normal -3.307076834602185e-13 1.7442606162407957e-42 -1.0
  outer loop
    vertex 899.549018622097 1572.271755564902 10.478612153438185
    vertex 897.0849170069592 1572.5397047573329 10.478612153439
    vertex 900.0313805318918 1572.471556409911 10.478612153438027
  endloop
endfacet
facet normal -3.307076834602185e-13 1.7442606162407957e-42 -1.0
  outer loop
    vertex 900.0313805318918 1572.471556409911 10.478612153438027
    vertex 897.0849170069592 1572.5397047573329 10.478612153439
    vertex 900.5490186220969 1572.5397047573329 10.478612153437856
  endloop
endfacet
facet normal -3.307076834602185e-13 1.7442606162407957e-42 -1.0
  outer loop
    vertex 900.5490186220969 1572.5397047573329 10.478612153437856
    vertex 897.0849170069592 1572.5397047573329 10.478612153439
    vertex 897.7205914973507 1573.368131882079 10.47861215343879
  endloop
endfacet
facet normal -3.307076834602185e-13 1.7442606162407957e-42 -1.0
  outer loop
    vertex 900.5490186220969 1572.5397047573329 10.478612153437856
    vertex 897.7205914973507 1573.368131882079 10.47861215343879
    vertex 909.0062429289688 1572.539704757338 10.478612153435058
  endloop
endfacet
facet normal -3.307076834602185e-13 1.7442606162407957e-42 -1.0
  outer loop
    vertex 909.0062429289688 1572.539704757338 10.478612153435058
    vertex 897.7205914973507 1573.368131882079 10.47861215343879
    vertex 912.4703445441066 1572.539704757338 10.478612153433913
  endloop
endfacet
facet normal -3.307076834602185e-13 1.7442606162407957e-42 -1.0
  outer loop
    vertex 912.4703445441066 1572.539704757338 10.478612153433913
    vertex 897.7205914973507 1573.368131882079 10.47861215343879
    vertex 911.8346700537151 1573.3681318820843 10.478612153434124
  endloop
endfacet
facet normal -3.307076834602185e-13 1.7442606162407957e-42 -1.0
  outer loop
    vertex 911.8346700537151 1573.3681318820843 10.478612153434124
    vertex 897.7205914973507 1573.368131882079 10.47861215343879
    vertex 898.549018622097 1574.0038063724705 10.478612153438517
  endloop
endfacet
facet normal -3.307076834602185e-13 1.7442606162407957e-42 -1.0
  outer loop
    vertex 911.8346700537151 1573.3681318820843 10.478612153434124
    vertex 898.549018622097 1574.0038063724705 10.478612153438517
    vertex 911.0062429289687 1574.0038063724758 10.478612153434398
  endloop
endfacet
facet normal -3.307076834602185e-13 1.7442606162407957e-42 -1.0
  outer loop
    vertex 911.0062429289687 1574.0038063724758 10.478612153434398
    vertex 898.549018622097 1574.0038063724705 10.478612153438517
    vertex 899.5137424416869 1574.4034080624892 10.478612153438197
  endloop
endfacet
facet normal -3.307076834602185e-13 1.7442606162407957e-42 -1.0
  outer loop
    vertex 911.0062429289687 1574.0038063724758 10.478612153434398
    vertex 899.5137424416869 1574.4034080624892 10.478612153438197
    vertex 910.041519109379 1574.4034080624945 10.478612153434716
  endloop
endfacet
facet normal -3.307076834602185e-13 1.7442606162407957e-42 -1.0
  outer loop
    vertex 910.041519109379 1574.4034080624945 10.478612153434716
    vertex 899.5137424416869 1574.4034080624892 10.478612153438197
    vertex 900.5490186220969 1574.5397047573329 10.478612153437856
  endloop
endfacet
facet normal -3.307076834602185e-13 1.7442606162407957e-42 -1.0
  outer loop
    vertex 910.041519109379 1574.4034080624945 10.478612153434716
    vertex 900.5490186220969 1574.5397047573329 10.478612153437856
    vertex 909.0062429289688 1574.539704757338 10.478612153435058
  endloop
endfacet
facet normal -3.307076834602185e-13 1.7442606162407957e-42 -1.0
  outer loop
    vertex 899.513742441687 1566.6760014521765 10.478612153438197
    vertex 909.0062429289688 1566.539704757338 10.478612153435058
    vertex 900.5490186220969 1566.5397047573329 10.478612153437856
  endloop
endfacet
facet normal -3.307076834602185e-13 1.7442606162407957e-42 -1.0
  outer loop
    vertex 909.0062429289688 1566.539704757338 10.478612153435058
    vertex 899.513742441687 1566.6760014521765 10.478612153438197
    vertex 910.041519109379 1566.6760014521817 10.478612153434716
  endloop
endfacet
facet normal -3.307076834602185e-13 1.7442606162407957e-42 -1.0
  outer loop
    vertex 910.041519109379 1566.6760014521817 10.478612153434716
    vertex 899.513742441687 1566.6760014521765 10.478612153438197
    vertex 898.549018622097 1567.0756031421952 10.478612153438517
  endloop
endfacet
facet normal -3.307076834602185e-13 1.7442606162407957e-42 -1.0
  outer loop
    vertex 910.041519109379 1566.6760014521817 10.478612153434716
    vertex 898.549018622097 1567.0756031421952 10.478612153438517
    vertex 911.0062429289687 1567.0756031422004 10.478612153434398
  endloop
endfacet
facet normal -3.307076834602185e-13 1.7442606162407957e-42 -1.0
  outer loop
    vertex 911.0062429289687 1567.0756031422004 10.478612153434398
    vertex 898.549018622097 1567.0756031421952 10.478612153438517
    vertex 897.7205914973507 1567.7112776325866 10.47861215343879
  endloop
endfacet
facet normal -3.307076834602185e-13 1.7442606162407957e-42 -1.0
  outer loop
    vertex 911.0062429289687 1567.0756031422004 10.478612153434398
    vertex 897.7205914973507 1567.7112776325866 10.47861215343879
    vertex 911.8346700537151 1567.7112776325919 10.478612153434124
  endloop
endfacet
facet normal -3.307076834602185e-13 1.7442606162407957e-42 -1.0
  outer loop
    vertex 911.8346700537151 1567.7112776325919 10.478612153434124
    vertex 897.7205914973507 1567.7112776325866 10.47861215343879
    vertex 897.0849170069592 1568.5397047573329 10.478612153439
  endloop
endfacet
facet normal -3.307076834602185e-13 1.7442606162407957e-42 -1.0
  outer loop
    vertex 911.8346700537151 1567.7112776325919 10.478612153434124
    vertex 897.0849170069592 1568.5397047573329 10.478612153439
    vertex 900.5490186220969 1568.5397047573329 10.478612153437856
  endloop
endfacet
facet normal -3.307076834602185e-13 1.7442606162407957e-42 -1.0
  outer loop
    vertex 911.8346700537151 1567.7112776325919 10.478612153434124
    vertex 900.5490186220969 1568.5397047573329 10.478612153437856
    vertex 912.4703445441066 1568.539704757338 10.478612153433913
  endloop
endfacet
facet normal -3.307076834602185e-13 1.7442606162407957e-42 -1.0
  outer loop
    vertex 912.4703445441066 1568.539704757338 10.478612153433913
    vertex 900.5490186220969 1568.5397047573329 10.478612153437856
    vertex 909.0062429289688 1568.539704757338 10.478612153435058
  endloop
endfacet
facet normal -3.307076834602185e-13 1.7442606162407957e-42 -1.0
  outer loop
    vertex 912.4703445441066 1568.539704757338 10.478612153433913
    vertex 909.0062429289688 1568.539704757338 10.478612153435058
    vertex 909.5238810191739 1568.60785310476 10.478612153434888
  endloop
endfacet
facet normal -3.307076834602185e-13 1.7442606162407957e-42 -1.0
  outer loop
    vertex 912.4703445441066 1568.539704757338 10.478612153433913
    vertex 909.5238810191739 1568.60785310476 10.478612153434888
    vertex 912.8699462341252 1569.504428576928 10.478612153433781
  endloop
endfacet
facet normal -3.307076834602185e-13 1.7442606162407957e-42 -1.0
  outer loop
    vertex 912.8699462341252 1569.504428576928 10.478612153433781
    vertex 909.5238810191739 1568.60785310476 10.478612153434888
    vertex 910.006242928969 1568.8076539497692 10.478612153434728
  endloop
endfacet
facet normal -3.307076834602185e-13 1.7442606162407957e-42 -1.0
  outer loop
    vertex 912.8699462341252 1569.504428576928 10.478612153433781
    vertex 910.006242928969 1568.8076539497692 10.478612153434728
    vertex 910.4204564913421 1569.125491194965 10.47861215343459
  endloop
endfacet
facet normal -3.307076834602185e-13 1.7442606162407957e-42 -1.0
  outer loop
    vertex 912.8699462341252 1569.504428576928 10.478612153433781
    vertex 910.4204564913421 1569.125491194965 10.47861215343459
    vertex 910.7382937365378 1569.539704757338 10.478612153434486
  endloop
endfacet
facet normal -3.307076834602185e-13 1.7442606162407957e-42 -1.0
  outer loop
    vertex 912.8699462341252 1569.504428576928 10.478612153433781
    vertex 910.7382937365378 1569.539704757338 10.478612153434486
    vertex 913.0062429289688 1570.539704757338 10.478612153433735
  endloop
endfacet
facet normal -3.307076834602185e-13 1.7442606162407957e-42 -1.0
  outer loop
    vertex 913.0062429289688 1570.539704757338 10.478612153433735
    vertex 910.7382937365378 1569.539704757338 10.478612153434486
    vertex 910.9380945815471 1570.022066667133 10.478612153434419
  endloop
endfacet
facet normal -3.307076834602185e-13 1.7442606162407957e-42 -1.0
  outer loop
    vertex 913.0062429289688 1570.539704757338 10.478612153433735
    vertex 910.9380945815471 1570.022066667133 10.478612153434419
    vertex 911.006242928969 1570.539704757338 10.478612153434398
  endloop
endfacet
facet normal -3.307076834602185e-13 1.7442606162407957e-42 -1.0
  outer loop
    vertex 913.0062429289688 1570.539704757338 10.478612153433735
    vertex 911.006242928969 1570.539704757338 10.478612153434398
    vertex 910.9380945815471 1571.0573428475432 10.478612153434419
  endloop
endfacet
facet normal -3.307076834602185e-13 1.7442606162407957e-42 -1.0
  outer loop
    vertex 913.0062429289688 1570.539704757338 10.478612153433735
    vertex 910.9380945815471 1571.0573428475432 10.478612153434419
    vertex 912.8699462341252 1571.5749809377483 10.478612153433781
  endloop
endfacet
facet normal -3.307076834602185e-13 1.7442606162407957e-42 -1.0
  outer loop
    vertex 912.8699462341252 1571.5749809377483 10.478612153433781
    vertex 910.9380945815471 1571.0573428475432 10.478612153434419
    vertex 910.7382937365378 1571.5397047573383 10.478612153434486
  endloop
endfacet
facet normal -3.307076834602185e-13 1.7442606162407957e-42 -1.0
  outer loop
    vertex 912.8699462341252 1571.5749809377483 10.478612153433781
    vertex 910.7382937365378 1571.5397047573383 10.478612153434486
    vertex 910.4204564913421 1571.9539183197112 10.47861215343459
  endloop
endfacet
facet normal -3.307076834602185e-13 1.7442606162407957e-42 -1.0
  outer loop
    vertex 912.8699462341252 1571.5749809377483 10.478612153433781
    vertex 910.4204564913421 1571.9539183197112 10.47861215343459
    vertex 912.4703445441066 1572.539704757338 10.478612153433913
  endloop
endfacet
facet normal -3.307076834602185e-13 1.7442606162407957e-42 -1.0
  outer loop
    vertex 912.4703445441066 1572.539704757338 10.478612153433913
    vertex 910.4204564913421 1571.9539183197112 10.47861215343459
    vertex 910.006242928969 1572.2717555649072 10.478612153434728
  endloop
endfacet
facet normal -3.307076834602185e-13 1.7442606162407957e-42 -1.0
  outer loop
    vertex 912.4703445441066 1572.539704757338 10.478612153433913
    vertex 910.006242928969 1572.2717555649072 10.478612153434728
    vertex 909.5238810191739 1572.4715564099163 10.478612153434888
  endloop
endfacet
facet normal -3.307076834602185e-13 1.7442606162407957e-42 -1.0
  outer loop
    vertex 912.4703445441066 1572.539704757338 10.478612153433913
    vertex 909.5238810191739 1572.4715564099163 10.478612153434888
    vertex 909.0062429289688 1572.539704757338 10.478612153435058
  endloop
endfacet
facet normal -3.307076834602185e-13 1.7442606162407957e-42 -1.0
  outer loop
    vertex 901.066656712302 1568.6078531047547 10.478612153437684
    vertex 909.0062429289688 1568.539704757338 10.478612153435058
    vertex 900.5490186220969 1568.5397047573329 10.478612153437856
  endloop
endfacet
facet normal -3.307076834602185e-13 1.7442606162407957e-42 -1.0
  outer loop
    vertex 909.0062429289688 1568.539704757338 10.478612153435058
    vertex 901.066656712302 1568.6078531047547 10.478612153437684
    vertex 908.4886048387638 1568.60785310476 10.47861215343523
  endloop
endfacet
facet normal -3.307076834602185e-13 1.7442606162407957e-42 -1.0
  outer loop
    vertex 908.4886048387638 1568.60785310476 10.47861215343523
    vertex 901.066656712302 1568.6078531047547 10.478612153437684
    vertex 901.549018622097 1568.807653949764 10.478612153437524
  endloop
endfacet
facet normal -3.307076834602185e-13 1.7442606162407957e-42 -1.0
  outer loop
    vertex 908.4886048387638 1568.60785310476 10.47861215343523
    vertex 901.549018622097 1568.807653949764 10.478612153437524
    vertex 908.0062429289687 1568.8076539497692 10.478612153435389
  endloop
endfacet
facet normal -3.307076834602185e-13 1.7442606162407957e-42 -1.0
  outer loop
    vertex 908.0062429289687 1568.8076539497692 10.478612153435389
    vertex 901.549018622097 1568.807653949764 10.478612153437524
    vertex 901.9632321844701 1569.1254911949597 10.478612153437387
  endloop
endfacet
facet normal -3.307076834602185e-13 1.7442606162407957e-42 -1.0
  outer loop
    vertex 908.0062429289687 1568.8076539497692 10.478612153435389
    vertex 901.9632321844701 1569.1254911949597 10.478612153437387
    vertex 907.5920293665957 1569.125491194965 10.478612153435526
  endloop
endfacet
facet normal -3.307076834602185e-13 1.7442606162407957e-42 -1.0
  outer loop
    vertex 907.5920293665957 1569.125491194965 10.478612153435526
    vertex 901.9632321844701 1569.1254911949597 10.478612153437387
    vertex 902.2810694296659 1569.5397047573329 10.478612153437282
  endloop
endfacet
facet normal -3.307076834602185e-13 1.7442606162407957e-42 -1.0
  outer loop
    vertex 907.5920293665957 1569.125491194965 10.478612153435526
    vertex 902.2810694296659 1569.5397047573329 10.478612153437282
    vertex 907.2741921213999 1569.5397047573379 10.47861215343563
  endloop
endfacet
facet normal -3.307076834602185e-13 1.7442606162407957e-42 -1.0
  outer loop
    vertex 907.2741921213999 1569.5397047573379 10.47861215343563
    vertex 902.2810694296659 1569.5397047573329 10.478612153437282
    vertex 902.4808702746752 1570.0220666671278 10.478612153437217
  endloop
endfacet
facet normal -3.307076834602185e-13 1.7442606162407957e-42 -1.0
  outer loop
    vertex 907.2741921213999 1569.5397047573379 10.47861215343563
    vertex 902.4808702746752 1570.0220666671278 10.478612153437217
    vertex 907.0743912763907 1570.022066667133 10.478612153435696
  endloop
endfacet
facet normal -3.307076834602185e-13 1.7442606162407957e-42 -1.0
  outer loop
    vertex 907.0743912763907 1570.022066667133 10.478612153435696
    vertex 902.4808702746752 1570.0220666671278 10.478612153437217
    vertex 902.549018622097 1570.5397047573329 10.478612153437194
  endloop
endfacet
facet normal -3.307076834602185e-13 1.7442606162407957e-42 -1.0
  outer loop
    vertex 907.0743912763907 1570.022066667133 10.478612153435696
    vertex 902.549018622097 1570.5397047573329 10.478612153437194
    vertex 907.0062429289688 1570.539704757338 10.47861215343572
  endloop
endfacet
facet normal -3.307076834602185e-13 1.7442606162407957e-42 -1.0
  outer loop
    vertex 907.0062429289688 1570.539704757338 10.47861215343572
    vertex 902.549018622097 1570.5397047573329 10.478612153437194
    vertex 902.4808702746752 1571.057342847538 10.478612153437217
  endloop
endfacet
facet normal -3.307076834602185e-13 1.7442606162407957e-42 -1.0
  outer loop
    vertex 907.0062429289688 1570.539704757338 10.47861215343572
    vertex 902.4808702746752 1571.057342847538 10.478612153437217
    vertex 907.0743912763907 1571.0573428475432 10.478612153435696
  endloop
endfacet
facet normal -3.307076834602185e-13 1.7442606162407957e-42 -1.0
  outer loop
    vertex 907.0743912763907 1571.0573428475432 10.478612153435696
    vertex 902.4808702746752 1571.057342847538 10.478612153437217
    vertex 902.2810694296659 1571.539704757333 10.478612153437282
  endloop
endfacet
facet normal -3.307076834602185e-13 1.7442606162407957e-42 -1.0
  outer loop
    vertex 907.0743912763907 1571.0573428475432 10.478612153435696
    vertex 902.2810694296659 1571.539704757333 10.478612153437282
    vertex 907.2741921213999 1571.539704757338 10.47861215343563
  endloop
endfacet
facet normal -3.307076834602185e-13 1.7442606162407957e-42 -1.0
  outer loop
    vertex 907.2741921213999 1571.539704757338 10.47861215343563
    vertex 902.2810694296659 1571.539704757333 10.478612153437282
    vertex 901.9632321844701 1571.953918319706 10.478612153437387
  endloop
endfacet
facet normal -3.307076834602185e-13 1.7442606162407957e-42 -1.0
  outer loop
    vertex 907.2741921213999 1571.539704757338 10.47861215343563
    vertex 901.9632321844701 1571.953918319706 10.478612153437387
    vertex 907.5920293665957 1571.9539183197112 10.478612153435526
  endloop
endfacet
facet normal -3.307076834602185e-13 1.7442606162407957e-42 -1.0
  outer loop
    vertex 907.5920293665957 1571.9539183197112 10.478612153435526
    vertex 901.9632321844701 1571.953918319706 10.478612153437387
    vertex 901.549018622097 1572.271755564902 10.478612153437524
  endloop
endfacet
facet normal -3.307076834602185e-13 1.7442606162407957e-42 -1.0
  outer loop
    vertex 907.5920293665957 1571.9539183197112 10.478612153435526
    vertex 901.549018622097 1572.271755564902 10.478612153437524
    vertex 908.0062429289687 1572.2717555649072 10.478612153435389
  endloop
endfacet
facet normal -3.307076834602185e-13 1.7442606162407957e-42 -1.0
  outer loop
    vertex 908.0062429289687 1572.2717555649072 10.478612153435389
    vertex 901.549018622097 1572.271755564902 10.478612153437524
    vertex 901.066656712302 1572.471556409911 10.478612153437684
  endloop
endfacet
facet normal -3.307076834602185e-13 1.7442606162407957e-42 -1.0
  outer loop
    vertex 908.0062429289687 1572.2717555649072 10.478612153435389
    vertex 901.066656712302 1572.471556409911 10.478612153437684
    vertex 908.4886048387638 1572.4715564099163 10.47861215343523
  endloop
endfacet
facet normal -3.307076834602185e-13 1.7442606162407957e-42 -1.0
  outer loop
    vertex 908.4886048387638 1572.4715564099163 10.47861215343523
    vertex 901.066656712302 1572.471556409911 10.478612153437684
    vertex 900.5490186220969 1572.5397047573329 10.478612153437856
  endloop
endfacet
facet normal -3.307076834602185e-13 1.7442606162407957e-42 -1.0
  outer loop
    vertex 908.4886048387638 1572.4715564099163 10.47861215343523
    vertex 900.5490186220969 1572.5397047573329 10.478612153437856
    vertex 909.0062429289688 1572.539704757338 10.478612153435058
  endloop
endfacet
facet normal 0.25881904510252585 -0.9659258262890671 -8.559344684124214e-14
  outer loop
    vertex 910.0415191093796 1566.6760014521817 12.478612153434803
    vertex 911.0062429289687 1567.0756031422004 10.478612153434398
    vertex 911.0062429289695 1567.0756031422004 12.478612153434483
  endloop
endfacet
facet normal 0.5000000000000266 -0.8660254037844233 -1.6535384173011806e-13
  outer loop
    vertex 911.0062429289687 1567.0756031422004 10.478612153434398
    vertex 910.0415191093796 1566.6760014521817 12.478612153434803
    vertex 910.041519109379 1566.6760014521817 10.478612153434716
  endloop
endfacet
facet normal 0.13052619221998704 -0.991444861373819 -4.316601465995511e-14
  outer loop
    vertex 909.0062429289696 1566.539704757338 12.478612153435146
    vertex 910.041519109379 1566.6760014521817 10.478612153434716
    vertex 910.0415191093796 1566.6760014521817 12.478612153434803
  endloop
endfacet
facet normal 0.25881904510252585 -0.9659258262890671 -8.559344684124214e-14
  outer loop
    vertex 910.041519109379 1566.6760014521817 10.478612153434716
    vertex 909.0062429289696 1566.539704757338 12.478612153435146
    vertex 909.0062429289688 1566.539704757338 10.478612153435058
  endloop
endfacet
facet normal -0.25881904510252585 0.9659258262890671 8.559344684124214e-14
  outer loop
    vertex 899.5137424416869 1574.4034080624892 10.478612153438197
    vertex 900.5490186220977 1574.5397047573329 12.478612153437942
    vertex 900.5490186220969 1574.5397047573329 10.478612153437856
  endloop
endfacet
facet normal -0.13052619221998704 0.991444861373819 4.316601465995511e-14
  outer loop
    vertex 900.5490186220977 1574.5397047573329 12.478612153437942
    vertex 899.5137424416869 1574.4034080624892 10.478612153438197
    vertex 899.5137424416876 1574.4034080624892 12.478612153438284
  endloop
endfacet
facet normal 0.13052619221998704 0.991444861373819 -4.316601465995511e-14
  outer loop
    vertex 909.0062429289688 1574.539704757338 10.478612153435058
    vertex 910.0415191093796 1574.4034080624945 12.478612153434803
    vertex 910.041519109379 1574.4034080624945 10.478612153434716
  endloop
endfacet
facet normal 0.25881904510252585 0.9659258262890671 -8.559344684124214e-14
  outer loop
    vertex 910.0415191093796 1574.4034080624945 12.478612153434803
    vertex 909.0062429289688 1574.539704757338 10.478612153435058
    vertex 909.0062429289696 1574.539704757338 12.478612153435146
  endloop
endfacet
facet normal 0.25881904510252585 0.9659258262890671 -8.559344684124214e-14
  outer loop
    vertex 910.041519109379 1574.4034080624945 10.478612153434716
    vertex 911.0062429289695 1574.0038063724758 12.478612153434483
    vertex 911.0062429289687 1574.0038063724758 10.478612153434398
  endloop
endfacet
facet normal 0.5000000000000266 0.8660254037844233 -1.6535384173011806e-13
  outer loop
    vertex 911.0062429289695 1574.0038063724758 12.478612153434483
    vertex 910.041519109379 1574.4034080624945 10.478612153434716
    vertex 910.0415191093796 1574.4034080624945 12.478612153434803
  endloop
endfacet
facet normal 0.7071067811865215 0.7071067811865736 -2.3384564556520617e-13
  outer loop
    vertex 911.8346700537159 1573.3681318820843 12.47861215343421
    vertex 912.4703445441066 1572.539704757338 10.478612153433913
    vertex 911.8346700537151 1573.3681318820843 10.478612153434124
  endloop
endfacet
facet normal 0.8660254037844289 0.500000000000017 -2.864012551032488e-13
  outer loop
    vertex 912.4703445441066 1572.539704757338 10.478612153433913
    vertex 911.8346700537159 1573.3681318820843 12.47861215343421
    vertex 912.4703445441073 1572.539704757338 12.478612153434
  endloop
endfacet
facet normal 0.5000000000000266 0.8660254037844233 -1.6535384173011806e-13
  outer loop
    vertex 911.0062429289687 1574.0038063724758 10.478612153434398
    vertex 911.8346700537159 1573.3681318820843 12.47861215343421
    vertex 911.8346700537151 1573.3681318820843 10.478612153434124
  endloop
endfacet
facet normal 0.7071067811865215 0.7071067811865736 -2.3384564556520617e-13
  outer loop
    vertex 911.8346700537159 1573.3681318820843 12.47861215343421
    vertex 911.0062429289687 1574.0038063724758 10.478612153434398
    vertex 911.0062429289695 1574.0038063724758 12.478612153434483
  endloop
endfacet
facet normal 0.9659258262890719 0.25881904510250764 -3.1943909240645637e-13
  outer loop
    vertex 912.8699462341258 1571.5749809377483 12.478612153433867
    vertex 913.0062429289688 1570.539704757338 10.478612153433735
    vertex 912.8699462341252 1571.5749809377483 10.478612153433781
  endloop
endfacet
facet normal 1.0 0.0 -3.307076834602185e-13
  outer loop
    vertex 913.0062429289688 1570.539704757338 10.478612153433735
    vertex 912.8699462341258 1571.5749809377483 12.478612153433867
    vertex 913.0062429289696 1570.539704757338 12.478612153433822
  endloop
endfacet
facet normal -6.188623597645568e-13 1.0 2.0466253737846093e-25
  outer loop
    vertex 900.5490186220969 1574.5397047573329 10.478612153437856
    vertex 909.0062429289696 1574.539704757338 12.478612153435146
    vertex 909.0062429289688 1574.539704757338 10.478612153435058
  endloop
endfacet
facet normal -6.188623597645568e-13 1.0 2.0466253737846093e-25
  outer loop
    vertex 909.0062429289696 1574.539704757338 12.478612153435146
    vertex 900.5490186220969 1574.5397047573329 10.478612153437856
    vertex 900.5490186220977 1574.5397047573329 12.478612153437942
  endloop
endfacet
facet normal 1.0 0.0 -3.307076834602185e-13
  outer loop
    vertex 913.0062429289696 1570.539704757338 12.478612153433822
    vertex 912.8699462341252 1569.504428576928 10.478612153433781
    vertex 913.0062429289688 1570.539704757338 10.478612153433735
  endloop
endfacet
facet normal 0.9659258262890633 -0.25881904510253956 -3.1943909240645354e-13
  outer loop
    vertex 912.8699462341252 1569.504428576928 10.478612153433781
    vertex 913.0062429289696 1570.539704757338 12.478612153433822
    vertex 912.8699462341258 1569.504428576928 12.478612153433867
  endloop
endfacet
facet normal 0.8660254037844289 0.500000000000017 -2.864012551032488e-13
  outer loop
    vertex 912.4703445441073 1572.539704757338 12.478612153434
    vertex 912.8699462341252 1571.5749809377483 10.478612153433781
    vertex 912.4703445441066 1572.539704757338 10.478612153433913
  endloop
endfacet
facet normal 0.9659258262890719 0.25881904510250764 -3.1943909240645637e-13
  outer loop
    vertex 912.8699462341252 1571.5749809377483 10.478612153433781
    vertex 912.4703445441073 1572.539704757338 12.478612153434
    vertex 912.8699462341258 1571.5749809377483 12.478612153433867
  endloop
endfacet
facet normal 0.5000000000000266 -0.8660254037844233 -1.6535384173011806e-13
  outer loop
    vertex 911.0062429289695 1567.0756031422004 12.478612153434483
    vertex 911.8346700537151 1567.7112776325919 10.478612153434124
    vertex 911.8346700537159 1567.7112776325919 12.47861215343421
  endloop
endfacet
facet normal 0.7071067811865587 -0.7071067811865364 -2.3384564556521844e-13
  outer loop
    vertex 911.8346700537151 1567.7112776325919 10.478612153434124
    vertex 911.0062429289695 1567.0756031422004 12.478612153434483
    vertex 911.0062429289687 1567.0756031422004 10.478612153434398
  endloop
endfacet
facet normal 0.8660254037844387 -0.5 -2.8640125510325205e-13
  outer loop
    vertex 912.4703445441073 1568.539704757338 12.478612153434
    vertex 911.8346700537151 1567.7112776325919 10.478612153434124
    vertex 912.4703445441066 1568.539704757338 10.478612153433913
  endloop
endfacet
facet normal 0.7071067811865587 -0.7071067811865364 -2.3384564556521844e-13
  outer loop
    vertex 911.8346700537151 1567.7112776325919 10.478612153434124
    vertex 912.4703445441073 1568.539704757338 12.478612153434
    vertex 911.8346700537159 1567.7112776325919 12.47861215343421
  endloop
endfacet
facet normal 0.9659258262890633 -0.25881904510253956 -3.1943909240645354e-13
  outer loop
    vertex 912.8699462341258 1569.504428576928 12.478612153433867
    vertex 912.4703445441066 1568.539704757338 10.478612153433913
    vertex 912.8699462341252 1569.504428576928 10.478612153433781
  endloop
endfacet
facet normal 0.8660254037844387 -0.5 -2.8640125510325205e-13
  outer loop
    vertex 912.4703445441066 1568.539704757338 10.478612153433913
    vertex 912.8699462341258 1569.504428576928 12.478612153433867
    vertex 912.4703445441073 1568.539704757338 12.478612153434
  endloop
endfacet
facet normal -0.5000000000000026 0.8660254037844373 1.6535384173011009e-13
  outer loop
    vertex 901.549018622097 1568.807653949764 10.478612153437524
    vertex 901.9632321844708 1569.1254911949597 12.478612153437474
    vertex 901.9632321844701 1569.1254911949597 10.478612153437387
  endloop
endfacet
facet normal -0.7071067811865819 0.7071067811865132 2.338456455652261e-13
  outer loop
    vertex 901.9632321844708 1569.1254911949597 12.478612153437474
    vertex 901.549018622097 1568.807653949764 10.478612153437524
    vertex 901.5490186220976 1568.807653949764 12.478612153437611
  endloop
endfacet
facet normal 0.5000000000000026 0.8660254037844373 -1.6535384173011009e-13
  outer loop
    vertex 899.549018622097 1568.807653949764 10.478612153438185
    vertex 900.0313805318926 1568.6078531047547 12.478612153438112
    vertex 900.0313805318918 1568.6078531047547 10.478612153438027
  endloop
endfacet
facet normal 0.2588190451025151 0.9659258262890699 -8.559344684123857e-14
  outer loop
    vertex 900.0313805318926 1568.6078531047547 12.478612153438112
    vertex 899.549018622097 1568.807653949764 10.478612153438185
    vertex 899.5490186220975 1568.807653949764 12.478612153438272
  endloop
endfacet
facet normal 0.2588190451025151 -0.9659258262890699 -8.559344684123857e-14
  outer loop
    vertex 900.0313805318926 1572.471556409911 12.478612153438112
    vertex 900.5490186220969 1572.5397047573329 10.478612153437856
    vertex 900.5490186220977 1572.5397047573329 12.478612153437942
  endloop
endfacet
facet normal -5.76838240729048e-55 -1.0 -1.744254124045585e-42
  outer loop
    vertex 900.5490186220969 1572.5397047573329 10.478612153437856
    vertex 900.0313805318926 1572.471556409911 12.478612153438112
    vertex 900.0313805318918 1572.471556409911 10.478612153438027
  endloop
endfacet
facet normal -0.7071067811865587 0.7071067811865364 2.3384564556521844e-13
  outer loop
    vertex 897.7205914973507 1573.368131882079 10.47861215343879
    vertex 898.5490186220976 1574.0038063724705 12.478612153438604
    vertex 898.549018622097 1574.0038063724705 10.478612153438517
  endloop
endfacet
facet normal -0.5000000000000266 0.8660254037844233 1.6535384173011806e-13
  outer loop
    vertex 898.5490186220976 1574.0038063724705 12.478612153438604
    vertex 897.7205914973507 1573.368131882079 10.47861215343879
    vertex 897.7205914973515 1573.368131882079 12.478612153438878
  endloop
endfacet
facet normal -1.0 0.0 3.307076834602185e-13
  outer loop
    vertex 902.5490186220977 1570.5397047573329 12.47861215343728
    vertex 902.4808702746752 1571.057342847538 10.478612153437217
    vertex 902.549018622097 1570.5397047573329 10.478612153437194
  endloop
endfacet
facet normal -0.9659258262890777 -0.25881904510248605 3.194390924064583e-13
  outer loop
    vertex 902.4808702746752 1571.057342847538 10.478612153437217
    vertex 902.5490186220977 1570.5397047573329 12.47861215343728
    vertex 902.4808702746759 1571.057342847538 12.478612153437304
  endloop
endfacet
facet normal 0.5000000000000026 -0.8660254037844373 -1.6535384173011009e-13
  outer loop
    vertex 899.5490186220975 1572.271755564902 12.478612153438272
    vertex 900.0313805318918 1572.471556409911 10.478612153438027
    vertex 900.0313805318926 1572.471556409911 12.478612153438112
  endloop
endfacet
facet normal 0.2588190451025151 -0.9659258262890699 -8.559344684123857e-14
  outer loop
    vertex 900.0313805318918 1572.471556409911 10.478612153438027
    vertex 899.5490186220975 1572.271755564902 12.478612153438272
    vertex 899.549018622097 1572.271755564902 10.478612153438185
  endloop
endfacet
facet normal 0.7071067811865819 -0.7071067811865132 -2.338456455652261e-13
  outer loop
    vertex 899.1348050597245 1571.953918319706 12.47861215343841
    vertex 899.549018622097 1572.271755564902 10.478612153438185
    vertex 899.5490186220975 1572.271755564902 12.478612153438272
  endloop
endfacet
facet normal 0.5000000000000026 -0.8660254037844373 -1.6535384173011009e-13
  outer loop
    vertex 899.549018622097 1572.271755564902 10.478612153438185
    vertex 899.1348050597245 1571.953918319706 12.47861215343841
    vertex 899.1348050597238 1571.953918319706 10.478612153438323
  endloop
endfacet
facet normal 0.2588190451025151 0.9659258262890699 -8.559344684123857e-14
  outer loop
    vertex 900.0313805318918 1568.6078531047547 10.478612153438027
    vertex 900.5490186220977 1568.5397047573329 12.478612153437942
    vertex 900.5490186220969 1568.5397047573329 10.478612153437856
  endloop
endfacet
facet normal 5.76838240729048e-55 1.0 1.744254124045585e-42
  outer loop
    vertex 900.5490186220977 1568.5397047573329 12.478612153437942
    vertex 900.0313805318918 1568.6078531047547 10.478612153438027
    vertex 900.0313805318926 1568.6078531047547 12.478612153438112
  endloop
endfacet
facet normal -0.8660254037844387 0.5 2.8640125510325205e-13
  outer loop
    vertex 897.0849170069599 1572.5397047573329 12.478612153439087
    vertex 897.7205914973507 1573.368131882079 10.47861215343879
    vertex 897.0849170069592 1572.5397047573329 10.478612153439
  endloop
endfacet
facet normal -0.7071067811865587 0.7071067811865364 2.3384564556521844e-13
  outer loop
    vertex 897.7205914973507 1573.368131882079 10.47861215343879
    vertex 897.0849170069599 1572.5397047573329 12.478612153439087
    vertex 897.7205914973515 1573.368131882079 12.478612153438878
  endloop
endfacet
facet normal -0.25881904510252324 -0.9659258262890676 8.559344684124127e-14
  outer loop
    vertex 899.5137424416876 1566.6760014521765 12.478612153438284
    vertex 900.5490186220969 1566.5397047573329 10.478612153437856
    vertex 900.5490186220977 1566.5397047573329 12.478612153437942
  endloop
endfacet
facet normal -0.13052619221998985 -0.9914448613738186 4.3166014659956034e-14
  outer loop
    vertex 900.5490186220969 1566.5397047573329 10.478612153437856
    vertex 899.5137424416876 1566.6760014521765 12.478612153438284
    vertex 899.513742441687 1566.6760014521765 10.478612153438197
  endloop
endfacet
facet normal -0.5000000000000231 -0.8660254037844254 1.653538417301169e-13
  outer loop
    vertex 898.5490186220976 1567.0756031421952 12.478612153438604
    vertex 899.513742441687 1566.6760014521765 10.478612153438197
    vertex 899.5137424416876 1566.6760014521765 12.478612153438284
  endloop
endfacet
facet normal -0.25881904510252324 -0.9659258262890676 8.559344684124127e-14
  outer loop
    vertex 899.513742441687 1566.6760014521765 10.478612153438197
    vertex 898.5490186220976 1567.0756031421952 12.478612153438604
    vertex 898.549018622097 1567.0756031421952 10.478612153438517
  endloop
endfacet
facet normal 6.188623597645568e-13 -1.0 -2.0466253737846093e-25
  outer loop
    vertex 900.5490186220977 1566.5397047573329 12.478612153437942
    vertex 909.0062429289688 1566.539704757338 10.478612153435058
    vertex 909.0062429289696 1566.539704757338 12.478612153435146
  endloop
endfacet
facet normal 6.188623597645568e-13 -1.0 -2.0466253737846093e-25
  outer loop
    vertex 909.0062429289688 1566.539704757338 10.478612153435058
    vertex 900.5490186220977 1566.5397047573329 12.478612153437942
    vertex 900.5490186220969 1566.5397047573329 10.478612153437856
  endloop
endfacet
facet normal -0.8660254037844289 -0.500000000000017 2.864012551032488e-13
  outer loop
    vertex 897.0849170069599 1568.5397047573329 12.478612153439087
    vertex 896.6853153169408 1569.5044285769227 10.478612153439133
    vertex 897.0849170069592 1568.5397047573329 10.478612153439
  endloop
endfacet
facet normal -0.9659258262890719 -0.25881904510250764 3.1943909240645637e-13
  outer loop
    vertex 896.6853153169408 1569.5044285769227 10.478612153439133
    vertex 897.0849170069599 1568.5397047573329 12.478612153439087
    vertex 896.6853153169413 1569.5044285769227 12.478612153439219
  endloop
endfacet
facet normal -0.9659258262890719 -0.25881904510250764 3.1943909240645637e-13
  outer loop
    vertex 896.6853153169413 1569.5044285769227 12.478612153439219
    vertex 896.5490186220969 1570.5397047573329 10.478612153439178
    vertex 896.6853153169408 1569.5044285769227 10.478612153439133
  endloop
endfacet
facet normal -1.0 0.0 3.307076834602185e-13
  outer loop
    vertex 896.5490186220969 1570.5397047573329 10.478612153439178
    vertex 896.6853153169413 1569.5044285769227 12.478612153439219
    vertex 896.5490186220977 1570.5397047573329 12.478612153439265
  endloop
endfacet
facet normal -0.7071067811865215 -0.7071067811865736 2.3384564556520617e-13
  outer loop
    vertex 897.7205914973515 1567.7112776325866 12.478612153438878
    vertex 897.0849170069592 1568.5397047573329 10.478612153439
    vertex 897.7205914973507 1567.7112776325866 10.47861215343879
  endloop
endfacet
facet normal -0.8660254037844289 -0.500000000000017 2.864012551032488e-13
  outer loop
    vertex 897.0849170069592 1568.5397047573329 10.478612153439
    vertex 897.7205914973515 1567.7112776325866 12.478612153438878
    vertex 897.0849170069599 1568.5397047573329 12.478612153439087
  endloop
endfacet
facet normal -1.0 0.0 3.307076834602185e-13
  outer loop
    vertex 896.5490186220977 1570.5397047573329 12.478612153439265
    vertex 896.6853153169408 1571.574980937743 10.478612153439133
    vertex 896.5490186220969 1570.5397047573329 10.478612153439178
  endloop
endfacet
facet normal -0.9659258262890633 0.25881904510253956 3.1943909240645354e-13
  outer loop
    vertex 896.6853153169408 1571.574980937743 10.478612153439133
    vertex 896.5490186220977 1570.5397047573329 12.478612153439265
    vertex 896.6853153169413 1571.574980937743 12.478612153439219
  endloop
endfacet
facet normal -0.9659258262890633 0.25881904510253956 3.1943909240645354e-13
  outer loop
    vertex 896.6853153169413 1571.574980937743 12.478612153439219
    vertex 897.0849170069592 1572.5397047573329 10.478612153439
    vertex 896.6853153169408 1571.574980937743 10.478612153439133
  endloop
endfacet
facet normal -0.8660254037844387 0.5 2.8640125510325205e-13
  outer loop
    vertex 897.0849170069592 1572.5397047573329 10.478612153439
    vertex 896.6853153169413 1571.574980937743 12.478612153439219
    vertex 897.0849170069599 1572.5397047573329 12.478612153439087
  endloop
endfacet
facet normal 5.76838240729048e-55 1.0 1.744254124045585e-42
  outer loop
    vertex 900.5490186220969 1568.5397047573329 10.478612153437856
    vertex 901.0666567123028 1568.6078531047547 12.47861215343777
    vertex 901.066656712302 1568.6078531047547 10.478612153437684
  endloop
endfacet
facet normal -0.2588190451025151 0.9659258262890699 8.559344684123857e-14
  outer loop
    vertex 901.0666567123028 1568.6078531047547 12.47861215343777
    vertex 900.5490186220969 1568.5397047573329 10.478612153437856
    vertex 900.5490186220977 1568.5397047573329 12.478612153437942
  endloop
endfacet
facet normal -0.8660254037844649 0.4999999999999544 2.8640125510326074e-13
  outer loop
    vertex 902.2810694296667 1569.5397047573329 12.47861215343737
    vertex 902.4808702746752 1570.0220666671278 10.478612153437217
    vertex 902.2810694296659 1569.5397047573329 10.478612153437282
  endloop
endfacet
facet normal -0.9659258262890604 0.2588190451025499 3.194390924064526e-13
  outer loop
    vertex 902.4808702746752 1570.0220666671278 10.478612153437217
    vertex 902.2810694296667 1569.5397047573329 12.47861215343737
    vertex 902.4808702746759 1570.0220666671278 12.478612153437304
  endloop
endfacet
facet normal -0.9659258262890604 0.2588190451025499 3.194390924064526e-13
  outer loop
    vertex 902.4808702746759 1570.0220666671278 12.478612153437304
    vertex 902.549018622097 1570.5397047573329 10.478612153437194
    vertex 902.4808702746752 1570.0220666671278 10.478612153437217
  endloop
endfacet
facet normal -1.0 0.0 3.307076834602185e-13
  outer loop
    vertex 902.549018622097 1570.5397047573329 10.478612153437194
    vertex 902.4808702746759 1570.0220666671278 12.478612153437304
    vertex 902.5490186220977 1570.5397047573329 12.47861215343728
  endloop
endfacet
facet normal -0.7071067811865819 0.7071067811865132 2.338456455652261e-13
  outer loop
    vertex 901.9632321844708 1569.1254911949597 12.478612153437474
    vertex 902.2810694296659 1569.5397047573329 10.478612153437282
    vertex 901.9632321844701 1569.1254911949597 10.478612153437387
  endloop
endfacet
facet normal -0.8660254037844649 0.4999999999999544 2.8640125510326074e-13
  outer loop
    vertex 902.2810694296659 1569.5397047573329 10.478612153437282
    vertex 901.9632321844708 1569.1254911949597 12.478612153437474
    vertex 902.2810694296667 1569.5397047573329 12.47861215343737
  endloop
endfacet
facet normal -0.2588190451025151 0.9659258262890699 8.559344684123857e-14
  outer loop
    vertex 901.066656712302 1568.6078531047547 10.478612153437684
    vertex 901.5490186220976 1568.807653949764 12.478612153437611
    vertex 901.549018622097 1568.807653949764 10.478612153437524
  endloop
endfacet
facet normal -0.5000000000000026 0.8660254037844373 1.6535384173011009e-13
  outer loop
    vertex 901.5490186220976 1568.807653949764 12.478612153437611
    vertex 901.066656712302 1568.6078531047547 10.478612153437684
    vertex 901.0666567123028 1568.6078531047547 12.47861215343777
  endloop
endfacet
facet normal -0.9659258262890777 -0.25881904510248605 3.194390924064583e-13
  outer loop
    vertex 902.4808702746759 1571.057342847538 12.478612153437304
    vertex 902.2810694296659 1571.539704757333 10.478612153437282
    vertex 902.4808702746752 1571.057342847538 10.478612153437217
  endloop
endfacet
facet normal -0.8660254037844455 -0.49999999999998823 2.864012551032543e-13
  outer loop
    vertex 902.2810694296659 1571.539704757333 10.478612153437282
    vertex 902.4808702746759 1571.057342847538 12.478612153437304
    vertex 902.2810694296667 1571.539704757333 12.47861215343737
  endloop
endfacet
facet normal -0.5000000000000026 -0.8660254037844373 1.6535384173011009e-13
  outer loop
    vertex 901.5490186220976 1572.271755564902 12.478612153437611
    vertex 901.9632321844701 1571.953918319706 10.478612153437387
    vertex 901.9632321844708 1571.953918319706 12.478612153437474
  endloop
endfacet
facet normal -0.7071067811865076 -0.7071067811865875 2.338456455652016e-13
  outer loop
    vertex 901.9632321844701 1571.953918319706 10.478612153437387
    vertex 901.5490186220976 1572.271755564902 12.478612153437611
    vertex 901.549018622097 1572.271755564902 10.478612153437524
  endloop
endfacet
facet normal -0.2588190451025151 -0.9659258262890699 8.559344684123857e-14
  outer loop
    vertex 901.0666567123028 1572.471556409911 12.47861215343777
    vertex 901.549018622097 1572.271755564902 10.478612153437524
    vertex 901.5490186220976 1572.271755564902 12.478612153437611
  endloop
endfacet
facet normal -0.5000000000000026 -0.8660254037844373 1.6535384173011009e-13
  outer loop
    vertex 901.549018622097 1572.271755564902 10.478612153437524
    vertex 901.0666567123028 1572.471556409911 12.47861215343777
    vertex 901.066656712302 1572.471556409911 10.478612153437684
  endloop
endfacet
facet normal -0.5000000000000266 0.8660254037844233 1.6535384173011806e-13
  outer loop
    vertex 898.549018622097 1574.0038063724705 10.478612153438517
    vertex 899.5137424416876 1574.4034080624892 12.478612153438284
    vertex 899.5137424416869 1574.4034080624892 10.478612153438197
  endloop
endfacet
facet normal -0.25881904510252585 0.9659258262890671 8.559344684124214e-14
  outer loop
    vertex 899.5137424416876 1574.4034080624892 12.478612153438284
    vertex 898.549018622097 1574.0038063724705 10.478612153438517
    vertex 898.5490186220976 1574.0038063724705 12.478612153438604
  endloop
endfacet
facet normal -0.7071067811865215 -0.7071067811865736 2.3384564556520617e-13
  outer loop
    vertex 897.7205914973515 1567.7112776325866 12.478612153438878
    vertex 898.549018622097 1567.0756031421952 10.478612153438517
    vertex 898.5490186220976 1567.0756031421952 12.478612153438604
  endloop
endfacet
facet normal -0.5000000000000231 -0.8660254037844254 1.653538417301169e-13
  outer loop
    vertex 898.549018622097 1567.0756031421952 10.478612153438517
    vertex 897.7205914973515 1567.7112776325866 12.478612153438878
    vertex 897.7205914973507 1567.7112776325866 10.47861215343879
  endloop
endfacet
facet normal -5.76838240729048e-55 -1.0 -1.744254124045585e-42
  outer loop
    vertex 900.5490186220977 1572.5397047573329 12.478612153437942
    vertex 901.066656712302 1572.471556409911 10.478612153437684
    vertex 901.0666567123028 1572.471556409911 12.47861215343777
  endloop
endfacet
facet normal -0.2588190451025151 -0.9659258262890699 8.559344684123857e-14
  outer loop
    vertex 901.066656712302 1572.471556409911 10.478612153437684
    vertex 900.5490186220977 1572.5397047573329 12.478612153437942
    vertex 900.5490186220969 1572.5397047573329 10.478612153437856
  endloop
endfacet
facet normal -0.8660254037844455 -0.49999999999998823 2.864012551032543e-13
  outer loop
    vertex 902.2810694296667 1571.539704757333 12.47861215343737
    vertex 901.9632321844701 1571.953918319706 10.478612153437387
    vertex 902.2810694296659 1571.539704757333 10.478612153437282
  endloop
endfacet
facet normal -0.7071067811865076 -0.7071067811865875 2.338456455652016e-13
  outer loop
    vertex 901.9632321844701 1571.953918319706 10.478612153437387
    vertex 902.2810694296667 1571.539704757333 12.47861215343737
    vertex 901.9632321844708 1571.953918319706 12.478612153437474
  endloop
endfacet
facet normal 0.2588190451025151 -0.9659258262890699 -8.559344684123857e-14
  outer loop
    vertex 908.4886048387646 1572.4715564099163 12.478612153435316
    vertex 909.0062429289688 1572.539704757338 10.478612153435058
    vertex 909.0062429289696 1572.539704757338 12.478612153435146
  endloop
endfacet
facet normal -5.76838240729048e-55 -1.0 -1.744254124045585e-42
  outer loop
    vertex 909.0062429289688 1572.539704757338 10.478612153435058
    vertex 908.4886048387646 1572.4715564099163 12.478612153435316
    vertex 908.4886048387638 1572.4715564099163 10.47861215343523
  endloop
endfacet
facet normal -0.2588190451025151 0.9659258262890699 8.559344684123857e-14
  outer loop
    vertex 909.5238810191739 1568.60785310476 10.478612153434888
    vertex 910.0062429289695 1568.8076539497692 12.478612153434815
    vertex 910.006242928969 1568.8076539497692 10.478612153434728
  endloop
endfacet
facet normal -0.5000000000000026 0.8660254037844373 1.6535384173011009e-13
  outer loop
    vertex 910.0062429289695 1568.8076539497692 12.478612153434815
    vertex 909.5238810191739 1568.60785310476 10.478612153434888
    vertex 909.5238810191747 1568.60785310476 12.478612153434973
  endloop
endfacet
facet normal 0.9659258262890604 -0.2588190451025499 -3.194390924064526e-13
  outer loop
    vertex 898.6171669695194 1571.057342847538 12.478612153438581
    vertex 898.5490186220969 1570.5397047573329 10.478612153438517
    vertex 898.6171669695187 1571.057342847538 10.478612153438494
  endloop
endfacet
facet normal 1.0 0.0 -3.307076834602185e-13
  outer loop
    vertex 898.5490186220969 1570.5397047573329 10.478612153438517
    vertex 898.6171669695194 1571.057342847538 12.478612153438581
    vertex 898.5490186220976 1570.5397047573329 12.478612153438604
  endloop
endfacet
facet normal 0.7071067811865819 -0.7071067811865132 -2.338456455652261e-13
  outer loop
    vertex 907.5920293665964 1571.9539183197112 12.478612153435613
    vertex 907.2741921213999 1571.539704757338 10.47861215343563
    vertex 907.5920293665957 1571.9539183197112 10.478612153435526
  endloop
endfacet
facet normal 0.8660254037844649 -0.4999999999999544 -2.8640125510326074e-13
  outer loop
    vertex 907.2741921213999 1571.539704757338 10.47861215343563
    vertex 907.5920293665964 1571.9539183197112 12.478612153435613
    vertex 907.2741921214007 1571.539704757338 12.478612153435718
  endloop
endfacet
facet normal 0.7071067811865819 -0.7071067811865132 -2.338456455652261e-13
  outer loop
    vertex 899.1348050597245 1571.953918319706 12.47861215343841
    vertex 898.816967814528 1571.5397047573329 10.478612153438428
    vertex 899.1348050597238 1571.953918319706 10.478612153438323
  endloop
endfacet
facet normal 0.8660254037844649 -0.4999999999999544 -2.8640125510326074e-13
  outer loop
    vertex 898.816967814528 1571.5397047573329 10.478612153438428
    vertex 899.1348050597245 1571.953918319706 12.47861215343841
    vertex 898.8169678145288 1571.5397047573329 12.478612153438515
  endloop
endfacet
facet normal 0.8660254037844649 -0.4999999999999544 -2.8640125510326074e-13
  outer loop
    vertex 898.8169678145288 1571.5397047573329 12.478612153438515
    vertex 898.6171669695187 1571.057342847538 10.478612153438494
    vertex 898.816967814528 1571.5397047573329 10.478612153438428
  endloop
endfacet
facet normal 0.9659258262890604 -0.2588190451025499 -3.194390924064526e-13
  outer loop
    vertex 898.6171669695187 1571.057342847538 10.478612153438494
    vertex 898.8169678145288 1571.5397047573329 12.478612153438515
    vertex 898.6171669695194 1571.057342847538 12.478612153438581
  endloop
endfacet
facet normal 0.9659258262890777 0.25881904510248605 -3.194390924064583e-13
  outer loop
    vertex 898.6171669695194 1570.0220666671278 12.478612153438581
    vertex 898.816967814528 1569.5397047573326 10.478612153438428
    vertex 898.6171669695187 1570.0220666671278 10.478612153438494
  endloop
endfacet
facet normal 0.8660254037844455 0.49999999999998823 -2.864012551032543e-13
  outer loop
    vertex 898.816967814528 1569.5397047573326 10.478612153438428
    vertex 898.6171669695194 1570.0220666671278 12.478612153438581
    vertex 898.8169678145288 1569.5397047573326 12.478612153438515
  endloop
endfacet
facet normal 0.7071067811865076 0.7071067811865875 -2.338456455652016e-13
  outer loop
    vertex 899.1348050597238 1569.1254911949597 10.478612153438323
    vertex 899.5490186220975 1568.807653949764 12.478612153438272
    vertex 899.549018622097 1568.807653949764 10.478612153438185
  endloop
endfacet
facet normal 0.5000000000000026 0.8660254037844373 -1.6535384173011009e-13
  outer loop
    vertex 899.5490186220975 1568.807653949764 12.478612153438272
    vertex 899.1348050597238 1569.1254911949597 10.478612153438323
    vertex 899.1348050597245 1569.1254911949597 12.47861215343841
  endloop
endfacet
facet normal -0.9659258262890777 -0.25881904510248605 3.194390924064583e-13
  outer loop
    vertex 910.9380945815477 1571.0573428475432 12.478612153434506
    vertex 910.7382937365378 1571.5397047573383 10.478612153434486
    vertex 910.9380945815471 1571.0573428475432 10.478612153434419
  endloop
endfacet
facet normal -0.8660254037844455 -0.49999999999998823 2.864012551032543e-13
  outer loop
    vertex 910.7382937365378 1571.5397047573383 10.478612153434486
    vertex 910.9380945815477 1571.0573428475432 12.478612153434506
    vertex 910.7382937365386 1571.5397047573383 12.478612153434572
  endloop
endfacet
facet normal 0.9659258262890777 0.25881904510248605 -3.194390924064583e-13
  outer loop
    vertex 907.0743912763913 1570.022066667133 12.478612153435783
    vertex 907.2741921213999 1569.5397047573379 10.47861215343563
    vertex 907.0743912763907 1570.022066667133 10.478612153435696
  endloop
endfacet
facet normal 0.8660254037844455 0.49999999999998823 -2.864012551032543e-13
  outer loop
    vertex 907.2741921213999 1569.5397047573379 10.47861215343563
    vertex 907.0743912763913 1570.022066667133 12.478612153435783
    vertex 907.2741921214007 1569.5397047573379 12.478612153435718
  endloop
endfacet
facet normal 0.8660254037844455 0.49999999999998823 -2.864012551032543e-13
  outer loop
    vertex 907.2741921214007 1569.5397047573379 12.478612153435718
    vertex 907.5920293665957 1569.125491194965 10.478612153435526
    vertex 907.2741921213999 1569.5397047573379 10.47861215343563
  endloop
endfacet
facet normal 0.7071067811865076 0.7071067811865875 -2.338456455652016e-13
  outer loop
    vertex 907.5920293665957 1569.125491194965 10.478612153435526
    vertex 907.2741921214007 1569.5397047573379 12.478612153435718
    vertex 907.5920293665964 1569.125491194965 12.478612153435613
  endloop
endfacet
facet normal 0.5000000000000026 0.8660254037844373 -1.6535384173011009e-13
  outer loop
    vertex 908.0062429289687 1568.8076539497692 10.478612153435389
    vertex 908.4886048387646 1568.60785310476 12.478612153435316
    vertex 908.4886048387638 1568.60785310476 10.47861215343523
  endloop
endfacet
facet normal 0.2588190451025151 0.9659258262890699 -8.559344684123857e-14
  outer loop
    vertex 908.4886048387646 1568.60785310476 12.478612153435316
    vertex 908.0062429289687 1568.8076539497692 10.478612153435389
    vertex 908.0062429289694 1568.8076539497692 12.478612153435476
  endloop
endfacet
facet normal 1.0 0.0 -3.307076834602185e-13
  outer loop
    vertex 898.5490186220976 1570.5397047573329 12.478612153438604
    vertex 898.6171669695187 1570.0220666671278 10.478612153438494
    vertex 898.5490186220969 1570.5397047573329 10.478612153438517
  endloop
endfacet
facet normal 0.9659258262890777 0.25881904510248605 -3.194390924064583e-13
  outer loop
    vertex 898.6171669695187 1570.0220666671278 10.478612153438494
    vertex 898.5490186220976 1570.5397047573329 12.478612153438604
    vertex 898.6171669695194 1570.0220666671278 12.478612153438581
  endloop
endfacet
facet normal 0.2588190451025151 0.9659258262890699 -8.559344684123857e-14
  outer loop
    vertex 908.4886048387638 1568.60785310476 10.47861215343523
    vertex 909.0062429289696 1568.539704757338 12.478612153435146
    vertex 909.0062429289688 1568.539704757338 10.478612153435058
  endloop
endfacet
facet normal 5.76838240729048e-55 1.0 1.744254124045585e-42
  outer loop
    vertex 909.0062429289696 1568.539704757338 12.478612153435146
    vertex 908.4886048387638 1568.60785310476 10.47861215343523
    vertex 908.4886048387646 1568.60785310476 12.478612153435316
  endloop
endfacet
facet normal -0.7071067811865819 0.7071067811865132 2.338456455652261e-13
  outer loop
    vertex 910.4204564913427 1569.125491194965 12.478612153434677
    vertex 910.7382937365378 1569.539704757338 10.478612153434486
    vertex 910.4204564913421 1569.125491194965 10.47861215343459
  endloop
endfacet
facet normal -0.8660254037844649 0.4999999999999544 2.8640125510326074e-13
  outer loop
    vertex 910.7382937365378 1569.539704757338 10.478612153434486
    vertex 910.4204564913427 1569.125491194965 12.478612153434677
    vertex 910.7382937365386 1569.539704757338 12.478612153434572
  endloop
endfacet
facet normal -0.9659258262890604 0.2588190451025499 3.194390924064526e-13
  outer loop
    vertex 910.9380945815477 1570.022066667133 12.478612153434506
    vertex 911.006242928969 1570.539704757338 10.478612153434398
    vertex 910.9380945815471 1570.022066667133 10.478612153434419
  endloop
endfacet
facet normal -1.0 0.0 3.307076834602185e-13
  outer loop
    vertex 911.006242928969 1570.539704757338 10.478612153434398
    vertex 910.9380945815477 1570.022066667133 12.478612153434506
    vertex 911.0062429289696 1570.539704757338 12.478612153434483
  endloop
endfacet
facet normal -1.0 0.0 3.307076834602185e-13
  outer loop
    vertex 911.0062429289696 1570.539704757338 12.478612153434483
    vertex 910.9380945815471 1571.0573428475432 10.478612153434419
    vertex 911.006242928969 1570.539704757338 10.478612153434398
  endloop
endfacet
facet normal -0.9659258262890777 -0.25881904510248605 3.194390924064583e-13
  outer loop
    vertex 910.9380945815471 1571.0573428475432 10.478612153434419
    vertex 911.0062429289696 1570.539704757338 12.478612153434483
    vertex 910.9380945815477 1571.0573428475432 12.478612153434506
  endloop
endfacet
facet normal -0.5000000000000026 0.8660254037844373 1.6535384173011009e-13
  outer loop
    vertex 910.006242928969 1568.8076539497692 10.478612153434728
    vertex 910.4204564913427 1569.125491194965 12.478612153434677
    vertex 910.4204564913421 1569.125491194965 10.47861215343459
  endloop
endfacet
facet normal -0.7071067811865819 0.7071067811865132 2.338456455652261e-13
  outer loop
    vertex 910.4204564913427 1569.125491194965 12.478612153434677
    vertex 910.006242928969 1568.8076539497692 10.478612153434728
    vertex 910.0062429289695 1568.8076539497692 12.478612153434815
  endloop
endfacet
facet normal -0.8660254037844649 0.4999999999999544 2.8640125510326074e-13
  outer loop
    vertex 910.7382937365386 1569.539704757338 12.478612153434572
    vertex 910.9380945815471 1570.022066667133 10.478612153434419
    vertex 910.7382937365378 1569.539704757338 10.478612153434486
  endloop
endfacet
facet normal -0.9659258262890604 0.2588190451025499 3.194390924064526e-13
  outer loop
    vertex 910.9380945815471 1570.022066667133 10.478612153434419
    vertex 910.7382937365386 1569.539704757338 12.478612153434572
    vertex 910.9380945815477 1570.022066667133 12.478612153434506
  endloop
endfacet
facet normal 0.5000000000000026 -0.8660254037844373 -1.6535384173011009e-13
  outer loop
    vertex 908.0062429289694 1572.2717555649072 12.478612153435476
    vertex 908.4886048387638 1572.4715564099163 10.47861215343523
    vertex 908.4886048387646 1572.4715564099163 12.478612153435316
  endloop
endfacet
facet normal 0.2588190451025151 -0.9659258262890699 -8.559344684123857e-14
  outer loop
    vertex 908.4886048387638 1572.4715564099163 10.47861215343523
    vertex 908.0062429289694 1572.2717555649072 12.478612153435476
    vertex 908.0062429289687 1572.2717555649072 10.478612153435389
  endloop
endfacet
facet normal -0.5000000000000026 -0.8660254037844373 1.6535384173011009e-13
  outer loop
    vertex 910.0062429289695 1572.2717555649072 12.478612153434815
    vertex 910.4204564913421 1571.9539183197112 10.47861215343459
    vertex 910.4204564913427 1571.9539183197112 12.478612153434677
  endloop
endfacet
facet normal -0.7071067811865076 -0.7071067811865875 2.338456455652016e-13
  outer loop
    vertex 910.4204564913421 1571.9539183197112 10.47861215343459
    vertex 910.0062429289695 1572.2717555649072 12.478612153434815
    vertex 910.006242928969 1572.2717555649072 10.478612153434728
  endloop
endfacet
facet normal 1.0 0.0 -3.307076834602185e-13
  outer loop
    vertex 907.0062429289695 1570.539704757338 12.478612153435806
    vertex 907.0743912763907 1570.022066667133 10.478612153435696
    vertex 907.0062429289688 1570.539704757338 10.47861215343572
  endloop
endfacet
facet normal 0.9659258262890777 0.25881904510248605 -3.194390924064583e-13
  outer loop
    vertex 907.0743912763907 1570.022066667133 10.478612153435696
    vertex 907.0062429289695 1570.539704757338 12.478612153435806
    vertex 907.0743912763913 1570.022066667133 12.478612153435783
  endloop
endfacet
facet normal 0.9659258262890604 -0.2588190451025499 -3.194390924064526e-13
  outer loop
    vertex 907.0743912763913 1571.0573428475432 12.478612153435783
    vertex 907.0062429289688 1570.539704757338 10.47861215343572
    vertex 907.0743912763907 1571.0573428475432 10.478612153435696
  endloop
endfacet
facet normal 1.0 0.0 -3.307076834602185e-13
  outer loop
    vertex 907.0062429289688 1570.539704757338 10.47861215343572
    vertex 907.0743912763913 1571.0573428475432 12.478612153435783
    vertex 907.0062429289695 1570.539704757338 12.478612153435806
  endloop
endfacet
facet normal 0.7071067811865076 0.7071067811865875 -2.338456455652016e-13
  outer loop
    vertex 907.5920293665957 1569.125491194965 10.478612153435526
    vertex 908.0062429289694 1568.8076539497692 12.478612153435476
    vertex 908.0062429289687 1568.8076539497692 10.478612153435389
  endloop
endfacet
facet normal 0.5000000000000026 0.8660254037844373 -1.6535384173011009e-13
  outer loop
    vertex 908.0062429289694 1568.8076539497692 12.478612153435476
    vertex 907.5920293665957 1569.125491194965 10.478612153435526
    vertex 907.5920293665964 1569.125491194965 12.478612153435613
  endloop
endfacet
facet normal 0.8660254037844455 0.49999999999998823 -2.864012551032543e-13
  outer loop
    vertex 898.8169678145288 1569.5397047573326 12.478612153438515
    vertex 899.1348050597238 1569.1254911949597 10.478612153438323
    vertex 898.816967814528 1569.5397047573326 10.478612153438428
  endloop
endfacet
facet normal 0.7071067811865076 0.7071067811865875 -2.338456455652016e-13
  outer loop
    vertex 899.1348050597238 1569.1254911949597 10.478612153438323
    vertex 898.8169678145288 1569.5397047573326 12.478612153438515
    vertex 899.1348050597245 1569.1254911949597 12.47861215343841
  endloop
endfacet
facet normal -5.76838240729048e-55 -1.0 -1.744254124045585e-42
  outer loop
    vertex 909.0062429289696 1572.539704757338 12.478612153435146
    vertex 909.5238810191739 1572.4715564099163 10.478612153434888
    vertex 909.5238810191747 1572.4715564099163 12.478612153434973
  endloop
endfacet
facet normal -0.2588190451025151 -0.9659258262890699 8.559344684123857e-14
  outer loop
    vertex 909.5238810191739 1572.4715564099163 10.478612153434888
    vertex 909.0062429289696 1572.539704757338 12.478612153435146
    vertex 909.0062429289688 1572.539704757338 10.478612153435058
  endloop
endfacet
facet normal 0.7071067811865819 -0.7071067811865132 -2.338456455652261e-13
  outer loop
    vertex 907.5920293665964 1571.9539183197112 12.478612153435613
    vertex 908.0062429289687 1572.2717555649072 10.478612153435389
    vertex 908.0062429289694 1572.2717555649072 12.478612153435476
  endloop
endfacet
facet normal 0.5000000000000026 -0.8660254037844373 -1.6535384173011009e-13
  outer loop
    vertex 908.0062429289687 1572.2717555649072 10.478612153435389
    vertex 907.5920293665964 1571.9539183197112 12.478612153435613
    vertex 907.5920293665957 1571.9539183197112 10.478612153435526
  endloop
endfacet
facet normal 0.8660254037844649 -0.4999999999999544 -2.8640125510326074e-13
  outer loop
    vertex 907.2741921214007 1571.539704757338 12.478612153435718
    vertex 907.0743912763907 1571.0573428475432 10.478612153435696
    vertex 907.2741921213999 1571.539704757338 10.47861215343563
  endloop
endfacet
facet normal 0.9659258262890604 -0.2588190451025499 -3.194390924064526e-13
  outer loop
    vertex 907.0743912763907 1571.0573428475432 10.478612153435696
    vertex 907.2741921214007 1571.539704757338 12.478612153435718
    vertex 907.0743912763913 1571.0573428475432 12.478612153435783
  endloop
endfacet
facet normal 5.76838240729048e-55 1.0 1.744254124045585e-42
  outer loop
    vertex 909.0062429289688 1568.539704757338 10.478612153435058
    vertex 909.5238810191747 1568.60785310476 12.478612153434973
    vertex 909.5238810191739 1568.60785310476 10.478612153434888
  endloop
endfacet
facet normal -0.2588190451025151 0.9659258262890699 8.559344684123857e-14
  outer loop
    vertex 909.5238810191747 1568.60785310476 12.478612153434973
    vertex 909.0062429289688 1568.539704757338 10.478612153435058
    vertex 909.0062429289696 1568.539704757338 12.478612153435146
  endloop
endfacet
facet normal -0.2588190451025151 -0.9659258262890699 8.559344684123857e-14
  outer loop
    vertex 909.5238810191747 1572.4715564099163 12.478612153434973
    vertex 910.006242928969 1572.2717555649072 10.478612153434728
    vertex 910.0062429289695 1572.2717555649072 12.478612153434815
  endloop
endfacet
facet normal -0.5000000000000026 -0.8660254037844373 1.6535384173011009e-13
  outer loop
    vertex 910.006242928969 1572.2717555649072 10.478612153434728
    vertex 909.5238810191747 1572.4715564099163 12.478612153434973
    vertex 909.5238810191739 1572.4715564099163 10.478612153434888
  endloop
endfacet
facet normal -0.8660254037844455 -0.49999999999998823 2.864012551032543e-13
  outer loop
    vertex 910.7382937365386 1571.5397047573383 12.478612153434572
    vertex 910.4204564913421 1571.9539183197112 10.47861215343459
    vertex 910.7382937365378 1571.5397047573383 10.478612153434486
  endloop
endfacet
facet normal -0.7071067811865076 -0.7071067811865875 2.338456455652016e-13
  outer loop
    vertex 910.4204564913421 1571.9539183197112 10.47861215343459
    vertex 910.7382937365386 1571.5397047573383 12.478612153434572
    vertex 910.4204564913427 1571.9539183197112 12.478612153434677
  endloop
endfacet
endsolid Design - Rolled
