solid Design - Rolled
facet normal -6.748637736012047e-15 1.1943387455496966e-14 1.0
  outer loop
    vertex 52.59567491784781 -71.10979741412363 189.40000019986854
    vertex 50.595674917847816 -73.10979741412362 189.40000019986854
    vertex 50.59567491784784 -86.10979741412365 189.4000001998687
  endloop
endfacet
facet normal -6.748637736012047e-15 1.1943387455496966e-14 1.0
  outer loop
    vertex 50.595674917847816 -73.10979741412362 189.40000019986854
    vertex 52.59567491784781 -71.10979741412363 189.40000019986854
    vertex 29.19567491784776 -71.10979741412365 189.40000019986837
  endloop
endfacet
facet normal -6.748637736012047e-15 1.1943387455496966e-14 1.0
  outer loop
    vertex 50.595674917847816 -73.10979741412362 189.40000019986854
    vertex 29.19567491784776 -71.10979741412365 189.40000019986837
    vertex 31.195674917847764 -73.10979741412363 189.40000019986843
  endloop
endfacet
facet normal -6.748637736012047e-15 1.1943387455496966e-14 1.0
  outer loop
    vertex 31.195674917847764 -73.10979741412363 189.40000019986843
    vertex 29.19567491784776 -71.10979741412365 189.40000019986837
    vertex 29.19567491784778 -88.10979741412365 189.4000001998686
  endloop
endfacet
facet normal -6.748637736012047e-15 1.1943387455496966e-14 1.0
  outer loop
    vertex 52.59567491784783 -88.10979741412365 189.40000019986874
    vertex 50.59567491784784 -86.10979741412365 189.4000001998687
    vertex 29.19567491784778 -88.10979741412365 189.4000001998686
  endloop
endfacet
facet normal -6.748637736012047e-15 1.1943387455496966e-14 1.0
  outer loop
    vertex 50.59567491784784 -86.10979741412365 189.4000001998687
    vertex 52.59567491784783 -88.10979741412365 189.40000019986874
    vertex 52.59567491784781 -71.10979741412363 189.40000019986854
  endloop
endfacet
facet normal -6.748637736012047e-15 1.1943387455496966e-14 1.0
  outer loop
    vertex 29.19567491784778 -88.10979741412365 189.4000001998686
    vertex 50.59567491784784 -86.10979741412365 189.4000001998687
    vertex 31.19567491784778 -86.10979741412365 189.4000001998686
  endloop
endfacet
facet normal -6.748637736012047e-15 1.1943387455496966e-14 1.0
  outer loop
    vertex 29.19567491784778 -88.10979741412365 189.4000001998686
    vertex 31.19567491784778 -86.10979741412365 189.4000001998686
    vertex 31.195674917847764 -73.10979741412363 189.40000019986843
  endloop
endfacet
facet normal 6.944325174228364e-29 1.0 -1.1943387455496964e-14
  outer loop
    vertex 31.19567491784778 -86.10979741412365 189.4000001998686
    vertex 50.59567491784785 -86.10979741412368 187.4000001998687
    vertex 31.195674917847793 -86.10979741412368 187.40000019986863
  endloop
endfacet
facet normal 6.944325174228364e-29 1.0 -1.1943387455496964e-14
  outer loop
    vertex 50.59567491784785 -86.10979741412368 187.4000001998687
    vertex 31.19567491784778 -86.10979741412365 189.4000001998686
    vertex 50.59567491784784 -86.10979741412365 189.4000001998687
  endloop
endfacet
facet normal -1.0 -1.7353639892603235e-15 -6.748637736012026e-15
  outer loop
    vertex 50.59567491784783 -73.10979741412365 187.40000019986854
    vertex 50.59567491784784 -86.10979741412365 189.4000001998687
    vertex 50.595674917847816 -73.10979741412362 189.40000019986854
  endloop
endfacet
facet normal -1.0 -1.7353639892603235e-15 -6.748637736012026e-15
  outer loop
    vertex 50.59567491784784 -86.10979741412365 189.4000001998687
    vertex 50.59567491784783 -73.10979741412365 187.40000019986854
    vertex 50.59567491784785 -86.10979741412368 187.4000001998687
  endloop
endfacet
facet normal 6.748637736012047e-15 -1.1943387455496966e-14 -1.0
  outer loop
    vertex 52.595674917847845 -88.10979741412366 187.40000019986874
    vertex 50.59567491784785 -86.10979741412368 187.4000001998687
    vertex 52.59567491784782 -71.10979741412365 187.40000019986854
  endloop
endfacet
facet normal 6.748637736012047e-15 -1.1943387455496966e-14 -1.0
  outer loop
    vertex 50.59567491784785 -86.10979741412368 187.4000001998687
    vertex 52.595674917847845 -88.10979741412366 187.40000019986874
    vertex 29.19567491784779 -88.10979741412366 187.4000001998686
  endloop
endfacet
facet normal 6.748637736012047e-15 -1.1943387455496966e-14 -1.0
  outer loop
    vertex 50.59567491784785 -86.10979741412368 187.4000001998687
    vertex 29.19567491784779 -88.10979741412366 187.4000001998686
    vertex 31.195674917847793 -86.10979741412368 187.40000019986863
  endloop
endfacet
facet normal 6.748637736012047e-15 -1.1943387455496966e-14 -1.0
  outer loop
    vertex 31.195674917847793 -86.10979741412368 187.40000019986863
    vertex 29.19567491784779 -88.10979741412366 187.4000001998686
    vertex 31.195674917847775 -73.10979741412366 187.40000019986843
  endloop
endfacet
facet normal 6.748637736012047e-15 -1.1943387455496966e-14 -1.0
  outer loop
    vertex 52.59567491784782 -71.10979741412365 187.40000019986854
    vertex 50.59567491784783 -73.10979741412365 187.40000019986854
    vertex 29.19567491784777 -71.10979741412366 187.4000001998684
  endloop
endfacet
facet normal 6.748637736012047e-15 -1.1943387455496966e-14 -1.0
  outer loop
    vertex 50.59567491784783 -73.10979741412365 187.40000019986854
    vertex 52.59567491784782 -71.10979741412365 187.40000019986854
    vertex 50.59567491784785 -86.10979741412368 187.4000001998687
  endloop
endfacet
facet normal 6.748637736012047e-15 -1.1943387455496966e-14 -1.0
  outer loop
    vertex 29.19567491784777 -71.10979741412366 187.4000001998684
    vertex 50.59567491784783 -73.10979741412365 187.40000019986854
    vertex 31.195674917847775 -73.10979741412366 187.40000019986843
  endloop
endfacet
facet normal 6.748637736012047e-15 -1.1943387455496966e-14 -1.0
  outer loop
    vertex 29.19567491784777 -71.10979741412366 187.4000001998684
    vertex 31.195674917847775 -73.10979741412366 187.40000019986843
    vertex 29.19567491784779 -88.10979741412366 187.4000001998686
  endloop
endfacet
facet normal -1.0 -9.952822879581618e-16 -6.748637736012036e-15
  outer loop
    vertex 29.19567491784777 -71.10979741412366 187.4000001998684
    vertex 29.19567491784778 -88.10979741412365 189.4000001998686
    vertex 29.19567491784776 -71.10979741412365 189.40000019986837
  endloop
endfacet
facet normal -1.0 -9.952822879581618e-16 -6.748637736012036e-15
  outer loop
    vertex 29.19567491784778 -88.10979741412365 189.4000001998686
    vertex 29.19567491784777 -71.10979741412366 187.4000001998684
    vertex 29.19567491784779 -88.10979741412366 187.4000001998686
  endloop
endfacet
facet normal 5.814363881541346e-16 -1.0 1.1943387455496967e-14
  outer loop
    vertex 50.59567491784783 -73.10979741412365 187.40000019986854
    vertex 31.195674917847764 -73.10979741412363 189.40000019986843
    vertex 31.195674917847775 -73.10979741412366 187.40000019986843
  endloop
endfacet
facet normal 5.814363881541346e-16 -1.0 1.1943387455496967e-14
  outer loop
    vertex 31.195674917847764 -73.10979741412363 189.40000019986843
    vertex 50.59567491784783 -73.10979741412365 187.40000019986854
    vertex 50.595674917847816 -73.10979741412362 189.40000019986854
  endloop
endfacet
facet normal -4.820455525722084e-16 1.0 -1.1943387455496967e-14
  outer loop
    vertex 29.19567491784776 -71.10979741412365 189.40000019986837
    vertex 52.59567491784782 -71.10979741412365 187.40000019986854
    vertex 29.19567491784777 -71.10979741412366 187.4000001998684
  endloop
endfacet
facet normal -4.820455525722084e-16 1.0 -1.1943387455496967e-14
  outer loop
    vertex 52.59567491784782 -71.10979741412365 187.40000019986854
    vertex 29.19567491784776 -71.10979741412365 189.40000019986837
    vertex 52.59567491784781 -71.10979741412363 189.40000019986854
  endloop
endfacet
facet normal -8.059823798017451e-29 -1.0 1.1943387455496964e-14
  outer loop
    vertex 52.595674917847845 -88.10979741412366 187.40000019986874
    vertex 29.19567491784778 -88.10979741412365 189.4000001998686
    vertex 29.19567491784779 -88.10979741412366 187.4000001998686
  endloop
endfacet
facet normal -8.059823798017451e-29 -1.0 1.1943387455496964e-14
  outer loop
    vertex 29.19567491784778 -88.10979741412365 189.4000001998686
    vertex 52.595674917847845 -88.10979741412366 187.40000019986874
    vertex 52.59567491784783 -88.10979741412365 189.40000019986874
  endloop
endfacet
facet normal 1.0 1.3270430506108546e-15 6.7486377360120316e-15
  outer loop
    vertex 52.59567491784783 -88.10979741412365 189.40000019986874
    vertex 52.59567491784782 -71.10979741412365 187.40000019986854
    vertex 52.59567491784781 -71.10979741412363 189.40000019986854
  endloop
endfacet
facet normal 1.0 1.3270430506108546e-15 6.7486377360120316e-15
  outer loop
    vertex 52.59567491784782 -71.10979741412365 187.40000019986854
    vertex 52.59567491784783 -88.10979741412365 189.40000019986874
    vertex 52.595674917847845 -88.10979741412366 187.40000019986874
  endloop
endfacet
facet normal 1.0 1.3015229919452643e-15 6.7486377360120316e-15
  outer loop
    vertex 31.19567491784778 -86.10979741412365 189.4000001998686
    vertex 31.195674917847775 -73.10979741412366 187.40000019986843
    vertex 31.195674917847764 -73.10979741412363 189.40000019986843
  endloop
endfacet
facet normal 1.0 1.3015229919452643e-15 6.7486377360120316e-15
  outer loop
    vertex 31.195674917847775 -73.10979741412366 187.40000019986843
    vertex 31.19567491784778 -86.10979741412365 189.4000001998686
    vertex 31.195674917847793 -86.10979741412368 187.40000019986863
  endloop
endfacet
endsolid Design - Rolled
