solid Design - Rolled
facet normal 0.0 0.0 -1.0
  outer loop
    vertex 905.0304977531435 1553.342362101968 5.750000000000545
    vertex 905.9587584864004 1552.0647208112302 5.750000000000545
    vertex 903.4156309313568 1551.1930615836122 5.750000000000545
  endloop
endfacet
facet normal 0.0 0.0 -1.0
  outer loop
    vertex 905.9587584864004 1552.0647208112302 5.750000000000545
    vertex 905.0304977531435 1553.342362101968 5.750000000000545
    vertex 905.5288642506532 1553.6143497548692 5.750000000000545
  endloop
endfacet
facet normal 0.0 0.0 -1.0
  outer loop
    vertex 905.5288642506532 1553.6143497548692 5.750000000000545
    vertex 905.0304977531435 1553.342362101968 5.750000000000545
    vertex 905.4607159032314 1554.1319878450743 5.750000000000545
  endloop
endfacet
facet normal 0.0 0.0 -1.0
  outer loop
    vertex 905.9587584864004 1552.0647208112302 5.750000000000545
    vertex 905.5288642506532 1553.6143497548692 5.750000000000545
    vertex 905.7286650956624 1553.1319878450745 5.750000000000545
  endloop
endfacet
facet normal 0.0 0.0 -1.0
  outer loop
    vertex 905.9587584864004 1552.0647208112302 5.750000000000545
    vertex 905.7286650956624 1553.1319878450745 5.750000000000545
    vertex 906.0465023408584 1552.7177742827012 5.750000000000545
  endloop
endfacet
facet normal 0.0 0.0 -1.0
  outer loop
    vertex 905.9587584863999 1556.1992548789185 5.750000000000545
    vertex 905.0304977531435 1554.9216135881804 5.750000000000545
    vertex 903.4156309313568 1557.070914106537 5.750000000000545
  endloop
endfacet
facet normal 0.0 0.0 -1.0
  outer loop
    vertex 905.0304977531435 1554.9216135881804 5.750000000000545
    vertex 905.9587584863999 1556.1992548789185 5.750000000000545
    vertex 905.0304977531435 1553.342362101968 5.750000000000545
  endloop
endfacet
facet normal 0.0 0.0 -1.0
  outer loop
    vertex 905.0304977531435 1553.342362101968 5.750000000000545
    vertex 905.9587584863999 1556.1992548789185 5.750000000000545
    vertex 905.5288642506532 1554.6496259352793 5.750000000000545
  endloop
endfacet
facet normal 0.0 0.0 -1.0
  outer loop
    vertex 905.0304977531435 1553.342362101968 5.750000000000545
    vertex 905.5288642506532 1554.6496259352793 5.750000000000545
    vertex 905.4607159032314 1554.1319878450743 5.750000000000545
  endloop
endfacet
facet normal 0.0 0.0 -1.0
  outer loop
    vertex 905.5288642506532 1554.6496259352793 5.750000000000545
    vertex 905.9587584863999 1556.1992548789185 5.750000000000545
    vertex 905.7286650956623 1555.1319878450745 5.750000000000545
  endloop
endfacet
facet normal 0.0 0.0 -1.0
  outer loop
    vertex 905.7286650956623 1555.1319878450745 5.750000000000545
    vertex 905.9587584863999 1556.1992548789185 5.750000000000545
    vertex 906.0465023408581 1555.5462014074476 5.750000000000545
  endloop
endfacet
facet normal 0.0 0.0 -1.0
  outer loop
    vertex 905.0304977531435 1553.342362101968 5.750000000000545
    vertex 902.4607159032315 1554.1319878450745 5.750000000000545
    vertex 905.0304977531435 1554.9216135881804 5.750000000000545
  endloop
endfacet
facet normal 0.0 0.0 -1.0
  outer loop
    vertex 907.4607159032313 1556.6872704265504 5.750000000000545
    vertex 905.9587584863999 1556.1992548789185 5.750000000000545
    vertex 905.9156309313566 1558.8872704265502 5.750000000000545
  endloop
endfacet
facet normal 0.0 0.0 -1.0
  outer loop
    vertex 905.9587584863999 1556.1992548789185 5.750000000000545
    vertex 907.4607159032313 1556.6872704265504 5.750000000000545
    vertex 906.0465023408581 1555.5462014074476 5.750000000000545
  endloop
endfacet
facet normal 0.0 0.0 -1.0
  outer loop
    vertex 906.0465023408581 1555.5462014074476 5.750000000000545
    vertex 907.4607159032313 1556.6872704265504 5.750000000000545
    vertex 906.4607159032312 1555.8640386526433 5.750000000000545
  endloop
endfacet
facet normal 0.0 0.0 -1.0
  outer loop
    vertex 906.4607159032312 1555.8640386526433 5.750000000000545
    vertex 907.4607159032313 1556.6872704265504 5.750000000000545
    vertex 906.9430778130262 1556.0638394976527 5.750000000000545
  endloop
endfacet
facet normal 0.0 0.0 -1.0
  outer loop
    vertex 906.9430778130262 1556.0638394976527 5.750000000000545
    vertex 907.4607159032313 1556.6872704265504 5.750000000000545
    vertex 907.4607159032313 1556.1319878450747 5.750000000000545
  endloop
endfacet
facet normal 0.0 0.0 -1.0
  outer loop
    vertex 907.4607159032313 1556.1319878450747 5.750000000000545
    vertex 907.4607159032313 1556.6872704265504 5.750000000000545
    vertex 909.0058008751062 1558.8872704265502 5.750000000000545
  endloop
endfacet
facet normal 0.0 0.0 -1.0
  outer loop
    vertex 907.4607159032313 1556.1319878450747 5.750000000000545
    vertex 909.0058008751062 1558.8872704265502 5.750000000000545
    vertex 907.9783539934364 1556.0638394976527 5.750000000000545
  endloop
endfacet
facet normal 0.0 0.0 -1.0
  outer loop
    vertex 907.9783539934364 1556.0638394976527 5.750000000000545
    vertex 909.0058008751062 1558.8872704265502 5.750000000000545
    vertex 908.4607159032312 1555.8640386526438 5.750000000000545
  endloop
endfacet
facet normal 0.0 0.0 -1.0
  outer loop
    vertex 908.4607159032312 1555.8640386526438 5.750000000000545
    vertex 909.0058008751062 1558.8872704265502 5.750000000000545
    vertex 908.8749294656044 1555.5462014074478 5.750000000000545
  endloop
endfacet
facet normal 0.0 0.0 -1.0
  outer loop
    vertex 908.8749294656044 1555.5462014074478 5.750000000000545
    vertex 909.0058008751062 1558.8872704265502 5.750000000000545
    vertex 908.9626733200624 1556.1992548789185 5.750000000000545
  endloop
endfacet
facet normal 0.0 0.0 -1.0
  outer loop
    vertex 908.9626733200624 1556.1992548789185 5.750000000000545
    vertex 909.1927667108002 1555.1319878450747 5.750000000000545
    vertex 908.8749294656044 1555.5462014074478 5.750000000000545
  endloop
endfacet
facet normal 0.0 0.0 -1.0
  outer loop
    vertex 909.1927667108002 1555.1319878450747 5.750000000000545
    vertex 908.9626733200624 1556.1992548789185 5.750000000000545
    vertex 911.5058008751062 1557.070914106537 5.750000000000545
  endloop
endfacet
facet normal 0.0 0.0 -1.0
  outer loop
    vertex 909.1927667108002 1555.1319878450747 5.750000000000545
    vertex 911.5058008751062 1557.070914106537 5.750000000000545
    vertex 909.3925675558095 1554.6496259352798 5.750000000000545
  endloop
endfacet
facet normal 0.0 0.0 -1.0
  outer loop
    vertex 909.3925675558095 1554.6496259352798 5.750000000000545
    vertex 911.5058008751062 1557.070914106537 5.750000000000545
    vertex 909.8909340533194 1554.9216135881811 5.750000000000545
  endloop
endfacet
facet normal 0.0 0.0 -1.0
  outer loop
    vertex 909.3925675558095 1554.6496259352798 5.750000000000545
    vertex 909.8909340533194 1554.9216135881811 5.750000000000545
    vertex 909.4607159032315 1554.1319878450747 5.750000000000545
  endloop
endfacet
facet normal 0.0 0.0 -1.0
  outer loop
    vertex 912.4607159032315 1554.1319878450745 5.750000000000545
    vertex 909.8909340533196 1553.3423621019685 5.750000000000545
    vertex 909.8909340533194 1554.9216135881811 5.750000000000545
  endloop
endfacet
facet normal 0.0 0.0 -1.0
  outer loop
    vertex 909.1927667108004 1553.1319878450745 5.750000000000545
    vertex 908.962673320063 1552.0647208112305 5.750000000000545
    vertex 908.8749294656049 1552.7177742827016 5.750000000000545
  endloop
endfacet
facet normal 0.0 0.0 -1.0
  outer loop
    vertex 908.962673320063 1552.0647208112305 5.750000000000545
    vertex 909.1927667108004 1553.1319878450745 5.750000000000545
    vertex 911.5058008751062 1551.1930615836122 5.750000000000545
  endloop
endfacet
facet normal 0.0 0.0 -1.0
  outer loop
    vertex 911.5058008751062 1551.1930615836122 5.750000000000545
    vertex 909.1927667108004 1553.1319878450745 5.750000000000545
    vertex 909.3925675558097 1553.6143497548696 5.750000000000545
  endloop
endfacet
facet normal 0.0 0.0 -1.0
  outer loop
    vertex 911.5058008751062 1551.1930615836122 5.750000000000545
    vertex 909.3925675558097 1553.6143497548696 5.750000000000545
    vertex 909.8909340533196 1553.3423621019685 5.750000000000545
  endloop
endfacet
facet normal 0.0 0.0 -1.0
  outer loop
    vertex 909.8909340533196 1553.3423621019685 5.750000000000545
    vertex 909.3925675558097 1553.6143497548696 5.750000000000545
    vertex 909.4607159032315 1554.1319878450747 5.750000000000545
  endloop
endfacet
facet normal 0.0 0.0 -1.0
  outer loop
    vertex 909.8909340533196 1553.3423621019685 5.750000000000545
    vertex 909.4607159032315 1554.1319878450747 5.750000000000545
    vertex 909.8909340533194 1554.9216135881811 5.750000000000545
  endloop
endfacet
facet normal 0.0 0.0 -1.0
  outer loop
    vertex 905.9587584864004 1552.0647208112302 5.750000000000545
    vertex 907.4607159032316 1551.5767052635988 5.750000000000545
    vertex 905.9156309313566 1549.3767052635988 5.750000000000545
  endloop
endfacet
facet normal 0.0 0.0 -1.0
  outer loop
    vertex 907.4607159032316 1551.5767052635988 5.750000000000545
    vertex 905.9587584864004 1552.0647208112302 5.750000000000545
    vertex 906.0465023408584 1552.7177742827012 5.750000000000545
  endloop
endfacet
facet normal 0.0 0.0 -1.0
  outer loop
    vertex 907.4607159032316 1551.5767052635988 5.750000000000545
    vertex 906.0465023408584 1552.7177742827012 5.750000000000545
    vertex 906.4607159032315 1552.3999370375054 5.750000000000545
  endloop
endfacet
facet normal 0.0 0.0 -1.0
  outer loop
    vertex 907.4607159032316 1551.5767052635988 5.750000000000545
    vertex 906.4607159032315 1552.3999370375054 5.750000000000545
    vertex 906.9430778130265 1552.2001361924963 5.750000000000545
  endloop
endfacet
facet normal 0.0 0.0 -1.0
  outer loop
    vertex 907.4607159032316 1551.5767052635988 5.750000000000545
    vertex 906.9430778130265 1552.2001361924963 5.750000000000545
    vertex 907.4607159032316 1552.1319878450745 5.750000000000545
  endloop
endfacet
facet normal 0.0 0.0 -1.0
  outer loop
    vertex 907.4607159032316 1551.5767052635988 5.750000000000545
    vertex 907.4607159032316 1552.1319878450745 5.750000000000545
    vertex 907.9783539934367 1552.2001361924963 5.750000000000545
  endloop
endfacet
facet normal 0.0 0.0 -1.0
  outer loop
    vertex 907.4607159032316 1551.5767052635988 5.750000000000545
    vertex 907.9783539934367 1552.2001361924963 5.750000000000545
    vertex 909.0058008751062 1549.3767052635988 5.750000000000545
  endloop
endfacet
facet normal 0.0 0.0 -1.0
  outer loop
    vertex 909.0058008751062 1549.3767052635988 5.750000000000545
    vertex 907.9783539934367 1552.2001361924963 5.750000000000545
    vertex 908.4607159032316 1552.3999370375057 5.750000000000545
  endloop
endfacet
facet normal 0.0 0.0 -1.0
  outer loop
    vertex 909.0058008751062 1549.3767052635988 5.750000000000545
    vertex 908.4607159032316 1552.3999370375057 5.750000000000545
    vertex 908.8749294656049 1552.7177742827016 5.750000000000545
  endloop
endfacet
facet normal 0.0 0.0 -1.0
  outer loop
    vertex 909.0058008751062 1549.3767052635988 5.750000000000545
    vertex 908.8749294656049 1552.7177742827016 5.750000000000545
    vertex 908.962673320063 1552.0647208112305 5.750000000000545
  endloop
endfacet
facet normal 0.29372007531432986 -0.9558914778139539 0.0
  outer loop
    vertex 912.4607159032315 1554.1319878450745 8.750000000000545
    vertex 909.8909340533196 1553.3423621019685 5.750000000000545
    vertex 912.4607159032315 1554.1319878450745 5.750000000000545
  endloop
endfacet
facet normal 0.29372007531432986 -0.9558914778139539 0.0
  outer loop
    vertex 909.8909340533196 1553.3423621019685 5.750000000000545
    vertex 912.4607159032315 1554.1319878450745 8.750000000000545
    vertex 909.8909340533196 1553.3423621019685 8.750000000000545
  endloop
endfacet
facet normal -0.3242343809326811 -0.9459767789016816 -0.0
  outer loop
    vertex 911.5058008751062 1551.1930615836122 8.750000000000545
    vertex 908.962673320063 1552.0647208112305 5.750000000000545
    vertex 911.5058008751062 1551.1930615836122 5.750000000000545
  endloop
endfacet
facet normal -0.3242343809326811 -0.9459767789016816 -0.0
  outer loop
    vertex 908.962673320063 1552.0647208112305 5.750000000000545
    vertex 911.5058008751062 1551.1930615836122 8.750000000000545
    vertex 908.962673320063 1552.0647208112305 8.750000000000545
  endloop
endfacet
facet normal 0.9998713137071824 -0.01604231982829421 0.0
  outer loop
    vertex 909.0058008751062 1558.8872704265502 5.750000000000545
    vertex 908.9626733200624 1556.1992548789185 8.750000000000545
    vertex 908.9626733200624 1556.1992548789185 5.750000000000545
  endloop
endfacet
facet normal 0.9998713137071824 -0.01604231982829421 0.0
  outer loop
    vertex 908.9626733200624 1556.1992548789185 8.750000000000545
    vertex 909.0058008751062 1558.8872704265502 5.750000000000545
    vertex 909.0058008751062 1558.8872704265502 8.750000000000545
  endloop
endfacet
facet normal 0.7994834459696099 0.6006881217575042 0.0
  outer loop
    vertex 909.8909340533196 1553.3423621019685 5.750000000000545
    vertex 911.5058008751062 1551.1930615836122 8.750000000000545
    vertex 911.5058008751062 1551.1930615836122 5.750000000000545
  endloop
endfacet
facet normal 0.7994834459696099 0.6006881217575042 0.0
  outer loop
    vertex 911.5058008751062 1551.1930615836122 8.750000000000545
    vertex 909.8909340533196 1553.3423621019685 5.750000000000545
    vertex 909.8909340533196 1553.3423621019685 8.750000000000545
  endloop
endfacet
facet normal 0.8660254037844181 0.5000000000000361 0.0
  outer loop
    vertex 905.7286650956624 1553.1319878450745 5.750000000000545
    vertex 906.0465023408584 1552.7177742827012 8.750000000000545
    vertex 906.0465023408584 1552.7177742827012 5.750000000000545
  endloop
endfacet
facet normal 0.7071067811865483 0.7071067811865467 0.0
  outer loop
    vertex 906.0465023408584 1552.7177742827012 8.750000000000545
    vertex 905.7286650956624 1553.1319878450745 5.750000000000545
    vertex 905.7286650956624 1553.1319878450745 8.750000000000545
  endloop
endfacet
facet normal 0.29372007531455635 0.9558914778138842 0.0
  outer loop
    vertex 909.8909340533194 1554.9216135881811 8.750000000000545
    vertex 912.4607159032315 1554.1319878450745 5.750000000000545
    vertex 909.8909340533194 1554.9216135881811 5.750000000000545
  endloop
endfacet
facet normal 0.29372007531455635 0.9558914778138842 0.0
  outer loop
    vertex 912.4607159032315 1554.1319878450745 5.750000000000545
    vertex 909.8909340533194 1554.9216135881811 8.750000000000545
    vertex 912.4607159032315 1554.1319878450745 8.750000000000545
  endloop
endfacet
facet normal 0.7071067811865483 0.7071067811865467 0.0
  outer loop
    vertex 906.0465023408584 1552.7177742827012 8.750000000000545
    vertex 906.4607159032315 1552.3999370375054 5.750000000000545
    vertex 906.0465023408584 1552.7177742827012 5.750000000000545
  endloop
endfacet
facet normal 0.4999999999998457 0.8660254037845279 0.0
  outer loop
    vertex 906.4607159032315 1552.3999370375054 5.750000000000545
    vertex 906.0465023408584 1552.7177742827012 8.750000000000545
    vertex 906.4607159032315 1552.3999370375054 8.750000000000545
  endloop
endfacet
facet normal 0.4999999999998457 0.8660254037845279 0.0
  outer loop
    vertex 906.4607159032315 1552.3999370375054 8.750000000000545
    vertex 906.9430778130265 1552.2001361924963 5.750000000000545
    vertex 906.4607159032315 1552.3999370375054 5.750000000000545
  endloop
endfacet
facet normal 0.2588190451023529 0.9659258262891134 0.0
  outer loop
    vertex 906.9430778130265 1552.2001361924963 5.750000000000545
    vertex 906.4607159032315 1552.3999370375054 8.750000000000545
    vertex 906.9430778130265 1552.2001361924963 8.750000000000545
  endloop
endfacet
facet normal 0.2588190451023529 0.9659258262891134 0.0
  outer loop
    vertex 906.9430778130265 1552.2001361924963 8.750000000000545
    vertex 907.4607159032316 1552.1319878450745 5.750000000000545
    vertex 906.9430778130265 1552.2001361924963 5.750000000000545
  endloop
endfacet
facet normal -2.8248218369200437e-15 1.0 0.0
  outer loop
    vertex 907.4607159032316 1552.1319878450745 5.750000000000545
    vertex 906.9430778130265 1552.2001361924963 8.750000000000545
    vertex 907.4607159032316 1552.1319878450745 8.750000000000545
  endloop
endfacet
facet normal -0.8183423239847015 -0.5747311030171572 -0.0
  outer loop
    vertex 907.4607159032316 1551.5767052635988 8.750000000000545
    vertex 909.0058008751062 1549.3767052635988 5.750000000000545
    vertex 909.0058008751062 1549.3767052635988 8.750000000000545
  endloop
endfacet
facet normal -0.8183423239847015 -0.5747311030171572 -0.0
  outer loop
    vertex 909.0058008751062 1549.3767052635988 5.750000000000545
    vertex 907.4607159032316 1551.5767052635988 8.750000000000545
    vertex 907.4607159032316 1551.5767052635988 5.750000000000545
  endloop
endfacet
facet normal -2.8248218369200437e-15 1.0 0.0
  outer loop
    vertex 907.4607159032316 1552.1319878450745 8.750000000000545
    vertex 907.9783539934367 1552.2001361924963 5.750000000000545
    vertex 907.4607159032316 1552.1319878450745 5.750000000000545
  endloop
endfacet
facet normal -0.2588190451026721 0.9659258262890278 0.0
  outer loop
    vertex 907.9783539934367 1552.2001361924963 5.750000000000545
    vertex 907.4607159032316 1552.1319878450745 8.750000000000545
    vertex 907.9783539934367 1552.2001361924963 8.750000000000545
  endloop
endfacet
facet normal -0.2588190451026721 0.9659258262890278 0.0
  outer loop
    vertex 907.9783539934367 1552.2001361924963 8.750000000000545
    vertex 908.4607159032316 1552.3999370375057 5.750000000000545
    vertex 907.9783539934367 1552.2001361924963 5.750000000000545
  endloop
endfacet
facet normal -0.5000000000001635 0.8660254037843442 0.0
  outer loop
    vertex 908.4607159032316 1552.3999370375057 5.750000000000545
    vertex 907.9783539934367 1552.2001361924963 8.750000000000545
    vertex 908.4607159032316 1552.3999370375057 8.750000000000545
  endloop
endfacet
facet normal 0.9998713137071851 0.016042319828134814 0.0
  outer loop
    vertex 908.962673320063 1552.0647208112305 5.750000000000545
    vertex 909.0058008751062 1549.3767052635988 8.750000000000545
    vertex 909.0058008751062 1549.3767052635988 5.750000000000545
  endloop
endfacet
facet normal 0.9998713137071851 0.016042319828134814 0.0
  outer loop
    vertex 909.0058008751062 1549.3767052635988 8.750000000000545
    vertex 908.962673320063 1552.0647208112305 5.750000000000545
    vertex 908.962673320063 1552.0647208112305 8.750000000000545
  endloop
endfacet
facet normal 0.7994834459694806 -0.600688121757676 0.0
  outer loop
    vertex 911.5058008751062 1557.070914106537 5.750000000000545
    vertex 909.8909340533194 1554.9216135881811 8.750000000000545
    vertex 909.8909340533194 1554.9216135881811 5.750000000000545
  endloop
endfacet
facet normal 0.7994834459694806 -0.600688121757676 0.0
  outer loop
    vertex 909.8909340533194 1554.9216135881811 8.750000000000545
    vertex 911.5058008751062 1557.070914106537 5.750000000000545
    vertex 911.5058008751062 1557.070914106537 8.750000000000545
  endloop
endfacet
facet normal -0.8183423239846146 0.5747311030172808 0.0
  outer loop
    vertex 909.0058008751062 1558.8872704265502 8.750000000000545
    vertex 907.4607159032313 1556.6872704265504 5.750000000000545
    vertex 907.4607159032313 1556.6872704265504 8.750000000000545
  endloop
endfacet
facet normal -0.8183423239846146 0.5747311030172808 0.0
  outer loop
    vertex 907.4607159032313 1556.6872704265504 5.750000000000545
    vertex 909.0058008751062 1558.8872704265502 8.750000000000545
    vertex 909.0058008751062 1558.8872704265502 5.750000000000545
  endloop
endfacet
facet normal 0.818342323984725 0.5747311030171235 0.0
  outer loop
    vertex 905.9156309313566 1558.8872704265502 5.750000000000545
    vertex 907.4607159032313 1556.6872704265504 8.750000000000545
    vertex 907.4607159032313 1556.6872704265504 5.750000000000545
  endloop
endfacet
facet normal 0.818342323984725 0.5747311030171235 0.0
  outer loop
    vertex 907.4607159032313 1556.6872704265504 8.750000000000545
    vertex 905.9156309313566 1558.8872704265502 5.750000000000545
    vertex 905.9156309313566 1558.8872704265502 8.750000000000545
  endloop
endfacet
facet normal -0.3242343809326322 0.9459767789016984 0.0
  outer loop
    vertex 908.9626733200624 1556.1992548789185 8.750000000000545
    vertex 911.5058008751062 1557.070914106537 5.750000000000545
    vertex 908.9626733200624 1556.1992548789185 5.750000000000545
  endloop
endfacet
facet normal -0.3242343809326322 0.9459767789016984 0.0
  outer loop
    vertex 911.5058008751062 1557.070914106537 5.750000000000545
    vertex 908.9626733200624 1556.1992548789185 8.750000000000545
    vertex 911.5058008751062 1557.070914106537 8.750000000000545
  endloop
endfacet
facet normal -0.965925826289034 -0.25881904510264914 0.0
  outer loop
    vertex 909.3925675558095 1554.6496259352798 8.750000000000545
    vertex 909.4607159032315 1554.1319878450747 5.750000000000545
    vertex 909.4607159032315 1554.1319878450747 8.750000000000545
  endloop
endfacet
facet normal -1.0 -1.0708480761598875e-13 0.0
  outer loop
    vertex 909.4607159032315 1554.1319878450747 5.750000000000545
    vertex 909.3925675558095 1554.6496259352798 8.750000000000545
    vertex 909.3925675558095 1554.6496259352798 5.750000000000545
  endloop
endfacet
facet normal -0.5000000000001635 0.8660254037843442 0.0
  outer loop
    vertex 908.4607159032316 1552.3999370375057 8.750000000000545
    vertex 908.8749294656049 1552.7177742827016 5.750000000000545
    vertex 908.4607159032316 1552.3999370375057 5.750000000000545
  endloop
endfacet
facet normal -0.7071067811865503 0.7071067811865447 0.0
  outer loop
    vertex 908.8749294656049 1552.7177742827016 5.750000000000545
    vertex 908.4607159032316 1552.3999370375057 8.750000000000545
    vertex 908.8749294656049 1552.7177742827016 8.750000000000545
  endloop
endfacet
facet normal -0.8660254037844181 -0.5000000000000361 0.0
  outer loop
    vertex 909.1927667108002 1555.1319878450747 8.750000000000545
    vertex 909.3925675558095 1554.6496259352798 5.750000000000545
    vertex 909.3925675558095 1554.6496259352798 8.750000000000545
  endloop
endfacet
facet normal -0.965925826289034 -0.25881904510264914 0.0
  outer loop
    vertex 909.3925675558095 1554.6496259352798 5.750000000000545
    vertex 909.1927667108002 1555.1319878450747 8.750000000000545
    vertex 909.1927667108002 1555.1319878450747 5.750000000000545
  endloop
endfacet
facet normal -1.0 -1.0708480761598875e-13 0.0
  outer loop
    vertex 909.4607159032315 1554.1319878450747 8.750000000000545
    vertex 909.3925675558097 1553.6143497548696 5.750000000000545
    vertex 909.3925675558097 1553.6143497548696 8.750000000000545
  endloop
endfacet
facet normal -0.9659258262890995 0.25881904510240467 0.0
  outer loop
    vertex 909.3925675558097 1553.6143497548696 5.750000000000545
    vertex 909.4607159032315 1554.1319878450747 8.750000000000545
    vertex 909.4607159032315 1554.1319878450747 5.750000000000545
  endloop
endfacet
facet normal -0.4999999999998457 -0.8660254037845279 0.0
  outer loop
    vertex 908.4607159032312 1555.8640386526438 8.750000000000545
    vertex 907.9783539934364 1556.0638394976527 5.750000000000545
    vertex 908.4607159032312 1555.8640386526438 5.750000000000545
  endloop
endfacet
facet normal -0.2588190451023529 -0.9659258262891134 0.0
  outer loop
    vertex 907.9783539934364 1556.0638394976527 5.750000000000545
    vertex 908.4607159032312 1555.8640386526438 8.750000000000545
    vertex 907.9783539934364 1556.0638394976527 8.750000000000545
  endloop
endfacet
facet normal -0.8660254037844726 0.4999999999999414 0.0
  outer loop
    vertex 909.1927667108004 1553.1319878450745 8.750000000000545
    vertex 908.8749294656049 1552.7177742827016 5.750000000000545
    vertex 908.8749294656049 1552.7177742827016 8.750000000000545
  endloop
endfacet
facet normal -0.7071067811865503 0.7071067811865447 0.0
  outer loop
    vertex 908.8749294656049 1552.7177742827016 5.750000000000545
    vertex 909.1927667108004 1553.1319878450745 8.750000000000545
    vertex 909.1927667108004 1553.1319878450745 5.750000000000545
  endloop
endfacet
facet normal -0.7071067811865483 -0.7071067811865467 0.0
  outer loop
    vertex 908.8749294656044 1555.5462014074478 8.750000000000545
    vertex 909.1927667108002 1555.1319878450747 5.750000000000545
    vertex 909.1927667108002 1555.1319878450747 8.750000000000545
  endloop
endfacet
facet normal -0.8660254037844181 -0.5000000000000361 0.0
  outer loop
    vertex 909.1927667108002 1555.1319878450747 5.750000000000545
    vertex 908.8749294656044 1555.5462014074478 8.750000000000545
    vertex 908.8749294656044 1555.5462014074478 5.750000000000545
  endloop
endfacet
facet normal -0.7071067811865483 -0.7071067811865467 0.0
  outer loop
    vertex 908.8749294656044 1555.5462014074478 8.750000000000545
    vertex 908.4607159032312 1555.8640386526438 5.750000000000545
    vertex 908.8749294656044 1555.5462014074478 5.750000000000545
  endloop
endfacet
facet normal -0.4999999999998457 -0.8660254037845279 0.0
  outer loop
    vertex 908.4607159032312 1555.8640386526438 5.750000000000545
    vertex 908.8749294656044 1555.5462014074478 8.750000000000545
    vertex 908.4607159032312 1555.8640386526438 8.750000000000545
  endloop
endfacet
facet normal -0.2588190451023529 -0.9659258262891134 0.0
  outer loop
    vertex 907.9783539934364 1556.0638394976527 8.750000000000545
    vertex 907.4607159032313 1556.1319878450747 5.750000000000545
    vertex 907.9783539934364 1556.0638394976527 5.750000000000545
  endloop
endfacet
facet normal 0.0 -1.0 0.0
  outer loop
    vertex 907.4607159032313 1556.1319878450747 5.750000000000545
    vertex 907.9783539934364 1556.0638394976527 8.750000000000545
    vertex 907.4607159032313 1556.1319878450747 8.750000000000545
  endloop
endfacet
facet normal 0.0 -1.0 0.0
  outer loop
    vertex 907.4607159032313 1556.1319878450747 8.750000000000545
    vertex 906.9430778130262 1556.0638394976527 5.750000000000545
    vertex 907.4607159032313 1556.1319878450747 5.750000000000545
  endloop
endfacet
facet normal 0.2588190451026774 -0.9659258262890263 0.0
  outer loop
    vertex 906.9430778130262 1556.0638394976527 5.750000000000545
    vertex 907.4607159032313 1556.1319878450747 8.750000000000545
    vertex 906.9430778130262 1556.0638394976527 8.750000000000545
  endloop
endfacet
facet normal -0.9659258262890995 0.25881904510240467 0.0
  outer loop
    vertex 909.3925675558097 1553.6143497548696 8.750000000000545
    vertex 909.1927667108004 1553.1319878450745 5.750000000000545
    vertex 909.1927667108004 1553.1319878450745 8.750000000000545
  endloop
endfacet
facet normal -0.8660254037844726 0.4999999999999414 0.0
  outer loop
    vertex 909.1927667108004 1553.1319878450745 5.750000000000545
    vertex 909.3925675558097 1553.6143497548696 8.750000000000545
    vertex 909.3925675558097 1553.6143497548696 5.750000000000545
  endloop
endfacet
facet normal 0.8660254037844726 -0.4999999999999414 0.0
  outer loop
    vertex 905.7286650956623 1555.1319878450745 5.750000000000545
    vertex 905.5288642506532 1554.6496259352793 8.750000000000545
    vertex 905.5288642506532 1554.6496259352793 5.750000000000545
  endloop
endfacet
facet normal 0.9659258262890995 -0.25881904510240467 0.0
  outer loop
    vertex 905.5288642506532 1554.6496259352793 8.750000000000545
    vertex 905.7286650956623 1555.1319878450745 5.750000000000545
    vertex 905.7286650956623 1555.1319878450745 8.750000000000545
  endloop
endfacet
facet normal 0.965925826289034 0.25881904510264914 0.0
  outer loop
    vertex 905.5288642506532 1553.6143497548692 5.750000000000545
    vertex 905.7286650956624 1553.1319878450745 8.750000000000545
    vertex 905.7286650956624 1553.1319878450745 5.750000000000545
  endloop
endfacet
facet normal 0.8660254037844181 0.5000000000000361 0.0
  outer loop
    vertex 905.7286650956624 1553.1319878450745 8.750000000000545
    vertex 905.5288642506532 1553.6143497548692 5.750000000000545
    vertex 905.5288642506532 1553.6143497548692 8.750000000000545
  endloop
endfacet
facet normal 0.7071067811865503 -0.7071067811865447 0.0
  outer loop
    vertex 906.0465023408581 1555.5462014074476 5.750000000000545
    vertex 905.7286650956623 1555.1319878450745 8.750000000000545
    vertex 905.7286650956623 1555.1319878450745 5.750000000000545
  endloop
endfacet
facet normal 0.8660254037844726 -0.4999999999999414 0.0
  outer loop
    vertex 905.7286650956623 1555.1319878450745 8.750000000000545
    vertex 906.0465023408581 1555.5462014074476 5.750000000000545
    vertex 906.0465023408581 1555.5462014074476 8.750000000000545
  endloop
endfacet
facet normal 0.5000000000001709 -0.8660254037843402 0.0
  outer loop
    vertex 906.4607159032312 1555.8640386526433 8.750000000000545
    vertex 906.0465023408581 1555.5462014074476 5.750000000000545
    vertex 906.4607159032312 1555.8640386526433 5.750000000000545
  endloop
endfacet
facet normal 0.7071067811865503 -0.7071067811865447 0.0
  outer loop
    vertex 906.0465023408581 1555.5462014074476 5.750000000000545
    vertex 906.4607159032312 1555.8640386526433 8.750000000000545
    vertex 906.0465023408581 1555.5462014074476 8.750000000000545
  endloop
endfacet
facet normal 0.9659258262890995 -0.25881904510240467 0.0
  outer loop
    vertex 905.5288642506532 1554.6496259352793 5.750000000000545
    vertex 905.4607159032314 1554.1319878450743 8.750000000000545
    vertex 905.4607159032314 1554.1319878450743 5.750000000000545
  endloop
endfacet
facet normal 1.0 1.0708480761598875e-13 0.0
  outer loop
    vertex 905.4607159032314 1554.1319878450743 8.750000000000545
    vertex 905.5288642506532 1554.6496259352793 5.750000000000545
    vertex 905.5288642506532 1554.6496259352793 8.750000000000545
  endloop
endfacet
facet normal 0.2588190451026774 -0.9659258262890263 0.0
  outer loop
    vertex 906.9430778130262 1556.0638394976527 8.750000000000545
    vertex 906.4607159032312 1555.8640386526433 5.750000000000545
    vertex 906.9430778130262 1556.0638394976527 5.750000000000545
  endloop
endfacet
facet normal 0.5000000000001709 -0.8660254037843402 0.0
  outer loop
    vertex 906.4607159032312 1555.8640386526433 5.750000000000545
    vertex 906.9430778130262 1556.0638394976527 8.750000000000545
    vertex 906.4607159032312 1555.8640386526433 8.750000000000545
  endloop
endfacet
facet normal 1.0 1.0708480761598875e-13 0.0
  outer loop
    vertex 905.4607159032314 1554.1319878450743 5.750000000000545
    vertex 905.5288642506532 1553.6143497548692 8.750000000000545
    vertex 905.5288642506532 1553.6143497548692 5.750000000000545
  endloop
endfacet
facet normal 0.965925826289034 0.25881904510264914 0.0
  outer loop
    vertex 905.5288642506532 1553.6143497548692 8.750000000000545
    vertex 905.4607159032314 1554.1319878450743 5.750000000000545
    vertex 905.4607159032314 1554.1319878450743 8.750000000000545
  endloop
endfacet
facet normal -0.9998713137071823 0.016042319828312068 0.0
  outer loop
    vertex 905.9587584864004 1552.0647208112302 8.750000000000545
    vertex 905.9156309313566 1549.3767052635988 5.750000000000545
    vertex 905.9156309313566 1549.3767052635988 8.750000000000545
  endloop
endfacet
facet normal -0.9998713137071823 0.016042319828312068 0.0
  outer loop
    vertex 905.9156309313566 1549.3767052635988 5.750000000000545
    vertex 905.9587584864004 1552.0647208112302 8.750000000000545
    vertex 905.9587584864004 1552.0647208112302 5.750000000000545
  endloop
endfacet
facet normal -0.293720075314311 0.9558914778139596 0.0
  outer loop
    vertex 902.4607159032315 1554.1319878450745 8.750000000000545
    vertex 905.0304977531435 1554.9216135881804 5.750000000000545
    vertex 902.4607159032315 1554.1319878450745 5.750000000000545
  endloop
endfacet
facet normal -0.293720075314311 0.9558914778139596 0.0
  outer loop
    vertex 905.0304977531435 1554.9216135881804 5.750000000000545
    vertex 902.4607159032315 1554.1319878450745 8.750000000000545
    vertex 905.0304977531435 1554.9216135881804 8.750000000000545
  endloop
endfacet
facet normal 0.8183423239846382 -0.5747311030172472 0.0
  outer loop
    vertex 907.4607159032316 1551.5767052635988 5.750000000000545
    vertex 905.9156309313566 1549.3767052635988 8.750000000000545
    vertex 905.9156309313566 1549.3767052635988 5.750000000000545
  endloop
endfacet
facet normal 0.8183423239846382 -0.5747311030172472 0.0
  outer loop
    vertex 905.9156309313566 1549.3767052635988 8.750000000000545
    vertex 907.4607159032316 1551.5767052635988 5.750000000000545
    vertex 907.4607159032316 1551.5767052635988 8.750000000000545
  endloop
endfacet
facet normal -0.293720075314495 -0.9558914778139032 -0.0
  outer loop
    vertex 905.0304977531435 1553.342362101968 8.750000000000545
    vertex 902.4607159032315 1554.1319878450745 5.750000000000545
    vertex 905.0304977531435 1553.342362101968 5.750000000000545
  endloop
endfacet
facet normal -0.293720075314495 -0.9558914778139032 -0.0
  outer loop
    vertex 902.4607159032315 1554.1319878450745 5.750000000000545
    vertex 905.0304977531435 1553.342362101968 8.750000000000545
    vertex 902.4607159032315 1554.1319878450745 8.750000000000545
  endloop
endfacet
facet normal 0.32423438093256696 -0.9459767789017207 0.0
  outer loop
    vertex 905.9587584864004 1552.0647208112302 8.750000000000545
    vertex 903.4156309313568 1551.1930615836122 5.750000000000545
    vertex 905.9587584864004 1552.0647208112302 5.750000000000545
  endloop
endfacet
facet normal 0.32423438093256696 -0.9459767789017207 0.0
  outer loop
    vertex 903.4156309313568 1551.1930615836122 5.750000000000545
    vertex 905.9587584864004 1552.0647208112302 8.750000000000545
    vertex 903.4156309313568 1551.1930615836122 8.750000000000545
  endloop
endfacet
facet normal -0.7994834459695048 0.6006881217576437 0.0
  outer loop
    vertex 905.0304977531435 1553.342362101968 8.750000000000545
    vertex 903.4156309313568 1551.1930615836122 5.750000000000545
    vertex 903.4156309313568 1551.1930615836122 8.750000000000545
  endloop
endfacet
facet normal -0.7994834459695048 0.6006881217576437 0.0
  outer loop
    vertex 903.4156309313568 1551.1930615836122 5.750000000000545
    vertex 905.0304977531435 1553.342362101968 8.750000000000545
    vertex 905.0304977531435 1553.342362101968 5.750000000000545
  endloop
endfacet
facet normal 0.0 0.0 1.0
  outer loop
    vertex 905.0304977531435 1554.9216135881804 8.750000000000545
    vertex 905.9587584863999 1556.1992548789185 8.750000000000545
    vertex 903.4156309313568 1557.070914106537 8.750000000000545
  endloop
endfacet
facet normal 0.0 0.0 1.0
  outer loop
    vertex 905.9587584863999 1556.1992548789185 8.750000000000545
    vertex 905.0304977531435 1554.9216135881804 8.750000000000545
    vertex 905.5288642506532 1554.6496259352793 8.750000000000545
  endloop
endfacet
facet normal 0.0 0.0 1.0
  outer loop
    vertex 905.5288642506532 1554.6496259352793 8.750000000000545
    vertex 905.0304977531435 1554.9216135881804 8.750000000000545
    vertex 905.4607159032314 1554.1319878450743 8.750000000000545
  endloop
endfacet
facet normal 0.0 0.0 1.0
  outer loop
    vertex 905.9587584863999 1556.1992548789185 8.750000000000545
    vertex 905.5288642506532 1554.6496259352793 8.750000000000545
    vertex 905.7286650956623 1555.1319878450745 8.750000000000545
  endloop
endfacet
facet normal 0.0 0.0 1.0
  outer loop
    vertex 905.9587584863999 1556.1992548789185 8.750000000000545
    vertex 905.7286650956623 1555.1319878450745 8.750000000000545
    vertex 906.0465023408581 1555.5462014074476 8.750000000000545
  endloop
endfacet
facet normal 0.0 0.0 1.0
  outer loop
    vertex 905.9587584863999 1556.1992548789185 8.750000000000545
    vertex 907.4607159032313 1556.6872704265504 8.750000000000545
    vertex 905.9156309313566 1558.8872704265502 8.750000000000545
  endloop
endfacet
facet normal 0.0 0.0 1.0
  outer loop
    vertex 907.4607159032313 1556.6872704265504 8.750000000000545
    vertex 905.9587584863999 1556.1992548789185 8.750000000000545
    vertex 906.0465023408581 1555.5462014074476 8.750000000000545
  endloop
endfacet
facet normal 0.0 0.0 1.0
  outer loop
    vertex 907.4607159032313 1556.6872704265504 8.750000000000545
    vertex 906.0465023408581 1555.5462014074476 8.750000000000545
    vertex 906.4607159032312 1555.8640386526433 8.750000000000545
  endloop
endfacet
facet normal 0.0 0.0 1.0
  outer loop
    vertex 907.4607159032313 1556.6872704265504 8.750000000000545
    vertex 906.4607159032312 1555.8640386526433 8.750000000000545
    vertex 906.9430778130262 1556.0638394976527 8.750000000000545
  endloop
endfacet
facet normal 0.0 0.0 1.0
  outer loop
    vertex 907.4607159032313 1556.6872704265504 8.750000000000545
    vertex 906.9430778130262 1556.0638394976527 8.750000000000545
    vertex 907.4607159032313 1556.1319878450747 8.750000000000545
  endloop
endfacet
facet normal 0.0 0.0 1.0
  outer loop
    vertex 907.4607159032313 1556.6872704265504 8.750000000000545
    vertex 907.4607159032313 1556.1319878450747 8.750000000000545
    vertex 909.0058008751062 1558.8872704265502 8.750000000000545
  endloop
endfacet
facet normal 0.0 0.0 1.0
  outer loop
    vertex 909.0058008751062 1558.8872704265502 8.750000000000545
    vertex 907.4607159032313 1556.1319878450747 8.750000000000545
    vertex 907.9783539934364 1556.0638394976527 8.750000000000545
  endloop
endfacet
facet normal 0.0 0.0 1.0
  outer loop
    vertex 909.0058008751062 1558.8872704265502 8.750000000000545
    vertex 907.9783539934364 1556.0638394976527 8.750000000000545
    vertex 908.4607159032312 1555.8640386526438 8.750000000000545
  endloop
endfacet
facet normal 0.0 0.0 1.0
  outer loop
    vertex 909.0058008751062 1558.8872704265502 8.750000000000545
    vertex 908.4607159032312 1555.8640386526438 8.750000000000545
    vertex 908.8749294656044 1555.5462014074478 8.750000000000545
  endloop
endfacet
facet normal 0.0 0.0 1.0
  outer loop
    vertex 909.0058008751062 1558.8872704265502 8.750000000000545
    vertex 908.8749294656044 1555.5462014074478 8.750000000000545
    vertex 908.9626733200624 1556.1992548789185 8.750000000000545
  endloop
endfacet
facet normal 0.0 0.0 1.0
  outer loop
    vertex 905.9587584864004 1552.0647208112302 8.750000000000545
    vertex 905.0304977531435 1553.342362101968 8.750000000000545
    vertex 903.4156309313568 1551.1930615836122 8.750000000000545
  endloop
endfacet
facet normal 0.0 0.0 1.0
  outer loop
    vertex 905.0304977531435 1553.342362101968 8.750000000000545
    vertex 905.9587584864004 1552.0647208112302 8.750000000000545
    vertex 905.0304977531435 1554.9216135881804 8.750000000000545
  endloop
endfacet
facet normal 0.0 0.0 1.0
  outer loop
    vertex 905.0304977531435 1554.9216135881804 8.750000000000545
    vertex 905.9587584864004 1552.0647208112302 8.750000000000545
    vertex 905.5288642506532 1553.6143497548692 8.750000000000545
  endloop
endfacet
facet normal 0.0 0.0 1.0
  outer loop
    vertex 905.0304977531435 1554.9216135881804 8.750000000000545
    vertex 905.5288642506532 1553.6143497548692 8.750000000000545
    vertex 905.4607159032314 1554.1319878450743 8.750000000000545
  endloop
endfacet
facet normal 0.0 0.0 1.0
  outer loop
    vertex 905.5288642506532 1553.6143497548692 8.750000000000545
    vertex 905.9587584864004 1552.0647208112302 8.750000000000545
    vertex 905.7286650956624 1553.1319878450745 8.750000000000545
  endloop
endfacet
facet normal 0.0 0.0 1.0
  outer loop
    vertex 905.7286650956624 1553.1319878450745 8.750000000000545
    vertex 905.9587584864004 1552.0647208112302 8.750000000000545
    vertex 906.0465023408584 1552.7177742827012 8.750000000000545
  endloop
endfacet
facet normal 0.0 0.0 1.0
  outer loop
    vertex 905.0304977531435 1554.9216135881804 8.750000000000545
    vertex 902.4607159032315 1554.1319878450745 8.750000000000545
    vertex 905.0304977531435 1553.342362101968 8.750000000000545
  endloop
endfacet
facet normal 0.0 0.0 1.0
  outer loop
    vertex 907.4607159032316 1551.5767052635988 8.750000000000545
    vertex 905.9587584864004 1552.0647208112302 8.750000000000545
    vertex 905.9156309313566 1549.3767052635988 8.750000000000545
  endloop
endfacet
facet normal 0.0 0.0 1.0
  outer loop
    vertex 905.9587584864004 1552.0647208112302 8.750000000000545
    vertex 907.4607159032316 1551.5767052635988 8.750000000000545
    vertex 906.0465023408584 1552.7177742827012 8.750000000000545
  endloop
endfacet
facet normal 0.0 0.0 1.0
  outer loop
    vertex 906.0465023408584 1552.7177742827012 8.750000000000545
    vertex 907.4607159032316 1551.5767052635988 8.750000000000545
    vertex 906.4607159032315 1552.3999370375054 8.750000000000545
  endloop
endfacet
facet normal 0.0 0.0 1.0
  outer loop
    vertex 906.4607159032315 1552.3999370375054 8.750000000000545
    vertex 907.4607159032316 1551.5767052635988 8.750000000000545
    vertex 906.9430778130265 1552.2001361924963 8.750000000000545
  endloop
endfacet
facet normal 0.0 0.0 1.0
  outer loop
    vertex 906.9430778130265 1552.2001361924963 8.750000000000545
    vertex 907.4607159032316 1551.5767052635988 8.750000000000545
    vertex 907.4607159032316 1552.1319878450745 8.750000000000545
  endloop
endfacet
facet normal 0.0 0.0 1.0
  outer loop
    vertex 907.4607159032316 1552.1319878450745 8.750000000000545
    vertex 907.4607159032316 1551.5767052635988 8.750000000000545
    vertex 907.9783539934367 1552.2001361924963 8.750000000000545
  endloop
endfacet
facet normal 0.0 0.0 1.0
  outer loop
    vertex 907.9783539934367 1552.2001361924963 8.750000000000545
    vertex 907.4607159032316 1551.5767052635988 8.750000000000545
    vertex 909.0058008751062 1549.3767052635988 8.750000000000545
  endloop
endfacet
facet normal 0.0 0.0 1.0
  outer loop
    vertex 907.9783539934367 1552.2001361924963 8.750000000000545
    vertex 909.0058008751062 1549.3767052635988 8.750000000000545
    vertex 908.4607159032316 1552.3999370375057 8.750000000000545
  endloop
endfacet
facet normal 0.0 0.0 1.0
  outer loop
    vertex 908.4607159032316 1552.3999370375057 8.750000000000545
    vertex 909.0058008751062 1549.3767052635988 8.750000000000545
    vertex 908.8749294656049 1552.7177742827016 8.750000000000545
  endloop
endfacet
facet normal 0.0 0.0 1.0
  outer loop
    vertex 908.8749294656049 1552.7177742827016 8.750000000000545
    vertex 909.0058008751062 1549.3767052635988 8.750000000000545
    vertex 908.962673320063 1552.0647208112305 8.750000000000545
  endloop
endfacet
facet normal 0.0 0.0 1.0
  outer loop
    vertex 908.962673320063 1552.0647208112305 8.750000000000545
    vertex 909.1927667108004 1553.1319878450745 8.750000000000545
    vertex 908.8749294656049 1552.7177742827016 8.750000000000545
  endloop
endfacet
facet normal 0.0 0.0 1.0
  outer loop
    vertex 909.1927667108004 1553.1319878450745 8.750000000000545
    vertex 908.962673320063 1552.0647208112305 8.750000000000545
    vertex 911.5058008751062 1551.1930615836122 8.750000000000545
  endloop
endfacet
facet normal 0.0 0.0 1.0
  outer loop
    vertex 909.1927667108004 1553.1319878450745 8.750000000000545
    vertex 911.5058008751062 1551.1930615836122 8.750000000000545
    vertex 909.3925675558097 1553.6143497548696 8.750000000000545
  endloop
endfacet
facet normal 0.0 0.0 1.0
  outer loop
    vertex 909.3925675558097 1553.6143497548696 8.750000000000545
    vertex 911.5058008751062 1551.1930615836122 8.750000000000545
    vertex 909.8909340533196 1553.3423621019685 8.750000000000545
  endloop
endfacet
facet normal 0.0 0.0 1.0
  outer loop
    vertex 909.3925675558097 1553.6143497548696 8.750000000000545
    vertex 909.8909340533196 1553.3423621019685 8.750000000000545
    vertex 909.4607159032315 1554.1319878450747 8.750000000000545
  endloop
endfacet
facet normal 0.0 0.0 1.0
  outer loop
    vertex 909.4607159032315 1554.1319878450747 8.750000000000545
    vertex 909.8909340533196 1553.3423621019685 8.750000000000545
    vertex 909.8909340533194 1554.9216135881811 8.750000000000545
  endloop
endfacet
facet normal 0.0 0.0 1.0
  outer loop
    vertex 912.4607159032315 1554.1319878450745 8.750000000000545
    vertex 909.8909340533194 1554.9216135881811 8.750000000000545
    vertex 909.8909340533196 1553.3423621019685 8.750000000000545
  endloop
endfacet
facet normal 0.0 0.0 1.0
  outer loop
    vertex 909.1927667108002 1555.1319878450747 8.750000000000545
    vertex 908.9626733200624 1556.1992548789185 8.750000000000545
    vertex 908.8749294656044 1555.5462014074478 8.750000000000545
  endloop
endfacet
facet normal 0.0 0.0 1.0
  outer loop
    vertex 908.9626733200624 1556.1992548789185 8.750000000000545
    vertex 909.1927667108002 1555.1319878450747 8.750000000000545
    vertex 911.5058008751062 1557.070914106537 8.750000000000545
  endloop
endfacet
facet normal 0.0 0.0 1.0
  outer loop
    vertex 911.5058008751062 1557.070914106537 8.750000000000545
    vertex 909.1927667108002 1555.1319878450747 8.750000000000545
    vertex 909.3925675558095 1554.6496259352798 8.750000000000545
  endloop
endfacet
facet normal 0.0 0.0 1.0
  outer loop
    vertex 911.5058008751062 1557.070914106537 8.750000000000545
    vertex 909.3925675558095 1554.6496259352798 8.750000000000545
    vertex 909.8909340533194 1554.9216135881811 8.750000000000545
  endloop
endfacet
facet normal 0.0 0.0 1.0
  outer loop
    vertex 909.8909340533194 1554.9216135881811 8.750000000000545
    vertex 909.3925675558095 1554.6496259352798 8.750000000000545
    vertex 909.4607159032315 1554.1319878450747 8.750000000000545
  endloop
endfacet
facet normal -0.7994834459695775 -0.600688121757547 -0.0
  outer loop
    vertex 903.4156309313568 1557.070914106537 8.750000000000545
    vertex 905.0304977531435 1554.9216135881804 5.750000000000545
    vertex 905.0304977531435 1554.9216135881804 8.750000000000545
  endloop
endfacet
facet normal -0.7994834459695775 -0.600688121757547 -0.0
  outer loop
    vertex 905.0304977531435 1554.9216135881804 5.750000000000545
    vertex 903.4156309313568 1557.070914106537 8.750000000000545
    vertex 903.4156309313568 1557.070914106537 5.750000000000545
  endloop
endfacet
facet normal 0.3242343809326966 0.9459767789016764 0.0
  outer loop
    vertex 903.4156309313568 1557.070914106537 8.750000000000545
    vertex 905.9587584863999 1556.1992548789185 5.750000000000545
    vertex 903.4156309313568 1557.070914106537 5.750000000000545
  endloop
endfacet
facet normal 0.3242343809326966 0.9459767789016764 0.0
  outer loop
    vertex 905.9587584863999 1556.1992548789185 5.750000000000545
    vertex 903.4156309313568 1557.070914106537 8.750000000000545
    vertex 905.9587584863999 1556.1992548789185 8.750000000000545
  endloop
endfacet
facet normal -0.9998713137071858 -0.016042319828084475 -0.0
  outer loop
    vertex 905.9156309313566 1558.8872704265502 8.750000000000545
    vertex 905.9587584863999 1556.1992548789185 5.750000000000545
    vertex 905.9587584863999 1556.1992548789185 8.750000000000545
  endloop
endfacet
facet normal -0.9998713137071858 -0.016042319828084475 -0.0
  outer loop
    vertex 905.9587584863999 1556.1992548789185 5.750000000000545
    vertex 905.9156309313566 1558.8872704265502 8.750000000000545
    vertex 905.9156309313566 1558.8872704265502 5.750000000000545
  endloop
endfacet
endsolid Design - Rolled
