solid Design - Rolled
facet normal -1.2351231148954867e-14 -9.15933995315755e-16 -1.0
  outer loop
    vertex 302.13976746321197 351.6014858201908 0.5000000000000919
    vertex 300.66752427677847 354.15148582019077 0.5000000000001077
    vertex 303.61201064964547 354.15148582019077 0.5000000000000714
  endloop
endfacet
facet normal -0.8660254037844394 -0.4999999999999989 1.115444694066646e-14
  outer loop
    vertex 302.13976746321214 351.6014858201908 10.500000000000185
    vertex 300.66752427677847 354.15148582019077 0.5000000000001077
    vertex 302.13976746321197 351.6014858201908 0.5000000000000919
  endloop
endfacet
facet normal -0.8660254037844394 -0.4999999999999989 1.115444694066646e-14
  outer loop
    vertex 300.66752427677847 354.15148582019077 0.5000000000001077
    vertex 302.13976746321214 351.6014858201908 10.500000000000185
    vertex 300.6675242767786 354.15148582019077 10.500000000000203
  endloop
endfacet
facet normal 0.8660254037844394 -0.4999999999999989 -1.0238512945350707e-14
  outer loop
    vertex 303.61201064964564 354.15148582019077 10.500000000000167
    vertex 302.13976746321197 351.6014858201908 0.5000000000000919
    vertex 303.61201064964547 354.15148582019077 0.5000000000000714
  endloop
endfacet
facet normal 0.8660254037844394 -0.4999999999999989 -1.0238512945350707e-14
  outer loop
    vertex 302.13976746321197 351.6014858201908 0.5000000000000919
    vertex 303.61201064964564 354.15148582019077 10.500000000000167
    vertex 302.13976746321214 351.6014858201908 10.500000000000185
  endloop
endfacet
facet normal 0.8660254037844394 -0.4999999999999989 -1.0238512945350707e-14
  outer loop
    vertex 302.13976746321214 351.6014858201908 10.500000000000185
    vertex 303.61201064964564 354.15148582019077 10.500000000000167
    vertex 303.067466388318 353.2083074926013 10.500000000000172
  endloop
endfacet
facet normal 1.3096323621832223e-31 1.0 -9.15933995315755e-16
  outer loop
    vertex 303.61201064964564 354.15148582019077 10.500000000000167
    vertex 300.66752427677847 354.15148582019077 0.5000000000001077
    vertex 300.6675242767786 354.15148582019077 10.500000000000203
  endloop
endfacet
facet normal 1.3096323621832223e-31 1.0 -9.15933995315755e-16
  outer loop
    vertex 300.66752427677847 354.15148582019077 0.5000000000001077
    vertex 303.61201064964564 354.15148582019077 10.500000000000167
    vertex 303.61201064964547 354.15148582019077 0.5000000000000714
  endloop
endfacet
facet normal 1.2351231148954867e-14 9.15933995315755e-16 1.0
  outer loop
    vertex 300.6675242767786 354.15148582019077 10.500000000000203
    vertex 303.067466388318 353.2083074926013 10.500000000000172
    vertex 303.61201064964564 354.15148582019077 10.500000000000167
  endloop
endfacet
facet normal 1.2351231148954867e-14 9.15933995315755e-16 1.0
  outer loop
    vertex 303.067466388318 353.2083074926013 10.500000000000172
    vertex 300.6675242767786 354.15148582019077 10.500000000000203
    vertex 302.13976746321214 351.6014858201908 10.500000000000185
  endloop
endfacet
endsolid Design - Rolled
