solid Design - Rolled
facet normal 5.7859192140426574e-15 -9.505219042229848e-31 -1.0
  outer loop
    vertex 511.6720553431452 1753.502716065251 -9.164891068280667e-15
    vertex 511.6720553431452 1751.5615732269819 -9.164891068280667e-15
    vertex 511.5442771917292 1752.5321446461164 -9.164891068280667e-15
  endloop
endfacet
facet normal 5.7859192140426574e-15 -9.505219042229848e-31 -1.0
  outer loop
    vertex 511.6720553431452 1751.5615732269819 -9.164891068280667e-15
    vertex 511.6720553431452 1753.502716065251 -9.164891068280667e-15
    vertex 512.0466819275376 1754.4071446461162 -9.164891068280667e-15
  endloop
endfacet
facet normal 5.7859192140426574e-15 -9.505219042229848e-31 -1.0
  outer loop
    vertex 511.6720553431452 1751.5615732269819 -9.164891068280667e-15
    vertex 512.0466819275376 1754.4071446461162 -9.164891068280667e-15
    vertex 512.0466819275376 1750.6571446461162 -9.164891068280667e-15
  endloop
endfacet
facet normal 5.7859192140426574e-15 -9.505219042229848e-31 -1.0
  outer loop
    vertex 512.0466819275376 1750.6571446461162 -9.164891068280667e-15
    vertex 512.0466819275376 1754.4071446461162 -9.164891068280667e-15
    vertex 512.6426267622796 1755.1837950755657 -9.164891068280667e-15
  endloop
endfacet
facet normal 5.7859192140426574e-15 -9.505219042229848e-31 -1.0
  outer loop
    vertex 512.0466819275376 1750.6571446461162 -9.164891068280667e-15
    vertex 512.6426267622796 1755.1837950755657 -9.164891068280667e-15
    vertex 512.6426267622796 1749.8804942166666 -9.164891068280667e-15
  endloop
endfacet
facet normal 5.7859192140426574e-15 -9.505219042229848e-31 -1.0
  outer loop
    vertex 512.6426267622796 1749.8804942166666 -9.164891068280667e-15
    vertex 512.6426267622796 1755.1837950755657 -9.164891068280667e-15
    vertex 512.6942771917293 1752.5321446461164 -9.164891068280667e-15
  endloop
endfacet
facet normal 5.7859192140426574e-15 -9.505219042229848e-31 -1.0
  outer loop
    vertex 512.6942771917293 1752.5321446461164 -9.164891068280667e-15
    vertex 512.6426267622796 1755.1837950755657 -9.164891068280667e-15
    vertex 512.7828700433777 1753.205074163383 -9.164891068280667e-15
  endloop
endfacet
facet normal 5.7859192140426574e-15 -9.505219042229848e-31 -1.0
  outer loop
    vertex 512.7828700433777 1753.205074163383 -9.164891068280667e-15
    vertex 512.6426267622796 1755.1837950755657 -9.164891068280667e-15
    vertex 513.4192771917292 1755.7797399103083 -9.164891068280667e-15
  endloop
endfacet
facet normal 5.7859192140426574e-15 -9.505219042229848e-31 -1.0
  outer loop
    vertex 512.7828700433777 1753.205074163383 -9.164891068280667e-15
    vertex 513.4192771917292 1755.7797399103083 -9.164891068280667e-15
    vertex 513.0426111418897 1753.8321446461161 -9.164891068280667e-15
  endloop
endfacet
facet normal 5.7859192140426574e-15 -9.505219042229848e-31 -1.0
  outer loop
    vertex 513.0426111418897 1753.8321446461161 -9.164891068280667e-15
    vertex 513.4192771917292 1755.7797399103083 -9.164891068280667e-15
    vertex 513.4557995606442 1754.3706222772012 9.253015020860289e-15
  endloop
endfacet
facet normal 5.7859192140426574e-15 -9.505219042229848e-31 -1.0
  outer loop
    vertex 513.4557995606442 1754.3706222772012 9.253015020860289e-15
    vertex 513.4192771917292 1755.7797399103083 -9.164891068280667e-15
    vertex 514.3237057725947 1756.1543664947003 9.253015020860289e-15
  endloop
endfacet
facet normal 5.7859192140426574e-15 -9.505219042229848e-31 -1.0
  outer loop
    vertex 513.4557995606442 1754.3706222772012 9.253015020860289e-15
    vertex 514.3237057725947 1756.1543664947003 9.253015020860289e-15
    vertex 513.9942771917292 1754.783810695956 9.253015020860289e-15
  endloop
endfacet
facet normal 5.7859192140426574e-15 -9.505219042229848e-31 -1.0
  outer loop
    vertex 513.9942771917292 1754.783810695956 9.253015020860289e-15
    vertex 514.3237057725947 1756.1543664947003 9.253015020860289e-15
    vertex 514.6213476744628 1755.0435517944677 9.253015020860289e-15
  endloop
endfacet
facet normal 5.7859192140426574e-15 -9.505219042229848e-31 -1.0
  outer loop
    vertex 514.6213476744628 1755.0435517944677 9.253015020860289e-15
    vertex 514.3237057725947 1756.1543664947003 9.253015020860289e-15
    vertex 515.2942771917292 1756.2821446461164 9.253015020860289e-15
  endloop
endfacet
facet normal 5.7859192140426574e-15 -9.505219042229848e-31 -1.0
  outer loop
    vertex 514.6213476744628 1755.0435517944677 9.253015020860289e-15
    vertex 515.2942771917292 1756.2821446461164 9.253015020860289e-15
    vertex 515.2942771917292 1755.1321446461163 9.253015020860289e-15
  endloop
endfacet
facet normal 5.7859192140426574e-15 -9.505219042229848e-31 -1.0
  outer loop
    vertex 515.2942771917292 1755.1321446461163 9.253015020860289e-15
    vertex 515.2942771917292 1756.2821446461164 9.253015020860289e-15
    vertex 516.2648486108636 1756.1543664947003 9.253015020860289e-15
  endloop
endfacet
facet normal 5.7859192140426574e-15 -9.505219042229848e-31 -1.0
  outer loop
    vertex 515.2942771917292 1755.1321446461163 9.253015020860289e-15
    vertex 516.2648486108636 1756.1543664947003 9.253015020860289e-15
    vertex 515.9672067089957 1755.0435517944677 9.253015020860289e-15
  endloop
endfacet
facet normal 5.7859192140426574e-15 -9.505219042229848e-31 -1.0
  outer loop
    vertex 515.9672067089957 1755.0435517944677 9.253015020860289e-15
    vertex 516.2648486108636 1756.1543664947003 9.253015020860289e-15
    vertex 516.5942771917292 1754.783810695956 9.253015020860289e-15
  endloop
endfacet
facet normal 5.7859192140426574e-15 -9.505219042229848e-31 -1.0
  outer loop
    vertex 516.5942771917292 1754.783810695956 9.253015020860289e-15
    vertex 516.2648486108636 1756.1543664947003 9.253015020860289e-15
    vertex 517.1692771917293 1755.7797399103083 2.7626859133711433e-14
  endloop
endfacet
facet normal 5.7859192140426574e-15 -9.505219042229848e-31 -1.0
  outer loop
    vertex 516.5942771917292 1754.783810695956 9.253015020860289e-15
    vertex 517.1692771917293 1755.7797399103083 2.7626859133711433e-14
    vertex 517.1327548228143 1754.3706222772012 9.253015020860289e-15
  endloop
endfacet
facet normal 5.7859192140426574e-15 -9.505219042229848e-31 -1.0
  outer loop
    vertex 517.1327548228143 1754.3706222772012 9.253015020860289e-15
    vertex 517.1692771917293 1755.7797399103083 2.7626859133711433e-14
    vertex 517.5459432415687 1753.8321446461161 2.7626859133711433e-14
  endloop
endfacet
facet normal 5.7859192140426574e-15 -9.505219042229848e-31 -1.0
  outer loop
    vertex 517.5459432415687 1753.8321446461161 2.7626859133711433e-14
    vertex 517.1692771917293 1755.7797399103083 2.7626859133711433e-14
    vertex 517.9459276211788 1755.1837950755657 2.7626859133711433e-14
  endloop
endfacet
facet normal 5.7859192140426574e-15 -9.505219042229848e-31 -1.0
  outer loop
    vertex 517.5459432415687 1753.8321446461161 2.7626859133711433e-14
    vertex 517.9459276211788 1755.1837950755657 2.7626859133711433e-14
    vertex 517.8056843400807 1753.205074163383 2.7626859133711433e-14
  endloop
endfacet
facet normal 5.7859192140426574e-15 -9.505219042229848e-31 -1.0
  outer loop
    vertex 517.8056843400807 1753.205074163383 2.7626859133711433e-14
    vertex 517.9459276211788 1755.1837950755657 2.7626859133711433e-14
    vertex 517.8942771917292 1752.5321446461164 2.7626859133711433e-14
  endloop
endfacet
facet normal 5.7859192140426574e-15 -9.505219042229848e-31 -1.0
  outer loop
    vertex 512.6426267622796 1749.8804942166666 -9.164891068280667e-15
    vertex 512.7828700433777 1751.8592151288497 -9.164891068280667e-15
    vertex 513.4192771917292 1749.2845493819248 -9.164891068280667e-15
  endloop
endfacet
facet normal 5.7859192140426574e-15 -9.505219042229848e-31 -1.0
  outer loop
    vertex 512.7828700433777 1751.8592151288497 -9.164891068280667e-15
    vertex 512.6426267622796 1749.8804942166666 -9.164891068280667e-15
    vertex 512.6942771917293 1752.5321446461164 -9.164891068280667e-15
  endloop
endfacet
facet normal 5.7859192140426574e-15 -9.505219042229848e-31 -1.0
  outer loop
    vertex 513.4192771917292 1749.2845493819248 -9.164891068280667e-15
    vertex 512.7828700433777 1751.8592151288497 -9.164891068280667e-15
    vertex 513.0426111418897 1751.2321446461165 -9.164891068280667e-15
  endloop
endfacet
facet normal 5.7859192140426574e-15 -9.505219042229848e-31 -1.0
  outer loop
    vertex 513.4192771917292 1749.2845493819248 -9.164891068280667e-15
    vertex 513.0426111418897 1751.2321446461165 -9.164891068280667e-15
    vertex 513.4557995606442 1750.6936670150315 9.253015020860289e-15
  endloop
endfacet
facet normal 5.7859192140426574e-15 -9.505219042229848e-31 -1.0
  outer loop
    vertex 513.4192771917292 1749.2845493819248 -9.164891068280667e-15
    vertex 513.4557995606442 1750.6936670150315 9.253015020860289e-15
    vertex 514.3237057725947 1748.9099227975323 9.253015020860289e-15
  endloop
endfacet
facet normal 5.7859192140426574e-15 -9.505219042229848e-31 -1.0
  outer loop
    vertex 514.3237057725947 1748.9099227975323 9.253015020860289e-15
    vertex 513.4557995606442 1750.6936670150315 9.253015020860289e-15
    vertex 513.9942771917292 1750.280478596277 9.253015020860289e-15
  endloop
endfacet
facet normal 5.7859192140426574e-15 -9.505219042229848e-31 -1.0
  outer loop
    vertex 514.3237057725947 1748.9099227975323 9.253015020860289e-15
    vertex 513.9942771917292 1750.280478596277 9.253015020860289e-15
    vertex 514.6213476744628 1750.0207374977647 9.253015020860289e-15
  endloop
endfacet
facet normal 5.7859192140426574e-15 -9.505219042229848e-31 -1.0
  outer loop
    vertex 514.3237057725947 1748.9099227975323 9.253015020860289e-15
    vertex 514.6213476744628 1750.0207374977647 9.253015020860289e-15
    vertex 515.2942771917292 1748.7821446461162 9.253015020860289e-15
  endloop
endfacet
facet normal 5.7859192140426574e-15 -9.505219042229848e-31 -1.0
  outer loop
    vertex 515.2942771917292 1748.7821446461162 9.253015020860289e-15
    vertex 514.6213476744628 1750.0207374977647 9.253015020860289e-15
    vertex 515.2942771917292 1749.9321446461163 9.253015020860289e-15
  endloop
endfacet
facet normal 5.7859192140426574e-15 -9.505219042229848e-31 -1.0
  outer loop
    vertex 515.2942771917292 1748.7821446461162 9.253015020860289e-15
    vertex 515.2942771917292 1749.9321446461163 9.253015020860289e-15
    vertex 515.9672067089957 1750.0207374977647 9.253015020860289e-15
  endloop
endfacet
facet normal 5.7859192140426574e-15 -9.505219042229848e-31 -1.0
  outer loop
    vertex 515.2942771917292 1748.7821446461162 9.253015020860289e-15
    vertex 515.9672067089957 1750.0207374977647 9.253015020860289e-15
    vertex 516.2648486108636 1748.9099227975323 9.253015020860289e-15
  endloop
endfacet
facet normal 5.7859192140426574e-15 -9.505219042229848e-31 -1.0
  outer loop
    vertex 516.2648486108636 1748.9099227975323 9.253015020860289e-15
    vertex 515.9672067089957 1750.0207374977647 9.253015020860289e-15
    vertex 516.5942771917292 1750.280478596277 9.253015020860289e-15
  endloop
endfacet
facet normal 5.7859192140426574e-15 -9.505219042229848e-31 -1.0
  outer loop
    vertex 516.2648486108636 1748.9099227975323 9.253015020860289e-15
    vertex 516.5942771917292 1750.280478596277 9.253015020860289e-15
    vertex 517.1692771917293 1749.2845493819248 2.7626859133711433e-14
  endloop
endfacet
facet normal 5.7859192140426574e-15 -9.505219042229848e-31 -1.0
  outer loop
    vertex 517.1692771917293 1749.2845493819248 2.7626859133711433e-14
    vertex 516.5942771917292 1750.280478596277 9.253015020860289e-15
    vertex 517.1327548228143 1750.6936670150315 9.253015020860289e-15
  endloop
endfacet
facet normal 5.7859192140426574e-15 -9.505219042229848e-31 -1.0
  outer loop
    vertex 517.1692771917293 1749.2845493819248 2.7626859133711433e-14
    vertex 517.1327548228143 1750.6936670150315 9.253015020860289e-15
    vertex 517.5459432415687 1751.232144646116 2.7626859133711433e-14
  endloop
endfacet
facet normal 5.7859192140426574e-15 -9.505219042229848e-31 -1.0
  outer loop
    vertex 517.1692771917293 1749.2845493819248 2.7626859133711433e-14
    vertex 517.5459432415687 1751.232144646116 2.7626859133711433e-14
    vertex 517.9459276211788 1749.8804942166666 2.7626859133711433e-14
  endloop
endfacet
facet normal 5.7859192140426574e-15 -9.505219042229848e-31 -1.0
  outer loop
    vertex 517.9459276211788 1749.8804942166666 2.7626859133711433e-14
    vertex 517.5459432415687 1751.232144646116 2.7626859133711433e-14
    vertex 517.8056843400807 1751.8592151288497 2.7626859133711433e-14
  endloop
endfacet
facet normal 5.7859192140426574e-15 -9.505219042229848e-31 -1.0
  outer loop
    vertex 517.9459276211788 1749.8804942166666 2.7626859133711433e-14
    vertex 517.8056843400807 1751.8592151288497 2.7626859133711433e-14
    vertex 517.8942771917292 1752.5321446461164 2.7626859133711433e-14
  endloop
endfacet
facet normal 5.7859192140426574e-15 -9.505219042229848e-31 -1.0
  outer loop
    vertex 517.9459276211788 1749.8804942166666 2.7626859133711433e-14
    vertex 517.8942771917292 1752.5321446461164 2.7626859133711433e-14
    vertex 517.9459276211788 1755.1837950755657 2.7626859133711433e-14
  endloop
endfacet
facet normal 5.7859192140426574e-15 -9.505219042229848e-31 -1.0
  outer loop
    vertex 517.9459276211788 1749.8804942166666 2.7626859133711433e-14
    vertex 517.9459276211788 1755.1837950755657 2.7626859133711433e-14
    vertex 518.5418724559208 1754.4071446461164 2.7626859133711433e-14
  endloop
endfacet
facet normal 5.7859192140426574e-15 -9.505219042229848e-31 -1.0
  outer loop
    vertex 517.9459276211788 1749.8804942166666 2.7626859133711433e-14
    vertex 518.5418724559208 1754.4071446461164 2.7626859133711433e-14
    vertex 518.5418724559208 1750.6571446461162 2.7626859133711433e-14
  endloop
endfacet
facet normal 5.7859192140426574e-15 -9.505219042229848e-31 -1.0
  outer loop
    vertex 518.5418724559208 1750.6571446461162 2.7626859133711433e-14
    vertex 518.5418724559208 1754.4071446461164 2.7626859133711433e-14
    vertex 518.9164990403133 1753.502716065251 2.7626859133711433e-14
  endloop
endfacet
facet normal 5.7859192140426574e-15 -9.505219042229848e-31 -1.0
  outer loop
    vertex 518.5418724559208 1750.6571446461162 2.7626859133711433e-14
    vertex 518.9164990403133 1753.502716065251 2.7626859133711433e-14
    vertex 518.9164990403133 1751.5615732269819 2.7626859133711433e-14
  endloop
endfacet
facet normal 5.7859192140426574e-15 -9.505219042229848e-31 -1.0
  outer loop
    vertex 518.9164990403133 1751.5615732269819 2.7626859133711433e-14
    vertex 518.9164990403133 1753.502716065251 2.7626859133711433e-14
    vertex 519.0442771917293 1752.5321446461164 2.7626859133711433e-14
  endloop
endfacet
facet normal -0.7071067811865863 0.7071067811865087 -6.15532263484311e-15
  outer loop
    vertex 512.6426267622796 1755.1837950755657 1.9999999999999503
    vertex 512.0466819275376 1754.4071446461162 -9.164891068280667e-15
    vertex 512.0466819275376 1754.4071446461162 1.9999999999999503
  endloop
endfacet
facet normal -0.8660254037844243 0.5000000000000251 -7.538699828784125e-15
  outer loop
    vertex 512.0466819275376 1754.4071446461162 -9.164891068280667e-15
    vertex 512.6426267622796 1755.1837950755657 1.9999999999999503
    vertex 512.6426267622796 1755.1837950755657 -9.164891068280667e-15
  endloop
endfacet
facet normal -0.7071067811865863 0.7071067811865087 -6.15532263484311e-15
  outer loop
    vertex 512.6426267622796 1755.1837950755657 1.9999999999999503
    vertex 513.4192771917292 1755.7797399103083 -9.164891068280667e-15
    vertex 512.6426267622796 1755.1837950755657 -9.164891068280667e-15
  endloop
endfacet
facet normal -0.5000000000000244 0.8660254037844246 -4.352470375488585e-15
  outer loop
    vertex 513.4192771917292 1755.7797399103083 -9.164891068280667e-15
    vertex 512.6426267622796 1755.1837950755657 1.9999999999999503
    vertex 513.4192771917292 1755.7797399103083 1.9999999999999503
  endloop
endfacet
facet normal -0.25881904510250187 0.9659258262890733 -2.253004452841658e-15
  outer loop
    vertex 514.3237057725947 1756.1543664947003 1.9999999999999503
    vertex 515.2942771917292 1756.2821446461164 9.253015020860289e-15
    vertex 514.3237057725947 1756.1543664947003 9.253015020860289e-15
  endloop
endfacet
facet normal 0.0 1.0 -1.475612519843653e-30
  outer loop
    vertex 515.2942771917292 1756.2821446461164 9.253015020860289e-15
    vertex 514.3237057725947 1756.1543664947003 1.9999999999999503
    vertex 515.2942771917292 1756.2821446461164 1.9999999999999503
  endloop
endfacet
facet normal -0.9659258262890695 -0.25881904510251663 -8.408327087684604e-15
  outer loop
    vertex 511.6720553431452 1751.5615732269819 1.9999999999999503
    vertex 512.0466819275376 1750.6571446461162 -9.164891068280667e-15
    vertex 512.0466819275376 1750.6571446461162 1.9999999999999503
  endloop
endfacet
facet normal -0.866025403784414 -0.5000000000000432 -7.538699828784033e-15
  outer loop
    vertex 512.0466819275376 1750.6571446461162 -9.164891068280667e-15
    vertex 511.6720553431452 1751.5615732269819 1.9999999999999503
    vertex 511.6720553431452 1751.5615732269819 -9.164891068280667e-15
  endloop
endfacet
facet normal -0.5000000000000235 -0.8660254037844252 -4.352470375488576e-15
  outer loop
    vertex 513.4192771917292 1749.2845493819248 1.9999999999999503
    vertex 512.6426267622796 1749.8804942166666 -9.164891068280667e-15
    vertex 513.4192771917292 1749.2845493819248 -9.164891068280667e-15
  endloop
endfacet
facet normal -0.7071067811865467 -0.7071067811865483 -6.1553226348427646e-15
  outer loop
    vertex 512.6426267622796 1749.8804942166666 -9.164891068280667e-15
    vertex 513.4192771917292 1749.2845493819248 1.9999999999999503
    vertex 512.6426267622796 1749.8804942166666 1.9999999999999503
  endloop
endfacet
facet normal -0.5000000000000235 0.8660254037844252 -4.352470375488578e-15
  outer loop
    vertex 513.4192771917292 1755.7797399103083 1.9999999999999503
    vertex 514.3237057725947 1756.1543664947003 9.253015020860289e-15
    vertex 513.4192771917292 1755.7797399103083 -9.164891068280667e-15
  endloop
endfacet
facet normal -0.2588190451025028 0.9659258262890731 -2.253004452841666e-15
  outer loop
    vertex 514.3237057725947 1756.1543664947003 9.253015020860289e-15
    vertex 513.4192771917292 1755.7797399103083 1.9999999999999503
    vertex 514.3237057725947 1756.1543664947003 1.9999999999999503
  endloop
endfacet
facet normal 0.0 1.0 -1.475612519843653e-30
  outer loop
    vertex 515.2942771917292 1756.2821446461164 1.9999999999999503
    vertex 516.2648486108636 1756.1543664947003 9.253015020860289e-15
    vertex 515.2942771917292 1756.2821446461164 9.253015020860289e-15
  endloop
endfacet
facet normal 0.258819045102501 0.9659258262890738 2.253004452841648e-15
  outer loop
    vertex 516.2648486108636 1756.1543664947003 9.253015020860289e-15
    vertex 515.2942771917292 1756.2821446461164 1.9999999999999503
    vertex 516.2648486108636 1756.1543664947003 1.9999999999999503
  endloop
endfacet
facet normal 0.25881904510250375 0.9659258262890729 2.2530044528416715e-15
  outer loop
    vertex 516.2648486108636 1756.1543664947003 1.9999999999999503
    vertex 517.1692771917293 1755.7797399103083 2.7626859133711433e-14
    vertex 516.2648486108636 1756.1543664947003 9.253015020860289e-15
  endloop
endfacet
facet normal 0.5000000000000228 0.8660254037844256 4.352470375488569e-15
  outer loop
    vertex 517.1692771917293 1755.7797399103083 2.7626859133711433e-14
    vertex 516.2648486108636 1756.1543664947003 1.9999999999999503
    vertex 517.1692771917293 1755.7797399103083 1.999999999999987
  endloop
endfacet
facet normal 0.5000000000000253 0.8660254037844242 4.3524703754885915e-15
  outer loop
    vertex 517.1692771917293 1755.7797399103083 1.999999999999987
    vertex 517.9459276211788 1755.1837950755657 2.7626859133711433e-14
    vertex 517.1692771917293 1755.7797399103083 2.7626859133711433e-14
  endloop
endfacet
facet normal 0.7071067811865467 0.7071067811865483 6.1553226348427646e-15
  outer loop
    vertex 517.9459276211788 1755.1837950755657 2.7626859133711433e-14
    vertex 517.1692771917293 1755.7797399103083 1.999999999999987
    vertex 517.9459276211788 1755.1837950755657 1.999999999999987
  endloop
endfacet
facet normal -1.0 0.0 -8.704940750976743e-15
  outer loop
    vertex 511.5442771917292 1752.5321446461164 1.9999999999999503
    vertex 511.6720553431452 1751.5615732269819 -9.164891068280667e-15
    vertex 511.6720553431452 1751.5615732269819 1.9999999999999503
  endloop
endfacet
facet normal -0.9659258262890695 -0.25881904510251663 -8.408327087684604e-15
  outer loop
    vertex 511.6720553431452 1751.5615732269819 -9.164891068280667e-15
    vertex 511.5442771917292 1752.5321446461164 1.9999999999999503
    vertex 511.5442771917292 1752.5321446461164 -9.164891068280667e-15
  endloop
endfacet
facet normal -0.866025403784414 -0.5000000000000432 -7.538699828784033e-15
  outer loop
    vertex 512.0466819275376 1750.6571446461162 1.9999999999999503
    vertex 512.6426267622796 1749.8804942166666 -9.164891068280667e-15
    vertex 512.6426267622796 1749.8804942166666 1.9999999999999503
  endloop
endfacet
facet normal -0.7071067811865467 -0.7071067811865483 -6.1553226348427646e-15
  outer loop
    vertex 512.6426267622796 1749.8804942166666 -9.164891068280667e-15
    vertex 512.0466819275376 1750.6571446461162 1.9999999999999503
    vertex 512.0466819275376 1750.6571446461162 -9.164891068280667e-15
  endloop
endfacet
facet normal 0.7071067811865467 0.7071067811865483 6.1553226348427646e-15
  outer loop
    vertex 517.9459276211788 1755.1837950755657 2.7626859133711433e-14
    vertex 518.5418724559208 1754.4071446461164 1.999999999999987
    vertex 518.5418724559208 1754.4071446461164 2.7626859133711433e-14
  endloop
endfacet
facet normal 0.866025403784414 0.5000000000000432 7.538699828784033e-15
  outer loop
    vertex 518.5418724559208 1754.4071446461164 1.999999999999987
    vertex 517.9459276211788 1755.1837950755657 2.7626859133711433e-14
    vertex 517.9459276211788 1755.1837950755657 1.999999999999987
  endloop
endfacet
facet normal -0.9659258262890604 0.2588190451025507 -8.408327087684525e-15
  outer loop
    vertex 511.6720553431452 1753.502716065251 1.9999999999999503
    vertex 511.5442771917292 1752.5321446461164 -9.164891068280667e-15
    vertex 511.5442771917292 1752.5321446461164 1.9999999999999503
  endloop
endfacet
facet normal -1.0 0.0 -8.704940750976743e-15
  outer loop
    vertex 511.5442771917292 1752.5321446461164 -9.164891068280667e-15
    vertex 511.6720553431452 1753.502716065251 1.9999999999999503
    vertex 511.6720553431452 1753.502716065251 -9.164891068280667e-15
  endloop
endfacet
facet normal -5.7859192140426574e-15 9.505219042229848e-31 1.0
  outer loop
    vertex 511.6720553431452 1751.5615732269819 1.9999999999999503
    vertex 511.6720553431452 1753.502716065251 1.9999999999999503
    vertex 511.5442771917292 1752.5321446461164 1.9999999999999503
  endloop
endfacet
facet normal -5.7859192140426574e-15 9.505219042229848e-31 1.0
  outer loop
    vertex 511.6720553431452 1753.502716065251 1.9999999999999503
    vertex 511.6720553431452 1751.5615732269819 1.9999999999999503
    vertex 512.0466819275376 1750.6571446461162 1.9999999999999503
  endloop
endfacet
facet normal -5.7859192140426574e-15 9.505219042229848e-31 1.0
  outer loop
    vertex 511.6720553431452 1753.502716065251 1.9999999999999503
    vertex 512.0466819275376 1750.6571446461162 1.9999999999999503
    vertex 512.0466819275376 1754.4071446461162 1.9999999999999503
  endloop
endfacet
facet normal -5.7859192140426574e-15 9.505219042229848e-31 1.0
  outer loop
    vertex 512.0466819275376 1754.4071446461162 1.9999999999999503
    vertex 512.0466819275376 1750.6571446461162 1.9999999999999503
    vertex 512.6426267622796 1749.8804942166666 1.9999999999999503
  endloop
endfacet
facet normal -5.7859192140426574e-15 9.505219042229848e-31 1.0
  outer loop
    vertex 512.0466819275376 1754.4071446461162 1.9999999999999503
    vertex 512.6426267622796 1749.8804942166666 1.9999999999999503
    vertex 512.6426267622796 1755.1837950755657 1.9999999999999503
  endloop
endfacet
facet normal -5.7859192140426574e-15 9.505219042229848e-31 1.0
  outer loop
    vertex 512.6426267622796 1755.1837950755657 1.9999999999999503
    vertex 512.6426267622796 1749.8804942166666 1.9999999999999503
    vertex 512.6942771917293 1752.5321446461164 1.9999999999999503
  endloop
endfacet
facet normal -5.7859192140426574e-15 9.505219042229848e-31 1.0
  outer loop
    vertex 512.6942771917293 1752.5321446461164 1.9999999999999503
    vertex 512.6426267622796 1749.8804942166666 1.9999999999999503
    vertex 512.7828700433777 1751.8592151288497 1.9999999999999503
  endloop
endfacet
facet normal -5.7859192140426574e-15 9.505219042229848e-31 1.0
  outer loop
    vertex 512.7828700433777 1751.8592151288497 1.9999999999999503
    vertex 512.6426267622796 1749.8804942166666 1.9999999999999503
    vertex 513.4192771917292 1749.2845493819248 1.9999999999999503
  endloop
endfacet
facet normal -5.7859192140426574e-15 9.505219042229848e-31 1.0
  outer loop
    vertex 512.7828700433777 1751.8592151288497 1.9999999999999503
    vertex 513.4192771917292 1749.2845493819248 1.9999999999999503
    vertex 513.0426111418897 1751.2321446461165 1.9999999999999503
  endloop
endfacet
facet normal -5.7859192140426574e-15 9.505219042229848e-31 1.0
  outer loop
    vertex 513.0426111418897 1751.2321446461165 1.9999999999999503
    vertex 513.4192771917292 1749.2845493819248 1.9999999999999503
    vertex 513.4557995606442 1750.6936670150315 1.9999999999999503
  endloop
endfacet
facet normal -5.7859192140426574e-15 9.505219042229848e-31 1.0
  outer loop
    vertex 513.4557995606442 1750.6936670150315 1.9999999999999503
    vertex 513.4192771917292 1749.2845493819248 1.9999999999999503
    vertex 514.3237057725947 1748.9099227975323 1.9999999999999503
  endloop
endfacet
facet normal -5.7859192140426574e-15 9.505219042229848e-31 1.0
  outer loop
    vertex 513.4557995606442 1750.6936670150315 1.9999999999999503
    vertex 514.3237057725947 1748.9099227975323 1.9999999999999503
    vertex 513.9942771917292 1750.280478596277 1.9999999999999503
  endloop
endfacet
facet normal -5.7859192140426574e-15 9.505219042229848e-31 1.0
  outer loop
    vertex 513.9942771917292 1750.280478596277 1.9999999999999503
    vertex 514.3237057725947 1748.9099227975323 1.9999999999999503
    vertex 514.6213476744628 1750.0207374977647 1.9999999999999503
  endloop
endfacet
facet normal -5.7859192140426574e-15 9.505219042229848e-31 1.0
  outer loop
    vertex 514.6213476744628 1750.0207374977647 1.9999999999999503
    vertex 514.3237057725947 1748.9099227975323 1.9999999999999503
    vertex 515.2942771917292 1748.7821446461162 1.9999999999999503
  endloop
endfacet
facet normal -5.7859192140426574e-15 9.505219042229848e-31 1.0
  outer loop
    vertex 514.6213476744628 1750.0207374977647 1.9999999999999503
    vertex 515.2942771917292 1748.7821446461162 1.9999999999999503
    vertex 515.2942771917292 1749.9321446461163 1.9999999999999503
  endloop
endfacet
facet normal -5.7859192140426574e-15 9.505219042229848e-31 1.0
  outer loop
    vertex 515.2942771917292 1749.9321446461163 1.9999999999999503
    vertex 515.2942771917292 1748.7821446461162 1.9999999999999503
    vertex 516.2648486108636 1748.9099227975323 1.9999999999999503
  endloop
endfacet
facet normal -5.7859192140426574e-15 9.505219042229848e-31 1.0
  outer loop
    vertex 515.2942771917292 1749.9321446461163 1.9999999999999503
    vertex 516.2648486108636 1748.9099227975323 1.9999999999999503
    vertex 515.9672067089957 1750.0207374977647 1.9999999999999503
  endloop
endfacet
facet normal -5.7859192140426574e-15 9.505219042229848e-31 1.0
  outer loop
    vertex 515.9672067089957 1750.0207374977647 1.9999999999999503
    vertex 516.2648486108636 1748.9099227975323 1.9999999999999503
    vertex 516.5942771917292 1750.280478596277 1.9999999999999503
  endloop
endfacet
facet normal -5.7859192140426574e-15 9.505219042229848e-31 1.0
  outer loop
    vertex 516.5942771917292 1750.280478596277 1.9999999999999503
    vertex 516.2648486108636 1748.9099227975323 1.9999999999999503
    vertex 517.1692771917293 1749.2845493819248 1.999999999999987
  endloop
endfacet
facet normal -5.7859192140426574e-15 9.505219042229848e-31 1.0
  outer loop
    vertex 516.5942771917292 1750.280478596277 1.9999999999999503
    vertex 517.1692771917293 1749.2845493819248 1.999999999999987
    vertex 517.1327548228143 1750.6936670150315 1.9999999999999503
  endloop
endfacet
facet normal -5.7859192140426574e-15 9.505219042229848e-31 1.0
  outer loop
    vertex 517.1327548228143 1750.6936670150315 1.9999999999999503
    vertex 517.1692771917293 1749.2845493819248 1.999999999999987
    vertex 517.5459432415687 1751.232144646116 1.999999999999987
  endloop
endfacet
facet normal -5.7859192140426574e-15 9.505219042229848e-31 1.0
  outer loop
    vertex 517.5459432415687 1751.232144646116 1.999999999999987
    vertex 517.1692771917293 1749.2845493819248 1.999999999999987
    vertex 517.9459276211788 1749.8804942166666 1.999999999999987
  endloop
endfacet
facet normal -5.7859192140426574e-15 9.505219042229848e-31 1.0
  outer loop
    vertex 517.5459432415687 1751.232144646116 1.999999999999987
    vertex 517.9459276211788 1749.8804942166666 1.999999999999987
    vertex 517.8056843400807 1751.8592151288497 1.999999999999987
  endloop
endfacet
facet normal -5.7859192140426574e-15 9.505219042229848e-31 1.0
  outer loop
    vertex 517.8056843400807 1751.8592151288497 1.999999999999987
    vertex 517.9459276211788 1749.8804942166666 1.999999999999987
    vertex 517.8942771917292 1752.5321446461164 1.999999999999987
  endloop
endfacet
facet normal -5.7859192140426574e-15 9.505219042229848e-31 1.0
  outer loop
    vertex 512.6426267622796 1755.1837950755657 1.9999999999999503
    vertex 512.7828700433777 1753.205074163383 1.9999999999999503
    vertex 513.4192771917292 1755.7797399103083 1.9999999999999503
  endloop
endfacet
facet normal -5.7859192140426574e-15 9.505219042229848e-31 1.0
  outer loop
    vertex 512.7828700433777 1753.205074163383 1.9999999999999503
    vertex 512.6426267622796 1755.1837950755657 1.9999999999999503
    vertex 512.6942771917293 1752.5321446461164 1.9999999999999503
  endloop
endfacet
facet normal -5.7859192140426574e-15 9.505219042229848e-31 1.0
  outer loop
    vertex 513.4192771917292 1755.7797399103083 1.9999999999999503
    vertex 512.7828700433777 1753.205074163383 1.9999999999999503
    vertex 513.0426111418897 1753.8321446461161 1.9999999999999503
  endloop
endfacet
facet normal -5.7859192140426574e-15 9.505219042229848e-31 1.0
  outer loop
    vertex 513.4192771917292 1755.7797399103083 1.9999999999999503
    vertex 513.0426111418897 1753.8321446461161 1.9999999999999503
    vertex 513.4557995606442 1754.3706222772012 1.9999999999999503
  endloop
endfacet
facet normal -5.7859192140426574e-15 9.505219042229848e-31 1.0
  outer loop
    vertex 513.4192771917292 1755.7797399103083 1.9999999999999503
    vertex 513.4557995606442 1754.3706222772012 1.9999999999999503
    vertex 514.3237057725947 1756.1543664947003 1.9999999999999503
  endloop
endfacet
facet normal -5.7859192140426574e-15 9.505219042229848e-31 1.0
  outer loop
    vertex 514.3237057725947 1756.1543664947003 1.9999999999999503
    vertex 513.4557995606442 1754.3706222772012 1.9999999999999503
    vertex 513.9942771917292 1754.783810695956 1.9999999999999503
  endloop
endfacet
facet normal -5.7859192140426574e-15 9.505219042229848e-31 1.0
  outer loop
    vertex 514.3237057725947 1756.1543664947003 1.9999999999999503
    vertex 513.9942771917292 1754.783810695956 1.9999999999999503
    vertex 514.6213476744628 1755.0435517944677 1.9999999999999503
  endloop
endfacet
facet normal -5.7859192140426574e-15 9.505219042229848e-31 1.0
  outer loop
    vertex 514.3237057725947 1756.1543664947003 1.9999999999999503
    vertex 514.6213476744628 1755.0435517944677 1.9999999999999503
    vertex 515.2942771917292 1756.2821446461164 1.9999999999999503
  endloop
endfacet
facet normal -5.7859192140426574e-15 9.505219042229848e-31 1.0
  outer loop
    vertex 515.2942771917292 1756.2821446461164 1.9999999999999503
    vertex 514.6213476744628 1755.0435517944677 1.9999999999999503
    vertex 515.2942771917292 1755.1321446461163 1.9999999999999503
  endloop
endfacet
facet normal -5.7859192140426574e-15 9.505219042229848e-31 1.0
  outer loop
    vertex 515.2942771917292 1756.2821446461164 1.9999999999999503
    vertex 515.2942771917292 1755.1321446461163 1.9999999999999503
    vertex 515.9672067089957 1755.0435517944677 1.9999999999999503
  endloop
endfacet
facet normal -5.7859192140426574e-15 9.505219042229848e-31 1.0
  outer loop
    vertex 515.2942771917292 1756.2821446461164 1.9999999999999503
    vertex 515.9672067089957 1755.0435517944677 1.9999999999999503
    vertex 516.2648486108636 1756.1543664947003 1.9999999999999503
  endloop
endfacet
facet normal -5.7859192140426574e-15 9.505219042229848e-31 1.0
  outer loop
    vertex 516.2648486108636 1756.1543664947003 1.9999999999999503
    vertex 515.9672067089957 1755.0435517944677 1.9999999999999503
    vertex 516.5942771917292 1754.783810695956 1.9999999999999503
  endloop
endfacet
facet normal -5.7859192140426574e-15 9.505219042229848e-31 1.0
  outer loop
    vertex 516.2648486108636 1756.1543664947003 1.9999999999999503
    vertex 516.5942771917292 1754.783810695956 1.9999999999999503
    vertex 517.1692771917293 1755.7797399103083 1.999999999999987
  endloop
endfacet
facet normal -5.7859192140426574e-15 9.505219042229848e-31 1.0
  outer loop
    vertex 517.1692771917293 1755.7797399103083 1.999999999999987
    vertex 516.5942771917292 1754.783810695956 1.9999999999999503
    vertex 517.1327548228143 1754.3706222772012 1.9999999999999503
  endloop
endfacet
facet normal -5.7859192140426574e-15 9.505219042229848e-31 1.0
  outer loop
    vertex 517.1692771917293 1755.7797399103083 1.999999999999987
    vertex 517.1327548228143 1754.3706222772012 1.9999999999999503
    vertex 517.5459432415687 1753.8321446461161 1.999999999999987
  endloop
endfacet
facet normal -5.7859192140426574e-15 9.505219042229848e-31 1.0
  outer loop
    vertex 517.1692771917293 1755.7797399103083 1.999999999999987
    vertex 517.5459432415687 1753.8321446461161 1.999999999999987
    vertex 517.9459276211788 1755.1837950755657 1.999999999999987
  endloop
endfacet
facet normal -5.7859192140426574e-15 9.505219042229848e-31 1.0
  outer loop
    vertex 517.9459276211788 1755.1837950755657 1.999999999999987
    vertex 517.5459432415687 1753.8321446461161 1.999999999999987
    vertex 517.8056843400807 1753.205074163383 1.999999999999987
  endloop
endfacet
facet normal -5.7859192140426574e-15 9.505219042229848e-31 1.0
  outer loop
    vertex 517.9459276211788 1755.1837950755657 1.999999999999987
    vertex 517.8056843400807 1753.205074163383 1.999999999999987
    vertex 517.8942771917292 1752.5321446461164 1.999999999999987
  endloop
endfacet
facet normal -5.7859192140426574e-15 9.505219042229848e-31 1.0
  outer loop
    vertex 517.9459276211788 1755.1837950755657 1.999999999999987
    vertex 517.8942771917292 1752.5321446461164 1.999999999999987
    vertex 517.9459276211788 1749.8804942166666 1.999999999999987
  endloop
endfacet
facet normal -5.7859192140426574e-15 9.505219042229848e-31 1.0
  outer loop
    vertex 517.9459276211788 1755.1837950755657 1.999999999999987
    vertex 517.9459276211788 1749.8804942166666 1.999999999999987
    vertex 518.5418724559208 1750.6571446461162 1.999999999999987
  endloop
endfacet
facet normal -5.7859192140426574e-15 9.505219042229848e-31 1.0
  outer loop
    vertex 517.9459276211788 1755.1837950755657 1.999999999999987
    vertex 518.5418724559208 1750.6571446461162 1.999999999999987
    vertex 518.5418724559208 1754.4071446461164 1.999999999999987
  endloop
endfacet
facet normal -5.7859192140426574e-15 9.505219042229848e-31 1.0
  outer loop
    vertex 518.5418724559208 1754.4071446461164 1.999999999999987
    vertex 518.5418724559208 1750.6571446461162 1.999999999999987
    vertex 518.9164990403133 1751.5615732269819 1.999999999999987
  endloop
endfacet
facet normal -5.7859192140426574e-15 9.505219042229848e-31 1.0
  outer loop
    vertex 518.5418724559208 1754.4071446461164 1.999999999999987
    vertex 518.9164990403133 1751.5615732269819 1.999999999999987
    vertex 518.9164990403133 1753.502716065251 1.999999999999987
  endloop
endfacet
facet normal -5.7859192140426574e-15 9.505219042229848e-31 1.0
  outer loop
    vertex 518.9164990403133 1753.502716065251 1.999999999999987
    vertex 518.9164990403133 1751.5615732269819 1.999999999999987
    vertex 519.0442771917293 1752.5321446461164 1.999999999999987
  endloop
endfacet
facet normal -0.2588190451025028 -0.9659258262890731 -2.2530044528416633e-15
  outer loop
    vertex 514.3237057725947 1748.9099227975323 9.253015020860289e-15
    vertex 513.4192771917292 1749.2845493819248 1.9999999999999503
    vertex 513.4192771917292 1749.2845493819248 -9.164891068280667e-15
  endloop
endfacet
facet normal -0.5000000000000235 -0.8660254037844252 -4.352470375488576e-15
  outer loop
    vertex 513.4192771917292 1749.2845493819248 1.9999999999999503
    vertex 514.3237057725947 1748.9099227975323 9.253015020860289e-15
    vertex 514.3237057725947 1748.9099227975323 1.9999999999999503
  endloop
endfacet
facet normal 0.0 -1.0 1.475612519843653e-30
  outer loop
    vertex 515.2942771917292 1748.7821446461162 1.9999999999999503
    vertex 514.3237057725947 1748.9099227975323 9.253015020860289e-15
    vertex 515.2942771917292 1748.7821446461162 9.253015020860289e-15
  endloop
endfacet
facet normal -0.2588190451025028 -0.9659258262890731 -2.2530044528416633e-15
  outer loop
    vertex 514.3237057725947 1748.9099227975323 9.253015020860289e-15
    vertex 515.2942771917292 1748.7821446461162 1.9999999999999503
    vertex 514.3237057725947 1748.9099227975323 1.9999999999999503
  endloop
endfacet
facet normal -0.8660254037844243 0.5000000000000251 -7.538699828784125e-15
  outer loop
    vertex 512.0466819275376 1754.4071446461162 1.9999999999999503
    vertex 511.6720553431452 1753.502716065251 -9.164891068280667e-15
    vertex 511.6720553431452 1753.502716065251 1.9999999999999503
  endloop
endfacet
facet normal -0.9659258262890604 0.2588190451025507 -8.408327087684525e-15
  outer loop
    vertex 511.6720553431452 1753.502716065251 -9.164891068280667e-15
    vertex 512.0466819275376 1754.4071446461162 1.9999999999999503
    vertex 512.0466819275376 1754.4071446461162 -9.164891068280667e-15
  endloop
endfacet
facet normal 0.8660254037844243 -0.5000000000000251 7.538699828784125e-15
  outer loop
    vertex 518.5418724559208 1750.6571446461162 2.7626859133711433e-14
    vertex 517.9459276211788 1749.8804942166666 1.999999999999987
    vertex 517.9459276211788 1749.8804942166666 2.7626859133711433e-14
  endloop
endfacet
facet normal 0.7071067811865863 -0.7071067811865087 6.15532263484311e-15
  outer loop
    vertex 517.9459276211788 1749.8804942166666 1.999999999999987
    vertex 518.5418724559208 1750.6571446461162 2.7626859133711433e-14
    vertex 518.5418724559208 1750.6571446461162 1.999999999999987
  endloop
endfacet
facet normal 0.25881904510250375 -0.9659258262890729 2.2530044528416743e-15
  outer loop
    vertex 516.2648486108636 1748.9099227975323 1.9999999999999503
    vertex 515.2942771917292 1748.7821446461162 9.253015020860289e-15
    vertex 516.2648486108636 1748.9099227975323 9.253015020860289e-15
  endloop
endfacet
facet normal 0.0 -1.0 1.475612519843653e-30
  outer loop
    vertex 515.2942771917292 1748.7821446461162 9.253015020860289e-15
    vertex 516.2648486108636 1748.9099227975323 1.9999999999999503
    vertex 515.2942771917292 1748.7821446461162 1.9999999999999503
  endloop
endfacet
facet normal -0.5000000000000187 0.8660254037844279 -4.352470375488535e-15
  outer loop
    vertex 516.5942771917292 1750.280478596277 1.9999999999999503
    vertex 517.1327548228143 1750.6936670150315 9.253015020860289e-15
    vertex 516.5942771917292 1750.280478596277 9.253015020860289e-15
  endloop
endfacet
facet normal -0.7071067811865337 0.7071067811865613 -6.155322634842654e-15
  outer loop
    vertex 517.1327548228143 1750.6936670150315 9.253015020860289e-15
    vertex 516.5942771917292 1750.280478596277 1.9999999999999503
    vertex 517.1327548228143 1750.6936670150315 1.9999999999999503
  endloop
endfacet
facet normal 0.7071067811865863 -0.7071067811865087 6.15532263484311e-15
  outer loop
    vertex 517.9459276211788 1749.8804942166666 1.999999999999987
    vertex 517.1692771917293 1749.2845493819248 2.7626859133711433e-14
    vertex 517.9459276211788 1749.8804942166666 2.7626859133711433e-14
  endloop
endfacet
facet normal 0.5000000000000228 -0.8660254037844256 4.35247037548857e-15
  outer loop
    vertex 517.1692771917293 1749.2845493819248 2.7626859133711433e-14
    vertex 517.9459276211788 1749.8804942166666 1.999999999999987
    vertex 517.1692771917293 1749.2845493819248 1.999999999999987
  endloop
endfacet
facet normal -0.707106781186594 -0.7071067811865012 -6.1553226348431756e-15
  outer loop
    vertex 517.1327548228143 1754.3706222772012 1.9999999999999503
    vertex 516.5942771917292 1754.783810695956 9.253015020860289e-15
    vertex 517.1327548228143 1754.3706222772012 9.253015020860289e-15
  endloop
endfacet
facet normal -0.5000000000000187 -0.8660254037844279 -4.352470375488532e-15
  outer loop
    vertex 516.5942771917292 1754.783810695956 9.253015020860289e-15
    vertex 517.1327548228143 1754.3706222772012 1.9999999999999503
    vertex 516.5942771917292 1754.783810695956 1.9999999999999503
  endloop
endfacet
facet normal 0.258819045102508 -0.9659258262890718 2.253004452841711e-15
  outer loop
    vertex 514.6213476744628 1755.0435517944677 1.9999999999999503
    vertex 513.9942771917292 1754.783810695956 9.253015020860289e-15
    vertex 514.6213476744628 1755.0435517944677 9.253015020860289e-15
  endloop
endfacet
facet normal 0.5000000000000187 -0.8660254037844279 4.352470375488535e-15
  outer loop
    vertex 513.9942771917292 1754.783810695956 9.253015020860289e-15
    vertex 514.6213476744628 1755.0435517944677 1.9999999999999503
    vertex 513.9942771917292 1754.783810695956 1.9999999999999503
  endloop
endfacet
facet normal 0.7071067811865358 -0.7071067811865593 6.155322634842673e-15
  outer loop
    vertex 513.4557995606442 1754.3706222772012 9.253015020860289e-15
    vertex 513.0426111418897 1753.8321446461161 1.9999999999999503
    vertex 513.0426111418897 1753.8321446461161 -9.164891068280667e-15
  endloop
endfacet
facet normal 0.8660254037844098 -0.5000000000000498 7.538699828783999e-15
  outer loop
    vertex 513.0426111418897 1753.8321446461161 1.9999999999999503
    vertex 513.4557995606442 1754.3706222772012 9.253015020860289e-15
    vertex 513.4557995606442 1754.3706222772012 1.9999999999999503
  endloop
endfacet
facet normal 1.0 0.0 8.704940750976743e-15
  outer loop
    vertex 519.0442771917293 1752.5321446461164 2.7626859133711433e-14
    vertex 518.9164990403133 1751.5615732269819 1.999999999999987
    vertex 518.9164990403133 1751.5615732269819 2.7626859133711433e-14
  endloop
endfacet
facet normal 0.9659258262890604 -0.2588190451025507 8.408327087684525e-15
  outer loop
    vertex 518.9164990403133 1751.5615732269819 1.999999999999987
    vertex 519.0442771917293 1752.5321446461164 2.7626859133711433e-14
    vertex 519.0442771917293 1752.5321446461164 1.999999999999987
  endloop
endfacet
facet normal -1.0 0.0 -8.704940750976744e-15
  outer loop
    vertex 517.8942771917292 1752.5321446461164 1.999999999999987
    vertex 517.8056843400807 1751.8592151288497 2.7626859133711433e-14
    vertex 517.8056843400807 1751.8592151288497 1.999999999999987
  endloop
endfacet
facet normal -0.9659258262890724 0.25881904510250525 -8.40832708768463e-15
  outer loop
    vertex 517.8056843400807 1751.8592151288497 2.7626859133711433e-14
    vertex 517.8942771917292 1752.5321446461164 1.999999999999987
    vertex 517.8942771917292 1752.5321446461164 2.7626859133711433e-14
  endloop
endfacet
facet normal -0.9659258262890724 0.25881904510250525 -8.40832708768463e-15
  outer loop
    vertex 517.8056843400807 1751.8592151288497 1.999999999999987
    vertex 517.5459432415687 1751.232144646116 2.7626859133711433e-14
    vertex 517.5459432415687 1751.232144646116 1.999999999999987
  endloop
endfacet
facet normal -0.8660254037844092 0.5000000000000511 -7.538699828783992e-15
  outer loop
    vertex 517.5459432415687 1751.232144646116 2.7626859133711433e-14
    vertex 517.8056843400807 1751.8592151288497 1.999999999999987
    vertex 517.8056843400807 1751.8592151288497 2.7626859133711433e-14
  endloop
endfacet
facet normal 0.8660254037844106 -0.5000000000000487 7.538699828784006e-15
  outer loop
    vertex 513.0426111418897 1753.8321446461161 -9.164891068280667e-15
    vertex 512.7828700433777 1753.205074163383 1.9999999999999503
    vertex 512.7828700433777 1753.205074163383 -9.164891068280667e-15
  endloop
endfacet
facet normal 0.9659258262890724 -0.25881904510250525 8.40832708768463e-15
  outer loop
    vertex 512.7828700433777 1753.205074163383 1.9999999999999503
    vertex 513.0426111418897 1753.8321446461161 -9.164891068280667e-15
    vertex 513.0426111418897 1753.8321446461161 1.9999999999999503
  endloop
endfacet
facet normal 0.9659258262890593 0.2588190451025545 8.408327087684515e-15
  outer loop
    vertex 512.7828700433777 1751.8592151288497 -9.164891068280667e-15
    vertex 513.0426111418897 1751.2321446461165 1.9999999999999503
    vertex 513.0426111418897 1751.2321446461165 -9.164891068280667e-15
  endloop
endfacet
facet normal 0.866025403784425 0.500000000000024 7.53869982878413e-15
  outer loop
    vertex 513.0426111418897 1751.2321446461165 1.9999999999999503
    vertex 512.7828700433777 1751.8592151288497 -9.164891068280667e-15
    vertex 512.7828700433777 1751.8592151288497 1.9999999999999503
  endloop
endfacet
facet normal 0.8660254037844256 0.5000000000000226 7.538699828784134e-15
  outer loop
    vertex 513.0426111418897 1751.2321446461165 -9.164891068280667e-15
    vertex 513.4557995606442 1750.6936670150315 1.9999999999999503
    vertex 513.4557995606442 1750.6936670150315 9.253015020860289e-15
  endloop
endfacet
facet normal 0.707106781186592 0.7071067811865032 6.155322634843159e-15
  outer loop
    vertex 513.4557995606442 1750.6936670150315 1.9999999999999503
    vertex 513.0426111418897 1751.2321446461165 -9.164891068280667e-15
    vertex 513.0426111418897 1751.2321446461165 1.9999999999999503
  endloop
endfacet
facet normal 0.5000000000000187 0.8660254037844279 4.352470375488532e-15
  outer loop
    vertex 513.9942771917292 1750.280478596277 1.9999999999999503
    vertex 514.6213476744628 1750.0207374977647 9.253015020860289e-15
    vertex 513.9942771917292 1750.280478596277 9.253015020860289e-15
  endloop
endfacet
facet normal 0.258819045102508 0.9659258262890718 2.2530044528417086e-15
  outer loop
    vertex 514.6213476744628 1750.0207374977647 9.253015020860289e-15
    vertex 513.9942771917292 1750.280478596277 1.9999999999999503
    vertex 514.6213476744628 1750.0207374977647 1.9999999999999503
  endloop
endfacet
facet normal -0.8660254037844264 -0.5000000000000215 -7.538699828784139e-15
  outer loop
    vertex 517.5459432415687 1753.8321446461161 1.999999999999987
    vertex 517.8056843400807 1753.205074163383 2.7626859133711433e-14
    vertex 517.8056843400807 1753.205074163383 1.999999999999987
  endloop
endfacet
facet normal -0.9659258262890593 -0.2588190451025545 -8.408327087684515e-15
  outer loop
    vertex 517.8056843400807 1753.205074163383 2.7626859133711433e-14
    vertex 517.5459432415687 1753.8321446461161 1.999999999999987
    vertex 517.5459432415687 1753.8321446461161 2.7626859133711433e-14
  endloop
endfacet
facet normal 1.0 0.0 8.704940750976744e-15
  outer loop
    vertex 512.6942771917293 1752.5321446461164 -9.164891068280667e-15
    vertex 512.7828700433777 1751.8592151288497 1.9999999999999503
    vertex 512.7828700433777 1751.8592151288497 -9.164891068280667e-15
  endloop
endfacet
facet normal 0.9659258262890593 0.2588190451025545 8.408327087684515e-15
  outer loop
    vertex 512.7828700433777 1751.8592151288497 1.9999999999999503
    vertex 512.6942771917293 1752.5321446461164 -9.164891068280667e-15
    vertex 512.6942771917293 1752.5321446461164 1.9999999999999503
  endloop
endfacet
facet normal -0.707106781186594 -0.7071067811865012 -6.1553226348431756e-15
  outer loop
    vertex 517.1327548228143 1754.3706222772012 1.9999999999999503
    vertex 517.5459432415687 1753.8321446461161 2.7626859133711433e-14
    vertex 517.5459432415687 1753.8321446461161 1.999999999999987
  endloop
endfacet
facet normal -0.8660254037844243 -0.5000000000000251 -7.538699828784123e-15
  outer loop
    vertex 517.5459432415687 1753.8321446461161 2.7626859133711433e-14
    vertex 517.1327548228143 1754.3706222772012 1.9999999999999503
    vertex 517.1327548228143 1754.3706222772012 9.253015020860289e-15
  endloop
endfacet
facet normal -0.9659258262890593 -0.2588190451025545 -8.408327087684515e-15
  outer loop
    vertex 517.8056843400807 1753.205074163383 1.999999999999987
    vertex 517.8942771917292 1752.5321446461164 2.7626859133711433e-14
    vertex 517.8942771917292 1752.5321446461164 1.999999999999987
  endloop
endfacet
facet normal -1.0 0.0 -8.704940750976744e-15
  outer loop
    vertex 517.8942771917292 1752.5321446461164 2.7626859133711433e-14
    vertex 517.8056843400807 1753.205074163383 1.999999999999987
    vertex 517.8056843400807 1753.205074163383 2.7626859133711433e-14
  endloop
endfacet
facet normal 0.258819045102508 0.9659258262890718 2.2530044528417086e-15
  outer loop
    vertex 514.6213476744628 1750.0207374977647 1.9999999999999503
    vertex 515.2942771917292 1749.9321446461163 9.253015020860289e-15
    vertex 514.6213476744628 1750.0207374977647 9.253015020860289e-15
  endloop
endfacet
facet normal 0.0 1.0 -1.3979487030097794e-30
  outer loop
    vertex 515.2942771917292 1749.9321446461163 9.253015020860289e-15
    vertex 514.6213476744628 1750.0207374977647 1.9999999999999503
    vertex 515.2942771917292 1749.9321446461163 1.9999999999999503
  endloop
endfacet
facet normal 0.0 1.0 -1.3979487030097794e-30
  outer loop
    vertex 515.2942771917292 1749.9321446461163 1.9999999999999503
    vertex 515.9672067089957 1750.0207374977647 9.253015020860289e-15
    vertex 515.2942771917292 1749.9321446461163 9.253015020860289e-15
  endloop
endfacet
facet normal -0.258819045102508 0.9659258262890718 -2.253004452841711e-15
  outer loop
    vertex 515.9672067089957 1750.0207374977647 9.253015020860289e-15
    vertex 515.2942771917292 1749.9321446461163 1.9999999999999503
    vertex 515.9672067089957 1750.0207374977647 1.9999999999999503
  endloop
endfacet
facet normal 0.5000000000000228 -0.8660254037844256 4.35247037548857e-15
  outer loop
    vertex 517.1692771917293 1749.2845493819248 2.7626859133711433e-14
    vertex 516.2648486108636 1748.9099227975323 1.9999999999999503
    vertex 516.2648486108636 1748.9099227975323 9.253015020860289e-15
  endloop
endfacet
facet normal 0.25881904510250375 -0.9659258262890729 2.2530044528416743e-15
  outer loop
    vertex 516.2648486108636 1748.9099227975323 1.9999999999999503
    vertex 517.1692771917293 1749.2845493819248 2.7626859133711433e-14
    vertex 517.1692771917293 1749.2845493819248 1.999999999999987
  endloop
endfacet
facet normal -0.258819045102508 0.9659258262890718 -2.253004452841711e-15
  outer loop
    vertex 515.9672067089957 1750.0207374977647 1.9999999999999503
    vertex 516.5942771917292 1750.280478596277 9.253015020860289e-15
    vertex 515.9672067089957 1750.0207374977647 9.253015020860289e-15
  endloop
endfacet
facet normal -0.5000000000000187 0.8660254037844279 -4.352470375488535e-15
  outer loop
    vertex 516.5942771917292 1750.280478596277 9.253015020860289e-15
    vertex 515.9672067089957 1750.0207374977647 1.9999999999999503
    vertex 516.5942771917292 1750.280478596277 1.9999999999999503
  endloop
endfacet
facet normal -0.8660254037844113 0.5000000000000475 -7.538699828784011e-15
  outer loop
    vertex 517.5459432415687 1751.232144646116 1.999999999999987
    vertex 517.1327548228143 1750.6936670150315 9.253015020860289e-15
    vertex 517.1327548228143 1750.6936670150315 1.9999999999999503
  endloop
endfacet
facet normal -0.7071067811865337 0.7071067811865613 -6.155322634842654e-15
  outer loop
    vertex 517.1327548228143 1750.6936670150315 9.253015020860289e-15
    vertex 517.5459432415687 1751.232144646116 1.999999999999987
    vertex 517.5459432415687 1751.232144646116 2.7626859133711433e-14
  endloop
endfacet
facet normal -0.5000000000000187 -0.8660254037844279 -4.352470375488532e-15
  outer loop
    vertex 516.5942771917292 1754.783810695956 1.9999999999999503
    vertex 515.9672067089957 1755.0435517944677 9.253015020860289e-15
    vertex 516.5942771917292 1754.783810695956 9.253015020860289e-15
  endloop
endfacet
facet normal -0.258819045102508 -0.9659258262890718 -2.2530044528417086e-15
  outer loop
    vertex 515.9672067089957 1755.0435517944677 9.253015020860289e-15
    vertex 516.5942771917292 1754.783810695956 1.9999999999999503
    vertex 515.9672067089957 1755.0435517944677 1.9999999999999503
  endloop
endfacet
facet normal -0.258819045102508 -0.9659258262890718 -2.2530044528417086e-15
  outer loop
    vertex 515.9672067089957 1755.0435517944677 1.9999999999999503
    vertex 515.2942771917292 1755.1321446461163 9.253015020860289e-15
    vertex 515.9672067089957 1755.0435517944677 9.253015020860289e-15
  endloop
endfacet
facet normal 0.0 -1.0 1.3979487030097794e-30
  outer loop
    vertex 515.2942771917292 1755.1321446461163 9.253015020860289e-15
    vertex 515.9672067089957 1755.0435517944677 1.9999999999999503
    vertex 515.2942771917292 1755.1321446461163 1.9999999999999503
  endloop
endfacet
facet normal 0.0 -1.0 1.3979487030097794e-30
  outer loop
    vertex 515.2942771917292 1755.1321446461163 1.9999999999999503
    vertex 514.6213476744628 1755.0435517944677 9.253015020860289e-15
    vertex 515.2942771917292 1755.1321446461163 9.253015020860289e-15
  endloop
endfacet
facet normal 0.258819045102508 -0.9659258262890718 2.253004452841711e-15
  outer loop
    vertex 514.6213476744628 1755.0435517944677 9.253015020860289e-15
    vertex 515.2942771917292 1755.1321446461163 1.9999999999999503
    vertex 514.6213476744628 1755.0435517944677 1.9999999999999503
  endloop
endfacet
facet normal 0.5000000000000187 -0.8660254037844279 4.352470375488535e-15
  outer loop
    vertex 513.9942771917292 1754.783810695956 1.9999999999999503
    vertex 513.4557995606442 1754.3706222772012 9.253015020860289e-15
    vertex 513.9942771917292 1754.783810695956 9.253015020860289e-15
  endloop
endfacet
facet normal 0.7071067811865358 -0.7071067811865593 6.155322634842673e-15
  outer loop
    vertex 513.4557995606442 1754.3706222772012 9.253015020860289e-15
    vertex 513.9942771917292 1754.783810695956 1.9999999999999503
    vertex 513.4557995606442 1754.3706222772012 1.9999999999999503
  endloop
endfacet
facet normal 0.9659258262890724 -0.25881904510250525 8.40832708768463e-15
  outer loop
    vertex 512.7828700433777 1753.205074163383 -9.164891068280667e-15
    vertex 512.6942771917293 1752.5321446461164 1.9999999999999503
    vertex 512.6942771917293 1752.5321446461164 -9.164891068280667e-15
  endloop
endfacet
facet normal 1.0 0.0 8.704940750976744e-15
  outer loop
    vertex 512.6942771917293 1752.5321446461164 1.9999999999999503
    vertex 512.7828700433777 1753.205074163383 -9.164891068280667e-15
    vertex 512.7828700433777 1753.205074163383 1.9999999999999503
  endloop
endfacet
facet normal 0.707106781186592 0.7071067811865032 6.155322634843159e-15
  outer loop
    vertex 513.4557995606442 1750.6936670150315 1.9999999999999503
    vertex 513.9942771917292 1750.280478596277 9.253015020860289e-15
    vertex 513.4557995606442 1750.6936670150315 9.253015020860289e-15
  endloop
endfacet
facet normal 0.5000000000000187 0.8660254037844279 4.352470375488532e-15
  outer loop
    vertex 513.9942771917292 1750.280478596277 9.253015020860289e-15
    vertex 513.4557995606442 1750.6936670150315 1.9999999999999503
    vertex 513.9942771917292 1750.280478596277 1.9999999999999503
  endloop
endfacet
facet normal 0.9659258262890695 0.25881904510251663 8.408327087684604e-15
  outer loop
    vertex 518.9164990403133 1753.502716065251 2.7626859133711433e-14
    vertex 519.0442771917293 1752.5321446461164 1.999999999999987
    vertex 519.0442771917293 1752.5321446461164 2.7626859133711433e-14
  endloop
endfacet
facet normal 1.0 0.0 8.704940750976743e-15
  outer loop
    vertex 519.0442771917293 1752.5321446461164 1.999999999999987
    vertex 518.9164990403133 1753.502716065251 2.7626859133711433e-14
    vertex 518.9164990403133 1753.502716065251 1.999999999999987
  endloop
endfacet
facet normal 0.9659258262890604 -0.2588190451025507 8.408327087684525e-15
  outer loop
    vertex 518.9164990403133 1751.5615732269819 2.7626859133711433e-14
    vertex 518.5418724559208 1750.6571446461162 1.999999999999987
    vertex 518.5418724559208 1750.6571446461162 2.7626859133711433e-14
  endloop
endfacet
facet normal 0.8660254037844243 -0.5000000000000251 7.538699828784125e-15
  outer loop
    vertex 518.5418724559208 1750.6571446461162 1.999999999999987
    vertex 518.9164990403133 1751.5615732269819 2.7626859133711433e-14
    vertex 518.9164990403133 1751.5615732269819 1.999999999999987
  endloop
endfacet
facet normal 0.866025403784414 0.5000000000000432 7.538699828784033e-15
  outer loop
    vertex 518.5418724559208 1754.4071446461164 2.7626859133711433e-14
    vertex 518.9164990403133 1753.502716065251 1.999999999999987
    vertex 518.9164990403133 1753.502716065251 2.7626859133711433e-14
  endloop
endfacet
facet normal 0.9659258262890695 0.25881904510251663 8.408327087684604e-15
  outer loop
    vertex 518.9164990403133 1753.502716065251 1.999999999999987
    vertex 518.5418724559208 1754.4071446461164 2.7626859133711433e-14
    vertex 518.5418724559208 1754.4071446461164 1.999999999999987
  endloop
endfacet
endsolid Design - Rolled
