solid Design - Rolled - Solid
facet normal -1.1420144262876622e-10 2.6087108526395163e-20 -1.0
  outer loop
    vertex 162.78984865001684 395.9280092827576 150.30000013830158
    vertex 162.78984865216407 405.3280092827578 150.30000013830139
    vertex 180.28984865055364 395.92800928104907 150.30000013726706
  endloop
endfacet
facet normal -1.1420144262876622e-10 2.6087108526395163e-20 -1.0
  outer loop
    vertex 180.2898486527009 405.3280092810492 150.30000013726706
    vertex 180.28984865055364 395.92800928104907 150.30000013726706
    vertex 162.78984865216407 405.3280092827578 150.30000013830139
  endloop
endfacet
facet normal 1.1420144262876622e-10 -2.6213640439973112e-24 1.0
  outer loop
    vertex 162.78984865216387 395.9280092827576 159.7000001383016
    vertex 180.28984865270067 395.92800928104907 159.7000001372671
    vertex 162.78984865216407 405.3280092827578 159.70000013830142
  endloop
endfacet
facet normal 1.1420144262876622e-10 -2.6213640439973112e-24 1.0
  outer loop
    vertex 180.28984865270087 405.3280092810493 159.7000001372671
    vertex 162.78984865216407 405.3280092827578 159.70000013830142
    vertex 180.28984865270067 395.92800928104907 159.7000001372671
  endloop
endfacet
facet normal -1.0 1.1422679646127244e-10 1.1420144262876622e-10
  outer loop
    vertex 162.78984865216407 405.3280092827578 150.30000013830139
    vertex 162.7898486520469 403.525786761625 155.776457273609
    vertex 162.78984865216407 405.3280092827578 159.70000013830142
  endloop
endfacet
facet normal -1.0 1.1422679646127244e-10 1.1420144262876622e-10
  outer loop
    vertex 162.7898486520953 403.2260854941112 156.50000013830143
    vertex 162.78984865216407 405.3280092827578 159.70000013830142
    vertex 162.7898486520469 403.525786761625 155.776457273609
  endloop
endfacet
facet normal -1.0 1.1422679646127244e-10 1.1420144262876622e-10
  outer loop
    vertex 162.7898486521118 402.74932962631743 157.121320481861
    vertex 162.78984865216407 405.3280092827578 159.70000013830142
    vertex 162.7898486520953 403.2260854941112 156.50000013830143
  endloop
endfacet
facet normal -1.0 1.1422679646127244e-10 1.1420144262876622e-10
  outer loop
    vertex 162.7898486520953 402.12800928275783 157.59807634965475
    vertex 162.78984865216407 405.3280092827578 159.70000013830142
    vertex 162.7898486521118 402.74932962631743 157.121320481861
  endloop
endfacet
facet normal -1.0 1.1422679646127244e-10 1.1420144262876622e-10
  outer loop
    vertex 162.78984865204683 401.4044664180654 157.89777761716897
    vertex 162.78984865216407 405.3280092827578 159.70000013830142
    vertex 162.7898486520953 402.12800928275783 157.59807634965475
  endloop
endfacet
facet normal -1.0 1.1422679646127244e-10 1.1420144262876622e-10
  outer loop
    vertex 162.78984865216387 395.9280092827576 159.7000001383016
    vertex 162.78984865216407 405.3280092827578 159.70000013830142
    vertex 162.78984865204683 401.4044664180654 157.89777761716897
  endloop
endfacet
facet normal -1.0 1.1422679646127244e-10 1.1420144262876622e-10
  outer loop
    vertex 162.7898486519699 403.6280092827579 155.0000001383016
    vertex 162.7898486520469 403.525786761625 155.776457273609
    vertex 162.78984865216407 405.3280092827578 150.30000013830139
  endloop
endfacet
facet normal -1.0 1.1422679646127244e-10 1.1420144262876622e-10
  outer loop
    vertex 162.78984865196983 400.62800928275783 158.0000001383018
    vertex 162.78984865216387 395.9280092827576 159.7000001383016
    vertex 162.78984865204683 401.4044664180654 157.89777761716897
  endloop
endfacet
facet normal -1.0 1.1422679646127244e-10 1.1420144262876622e-10
  outer loop
    vertex 162.78984865186948 399.8515521474502 157.8977776171688
    vertex 162.78984865216387 395.9280092827576 159.7000001383016
    vertex 162.78984865196983 400.62800928275783 158.0000001383018
  endloop
endfacet
facet normal -1.0 1.1422679646127244e-10 1.1420144262876622e-10
  outer loop
    vertex 162.7898486517526 399.1280092827578 157.59807634965475
    vertex 162.78984865216387 395.9280092827576 159.7000001383016
    vertex 162.78984865186948 399.8515521474502 157.8977776171688
  endloop
endfacet
facet normal -1.0 1.1422679646127244e-10 1.1420144262876622e-10
  outer loop
    vertex 162.78984865162718 398.5066889391982 157.1213204818612
    vertex 162.78984865216387 395.9280092827576 159.7000001383016
    vertex 162.7898486517526 399.1280092827578 157.59807634965475
  endloop
endfacet
facet normal -1.0 1.1422679646127244e-10 1.1420144262876622e-10
  outer loop
    vertex 162.78984865150179 398.02993307140446 156.5000001383016
    vertex 162.78984865216387 395.9280092827576 159.7000001383016
    vertex 162.78984865162718 398.5066889391982 157.1213204818612
  endloop
endfacet
facet normal -1.0 1.1422679646127244e-10 1.1420144262876622e-10
  outer loop
    vertex 162.78984865138497 397.7302318038906 155.77645727360937
    vertex 162.78984865216387 395.9280092827576 159.7000001383016
    vertex 162.78984865150179 398.02993307140446 156.5000001383016
  endloop
endfacet
facet normal -1.0 1.1422679646127244e-10 1.1420144262876622e-10
  outer loop
    vertex 162.78984865128456 397.6280092827578 155.00000013830177
    vertex 162.78984865216387 395.9280092827576 159.7000001383016
    vertex 162.78984865138497 397.7302318038906 155.77645727360937
  endloop
endfacet
facet normal -1.0 1.1422679646127244e-10 1.1420144262876622e-10
  outer loop
    vertex 162.78984865001684 395.9280092827576 150.30000013830158
    vertex 162.78984865138503 401.4044664180654 152.10222265943457
    vertex 162.78984865216407 405.3280092827578 150.30000013830139
  endloop
endfacet
facet normal -1.0 1.1422679646127244e-10 1.1420144262876622e-10
  outer loop
    vertex 162.7898486515019 402.12800928275783 152.40192392694823
    vertex 162.78984865216407 405.3280092827578 150.30000013830139
    vertex 162.78984865138503 401.4044664180654 152.10222265943457
  endloop
endfacet
facet normal -1.0 1.1422679646127244e-10 1.1420144262876622e-10
  outer loop
    vertex 162.78984865162732 402.74932962631743 152.8786797947418
    vertex 162.78984865216407 405.3280092827578 150.30000013830139
    vertex 162.7898486515019 402.12800928275783 152.40192392694823
  endloop
endfacet
facet normal -1.0 1.1422679646127244e-10 1.1420144262876622e-10
  outer loop
    vertex 162.7898486517527 403.22608549411115 153.50000013830157
    vertex 162.78984865216407 405.3280092827578 150.30000013830139
    vertex 162.78984865162732 402.74932962631743 152.8786797947418
  endloop
endfacet
facet normal -1.0 1.1422679646127244e-10 1.1420144262876622e-10
  outer loop
    vertex 162.78984865186953 403.525786761625 154.22354300299398
    vertex 162.78984865216407 405.3280092827578 150.30000013830139
    vertex 162.7898486517527 403.22608549411115 153.50000013830157
  endloop
endfacet
facet normal -1.0 1.1422679646127244e-10 1.1420144262876622e-10
  outer loop
    vertex 162.7898486519699 403.6280092827579 155.0000001383016
    vertex 162.78984865216407 405.3280092827578 150.30000013830139
    vertex 162.78984865186953 403.525786761625 154.22354300299398
  endloop
endfacet
facet normal -1.0 1.1422679646127244e-10 1.1420144262876622e-10
  outer loop
    vertex 162.78984865128467 400.62800928275783 152.0000001383019
    vertex 162.78984865138503 401.4044664180654 152.10222265943457
    vertex 162.78984865001684 395.9280092827576 150.30000013830158
  endloop
endfacet
facet normal -1.0 1.1422679646127244e-10 1.1420144262876622e-10
  outer loop
    vertex 162.78984865120762 399.8515521474502 152.10222265943437
    vertex 162.78984865128467 400.62800928275783 152.0000001383019
    vertex 162.78984865001684 395.9280092827576 150.30000013830158
  endloop
endfacet
facet normal -1.0 1.1422679646127244e-10 1.1420144262876622e-10
  outer loop
    vertex 162.7898486511592 399.1280092827578 152.40192392694823
    vertex 162.78984865120762 399.8515521474502 152.10222265943437
    vertex 162.78984865001684 395.9280092827576 150.30000013830158
  endloop
endfacet
facet normal -1.0 1.1422679646127244e-10 1.1420144262876622e-10
  outer loop
    vertex 162.7898486511427 398.5066889391982 152.878679794742
    vertex 162.7898486511592 399.1280092827578 152.40192392694823
    vertex 162.78984865001684 395.9280092827576 150.30000013830158
  endloop
endfacet
facet normal -1.0 1.1422679646127244e-10 1.1420144262876622e-10
  outer loop
    vertex 162.7898486511592 398.02993307140446 153.50000013830157
    vertex 162.7898486511427 398.5066889391982 152.878679794742
    vertex 162.78984865001684 395.9280092827576 150.30000013830158
  endloop
endfacet
facet normal -1.0 1.1422679646127244e-10 1.1420144262876622e-10
  outer loop
    vertex 162.78984865120754 397.7302318038906 154.22354300299435
    vertex 162.7898486511592 398.02993307140446 153.50000013830157
    vertex 162.78984865001684 395.9280092827576 150.30000013830158
  endloop
endfacet
facet normal -1.0 1.1422679646127244e-10 1.1420144262876622e-10
  outer loop
    vertex 162.78984865128456 397.6280092827578 155.00000013830177
    vertex 162.78984865120754 397.7302318038906 154.22354300299435
    vertex 162.78984865001684 395.9280092827576 150.30000013830158
  endloop
endfacet
facet normal -1.0 1.1422679646127244e-10 1.1420144262876622e-10
  outer loop
    vertex 162.78984865216387 395.9280092827576 159.7000001383016
    vertex 162.78984865128456 397.6280092827578 155.00000013830177
    vertex 162.78984865001684 395.9280092827576 150.30000013830158
  endloop
endfacet
facet normal -0.6087614290086308 6.951539940444485e-11 0.7933533402913042
  outer loop
    vertex 169.5422218224412 395.92800928518335 153.65096203513602
    vertex 169.85288199422104 395.9280092851478 153.8893399690328
    vertex 169.542221823515 405.3280092851838 153.6509620351362
  endloop
endfacet
facet normal -0.6087614290086308 6.951539940444485e-11 0.7933533402913042
  outer loop
    vertex 169.85288199529484 405.3280092851482 153.88933996903296
    vertex 169.542221823515 405.3280092851838 153.6509620351362
    vertex 169.85288199422104 395.9280092851478 153.8893399690328
  endloop
endfacet
facet normal -0.7933533402912336 9.060847638028448e-11 0.6087614290087227
  outer loop
    vertex 169.85288199529484 405.3280092851482 153.88933996903296
    vertex 169.85288199422104 395.9280092851478 153.8893399690328
    vertex 170.09125992919164 405.32800928512097 154.20000014081276
  endloop
endfacet
facet normal -0.7933533402912336 9.060847638028448e-11 0.6087614290087227
  outer loop
    vertex 170.09125992811786 395.9280092851206 154.2000001408126
    vertex 170.09125992919164 405.32800928512097 154.20000014081276
    vertex 169.85288199422104 395.9280092851478 153.8893399690328
  endloop
endfacet
facet normal -0.9238795325112849 1.0553041081947266e-10 0.38268343236509433
  outer loop
    vertex 170.09125992919164 405.32800928512097 154.20000014081276
    vertex 170.09125992811786 395.9280092851206 154.2000001408126
    vertex 170.24111056294856 405.32800928510386 154.56177157315886
  endloop
endfacet
facet normal -0.9238795325112849 1.0553041081947266e-10 0.38268343236509433
  outer loop
    vertex 170.2411105618748 395.9280092851035 154.56177157315886
    vertex 170.24111056294856 405.32800928510386 154.56177157315886
    vertex 170.09125992811786 395.9280092851206 154.2000001408126
  endloop
endfacet
facet normal -0.9914448613738078 1.1325477816545258e-10 0.13052619222007197
  outer loop
    vertex 170.24111056294856 405.32800928510386 154.56177157315886
    vertex 170.2411105618748 395.9280092851035 154.56177157315886
    vertex 170.29222182351498 405.32800928509806 154.95000014081276
  endloop
endfacet
facet normal -0.9914448613738078 1.1325477816545258e-10 0.13052619222007197
  outer loop
    vertex 170.2922218224412 395.92800928509763 154.9500001408126
    vertex 170.29222182351498 405.32800928509806 154.95000014081276
    vertex 170.2411105618748 395.9280092851035 154.56177157315886
  endloop
endfacet
facet normal -0.9914448613738093 1.1326101891203514e-10 -0.13052619222006084
  outer loop
    vertex 170.24111056294862 405.3280092851038 155.3382287084665
    vertex 170.29222182351498 405.32800928509806 154.95000014081276
    vertex 170.24111056187482 395.9280092851034 155.3382287084665
  endloop
endfacet
facet normal -0.9914448613738093 1.1326101891203514e-10 -0.13052619222006084
  outer loop
    vertex 170.2922218224412 395.92800928509763 154.9500001408126
    vertex 170.24111056187482 395.9280092851034 155.3382287084665
    vertex 170.29222182351498 405.32800928509806 154.95000014081276
  endloop
endfacet
facet normal -0.9238795325112775 1.055475995104228e-10 -0.38268343236511215
  outer loop
    vertex 170.09125992919164 405.32800928512097 155.7000001408128
    vertex 170.24111056294862 405.3280092851038 155.3382287084665
    vertex 170.09125992811786 395.9280092851206 155.7000001408126
  endloop
endfacet
facet normal -0.9238795325112775 1.055475995104228e-10 -0.38268343236511215
  outer loop
    vertex 170.24111056187482 395.9280092851034 155.3382287084665
    vertex 170.09125992811786 395.9280092851206 155.7000001408126
    vertex 170.24111056294862 405.3280092851038 155.3382287084665
  endloop
endfacet
facet normal -0.7933533402913049 9.064247535658297e-11 -0.6087614290086296
  outer loop
    vertex 169.8528819952948 405.3280092851482 156.01066031259256
    vertex 170.09125992919164 405.32800928512097 155.7000001408128
    vertex 169.85288199422104 395.9280092851478 156.01066031259256
  endloop
endfacet
facet normal -0.7933533402913049 9.064247535658297e-11 -0.6087614290086296
  outer loop
    vertex 170.09125992811786 395.9280092851206 155.7000001408126
    vertex 169.85288199422104 395.9280092851478 156.01066031259256
    vertex 170.09125992919164 405.32800928512097 155.7000001408128
  endloop
endfacet
facet normal -0.6087614290085943 6.955333117067952e-11 -0.7933533402913321
  outer loop
    vertex 169.5422218224412 395.9280092851832 156.24903824648936
    vertex 169.54222182351498 405.32800928518355 156.24903824648936
    vertex 169.85288199422104 395.9280092851478 156.01066031259256
  endloop
endfacet
facet normal -0.6087614290085943 6.955333117067952e-11 -0.7933533402913321
  outer loop
    vertex 169.8528819952948 405.3280092851482 156.01066031259256
    vertex 169.85288199422104 395.9280092851478 156.01066031259256
    vertex 169.54222182351498 405.32800928518355 156.24903824648936
  endloop
endfacet
facet normal -0.3826834323652419 4.372026552319923e-11 -0.9238795325112237
  outer loop
    vertex 169.18045039009496 395.9280092852245 156.39888888024646
    vertex 169.18045039116876 405.3280092852249 156.3988888802463
    vertex 169.5422218224412 395.9280092851832 156.24903824648936
  endloop
endfacet
facet normal -0.3826834323652419 4.372026552319923e-11 -0.9238795325112237
  outer loop
    vertex 169.54222182351498 405.32800928518355 156.24903824648936
    vertex 169.5422218224412 395.9280092851832 156.24903824648936
    vertex 169.18045039116876 405.3280092852249 156.3988888802463
  endloop
endfacet
facet normal -0.13052619222007938 1.491535202105634e-11 -0.9914448613738067
  outer loop
    vertex 168.79222182244118 395.92800928526896 156.4500001408128
    vertex 168.79222182351498 405.32800928526933 156.4500001408128
    vertex 169.18045039009496 395.9280092852245 156.39888888024646
  endloop
endfacet
facet normal -0.13052619222007938 1.491535202105634e-11 -0.9914448613738067
  outer loop
    vertex 169.18045039116876 405.3280092852249 156.3988888802463
    vertex 169.18045039009496 395.9280092852245 156.39888888024646
    vertex 168.79222182351498 405.32800928526933 156.4500001408128
  endloop
endfacet
facet normal 0.13052619221989842 -1.4896501089921268e-11 -0.9914448613738307
  outer loop
    vertex 168.40399325478742 395.92800928531335 156.39888888024646
    vertex 168.40399325586122 405.3280092853138 156.39888888024646
    vertex 168.79222182244118 395.92800928526896 156.4500001408128
  endloop
endfacet
facet normal 0.13052619221989842 -1.4896501089921268e-11 -0.9914448613738307
  outer loop
    vertex 168.79222182351498 405.32800928526933 156.4500001408128
    vertex 168.79222182244118 395.92800928526896 156.4500001408128
    vertex 168.40399325586122 405.3280092853138 156.39888888024646
  endloop
endfacet
facet normal 0.382683432365264 -4.37115679397571e-11 -0.9238795325112147
  outer loop
    vertex 168.0422218224412 395.92800928535456 156.24903824648953
    vertex 168.042221823515 405.32800928535494 156.24903824648936
    vertex 168.40399325478742 395.92800928531335 156.39888888024646
  endloop
endfacet
facet normal 0.382683432365264 -4.37115679397571e-11 -0.9238795325112147
  outer loop
    vertex 168.40399325586122 405.3280092853138 156.39888888024646
    vertex 168.40399325478742 395.92800928531335 156.39888888024646
    vertex 168.042221823515 405.32800928535494 156.24903824648936
  endloop
endfacet
facet normal 0.6087614290086587 -6.954586336897857e-11 -0.7933533402912826
  outer loop
    vertex 167.73156165066138 395.92800928539003 156.01066031259276
    vertex 167.73156165173518 405.32800928539046 156.01066031259256
    vertex 168.0422218224412 395.92800928535456 156.24903824648953
  endloop
endfacet
facet normal 0.6087614290086587 -6.954586336897857e-11 -0.7933533402912826
  outer loop
    vertex 168.042221823515 405.32800928535494 156.24903824648936
    vertex 168.0422218224412 395.92800928535456 156.24903824648953
    vertex 167.73156165173518 405.32800928539046 156.01066031259256
  endloop
endfacet
facet normal 0.7933533402912197 -9.063090080001784e-11 -0.6087614290087408
  outer loop
    vertex 167.49318371783835 405.3280092854177 155.7000001408128
    vertex 167.73156165173518 405.32800928539046 156.01066031259256
    vertex 167.49318371676458 395.9280092854173 155.70000014081296
  endloop
endfacet
facet normal 0.7933533402912197 -9.063090080001784e-11 -0.6087614290087408
  outer loop
    vertex 167.73156165066138 395.92800928539003 156.01066031259276
    vertex 167.49318371676458 395.9280092854173 155.70000014081296
    vertex 167.73156165173518 405.32800928539046 156.01066031259256
  endloop
endfacet
facet normal 0.9238795325112746 -1.0553664965403986e-10 -0.382683432365119
  outer loop
    vertex 167.34333308408142 405.32800928543486 155.33822870846666
    vertex 167.49318371783835 405.3280092854177 155.7000001408128
    vertex 167.34333308300762 395.9280092854345 155.33822870846666
  endloop
endfacet
facet normal 0.9238795325112746 -1.0553664965403986e-10 -0.382683432365119
  outer loop
    vertex 167.49318371676458 395.9280092854173 155.70000014081296
    vertex 167.34333308300762 395.9280092854345 155.33822870846666
    vertex 167.49318371783835 405.3280092854177 155.7000001408128
  endloop
endfacet
facet normal 0.9914448613738153 -1.1325728389982707e-10 -0.13052619222001532
  outer loop
    vertex 167.29222182351498 405.3280092854406 154.95000014081276
    vertex 167.34333308408142 405.32800928543486 155.33822870846666
    vertex 167.2922218224412 395.9280092854402 154.95000014081296
  endloop
endfacet
facet normal 0.9914448613738153 -1.1325728389982707e-10 -0.13052619222001532
  outer loop
    vertex 167.34333308300762 395.9280092854345 155.33822870846666
    vertex 167.2922218224412 395.9280092854402 154.95000014081296
    vertex 167.34333308408142 405.32800928543486 155.33822870846666
  endloop
endfacet
facet normal 0.9914448613738167 -1.1325851257857697e-10 0.1305261922200042
  outer loop
    vertex 167.29222182351498 405.3280092854406 154.95000014081276
    vertex 167.2922218224412 395.9280092854402 154.95000014081296
    vertex 167.34333308408137 405.32800928543486 154.56177157315906
  endloop
endfacet
facet normal 0.9914448613738167 -1.1325851257857697e-10 0.1305261922200042
  outer loop
    vertex 167.3433330830076 395.9280092854345 154.56177157315906
    vertex 167.34333308408137 405.32800928543486 154.56177157315906
    vertex 167.2922218224412 395.9280092854402 154.95000014081296
  endloop
endfacet
facet normal 0.9238795325112673 -1.0554136128174031e-10 0.38268343236513674
  outer loop
    vertex 167.34333308408137 405.32800928543486 154.56177157315906
    vertex 167.3433330830076 395.9280092854345 154.56177157315906
    vertex 167.49318371783835 405.3280092854177 154.20000014081276
  endloop
endfacet
facet normal 0.9238795325112673 -1.0554136128174031e-10 0.38268343236513674
  outer loop
    vertex 167.49318371676458 395.9280092854173 154.20000014081293
    vertex 167.49318371783835 405.3280092854177 154.20000014081276
    vertex 167.3433330830076 395.9280092854345 154.56177157315906
  endloop
endfacet
facet normal 0.7933533402912059 -9.062589595110167e-11 0.6087614290087591
  outer loop
    vertex 167.49318371783835 405.3280092854177 154.20000014081276
    vertex 167.49318371676458 395.9280092854173 154.20000014081293
    vertex 167.73156165173518 405.32800928539046 153.88933996903296
  endloop
endfacet
facet normal 0.7933533402912059 -9.062589595110167e-11 0.6087614290087591
  outer loop
    vertex 167.73156165066138 395.92800928539003 153.88933996903316
    vertex 167.73156165173518 405.32800928539046 153.88933996903296
    vertex 167.49318371676458 395.9280092854173 154.20000014081293
  endloop
endfacet
facet normal 0.6087614290087674 -6.954571540342062e-11 0.7933533402911993
  outer loop
    vertex 167.73156165066138 395.92800928539003 153.88933996903316
    vertex 168.04222182244123 395.92800928535473 153.6509620351362
    vertex 167.73156165173518 405.32800928539046 153.88933996903296
  endloop
endfacet
facet normal 0.6087614290087674 -6.954571540342062e-11 0.7933533402911993
  outer loop
    vertex 168.042221823515 405.3280092853551 153.6509620351362
    vertex 167.73156165173518 405.32800928539046 153.88933996903296
    vertex 168.04222182244123 395.92800928535473 153.6509620351362
  endloop
endfacet
facet normal 0.3826834323650452 -4.3729135163174926e-11 0.9238795325113052
  outer loop
    vertex 168.04222182244123 395.92800928535473 153.6509620351362
    vertex 168.40399325478742 395.92800928531335 153.50111140137926
    vertex 168.042221823515 405.3280092853551 153.6509620351362
  endloop
endfacet
facet normal 0.3826834323650452 -4.3729135163174926e-11 0.9238795325113052
  outer loop
    vertex 168.40399325586122 405.3280092853137 153.50111140137926
    vertex 168.042221823515 405.3280092853551 153.6509620351362
    vertex 168.40399325478742 395.92800928531335 153.50111140137926
  endloop
endfacet
facet normal 0.13052619222007938 -1.491535213091976e-11 0.9914448613738067
  outer loop
    vertex 168.40399325478742 395.92800928531335 153.50111140137926
    vertex 168.79222182244118 395.92800928526896 153.45000014081293
    vertex 168.40399325586122 405.3280092853137 153.50111140137926
  endloop
endfacet
facet normal 0.13052619222007938 -1.491535213091976e-11 0.9914448613738067
  outer loop
    vertex 168.79222182351498 405.32800928526933 153.45000014081276
    vertex 168.40399325586122 405.3280092853137 153.50111140137926
    vertex 168.79222182244118 395.92800928526896 153.45000014081293
  endloop
endfacet
facet normal -0.13052619221989842 1.491553592195182e-11 0.9914448613738307
  outer loop
    vertex 168.79222182244118 395.92800928526896 153.45000014081293
    vertex 169.18045039009496 395.9280092852245 153.50111140137926
    vertex 168.79222182351498 405.32800928526933 153.45000014081276
  endloop
endfacet
facet normal -0.13052619221989842 1.491553592195182e-11 0.9914448613738307
  outer loop
    vertex 169.18045039116876 405.3280092852249 153.50111140137906
    vertex 168.79222182351498 405.32800928526933 153.45000014081276
    vertex 169.18045039009496 395.9280092852245 153.50111140137926
  endloop
endfacet
facet normal -0.3826834323650673 4.370269976247728e-11 0.923879532511296
  outer loop
    vertex 169.18045039009496 395.9280092852245 153.50111140137926
    vertex 169.5422218224412 395.92800928518335 153.65096203513602
    vertex 169.18045039116876 405.3280092852249 153.50111140137906
  endloop
endfacet
facet normal -0.3826834323650673 4.370269976247728e-11 0.923879532511296
  outer loop
    vertex 169.542221823515 405.3280092851838 153.6509620351362
    vertex 169.18045039116876 405.3280092852249 153.50111140137906
    vertex 169.5422218224412 395.92800928518335 153.65096203513602
  endloop
endfacet
facet normal -1.0 1.432837795916454e-10 1.1419879257444116e-10
  outer loop
    vertex 108.04847774284235 402.6280092890106 155.00000014455279
    vertex 108.048477742742 402.5257867678778 154.2235430092452
    vertex 108.04847774291935 402.5257867678778 155.7764572798604
  endloop
endfacet
facet normal -1.0 1.432837795916454e-10 1.1419879257444116e-10
  outer loop
    vertex 108.04847774296778 402.2260855003639 156.5000001445528
    vertex 108.04847774291935 402.5257867678778 155.7764572798604
    vertex 108.048477742742 402.5257867678778 154.2235430092452
  endloop
endfacet
facet normal -1.0 1.432837795916454e-10 1.1419879257444116e-10
  outer loop
    vertex 108.04847774262518 402.2260855003639 153.50000014455279
    vertex 108.04847774296778 402.2260855003639 156.5000001445528
    vertex 108.048477742742 402.5257867678778 154.2235430092452
  endloop
endfacet
facet normal -1.0 1.432837795916454e-10 1.1419879257444116e-10
  outer loop
    vertex 108.04847774298422 401.74932963257015 157.1213204881124
    vertex 108.04847774296778 402.2260855003639 156.5000001445528
    vertex 108.04847774262518 402.2260855003639 153.50000014455279
  endloop
endfacet
facet normal -1.0 1.432837795916454e-10 1.1419879257444116e-10
  outer loop
    vertex 108.04847774249971 401.74932963257015 152.878679800993
    vertex 108.04847774298422 401.74932963257015 157.1213204881124
    vertex 108.04847774262518 402.2260855003639 153.50000014455279
  endloop
endfacet
facet normal -1.0 1.432837795916454e-10 1.1419879257444116e-10
  outer loop
    vertex 108.04847774296775 401.12800928901055 157.59807635590633
    vertex 108.04847774298422 401.74932963257015 157.1213204881124
    vertex 108.04847774249971 401.74932963257015 152.878679800993
  endloop
endfacet
facet normal -1.0 1.432837795916454e-10 1.1419879257444116e-10
  outer loop
    vertex 108.04847774237435 401.12800928901055 152.40192393319964
    vertex 108.04847774296775 401.12800928901055 157.59807635590633
    vertex 108.04847774249971 401.74932963257015 152.878679800993
  endloop
endfacet
facet normal -1.0 1.432837795916454e-10 1.1419879257444116e-10
  outer loop
    vertex 108.04847774291927 400.4044664243182 157.89777762342055
    vertex 108.04847774296775 401.12800928901055 157.59807635590633
    vertex 108.04847774237435 401.12800928901055 152.40192393319964
  endloop
endfacet
facet normal -1.0 1.432837795916454e-10 1.1419879257444116e-10
  outer loop
    vertex 108.04847774225746 400.4044664243182 152.10222266568613
    vertex 108.04847774291927 400.4044664243182 157.89777762342055
    vertex 108.04847774237435 401.12800928901055 152.40192393319964
  endloop
endfacet
facet normal -1.0 1.432837795916454e-10 1.1419879257444116e-10
  outer loop
    vertex 108.04847774283479 400.12800928901123 157.93417389575927
    vertex 108.04847774291927 400.4044664243182 157.89777762342055
    vertex 108.04847774225746 400.4044664243182 152.10222266568613
  endloop
endfacet
facet normal -1.0 1.432837795916454e-10 1.1419879257444116e-10
  outer loop
    vertex 108.04847774216462 400.12800928900987 152.0658263933465
    vertex 108.04847774283479 400.12800928901123 157.93417389575927
    vertex 108.04847774225746 400.4044664243182 152.10222266568613
  endloop
endfacet
facet normal -1.0 1.432837795916454e-10 1.1419879257444116e-10
  outer loop
    vertex 108.04847774274194 399.8515521537029 157.89777762342
    vertex 108.04847774283479 400.12800928901123 157.93417389575927
    vertex 108.04847774216462 400.12800928900987 152.0658263933465
  endloop
endfacet
facet normal -1.0 1.432837795916454e-10 1.1419879257444116e-10
  outer loop
    vertex 108.04847774208012 399.8515521537029 152.1022226656856
    vertex 108.04847774274194 399.8515521537029 157.89777762342
    vertex 108.04847774216462 400.12800928900987 152.0658263933465
  endloop
endfacet
facet normal -1.0 1.432837795916454e-10 1.1419879257444116e-10
  outer loop
    vertex 108.04847774262507 399.12800928901055 157.59807635590616
    vertex 108.04847774274194 399.8515521537029 157.89777762342
    vertex 108.04847774208012 399.8515521537029 152.1022226656856
  endloop
endfacet
facet normal -1.0 1.432837795916454e-10 1.1419879257444116e-10
  outer loop
    vertex 108.04847774203171 399.12800928901055 152.40192393319944
    vertex 108.04847774262507 399.12800928901055 157.59807635590616
    vertex 108.04847774208012 399.8515521537029 152.1022226656856
  endloop
endfacet
facet normal -1.0 1.432837795916454e-10 1.1419879257444116e-10
  outer loop
    vertex 108.04847774249968 398.50668894545095 157.1213204881126
    vertex 108.04847774262507 399.12800928901055 157.59807635590616
    vertex 108.04847774203171 399.12800928901055 152.40192393319944
  endloop
endfacet
facet normal -1.0 1.432837795916454e-10 1.1419879257444116e-10
  outer loop
    vertex 108.04847774201515 398.50668894545095 152.87867980099318
    vertex 108.04847774249968 398.50668894545095 157.1213204881126
    vertex 108.04847774203171 399.12800928901055 152.40192393319944
  endloop
endfacet
facet normal -1.0 1.432837795916454e-10 1.1419879257444116e-10
  outer loop
    vertex 108.04847774237427 398.0299330776572 156.50000014455318
    vertex 108.04847774249968 398.50668894545095 157.1213204881126
    vertex 108.04847774201515 398.50668894545095 152.87867980099318
  endloop
endfacet
facet normal -1.0 1.432837795916454e-10 1.1419879257444116e-10
  outer loop
    vertex 108.04847774203168 398.0299330776572 153.50000014455313
    vertex 108.04847774237427 398.0299330776572 156.50000014455318
    vertex 108.04847774201515 398.50668894545095 152.87867980099318
  endloop
endfacet
facet normal -1.0 1.432837795916454e-10 1.1419879257444116e-10
  outer loop
    vertex 108.04847774225739 397.7302318101433 155.77645727986058
    vertex 108.04847774237427 398.0299330776572 156.50000014455318
    vertex 108.04847774203168 398.0299330776572 153.50000014455313
  endloop
endfacet
facet normal -1.0 1.432837795916454e-10 1.1419879257444116e-10
  outer loop
    vertex 108.04847774208008 397.7302318101433 154.22354300924556
    vertex 108.04847774225739 397.7302318101433 155.77645727986058
    vertex 108.04847774203168 398.0299330776572 153.50000014455313
  endloop
endfacet
facet normal -1.0 1.432837795916454e-10 1.1419879257444116e-10
  outer loop
    vertex 108.04847774215705 397.6280092890105 155.00000014455316
    vertex 108.04847774225739 397.7302318101433 155.77645727986058
    vertex 108.04847774208008 397.7302318101433 154.22354300924556
  endloop
endfacet
facet normal -1.2812698115318442e-10 -0.13052619222003523 -0.9914448613738127
  outer loop
    vertex 108.04847774208012 399.8515521537029 152.1022226656856
    vertex 108.04847774216462 400.12800928900987 152.0658263933465
    vertex 162.78984865120762 399.8515521474502 152.10222265943437
  endloop
endfacet
facet normal -1.2812698115318442e-10 -0.13052619222003523 -0.9914448613738127
  outer loop
    vertex 134.78984865126466 400.1280092863759 152.06582639029352
    vertex 162.78984865120762 399.8515521474502 152.10222265943437
    vertex 108.04847774216462 400.12800928900987 152.0658263933465
  endloop
endfacet
facet normal -1.2812698115318442e-10 -0.13052619222003523 -0.9914448613738127
  outer loop
    vertex 134.78984865125716 400.6280092863766 152.00000014150015
    vertex 162.78984865128467 400.62800928275783 152.0000001383019
    vertex 134.78984865126466 400.1280092863759 152.06582639029352
  endloop
endfacet
facet normal -1.2812698115318442e-10 -0.13052619222003523 -0.9914448613738127
  outer loop
    vertex 162.78984865120762 399.8515521474502 152.10222265943437
    vertex 134.78984865126466 400.1280092863759 152.06582639029352
    vertex 162.78984865128467 400.62800928275783 152.0000001383019
  endloop
endfacet
facet normal -1.4921521201946437e-10 -0.3826834323651156 -0.9238795325112762
  outer loop
    vertex 108.04847774203171 399.12800928901055 152.40192393319944
    vertex 108.04847774208012 399.8515521537029 152.1022226656856
    vertex 162.7898486511592 399.1280092827578 152.40192392694823
  endloop
endfacet
facet normal -1.4921521201946437e-10 -0.3826834323651156 -0.9238795325112762
  outer loop
    vertex 162.78984865120762 399.8515521474502 152.10222265943437
    vertex 162.7898486511592 399.1280092827578 152.40192392694823
    vertex 108.04847774208012 399.8515521537029 152.1022226656856
  endloop
endfacet
facet normal -1.6013253261612735e-10 -0.6087614290087409 -0.7933533402912196
  outer loop
    vertex 108.04847774201515 398.50668894545095 152.87867980099318
    vertex 108.04847774203171 399.12800928901055 152.40192393319944
    vertex 162.7898486511427 398.5066889391982 152.878679794742
  endloop
endfacet
facet normal -1.6013253261612735e-10 -0.6087614290087409 -0.7933533402912196
  outer loop
    vertex 162.7898486511592 399.1280092827578 152.40192392694823
    vertex 162.7898486511427 398.5066889391982 152.878679794742
    vertex 108.04847774203171 399.12800928901055 152.40192393319944
  endloop
endfacet
facet normal -1.6013708574652566e-10 -0.7933533402911961 -0.6087614290087716
  outer loop
    vertex 162.7898486511427 398.5066889391982 152.878679794742
    vertex 162.7898486511592 398.02993307140446 153.50000013830157
    vertex 108.04847774201515 398.50668894545095 152.87867980099318
  endloop
endfacet
facet normal -1.6013708574652566e-10 -0.7933533402911961 -0.6087614290087716
  outer loop
    vertex 108.04847774203168 398.0299330776572 153.50000014455313
    vertex 108.04847774201515 398.50668894545095 152.87867980099318
    vertex 162.7898486511592 398.02993307140446 153.50000013830157
  endloop
endfacet
facet normal -1.4922856112234069e-10 -0.9238795325113007 -0.38268343236505625
  outer loop
    vertex 162.7898486511592 398.02993307140446 153.50000013830157
    vertex 162.78984865120754 397.7302318038906 154.22354300299435
    vertex 108.04847774203168 398.0299330776572 153.50000014455313
  endloop
endfacet
facet normal -1.4922856112234069e-10 -0.9238795325113007 -0.38268343236505625
  outer loop
    vertex 108.04847774208008 397.7302318101433 154.22354300924556
    vertex 108.04847774203168 398.0299330776572 153.50000014455313
    vertex 162.78984865120754 397.7302318038906 154.22354300299435
  endloop
endfacet
facet normal -1.2815035666953632e-10 -0.9914448613738037 -0.13052619222010214
  outer loop
    vertex 162.78984865120754 397.7302318038906 154.22354300299435
    vertex 162.78984865128456 397.6280092827578 155.00000013830177
    vertex 108.04847774208008 397.7302318101433 154.22354300924556
  endloop
endfacet
facet normal -1.2815035666953632e-10 -0.9914448613738037 -0.13052619222010214
  outer loop
    vertex 108.04847774215705 397.6280092890105 155.00000014455316
    vertex 108.04847774208008 397.7302318101433 154.22354300924556
    vertex 162.78984865128456 397.6280092827578 155.00000013830177
  endloop
endfacet
facet normal -9.833891718816226e-11 -0.9914448613738037 0.13052619222010214
  outer loop
    vertex 162.78984865128456 397.6280092827578 155.00000013830177
    vertex 162.78984865138497 397.7302318038906 155.77645727360937
    vertex 108.04847774215705 397.6280092890105 155.00000014455316
  endloop
endfacet
facet normal -9.833891718816226e-11 -0.9914448613738037 0.13052619222010214
  outer loop
    vertex 108.04847774225739 397.7302318101433 155.77645727986058
    vertex 108.04847774215705 397.6280092890105 155.00000014455316
    vertex 162.78984865138497 397.7302318038906 155.77645727360937
  endloop
endfacet
facet normal -6.182584301318247e-11 -0.9238795325113007 0.38268343236505625
  outer loop
    vertex 162.78984865138497 397.7302318038906 155.77645727360937
    vertex 162.78984865150179 398.02993307140446 156.5000001383016
    vertex 108.04847774225739 397.7302318101433 155.77645727986058
  endloop
endfacet
facet normal -6.182584301318247e-11 -0.9238795325113007 0.38268343236505625
  outer loop
    vertex 108.04847774237427 398.0299330776572 156.50000014455318
    vertex 108.04847774225739 397.7302318101433 155.77645727986058
    vertex 162.78984865150179 398.02993307140446 156.5000001383016
  endloop
endfacet
facet normal -2.1099439808863505e-11 -0.7933533402911961 0.6087614290087716
  outer loop
    vertex 162.78984865150179 398.02993307140446 156.5000001383016
    vertex 162.78984865162718 398.5066889391982 157.1213204818612
    vertex 108.04847774237427 398.0299330776572 156.50000014455318
  endloop
endfacet
facet normal -2.1099439808863505e-11 -0.7933533402911961 0.6087614290087716
  outer loop
    vertex 108.04847774249968 398.50668894545095 157.1213204881126
    vertex 108.04847774237427 398.0299330776572 156.50000014455318
    vertex 162.78984865162718 398.5066889391982 157.1213204818612
  endloop
endfacet
facet normal 2.1064855349927246e-11 -0.6087614290087409 0.7933533402912196
  outer loop
    vertex 108.04847774249968 398.50668894545095 157.1213204881126
    vertex 162.78984865162718 398.5066889391982 157.1213204818612
    vertex 108.04847774262507 399.12800928901055 157.59807635590616
  endloop
endfacet
facet normal 2.1064855349927246e-11 -0.6087614290087409 0.7933533402912196
  outer loop
    vertex 162.7898486517526 399.1280092827578 157.59807634965475
    vertex 108.04847774262507 399.12800928901055 157.59807635590616
    vertex 162.78984865162718 398.5066889391982 157.1213204818612
  endloop
endfacet
facet normal 6.179361542795386e-11 -0.3826834323651156 0.9238795325112762
  outer loop
    vertex 108.04847774262507 399.12800928901055 157.59807635590616
    vertex 162.7898486517526 399.1280092827578 157.59807634965475
    vertex 108.04847774274194 399.8515521537029 157.89777762342
  endloop
endfacet
facet normal 6.179361542795386e-11 -0.3826834323651156 0.9238795325112762
  outer loop
    vertex 162.78984865186948 399.8515521474502 157.8977776171688
    vertex 108.04847774274194 399.8515521537029 157.89777762342
    vertex 162.7898486517526 399.1280092827578 157.59807634965475
  endloop
endfacet
facet normal 9.831116625999294e-11 -0.13052619222002457 0.991444861373814
  outer loop
    vertex 108.04847774274194 399.8515521537029 157.89777762342
    vertex 162.78984865186948 399.8515521474502 157.8977776171688
    vertex 108.04847774283479 400.12800928901123 157.93417389575927
  endloop
endfacet
facet normal 9.831116625999294e-11 -0.13052619222002457 0.991444861373814
  outer loop
    vertex 134.78984865193485 400.12800928637733 157.93417389270633
    vertex 108.04847774283479 400.12800928901123 157.93417389575927
    vertex 162.78984865186948 399.8515521474502 157.8977776171688
  endloop
endfacet
facet normal 9.831116625999294e-11 -0.13052619222002457 0.991444861373814
  outer loop
    vertex 134.78984865194235 400.6280092863766 158.00000014150024
    vertex 134.78984865193485 400.12800928637733 157.93417389270633
    vertex 162.78984865186948 399.8515521474502 157.8977776171688
  endloop
endfacet
facet normal 9.831116625999294e-11 -0.13052619222002457 0.991444861373814
  outer loop
    vertex 162.78984865196983 400.62800928275783 158.0000001383018
    vertex 134.78984865194235 400.6280092863766 158.00000014150024
    vertex 162.78984865186948 399.8515521474502 157.8977776171688
  endloop
endfacet
facet normal 1.0 -1.034444627385845e-10 -7.837199167614024e-11
  outer loop
    vertex 180.2898486527008 404.3280092810486 155.00000013726728
    vertex 180.28984865247247 401.3280092810489 152.00000013726742
    vertex 180.2898486527009 405.3280092810492 150.30000013726706
  endloop
endfacet
facet normal 1.0 -1.034444627385845e-10 -7.837199167614024e-11
  outer loop
    vertex 180.28984865055364 395.92800928104907 150.30000013726706
    vertex 180.2898486527009 405.3280092810492 150.30000013726706
    vertex 180.28984865247247 401.3280092810489 152.00000013726742
  endloop
endfacet
facet normal 1.0 -1.034444627385845e-10 -7.837199167614024e-11
  outer loop
    vertex 180.28984865270067 395.92800928104907 159.7000001372671
    vertex 180.28984865247247 401.32800928104894 158.0000001372673
    vertex 180.28984865270087 405.3280092810493 159.7000001372671
  endloop
endfacet
facet normal 1.0 -1.034444627385845e-10 -7.837199167614024e-11
  outer loop
    vertex 180.2898486527008 404.3280092810486 155.00000013726728
    vertex 180.28984865270087 405.3280092810493 159.7000001372671
    vertex 180.28984865247247 401.32800928104894 158.0000001372673
  endloop
endfacet
facet normal 1.0 -1.034444627385845e-10 -7.837199167614024e-11
  outer loop
    vertex 180.2898486527009 405.3280092810492 150.30000013726706
    vertex 180.28984865270087 405.3280092810493 159.7000001372671
    vertex 180.2898486527008 404.3280092810486 155.00000013726728
  endloop
endfacet
facet normal 1.0 -1.034444627385845e-10 -7.837199167614024e-11
  outer loop
    vertex 180.28984865247247 401.3280092810489 152.00000013726742
    vertex 180.28984865247247 401.32800928104894 158.0000001372673
    vertex 180.28984865270067 395.92800928104907 159.7000001372671
  endloop
endfacet
facet normal 1.0 -1.034444627385845e-10 -7.837199167614024e-11
  outer loop
    vertex 180.28984865055364 395.92800928104907 150.30000013726706
    vertex 180.28984865247247 401.3280092810489 152.00000013726742
    vertex 180.28984865270067 395.92800928104907 159.7000001372671
  endloop
endfacet
facet normal 1.0 -7.613948915796599e-11 -2.424553849108066e-16
  outer loop
    vertex 178.28984868996102 404.32800928193586 155.00000013937742
    vertex 178.28984868973262 401.3280092819362 158.00000013937765
    vertex 178.28984868973262 401.3280092819361 152.00000013937773
  endloop
endfacet
facet normal 7.613948915796599e-11 1.0 0.0
  outer loop
    vertex 180.28984865247247 401.3280092810489 152.00000013726742
    vertex 178.28984868973262 401.3280092819361 152.00000013937773
    vertex 180.28984865247247 401.32800928104894 158.0000001372673
  endloop
endfacet
facet normal 7.613948915796599e-11 1.0 0.0
  outer loop
    vertex 178.28984868973262 401.3280092819362 158.00000013937765
    vertex 180.28984865247247 401.32800928104894 158.0000001372673
    vertex 178.28984868973262 401.3280092819361 152.00000013937773
  endloop
endfacet
facet normal -5.383892054152639e-11 -0.7071067811865768 -0.7071067811865184
  outer loop
    vertex 180.2898486527008 404.3280092810486 155.00000013726728
    vertex 180.28984865247247 401.32800928104894 158.0000001372673
    vertex 178.28984868996102 404.32800928193586 155.00000013937742
  endloop
endfacet
facet normal -5.383892054152639e-11 -0.7071067811865768 -0.7071067811865184
  outer loop
    vertex 178.28984868973262 401.3280092819362 158.00000013937765
    vertex 178.28984868996102 404.32800928193586 155.00000013937742
    vertex 180.28984865247247 401.32800928104894 158.0000001372673
  endloop
endfacet
facet normal -5.3838577657833e-11 -0.7071067811865795 0.7071067811865157
  outer loop
    vertex 180.28984865247247 401.3280092810489 152.00000013726742
    vertex 180.2898486527008 404.3280092810486 155.00000013726728
    vertex 178.28984868973262 401.3280092819361 152.00000013937773
  endloop
endfacet
facet normal -5.3838577657833e-11 -0.7071067811865795 0.7071067811865157
  outer loop
    vertex 178.28984868996102 404.32800928193586 155.00000013937742
    vertex 178.28984868973262 401.3280092819361 152.00000013937773
    vertex 180.2898486527008 404.3280092810486 155.00000013726728
  endloop
endfacet
facet normal 1.3977198677841725e-10 1.0 1.04005172725586e-10
  outer loop
    vertex 162.78984865216407 405.3280092827578 150.30000013830139
    vertex 169.542221823515 405.3280092851838 153.6509620351362
    vertex 180.2898486527009 405.3280092810492 150.30000013726706
  endloop
endfacet
facet normal 1.3977198677841725e-10 1.0 1.04005172725586e-10
  outer loop
    vertex 180.28984865270087 405.3280092810493 159.7000001372671
    vertex 180.2898486527009 405.3280092810492 150.30000013726706
    vertex 169.542221823515 405.3280092851838 153.6509620351362
  endloop
endfacet
facet normal 1.3977198677841725e-10 1.0 1.04005172725586e-10
  outer loop
    vertex 169.18045039116876 405.3280092852249 153.50111140137906
    vertex 169.542221823515 405.3280092851838 153.6509620351362
    vertex 162.78984865216407 405.3280092827578 150.30000013830139
  endloop
endfacet
facet normal 1.3977198677841725e-10 1.0 1.04005172725586e-10
  outer loop
    vertex 168.79222182351498 405.32800928526933 153.45000014081276
    vertex 169.18045039116876 405.3280092852249 153.50111140137906
    vertex 162.78984865216407 405.3280092827578 150.30000013830139
  endloop
endfacet
facet normal 1.3977198677841725e-10 1.0 1.04005172725586e-10
  outer loop
    vertex 169.85288199529484 405.3280092851482 153.88933996903296
    vertex 180.28984865270087 405.3280092810493 159.7000001372671
    vertex 169.542221823515 405.3280092851838 153.6509620351362
  endloop
endfacet
facet normal 1.3977198677841725e-10 1.0 1.04005172725586e-10
  outer loop
    vertex 170.09125992919164 405.32800928512097 154.20000014081276
    vertex 180.28984865270087 405.3280092810493 159.7000001372671
    vertex 169.85288199529484 405.3280092851482 153.88933996903296
  endloop
endfacet
facet normal 1.3977198677841725e-10 1.0 1.04005172725586e-10
  outer loop
    vertex 170.24111056294856 405.32800928510386 154.56177157315886
    vertex 180.28984865270087 405.3280092810493 159.7000001372671
    vertex 170.09125992919164 405.32800928512097 154.20000014081276
  endloop
endfacet
facet normal 1.3977198677841725e-10 1.0 1.04005172725586e-10
  outer loop
    vertex 170.29222182351498 405.32800928509806 154.95000014081276
    vertex 180.28984865270087 405.3280092810493 159.7000001372671
    vertex 170.24111056294856 405.32800928510386 154.56177157315886
  endloop
endfacet
facet normal 1.3977198677841725e-10 1.0 1.04005172725586e-10
  outer loop
    vertex 170.24111056294862 405.3280092851038 155.3382287084665
    vertex 180.28984865270087 405.3280092810493 159.7000001372671
    vertex 170.29222182351498 405.32800928509806 154.95000014081276
  endloop
endfacet
facet normal 1.3977198677841725e-10 1.0 1.04005172725586e-10
  outer loop
    vertex 170.09125992919164 405.32800928512097 155.7000001408128
    vertex 180.28984865270087 405.3280092810493 159.7000001372671
    vertex 170.24111056294862 405.3280092851038 155.3382287084665
  endloop
endfacet
facet normal 1.3977198677841725e-10 1.0 1.04005172725586e-10
  outer loop
    vertex 169.8528819952948 405.3280092851482 156.01066031259256
    vertex 180.28984865270087 405.3280092810493 159.7000001372671
    vertex 170.09125992919164 405.32800928512097 155.7000001408128
  endloop
endfacet
facet normal 1.3977198677841725e-10 1.0 1.04005172725586e-10
  outer loop
    vertex 169.54222182351498 405.32800928518355 156.24903824648936
    vertex 180.28984865270087 405.3280092810493 159.7000001372671
    vertex 169.8528819952948 405.3280092851482 156.01066031259256
  endloop
endfacet
facet normal 1.3977198677841725e-10 1.0 1.04005172725586e-10
  outer loop
    vertex 169.18045039116876 405.3280092852249 156.3988888802463
    vertex 180.28984865270087 405.3280092810493 159.7000001372671
    vertex 169.54222182351498 405.32800928518355 156.24903824648936
  endloop
endfacet
facet normal 1.3977198677841725e-10 1.0 1.04005172725586e-10
  outer loop
    vertex 168.79222182351498 405.32800928526933 156.4500001408128
    vertex 180.28984865270087 405.3280092810493 159.7000001372671
    vertex 169.18045039116876 405.3280092852249 156.3988888802463
  endloop
endfacet
facet normal 1.3977198677841725e-10 1.0 1.04005172725586e-10
  outer loop
    vertex 162.78984865216407 405.3280092827578 159.70000013830142
    vertex 167.73156165173518 405.32800928539046 153.88933996903296
    vertex 162.78984865216407 405.3280092827578 150.30000013830139
  endloop
endfacet
facet normal 1.3977198677841725e-10 1.0 1.04005172725586e-10
  outer loop
    vertex 168.042221823515 405.3280092853551 153.6509620351362
    vertex 162.78984865216407 405.3280092827578 150.30000013830139
    vertex 167.73156165173518 405.32800928539046 153.88933996903296
  endloop
endfacet
facet normal 1.3977198677841725e-10 1.0 1.04005172725586e-10
  outer loop
    vertex 168.40399325586122 405.3280092853137 153.50111140137926
    vertex 162.78984865216407 405.3280092827578 150.30000013830139
    vertex 168.042221823515 405.3280092853551 153.6509620351362
  endloop
endfacet
facet normal 1.3977198677841725e-10 1.0 1.04005172725586e-10
  outer loop
    vertex 168.79222182351498 405.32800928526933 153.45000014081276
    vertex 162.78984865216407 405.3280092827578 150.30000013830139
    vertex 168.40399325586122 405.3280092853137 153.50111140137926
  endloop
endfacet
facet normal 1.3977198677841725e-10 1.0 1.04005172725586e-10
  outer loop
    vertex 167.49318371783835 405.3280092854177 154.20000014081276
    vertex 167.73156165173518 405.32800928539046 153.88933996903296
    vertex 162.78984865216407 405.3280092827578 159.70000013830142
  endloop
endfacet
facet normal 1.3977198677841725e-10 1.0 1.04005172725586e-10
  outer loop
    vertex 167.34333308408137 405.32800928543486 154.56177157315906
    vertex 167.49318371783835 405.3280092854177 154.20000014081276
    vertex 162.78984865216407 405.3280092827578 159.70000013830142
  endloop
endfacet
facet normal 1.3977198677841725e-10 1.0 1.04005172725586e-10
  outer loop
    vertex 167.29222182351498 405.3280092854406 154.95000014081276
    vertex 167.34333308408137 405.32800928543486 154.56177157315906
    vertex 162.78984865216407 405.3280092827578 159.70000013830142
  endloop
endfacet
facet normal 1.3977198677841725e-10 1.0 1.04005172725586e-10
  outer loop
    vertex 167.34333308408142 405.32800928543486 155.33822870846666
    vertex 167.29222182351498 405.3280092854406 154.95000014081276
    vertex 162.78984865216407 405.3280092827578 159.70000013830142
  endloop
endfacet
facet normal 1.3977198677841725e-10 1.0 1.04005172725586e-10
  outer loop
    vertex 167.49318371783835 405.3280092854177 155.7000001408128
    vertex 167.34333308408142 405.32800928543486 155.33822870846666
    vertex 162.78984865216407 405.3280092827578 159.70000013830142
  endloop
endfacet
facet normal 1.3977198677841725e-10 1.0 1.04005172725586e-10
  outer loop
    vertex 167.73156165173518 405.32800928539046 156.01066031259256
    vertex 167.49318371783835 405.3280092854177 155.7000001408128
    vertex 162.78984865216407 405.3280092827578 159.70000013830142
  endloop
endfacet
facet normal 1.3977198677841725e-10 1.0 1.04005172725586e-10
  outer loop
    vertex 168.042221823515 405.32800928535494 156.24903824648936
    vertex 167.73156165173518 405.32800928539046 156.01066031259256
    vertex 162.78984865216407 405.3280092827578 159.70000013830142
  endloop
endfacet
facet normal 1.3977198677841725e-10 1.0 1.04005172725586e-10
  outer loop
    vertex 168.40399325586122 405.3280092853138 156.39888888024646
    vertex 168.042221823515 405.32800928535494 156.24903824648936
    vertex 162.78984865216407 405.3280092827578 159.70000013830142
  endloop
endfacet
facet normal 1.3977198677841725e-10 1.0 1.04005172725586e-10
  outer loop
    vertex 168.79222182351498 405.32800928526933 156.4500001408128
    vertex 168.40399325586122 405.3280092853138 156.39888888024646
    vertex 162.78984865216407 405.3280092827578 159.70000013830142
  endloop
endfacet
facet normal 1.3977198677841725e-10 1.0 1.04005172725586e-10
  outer loop
    vertex 180.28984865270087 405.3280092810493 159.7000001372671
    vertex 168.79222182351498 405.32800928526933 156.4500001408128
    vertex 162.78984865216407 405.3280092827578 159.70000013830142
  endloop
endfacet
facet normal -2.1519198258104403e-10 -1.0 -4.3849177747232914e-11
  outer loop
    vertex 168.79222182244118 395.92800928526896 153.45000014081293
    vertex 168.40399325478742 395.92800928531335 153.50111140137926
    vertex 162.78984865001684 395.9280092827576 150.30000013830158
  endloop
endfacet
facet normal -2.1519198258104403e-10 -1.0 -4.3849177747232914e-11
  outer loop
    vertex 168.04222182244123 395.92800928535473 153.6509620351362
    vertex 162.78984865001684 395.9280092827576 150.30000013830158
    vertex 168.40399325478742 395.92800928531335 153.50111140137926
  endloop
endfacet
facet normal -2.1519198258104403e-10 -1.0 -4.3849177747232914e-11
  outer loop
    vertex 167.73156165066138 395.92800928539003 153.88933996903316
    vertex 162.78984865001684 395.9280092827576 150.30000013830158
    vertex 168.04222182244123 395.92800928535473 153.6509620351362
  endloop
endfacet
facet normal -2.1519198258104403e-10 -1.0 -4.3849177747232914e-11
  outer loop
    vertex 162.78984865216387 395.9280092827576 159.7000001383016
    vertex 162.78984865001684 395.9280092827576 150.30000013830158
    vertex 167.73156165066138 395.92800928539003 153.88933996903316
  endloop
endfacet
facet normal -2.1519198258104403e-10 -1.0 -4.3849177747232914e-11
  outer loop
    vertex 167.49318371676458 395.9280092854173 154.20000014081293
    vertex 162.78984865216387 395.9280092827576 159.7000001383016
    vertex 167.73156165066138 395.92800928539003 153.88933996903316
  endloop
endfacet
facet normal -2.1519198258104403e-10 -1.0 -4.3849177747232914e-11
  outer loop
    vertex 167.3433330830076 395.9280092854345 154.56177157315906
    vertex 162.78984865216387 395.9280092827576 159.7000001383016
    vertex 167.49318371676458 395.9280092854173 154.20000014081293
  endloop
endfacet
facet normal -2.1519198258104403e-10 -1.0 -4.3849177747232914e-11
  outer loop
    vertex 167.2922218224412 395.9280092854402 154.95000014081296
    vertex 162.78984865216387 395.9280092827576 159.7000001383016
    vertex 167.3433330830076 395.9280092854345 154.56177157315906
  endloop
endfacet
facet normal -2.1519198258104403e-10 -1.0 -4.3849177747232914e-11
  outer loop
    vertex 167.34333308300762 395.9280092854345 155.33822870846666
    vertex 162.78984865216387 395.9280092827576 159.7000001383016
    vertex 167.2922218224412 395.9280092854402 154.95000014081296
  endloop
endfacet
facet normal -2.1519198258104403e-10 -1.0 -4.3849177747232914e-11
  outer loop
    vertex 167.49318371676458 395.9280092854173 155.70000014081296
    vertex 162.78984865216387 395.9280092827576 159.7000001383016
    vertex 167.34333308300762 395.9280092854345 155.33822870846666
  endloop
endfacet
facet normal -2.1519198258104403e-10 -1.0 -4.3849177747232914e-11
  outer loop
    vertex 167.73156165066138 395.92800928539003 156.01066031259276
    vertex 162.78984865216387 395.9280092827576 159.7000001383016
    vertex 167.49318371676458 395.9280092854173 155.70000014081296
  endloop
endfacet
facet normal -2.1519198258104403e-10 -1.0 -4.3849177747232914e-11
  outer loop
    vertex 168.0422218224412 395.92800928535456 156.24903824648953
    vertex 162.78984865216387 395.9280092827576 159.7000001383016
    vertex 167.73156165066138 395.92800928539003 156.01066031259276
  endloop
endfacet
facet normal -2.1519198258104403e-10 -1.0 -4.3849177747232914e-11
  outer loop
    vertex 168.40399325478742 395.92800928531335 156.39888888024646
    vertex 162.78984865216387 395.9280092827576 159.7000001383016
    vertex 168.0422218224412 395.92800928535456 156.24903824648953
  endloop
endfacet
facet normal -2.1519198258104403e-10 -1.0 -4.3849177747232914e-11
  outer loop
    vertex 168.79222182244118 395.92800928526896 156.4500001408128
    vertex 162.78984865216387 395.9280092827576 159.7000001383016
    vertex 168.40399325478742 395.92800928531335 156.39888888024646
  endloop
endfacet
facet normal -2.1519198258104403e-10 -1.0 -4.3849177747232914e-11
  outer loop
    vertex 180.28984865270067 395.92800928104907 159.7000001372671
    vertex 162.78984865216387 395.9280092827576 159.7000001383016
    vertex 168.79222182244118 395.92800928526896 156.4500001408128
  endloop
endfacet
facet normal -2.1519198258104403e-10 -1.0 -4.3849177747232914e-11
  outer loop
    vertex 180.28984865270067 395.92800928104907 159.7000001372671
    vertex 169.5422218224412 395.92800928518335 153.65096203513602
    vertex 180.28984865055364 395.92800928104907 150.30000013726706
  endloop
endfacet
facet normal -2.1519198258104403e-10 -1.0 -4.3849177747232914e-11
  outer loop
    vertex 162.78984865001684 395.9280092827576 150.30000013830158
    vertex 180.28984865055364 395.92800928104907 150.30000013726706
    vertex 169.5422218224412 395.92800928518335 153.65096203513602
  endloop
endfacet
facet normal -2.1519198258104403e-10 -1.0 -4.3849177747232914e-11
  outer loop
    vertex 169.18045039009496 395.9280092852245 153.50111140137926
    vertex 162.78984865001684 395.9280092827576 150.30000013830158
    vertex 169.5422218224412 395.92800928518335 153.65096203513602
  endloop
endfacet
facet normal -2.1519198258104403e-10 -1.0 -4.3849177747232914e-11
  outer loop
    vertex 168.79222182244118 395.92800928526896 153.45000014081293
    vertex 162.78984865001684 395.9280092827576 150.30000013830158
    vertex 169.18045039009496 395.9280092852245 153.50111140137926
  endloop
endfacet
facet normal -2.1519198258104403e-10 -1.0 -4.3849177747232914e-11
  outer loop
    vertex 169.85288199422104 395.9280092851478 153.8893399690328
    vertex 169.5422218224412 395.92800928518335 153.65096203513602
    vertex 180.28984865270067 395.92800928104907 159.7000001372671
  endloop
endfacet
facet normal -2.1519198258104403e-10 -1.0 -4.3849177747232914e-11
  outer loop
    vertex 170.09125992811786 395.9280092851206 154.2000001408126
    vertex 169.85288199422104 395.9280092851478 153.8893399690328
    vertex 180.28984865270067 395.92800928104907 159.7000001372671
  endloop
endfacet
facet normal -2.1519198258104403e-10 -1.0 -4.3849177747232914e-11
  outer loop
    vertex 170.2411105618748 395.9280092851035 154.56177157315886
    vertex 170.09125992811786 395.9280092851206 154.2000001408126
    vertex 180.28984865270067 395.92800928104907 159.7000001372671
  endloop
endfacet
facet normal -2.1519198258104403e-10 -1.0 -4.3849177747232914e-11
  outer loop
    vertex 170.2922218224412 395.92800928509763 154.9500001408126
    vertex 170.2411105618748 395.9280092851035 154.56177157315886
    vertex 180.28984865270067 395.92800928104907 159.7000001372671
  endloop
endfacet
facet normal -2.1519198258104403e-10 -1.0 -4.3849177747232914e-11
  outer loop
    vertex 170.24111056187482 395.9280092851034 155.3382287084665
    vertex 170.2922218224412 395.92800928509763 154.9500001408126
    vertex 180.28984865270067 395.92800928104907 159.7000001372671
  endloop
endfacet
facet normal -2.1519198258104403e-10 -1.0 -4.3849177747232914e-11
  outer loop
    vertex 170.09125992811786 395.9280092851206 155.7000001408126
    vertex 170.24111056187482 395.9280092851034 155.3382287084665
    vertex 180.28984865270067 395.92800928104907 159.7000001372671
  endloop
endfacet
facet normal -2.1519198258104403e-10 -1.0 -4.3849177747232914e-11
  outer loop
    vertex 169.85288199422104 395.9280092851478 156.01066031259256
    vertex 170.09125992811786 395.9280092851206 155.7000001408126
    vertex 180.28984865270067 395.92800928104907 159.7000001372671
  endloop
endfacet
facet normal -2.1519198258104403e-10 -1.0 -4.3849177747232914e-11
  outer loop
    vertex 169.5422218224412 395.9280092851832 156.24903824648936
    vertex 169.85288199422104 395.9280092851478 156.01066031259256
    vertex 180.28984865270067 395.92800928104907 159.7000001372671
  endloop
endfacet
facet normal -2.1519198258104403e-10 -1.0 -4.3849177747232914e-11
  outer loop
    vertex 169.18045039009496 395.9280092852245 156.39888888024646
    vertex 169.5422218224412 395.9280092851832 156.24903824648936
    vertex 180.28984865270067 395.92800928104907 159.7000001372671
  endloop
endfacet
facet normal -2.1519198258104403e-10 -1.0 -4.3849177747232914e-11
  outer loop
    vertex 168.79222182244118 395.92800928526896 156.4500001408128
    vertex 169.18045039009496 395.9280092852245 156.39888888024646
    vertex 180.28984865270067 395.92800928104907 159.7000001372671
  endloop
endfacet
facet normal 1.4922856112234069e-10 0.9238795325113007 0.38268343236505625
  outer loop
    vertex 162.7898486520469 403.525786761625 155.776457273609
    vertex 134.7898486520194 403.5257867652438 155.77645727680743
    vertex 162.7898486520953 403.2260854941112 156.50000013830143
  endloop
endfacet
facet normal 1.4922856112234069e-10 0.9238795325113007 0.38268343236505625
  outer loop
    vertex 134.78984865206786 403.22608549773 156.50000014149987
    vertex 162.7898486520953 403.2260854941112 156.50000013830143
    vertex 134.7898486520194 403.5257867652438 155.77645727680743
  endloop
endfacet
facet normal 1.2815035666953632e-10 0.9914448613738037 0.13052619222010214
  outer loop
    vertex 162.7898486519699 403.6280092827579 155.0000001383016
    vertex 134.78984865194244 403.6280092863767 155.00000014149984
    vertex 162.7898486520469 403.525786761625 155.776457273609
  endloop
endfacet
facet normal 1.2815035666953632e-10 0.9914448613738037 0.13052619222010214
  outer loop
    vertex 134.7898486520194 403.5257867652438 155.77645727680743
    vertex 162.7898486520469 403.525786761625 155.776457273609
    vertex 134.78984865194244 403.6280092863767 155.00000014149984
  endloop
endfacet
facet normal 9.833891718816226e-11 0.9914448613738037 -0.13052619222010214
  outer loop
    vertex 162.78984865186953 403.525786761625 154.22354300299398
    vertex 134.7898486518421 403.5257867652439 154.22354300619224
    vertex 162.7898486519699 403.6280092827579 155.0000001383016
  endloop
endfacet
facet normal 9.833891718816226e-11 0.9914448613738037 -0.13052619222010214
  outer loop
    vertex 134.78984865194244 403.6280092863767 155.00000014149984
    vertex 162.7898486519699 403.6280092827579 155.0000001383016
    vertex 134.7898486518421 403.5257867652439 154.22354300619224
  endloop
endfacet
facet normal -6.179361542795386e-11 0.3826834323651156 -0.9238795325112762
  outer loop
    vertex 134.78984865135754 401.4044664216842 152.10222266263298
    vertex 134.78984865147441 402.12800928637665 152.4019239301465
    vertex 162.78984865138503 401.4044664180654 152.10222265943457
  endloop
endfacet
facet normal -6.179361542795386e-11 0.3826834323651156 -0.9238795325112762
  outer loop
    vertex 162.7898486515019 402.12800928275783 152.40192392694823
    vertex 162.78984865138503 401.4044664180654 152.10222265943457
    vertex 134.78984865147441 402.12800928637665 152.4019239301465
  endloop
endfacet
facet normal 1.6013253261612735e-10 0.6087614290087409 0.7933533402912196
  outer loop
    vertex 134.78984865206786 402.12800928637665 157.59807635285318
    vertex 162.7898486520953 402.12800928275783 157.59807634965475
    vertex 134.78984865208434 402.7493296299362 157.12132048505944
  endloop
endfacet
facet normal 1.6013253261612735e-10 0.6087614290087409 0.7933533402912196
  outer loop
    vertex 162.7898486521118 402.74932962631743 157.121320481861
    vertex 134.78984865208434 402.7493296299362 157.12132048505944
    vertex 162.7898486520953 402.12800928275783 157.59807634965475
  endloop
endfacet
facet normal 1.6013708574652566e-10 0.7933533402911961 0.6087614290087716
  outer loop
    vertex 162.7898486520953 403.2260854941112 156.50000013830143
    vertex 134.78984865206786 403.22608549773 156.50000014149987
    vertex 162.7898486521118 402.74932962631743 157.121320481861
  endloop
endfacet
facet normal 1.6013708574652566e-10 0.7933533402911961 0.6087614290087716
  outer loop
    vertex 134.78984865208434 402.7493296299362 157.12132048505944
    vertex 162.7898486521118 402.74932962631743 157.121320481861
    vertex 134.78984865206786 403.22608549773 156.50000014149987
  endloop
endfacet
facet normal -9.831124273334897e-11 0.13052619222003808 -0.9914448613738123
  outer loop
    vertex 134.78984865125716 400.6280092863766 152.00000014150015
    vertex 134.78984865135754 401.4044664216842 152.10222266263298
    vertex 162.78984865128467 400.62800928275783 152.0000001383019
  endloop
endfacet
facet normal -9.831124273334897e-11 0.13052619222003808 -0.9914448613738123
  outer loop
    vertex 162.78984865138503 401.4044664180654 152.10222265943457
    vertex 162.78984865128467 400.62800928275783 152.0000001383019
    vertex 134.78984865135754 401.4044664216842 152.10222266263298
  endloop
endfacet
facet normal 6.182584301318247e-11 0.9238795325113007 -0.38268343236505625
  outer loop
    vertex 162.7898486517527 403.22608549411115 153.50000013830157
    vertex 134.78984865172526 403.22608549772997 153.5000001414998
    vertex 162.78984865186953 403.525786761625 154.22354300299398
  endloop
endfacet
facet normal 6.182584301318247e-11 0.9238795325113007 -0.38268343236505625
  outer loop
    vertex 134.7898486518421 403.5257867652439 154.22354300619224
    vertex 162.78984865186953 403.525786761625 154.22354300299398
    vertex 134.78984865172526 403.22608549772997 153.5000001414998
  endloop
endfacet
facet normal 2.1099439808863505e-11 0.7933533402911961 -0.6087614290087716
  outer loop
    vertex 162.78984865162732 402.74932962631743 152.8786797947418
    vertex 134.7898486515998 402.7493296299362 152.87867979794007
    vertex 162.7898486517527 403.22608549411115 153.50000013830157
  endloop
endfacet
facet normal 2.1099439808863505e-11 0.7933533402911961 -0.6087614290087716
  outer loop
    vertex 134.78984865172526 403.22608549772997 153.5000001414998
    vertex 162.7898486517527 403.22608549411115 153.50000013830157
    vertex 134.7898486515998 402.7493296299362 152.87867979794007
  endloop
endfacet
facet normal -2.1064855349927246e-11 0.6087614290087409 -0.7933533402912196
  outer loop
    vertex 134.78984865147441 402.12800928637665 152.4019239301465
    vertex 134.7898486515998 402.7493296299362 152.87867979794007
    vertex 162.7898486515019 402.12800928275783 152.40192392694823
  endloop
endfacet
facet normal -2.1064855349927246e-11 0.6087614290087409 -0.7933533402912196
  outer loop
    vertex 162.78984865162732 402.74932962631743 152.8786797947418
    vertex 162.7898486515019 402.12800928275783 152.40192392694823
    vertex 134.7898486515998 402.7493296299362 152.87867979794007
  endloop
endfacet
facet normal 1.4921521201946437e-10 0.3826834323651156 0.9238795325112762
  outer loop
    vertex 134.78984865201937 401.4044664216842 157.8977776203674
    vertex 162.78984865204683 401.4044664180654 157.89777761716897
    vertex 134.78984865206786 402.12800928637665 157.59807635285318
  endloop
endfacet
facet normal 1.4921521201946437e-10 0.3826834323651156 0.9238795325112762
  outer loop
    vertex 162.7898486520953 402.12800928275783 157.59807634965475
    vertex 134.78984865206786 402.12800928637665 157.59807635285318
    vertex 162.78984865204683 401.4044664180654 157.89777761716897
  endloop
endfacet
facet normal 1.2812912131346777e-10 0.13052619222003808 0.9914448613738123
  outer loop
    vertex 134.78984865194235 400.6280092863766 158.00000014150024
    vertex 162.78984865196983 400.62800928275783 158.0000001383018
    vertex 134.78984865201937 401.4044664216842 157.8977776203674
  endloop
endfacet
facet normal 1.2812912131346777e-10 0.13052619222003808 0.9914448613738123
  outer loop
    vertex 162.78984865204683 401.4044664180654 157.89777761716897
    vertex 134.78984865201937 401.4044664216842 157.8977776203674
    vertex 162.78984865196983 400.62800928275783 158.0000001383018
  endloop
endfacet
facet normal -1.0 9.849870160297097e-11 1.1419911176049152e-10
  outer loop
    vertex 134.78984865194244 403.6280092863767 155.00000014149984
    vertex 134.7898486518421 403.5257867652439 154.22354300619224
    vertex 134.7898486520194 403.5257867652438 155.77645727680743
  endloop
endfacet
facet normal -1.0 9.849870160297097e-11 1.1419911176049152e-10
  outer loop
    vertex 134.78984865172526 403.22608549772997 153.5000001414998
    vertex 134.7898486520194 403.5257867652438 155.77645727680743
    vertex 134.7898486518421 403.5257867652439 154.22354300619224
  endloop
endfacet
facet normal -1.0 9.849870160297097e-11 1.1419911176049152e-10
  outer loop
    vertex 134.78984865206786 403.22608549773 156.50000014149987
    vertex 134.7898486520194 403.5257867652438 155.77645727680743
    vertex 134.78984865172526 403.22608549772997 153.5000001414998
  endloop
endfacet
facet normal -1.0 9.849870160297097e-11 1.1419911176049152e-10
  outer loop
    vertex 134.78984865208434 402.7493296299362 157.12132048505944
    vertex 134.78984865206786 403.22608549773 156.50000014149987
    vertex 134.78984865172526 403.22608549772997 153.5000001414998
  endloop
endfacet
facet normal -1.0 9.849870160297097e-11 1.1419911176049152e-10
  outer loop
    vertex 134.7898486515998 402.7493296299362 152.87867979794007
    vertex 134.78984865208434 402.7493296299362 157.12132048505944
    vertex 134.78984865172526 403.22608549772997 153.5000001414998
  endloop
endfacet
facet normal -1.0 9.849870160297097e-11 1.1419911176049152e-10
  outer loop
    vertex 134.7898486519424 402.62800928637665 155.00000014149984
    vertex 134.78984865208434 402.7493296299362 157.12132048505944
    vertex 134.7898486515998 402.7493296299362 152.87867979794007
  endloop
endfacet
facet normal -1.0 9.849870160297097e-11 1.1419911176049152e-10
  outer loop
    vertex 134.7898486520194 402.5257867652438 155.77645727680743
    vertex 134.78984865208434 402.7493296299362 157.12132048505944
    vertex 134.7898486519424 402.62800928637665 155.00000014149984
  endloop
endfacet
facet normal -1.0 9.849870160297097e-11 1.1419911176049152e-10
  outer loop
    vertex 134.78984865206786 402.12800928637665 157.59807635285318
    vertex 134.78984865208434 402.7493296299362 157.12132048505944
    vertex 134.7898486520194 402.5257867652438 155.77645727680743
  endloop
endfacet
facet normal -1.0 9.849870160297097e-11 1.1419911176049152e-10
  outer loop
    vertex 134.78984865206786 402.22608549772997 156.50000014149987
    vertex 134.78984865206786 402.12800928637665 157.59807635285318
    vertex 134.7898486520194 402.5257867652438 155.77645727680743
  endloop
endfacet
facet normal -1.0 9.849870160297097e-11 1.1419911176049152e-10
  outer loop
    vertex 134.7898486520843 401.7493296299362 157.12132048505944
    vertex 134.78984865206786 402.12800928637665 157.59807635285318
    vertex 134.78984865206786 402.22608549772997 156.50000014149987
  endloop
endfacet
facet normal -1.0 9.849870160297097e-11 1.1419911176049152e-10
  outer loop
    vertex 134.78984865201937 401.4044664216842 157.8977776203674
    vertex 134.78984865206786 402.12800928637665 157.59807635285318
    vertex 134.7898486520843 401.7493296299362 157.12132048505944
  endloop
endfacet
facet normal -1.0 9.849870160297097e-11 1.1419911176049152e-10
  outer loop
    vertex 134.78984865206783 401.12800928637665 157.59807635285335
    vertex 134.78984865201937 401.4044664216842 157.8977776203674
    vertex 134.7898486520843 401.7493296299362 157.12132048505944
  endloop
endfacet
facet normal -1.0 9.849870160297097e-11 1.1419911176049152e-10
  outer loop
    vertex 134.78984865194235 400.6280092863766 158.00000014150024
    vertex 134.78984865201937 401.4044664216842 157.8977776203674
    vertex 134.78984865206783 401.12800928637665 157.59807635285335
  endloop
endfacet
facet normal -1.0 9.849870160297097e-11 1.1419911176049152e-10
  outer loop
    vertex 134.78984865201934 400.4044664216842 157.89777762036758
    vertex 134.78984865194235 400.6280092863766 158.00000014150024
    vertex 134.78984865206783 401.12800928637665 157.59807635285335
  endloop
endfacet
facet normal -1.0 9.849870160297097e-11 1.1419911176049152e-10
  outer loop
    vertex 134.78984865193485 400.12800928637733 157.93417389270633
    vertex 134.78984865194235 400.6280092863766 158.00000014150024
    vertex 134.78984865201934 400.4044664216842 157.89777762036758
  endloop
endfacet
facet normal -1.0 9.849870160297097e-11 1.1419911176049152e-10
  outer loop
    vertex 134.78984865147441 402.12800928637665 152.4019239301465
    vertex 134.78984865184205 402.5257867652438 154.22354300619224
    vertex 134.7898486515998 402.7493296299362 152.87867979794007
  endloop
endfacet
facet normal -1.0 9.849870160297097e-11 1.1419911176049152e-10
  outer loop
    vertex 134.7898486519424 402.62800928637665 155.00000014149984
    vertex 134.7898486515998 402.7493296299362 152.87867979794007
    vertex 134.78984865184205 402.5257867652438 154.22354300619224
  endloop
endfacet
facet normal -1.0 9.849870160297097e-11 1.1419911176049152e-10
  outer loop
    vertex 134.78984865172526 402.22608549772997 153.5000001414998
    vertex 134.78984865184205 402.5257867652438 154.22354300619224
    vertex 134.78984865147441 402.12800928637665 152.4019239301465
  endloop
endfacet
facet normal -1.0 9.849870160297097e-11 1.1419911176049152e-10
  outer loop
    vertex 134.78984865159978 401.7493296299362 152.87867979794007
    vertex 134.78984865172526 402.22608549772997 153.5000001414998
    vertex 134.78984865147441 402.12800928637665 152.4019239301465
  endloop
endfacet
facet normal -1.0 9.849870160297097e-11 1.1419911176049152e-10
  outer loop
    vertex 134.78984865135754 401.4044664216842 152.10222266263298
    vertex 134.78984865159978 401.7493296299362 152.87867979794007
    vertex 134.78984865147441 402.12800928637665 152.4019239301465
  endloop
endfacet
facet normal -1.0 9.849870160297097e-11 1.1419911176049152e-10
  outer loop
    vertex 134.7898486514744 401.12800928637665 152.40192393014667
    vertex 134.78984865159978 401.7493296299362 152.87867979794007
    vertex 134.78984865135754 401.4044664216842 152.10222266263298
  endloop
endfacet
facet normal -1.0 9.849870160297097e-11 1.1419911176049152e-10
  outer loop
    vertex 134.78984865125716 400.6280092863766 152.00000014150015
    vertex 134.7898486514744 401.12800928637665 152.40192393014667
    vertex 134.78984865135754 401.4044664216842 152.10222266263298
  endloop
endfacet
facet normal -1.0 9.849870160297097e-11 1.1419911176049152e-10
  outer loop
    vertex 134.78984865135752 400.4044664216842 152.10222266263318
    vertex 134.7898486514744 401.12800928637665 152.40192393014667
    vertex 134.78984865125716 400.6280092863766 152.00000014150015
  endloop
endfacet
facet normal -1.0 9.849870160297097e-11 1.1419911176049152e-10
  outer loop
    vertex 134.78984865126466 400.1280092863759 152.06582639029352
    vertex 134.78984865135752 400.4044664216842 152.10222266263318
    vertex 134.78984865125716 400.6280092863766 152.00000014150015
  endloop
endfacet
facet normal -1.003654620694247e-10 0.13052619222104883 -0.9914448613736792
  outer loop
    vertex 108.04847774216462 400.12800928900987 152.0658263933465
    vertex 108.04847774225746 400.4044664243182 152.10222266568613
    vertex 134.78984865126466 400.1280092863759 152.06582639029352
  endloop
endfacet
facet normal -1.003654620694247e-10 0.13052619222104883 -0.9914448613736792
  outer loop
    vertex 134.78984865135752 400.4044664216842 152.10222266263318
    vertex 134.78984865126466 400.1280092863759 152.06582639029352
    vertex 108.04847774225746 400.4044664243182 152.10222266568613
  endloop
endfacet
facet normal -6.781240077361246e-11 0.3826834323647121 -0.9238795325114432
  outer loop
    vertex 108.04847774225746 400.4044664243182 152.10222266568613
    vertex 108.04847774237435 401.12800928901055 152.40192393319964
    vertex 134.78984865135752 400.4044664216842 152.10222266263318
  endloop
endfacet
facet normal -6.781240077361246e-11 0.3826834323647121 -0.9238795325114432
  outer loop
    vertex 134.7898486514744 401.12800928637665 152.40192393014667
    vertex 134.78984865135752 400.4044664216842 152.10222266263318
    vertex 108.04847774237435 401.12800928901055 152.40192393319964
  endloop
endfacet
facet normal -3.0638036430182484e-11 0.6087614290085454 -0.7933533402913696
  outer loop
    vertex 108.04847774237435 401.12800928901055 152.40192393319964
    vertex 108.04847774249971 401.74932963257015 152.878679800993
    vertex 134.7898486514744 401.12800928637665 152.40192393014667
  endloop
endfacet
facet normal -3.0638036430182484e-11 0.6087614290085454 -0.7933533402913696
  outer loop
    vertex 134.78984865159978 401.7493296299362 152.87867979794007
    vertex 134.7898486514744 401.12800928637665 152.40192393014667
    vertex 108.04847774249971 401.74932963257015 152.878679800993
  endloop
endfacet
facet normal 8.624259464231142e-12 0.7933533402912671 -0.6087614290086789
  outer loop
    vertex 134.78984865159978 401.7493296299362 152.87867979794007
    vertex 108.04847774249971 401.74932963257015 152.878679800993
    vertex 134.78984865172526 402.22608549772997 153.5000001414998
  endloop
endfacet
facet normal 8.624259464231142e-12 0.7933533402912671 -0.6087614290086789
  outer loop
    vertex 108.04847774262518 402.2260855003639 153.50000014455279
    vertex 134.78984865172526 402.22608549772997 153.5000001414998
    vertex 108.04847774249971 401.74932963257015 152.878679800993
  endloop
endfacet
facet normal 4.729882632837656e-11 0.9238795325112984 -0.3826834323650615
  outer loop
    vertex 134.78984865172526 402.22608549772997 153.5000001414998
    vertex 108.04847774262518 402.2260855003639 153.50000014455279
    vertex 134.78984865184205 402.5257867652438 154.22354300619224
  endloop
endfacet
facet normal 4.729882632837656e-11 0.9238795325112984 -0.3826834323650615
  outer loop
    vertex 108.048477742742 402.5257867678778 154.2235430092452
    vertex 134.78984865184205 402.5257867652438 154.22354300619224
    vertex 108.04847774262518 402.2260855003639 153.50000014455279
  endloop
endfacet
facet normal 8.275005634324266e-11 0.991444861373804 -0.13052619222009987
  outer loop
    vertex 134.78984865184205 402.5257867652438 154.22354300619224
    vertex 108.048477742742 402.5257867678778 154.2235430092452
    vertex 134.7898486519424 402.62800928637665 155.00000014149984
  endloop
endfacet
facet normal 8.275005634324266e-11 0.991444861373804 -0.13052619222009987
  outer loop
    vertex 108.04847774284235 402.6280092890106 155.00000014455279
    vertex 134.7898486519424 402.62800928637665 155.00000014149984
    vertex 108.048477742742 402.5257867678778 154.2235430092452
  endloop
endfacet
facet normal 1.1256200676927221e-10 0.9914448613738035 0.13052619222010367
  outer loop
    vertex 134.7898486519424 402.62800928637665 155.00000014149984
    vertex 108.04847774284235 402.6280092890106 155.00000014455279
    vertex 134.7898486520194 402.5257867652438 155.77645727680743
  endloop
endfacet
facet normal 1.1256200676927221e-10 0.9914448613738035 0.13052619222010367
  outer loop
    vertex 108.04847774291935 402.5257867678778 155.7764572798604
    vertex 134.7898486520194 402.5257867652438 155.77645727680743
    vertex 108.04847774284235 402.6280092890106 155.00000014455279
  endloop
endfacet
facet normal 1.3470304245146892e-10 0.9238795325112982 0.38268343236506214
  outer loop
    vertex 134.7898486520194 402.5257867652438 155.77645727680743
    vertex 108.04847774291935 402.5257867678778 155.7764572798604
    vertex 134.78984865206786 402.22608549772997 156.50000014149987
  endloop
endfacet
facet normal 1.3470304245146892e-10 0.9238795325112982 0.38268343236506214
  outer loop
    vertex 108.04847774296778 402.2260855003639 156.5000001445528
    vertex 134.78984865206786 402.22608549772997 156.50000014149987
    vertex 108.04847774291935 402.5257867678778 155.7764572798604
  endloop
endfacet
facet normal 1.4766428839791446e-10 0.793353340291148 0.6087614290088341
  outer loop
    vertex 134.78984865206786 402.22608549772997 156.50000014149987
    vertex 108.04847774296778 402.2260855003639 156.5000001445528
    vertex 134.7898486520843 401.7493296299362 157.12132048505944
  endloop
endfacet
facet normal 1.4766428839791446e-10 0.793353340291148 0.6087614290088341
  outer loop
    vertex 108.04847774298422 401.74932963257015 157.1213204881124
    vertex 134.7898486520843 401.7493296299362 157.12132048505944
    vertex 108.04847774296778 402.2260855003639 156.5000001445528
  endloop
endfacet
facet normal 1.5056245711680846e-10 0.6087614290089294 0.7933533402910751
  outer loop
    vertex 108.04847774296775 401.12800928901055 157.59807635590633
    vertex 134.78984865206783 401.12800928637665 157.59807635285335
    vertex 108.04847774298422 401.74932963257015 157.1213204881124
  endloop
endfacet
facet normal 1.5056245711680846e-10 0.6087614290089294 0.7933533402910751
  outer loop
    vertex 134.7898486520843 401.7493296299362 157.12132048505944
    vertex 108.04847774298422 401.74932963257015 157.1213204881124
    vertex 134.78984865206783 401.12800928637665 157.59807635285335
  endloop
endfacet
facet normal 1.4320004319943385e-10 0.3826834323654233 0.9238795325111486
  outer loop
    vertex 108.04847774291927 400.4044664243182 157.89777762342055
    vertex 134.78984865201934 400.4044664216842 157.89777762036758
    vertex 108.04847774296775 401.12800928901055 157.59807635590633
  endloop
endfacet
facet normal 1.4320004319943385e-10 0.3826834323654233 0.9238795325111486
  outer loop
    vertex 134.78984865206783 401.12800928637665 157.59807635285335
    vertex 108.04847774296775 401.12800928901055 157.59807635590633
    vertex 134.78984865201934 400.4044664216842 157.89777762036758
  endloop
endfacet
facet normal 1.2607878298721612e-10 0.13052619221967332 0.9914448613738602
  outer loop
    vertex 108.04847774283479 400.12800928901123 157.93417389575927
    vertex 134.78984865193485 400.12800928637733 157.93417389270633
    vertex 108.04847774291927 400.4044664243182 157.89777762342055
  endloop
endfacet
facet normal 1.2607878298721612e-10 0.13052619221967332 0.9914448613738602
  outer loop
    vertex 134.78984865201934 400.4044664216842 157.89777762036758
    vertex 108.04847774291927 400.4044664243182 157.89777762342055
    vertex 134.78984865193485 400.12800928637733 157.93417389270633
  endloop
endfacet
endsolid Design - Rolled - Solid
