solid Design - Rolled - Solid
facet normal -1.1420144262876622e-10 -2.608448715739152e-20 -1.0
  outer loop
    vertex 153.86954581127517 146.32600910185533 150.30000043968758
    vertex 136.54847775205616 136.92600909987715 150.30000044166567
    vertex 136.5484777499091 146.32600909987735 150.30000044166567
  endloop
endfacet
facet normal -1.1420144262876622e-10 -2.608448715739152e-20 -1.0
  outer loop
    vertex 136.54847775205616 136.92600909987715 150.30000044166567
    vertex 153.86954581127517 146.32600910185533 150.30000043968758
    vertex 153.86954581342226 136.92600910185513 150.30000043968758
  endloop
endfacet
facet normal 1.1420144262876622e-10 0.0 1.0
  outer loop
    vertex 136.54847775205613 136.92600909987715 159.70000044166568
    vertex 153.8695458134222 146.32600910185533 159.70000043968759
    vertex 136.54847775205613 146.32600909987735 159.70000044166568
  endloop
endfacet
facet normal 1.1420144262876622e-10 0.0 1.0
  outer loop
    vertex 153.8695458134222 146.32600910185533 159.70000043968759
    vertex 136.54847775205613 136.92600909987715 159.70000044166568
    vertex 153.8695458134222 136.92600910185513 159.70000043968759
  endloop
endfacet
facet normal -1.1420384260023831e-10 1.0 2.6084761243356056e-20
  outer loop
    vertex 136.5484777499091 146.32600909987735 150.30000044166567
    vertex 140.91024918332877 146.32600910037547 153.5011117016894
    vertex 141.29847775098256 146.3260091004198 153.450000441123
  endloop
endfacet
facet normal -1.1420384260023831e-10 1.0 2.6084761243356056e-20
  outer loop
    vertex 140.91024918332877 146.32600910037547 153.5011117016894
    vertex 136.5484777499091 146.32600909987735 150.30000044166567
    vertex 140.54847775098256 146.32600910033415 153.65096233544634
  endloop
endfacet
facet normal -1.1420384260023831e-10 1.0 2.6084761243356056e-20
  outer loop
    vertex 140.54847775098256 146.32600910033415 153.65096233544634
    vertex 136.5484777499091 146.32600909987735 150.30000044166567
    vertex 140.23781757920273 146.32600910029876 153.88934026934317
  endloop
endfacet
facet normal -1.1420384260023831e-10 1.0 2.6084761243356056e-20
  outer loop
    vertex 140.23781757920273 146.32600910029876 153.88934026934317
    vertex 136.5484777499091 146.32600909987735 150.30000044166567
    vertex 139.9994396453059 146.3260091002715 154.200000441123
  endloop
endfacet
facet normal -1.1420384260023831e-10 1.0 2.6084761243356056e-20
  outer loop
    vertex 139.9994396453059 146.3260091002715 154.200000441123
    vertex 136.5484777499091 146.32600909987735 150.30000044166567
    vertex 136.54847775205613 146.32600909987735 159.70000044166568
  endloop
endfacet
facet normal -1.1420384260023831e-10 1.0 2.6084761243356056e-20
  outer loop
    vertex 139.9994396453059 146.3260091002715 154.200000441123
    vertex 136.54847775205613 146.32600909987735 159.70000044166568
    vertex 139.84958901154894 146.32600910025437 154.5617718734692
  endloop
endfacet
facet normal -1.1420384260023831e-10 1.0 2.6084761243356056e-20
  outer loop
    vertex 139.84958901154894 146.32600910025437 154.5617718734692
    vertex 136.54847775205613 146.32600909987735 159.70000044166568
    vertex 139.79847775098256 146.3260091002486 154.950000441123
  endloop
endfacet
facet normal -1.1420384260023831e-10 1.0 2.6084761243356056e-20
  outer loop
    vertex 139.79847775098256 146.3260091002486 154.950000441123
    vertex 136.54847775205613 146.32600909987735 159.70000044166568
    vertex 139.84958901154894 146.32600910025437 155.33822900877678
  endloop
endfacet
facet normal -1.1420384260023831e-10 1.0 2.6084761243356056e-20
  outer loop
    vertex 139.84958901154894 146.32600910025437 155.33822900877678
    vertex 136.54847775205613 146.32600909987735 159.70000044166568
    vertex 139.9994396453059 146.3260091002715 155.700000441123
  endloop
endfacet
facet normal -1.1420384260023831e-10 1.0 2.6084761243356056e-20
  outer loop
    vertex 139.9994396453059 146.3260091002715 155.700000441123
    vertex 136.54847775205613 146.32600909987735 159.70000044166568
    vertex 140.23781757920273 146.32600910029876 156.01066061290283
  endloop
endfacet
facet normal -1.1420384260023831e-10 1.0 2.6084761243356056e-20
  outer loop
    vertex 140.23781757920273 146.32600910029876 156.01066061290283
    vertex 136.54847775205613 146.32600909987735 159.70000044166568
    vertex 140.54847775098253 146.32600910033432 156.24903854679965
  endloop
endfacet
facet normal -1.1420384260023831e-10 1.0 2.6084761243356056e-20
  outer loop
    vertex 140.54847775098253 146.32600910033432 156.24903854679965
    vertex 136.54847775205613 146.32600909987735 159.70000044166568
    vertex 140.91024918332877 146.32600910037547 156.3988891805566
  endloop
endfacet
facet normal -1.1420384260023831e-10 1.0 2.6084761243356056e-20
  outer loop
    vertex 140.91024918332877 146.32600910037547 156.3988891805566
    vertex 136.54847775205613 146.32600909987735 159.70000044166568
    vertex 141.29847775098256 146.3260091004198 156.450000441123
  endloop
endfacet
facet normal -1.1420384260023831e-10 1.0 2.6084761243356056e-20
  outer loop
    vertex 141.29847775098256 146.3260091004198 156.450000441123
    vertex 136.54847775205613 146.32600909987735 159.70000044166568
    vertex 153.8695458134222 146.32600910185533 159.70000043968759
  endloop
endfacet
facet normal -1.1420384260023831e-10 1.0 2.6084761243356056e-20
  outer loop
    vertex 136.5484777499091 146.32600909987735 150.30000044166567
    vertex 153.8695458134222 146.32600910185533 159.70000043968759
    vertex 153.86954581127517 146.32600910185533 150.30000043968758
  endloop
endfacet
facet normal -1.1420384260023831e-10 1.0 2.6084761243356056e-20
  outer loop
    vertex 153.8695458134222 146.32600910185533 159.70000043968759
    vertex 136.5484777499091 146.32600909987735 150.30000044166567
    vertex 142.04847775098256 146.32600910050542 153.65096233544634
  endloop
endfacet
facet normal -1.1420384260023831e-10 1.0 2.6084761243356056e-20
  outer loop
    vertex 142.04847775098256 146.32600910050542 153.65096233544634
    vertex 136.5484777499091 146.32600909987735 150.30000044166567
    vertex 141.6867063186363 146.32600910046426 153.5011117016894
  endloop
endfacet
facet normal -1.1420384260023831e-10 1.0 2.6084761243356056e-20
  outer loop
    vertex 141.6867063186363 146.32600910046426 153.5011117016894
    vertex 136.5484777499091 146.32600909987735 150.30000044166567
    vertex 141.29847775098256 146.3260091004198 153.450000441123
  endloop
endfacet
facet normal -1.1420384260023831e-10 1.0 2.6084761243356056e-20
  outer loop
    vertex 153.8695458134222 146.32600910185533 159.70000043968759
    vertex 142.04847775098256 146.32600910050542 153.65096233544634
    vertex 142.35913792276236 146.32600910054097 153.88934026934317
  endloop
endfacet
facet normal -1.1420384260023831e-10 1.0 2.6084761243356056e-20
  outer loop
    vertex 153.8695458134222 146.32600910185533 159.70000043968759
    vertex 142.35913792276236 146.32600910054097 153.88934026934317
    vertex 142.5975158566592 146.32600910056823 154.20000044112302
  endloop
endfacet
facet normal -1.1420384260023831e-10 1.0 2.6084761243356056e-20
  outer loop
    vertex 153.8695458134222 146.32600910185533 159.70000043968759
    vertex 142.5975158566592 146.32600910056823 154.20000044112302
    vertex 142.74736649041614 146.32600910058537 154.5617718734692
  endloop
endfacet
facet normal -1.1420384260023831e-10 1.0 2.6084761243356056e-20
  outer loop
    vertex 153.8695458134222 146.32600910185533 159.70000043968759
    vertex 142.74736649041614 146.32600910058537 154.5617718734692
    vertex 142.79847775098256 146.32600910059114 154.950000441123
  endloop
endfacet
facet normal -1.1420384260023831e-10 1.0 2.6084761243356056e-20
  outer loop
    vertex 153.8695458134222 146.32600910185533 159.70000043968759
    vertex 142.79847775098256 146.32600910059114 154.950000441123
    vertex 142.74736649041614 146.32600910058537 155.33822900877678
  endloop
endfacet
facet normal -1.1420384260023831e-10 1.0 2.6084761243356056e-20
  outer loop
    vertex 153.8695458134222 146.32600910185533 159.70000043968759
    vertex 142.74736649041614 146.32600910058537 155.33822900877678
    vertex 142.5975158566592 146.32600910056823 155.70000044112302
  endloop
endfacet
facet normal -1.1420384260023831e-10 1.0 2.6084761243356056e-20
  outer loop
    vertex 153.8695458134222 146.32600910185533 159.70000043968759
    vertex 142.5975158566592 146.32600910056823 155.70000044112302
    vertex 142.35913792276236 146.32600910054097 156.01066061290283
  endloop
endfacet
facet normal -1.1420384260023831e-10 1.0 2.6084761243356056e-20
  outer loop
    vertex 153.8695458134222 146.32600910185533 159.70000043968759
    vertex 142.35913792276236 146.32600910054097 156.01066061290283
    vertex 142.04847775098253 146.3260091005056 156.24903854679965
  endloop
endfacet
facet normal -1.1420384260023831e-10 1.0 2.6084761243356056e-20
  outer loop
    vertex 153.8695458134222 146.32600910185533 159.70000043968759
    vertex 142.04847775098253 146.3260091005056 156.24903854679965
    vertex 141.6867063186363 146.32600910046426 156.3988891805566
  endloop
endfacet
facet normal -1.1420384260023831e-10 1.0 2.6084761243356056e-20
  outer loop
    vertex 153.8695458134222 146.32600910185533 159.70000043968759
    vertex 141.6867063186363 146.32600910046426 156.3988891805566
    vertex 141.29847775098256 146.3260091004198 156.450000441123
  endloop
endfacet
facet normal 1.1420384260023831e-10 -1.0 2.740859645198703e-25
  outer loop
    vertex 153.8695458134222 136.92600910185513 159.70000043968759
    vertex 136.54847775205616 136.92600909987715 150.30000044166567
    vertex 153.86954581342226 136.92600910185513 150.30000043968758
  endloop
endfacet
facet normal 1.1420384260023831e-10 -1.0 2.740859645198703e-25
  outer loop
    vertex 136.54847775205616 136.92600909987715 150.30000044166567
    vertex 153.8695458134222 136.92600910185513 159.70000043968759
    vertex 142.04847775205616 136.926009100505 153.65096233544656
  endloop
endfacet
facet normal 1.1420384260023831e-10 -1.0 2.740859645198703e-25
  outer loop
    vertex 136.54847775205616 136.92600909987715 150.30000044166567
    vertex 142.04847775205616 136.926009100505 153.65096233544656
    vertex 141.6867063197099 136.9260091004639 153.50111170168964
  endloop
endfacet
facet normal 1.1420384260023831e-10 -1.0 2.740859645198703e-25
  outer loop
    vertex 136.54847775205616 136.92600909987715 150.30000044166567
    vertex 141.6867063197099 136.9260091004639 153.50111170168964
    vertex 141.29847775205613 136.92600910041944 153.45000044112322
  endloop
endfacet
facet normal 1.1420384260023831e-10 -1.0 2.740859645198703e-25
  outer loop
    vertex 142.04847775205616 136.926009100505 153.65096233544656
    vertex 153.8695458134222 136.92600910185513 159.70000043968759
    vertex 142.35913792383596 136.92600910054057 153.8893402693434
  endloop
endfacet
facet normal 1.1420384260023831e-10 -1.0 2.740859645198703e-25
  outer loop
    vertex 142.35913792383596 136.92600910054057 153.8893402693434
    vertex 153.8695458134222 136.92600910185513 159.70000043968759
    vertex 142.5975158577328 136.92600910056782 154.20000044112325
  endloop
endfacet
facet normal 1.1420384260023831e-10 -1.0 2.740859645198703e-25
  outer loop
    vertex 142.5975158577328 136.92600910056782 154.20000044112325
    vertex 153.8695458134222 136.92600910185513 159.70000043968759
    vertex 142.74736649148974 136.92600910058496 154.56177187346944
  endloop
endfacet
facet normal 1.1420384260023831e-10 -1.0 2.740859645198703e-25
  outer loop
    vertex 142.74736649148974 136.92600910058496 154.56177187346944
    vertex 153.8695458134222 136.92600910185513 159.70000043968759
    vertex 142.79847775205613 136.92600910059076 154.95000044112322
  endloop
endfacet
facet normal 1.1420384260023831e-10 -1.0 2.740859645198703e-25
  outer loop
    vertex 142.79847775205613 136.92600910059076 154.95000044112322
    vertex 153.8695458134222 136.92600910185513 159.70000043968759
    vertex 142.74736649148974 136.92600910058496 155.338229008777
  endloop
endfacet
facet normal 1.1420384260023831e-10 -1.0 2.740859645198703e-25
  outer loop
    vertex 142.74736649148974 136.92600910058496 155.338229008777
    vertex 153.8695458134222 136.92600910185513 159.70000043968759
    vertex 142.5975158577328 136.92600910056782 155.70000044112322
  endloop
endfacet
facet normal 1.1420384260023831e-10 -1.0 2.740859645198703e-25
  outer loop
    vertex 142.5975158577328 136.92600910056782 155.70000044112322
    vertex 153.8695458134222 136.92600910185513 159.70000043968759
    vertex 142.35913792383596 136.92600910054057 156.01066061290305
  endloop
endfacet
facet normal 1.1420384260023831e-10 -1.0 2.740859645198703e-25
  outer loop
    vertex 142.35913792383596 136.92600910054057 156.01066061290305
    vertex 153.8695458134222 136.92600910185513 159.70000043968759
    vertex 142.04847775205613 136.9260091005052 156.24903854679988
  endloop
endfacet
facet normal 1.1420384260023831e-10 -1.0 2.740859645198703e-25
  outer loop
    vertex 142.04847775205613 136.9260091005052 156.24903854679988
    vertex 153.8695458134222 136.92600910185513 159.70000043968759
    vertex 141.6867063197099 136.9260091004639 156.39888918055684
  endloop
endfacet
facet normal 1.1420384260023831e-10 -1.0 2.740859645198703e-25
  outer loop
    vertex 141.6867063197099 136.9260091004639 156.39888918055684
    vertex 153.8695458134222 136.92600910185513 159.70000043968759
    vertex 141.29847775205613 136.92600910041944 156.45000044112322
  endloop
endfacet
facet normal 1.1420384260023831e-10 -1.0 2.740859645198703e-25
  outer loop
    vertex 136.54847775205616 136.92600909987715 150.30000044166567
    vertex 139.9994396463795 136.92600910027113 154.20000044112322
    vertex 136.54847775205613 136.92600909987715 159.70000044166568
  endloop
endfacet
facet normal 1.1420384260023831e-10 -1.0 2.740859645198703e-25
  outer loop
    vertex 139.9994396463795 136.92600910027113 154.20000044112322
    vertex 136.54847775205616 136.92600909987715 150.30000044166567
    vertex 140.23781758027633 136.9260091002984 153.8893402693434
  endloop
endfacet
facet normal 1.1420384260023831e-10 -1.0 2.740859645198703e-25
  outer loop
    vertex 140.23781758027633 136.9260091002984 153.8893402693434
    vertex 136.54847775205616 136.92600909987715 150.30000044166567
    vertex 140.54847775205616 136.92600910033374 153.65096233544656
  endloop
endfacet
facet normal 1.1420384260023831e-10 -1.0 2.740859645198703e-25
  outer loop
    vertex 140.54847775205616 136.92600910033374 153.65096233544656
    vertex 136.54847775205616 136.92600909987715 150.30000044166567
    vertex 140.91024918440237 136.92600910037507 153.50111170168964
  endloop
endfacet
facet normal 1.1420384260023831e-10 -1.0 2.740859645198703e-25
  outer loop
    vertex 140.91024918440237 136.92600910037507 153.50111170168964
    vertex 136.54847775205616 136.92600909987715 150.30000044166567
    vertex 141.29847775205613 136.92600910041944 153.45000044112322
  endloop
endfacet
facet normal 1.1420384260023831e-10 -1.0 2.740859645198703e-25
  outer loop
    vertex 136.54847775205613 136.92600909987715 159.70000044166568
    vertex 139.9994396463795 136.92600910027113 154.20000044112322
    vertex 139.84958901262254 136.92600910025396 154.56177187346944
  endloop
endfacet
facet normal 1.1420384260023831e-10 -1.0 2.740859645198703e-25
  outer loop
    vertex 136.54847775205613 136.92600909987715 159.70000044166568
    vertex 139.84958901262254 136.92600910025396 154.56177187346944
    vertex 139.79847775205616 136.9260091002482 154.95000044112322
  endloop
endfacet
facet normal 1.1420384260023831e-10 -1.0 2.740859645198703e-25
  outer loop
    vertex 136.54847775205613 136.92600909987715 159.70000044166568
    vertex 139.79847775205616 136.9260091002482 154.95000044112322
    vertex 139.84958901262254 136.92600910025396 155.338229008777
  endloop
endfacet
facet normal 1.1420384260023831e-10 -1.0 2.740859645198703e-25
  outer loop
    vertex 136.54847775205613 136.92600909987715 159.70000044166568
    vertex 139.84958901262254 136.92600910025396 155.338229008777
    vertex 139.9994396463795 136.92600910027113 155.70000044112322
  endloop
endfacet
facet normal 1.1420384260023831e-10 -1.0 2.740859645198703e-25
  outer loop
    vertex 136.54847775205613 136.92600909987715 159.70000044166568
    vertex 139.9994396463795 136.92600910027113 155.70000044112322
    vertex 140.23781758027633 136.9260091002984 156.01066061290305
  endloop
endfacet
facet normal 1.1420384260023831e-10 -1.0 2.740859645198703e-25
  outer loop
    vertex 136.54847775205613 136.92600909987715 159.70000044166568
    vertex 140.23781758027633 136.9260091002984 156.01066061290305
    vertex 140.54847775205613 136.92600910033394 156.24903854679988
  endloop
endfacet
facet normal 1.1420384260023831e-10 -1.0 2.740859645198703e-25
  outer loop
    vertex 136.54847775205613 136.92600909987715 159.70000044166568
    vertex 140.54847775205613 136.92600910033394 156.24903854679988
    vertex 140.91024918440237 136.92600910037507 156.39888918055684
  endloop
endfacet
facet normal 1.1420384260023831e-10 -1.0 2.740859645198703e-25
  outer loop
    vertex 136.54847775205613 136.92600909987715 159.70000044166568
    vertex 140.91024918440237 136.92600910037507 156.39888918055684
    vertex 141.29847775205613 136.92600910041944 156.45000044112322
  endloop
endfacet
facet normal 1.1420384260023831e-10 -1.0 2.740859645198703e-25
  outer loop
    vertex 136.54847775205613 136.92600909987715 159.70000044166568
    vertex 141.29847775205613 136.92600910041944 156.45000044112322
    vertex 153.8695458134222 136.92600910185513 159.70000043968759
  endloop
endfacet
facet normal -1.0 -1.1420384260023831e-10 1.1420144262876622e-10
  outer loop
    vertex 136.54847775205613 136.92600909987715 159.70000044166568
    vertex 136.54847775193898 138.72823162100994 155.7764575769732
    vertex 136.54847775205616 136.92600909987715 150.30000044166567
  endloop
endfacet
facet normal -1.0 -1.1420384260023831e-10 1.1420144262876622e-10
  outer loop
    vertex 136.54847775193898 138.72823162100994 155.7764575769732
    vertex 136.54847775205613 136.92600909987715 159.70000044166568
    vertex 136.54847775198743 139.02793288852382 156.50000044166563
  endloop
endfacet
facet normal -1.0 -1.1420384260023831e-10 1.1420144262876622e-10
  outer loop
    vertex 136.54847775198743 139.02793288852382 156.50000044166563
    vertex 136.54847775205613 136.92600909987715 159.70000044166568
    vertex 136.54847775200392 139.50468875631756 157.1213207852253
  endloop
endfacet
facet normal -1.0 -1.1420384260023831e-10 1.1420144262876622e-10
  outer loop
    vertex 136.54847775200392 139.50468875631756 157.1213207852253
    vertex 136.54847775205613 136.92600909987715 159.70000044166568
    vertex 136.54847775198743 140.12600909987714 157.59807665301895
  endloop
endfacet
facet normal -1.0 -1.1420384260023831e-10 1.1420144262876622e-10
  outer loop
    vertex 136.54847775198743 140.12600909987714 157.59807665301895
    vertex 136.54847775205613 136.92600909987715 159.70000044166568
    vertex 136.548477751939 140.84955196456954 157.89777792053286
  endloop
endfacet
facet normal -1.0 -1.1420384260023831e-10 1.1420144262876622e-10
  outer loop
    vertex 136.548477751939 140.84955196456954 157.89777792053286
    vertex 136.54847775205613 136.92600909987715 159.70000044166568
    vertex 136.54847775205613 146.32600909987735 159.70000044166568
  endloop
endfacet
facet normal -1.0 -1.1420384260023831e-10 1.1420144262876622e-10
  outer loop
    vertex 136.54847775205616 136.92600909987715 150.30000044166567
    vertex 136.54847775193898 138.72823162100994 155.7764575769732
    vertex 136.548477751862 138.6260090998771 155.00000044166563
  endloop
endfacet
facet normal -1.0 -1.1420384260023831e-10 1.1420144262876622e-10
  outer loop
    vertex 136.548477751939 140.84955196456954 157.89777792053286
    vertex 136.54847775205613 146.32600909987735 159.70000044166568
    vertex 136.548477751862 141.62600909987717 158.00000044166563
  endloop
endfacet
facet normal -1.0 -1.1420384260023831e-10 1.1420144262876622e-10
  outer loop
    vertex 136.548477751862 141.62600909987717 158.00000044166563
    vertex 136.54847775205613 146.32600909987735 159.70000044166568
    vertex 136.54847775176168 142.40246623518476 157.89777792053286
  endloop
endfacet
facet normal -1.0 -1.1420384260023831e-10 1.1420144262876622e-10
  outer loop
    vertex 136.54847775176168 142.40246623518476 157.89777792053286
    vertex 136.54847775205613 146.32600909987735 159.70000044166568
    vertex 136.54847775164484 143.12600909987717 157.59807665301895
  endloop
endfacet
facet normal -1.0 -1.1420384260023831e-10 1.1420144262876622e-10
  outer loop
    vertex 136.54847775164484 143.12600909987717 157.59807665301895
    vertex 136.54847775205613 146.32600909987735 159.70000044166568
    vertex 136.5484777515194 143.74732944343677 157.1213207852253
  endloop
endfacet
facet normal -1.0 -1.1420384260023831e-10 1.1420144262876622e-10
  outer loop
    vertex 136.5484777515194 143.74732944343677 157.1213207852253
    vertex 136.54847775205613 146.32600909987735 159.70000044166568
    vertex 136.54847775139402 144.2240853112305 156.50000044166563
  endloop
endfacet
facet normal -1.0 -1.1420384260023831e-10 1.1420144262876622e-10
  outer loop
    vertex 136.54847775139402 144.2240853112305 156.50000044166563
    vertex 136.54847775205613 146.32600909987735 159.70000044166568
    vertex 136.54847775127718 144.52378657874436 155.7764575769732
  endloop
endfacet
facet normal -1.0 -1.1420384260023831e-10 1.1420144262876622e-10
  outer loop
    vertex 136.54847775127718 144.52378657874436 155.7764575769732
    vertex 136.54847775205613 146.32600909987735 159.70000044166568
    vertex 136.54847775117682 144.6260090998772 155.00000044166563
  endloop
endfacet
facet normal -1.0 -1.1420384260023831e-10 1.1420144262876622e-10
  outer loop
    vertex 136.54847775205616 136.92600909987715 150.30000044166567
    vertex 136.5484777512772 140.84955196456954 152.10222296279844
    vertex 136.5484777499091 146.32600909987735 150.30000044166567
  endloop
endfacet
facet normal -1.0 -1.1420384260023831e-10 1.1420144262876622e-10
  outer loop
    vertex 136.5484777512772 140.84955196456954 152.10222296279844
    vertex 136.54847775205616 136.92600909987715 150.30000044166567
    vertex 136.54847775139405 140.12600909987714 152.40192423031235
  endloop
endfacet
facet normal -1.0 -1.1420384260023831e-10 1.1420144262876622e-10
  outer loop
    vertex 136.54847775139405 140.12600909987714 152.40192423031235
    vertex 136.54847775205616 136.92600909987715 150.30000044166567
    vertex 136.5484777515194 139.50468875631756 152.878680098106
  endloop
endfacet
facet normal -1.0 -1.1420384260023831e-10 1.1420144262876622e-10
  outer loop
    vertex 136.5484777515194 139.50468875631756 152.878680098106
    vertex 136.54847775205616 136.92600909987715 150.30000044166567
    vertex 136.54847775164484 139.02793288852382 153.50000044166563
  endloop
endfacet
facet normal -1.0 -1.1420384260023831e-10 1.1420144262876622e-10
  outer loop
    vertex 136.54847775164484 139.02793288852382 153.50000044166563
    vertex 136.54847775205616 136.92600909987715 150.30000044166567
    vertex 136.54847775176168 138.72823162100994 154.2235433063581
  endloop
endfacet
facet normal -1.0 -1.1420384260023831e-10 1.1420144262876622e-10
  outer loop
    vertex 136.54847775176168 138.72823162100994 154.2235433063581
    vertex 136.54847775205616 136.92600909987715 150.30000044166567
    vertex 136.548477751862 138.6260090998771 155.00000044166563
  endloop
endfacet
facet normal -1.0 -1.1420384260023831e-10 1.1420144262876622e-10
  outer loop
    vertex 136.5484777499091 146.32600909987735 150.30000044166567
    vertex 136.5484777512772 140.84955196456954 152.10222296279844
    vertex 136.54847775117682 141.62600909987717 152.00000044166563
  endloop
endfacet
facet normal -1.0 -1.1420384260023831e-10 1.1420144262876622e-10
  outer loop
    vertex 136.5484777499091 146.32600909987735 150.30000044166567
    vertex 136.54847775117682 141.62600909987717 152.00000044166563
    vertex 136.5484777510998 142.40246623518476 152.10222296279844
  endloop
endfacet
facet normal -1.0 -1.1420384260023831e-10 1.1420144262876622e-10
  outer loop
    vertex 136.5484777499091 146.32600909987735 150.30000044166567
    vertex 136.5484777510998 142.40246623518476 152.10222296279844
    vertex 136.54847775105142 143.12600909987717 152.40192423031235
  endloop
endfacet
facet normal -1.0 -1.1420384260023831e-10 1.1420144262876622e-10
  outer loop
    vertex 136.5484777499091 146.32600909987735 150.30000044166567
    vertex 136.54847775105142 143.12600909987717 152.40192423031235
    vertex 136.54847775103494 143.74732944343677 152.878680098106
  endloop
endfacet
facet normal -1.0 -1.1420384260023831e-10 1.1420144262876622e-10
  outer loop
    vertex 136.5484777499091 146.32600909987735 150.30000044166567
    vertex 136.54847775103494 143.74732944343677 152.878680098106
    vertex 136.54847775105142 144.2240853112305 153.50000044166563
  endloop
endfacet
facet normal -1.0 -1.1420384260023831e-10 1.1420144262876622e-10
  outer loop
    vertex 136.5484777499091 146.32600909987735 150.30000044166567
    vertex 136.54847775105142 144.2240853112305 153.50000044166563
    vertex 136.5484777510998 144.52378657874436 154.2235433063581
  endloop
endfacet
facet normal -1.0 -1.1420384260023831e-10 1.1420144262876622e-10
  outer loop
    vertex 136.5484777499091 146.32600909987735 150.30000044166567
    vertex 136.5484777510998 144.52378657874436 154.2235433063581
    vertex 136.54847775117682 144.6260090998772 155.00000044166563
  endloop
endfacet
facet normal -1.0 -1.1420384260023831e-10 1.1420144262876622e-10
  outer loop
    vertex 136.5484777499091 146.32600909987735 150.30000044166567
    vertex 136.54847775117682 144.6260090998772 155.00000044166563
    vertex 136.54847775205613 146.32600909987735 159.70000044166568
  endloop
endfacet
facet normal -0.608761429008713 -6.950859004134503e-11 0.7933533402912409
  outer loop
    vertex 142.04847775205616 136.926009100505 153.65096233544656
    vertex 142.35913792276236 146.32600910054097 153.88934026934317
    vertex 142.04847775098256 146.32600910050542 153.65096233544634
  endloop
endfacet
facet normal -0.608761429008713 -6.950859004134503e-11 0.7933533402912409
  outer loop
    vertex 142.35913792276236 146.32600910054097 153.88934026934317
    vertex 142.04847775205616 136.926009100505 153.65096233544656
    vertex 142.35913792383596 136.92600910054057 153.8893402693434
  endloop
endfacet
facet normal -0.7933533402912624 -9.059274165302678e-11 0.6087614290086851
  outer loop
    vertex 142.5975158577328 136.92600910056782 154.20000044112325
    vertex 142.35913792276236 146.32600910054097 153.88934026934317
    vertex 142.35913792383596 136.92600910054057 153.8893402693434
  endloop
endfacet
facet normal -0.7933533402912624 -9.059274165302678e-11 0.6087614290086851
  outer loop
    vertex 142.35913792276236 146.32600910054097 153.88934026934317
    vertex 142.5975158577328 136.92600910056782 154.20000044112325
    vertex 142.5975158566592 146.32600910056823 154.20000044112302
  endloop
endfacet
facet normal -0.9238795325112762 -1.0550314763263081e-10 0.3826834323651156
  outer loop
    vertex 142.74736649148974 136.92600910058496 154.56177187346944
    vertex 142.5975158566592 146.32600910056823 154.20000044112302
    vertex 142.5975158577328 136.92600910056782 154.20000044112325
  endloop
endfacet
facet normal -0.9238795325112762 -1.0550314763263081e-10 0.3826834323651156
  outer loop
    vertex 142.5975158566592 146.32600910056823 154.20000044112302
    vertex 142.74736649148974 136.92600910058496 154.56177187346944
    vertex 142.74736649041614 146.32600910058537 154.5617718734692
  endloop
endfacet
facet normal -0.9914448613738113 -1.1322368845327174e-10 0.13052619222004555
  outer loop
    vertex 142.79847775205613 136.92600910059076 154.95000044112322
    vertex 142.74736649041614 146.32600910058537 154.5617718734692
    vertex 142.74736649148974 136.92600910058496 154.56177187346944
  endloop
endfacet
facet normal -0.9914448613738113 -1.1322368845327174e-10 0.13052619222004555
  outer loop
    vertex 142.74736649041614 146.32600910058537 154.5617718734692
    vertex 142.79847775205613 136.92600910059076 154.95000044112322
    vertex 142.79847775098256 146.32600910059114 154.950000441123
  endloop
endfacet
facet normal -0.9914448613738113 -1.1322822201681298e-10 -0.13052619222004555
  outer loop
    vertex 142.74736649041614 146.32600910058537 155.33822900877678
    vertex 142.79847775205613 136.92600910059076 154.95000044112322
    vertex 142.74736649148974 136.92600910058496 155.338229008777
  endloop
endfacet
facet normal -0.9914448613738113 -1.1322822201681298e-10 -0.13052619222004555
  outer loop
    vertex 142.79847775205613 136.92600910059076 154.95000044112322
    vertex 142.74736649041614 146.32600910058537 155.33822900877678
    vertex 142.79847775098256 146.32600910059114 154.950000441123
  endloop
endfacet
facet normal -0.9238795325112845 -1.0551643936839221e-10 -0.3826834323650952
  outer loop
    vertex 142.5975158566592 146.32600910056823 155.70000044112302
    vertex 142.74736649148974 136.92600910058496 155.338229008777
    vertex 142.5975158577328 136.92600910056782 155.70000044112322
  endloop
endfacet
facet normal -0.9238795325112845 -1.0551643936839221e-10 -0.3826834323650952
  outer loop
    vertex 142.74736649148974 136.92600910058496 155.338229008777
    vertex 142.5975158566592 146.32600910056823 155.70000044112302
    vertex 142.74736649041614 146.32600910058537 155.33822900877678
  endloop
endfacet
facet normal -0.7933533402912409 -9.06138857511775e-11 -0.608761429008713
  outer loop
    vertex 142.35913792276236 146.32600910054097 156.01066061290283
    vertex 142.5975158577328 136.92600910056782 155.70000044112322
    vertex 142.35913792383596 136.92600910054057 156.01066061290305
  endloop
endfacet
facet normal -0.7933533402912409 -9.06138857511775e-11 -0.608761429008713
  outer loop
    vertex 142.5975158577328 136.92600910056782 155.70000044112322
    vertex 142.35913792276236 146.32600910054097 156.01066061290283
    vertex 142.5975158566592 146.32600910056823 155.70000044112302
  endloop
endfacet
facet normal -0.6087614290086851 -6.953614556654092e-11 -0.7933533402912624
  outer loop
    vertex 142.35913792276236 146.32600910054097 156.01066061290283
    vertex 142.04847775205613 136.9260091005052 156.24903854679988
    vertex 142.04847775098253 146.3260091005056 156.24903854679965
  endloop
endfacet
facet normal -0.6087614290086851 -6.953614556654092e-11 -0.7933533402912624
  outer loop
    vertex 142.04847775205613 136.9260091005052 156.24903854679988
    vertex 142.35913792276236 146.32600910054097 156.01066061290283
    vertex 142.35913792383596 136.92600910054057 156.01066061290305
  endloop
endfacet
facet normal -0.3826834323651156 -4.371963197546991e-11 -0.9238795325112762
  outer loop
    vertex 142.04847775098253 146.3260091005056 156.24903854679965
    vertex 141.6867063197099 136.9260091004639 156.39888918055684
    vertex 141.6867063186363 146.32600910046426 156.3988891805566
  endloop
endfacet
facet normal -0.3826834323651156 -4.371963197546991e-11 -0.9238795325112762
  outer loop
    vertex 141.6867063197099 136.9260091004639 156.39888918055684
    vertex 142.04847775098253 146.3260091005056 156.24903854679965
    vertex 142.04847775205613 136.9260091005052 156.24903854679988
  endloop
endfacet
facet normal -0.13052619222004555 -1.4923697715368105e-11 -0.9914448613738113
  outer loop
    vertex 141.6867063186363 146.32600910046426 156.3988891805566
    vertex 141.29847775205613 136.92600910041944 156.45000044112322
    vertex 141.29847775098256 146.3260091004198 156.450000441123
  endloop
endfacet
facet normal -0.13052619222004555 -1.4923697715368105e-11 -0.9914448613738113
  outer loop
    vertex 141.29847775205613 136.92600910041944 156.45000044112322
    vertex 141.6867063186363 146.32600910046426 156.3988891805566
    vertex 141.6867063197099 136.9260091004639 156.39888918055684
  endloop
endfacet
facet normal 0.13052619222004555 1.4889261881454495e-11 -0.9914448613738113
  outer loop
    vertex 141.29847775098256 146.3260091004198 156.450000441123
    vertex 140.91024918440237 136.92600910037507 156.39888918055684
    vertex 140.91024918332877 146.32600910037547 156.3988891805566
  endloop
endfacet
facet normal 0.13052619222004555 1.4889261881454495e-11 -0.9914448613738113
  outer loop
    vertex 140.91024918440237 136.92600910037507 156.39888918055684
    vertex 141.29847775098256 146.3260091004198 156.450000441123
    vertex 141.29847775205613 136.92600910041944 156.45000044112322
  endloop
endfacet
facet normal 0.3826834323650952 4.3687542886727286e-11 -0.9238795325112845
  outer loop
    vertex 140.91024918332877 146.32600910037547 156.3988891805566
    vertex 140.54847775205613 136.92600910033394 156.24903854679988
    vertex 140.54847775098253 146.32600910033432 156.24903854679965
  endloop
endfacet
facet normal 0.3826834323650952 4.3687542886727286e-11 -0.9238795325112845
  outer loop
    vertex 140.54847775205613 136.92600910033394 156.24903854679988
    vertex 140.91024918332877 146.32600910037547 156.3988891805566
    vertex 140.91024918440237 136.92600910037507 156.39888918055684
  endloop
endfacet
facet normal 0.608761429008713 6.950859004134503e-11 -0.7933533402912409
  outer loop
    vertex 140.54847775098253 146.32600910033432 156.24903854679965
    vertex 140.23781758027633 136.9260091002984 156.01066061290305
    vertex 140.23781757920273 146.32600910029876 156.01066061290283
  endloop
endfacet
facet normal 0.608761429008713 6.950859004134503e-11 -0.7933533402912409
  outer loop
    vertex 140.23781758027633 136.9260091002984 156.01066061290305
    vertex 140.54847775098253 146.32600910033432 156.24903854679965
    vertex 140.54847775205613 136.92600910033394 156.24903854679988
  endloop
endfacet
facet normal 0.7933533402912624 9.059274165302678e-11 -0.6087614290086851
  outer loop
    vertex 139.9994396453059 146.3260091002715 155.700000441123
    vertex 140.23781758027633 136.9260091002984 156.01066061290305
    vertex 139.9994396463795 136.92600910027113 155.70000044112322
  endloop
endfacet
facet normal 0.7933533402912624 9.059274165302678e-11 -0.6087614290086851
  outer loop
    vertex 140.23781758027633 136.9260091002984 156.01066061290305
    vertex 139.9994396453059 146.3260091002715 155.700000441123
    vertex 140.23781757920273 146.32600910029876 156.01066061290283
  endloop
endfacet
facet normal 0.9238795325112762 1.0550314763263081e-10 -0.3826834323651156
  outer loop
    vertex 139.84958901154894 146.32600910025437 155.33822900877678
    vertex 139.9994396463795 136.92600910027113 155.70000044112322
    vertex 139.84958901262254 136.92600910025396 155.338229008777
  endloop
endfacet
facet normal 0.9238795325112762 1.0550314763263081e-10 -0.3826834323651156
  outer loop
    vertex 139.9994396463795 136.92600910027113 155.70000044112322
    vertex 139.84958901154894 146.32600910025437 155.33822900877678
    vertex 139.9994396453059 146.3260091002715 155.700000441123
  endloop
endfacet
facet normal 0.9914448613738113 1.1322368845327174e-10 -0.13052619222004555
  outer loop
    vertex 139.79847775098256 146.3260091002486 154.950000441123
    vertex 139.84958901262254 136.92600910025396 155.338229008777
    vertex 139.79847775205616 136.9260091002482 154.95000044112322
  endloop
endfacet
facet normal 0.9914448613738113 1.1322368845327174e-10 -0.13052619222004555
  outer loop
    vertex 139.84958901262254 136.92600910025396 155.338229008777
    vertex 139.79847775098256 146.3260091002486 154.950000441123
    vertex 139.84958901154894 146.32600910025437 155.33822900877678
  endloop
endfacet
facet normal 0.9914448613738113 1.1322822201681298e-10 0.13052619222004555
  outer loop
    vertex 139.84958901262254 136.92600910025396 154.56177187346944
    vertex 139.79847775098256 146.3260091002486 154.950000441123
    vertex 139.79847775205616 136.9260091002482 154.95000044112322
  endloop
endfacet
facet normal 0.9914448613738113 1.1322822201681298e-10 0.13052619222004555
  outer loop
    vertex 139.79847775098256 146.3260091002486 154.950000441123
    vertex 139.84958901262254 136.92600910025396 154.56177187346944
    vertex 139.84958901154894 146.32600910025437 154.5617718734692
  endloop
endfacet
facet normal 0.9238795325112845 1.0551643936839221e-10 0.3826834323650952
  outer loop
    vertex 139.9994396463795 136.92600910027113 154.20000044112322
    vertex 139.84958901154894 146.32600910025437 154.5617718734692
    vertex 139.84958901262254 136.92600910025396 154.56177187346944
  endloop
endfacet
facet normal 0.9238795325112845 1.0551643936839221e-10 0.3826834323650952
  outer loop
    vertex 139.84958901154894 146.32600910025437 154.5617718734692
    vertex 139.9994396463795 136.92600910027113 154.20000044112322
    vertex 139.9994396453059 146.3260091002715 154.200000441123
  endloop
endfacet
facet normal 0.7933533402912409 9.06138857511775e-11 0.608761429008713
  outer loop
    vertex 140.23781758027633 136.9260091002984 153.8893402693434
    vertex 139.9994396453059 146.3260091002715 154.200000441123
    vertex 139.9994396463795 136.92600910027113 154.20000044112322
  endloop
endfacet
facet normal 0.7933533402912409 9.06138857511775e-11 0.608761429008713
  outer loop
    vertex 139.9994396453059 146.3260091002715 154.200000441123
    vertex 140.23781758027633 136.9260091002984 153.8893402693434
    vertex 140.23781757920273 146.32600910029876 153.88934026934317
  endloop
endfacet
facet normal 0.6087614290086851 6.953614556654092e-11 0.7933533402912624
  outer loop
    vertex 140.23781758027633 136.9260091002984 153.8893402693434
    vertex 140.54847775098256 146.32600910033415 153.65096233544634
    vertex 140.23781757920273 146.32600910029876 153.88934026934317
  endloop
endfacet
facet normal 0.6087614290086851 6.953614556654092e-11 0.7933533402912624
  outer loop
    vertex 140.54847775098256 146.32600910033415 153.65096233544634
    vertex 140.23781758027633 136.9260091002984 153.8893402693434
    vertex 140.54847775205616 136.92600910033374 153.65096233544656
  endloop
endfacet
facet normal 0.3826834323651156 4.371963197546991e-11 0.9238795325112762
  outer loop
    vertex 140.54847775205616 136.92600910033374 153.65096233544656
    vertex 140.91024918332877 146.32600910037547 153.5011117016894
    vertex 140.54847775098256 146.32600910033415 153.65096233544634
  endloop
endfacet
facet normal 0.3826834323651156 4.371963197546991e-11 0.9238795325112762
  outer loop
    vertex 140.91024918332877 146.32600910037547 153.5011117016894
    vertex 140.54847775205616 136.92600910033374 153.65096233544656
    vertex 140.91024918440237 136.92600910037507 153.50111170168964
  endloop
endfacet
facet normal 0.13052619222004555 1.4923697715368105e-11 0.9914448613738113
  outer loop
    vertex 140.91024918440237 136.92600910037507 153.50111170168964
    vertex 141.29847775098256 146.3260091004198 153.450000441123
    vertex 140.91024918332877 146.32600910037547 153.5011117016894
  endloop
endfacet
facet normal 0.13052619222004555 1.4923697715368105e-11 0.9914448613738113
  outer loop
    vertex 141.29847775098256 146.3260091004198 153.450000441123
    vertex 140.91024918440237 136.92600910037507 153.50111170168964
    vertex 141.29847775205613 136.92600910041944 153.45000044112322
  endloop
endfacet
facet normal -0.13052619222004555 -1.4889261881454495e-11 0.9914448613738113
  outer loop
    vertex 141.29847775205613 136.92600910041944 153.45000044112322
    vertex 141.6867063186363 146.32600910046426 153.5011117016894
    vertex 141.29847775098256 146.3260091004198 153.450000441123
  endloop
endfacet
facet normal -0.13052619222004555 -1.4889261881454495e-11 0.9914448613738113
  outer loop
    vertex 141.6867063186363 146.32600910046426 153.5011117016894
    vertex 141.29847775205613 136.92600910041944 153.45000044112322
    vertex 141.6867063197099 136.9260091004639 153.50111170168964
  endloop
endfacet
facet normal -0.3826834323650952 -4.3687542886727286e-11 0.9238795325112845
  outer loop
    vertex 141.6867063197099 136.9260091004639 153.50111170168964
    vertex 142.04847775098256 146.32600910050542 153.65096233544634
    vertex 141.6867063186363 146.32600910046426 153.5011117016894
  endloop
endfacet
facet normal -0.3826834323650952 -4.3687542886727286e-11 0.9238795325112845
  outer loop
    vertex 142.04847775098256 146.32600910050542 153.65096233544634
    vertex 141.6867063197099 136.9260091004639 153.50111170168964
    vertex 142.04847775205616 136.926009100505 153.65096233544656
  endloop
endfacet
facet normal -1.0 -1.1419886657578868e-10 1.1419715451096587e-10
  outer loop
    vertex 108.54847775247573 138.7282316178124 155.7764575801707
    vertex 108.5484777522984 138.7282316178124 154.2235433095556
    vertex 108.54847775239874 138.62600909667958 155.00000044486313
  endloop
endfacet
facet normal -1.0 -1.1419886657578868e-10 1.1419715451096587e-10
  outer loop
    vertex 108.5484777522984 138.7282316178124 154.2235433095556
    vertex 108.54847775247573 138.7282316178124 155.7764575801707
    vertex 108.54847775252415 139.0279328853263 156.50000044486313
  endloop
endfacet
facet normal -1.0 -1.1419886657578868e-10 1.1419715451096587e-10
  outer loop
    vertex 108.5484777522984 138.7282316178124 154.2235433095556
    vertex 108.54847775252415 139.0279328853263 156.50000044486313
    vertex 108.54847775218155 139.0279328853263 153.50000044486316
  endloop
endfacet
facet normal -1.0 -1.1419886657578868e-10 1.1419715451096587e-10
  outer loop
    vertex 108.54847775218155 139.0279328853263 153.50000044486316
    vertex 108.54847775252415 139.0279328853263 156.50000044486313
    vertex 108.54847775254063 139.50468875312004 157.1213207884228
  endloop
endfacet
facet normal -1.0 -1.1419886657578868e-10 1.1419715451096587e-10
  outer loop
    vertex 108.54847775218155 139.0279328853263 153.50000044486316
    vertex 108.54847775254063 139.50468875312004 157.1213207884228
    vertex 108.54847775205614 139.50468875312004 152.8786801013035
  endloop
endfacet
facet normal -1.0 -1.1419886657578868e-10 1.1419715451096587e-10
  outer loop
    vertex 108.54847775205614 139.50468875312004 152.8786801013035
    vertex 108.54847775254063 139.50468875312004 157.1213207884228
    vertex 108.54847775252416 140.1260090966796 157.59807665621645
  endloop
endfacet
facet normal -1.0 -1.1419886657578868e-10 1.1419715451096587e-10
  outer loop
    vertex 108.54847775205614 139.50468875312004 152.8786801013035
    vertex 108.54847775252416 140.1260090966796 157.59807665621645
    vertex 108.54847775193078 140.1260090966796 152.40192423350985
  endloop
endfacet
facet normal -1.0 -1.1419886657578868e-10 1.1419715451096587e-10
  outer loop
    vertex 108.54847775193078 140.1260090966796 152.40192423350985
    vertex 108.54847775252416 140.1260090966796 157.59807665621645
    vertex 108.54847775247573 140.84955196137201 157.89777792373036
  endloop
endfacet
facet normal -1.0 -1.1419886657578868e-10 1.1419715451096587e-10
  outer loop
    vertex 108.54847775193078 140.1260090966796 152.40192423350985
    vertex 108.54847775247573 140.84955196137201 157.89777792373036
    vertex 108.5484777518139 140.84955196137201 152.10222296599594
  endloop
endfacet
facet normal -1.0 -1.1419886657578868e-10 1.1419715451096587e-10
  outer loop
    vertex 108.5484777518139 140.84955196137201 152.10222296599594
    vertex 108.54847775247573 140.84955196137201 157.89777792373036
    vertex 108.54847775239874 141.62600909667964 158.00000044486313
  endloop
endfacet
facet normal -1.0 -1.1419886657578868e-10 1.1419715451096587e-10
  outer loop
    vertex 108.5484777518139 140.84955196137201 152.10222296599594
    vertex 108.54847775239874 141.62600909667964 158.00000044486313
    vertex 108.54847775171355 141.62600909667964 152.00000044486316
  endloop
endfacet
facet normal -1.0 -1.1419886657578868e-10 1.1419715451096587e-10
  outer loop
    vertex 108.54847775171355 141.62600909667964 152.00000044486316
    vertex 108.54847775239874 141.62600909667964 158.00000044486313
    vertex 108.5484777522984 142.40246623198723 157.89777792373036
  endloop
endfacet
facet normal -1.0 -1.1419886657578868e-10 1.1419715451096587e-10
  outer loop
    vertex 108.54847775171355 141.62600909667964 152.00000044486316
    vertex 108.5484777522984 142.40246623198723 157.89777792373036
    vertex 108.54847775163655 142.40246623198723 152.10222296599594
  endloop
endfacet
facet normal -1.0 -1.1419886657578868e-10 1.1419715451096587e-10
  outer loop
    vertex 108.54847775163655 142.40246623198723 152.10222296599594
    vertex 108.5484777522984 142.40246623198723 157.89777792373036
    vertex 108.54847775218155 143.12600909667964 157.59807665621645
  endloop
endfacet
facet normal -1.0 -1.1419886657578868e-10 1.1419715451096587e-10
  outer loop
    vertex 108.54847775163655 142.40246623198723 152.10222296599594
    vertex 108.54847775218155 143.12600909667964 157.59807665621645
    vertex 108.54847775158817 143.12600909667964 152.40192423350985
  endloop
endfacet
facet normal -1.0 -1.1419886657578868e-10 1.1419715451096587e-10
  outer loop
    vertex 108.54847775158817 143.12600909667964 152.40192423350985
    vertex 108.54847775218155 143.12600909667964 157.59807665621645
    vertex 108.54847775205614 143.74732944023924 157.1213207884228
  endloop
endfacet
facet normal -1.0 -1.1419886657578868e-10 1.1419715451096587e-10
  outer loop
    vertex 108.54847775158817 143.12600909667964 152.40192423350985
    vertex 108.54847775205614 143.74732944023924 157.1213207884228
    vertex 108.54847775157165 143.74732944023924 152.8786801013035
  endloop
endfacet
facet normal -1.0 -1.1419886657578868e-10 1.1419715451096587e-10
  outer loop
    vertex 108.54847775157165 143.74732944023924 152.8786801013035
    vertex 108.54847775205614 143.74732944023924 157.1213207884228
    vertex 108.54847775193073 144.22408530803298 156.50000044486313
  endloop
endfacet
facet normal -1.0 -1.1419886657578868e-10 1.1419715451096587e-10
  outer loop
    vertex 108.54847775157165 143.74732944023924 152.8786801013035
    vertex 108.54847775193073 144.22408530803298 156.50000044486313
    vertex 108.54847775158814 144.22408530803298 153.50000044486316
  endloop
endfacet
facet normal -1.0 -1.1419886657578868e-10 1.1419715451096587e-10
  outer loop
    vertex 108.54847775158814 144.22408530803298 153.50000044486316
    vertex 108.54847775193073 144.22408530803298 156.50000044486313
    vertex 108.5484777518139 144.52378657554684 155.7764575801707
  endloop
endfacet
facet normal -1.0 -1.1419886657578868e-10 1.1419715451096587e-10
  outer loop
    vertex 108.54847775158814 144.22408530803298 153.50000044486316
    vertex 108.5484777518139 144.52378657554684 155.7764575801707
    vertex 108.54847775163655 144.52378657554684 154.2235433095556
  endloop
endfacet
facet normal -1.0 -1.1419886657578868e-10 1.1419715451096587e-10
  outer loop
    vertex 108.54847775163655 144.52378657554684 154.2235433095556
    vertex 108.5484777518139 144.52378657554684 155.7764575801707
    vertex 108.54847775171355 144.62600909667967 155.00000044486313
  endloop
endfacet
facet normal 1.6011855919088295e-10 -0.6087614290087409 0.7933533402912196
  outer loop
    vertex 108.54847775254063 139.50468875312004 157.1213207884228
    vertex 136.54847775198743 140.12600909987714 157.59807665301895
    vertex 108.54847775252416 140.1260090966796 157.59807665621645
  endloop
endfacet
facet normal 1.6011855919088295e-10 -0.6087614290087409 0.7933533402912196
  outer loop
    vertex 136.54847775198743 140.12600909987714 157.59807665301895
    vertex 108.54847775254063 139.50468875312004 157.1213207884228
    vertex 136.54847775200392 139.50468875631756 157.1213207852253
  endloop
endfacet
facet normal 1.6011887522420166e-10 -0.7933533402911961 0.6087614290087716
  outer loop
    vertex 136.54847775200392 139.50468875631756 157.1213207852253
    vertex 108.54847775252415 139.0279328853263 156.50000044486313
    vertex 136.54847775198743 139.02793288852382 156.50000044166563
  endloop
endfacet
facet normal 1.6011887522420166e-10 -0.7933533402911961 0.6087614290087716
  outer loop
    vertex 108.54847775252415 139.0279328853263 156.50000044486313
    vertex 136.54847775200392 139.50468875631756 157.1213207852253
    vertex 108.54847775254063 139.50468875312004 157.1213207884228
  endloop
endfacet
facet normal 1.4920735451993914e-10 -0.9238795325113007 0.38268343236505625
  outer loop
    vertex 136.54847775198743 139.02793288852382 156.50000044166563
    vertex 108.54847775247573 138.7282316178124 155.7764575801707
    vertex 136.54847775193898 138.72823162100994 155.7764575769732
  endloop
endfacet
facet normal 1.4920735451993914e-10 -0.9238795325113007 0.38268343236505625
  outer loop
    vertex 108.54847775247573 138.7282316178124 155.7764575801707
    vertex 136.54847775198743 139.02793288852382 156.50000044166563
    vertex 108.54847775252415 139.0279328853263 156.50000044486313
  endloop
endfacet
facet normal 1.2812759918196535e-10 -0.9914448613738037 0.13052619222010214
  outer loop
    vertex 136.54847775193898 138.72823162100994 155.7764575769732
    vertex 108.54847775239874 138.62600909667958 155.00000044486313
    vertex 136.548477751862 138.6260090998771 155.00000044166563
  endloop
endfacet
facet normal 1.2812759918196535e-10 -0.9914448613738037 0.13052619222010214
  outer loop
    vertex 108.54847775239874 138.62600909667958 155.00000044486313
    vertex 136.54847775193898 138.72823162100994 155.7764575769732
    vertex 108.54847775247573 138.7282316178124 155.7764575801707
  endloop
endfacet
facet normal 9.831615970059127e-11 -0.9914448613738037 -0.13052619222010214
  outer loop
    vertex 136.548477751862 138.6260090998771 155.00000044166563
    vertex 108.5484777522984 138.7282316178124 154.2235433095556
    vertex 136.54847775176168 138.72823162100994 154.2235433063581
  endloop
endfacet
facet normal 9.831615970059127e-11 -0.9914448613738037 -0.13052619222010214
  outer loop
    vertex 108.5484777522984 138.7282316178124 154.2235433095556
    vertex 136.548477751862 138.6260090998771 155.00000044166563
    vertex 108.54847775239874 138.62600909667958 155.00000044486313
  endloop
endfacet
facet normal 6.180463641078097e-11 -0.9238795325113007 -0.38268343236505625
  outer loop
    vertex 136.54847775176168 138.72823162100994 154.2235433063581
    vertex 108.54847775218155 139.0279328853263 153.50000044486316
    vertex 136.54847775164484 139.02793288852382 153.50000044166563
  endloop
endfacet
facet normal 6.180463641078097e-11 -0.9238795325113007 -0.38268343236505625
  outer loop
    vertex 108.54847775218155 139.0279328853263 153.50000044486316
    vertex 136.54847775176168 138.72823162100994 154.2235433063581
    vertex 108.5484777522984 138.7282316178124 154.2235433095556
  endloop
endfacet
facet normal 2.1081229286539502e-11 -0.7933533402911961 -0.6087614290087716
  outer loop
    vertex 136.54847775164484 139.02793288852382 153.50000044166563
    vertex 108.54847775205614 139.50468875312004 152.8786801013035
    vertex 136.5484777515194 139.50468875631756 152.878680098106
  endloop
endfacet
facet normal 2.1081229286539502e-11 -0.7933533402911961 -0.6087614290087716
  outer loop
    vertex 108.54847775205614 139.50468875312004 152.8786801013035
    vertex 136.54847775164484 139.02793288852382 153.50000044166563
    vertex 108.54847775218155 139.0279328853263 153.50000044486316
  endloop
endfacet
facet normal -2.107882877517165e-11 -0.6087614290087409 -0.7933533402912196
  outer loop
    vertex 136.54847775139405 140.12600909987714 152.40192423031235
    vertex 108.54847775205614 139.50468875312004 152.8786801013035
    vertex 108.54847775193078 140.1260090966796 152.40192423350985
  endloop
endfacet
facet normal -2.107882877517165e-11 -0.6087614290087409 -0.7933533402912196
  outer loop
    vertex 108.54847775205614 139.50468875312004 152.8786801013035
    vertex 136.54847775139405 140.12600909987714 152.40192423031235
    vertex 136.5484777515194 139.50468875631756 152.878680098106
  endloop
endfacet
facet normal -6.180239949028044e-11 -0.3826834323651156 -0.9238795325112762
  outer loop
    vertex 136.5484777512772 140.84955196456954 152.10222296279844
    vertex 108.54847775193078 140.1260090966796 152.40192423350985
    vertex 108.5484777518139 140.84955196137201 152.10222296599594
  endloop
endfacet
facet normal -6.180239949028044e-11 -0.3826834323651156 -0.9238795325112762
  outer loop
    vertex 108.54847775193078 140.1260090966796 152.40192423350985
    vertex 136.5484777512772 140.84955196456954 152.10222296279844
    vertex 136.54847775139405 140.12600909987714 152.40192423031235
  endloop
endfacet
facet normal -9.83142388134265e-11 -0.13052619222003808 -0.9914448613738123
  outer loop
    vertex 136.54847775117682 141.62600909987717 152.00000044166563
    vertex 108.5484777518139 140.84955196137201 152.10222296599594
    vertex 108.54847775171355 141.62600909667964 152.00000044486316
  endloop
endfacet
facet normal -9.83142388134265e-11 -0.13052619222003808 -0.9914448613738123
  outer loop
    vertex 108.5484777518139 140.84955196137201 152.10222296599594
    vertex 136.54847775117682 141.62600909987717 152.00000044166563
    vertex 136.5484777512772 140.84955196456954 152.10222296279844
  endloop
endfacet
facet normal -1.2812612523339023e-10 0.13052619222003808 -0.9914448613738123
  outer loop
    vertex 136.5484777510998 142.40246623518476 152.10222296279844
    vertex 108.54847775171355 141.62600909667964 152.00000044486316
    vertex 108.54847775163655 142.40246623198723 152.10222296599594
  endloop
endfacet
facet normal -1.2812612523339023e-10 0.13052619222003808 -0.9914448613738123
  outer loop
    vertex 108.54847775171355 141.62600909667964 152.00000044486316
    vertex 136.5484777510998 142.40246623518476 152.10222296279844
    vertex 136.54847775117682 141.62600909987717 152.00000044166563
  endloop
endfacet
facet normal -1.492064279571378e-10 0.3826834323651156 -0.9238795325112762
  outer loop
    vertex 136.54847775105142 143.12600909987717 152.40192423031235
    vertex 108.54847775163655 142.40246623198723 152.10222296599594
    vertex 108.54847775158817 143.12600909667964 152.40192423350985
  endloop
endfacet
facet normal -1.492064279571378e-10 0.3826834323651156 -0.9238795325112762
  outer loop
    vertex 108.54847775163655 142.40246623198723 152.10222296599594
    vertex 136.54847775105142 143.12600909987717 152.40192423031235
    vertex 136.5484777510998 142.40246623518476 152.10222296279844
  endloop
endfacet
facet normal -1.6011855919088295e-10 0.6087614290087409 -0.7933533402912196
  outer loop
    vertex 136.54847775103494 143.74732944343677 152.878680098106
    vertex 108.54847775158817 143.12600909667964 152.40192423350985
    vertex 108.54847775157165 143.74732944023924 152.8786801013035
  endloop
endfacet
facet normal -1.6011855919088295e-10 0.6087614290087409 -0.7933533402912196
  outer loop
    vertex 108.54847775158817 143.12600909667964 152.40192423350985
    vertex 136.54847775103494 143.74732944343677 152.878680098106
    vertex 136.54847775105142 143.12600909987717 152.40192423031235
  endloop
endfacet
facet normal -1.6011887522420166e-10 0.7933533402911961 -0.6087614290087716
  outer loop
    vertex 108.54847775157165 143.74732944023924 152.8786801013035
    vertex 136.54847775105142 144.2240853112305 153.50000044166563
    vertex 136.54847775103494 143.74732944343677 152.878680098106
  endloop
endfacet
facet normal -1.6011887522420166e-10 0.7933533402911961 -0.6087614290087716
  outer loop
    vertex 136.54847775105142 144.2240853112305 153.50000044166563
    vertex 108.54847775157165 143.74732944023924 152.8786801013035
    vertex 108.54847775158814 144.22408530803298 153.50000044486316
  endloop
endfacet
facet normal -1.4920735451993914e-10 0.9238795325113007 -0.38268343236505625
  outer loop
    vertex 108.54847775158814 144.22408530803298 153.50000044486316
    vertex 136.5484777510998 144.52378657874436 154.2235433063581
    vertex 136.54847775105142 144.2240853112305 153.50000044166563
  endloop
endfacet
facet normal -1.4920735451993914e-10 0.9238795325113007 -0.38268343236505625
  outer loop
    vertex 136.5484777510998 144.52378657874436 154.2235433063581
    vertex 108.54847775158814 144.22408530803298 153.50000044486316
    vertex 108.54847775163655 144.52378657554684 154.2235433095556
  endloop
endfacet
facet normal -1.2812759918196535e-10 0.9914448613738037 -0.13052619222010214
  outer loop
    vertex 108.54847775163655 144.52378657554684 154.2235433095556
    vertex 136.54847775117682 144.6260090998772 155.00000044166563
    vertex 136.5484777510998 144.52378657874436 154.2235433063581
  endloop
endfacet
facet normal -1.2812759918196535e-10 0.9914448613738037 -0.13052619222010214
  outer loop
    vertex 136.54847775117682 144.6260090998772 155.00000044166563
    vertex 108.54847775163655 144.52378657554684 154.2235433095556
    vertex 108.54847775171355 144.62600909667967 155.00000044486313
  endloop
endfacet
facet normal -9.831615970059127e-11 0.9914448613738037 0.13052619222010214
  outer loop
    vertex 108.54847775171355 144.62600909667967 155.00000044486313
    vertex 136.54847775127718 144.52378657874436 155.7764575769732
    vertex 136.54847775117682 144.6260090998772 155.00000044166563
  endloop
endfacet
facet normal -9.831615970059127e-11 0.9914448613738037 0.13052619222010214
  outer loop
    vertex 136.54847775127718 144.52378657874436 155.7764575769732
    vertex 108.54847775171355 144.62600909667967 155.00000044486313
    vertex 108.5484777518139 144.52378657554684 155.7764575801707
  endloop
endfacet
facet normal -6.180463641078097e-11 0.9238795325113007 0.38268343236505625
  outer loop
    vertex 108.5484777518139 144.52378657554684 155.7764575801707
    vertex 136.54847775139402 144.2240853112305 156.50000044166563
    vertex 136.54847775127718 144.52378657874436 155.7764575769732
  endloop
endfacet
facet normal -6.180463641078097e-11 0.9238795325113007 0.38268343236505625
  outer loop
    vertex 136.54847775139402 144.2240853112305 156.50000044166563
    vertex 108.5484777518139 144.52378657554684 155.7764575801707
    vertex 108.54847775193073 144.22408530803298 156.50000044486313
  endloop
endfacet
facet normal -2.1081229286539502e-11 0.7933533402911961 0.6087614290087716
  outer loop
    vertex 108.54847775193073 144.22408530803298 156.50000044486313
    vertex 136.5484777515194 143.74732944343677 157.1213207852253
    vertex 136.54847775139402 144.2240853112305 156.50000044166563
  endloop
endfacet
facet normal -2.1081229286539502e-11 0.7933533402911961 0.6087614290087716
  outer loop
    vertex 136.5484777515194 143.74732944343677 157.1213207852253
    vertex 108.54847775193073 144.22408530803298 156.50000044486313
    vertex 108.54847775205614 143.74732944023924 157.1213207884228
  endloop
endfacet
facet normal 2.107882877517165e-11 0.6087614290087409 0.7933533402912196
  outer loop
    vertex 108.54847775218155 143.12600909667964 157.59807665621645
    vertex 136.5484777515194 143.74732944343677 157.1213207852253
    vertex 108.54847775205614 143.74732944023924 157.1213207884228
  endloop
endfacet
facet normal 2.107882877517165e-11 0.6087614290087409 0.7933533402912196
  outer loop
    vertex 136.5484777515194 143.74732944343677 157.1213207852253
    vertex 108.54847775218155 143.12600909667964 157.59807665621645
    vertex 136.54847775164484 143.12600909987717 157.59807665301895
  endloop
endfacet
facet normal 6.180239949028044e-11 0.3826834323651156 0.9238795325112762
  outer loop
    vertex 108.5484777522984 142.40246623198723 157.89777792373036
    vertex 136.54847775164484 143.12600909987717 157.59807665301895
    vertex 108.54847775218155 143.12600909667964 157.59807665621645
  endloop
endfacet
facet normal 6.180239949028044e-11 0.3826834323651156 0.9238795325112762
  outer loop
    vertex 136.54847775164484 143.12600909987717 157.59807665301895
    vertex 108.5484777522984 142.40246623198723 157.89777792373036
    vertex 136.54847775176168 142.40246623518476 157.89777792053286
  endloop
endfacet
facet normal 9.83142388134265e-11 0.13052619222003808 0.9914448613738123
  outer loop
    vertex 108.54847775239874 141.62600909667964 158.00000044486313
    vertex 136.54847775176168 142.40246623518476 157.89777792053286
    vertex 108.5484777522984 142.40246623198723 157.89777792373036
  endloop
endfacet
facet normal 9.83142388134265e-11 0.13052619222003808 0.9914448613738123
  outer loop
    vertex 136.54847775176168 142.40246623518476 157.89777792053286
    vertex 108.54847775239874 141.62600909667964 158.00000044486313
    vertex 136.548477751862 141.62600909987717 158.00000044166563
  endloop
endfacet
facet normal 1.2812612523339023e-10 -0.13052619222003808 0.9914448613738123
  outer loop
    vertex 108.54847775247573 140.84955196137201 157.89777792373036
    vertex 136.548477751862 141.62600909987717 158.00000044166563
    vertex 108.54847775239874 141.62600909667964 158.00000044486313
  endloop
endfacet
facet normal 1.2812612523339023e-10 -0.13052619222003808 0.9914448613738123
  outer loop
    vertex 136.548477751862 141.62600909987717 158.00000044166563
    vertex 108.54847775247573 140.84955196137201 157.89777792373036
    vertex 136.548477751939 140.84955196456954 157.89777792053286
  endloop
endfacet
facet normal 1.492064279571378e-10 -0.3826834323651156 0.9238795325112762
  outer loop
    vertex 108.54847775252416 140.1260090966796 157.59807665621645
    vertex 136.548477751939 140.84955196456954 157.89777792053286
    vertex 108.54847775247573 140.84955196137201 157.89777792373036
  endloop
endfacet
facet normal 1.492064279571378e-10 -0.3826834323651156 0.9238795325112762
  outer loop
    vertex 136.548477751939 140.84955196456954 157.89777792053286
    vertex 108.54847775252416 140.1260090966796 157.59807665621645
    vertex 136.54847775198743 140.12600909987714 157.59807665301895
  endloop
endfacet
facet normal 1.0 1.0342150887755037e-10 -7.837199167614024e-11
  outer loop
    vertex 153.86954581342226 136.92600910185513 150.30000043968758
    vertex 153.8695458134222 137.9260091018558 155.00000043968748
    vertex 153.8695458134222 136.92600910185513 159.70000043968759
  endloop
endfacet
facet normal 1.0 1.0342150887755037e-10 -7.837199167614024e-11
  outer loop
    vertex 153.8695458134222 137.9260091018558 155.00000043968748
    vertex 153.86954581342226 136.92600910185513 150.30000043968758
    vertex 153.86954581319387 140.9260091018555 152.0000004396875
  endloop
endfacet
facet normal 1.0 1.0342150887755037e-10 -7.837199167614024e-11
  outer loop
    vertex 153.86954581319387 140.9260091018555 152.0000004396875
    vertex 153.86954581342226 136.92600910185513 150.30000043968758
    vertex 153.86954581127517 146.32600910185533 150.30000043968758
  endloop
endfacet
facet normal 1.0 1.0342150887755037e-10 -7.837199167614024e-11
  outer loop
    vertex 153.86954581319387 140.9260091018555 152.0000004396875
    vertex 153.86954581127517 146.32600910185533 150.30000043968758
    vertex 153.86954581319387 140.9260091018555 158.0000004396874
  endloop
endfacet
facet normal 1.0 1.0342150887755037e-10 -7.837199167614024e-11
  outer loop
    vertex 153.8695458134222 136.92600910185513 159.70000043968759
    vertex 153.86954581319387 140.9260091018555 158.0000004396874
    vertex 153.8695458134222 146.32600910185533 159.70000043968759
  endloop
endfacet
facet normal 1.0 1.0342150887755037e-10 -7.837199167614024e-11
  outer loop
    vertex 153.86954581319387 140.9260091018555 158.0000004396874
    vertex 153.8695458134222 136.92600910185513 159.70000043968759
    vertex 153.8695458134222 137.9260091018558 155.00000043968748
  endloop
endfacet
facet normal 1.0 1.0342150887755037e-10 -7.837199167614024e-11
  outer loop
    vertex 153.8695458134222 146.32600910185533 159.70000043968759
    vertex 153.86954581319387 140.9260091018555 158.0000004396874
    vertex 153.86954581127517 146.32600910185533 150.30000043968758
  endloop
endfacet
facet normal 1.0 7.611653529693186e-11 -2.424553849108066e-16
  outer loop
    vertex 151.8695454154068 140.92600910170336 158.00000043968734
    vertex 151.86954541563514 137.9260091017037 155.00000043968743
    vertex 151.8695454154068 140.92600910170336 152.00000043968748
  endloop
endfacet
facet normal 7.611653529693186e-11 -1.0 0.0
  outer loop
    vertex 153.86954581319387 140.9260091018555 152.0000004396875
    vertex 151.8695454154068 140.92600910170336 158.00000043968734
    vertex 151.8695454154068 140.92600910170336 152.00000043968748
  endloop
endfacet
facet normal 7.611653529693186e-11 -1.0 0.0
  outer loop
    vertex 151.8695454154068 140.92600910170336 158.00000043968734
    vertex 153.86954581319387 140.9260091018555 152.0000004396875
    vertex 153.86954581319387 140.9260091018555 158.0000004396874
  endloop
endfacet
facet normal -5.382268971073475e-11 0.7071067811865768 -0.7071067811865184
  outer loop
    vertex 151.8695454154068 140.92600910170336 158.00000043968734
    vertex 153.8695458134222 137.9260091018558 155.00000043968748
    vertex 151.86954541563514 137.9260091017037 155.00000043968743
  endloop
endfacet
facet normal -5.382268971073475e-11 0.7071067811865768 -0.7071067811865184
  outer loop
    vertex 153.8695458134222 137.9260091018558 155.00000043968748
    vertex 151.8695454154068 140.92600910170336 158.00000043968734
    vertex 153.86954581319387 140.9260091018555 158.0000004396874
  endloop
endfacet
facet normal -5.382234682704136e-11 0.7071067811865795 0.7071067811865157
  outer loop
    vertex 151.86954541563514 137.9260091017037 155.00000043968743
    vertex 153.86954581319387 140.9260091018555 152.0000004396875
    vertex 151.8695454154068 140.92600910170336 152.00000043968748
  endloop
endfacet
facet normal -5.382234682704136e-11 0.7071067811865795 0.7071067811865157
  outer loop
    vertex 153.86954581319387 140.9260091018555 152.0000004396875
    vertex 151.86954541563514 137.9260091017037 155.00000043968743
    vertex 153.8695458134222 137.9260091018558 155.00000043968748
  endloop
endfacet
endsolid Design - Rolled - Solid
