solid Design - Rolled - Solid
facet normal 0.0 0.0 -1.0
  outer loop
    vertex 196.11954571543694 110.80276872588198 68.81250008591887
    vertex 200.16954571543695 103.05276872588212 68.81250008591888
    vertex 196.11954571543694 95.30276872588206 68.81250008591887
  endloop
endfacet
facet normal 0.0 0.0 -1.0
  outer loop
    vertex 200.16954571543695 103.05276872588212 68.81250008591888
    vertex 196.11954571543694 110.80276872588198 68.81250008591887
    vertex 202.019545715437 106.25706271988457 68.81250008591888
  endloop
endfacet
facet normal 0.0 0.0 -1.0
  outer loop
    vertex 202.019545715437 106.25706271988457 68.81250008591888
    vertex 196.11954571543694 110.80276872588198 68.81250008591887
    vertex 211.61954571543694 110.80276872588198 68.81250008591887
  endloop
endfacet
facet normal 0.0 0.0 -1.0
  outer loop
    vertex 202.019545715437 106.25706271988457 68.81250008591888
    vertex 211.61954571543694 110.80276872588198 68.81250008591887
    vertex 205.71954571543702 106.25706271988457 68.81250008591888
  endloop
endfacet
facet normal 0.0 0.0 -1.0
  outer loop
    vertex 205.71954571543702 106.25706271988457 68.81250008591888
    vertex 211.61954571543694 110.80276872588198 68.81250008591887
    vertex 207.56954571543702 103.05276872588212 68.81250008591888
  endloop
endfacet
facet normal 0.0 0.0 -1.0
  outer loop
    vertex 196.11954571543694 95.30276872588206 68.81250008591887
    vertex 202.01954571543695 99.84847473187965 68.81250008591888
    vertex 211.61954571543694 95.30276872588206 68.81250008591887
  endloop
endfacet
facet normal 0.0 0.0 -1.0
  outer loop
    vertex 202.01954571543695 99.84847473187965 68.81250008591888
    vertex 196.11954571543694 95.30276872588206 68.81250008591887
    vertex 200.16954571543695 103.05276872588212 68.81250008591888
  endloop
endfacet
facet normal 0.0 0.0 -1.0
  outer loop
    vertex 211.61954571543694 95.30276872588206 68.81250008591887
    vertex 202.01954571543695 99.84847473187965 68.81250008591888
    vertex 205.719545715437 99.84847473187965 68.81250008591888
  endloop
endfacet
facet normal 0.0 0.0 -1.0
  outer loop
    vertex 211.61954571543694 95.30276872588206 68.81250008591887
    vertex 205.719545715437 99.84847473187965 68.81250008591888
    vertex 207.56954571543702 103.05276872588212 68.81250008591888
  endloop
endfacet
facet normal 0.0 0.0 -1.0
  outer loop
    vertex 211.61954571543694 95.30276872588206 68.81250008591887
    vertex 207.56954571543702 103.05276872588212 68.81250008591888
    vertex 211.61954571543694 110.80276872588198 68.81250008591887
  endloop
endfacet
facet normal 0.0 1.0 0.0
  outer loop
    vertex 196.11954571543694 110.80276872588198 72.81250008591886
    vertex 211.61954571543694 110.80276872588198 68.81250008591887
    vertex 196.11954571543694 110.80276872588198 68.81250008591887
  endloop
endfacet
facet normal 0.0 1.0 0.0
  outer loop
    vertex 211.61954571543694 110.80276872588198 68.81250008591887
    vertex 196.11954571543694 110.80276872588198 72.81250008591886
    vertex 211.61954571543694 110.80276872588198 72.81250008591886
  endloop
endfacet
facet normal -1.0 0.0 0.0
  outer loop
    vertex 196.11954571543694 110.80276872588198 72.81250008591886
    vertex 196.11954571543694 95.30276872588206 68.81250008591887
    vertex 196.11954571543694 95.30276872588206 72.81250008591886
  endloop
endfacet
facet normal -1.0 0.0 0.0
  outer loop
    vertex 196.11954571543694 95.30276872588206 68.81250008591887
    vertex 196.11954571543694 110.80276872588198 72.81250008591886
    vertex 196.11954571543694 110.80276872588198 68.81250008591887
  endloop
endfacet
facet normal 0.0 -1.0 0.0
  outer loop
    vertex 211.61954571543694 95.30276872588206 72.81250008591886
    vertex 196.11954571543694 95.30276872588206 68.81250008591887
    vertex 211.61954571543694 95.30276872588206 68.81250008591887
  endloop
endfacet
facet normal 0.0 -1.0 0.0
  outer loop
    vertex 196.11954571543694 95.30276872588206 68.81250008591887
    vertex 211.61954571543694 95.30276872588206 72.81250008591886
    vertex 196.11954571543694 95.30276872588206 72.81250008591886
  endloop
endfacet
facet normal 1.0 0.0 0.0
  outer loop
    vertex 211.61954571543694 110.80276872588198 68.81250008591887
    vertex 211.61954571543694 95.30276872588206 72.81250008591886
    vertex 211.61954571543694 95.30276872588206 68.81250008591887
  endloop
endfacet
facet normal 1.0 0.0 0.0
  outer loop
    vertex 211.61954571543694 95.30276872588206 72.81250008591886
    vertex 211.61954571543694 110.80276872588198 68.81250008591887
    vertex 211.61954571543694 110.80276872588198 72.81250008591886
  endloop
endfacet
facet normal 0.0 0.0 1.0
  outer loop
    vertex 196.11954571543694 95.30276872588206 72.81250008591886
    vertex 198.07399075770257 101.4998544552669 72.81250008591886
    vertex 196.11954571543694 110.80276872588198 72.81250008591886
  endloop
endfacet
facet normal 0.0 0.0 1.0
  outer loop
    vertex 198.07399075770257 101.4998544552669 72.81250008591886
    vertex 196.11954571543694 95.30276872588206 72.81250008591886
    vertex 198.67339329273028 100.05276872588206 72.81250008591886
  endloop
endfacet
facet normal 0.0 0.0 1.0
  outer loop
    vertex 198.67339329273028 100.05276872588206 72.81250008591886
    vertex 196.11954571543694 95.30276872588206 72.81250008591886
    vertex 199.62690502831768 98.81012803876271 72.81250008591886
  endloop
endfacet
facet normal 0.0 0.0 1.0
  outer loop
    vertex 199.62690502831768 98.81012803876271 72.81250008591886
    vertex 196.11954571543694 95.30276872588206 72.81250008591886
    vertex 200.86954571543694 97.85661630317541 72.81250008591886
  endloop
endfacet
facet normal 0.0 0.0 1.0
  outer loop
    vertex 200.86954571543694 97.85661630317541 72.81250008591886
    vertex 196.11954571543694 95.30276872588206 72.81250008591886
    vertex 202.31663144482187 97.2572137681477 72.81250008591886
  endloop
endfacet
facet normal 0.0 0.0 1.0
  outer loop
    vertex 202.31663144482187 97.2572137681477 72.81250008591886
    vertex 196.11954571543694 95.30276872588206 72.81250008591886
    vertex 211.61954571543694 95.30276872588206 72.81250008591886
  endloop
endfacet
facet normal 0.0 0.0 1.0
  outer loop
    vertex 196.11954571543694 110.80276872588198 72.81250008591886
    vertex 198.07399075770257 101.4998544552669 72.81250008591886
    vertex 197.86954571543689 103.05276872588212 72.81250008591886
  endloop
endfacet
facet normal 0.0 0.0 1.0
  outer loop
    vertex 202.31663144482187 97.2572137681477 72.81250008591886
    vertex 211.61954571543694 95.30276872588206 72.81250008591886
    vertex 203.869545715437 97.05276872588202 72.81250008591886
  endloop
endfacet
facet normal 0.0 0.0 1.0
  outer loop
    vertex 203.869545715437 97.05276872588202 72.81250008591886
    vertex 211.61954571543694 95.30276872588206 72.81250008591886
    vertex 205.4224599860521 97.2572137681477 72.81250008591886
  endloop
endfacet
facet normal 0.0 0.0 1.0
  outer loop
    vertex 205.4224599860521 97.2572137681477 72.81250008591886
    vertex 211.61954571543694 95.30276872588206 72.81250008591886
    vertex 206.86954571543694 97.85661630317541 72.81250008591886
  endloop
endfacet
facet normal 0.0 0.0 1.0
  outer loop
    vertex 206.86954571543694 97.85661630317541 72.81250008591886
    vertex 211.61954571543694 95.30276872588206 72.81250008591886
    vertex 208.1121864025563 98.81012803876271 72.81250008591886
  endloop
endfacet
facet normal 0.0 0.0 1.0
  outer loop
    vertex 208.1121864025563 98.81012803876271 72.81250008591886
    vertex 211.61954571543694 95.30276872588206 72.81250008591886
    vertex 209.0656981381436 100.05276872588206 72.81250008591886
  endloop
endfacet
facet normal 0.0 0.0 1.0
  outer loop
    vertex 209.0656981381436 100.05276872588206 72.81250008591886
    vertex 211.61954571543694 95.30276872588206 72.81250008591886
    vertex 209.66510067317142 101.4998544552669 72.81250008591886
  endloop
endfacet
facet normal 0.0 0.0 1.0
  outer loop
    vertex 209.66510067317142 101.4998544552669 72.81250008591886
    vertex 211.61954571543694 95.30276872588206 72.81250008591886
    vertex 209.869545715437 103.05276872588212 72.81250008591886
  endloop
endfacet
facet normal 0.0 0.0 1.0
  outer loop
    vertex 196.11954571543694 110.80276872588198 72.81250008591886
    vertex 202.31663144482178 108.84832368361653 72.81250008591886
    vertex 211.61954571543694 110.80276872588198 72.81250008591886
  endloop
endfacet
facet normal 0.0 0.0 1.0
  outer loop
    vertex 202.31663144482178 108.84832368361653 72.81250008591886
    vertex 196.11954571543694 110.80276872588198 72.81250008591886
    vertex 200.86954571543694 108.24892114858862 72.81250008591886
  endloop
endfacet
facet normal 0.0 0.0 1.0
  outer loop
    vertex 200.86954571543694 108.24892114858862 72.81250008591886
    vertex 196.11954571543694 110.80276872588198 72.81250008591886
    vertex 199.62690502831768 107.29540941300132 72.81250008591886
  endloop
endfacet
facet normal 0.0 0.0 1.0
  outer loop
    vertex 199.62690502831768 107.29540941300132 72.81250008591886
    vertex 196.11954571543694 110.80276872588198 72.81250008591886
    vertex 198.67339329273028 106.05276872588198 72.81250008591886
  endloop
endfacet
facet normal 0.0 0.0 1.0
  outer loop
    vertex 198.67339329273028 106.05276872588198 72.81250008591886
    vertex 196.11954571543694 110.80276872588198 72.81250008591886
    vertex 198.07399075770257 104.60568299649714 72.81250008591886
  endloop
endfacet
facet normal 0.0 0.0 1.0
  outer loop
    vertex 198.07399075770257 104.60568299649714 72.81250008591886
    vertex 196.11954571543694 110.80276872588198 72.81250008591886
    vertex 197.86954571543689 103.05276872588212 72.81250008591886
  endloop
endfacet
facet normal 0.0 0.0 1.0
  outer loop
    vertex 211.61954571543694 110.80276872588198 72.81250008591886
    vertex 202.31663144482178 108.84832368361653 72.81250008591886
    vertex 203.869545715437 109.05276872588202 72.81250008591886
  endloop
endfacet
facet normal 0.0 0.0 1.0
  outer loop
    vertex 211.61954571543694 110.80276872588198 72.81250008591886
    vertex 203.869545715437 109.05276872588202 72.81250008591886
    vertex 205.4224599860521 108.84832368361653 72.81250008591886
  endloop
endfacet
facet normal 0.0 0.0 1.0
  outer loop
    vertex 211.61954571543694 110.80276872588198 72.81250008591886
    vertex 205.4224599860521 108.84832368361653 72.81250008591886
    vertex 206.86954571543694 108.24892114858862 72.81250008591886
  endloop
endfacet
facet normal 0.0 0.0 1.0
  outer loop
    vertex 211.61954571543694 110.80276872588198 72.81250008591886
    vertex 206.86954571543694 108.24892114858862 72.81250008591886
    vertex 208.1121864025563 107.29540941300132 72.81250008591886
  endloop
endfacet
facet normal 0.0 0.0 1.0
  outer loop
    vertex 211.61954571543694 110.80276872588198 72.81250008591886
    vertex 208.1121864025563 107.29540941300132 72.81250008591886
    vertex 209.0656981381436 106.05276872588198 72.81250008591886
  endloop
endfacet
facet normal 0.0 0.0 1.0
  outer loop
    vertex 211.61954571543694 110.80276872588198 72.81250008591886
    vertex 209.0656981381436 106.05276872588198 72.81250008591886
    vertex 209.66510067317142 104.60568299649714 72.81250008591886
  endloop
endfacet
facet normal 0.0 0.0 1.0
  outer loop
    vertex 211.61954571543694 110.80276872588198 72.81250008591886
    vertex 209.66510067317142 104.60568299649714 72.81250008591886
    vertex 209.869545715437 103.05276872588212 72.81250008591886
  endloop
endfacet
facet normal 0.0 0.0 1.0
  outer loop
    vertex 211.61954571543694 110.80276872588198 72.81250008591886
    vertex 209.869545715437 103.05276872588212 72.81250008591886
    vertex 211.61954571543694 95.30276872588206 72.81250008591886
  endloop
endfacet
facet normal 0.0 0.0 1.0
  outer loop
    vertex 198.07399075770257 101.4998544552669 69.31250008591887
    vertex 198.07399075770257 104.60568299649714 69.31250008591887
    vertex 197.86954571543689 103.05276872588212 69.31250008591887
  endloop
endfacet
facet normal 0.0 0.0 1.0
  outer loop
    vertex 198.07399075770257 104.60568299649714 69.31250008591887
    vertex 198.07399075770257 101.4998544552669 69.31250008591887
    vertex 198.67339329273028 100.05276872588206 69.31250008591887
  endloop
endfacet
facet normal 0.0 0.0 1.0
  outer loop
    vertex 198.07399075770257 104.60568299649714 69.31250008591887
    vertex 198.67339329273028 100.05276872588206 69.31250008591887
    vertex 198.67339329273028 106.05276872588198 69.31250008591887
  endloop
endfacet
facet normal 0.0 0.0 1.0
  outer loop
    vertex 198.67339329273028 106.05276872588198 69.31250008591887
    vertex 198.67339329273028 100.05276872588206 69.31250008591887
    vertex 199.62690502831768 98.81012803876271 69.31250008591887
  endloop
endfacet
facet normal 0.0 0.0 1.0
  outer loop
    vertex 198.67339329273028 106.05276872588198 69.31250008591887
    vertex 199.62690502831768 98.81012803876271 69.31250008591887
    vertex 199.62690502831768 107.29540941300132 69.31250008591887
  endloop
endfacet
facet normal 0.0 0.0 1.0
  outer loop
    vertex 199.62690502831768 107.29540941300132 69.31250008591887
    vertex 199.62690502831768 98.81012803876271 69.31250008591887
    vertex 200.86954571543694 97.85661630317541 69.31250008591887
  endloop
endfacet
facet normal 0.0 0.0 1.0
  outer loop
    vertex 199.62690502831768 107.29540941300132 69.31250008591887
    vertex 200.86954571543694 97.85661630317541 69.31250008591887
    vertex 200.86954571543694 108.24892114858862 69.31250008591887
  endloop
endfacet
facet normal 0.0 0.0 1.0
  outer loop
    vertex 200.86954571543694 108.24892114858862 69.31250008591887
    vertex 200.86954571543694 97.85661630317541 69.31250008591887
    vertex 202.31663144482187 97.2572137681477 69.31250008591887
  endloop
endfacet
facet normal 0.0 0.0 1.0
  outer loop
    vertex 200.86954571543694 108.24892114858862 69.31250008591887
    vertex 202.31663144482187 97.2572137681477 69.31250008591887
    vertex 201.96954571543696 103.05276872588212 69.31250008591887
  endloop
endfacet
facet normal 0.0 0.0 1.0
  outer loop
    vertex 201.96954571543696 103.05276872588212 69.31250008591887
    vertex 202.31663144482187 97.2572137681477 69.31250008591887
    vertex 202.0342866454877 102.5610125401872 69.31250008591887
  endloop
endfacet
facet normal 0.0 0.0 1.0
  outer loop
    vertex 202.0342866454877 102.5610125401872 69.31250008591887
    vertex 202.31663144482187 97.2572137681477 69.31250008591887
    vertex 202.22409744824648 102.10276872588197 69.31250008591887
  endloop
endfacet
facet normal 0.0 0.0 1.0
  outer loop
    vertex 202.22409744824648 102.10276872588197 69.31250008591887
    vertex 202.31663144482187 97.2572137681477 69.31250008591887
    vertex 202.5260428311825 101.70926584162764 69.31250008591887
  endloop
endfacet
facet normal 0.0 0.0 1.0
  outer loop
    vertex 202.5260428311825 101.70926584162764 69.31250008591887
    vertex 202.31663144482187 97.2572137681477 69.31250008591887
    vertex 203.869545715437 97.05276872588202 69.31250008591887
  endloop
endfacet
facet normal 0.0 0.0 1.0
  outer loop
    vertex 202.5260428311825 101.70926584162764 69.31250008591887
    vertex 203.869545715437 97.05276872588202 69.31250008591887
    vertex 202.91954571543693 101.40732045869152 69.31250008591887
  endloop
endfacet
facet normal 0.0 0.0 1.0
  outer loop
    vertex 202.91954571543693 101.40732045869152 69.31250008591887
    vertex 203.869545715437 97.05276872588202 69.31250008591887
    vertex 203.3777895297422 101.2175096559329 69.31250008591887
  endloop
endfacet
facet normal 0.0 0.0 1.0
  outer loop
    vertex 203.3777895297422 101.2175096559329 69.31250008591887
    vertex 203.869545715437 97.05276872588202 69.31250008591887
    vertex 203.869545715437 101.152768725882 69.31250008591887
  endloop
endfacet
facet normal 0.0 0.0 1.0
  outer loop
    vertex 203.869545715437 101.152768725882 69.31250008591887
    vertex 203.869545715437 97.05276872588202 69.31250008591887
    vertex 205.4224599860521 97.2572137681477 69.31250008591887
  endloop
endfacet
facet normal 0.0 0.0 1.0
  outer loop
    vertex 203.869545715437 101.152768725882 69.31250008591887
    vertex 205.4224599860521 97.2572137681477 69.31250008591887
    vertex 204.36130190113172 101.2175096559329 69.31250008591887
  endloop
endfacet
facet normal 0.0 0.0 1.0
  outer loop
    vertex 204.36130190113172 101.2175096559329 69.31250008591887
    vertex 205.4224599860521 97.2572137681477 69.31250008591887
    vertex 204.81954571543696 101.40732045869152 69.31250008591887
  endloop
endfacet
facet normal 0.0 0.0 1.0
  outer loop
    vertex 204.81954571543696 101.40732045869152 69.31250008591887
    vertex 205.4224599860521 97.2572137681477 69.31250008591887
    vertex 205.21304859969138 101.70926584162764 69.31250008591887
  endloop
endfacet
facet normal 0.0 0.0 1.0
  outer loop
    vertex 205.21304859969138 101.70926584162764 69.31250008591887
    vertex 205.4224599860521 97.2572137681477 69.31250008591887
    vertex 205.5149939826274 102.10276872588197 69.31250008591887
  endloop
endfacet
facet normal 0.0 0.0 1.0
  outer loop
    vertex 205.5149939826274 102.10276872588197 69.31250008591887
    vertex 205.4224599860521 97.2572137681477 69.31250008591887
    vertex 206.86954571543694 97.85661630317541 69.31250008591887
  endloop
endfacet
facet normal 0.0 0.0 1.0
  outer loop
    vertex 205.5149939826274 102.10276872588197 69.31250008591887
    vertex 206.86954571543694 97.85661630317541 69.31250008591887
    vertex 205.7048047853862 102.5610125401872 69.31250008591887
  endloop
endfacet
facet normal 0.0 0.0 1.0
  outer loop
    vertex 205.7048047853862 102.5610125401872 69.31250008591887
    vertex 206.86954571543694 97.85661630317541 69.31250008591887
    vertex 205.76954571543692 103.05276872588212 69.31250008591887
  endloop
endfacet
facet normal 0.0 0.0 1.0
  outer loop
    vertex 201.96954571543696 103.05276872588212 69.31250008591887
    vertex 202.31663144482178 108.84832368361653 69.31250008591887
    vertex 200.86954571543694 108.24892114858862 69.31250008591887
  endloop
endfacet
facet normal 0.0 0.0 1.0
  outer loop
    vertex 202.31663144482178 108.84832368361653 69.31250008591887
    vertex 201.96954571543696 103.05276872588212 69.31250008591887
    vertex 202.0342866454877 103.54452491157684 69.31250008591887
  endloop
endfacet
facet normal 0.0 0.0 1.0
  outer loop
    vertex 202.31663144482178 108.84832368361653 69.31250008591887
    vertex 202.0342866454877 103.54452491157684 69.31250008591887
    vertex 202.22409744824648 104.00276872588208 69.31250008591887
  endloop
endfacet
facet normal 0.0 0.0 1.0
  outer loop
    vertex 202.31663144482178 108.84832368361653 69.31250008591887
    vertex 202.22409744824648 104.00276872588208 69.31250008591887
    vertex 202.5260428311825 104.39627161013641 69.31250008591887
  endloop
endfacet
facet normal 0.0 0.0 1.0
  outer loop
    vertex 202.31663144482178 108.84832368361653 69.31250008591887
    vertex 202.5260428311825 104.39627161013641 69.31250008591887
    vertex 203.869545715437 109.05276872588202 69.31250008591887
  endloop
endfacet
facet normal 0.0 0.0 1.0
  outer loop
    vertex 203.869545715437 109.05276872588202 69.31250008591887
    vertex 202.5260428311825 104.39627161013641 69.31250008591887
    vertex 202.91954571543693 104.69821699307252 69.31250008591887
  endloop
endfacet
facet normal 0.0 0.0 1.0
  outer loop
    vertex 203.869545715437 109.05276872588202 69.31250008591887
    vertex 202.91954571543693 104.69821699307252 69.31250008591887
    vertex 203.3777895297422 104.88802779583132 69.31250008591887
  endloop
endfacet
facet normal 0.0 0.0 1.0
  outer loop
    vertex 203.869545715437 109.05276872588202 69.31250008591887
    vertex 203.3777895297422 104.88802779583132 69.31250008591887
    vertex 203.869545715437 104.95276872588204 69.31250008591887
  endloop
endfacet
facet normal 0.0 0.0 1.0
  outer loop
    vertex 203.869545715437 109.05276872588202 69.31250008591887
    vertex 203.869545715437 104.95276872588204 69.31250008591887
    vertex 204.36130190113172 104.88802779583132 69.31250008591887
  endloop
endfacet
facet normal 0.0 0.0 1.0
  outer loop
    vertex 203.869545715437 109.05276872588202 69.31250008591887
    vertex 204.36130190113172 104.88802779583132 69.31250008591887
    vertex 205.4224599860521 108.84832368361653 69.31250008591887
  endloop
endfacet
facet normal 0.0 0.0 1.0
  outer loop
    vertex 205.4224599860521 108.84832368361653 69.31250008591887
    vertex 204.36130190113172 104.88802779583132 69.31250008591887
    vertex 204.81954571543696 104.69821699307252 69.31250008591887
  endloop
endfacet
facet normal 0.0 0.0 1.0
  outer loop
    vertex 205.4224599860521 108.84832368361653 69.31250008591887
    vertex 204.81954571543696 104.69821699307252 69.31250008591887
    vertex 205.21304859969138 104.39627161013641 69.31250008591887
  endloop
endfacet
facet normal 0.0 0.0 1.0
  outer loop
    vertex 205.4224599860521 108.84832368361653 69.31250008591887
    vertex 205.21304859969138 104.39627161013641 69.31250008591887
    vertex 205.5149939826274 104.00276872588208 69.31250008591887
  endloop
endfacet
facet normal 0.0 0.0 1.0
  outer loop
    vertex 205.4224599860521 108.84832368361653 69.31250008591887
    vertex 205.5149939826274 104.00276872588208 69.31250008591887
    vertex 206.86954571543694 108.24892114858862 69.31250008591887
  endloop
endfacet
facet normal 0.0 0.0 1.0
  outer loop
    vertex 206.86954571543694 108.24892114858862 69.31250008591887
    vertex 205.5149939826274 104.00276872588208 69.31250008591887
    vertex 205.7048047853862 103.54452491157684 69.31250008591887
  endloop
endfacet
facet normal 0.0 0.0 1.0
  outer loop
    vertex 206.86954571543694 108.24892114858862 69.31250008591887
    vertex 205.7048047853862 103.54452491157684 69.31250008591887
    vertex 205.76954571543692 103.05276872588212 69.31250008591887
  endloop
endfacet
facet normal 0.0 0.0 1.0
  outer loop
    vertex 206.86954571543694 108.24892114858862 69.31250008591887
    vertex 205.76954571543692 103.05276872588212 69.31250008591887
    vertex 206.86954571543694 97.85661630317541 69.31250008591887
  endloop
endfacet
facet normal 0.0 0.0 1.0
  outer loop
    vertex 206.86954571543694 108.24892114858862 69.31250008591887
    vertex 206.86954571543694 97.85661630317541 69.31250008591887
    vertex 208.1121864025563 98.81012803876271 69.31250008591887
  endloop
endfacet
facet normal 0.0 0.0 1.0
  outer loop
    vertex 206.86954571543694 108.24892114858862 69.31250008591887
    vertex 208.1121864025563 98.81012803876271 69.31250008591887
    vertex 208.1121864025563 107.29540941300132 69.31250008591887
  endloop
endfacet
facet normal 0.0 0.0 1.0
  outer loop
    vertex 208.1121864025563 107.29540941300132 69.31250008591887
    vertex 208.1121864025563 98.81012803876271 69.31250008591887
    vertex 209.0656981381436 100.05276872588206 69.31250008591887
  endloop
endfacet
facet normal 0.0 0.0 1.0
  outer loop
    vertex 208.1121864025563 107.29540941300132 69.31250008591887
    vertex 209.0656981381436 100.05276872588206 69.31250008591887
    vertex 209.0656981381436 106.05276872588198 69.31250008591887
  endloop
endfacet
facet normal 0.0 0.0 1.0
  outer loop
    vertex 209.0656981381436 106.05276872588198 69.31250008591887
    vertex 209.0656981381436 100.05276872588206 69.31250008591887
    vertex 209.66510067317142 101.4998544552669 69.31250008591887
  endloop
endfacet
facet normal 0.0 0.0 1.0
  outer loop
    vertex 209.0656981381436 106.05276872588198 69.31250008591887
    vertex 209.66510067317142 101.4998544552669 69.31250008591887
    vertex 209.66510067317142 104.60568299649714 69.31250008591887
  endloop
endfacet
facet normal 0.0 0.0 1.0
  outer loop
    vertex 209.66510067317142 104.60568299649714 69.31250008591887
    vertex 209.66510067317142 101.4998544552669 69.31250008591887
    vertex 209.869545715437 103.05276872588212 69.31250008591887
  endloop
endfacet
facet normal -0.9914448613738114 0.1305261922200446 0.0
  outer loop
    vertex 209.869545715437 103.05276872588212 72.81250008591886
    vertex 209.66510067317142 101.4998544552669 69.31250008591887
    vertex 209.66510067317142 101.4998544552669 72.81250008591886
  endloop
endfacet
facet normal -0.9914448613738114 0.1305261922200446 0.0
  outer loop
    vertex 209.66510067317142 101.4998544552669 69.31250008591887
    vertex 209.869545715437 103.05276872588212 72.81250008591886
    vertex 209.869545715437 103.05276872588212 69.31250008591887
  endloop
endfacet
facet normal -0.9914448613738114 -0.1305261922200446 -0.0
  outer loop
    vertex 209.66510067317142 104.60568299649714 72.81250008591886
    vertex 209.869545715437 103.05276872588212 69.31250008591887
    vertex 209.869545715437 103.05276872588212 72.81250008591886
  endloop
endfacet
facet normal -0.9914448613738114 -0.1305261922200446 -0.0
  outer loop
    vertex 209.869545715437 103.05276872588212 69.31250008591887
    vertex 209.66510067317142 104.60568299649714 72.81250008591886
    vertex 209.66510067317142 104.60568299649714 69.31250008591887
  endloop
endfacet
facet normal -0.923879532511285 -0.38268343236509444 -0.0
  outer loop
    vertex 209.0656981381436 106.05276872588198 72.81250008591886
    vertex 209.66510067317142 104.60568299649714 69.31250008591887
    vertex 209.66510067317142 104.60568299649714 72.81250008591886
  endloop
endfacet
facet normal -0.923879532511285 -0.38268343236509444 -0.0
  outer loop
    vertex 209.66510067317142 104.60568299649714 69.31250008591887
    vertex 209.0656981381436 106.05276872588198 72.81250008591886
    vertex 209.0656981381436 106.05276872588198 69.31250008591887
  endloop
endfacet
facet normal -0.7933533402912408 -0.6087614290087133 -0.0
  outer loop
    vertex 208.1121864025563 107.29540941300132 72.81250008591886
    vertex 209.0656981381436 106.05276872588198 69.31250008591887
    vertex 209.0656981381436 106.05276872588198 72.81250008591886
  endloop
endfacet
facet normal -0.7933533402912408 -0.6087614290087133 -0.0
  outer loop
    vertex 209.0656981381436 106.05276872588198 69.31250008591887
    vertex 208.1121864025563 107.29540941300132 72.81250008591886
    vertex 208.1121864025563 107.29540941300132 69.31250008591887
  endloop
endfacet
facet normal -0.608761429008715 -0.7933533402912395 -0.0
  outer loop
    vertex 208.1121864025563 107.29540941300132 72.81250008591886
    vertex 206.86954571543694 108.24892114858862 69.31250008591887
    vertex 208.1121864025563 107.29540941300132 69.31250008591887
  endloop
endfacet
facet normal -0.608761429008715 -0.7933533402912395 -0.0
  outer loop
    vertex 206.86954571543694 108.24892114858862 69.31250008591887
    vertex 208.1121864025563 107.29540941300132 72.81250008591886
    vertex 206.86954571543694 108.24892114858862 72.81250008591886
  endloop
endfacet
facet normal -0.38268343236509006 -0.9238795325112867 -0.0
  outer loop
    vertex 206.86954571543694 108.24892114858862 72.81250008591886
    vertex 205.4224599860521 108.84832368361653 69.31250008591887
    vertex 206.86954571543694 108.24892114858862 69.31250008591887
  endloop
endfacet
facet normal -0.38268343236509006 -0.9238795325112867 -0.0
  outer loop
    vertex 205.4224599860521 108.84832368361653 69.31250008591887
    vertex 206.86954571543694 108.24892114858862 72.81250008591886
    vertex 205.4224599860521 108.84832368361653 72.81250008591886
  endloop
endfacet
facet normal -0.13052619222005263 -0.9914448613738104 -0.0
  outer loop
    vertex 205.4224599860521 108.84832368361653 72.81250008591886
    vertex 203.869545715437 109.05276872588202 69.31250008591887
    vertex 205.4224599860521 108.84832368361653 69.31250008591887
  endloop
endfacet
facet normal -0.13052619222005263 -0.9914448613738104 -0.0
  outer loop
    vertex 203.869545715437 109.05276872588202 69.31250008591887
    vertex 205.4224599860521 108.84832368361653 72.81250008591886
    vertex 203.869545715437 109.05276872588202 72.81250008591886
  endloop
endfacet
facet normal 0.13052619222005074 -0.9914448613738105 0.0
  outer loop
    vertex 203.869545715437 109.05276872588202 72.81250008591886
    vertex 202.31663144482178 108.84832368361653 69.31250008591887
    vertex 203.869545715437 109.05276872588202 69.31250008591887
  endloop
endfacet
facet normal 0.13052619222005074 -0.9914448613738105 0.0
  outer loop
    vertex 202.31663144482178 108.84832368361653 69.31250008591887
    vertex 203.869545715437 109.05276872588202 72.81250008591886
    vertex 202.31663144482178 108.84832368361653 72.81250008591886
  endloop
endfacet
facet normal 0.38268343236509256 -0.9238795325112856 0.0
  outer loop
    vertex 202.31663144482178 108.84832368361653 72.81250008591886
    vertex 200.86954571543694 108.24892114858862 69.31250008591887
    vertex 202.31663144482178 108.84832368361653 69.31250008591887
  endloop
endfacet
facet normal 0.38268343236509256 -0.9238795325112856 0.0
  outer loop
    vertex 200.86954571543694 108.24892114858862 69.31250008591887
    vertex 202.31663144482178 108.84832368361653 72.81250008591886
    vertex 200.86954571543694 108.24892114858862 72.81250008591886
  endloop
endfacet
facet normal 0.6087614290087219 -0.7933533402912342 0.0
  outer loop
    vertex 200.86954571543694 108.24892114858862 72.81250008591886
    vertex 199.62690502831768 107.29540941300132 69.31250008591887
    vertex 200.86954571543694 108.24892114858862 69.31250008591887
  endloop
endfacet
facet normal 0.6087614290087219 -0.7933533402912342 0.0
  outer loop
    vertex 199.62690502831768 107.29540941300132 69.31250008591887
    vertex 200.86954571543694 108.24892114858862 72.81250008591886
    vertex 199.62690502831768 107.29540941300132 72.81250008591886
  endloop
endfacet
facet normal 0.7933533402912352 -0.6087614290087207 0.0
  outer loop
    vertex 199.62690502831768 107.29540941300132 69.31250008591887
    vertex 198.67339329273028 106.05276872588198 72.81250008591886
    vertex 198.67339329273028 106.05276872588198 69.31250008591887
  endloop
endfacet
facet normal 0.7933533402912352 -0.6087614290087207 0.0
  outer loop
    vertex 198.67339329273028 106.05276872588198 72.81250008591886
    vertex 199.62690502831768 107.29540941300132 69.31250008591887
    vertex 199.62690502831768 107.29540941300132 72.81250008591886
  endloop
endfacet
facet normal 0.9238795325112874 -0.3826834323650882 0.0
  outer loop
    vertex 198.67339329273028 106.05276872588198 69.31250008591887
    vertex 198.07399075770257 104.60568299649714 72.81250008591886
    vertex 198.07399075770257 104.60568299649714 69.31250008591887
  endloop
endfacet
facet normal 0.9238795325112874 -0.3826834323650882 0.0
  outer loop
    vertex 198.07399075770257 104.60568299649714 72.81250008591886
    vertex 198.67339329273028 106.05276872588198 69.31250008591887
    vertex 198.67339329273028 106.05276872588198 72.81250008591886
  endloop
endfacet
facet normal 0.9914448613738104 -0.13052619222005216 0.0
  outer loop
    vertex 198.07399075770257 104.60568299649714 69.31250008591887
    vertex 197.86954571543689 103.05276872588212 72.81250008591886
    vertex 197.86954571543689 103.05276872588212 69.31250008591887
  endloop
endfacet
facet normal 0.9914448613738104 -0.13052619222005216 0.0
  outer loop
    vertex 197.86954571543689 103.05276872588212 72.81250008591886
    vertex 198.07399075770257 104.60568299649714 69.31250008591887
    vertex 198.07399075770257 104.60568299649714 72.81250008591886
  endloop
endfacet
facet normal 0.9914448613738105 0.13052619222005168 0.0
  outer loop
    vertex 197.86954571543689 103.05276872588212 69.31250008591887
    vertex 198.07399075770257 101.4998544552669 72.81250008591886
    vertex 198.07399075770257 101.4998544552669 69.31250008591887
  endloop
endfacet
facet normal 0.9914448613738105 0.13052619222005168 0.0
  outer loop
    vertex 198.07399075770257 101.4998544552669 72.81250008591886
    vertex 197.86954571543689 103.05276872588212 69.31250008591887
    vertex 197.86954571543689 103.05276872588212 72.81250008591886
  endloop
endfacet
facet normal 0.923879532511288 0.38268343236508695 0.0
  outer loop
    vertex 198.07399075770257 101.4998544552669 69.31250008591887
    vertex 198.67339329273028 100.05276872588206 72.81250008591886
    vertex 198.67339329273028 100.05276872588206 69.31250008591887
  endloop
endfacet
facet normal 0.923879532511288 0.38268343236508695 0.0
  outer loop
    vertex 198.67339329273028 100.05276872588206 72.81250008591886
    vertex 198.07399075770257 101.4998544552669 69.31250008591887
    vertex 198.07399075770257 101.4998544552669 72.81250008591886
  endloop
endfacet
facet normal 0.7933533402912325 0.6087614290087242 0.0
  outer loop
    vertex 198.67339329273028 100.05276872588206 69.31250008591887
    vertex 199.62690502831768 98.81012803876271 72.81250008591886
    vertex 199.62690502831768 98.81012803876271 69.31250008591887
  endloop
endfacet
facet normal 0.7933533402912325 0.6087614290087242 0.0
  outer loop
    vertex 199.62690502831768 98.81012803876271 72.81250008591886
    vertex 198.67339329273028 100.05276872588206 69.31250008591887
    vertex 198.67339329273028 100.05276872588206 72.81250008591886
  endloop
endfacet
facet normal 0.6087614290087207 0.7933533402912352 0.0
  outer loop
    vertex 199.62690502831768 98.81012803876271 72.81250008591886
    vertex 200.86954571543694 97.85661630317541 69.31250008591887
    vertex 199.62690502831768 98.81012803876271 69.31250008591887
  endloop
endfacet
facet normal 0.6087614290087207 0.7933533402912352 0.0
  outer loop
    vertex 200.86954571543694 97.85661630317541 69.31250008591887
    vertex 199.62690502831768 98.81012803876271 72.81250008591886
    vertex 200.86954571543694 97.85661630317541 72.81250008591886
  endloop
endfacet
facet normal 0.38268343236508695 0.923879532511288 0.0
  outer loop
    vertex 200.86954571543694 97.85661630317541 72.81250008591886
    vertex 202.31663144482187 97.2572137681477 69.31250008591887
    vertex 200.86954571543694 97.85661630317541 69.31250008591887
  endloop
endfacet
facet normal 0.38268343236508695 0.923879532511288 0.0
  outer loop
    vertex 202.31663144482187 97.2572137681477 69.31250008591887
    vertex 200.86954571543694 97.85661630317541 72.81250008591886
    vertex 202.31663144482187 97.2572137681477 72.81250008591886
  endloop
endfacet
facet normal 0.13052619222005263 0.9914448613738104 0.0
  outer loop
    vertex 202.31663144482187 97.2572137681477 72.81250008591886
    vertex 203.869545715437 97.05276872588202 69.31250008591887
    vertex 202.31663144482187 97.2572137681477 69.31250008591887
  endloop
endfacet
facet normal 0.13052619222005263 0.9914448613738104 0.0
  outer loop
    vertex 203.869545715437 97.05276872588202 69.31250008591887
    vertex 202.31663144482187 97.2572137681477 72.81250008591886
    vertex 203.869545715437 97.05276872588202 72.81250008591886
  endloop
endfacet
facet normal -0.13052619222005074 0.9914448613738105 0.0
  outer loop
    vertex 203.869545715437 97.05276872588202 72.81250008591886
    vertex 205.4224599860521 97.2572137681477 69.31250008591887
    vertex 203.869545715437 97.05276872588202 69.31250008591887
  endloop
endfacet
facet normal -0.13052619222005074 0.9914448613738105 0.0
  outer loop
    vertex 205.4224599860521 97.2572137681477 69.31250008591887
    vertex 203.869545715437 97.05276872588202 72.81250008591886
    vertex 205.4224599860521 97.2572137681477 72.81250008591886
  endloop
endfacet
facet normal -0.38268343236509206 0.9238795325112859 0.0
  outer loop
    vertex 205.4224599860521 97.2572137681477 72.81250008591886
    vertex 206.86954571543694 97.85661630317541 69.31250008591887
    vertex 205.4224599860521 97.2572137681477 69.31250008591887
  endloop
endfacet
facet normal -0.38268343236509206 0.9238795325112859 0.0
  outer loop
    vertex 206.86954571543694 97.85661630317541 69.31250008591887
    vertex 205.4224599860521 97.2572137681477 72.81250008591886
    vertex 206.86954571543694 97.85661630317541 72.81250008591886
  endloop
endfacet
facet normal -0.6087614290087172 0.7933533402912378 0.0
  outer loop
    vertex 206.86954571543694 97.85661630317541 72.81250008591886
    vertex 208.1121864025563 98.81012803876271 69.31250008591887
    vertex 206.86954571543694 97.85661630317541 69.31250008591887
  endloop
endfacet
facet normal -0.6087614290087172 0.7933533402912378 0.0
  outer loop
    vertex 208.1121864025563 98.81012803876271 69.31250008591887
    vertex 206.86954571543694 97.85661630317541 72.81250008591886
    vertex 208.1121864025563 98.81012803876271 72.81250008591886
  endloop
endfacet
facet normal -0.793353340291242 0.6087614290087117 0.0
  outer loop
    vertex 209.0656981381436 100.05276872588206 72.81250008591886
    vertex 208.1121864025563 98.81012803876271 69.31250008591887
    vertex 208.1121864025563 98.81012803876271 72.81250008591886
  endloop
endfacet
facet normal -0.793353340291242 0.6087614290087117 0.0
  outer loop
    vertex 208.1121864025563 98.81012803876271 69.31250008591887
    vertex 209.0656981381436 100.05276872588206 72.81250008591886
    vertex 209.0656981381436 100.05276872588206 69.31250008591887
  endloop
endfacet
facet normal -0.9238795325112844 0.3826834323650957 0.0
  outer loop
    vertex 209.66510067317142 101.4998544552669 72.81250008591886
    vertex 209.0656981381436 100.05276872588206 69.31250008591887
    vertex 209.0656981381436 100.05276872588206 72.81250008591886
  endloop
endfacet
facet normal -0.9238795325112844 0.3826834323650957 0.0
  outer loop
    vertex 209.0656981381436 100.05276872588206 69.31250008591887
    vertex 209.66510067317142 101.4998544552669 72.81250008591886
    vertex 209.66510067317142 101.4998544552669 69.31250008591887
  endloop
endfacet
facet normal 0.923879532511292 -0.3826834323650772 0.0
  outer loop
    vertex 202.22409744824648 104.00276872588208 67.31250008591887
    vertex 202.0342866454877 103.54452491157684 69.31250008591887
    vertex 202.0342866454877 103.54452491157684 67.31250008591887
  endloop
endfacet
facet normal 0.923879532511292 -0.3826834323650772 0.0
  outer loop
    vertex 202.0342866454877 103.54452491157684 69.31250008591887
    vertex 202.22409744824648 104.00276872588208 67.31250008591887
    vertex 202.22409744824648 104.00276872588208 69.31250008591887
  endloop
endfacet
facet normal 0.9914448613738094 -0.13052619222006034 0.0
  outer loop
    vertex 202.0342866454877 103.54452491157684 67.31250008591887
    vertex 201.96954571543696 103.05276872588212 69.31250008591887
    vertex 201.96954571543696 103.05276872588212 67.31250008591887
  endloop
endfacet
facet normal 0.9914448613738094 -0.13052619222006034 0.0
  outer loop
    vertex 201.96954571543696 103.05276872588212 69.31250008591887
    vertex 202.0342866454877 103.54452491157684 67.31250008591887
    vertex 202.0342866454877 103.54452491157684 69.31250008591887
  endloop
endfacet
facet normal 0.9914448613738096 0.13052619222005887 0.0
  outer loop
    vertex 201.96954571543696 103.05276872588212 67.31250008591887
    vertex 202.0342866454877 102.5610125401872 69.31250008591887
    vertex 202.0342866454877 102.5610125401872 67.31250008591887
  endloop
endfacet
facet normal 0.9914448613738096 0.13052619222005887 0.0
  outer loop
    vertex 202.0342866454877 102.5610125401872 69.31250008591887
    vertex 201.96954571543696 103.05276872588212 67.31250008591887
    vertex 201.96954571543696 103.05276872588212 69.31250008591887
  endloop
endfacet
facet normal 0.9238795325112903 0.38268343236508123 0.0
  outer loop
    vertex 202.0342866454877 102.5610125401872 67.31250008591887
    vertex 202.22409744824648 102.10276872588197 69.31250008591887
    vertex 202.22409744824648 102.10276872588197 67.31250008591887
  endloop
endfacet
facet normal 0.9238795325112903 0.38268343236508123 0.0
  outer loop
    vertex 202.22409744824648 102.10276872588197 69.31250008591887
    vertex 202.0342866454877 102.5610125401872 67.31250008591887
    vertex 202.0342866454877 102.5610125401872 69.31250008591887
  endloop
endfacet
facet normal 0.7933533402912281 0.60876142900873 0.0
  outer loop
    vertex 202.22409744824648 102.10276872588197 67.31250008591887
    vertex 202.5260428311825 101.70926584162764 69.31250008591887
    vertex 202.5260428311825 101.70926584162764 67.31250008591887
  endloop
endfacet
facet normal 0.7933533402912281 0.60876142900873 0.0
  outer loop
    vertex 202.5260428311825 101.70926584162764 69.31250008591887
    vertex 202.22409744824648 102.10276872588197 67.31250008591887
    vertex 202.22409744824648 102.10276872588197 69.31250008591887
  endloop
endfacet
facet normal 0.6087614290087157 0.7933533402912392 0.0
  outer loop
    vertex 202.5260428311825 101.70926584162764 69.31250008591887
    vertex 202.91954571543693 101.40732045869152 67.31250008591887
    vertex 202.5260428311825 101.70926584162764 67.31250008591887
  endloop
endfacet
facet normal 0.6087614290087157 0.7933533402912392 0.0
  outer loop
    vertex 202.91954571543693 101.40732045869152 67.31250008591887
    vertex 202.5260428311825 101.70926584162764 69.31250008591887
    vertex 202.91954571543693 101.40732045869152 69.31250008591887
  endloop
endfacet
facet normal 0.3826834323650892 0.923879532511287 0.0
  outer loop
    vertex 202.91954571543693 101.40732045869152 69.31250008591887
    vertex 203.3777895297422 101.2175096559329 67.31250008591887
    vertex 202.91954571543693 101.40732045869152 67.31250008591887
  endloop
endfacet
facet normal 0.3826834323650892 0.923879532511287 0.0
  outer loop
    vertex 203.3777895297422 101.2175096559329 67.31250008591887
    vertex 202.91954571543693 101.40732045869152 69.31250008591887
    vertex 203.3777895297422 101.2175096559329 69.31250008591887
  endloop
endfacet
facet normal 0.13052619222005887 0.9914448613738096 0.0
  outer loop
    vertex 203.3777895297422 101.2175096559329 69.31250008591887
    vertex 203.869545715437 101.152768725882 67.31250008591887
    vertex 203.3777895297422 101.2175096559329 67.31250008591887
  endloop
endfacet
facet normal 0.13052619222005887 0.9914448613738096 0.0
  outer loop
    vertex 203.869545715437 101.152768725882 67.31250008591887
    vertex 203.3777895297422 101.2175096559329 69.31250008591887
    vertex 203.869545715437 101.152768725882 69.31250008591887
  endloop
endfacet
facet normal -0.13052619222005887 0.9914448613738096 0.0
  outer loop
    vertex 203.869545715437 101.152768725882 69.31250008591887
    vertex 204.36130190113172 101.2175096559329 67.31250008591887
    vertex 203.869545715437 101.152768725882 67.31250008591887
  endloop
endfacet
facet normal -0.13052619222005887 0.9914448613738096 0.0
  outer loop
    vertex 204.36130190113172 101.2175096559329 67.31250008591887
    vertex 203.869545715437 101.152768725882 69.31250008591887
    vertex 204.36130190113172 101.2175096559329 69.31250008591887
  endloop
endfacet
facet normal -0.38268343236507324 0.9238795325112937 0.0
  outer loop
    vertex 204.36130190113172 101.2175096559329 69.31250008591887
    vertex 204.81954571543696 101.40732045869152 67.31250008591887
    vertex 204.36130190113172 101.2175096559329 67.31250008591887
  endloop
endfacet
facet normal -0.38268343236507324 0.9238795325112937 0.0
  outer loop
    vertex 204.81954571543696 101.40732045869152 67.31250008591887
    vertex 204.36130190113172 101.2175096559329 69.31250008591887
    vertex 204.81954571543696 101.40732045869152 69.31250008591887
  endloop
endfacet
facet normal -0.6087614290087376 0.7933533402912222 0.0
  outer loop
    vertex 204.81954571543696 101.40732045869152 69.31250008591887
    vertex 205.21304859969138 101.70926584162764 67.31250008591887
    vertex 204.81954571543696 101.40732045869152 67.31250008591887
  endloop
endfacet
facet normal -0.6087614290087376 0.7933533402912222 0.0
  outer loop
    vertex 205.21304859969138 101.70926584162764 67.31250008591887
    vertex 204.81954571543696 101.40732045869152 69.31250008591887
    vertex 205.21304859969138 101.70926584162764 69.31250008591887
  endloop
endfacet
facet normal -0.7933533402912281 0.60876142900873 0.0
  outer loop
    vertex 205.5149939826274 102.10276872588197 69.31250008591887
    vertex 205.21304859969138 101.70926584162764 67.31250008591887
    vertex 205.21304859969138 101.70926584162764 69.31250008591887
  endloop
endfacet
facet normal -0.7933533402912281 0.60876142900873 0.0
  outer loop
    vertex 205.21304859969138 101.70926584162764 67.31250008591887
    vertex 205.5149939826274 102.10276872588197 69.31250008591887
    vertex 205.5149939826274 102.10276872588197 67.31250008591887
  endloop
endfacet
facet normal -0.923879532511292 0.3826834323650772 0.0
  outer loop
    vertex 205.7048047853862 102.5610125401872 69.31250008591887
    vertex 205.5149939826274 102.10276872588197 67.31250008591887
    vertex 205.5149939826274 102.10276872588197 69.31250008591887
  endloop
endfacet
facet normal -0.923879532511292 0.3826834323650772 0.0
  outer loop
    vertex 205.5149939826274 102.10276872588197 67.31250008591887
    vertex 205.7048047853862 102.5610125401872 69.31250008591887
    vertex 205.7048047853862 102.5610125401872 67.31250008591887
  endloop
endfacet
facet normal -0.9914448613738094 0.13052619222006034 0.0
  outer loop
    vertex 205.76954571543692 103.05276872588212 69.31250008591887
    vertex 205.7048047853862 102.5610125401872 67.31250008591887
    vertex 205.7048047853862 102.5610125401872 69.31250008591887
  endloop
endfacet
facet normal -0.9914448613738094 0.13052619222006034 0.0
  outer loop
    vertex 205.7048047853862 102.5610125401872 67.31250008591887
    vertex 205.76954571543692 103.05276872588212 69.31250008591887
    vertex 205.76954571543692 103.05276872588212 67.31250008591887
  endloop
endfacet
facet normal -0.9914448613738094 -0.13052619222006034 -0.0
  outer loop
    vertex 205.7048047853862 103.54452491157684 69.31250008591887
    vertex 205.76954571543692 103.05276872588212 67.31250008591887
    vertex 205.76954571543692 103.05276872588212 69.31250008591887
  endloop
endfacet
facet normal -0.9914448613738094 -0.13052619222006034 -0.0
  outer loop
    vertex 205.76954571543692 103.05276872588212 67.31250008591887
    vertex 205.7048047853862 103.54452491157684 69.31250008591887
    vertex 205.7048047853862 103.54452491157684 67.31250008591887
  endloop
endfacet
facet normal -0.923879532511292 -0.3826834323650772 -0.0
  outer loop
    vertex 205.5149939826274 104.00276872588208 69.31250008591887
    vertex 205.7048047853862 103.54452491157684 67.31250008591887
    vertex 205.7048047853862 103.54452491157684 69.31250008591887
  endloop
endfacet
facet normal -0.923879532511292 -0.3826834323650772 -0.0
  outer loop
    vertex 205.7048047853862 103.54452491157684 67.31250008591887
    vertex 205.5149939826274 104.00276872588208 69.31250008591887
    vertex 205.5149939826274 104.00276872588208 67.31250008591887
  endloop
endfacet
facet normal -0.793353340291224 -0.6087614290087354 -0.0
  outer loop
    vertex 205.21304859969138 104.39627161013641 69.31250008591887
    vertex 205.5149939826274 104.00276872588208 67.31250008591887
    vertex 205.5149939826274 104.00276872588208 69.31250008591887
  endloop
endfacet
facet normal -0.793353340291224 -0.6087614290087354 -0.0
  outer loop
    vertex 205.5149939826274 104.00276872588208 67.31250008591887
    vertex 205.21304859969138 104.39627161013641 69.31250008591887
    vertex 205.21304859969138 104.39627161013641 67.31250008591887
  endloop
endfacet
facet normal -0.6087614290087228 -0.7933533402912336 -0.0
  outer loop
    vertex 205.21304859969138 104.39627161013641 69.31250008591887
    vertex 204.81954571543696 104.69821699307252 67.31250008591887
    vertex 205.21304859969138 104.39627161013641 67.31250008591887
  endloop
endfacet
facet normal -0.6087614290087228 -0.7933533402912336 -0.0
  outer loop
    vertex 204.81954571543696 104.69821699307252 67.31250008591887
    vertex 205.21304859969138 104.39627161013641 69.31250008591887
    vertex 204.81954571543696 104.69821699307252 69.31250008591887
  endloop
endfacet
facet normal -0.382683432365099 -0.923879532511283 -0.0
  outer loop
    vertex 204.81954571543696 104.69821699307252 69.31250008591887
    vertex 204.36130190113172 104.88802779583132 67.31250008591887
    vertex 204.81954571543696 104.69821699307252 67.31250008591887
  endloop
endfacet
facet normal -0.382683432365099 -0.923879532511283 -0.0
  outer loop
    vertex 204.36130190113172 104.88802779583132 67.31250008591887
    vertex 204.81954571543696 104.69821699307252 69.31250008591887
    vertex 204.36130190113172 104.88802779583132 69.31250008591887
  endloop
endfacet
facet normal -0.1305261922200477 -0.9914448613738109 -0.0
  outer loop
    vertex 204.36130190113172 104.88802779583132 69.31250008591887
    vertex 203.869545715437 104.95276872588204 67.31250008591887
    vertex 204.36130190113172 104.88802779583132 67.31250008591887
  endloop
endfacet
facet normal -0.1305261922200477 -0.9914448613738109 -0.0
  outer loop
    vertex 203.869545715437 104.95276872588204 67.31250008591887
    vertex 204.36130190113172 104.88802779583132 69.31250008591887
    vertex 203.869545715437 104.95276872588204 69.31250008591887
  endloop
endfacet
facet normal 0.1305261922200477 -0.9914448613738109 0.0
  outer loop
    vertex 203.869545715437 104.95276872588204 69.31250008591887
    vertex 203.3777895297422 104.88802779583132 67.31250008591887
    vertex 203.869545715437 104.95276872588204 67.31250008591887
  endloop
endfacet
facet normal 0.1305261922200477 -0.9914448613738109 0.0
  outer loop
    vertex 203.3777895297422 104.88802779583132 67.31250008591887
    vertex 203.869545715437 104.95276872588204 69.31250008591887
    vertex 203.3777895297422 104.88802779583132 69.31250008591887
  endloop
endfacet
facet normal 0.3826834323650829 -0.9238795325112896 0.0
  outer loop
    vertex 203.3777895297422 104.88802779583132 69.31250008591887
    vertex 202.91954571543693 104.69821699307252 67.31250008591887
    vertex 203.3777895297422 104.88802779583132 67.31250008591887
  endloop
endfacet
facet normal 0.3826834323650829 -0.9238795325112896 0.0
  outer loop
    vertex 202.91954571543693 104.69821699307252 67.31250008591887
    vertex 203.3777895297422 104.88802779583132 69.31250008591887
    vertex 202.91954571543693 104.69821699307252 69.31250008591887
  endloop
endfacet
facet normal 0.6087614290087447 -0.7933533402912167 0.0
  outer loop
    vertex 202.91954571543693 104.69821699307252 69.31250008591887
    vertex 202.5260428311825 104.39627161013641 67.31250008591887
    vertex 202.91954571543693 104.69821699307252 67.31250008591887
  endloop
endfacet
facet normal 0.6087614290087447 -0.7933533402912167 0.0
  outer loop
    vertex 202.5260428311825 104.39627161013641 67.31250008591887
    vertex 202.91954571543693 104.69821699307252 69.31250008591887
    vertex 202.5260428311825 104.39627161013641 69.31250008591887
  endloop
endfacet
facet normal 0.793353340291224 -0.6087614290087354 0.0
  outer loop
    vertex 202.5260428311825 104.39627161013641 67.31250008591887
    vertex 202.22409744824648 104.00276872588208 69.31250008591887
    vertex 202.22409744824648 104.00276872588208 67.31250008591887
  endloop
endfacet
facet normal 0.793353340291224 -0.6087614290087354 0.0
  outer loop
    vertex 202.22409744824648 104.00276872588208 69.31250008591887
    vertex 202.5260428311825 104.39627161013641 67.31250008591887
    vertex 202.5260428311825 104.39627161013641 69.31250008591887
  endloop
endfacet
facet normal 0.0 0.0 -1.0
  outer loop
    vertex 202.019545715437 106.25706271988457 67.31250008591887
    vertex 201.96954571543696 103.05276872588212 67.31250008591887
    vertex 200.16954571543695 103.05276872588212 67.31250008591887
  endloop
endfacet
facet normal 0.0 0.0 -1.0
  outer loop
    vertex 201.96954571543696 103.05276872588212 67.31250008591887
    vertex 202.019545715437 106.25706271988457 67.31250008591887
    vertex 202.0342866454877 103.54452491157684 67.31250008591887
  endloop
endfacet
facet normal 0.0 0.0 -1.0
  outer loop
    vertex 202.0342866454877 103.54452491157684 67.31250008591887
    vertex 202.019545715437 106.25706271988457 67.31250008591887
    vertex 202.22409744824648 104.00276872588208 67.31250008591887
  endloop
endfacet
facet normal 0.0 0.0 -1.0
  outer loop
    vertex 202.22409744824648 104.00276872588208 67.31250008591887
    vertex 202.019545715437 106.25706271988457 67.31250008591887
    vertex 202.5260428311825 104.39627161013641 67.31250008591887
  endloop
endfacet
facet normal 0.0 0.0 -1.0
  outer loop
    vertex 202.5260428311825 104.39627161013641 67.31250008591887
    vertex 202.019545715437 106.25706271988457 67.31250008591887
    vertex 202.91954571543693 104.69821699307252 67.31250008591887
  endloop
endfacet
facet normal 0.0 0.0 -1.0
  outer loop
    vertex 202.91954571543693 104.69821699307252 67.31250008591887
    vertex 202.019545715437 106.25706271988457 67.31250008591887
    vertex 205.71954571543702 106.25706271988457 67.31250008591887
  endloop
endfacet
facet normal 0.0 0.0 -1.0
  outer loop
    vertex 202.91954571543693 104.69821699307252 67.31250008591887
    vertex 205.71954571543702 106.25706271988457 67.31250008591887
    vertex 203.3777895297422 104.88802779583132 67.31250008591887
  endloop
endfacet
facet normal 0.0 0.0 -1.0
  outer loop
    vertex 203.3777895297422 104.88802779583132 67.31250008591887
    vertex 205.71954571543702 106.25706271988457 67.31250008591887
    vertex 203.869545715437 104.95276872588204 67.31250008591887
  endloop
endfacet
facet normal 0.0 0.0 -1.0
  outer loop
    vertex 203.869545715437 104.95276872588204 67.31250008591887
    vertex 205.71954571543702 106.25706271988457 67.31250008591887
    vertex 204.36130190113172 104.88802779583132 67.31250008591887
  endloop
endfacet
facet normal 0.0 0.0 -1.0
  outer loop
    vertex 204.36130190113172 104.88802779583132 67.31250008591887
    vertex 205.71954571543702 106.25706271988457 67.31250008591887
    vertex 204.81954571543696 104.69821699307252 67.31250008591887
  endloop
endfacet
facet normal 0.0 0.0 -1.0
  outer loop
    vertex 204.81954571543696 104.69821699307252 67.31250008591887
    vertex 205.71954571543702 106.25706271988457 67.31250008591887
    vertex 205.21304859969138 104.39627161013641 67.31250008591887
  endloop
endfacet
facet normal 0.0 0.0 -1.0
  outer loop
    vertex 205.21304859969138 104.39627161013641 67.31250008591887
    vertex 205.71954571543702 106.25706271988457 67.31250008591887
    vertex 205.5149939826274 104.00276872588208 67.31250008591887
  endloop
endfacet
facet normal 0.0 0.0 -1.0
  outer loop
    vertex 205.5149939826274 104.00276872588208 67.31250008591887
    vertex 205.71954571543702 106.25706271988457 67.31250008591887
    vertex 205.7048047853862 103.54452491157684 67.31250008591887
  endloop
endfacet
facet normal 0.0 0.0 -1.0
  outer loop
    vertex 205.7048047853862 103.54452491157684 67.31250008591887
    vertex 205.71954571543702 106.25706271988457 67.31250008591887
    vertex 205.76954571543692 103.05276872588212 67.31250008591887
  endloop
endfacet
facet normal 0.0 0.0 -1.0
  outer loop
    vertex 205.76954571543692 103.05276872588212 67.31250008591887
    vertex 205.71954571543702 106.25706271988457 67.31250008591887
    vertex 207.56954571543702 103.05276872588212 67.31250008591887
  endloop
endfacet
facet normal 0.0 0.0 -1.0
  outer loop
    vertex 201.96954571543696 103.05276872588212 67.31250008591887
    vertex 202.01954571543695 99.84847473187965 67.31250008591887
    vertex 200.16954571543695 103.05276872588212 67.31250008591887
  endloop
endfacet
facet normal 0.0 0.0 -1.0
  outer loop
    vertex 202.01954571543695 99.84847473187965 67.31250008591887
    vertex 201.96954571543696 103.05276872588212 67.31250008591887
    vertex 202.0342866454877 102.5610125401872 67.31250008591887
  endloop
endfacet
facet normal 0.0 0.0 -1.0
  outer loop
    vertex 202.01954571543695 99.84847473187965 67.31250008591887
    vertex 202.0342866454877 102.5610125401872 67.31250008591887
    vertex 202.22409744824648 102.10276872588197 67.31250008591887
  endloop
endfacet
facet normal 0.0 0.0 -1.0
  outer loop
    vertex 202.01954571543695 99.84847473187965 67.31250008591887
    vertex 202.22409744824648 102.10276872588197 67.31250008591887
    vertex 202.5260428311825 101.70926584162764 67.31250008591887
  endloop
endfacet
facet normal 0.0 0.0 -1.0
  outer loop
    vertex 202.01954571543695 99.84847473187965 67.31250008591887
    vertex 202.5260428311825 101.70926584162764 67.31250008591887
    vertex 202.91954571543693 101.40732045869152 67.31250008591887
  endloop
endfacet
facet normal 0.0 0.0 -1.0
  outer loop
    vertex 202.01954571543695 99.84847473187965 67.31250008591887
    vertex 202.91954571543693 101.40732045869152 67.31250008591887
    vertex 205.719545715437 99.84847473187965 67.31250008591887
  endloop
endfacet
facet normal 0.0 0.0 -1.0
  outer loop
    vertex 205.719545715437 99.84847473187965 67.31250008591887
    vertex 202.91954571543693 101.40732045869152 67.31250008591887
    vertex 203.3777895297422 101.2175096559329 67.31250008591887
  endloop
endfacet
facet normal 0.0 0.0 -1.0
  outer loop
    vertex 205.719545715437 99.84847473187965 67.31250008591887
    vertex 203.3777895297422 101.2175096559329 67.31250008591887
    vertex 203.869545715437 101.152768725882 67.31250008591887
  endloop
endfacet
facet normal 0.0 0.0 -1.0
  outer loop
    vertex 205.719545715437 99.84847473187965 67.31250008591887
    vertex 203.869545715437 101.152768725882 67.31250008591887
    vertex 204.36130190113172 101.2175096559329 67.31250008591887
  endloop
endfacet
facet normal 0.0 0.0 -1.0
  outer loop
    vertex 205.719545715437 99.84847473187965 67.31250008591887
    vertex 204.36130190113172 101.2175096559329 67.31250008591887
    vertex 204.81954571543696 101.40732045869152 67.31250008591887
  endloop
endfacet
facet normal 0.0 0.0 -1.0
  outer loop
    vertex 205.719545715437 99.84847473187965 67.31250008591887
    vertex 204.81954571543696 101.40732045869152 67.31250008591887
    vertex 205.21304859969138 101.70926584162764 67.31250008591887
  endloop
endfacet
facet normal 0.0 0.0 -1.0
  outer loop
    vertex 205.719545715437 99.84847473187965 67.31250008591887
    vertex 205.21304859969138 101.70926584162764 67.31250008591887
    vertex 205.5149939826274 102.10276872588197 67.31250008591887
  endloop
endfacet
facet normal 0.0 0.0 -1.0
  outer loop
    vertex 205.719545715437 99.84847473187965 67.31250008591887
    vertex 205.5149939826274 102.10276872588197 67.31250008591887
    vertex 205.7048047853862 102.5610125401872 67.31250008591887
  endloop
endfacet
facet normal 0.0 0.0 -1.0
  outer loop
    vertex 205.719545715437 99.84847473187965 67.31250008591887
    vertex 205.7048047853862 102.5610125401872 67.31250008591887
    vertex 205.76954571543692 103.05276872588212 67.31250008591887
  endloop
endfacet
facet normal 0.0 0.0 -1.0
  outer loop
    vertex 205.719545715437 99.84847473187965 67.31250008591887
    vertex 205.76954571543692 103.05276872588212 67.31250008591887
    vertex 207.56954571543702 103.05276872588212 67.31250008591887
  endloop
endfacet
facet normal 0.0 1.0 0.0
  outer loop
    vertex 202.019545715437 106.25706271988457 68.81250008591888
    vertex 205.71954571543702 106.25706271988457 67.31250008591887
    vertex 202.019545715437 106.25706271988457 67.31250008591887
  endloop
endfacet
facet normal 0.0 1.0 0.0
  outer loop
    vertex 205.71954571543702 106.25706271988457 67.31250008591887
    vertex 202.019545715437 106.25706271988457 68.81250008591888
    vertex 205.71954571543702 106.25706271988457 68.81250008591888
  endloop
endfacet
facet normal 0.8660254037844425 0.4999999999999934 0.0
  outer loop
    vertex 205.71954571543702 106.25706271988457 67.31250008591887
    vertex 207.56954571543702 103.05276872588212 68.81250008591888
    vertex 207.56954571543702 103.05276872588212 67.31250008591887
  endloop
endfacet
facet normal 0.8660254037844425 0.4999999999999934 0.0
  outer loop
    vertex 207.56954571543702 103.05276872588212 68.81250008591888
    vertex 205.71954571543702 106.25706271988457 67.31250008591887
    vertex 205.71954571543702 106.25706271988457 68.81250008591888
  endloop
endfacet
facet normal 0.8660254037844372 -0.5000000000000026 0.0
  outer loop
    vertex 207.56954571543702 103.05276872588212 67.31250008591887
    vertex 205.719545715437 99.84847473187965 68.81250008591888
    vertex 205.719545715437 99.84847473187965 67.31250008591887
  endloop
endfacet
facet normal 0.8660254037844372 -0.5000000000000026 0.0
  outer loop
    vertex 205.719545715437 99.84847473187965 68.81250008591888
    vertex 207.56954571543702 103.05276872588212 67.31250008591887
    vertex 207.56954571543702 103.05276872588212 68.81250008591888
  endloop
endfacet
facet normal -0.0 -1.0 -0.0
  outer loop
    vertex 205.719545715437 99.84847473187965 68.81250008591888
    vertex 202.01954571543695 99.84847473187965 67.31250008591887
    vertex 205.719545715437 99.84847473187965 67.31250008591887
  endloop
endfacet
facet normal -0.0 -1.0 -0.0
  outer loop
    vertex 202.01954571543695 99.84847473187965 67.31250008591887
    vertex 205.719545715437 99.84847473187965 68.81250008591888
    vertex 202.01954571543695 99.84847473187965 68.81250008591888
  endloop
endfacet
facet normal -0.8660254037844425 -0.4999999999999934 -0.0
  outer loop
    vertex 200.16954571543695 103.05276872588212 68.81250008591888
    vertex 202.01954571543695 99.84847473187965 67.31250008591887
    vertex 202.01954571543695 99.84847473187965 68.81250008591888
  endloop
endfacet
facet normal -0.8660254037844425 -0.4999999999999934 -0.0
  outer loop
    vertex 202.01954571543695 99.84847473187965 67.31250008591887
    vertex 200.16954571543695 103.05276872588212 68.81250008591888
    vertex 200.16954571543695 103.05276872588212 67.31250008591887
  endloop
endfacet
facet normal -0.8660254037844372 0.5000000000000026 0.0
  outer loop
    vertex 202.019545715437 106.25706271988457 68.81250008591888
    vertex 200.16954571543695 103.05276872588212 67.31250008591887
    vertex 200.16954571543695 103.05276872588212 68.81250008591888
  endloop
endfacet
facet normal -0.8660254037844372 0.5000000000000026 0.0
  outer loop
    vertex 200.16954571543695 103.05276872588212 67.31250008591887
    vertex 202.019545715437 106.25706271988457 68.81250008591888
    vertex 202.019545715437 106.25706271988457 67.31250008591887
  endloop
endfacet
endsolid Design - Rolled - Solid
