solid Design - Rolled - Solid
facet normal -1.0 3.435072112722734e-11 -1.0308729702767603e-21
  outer loop
    vertex 107.98984845169726 278.12800914432677 135.89999866219972
    vertex 107.98984845191157 283.1280091440928 128.0999986621372
    vertex 107.98984845169726 278.1280091440927 128.09999866219974
  endloop
endfacet
facet normal -1.0 3.435072112722734e-11 -1.0308729702767603e-21
  outer loop
    vertex 107.98984845191157 283.1280091440928 128.0999986621372
    vertex 107.98984845169726 278.12800914432677 135.89999866219972
    vertex 107.98984845191157 283.1280091443269 135.8999986621372
  endloop
endfacet
facet normal 1.0 -3.435072112722734e-11 0.0
  outer loop
    vertex 136.58984845196048 283.128009144437 128.09999866216353
    vertex 136.58984845156343 278.1280091444368 135.89999866219972
    vertex 136.58984845156343 278.1280091444368 128.09999866219974
  endloop
endfacet
facet normal 1.0 -3.435072112722734e-11 0.0
  outer loop
    vertex 136.58984845156343 278.1280091444368 135.89999866219972
    vertex 136.58984845196048 283.128009144437 128.09999866216353
    vertex 136.58984845196048 283.128009144437 135.8999986621635
  endloop
endfacet
facet normal -0.608761429008752 4.260768207377465e-11 -0.7933533402912112
  outer loop
    vertex 133.63984845173525 283.12800914381324 133.64544692935394
    vertex 134.03335133559253 278.12800914371655 133.34350154645415
    vertex 133.6398484513381 278.12800914381313 133.64544692939015
  endloop
endfacet
facet normal -0.608761429008752 4.260768207377465e-11 -0.7933533402912112
  outer loop
    vertex 134.03335133559253 278.12800914371655 133.34350154645415
    vertex 133.63984845173525 283.12800914381324 133.64544692935394
    vertex 134.03335133598966 283.12800914371667 133.34350154641794
  endloop
endfacet
facet normal -0.79335334029125 5.859910011533265e-11 -0.6087614290087013
  outer loop
    vertex 134.03335133559253 278.12800914371655 133.34350154645415
    vertex 134.3352967189256 283.1280091436349 132.9499986621635
    vertex 134.33529671852855 278.1280091436348 132.9499986621997
  endloop
endfacet
facet normal -0.79335334029125 5.859910011533265e-11 -0.6087614290087013
  outer loop
    vertex 134.3352967189256 283.1280091436349 132.9499986621635
    vertex 134.03335133559253 278.12800914371655 133.34350154645415
    vertex 134.03335133598966 283.12800914371667 133.34350154641794
  endloop
endfacet
facet normal -0.9238795325112871 7.059424093747206e-11 -0.38268343236508934
  outer loop
    vertex 134.33529671852855 278.1280091436348 132.9499986621997
    vertex 134.5251075216844 283.12800914357337 132.4917548478583
    vertex 134.52510752128734 278.12800914357325 132.4917548478945
  endloop
endfacet
facet normal -0.9238795325112871 7.059424093747206e-11 -0.38268343236508934
  outer loop
    vertex 134.5251075216844 283.12800914357337 132.4917548478583
    vertex 134.33529671852855 278.1280091436348 132.9499986621997
    vertex 134.3352967189256 283.1280091436349 132.9499986621635
  endloop
endfacet
facet normal -0.9914448613738096 7.779460948505937e-11 -0.13052619222005887
  outer loop
    vertex 134.52510752128734 278.12800914357325 132.4917548478945
    vertex 134.5898484517352 283.12800914353636 131.9999986621635
    vertex 134.58984845133807 278.12800914353625 131.99999866219972
  endloop
endfacet
facet normal -0.9914448613738096 7.779460948505937e-11 -0.13052619222005887
  outer loop
    vertex 134.5898484517352 283.12800914353636 131.9999986621635
    vertex 134.52510752128734 278.12800914357325 132.4917548478945
    vertex 134.5251075216844 283.12800914357337 132.4917548478583
  endloop
endfacet
facet normal -0.9914448613738096 7.968506512961548e-11 0.13052619222005887
  outer loop
    vertex 134.58984845133807 278.12800914353625 131.99999866219972
    vertex 134.5251075216844 283.12800914352647 131.50824247646872
    vertex 134.52510752128734 278.12800914352636 131.50824247650493
  endloop
endfacet
facet normal -0.9914448613738096 7.968506512961548e-11 0.13052619222005887
  outer loop
    vertex 134.5251075216844 283.12800914352647 131.50824247646872
    vertex 134.58984845133807 278.12800914353625 131.99999866219972
    vertex 134.5898484517352 283.12800914353636 131.9999986621635
  endloop
endfacet
facet normal -0.9238795325112937 7.613677908248114e-11 0.38268343236507313
  outer loop
    vertex 134.5251075216844 283.12800914352647 131.50824247646872
    vertex 134.33529671852855 278.1280091435442 131.0499986621997
    vertex 134.52510752128734 278.12800914352636 131.50824247650493
  endloop
endfacet
facet normal -0.9238795325112937 7.613677908248114e-11 0.38268343236507313
  outer loop
    vertex 134.33529671852855 278.1280091435442 131.0499986621997
    vertex 134.5251075216844 283.12800914352647 131.50824247646872
    vertex 134.3352967189256 283.1280091435443 131.0499986621635
  endloop
endfacet
facet normal -0.7933533402912332 6.74160028239983e-11 0.6087614290087232
  outer loop
    vertex 134.3352967189256 283.1280091435443 131.0499986621635
    vertex 134.03335133559253 278.12800914358843 130.65649577794528
    vertex 134.33529671852855 278.1280091435442 131.0499986621997
  endloop
endfacet
facet normal -0.7933533402912332 6.74160028239983e-11 0.6087614290087232
  outer loop
    vertex 134.03335133559253 278.12800914358843 130.65649577794528
    vertex 134.3352967189256 283.1280091435443 131.0499986621635
    vertex 134.03335133598966 283.12800914358854 130.65649577790907
  endloop
endfacet
facet normal -0.6087614290087079 5.40925978986874e-11 0.7933533402912449
  outer loop
    vertex 134.03335133559253 278.12800914358843 130.65649577794528
    vertex 133.63984845173516 283.1280091436564 130.35455039497307
    vertex 133.6398484513381 278.1280091436563 130.35455039500928
  endloop
endfacet
facet normal -0.6087614290087079 5.40925978986874e-11 0.7933533402912449
  outer loop
    vertex 133.63984845173516 283.1280091436564 130.35455039497307
    vertex 134.03335133559253 278.12800914358843 130.65649577794528
    vertex 134.03335133598966 283.12800914358854 130.65649577790907
  endloop
endfacet
facet normal -0.38268343236508934 3.708287727615224e-11 0.9238795325112871
  outer loop
    vertex 133.6398484513381 278.1280091436563 130.35455039500928
    vertex 133.18160463743 283.12800914374304 130.1647395922143
    vertex 133.18160463703288 278.12800914374293 130.1647395922505
  endloop
endfacet
facet normal -0.38268343236508934 3.708287727615224e-11 0.9238795325112871
  outer loop
    vertex 133.18160463743 283.12800914374304 130.1647395922143
    vertex 133.6398484513381 278.1280091436563 130.35455039500928
    vertex 133.63984845173516 283.1280091436564 130.35455039497307
  endloop
endfacet
facet normal -0.13052619222006479 1.7546016041576386e-11 0.9914448613738088
  outer loop
    vertex 133.18160463703288 278.12800914374293 130.1647395922505
    vertex 132.6898484517352 283.12800914384263 130.0999986621635
    vertex 132.68984845133815 278.1280091438425 130.0999986621997
  endloop
endfacet
facet normal -0.13052619222006479 1.7546016041576386e-11 0.9914448613738088
  outer loop
    vertex 132.6898484517352 283.12800914384263 130.0999986621635
    vertex 133.18160463703288 278.12800914374293 130.1647395922505
    vertex 133.18160463743 283.12800914374304 130.1647395922143
  endloop
endfacet
facet normal 0.13052619222006476 -3.186575844605526e-12 0.9914448613738088
  outer loop
    vertex 132.68984845133815 278.1280091438425 130.0999986621997
    vertex 132.19809226604048 283.1280091439484 130.1647395922143
    vertex 132.19809226564334 278.1280091439483 130.1647395922505
  endloop
endfacet
facet normal 0.13052619222006476 -3.186575844605526e-12 0.9914448613738088
  outer loop
    vertex 132.19809226604048 283.1280091439484 130.1647395922143
    vertex 132.68984845133815 278.1280091438425 130.0999986621997
    vertex 132.6898484517352 283.12800914384263 130.0999986621635
  endloop
endfacet
facet normal 0.38268343236505703 -2.3705463349284254e-11 0.9238795325113004
  outer loop
    vertex 132.19809226564334 278.1280091439483 130.1647395922505
    vertex 131.73984845173524 283.1280091440533 130.35455039497307
    vertex 131.7398484513381 278.1280091440531 130.35455039500928
  endloop
endfacet
facet normal 0.38268343236505703 -2.3705463349284254e-11 0.9238795325113004
  outer loop
    vertex 131.73984845173524 283.1280091440533 130.35455039497307
    vertex 132.19809226564334 278.1280091439483 130.1647395922505
    vertex 132.19809226604048 283.1280091439484 130.1647395922143
  endloop
endfacet
facet normal 0.608761429008752 -4.260768037049944e-11 0.7933533402912114
  outer loop
    vertex 131.7398484513381 278.1280091440531 130.35455039500928
    vertex 131.34634556748082 283.1280091441498 130.65649577790907
    vertex 131.34634556708366 278.1280091441497 130.65649577794528
  endloop
endfacet
facet normal 0.608761429008752 -4.260768037049944e-11 0.7933533402912114
  outer loop
    vertex 131.34634556748082 283.1280091441498 130.65649577790907
    vertex 131.7398484513381 278.1280091440531 130.35455039500928
    vertex 131.73984845173524 283.1280091440533 130.35455039497307
  endloop
endfacet
facet normal 0.79335334029125 -5.859910011533265e-11 0.6087614290087012
  outer loop
    vertex 131.34634556748082 283.1280091441498 130.65649577790907
    vertex 131.04440018414775 278.12800914423144 131.04999866219973
    vertex 131.34634556708366 278.1280091441497 130.65649577794528
  endloop
endfacet
facet normal 0.79335334029125 -5.859910011533265e-11 0.6087614290087012
  outer loop
    vertex 131.04440018414775 278.12800914423144 131.04999866219973
    vertex 131.34634556748082 283.1280091441498 130.65649577790907
    vertex 131.0444001845448 283.1280091442316 131.04999866216352
  endloop
endfacet
facet normal 0.9238795325112871 -7.059424093747206e-11 0.38268343236508934
  outer loop
    vertex 131.0444001845448 283.1280091442316 131.04999866216352
    vertex 130.85458938138896 278.128009144293 131.50824247650493
    vertex 131.04440018414775 278.12800914423144 131.04999866219973
  endloop
endfacet
facet normal 0.9238795325112871 -7.059424093747206e-11 0.38268343236508934
  outer loop
    vertex 130.85458938138896 278.128009144293 131.50824247650493
    vertex 131.0444001845448 283.1280091442316 131.04999866216352
    vertex 130.854589381786 283.1280091442931 131.50824247646872
  endloop
endfacet
facet normal 0.9914448613738096 -7.77946091198555e-11 0.13052619222005887
  outer loop
    vertex 130.854589381786 283.1280091442931 131.50824247646872
    vertex 130.78984845133812 278.12800914433 131.99999866219972
    vertex 130.85458938138896 278.128009144293 131.50824247650493
  endloop
endfacet
facet normal 0.9914448613738096 -7.77946091198555e-11 0.13052619222005887
  outer loop
    vertex 130.78984845133812 278.12800914433 131.99999866219972
    vertex 130.854589381786 283.1280091442931 131.50824247646872
    vertex 130.78984845173528 283.1280091443301 131.9999986621635
  endloop
endfacet
facet normal 0.9914448613738096 -7.968506512961548e-11 -0.13052619222005887
  outer loop
    vertex 130.78984845173528 283.1280091443301 131.9999986621635
    vertex 130.85458938138896 278.12800914433996 132.4917548478945
    vertex 130.78984845133812 278.12800914433 131.99999866219972
  endloop
endfacet
facet normal 0.9914448613738096 -7.968506512961548e-11 -0.13052619222005887
  outer loop
    vertex 130.85458938138896 278.12800914433996 132.4917548478945
    vertex 130.78984845173528 283.1280091443301 131.9999986621635
    vertex 130.854589381786 283.12800914434007 132.4917548478583
  endloop
endfacet
facet normal 0.9238795325112937 -7.613677908248114e-11 -0.38268343236507313
  outer loop
    vertex 130.85458938138896 278.12800914433996 132.4917548478945
    vertex 131.0444001845448 283.12800914432216 132.94999866216352
    vertex 131.04440018414775 278.12800914432205 132.94999866219973
  endloop
endfacet
facet normal 0.9238795325112937 -7.613677908248114e-11 -0.38268343236507313
  outer loop
    vertex 131.0444001845448 283.12800914432216 132.94999866216352
    vertex 130.85458938138896 278.12800914433996 132.4917548478945
    vertex 130.854589381786 283.12800914434007 132.4917548478583
  endloop
endfacet
facet normal 0.7933533402912332 -6.74160028239983e-11 -0.6087614290087232
  outer loop
    vertex 131.04440018414775 278.12800914432205 132.94999866219973
    vertex 131.34634556748082 283.128009144278 133.34350154641794
    vertex 131.34634556708366 278.1280091442778 133.34350154645415
  endloop
endfacet
facet normal 0.7933533402912332 -6.74160028239983e-11 -0.6087614290087232
  outer loop
    vertex 131.34634556748082 283.128009144278 133.34350154641794
    vertex 131.04440018414775 278.12800914432205 132.94999866219973
    vertex 131.0444001845448 283.12800914432216 132.94999866216352
  endloop
endfacet
facet normal 0.608761429008708 -5.40925978986874e-11 -0.7933533402912449
  outer loop
    vertex 131.34634556748082 283.128009144278 133.34350154641794
    vertex 131.7398484513382 278.12800914421 133.64544692939015
    vertex 131.34634556708366 278.1280091442778 133.34350154645415
  endloop
endfacet
facet normal 0.608761429008708 -5.40925978986874e-11 -0.7933533402912449
  outer loop
    vertex 131.7398484513382 278.12800914421 133.64544692939015
    vertex 131.34634556748082 283.128009144278 133.34350154641794
    vertex 131.73984845173524 283.1280091442101 133.64544692935394
  endloop
endfacet
facet normal 0.38268343236508934 -3.708287727615224e-11 -0.9238795325112871
  outer loop
    vertex 131.73984845173524 283.1280091442101 133.64544692935394
    vertex 132.19809226564334 278.1280091441234 133.83525773214893
    vertex 131.7398484513382 278.12800914421 133.64544692939015
  endloop
endfacet
facet normal 0.38268343236508934 -3.708287727615224e-11 -0.9238795325112871
  outer loop
    vertex 132.19809226564334 278.1280091441234 133.83525773214893
    vertex 131.73984845173524 283.1280091442101 133.64544692935394
    vertex 132.19809226604048 283.1280091441235 133.83525773211272
  endloop
endfacet
facet normal 0.13052619222006476 -1.7546016041576386e-11 -0.9914448613738088
  outer loop
    vertex 132.19809226604048 283.1280091441235 133.83525773211272
    vertex 132.68984845133815 278.12800914402374 133.89999866219972
    vertex 132.19809226564334 278.1280091441234 133.83525773214893
  endloop
endfacet
facet normal 0.13052619222006476 -1.7546016041576386e-11 -0.9914448613738088
  outer loop
    vertex 132.68984845133815 278.12800914402374 133.89999866219972
    vertex 132.19809226604048 283.1280091441235 133.83525773211272
    vertex 132.6898484517352 283.12800914402385 133.8999986621635
  endloop
endfacet
facet normal -0.13052619222006476 3.1865765381052187e-12 -0.9914448613738088
  outer loop
    vertex 132.6898484517352 283.12800914402385 133.8999986621635
    vertex 133.18160463703288 278.12800914391795 133.83525773214893
    vertex 132.68984845133815 278.12800914402374 133.89999866219972
  endloop
endfacet
facet normal -0.13052619222006476 3.1865765381052187e-12 -0.9914448613738088
  outer loop
    vertex 133.18160463703288 278.12800914391795 133.83525773214893
    vertex 132.6898484517352 283.12800914402385 133.8999986621635
    vertex 133.18160463743 283.1280091439181 133.83525773211272
  endloop
endfacet
facet normal -0.3826834323650571 2.3705463349284258e-11 -0.9238795325113004
  outer loop
    vertex 133.18160463743 283.1280091439181 133.83525773211272
    vertex 133.6398484513381 278.12800914381313 133.64544692939015
    vertex 133.18160463703288 278.12800914391795 133.83525773214893
  endloop
endfacet
facet normal -0.3826834323650571 2.3705463349284258e-11 -0.9238795325113004
  outer loop
    vertex 133.6398484513381 278.12800914381313 133.64544692939015
    vertex 133.18160463743 283.1280091439181 133.83525773211272
    vertex 133.63984845173525 283.12800914381324 133.64544692935394
  endloop
endfacet
facet normal 0.608761429008708 -3.601811318396116e-11 -0.7933533402912449
  outer loop
    vertex 110.54634556761464 283.1280091457557 133.34350154639162
    vertex 110.93984845165474 278.12800914568794 133.64544692939015
    vertex 110.54634556740022 278.1280091457556 133.34350154645415
  endloop
endfacet
facet normal 0.608761429008708 -3.601811318396116e-11 -0.7933533402912449
  outer loop
    vertex 110.93984845165474 278.12800914568794 133.64544692939015
    vertex 110.54634556761464 283.1280091457557 133.34350154639162
    vertex 110.93984845186905 283.12800914568805 133.64544692932765
  endloop
endfacet
facet normal 0.3826834323651215 -2.795404605368598e-11 -0.9238795325112736
  outer loop
    vertex 110.93984845186905 283.12800914568805 133.64544692932765
    vertex 111.39809226595989 278.1280091456013 133.83525773214893
    vertex 110.93984845165474 278.12800914568794 133.64544692939015
  endloop
endfacet
facet normal 0.3826834323651215 -2.795404605368598e-11 -0.9238795325112736
  outer loop
    vertex 111.39809226595989 278.1280091456013 133.83525773214893
    vertex 110.93984845186905 283.12800914568805 133.64544692932765
    vertex 111.3980922661742 283.1280091456014 133.83525773208643
  endloop
endfacet
facet normal 0.130526192220053 -1.7990450704123976e-11 -0.9914448613738103
  outer loop
    vertex 111.3980922661742 283.1280091456014 133.83525773208643
    vertex 111.8898484516547 278.12800914550166 133.89999866219972
    vertex 111.39809226595989 278.1280091456013 133.83525773214893
  endloop
endfacet
facet normal 0.130526192220053 -1.7990450704123976e-11 -0.9914448613738103
  outer loop
    vertex 111.8898484516547 278.12800914550166 133.89999866219972
    vertex 111.3980922661742 283.1280091456014 133.83525773208643
    vertex 111.88984845186901 283.1280091455018 133.8999986621372
  endloop
endfacet
facet normal -0.13052619222006473 -6.799654976981106e-12 -0.9914448613738088
  outer loop
    vertex 111.88984845186901 283.1280091455018 133.8999986621372
    vertex 112.38160463734943 278.1280091453959 133.83525773214893
    vertex 111.8898484516547 278.12800914550166 133.89999866219972
  endloop
endfacet
facet normal -0.13052619222006473 -6.799654976981106e-12 -0.9914448613738088
  outer loop
    vertex 112.38160463734943 278.1280091453959 133.83525773214893
    vertex 111.88984845186901 283.1280091455018 133.8999986621372
    vertex 112.38160463756383 283.12800914539605 133.83525773208643
  endloop
endfacet
facet normal -0.3826834323650571 4.859154130321145e-12 -0.9238795325113004
  outer loop
    vertex 112.38160463756383 283.12800914539605 133.83525773208643
    vertex 112.83984845165466 278.12800914529123 133.64544692939015
    vertex 112.38160463734943 278.1280091453959 133.83525773214893
  endloop
endfacet
facet normal -0.3826834323650571 4.859154130321145e-12 -0.9238795325113004
  outer loop
    vertex 112.83984845165466 278.12800914529123 133.64544692939015
    vertex 112.38160463756383 283.12800914539605 133.83525773208643
    vertex 112.83984845186907 283.12800914529134 133.64544692932765
  endloop
endfacet
facet normal -0.6087614290087959 1.61801521904595e-11 -0.7933533402911774
  outer loop
    vertex 112.83984845186907 283.12800914529134 133.64544692932765
    vertex 113.23335133590909 278.12800914519465 133.34350154645415
    vertex 112.83984845165466 278.12800914529123 133.64544692939015
  endloop
endfacet
facet normal -0.6087614290087959 1.61801521904595e-11 -0.7933533402911774
  outer loop
    vertex 113.23335133590909 278.12800914519465 133.34350154645415
    vertex 112.83984845186907 283.12800914529134 133.64544692932765
    vertex 113.2333513361234 283.1280091451948 133.34350154639162
  endloop
endfacet
facet normal -0.7933533402912061 2.6394789972447006e-11 -0.6087614290087586
  outer loop
    vertex 113.23335133590909 278.12800914519465 133.34350154645415
    vertex 113.53529671905943 283.12800914511286 132.9499986621372
    vertex 113.5352967188451 278.12800914511274 132.9499986621997
  endloop
endfacet
facet normal -0.7933533402912061 2.6394789972447006e-11 -0.6087614290087586
  outer loop
    vertex 113.53529671905943 283.12800914511286 132.9499986621372
    vertex 113.23335133590909 278.12800914519465 133.34350154645415
    vertex 113.2333513361234 283.1280091451948 133.34350154639162
  endloop
endfacet
facet normal -0.9238795325112871 3.4816161778865616e-11 -0.38268343236508934
  outer loop
    vertex 113.5352967188451 278.12800914511274 132.9499986621997
    vertex 113.72510752181822 283.1280091450515 132.491754847832
    vertex 113.7251075216039 278.12800914505135 132.4917548478945
  endloop
endfacet
facet normal -0.9238795325112871 3.4816161778865616e-11 -0.38268343236508934
  outer loop
    vertex 113.72510752181822 283.1280091450515 132.491754847832
    vertex 113.5352967188451 278.12800914511274 132.9499986621997
    vertex 113.53529671905943 283.12800914511286 132.9499986621372
  endloop
endfacet
facet normal -0.9914448613738096 4.0873816593110693e-11 -0.1305261922200589
  outer loop
    vertex 113.7251075216039 278.12800914505135 132.4917548478945
    vertex 113.78984845186903 283.1280091450145 131.99999866213722
    vertex 113.78984845165463 278.12800914501435 131.99999866219972
  endloop
endfacet
facet normal -0.9914448613738096 4.0873816593110693e-11 -0.1305261922200589
  outer loop
    vertex 113.78984845186903 283.1280091450145 131.99999866213722
    vertex 113.7251075216039 278.12800914505135 132.4917548478945
    vertex 113.72510752181822 283.1280091450515 132.491754847832
  endloop
endfacet
facet normal -0.9914448613738096 4.413765132308509e-11 0.1305261922200589
  outer loop
    vertex 113.78984845165463 278.12800914501435 131.99999866219972
    vertex 113.72510752181822 283.12800914500457 131.5082424764424
    vertex 113.7251075216039 278.12800914500446 131.50824247650493
  endloop
endfacet
facet normal -0.9914448613738096 4.413765132308509e-11 0.1305261922200589
  outer loop
    vertex 113.72510752181822 283.12800914500457 131.5082424764424
    vertex 113.78984845165463 278.12800914501435 131.99999866219972
    vertex 113.78984845186903 283.1280091450145 131.99999866213722
  endloop
endfacet
facet normal -0.9238795325112937 4.438523916042568e-11 0.38268343236507313
  outer loop
    vertex 113.72510752181822 283.12800914500457 131.5082424764424
    vertex 113.5352967188451 278.12800914502213 131.0499986621997
    vertex 113.7251075216039 278.12800914500446 131.50824247650493
  endloop
endfacet
facet normal -0.9238795325112937 4.438523916042568e-11 0.38268343236507313
  outer loop
    vertex 113.5352967188451 278.12800914502213 131.0499986621997
    vertex 113.72510752181822 283.12800914500457 131.5082424764424
    vertex 113.53529671905943 283.12800914502225 131.0499986621372
  endloop
endfacet
facet normal -0.7933533402911893 4.1616995369760634e-11 0.6087614290087806
  outer loop
    vertex 113.53529671905943 283.12800914502225 131.0499986621372
    vertex 113.23335133590909 278.1280091450665 130.65649577794528
    vertex 113.5352967188451 278.12800914502213 131.0499986621997
  endloop
endfacet
facet normal -0.7933533402911893 4.1616995369760634e-11 0.6087614290087806
  outer loop
    vertex 113.23335133590909 278.1280091450665 130.65649577794528
    vertex 113.53529671905943 283.12800914502225 131.0499986621372
    vertex 113.2333513361234 283.12800914506664 130.65649577788278
  endloop
endfacet
facet normal -0.608761429008752 3.6012621824686005e-11 0.7933533402912112
  outer loop
    vertex 113.23335133590909 278.1280091450665 130.65649577794528
    vertex 112.83984845186899 283.12800914513434 130.35455039494678
    vertex 112.83984845165466 278.12800914513423 130.35455039500928
  endloop
endfacet
facet normal -0.608761429008752 3.6012621824686005e-11 0.7933533402912112
  outer loop
    vertex 112.83984845186899 283.12800914513434 130.35455039494678
    vertex 113.23335133590909 278.1280091450665 130.65649577794528
    vertex 113.2333513361234 283.12800914506664 130.65649577788278
  endloop
endfacet
facet normal -0.38268343236508934 2.7957501500362326e-11 0.9238795325112871
  outer loop
    vertex 112.83984845165466 278.12800914513423 130.35455039500928
    vertex 112.38160463756383 283.128009145221 130.16473959218797
    vertex 112.38160463734943 278.12800914522086 130.1647395922505
  endloop
endfacet
facet normal -0.38268343236508934 2.7957501500362326e-11 0.9238795325112871
  outer loop
    vertex 112.38160463756383 283.128009145221 130.16473959218797
    vertex 112.83984845165466 278.12800914513423 130.35455039500928
    vertex 112.83984845186899 283.12800914513434 130.35455039494678
  endloop
endfacet
facet normal -0.13052619222006473 1.799162848659281e-11 0.9914448613738088
  outer loop
    vertex 112.38160463734943 278.12800914522086 130.1647395922505
    vertex 111.88984845186901 283.1280091453206 130.0999986621372
    vertex 111.8898484516547 278.12800914532045 130.0999986621997
  endloop
endfacet
facet normal -0.13052619222006473 1.799162848659281e-11 0.9914448613738088
  outer loop
    vertex 111.88984845186901 283.1280091453206 130.0999986621372
    vertex 112.38160463734943 278.12800914522086 130.1647395922505
    vertex 112.38160463756383 283.128009145221 130.16473959218797
  endloop
endfacet
facet normal 0.130526192220053 6.800833818153533e-12 0.9914448613738103
  outer loop
    vertex 111.8898484516547 278.12800914532045 130.0999986621997
    vertex 111.3980922661742 283.12800914542635 130.16473959218797
    vertex 111.39809226595989 278.12800914542623 130.1647395922505
  endloop
endfacet
facet normal 0.130526192220053 6.800833818153533e-12 0.9914448613738103
  outer loop
    vertex 111.3980922661742 283.12800914542635 130.16473959218797
    vertex 111.8898484516547 278.12800914532045 130.0999986621997
    vertex 111.88984845186901 283.1280091453206 130.0999986621372
  endloop
endfacet
facet normal 0.38268343236505703 -4.852248406876815e-12 0.9238795325113004
  outer loop
    vertex 111.39809226595989 278.12800914542623 130.1647395922505
    vertex 110.93984845186897 283.12800914553105 130.35455039494678
    vertex 110.93984845165464 278.1280091455309 130.35455039500928
  endloop
endfacet
facet normal 0.38268343236505703 -4.852248406876815e-12 0.9238795325113004
  outer loop
    vertex 110.93984845186897 283.12800914553105 130.35455039494678
    vertex 111.39809226595989 278.12800914542623 130.1647395922505
    vertex 111.3980922661742 283.12800914542635 130.16473959218797
  endloop
endfacet
facet normal 0.6087614290087959 -1.618014826743281e-11 0.7933533402911775
  outer loop
    vertex 110.93984845165464 278.1280091455309 130.35455039500928
    vertex 110.54634556761464 283.1280091456276 130.65649577788278
    vertex 110.54634556740022 278.12800914562746 130.65649577794528
  endloop
endfacet
facet normal 0.6087614290087959 -1.618014826743281e-11 0.7933533402911775
  outer loop
    vertex 110.54634556761464 283.1280091456276 130.65649577788278
    vertex 110.93984845165464 278.1280091455309 130.35455039500928
    vertex 110.93984845186897 283.12800914553105 130.35455039494678
  endloop
endfacet
facet normal 0.79335334029125 -2.6401948670941544e-11 0.6087614290087012
  outer loop
    vertex 110.54634556761464 283.1280091456276 130.65649577788278
    vertex 110.24440018446428 278.12800914570937 131.04999866219973
    vertex 110.54634556740022 278.12800914562746 130.65649577794528
  endloop
endfacet
facet normal 0.79335334029125 -2.6401948670941544e-11 0.6087614290087012
  outer loop
    vertex 110.24440018446428 278.12800914570937 131.04999866219973
    vertex 110.54634556761464 283.1280091456276 130.65649577788278
    vertex 110.24440018467861 283.12800914570954 131.04999866213723
  endloop
endfacet
facet normal 0.9238795325112871 -3.4816160708142054e-11 0.38268343236508934
  outer loop
    vertex 110.24440018467861 283.12800914570954 131.04999866213723
    vertex 110.0545893817055 278.12800914577076 131.50824247650493
    vertex 110.24440018446428 278.12800914570937 131.04999866219973
  endloop
endfacet
facet normal 0.9238795325112871 -3.4816160708142054e-11 0.38268343236508934
  outer loop
    vertex 110.0545893817055 278.12800914577076 131.50824247650493
    vertex 110.24440018467861 283.12800914570954 131.04999866213723
    vertex 110.05458938191981 283.1280091457709 131.5082424764424
  endloop
endfacet
facet normal 0.9914448613737978 -4.086486975358141e-11 0.1305261922201483
  outer loop
    vertex 110.05458938191981 283.1280091457709 131.5082424764424
    vertex 109.98984845165468 278.12800914580777 131.99999866219972
    vertex 110.0545893817055 278.12800914577076 131.50824247650493
  endloop
endfacet
facet normal 0.9914448613737978 -4.086486975358141e-11 0.1305261922201483
  outer loop
    vertex 109.98984845165468 278.12800914580777 131.99999866219972
    vertex 110.05458938191981 283.1280091457709 131.5082424764424
    vertex 109.989848451869 283.1280091458079 131.99999866213722
  endloop
endfacet
facet normal 0.9914448613737978 -4.4128703790058267e-11 -0.1305261922201483
  outer loop
    vertex 109.989848451869 283.1280091458079 131.99999866213722
    vertex 110.0545893817055 278.12800914581766 132.4917548478945
    vertex 109.98984845165468 278.12800914580777 131.99999866219972
  endloop
endfacet
facet normal 0.9914448613737978 -4.4128703790058267e-11 -0.1305261922201483
  outer loop
    vertex 110.0545893817055 278.12800914581766 132.4917548478945
    vertex 109.989848451869 283.1280091458079 131.99999866213722
    vertex 110.05458938191981 283.1280091458178 132.491754847832
  endloop
endfacet
facet normal 0.9238795325112937 -4.438523916042568e-11 -0.38268343236507313
  outer loop
    vertex 110.0545893817055 278.12800914581766 132.4917548478945
    vertex 110.24440018467861 283.1280091458001 132.9499986621372
    vertex 110.24440018446428 278.1280091458 132.94999866219973
  endloop
endfacet
facet normal 0.9238795325112937 -4.438523916042568e-11 -0.38268343236507313
  outer loop
    vertex 110.24440018467861 283.1280091458001 132.9499986621372
    vertex 110.0545893817055 278.12800914581766 132.4917548478945
    vertex 110.05458938191981 283.1280091458178 132.491754847832
  endloop
endfacet
facet normal 0.7933533402912332 -4.162415525505273e-11 -0.6087614290087232
  outer loop
    vertex 110.24440018446428 278.1280091458 132.94999866219973
    vertex 110.54634556761464 283.1280091457557 133.34350154639162
    vertex 110.54634556740022 278.1280091457556 133.34350154645415
  endloop
endfacet
facet normal 0.7933533402912332 -4.162415525505273e-11 -0.6087614290087232
  outer loop
    vertex 110.54634556761464 283.1280091457557 133.34350154639162
    vertex 110.24440018446428 278.1280091458 132.94999866219973
    vertex 110.24440018467861 283.1280091458001 132.9499986621372
  endloop
endfacet
facet normal 6.465177556342031e-09 -1.0 1.219382429737342e-11
  outer loop
    vertex 116.03984845186902 278.12800920505947 128.0999986622043
    vertex 112.38160463734943 278.12800914522086 130.1647395922505
    vertex 111.8898484516547 278.12800914532045 130.0999986621997
  endloop
endfacet
facet normal 6.465177556342031e-09 -1.0 1.219382429737342e-11
  outer loop
    vertex 112.38160463734943 278.12800914522086 130.1647395922505
    vertex 116.03984845186902 278.12800920505947 128.0999986622043
    vertex 112.83984845165466 278.12800914513423 130.35455039500928
  endloop
endfacet
facet normal 6.465177556342031e-09 -1.0 1.219382429737342e-11
  outer loop
    vertex 112.83984845165466 278.12800914513423 130.35455039500928
    vertex 116.03984845186902 278.12800920505947 128.0999986622043
    vertex 113.23335133590909 278.1280091450665 130.65649577794528
  endloop
endfacet
facet normal 6.465177556342031e-09 -1.0 1.219382429737342e-11
  outer loop
    vertex 113.23335133590909 278.1280091450665 130.65649577794528
    vertex 116.03984845186902 278.12800920505947 128.0999986622043
    vertex 113.5352967188451 278.12800914502213 131.0499986621997
  endloop
endfacet
facet normal 6.465177556342031e-09 -1.0 1.219382429737342e-11
  outer loop
    vertex 113.5352967188451 278.12800914502213 131.0499986621997
    vertex 116.03984845186902 278.12800920505947 128.0999986622043
    vertex 116.0398484518706 278.12800920501564 135.89999866212156
  endloop
endfacet
facet normal 6.465177556342031e-09 -1.0 1.219382429737342e-11
  outer loop
    vertex 113.5352967188451 278.12800914502213 131.0499986621997
    vertex 116.0398484518706 278.12800920501564 135.89999866212156
    vertex 113.7251075216039 278.12800914500446 131.50824247650493
  endloop
endfacet
facet normal 6.465177556342031e-09 -1.0 1.219382429737342e-11
  outer loop
    vertex 113.7251075216039 278.12800914500446 131.50824247650493
    vertex 116.0398484518706 278.12800920501564 135.89999866212156
    vertex 113.78984845165463 278.12800914501435 131.99999866219972
  endloop
endfacet
facet normal 6.465177556342031e-09 -1.0 1.219382429737342e-11
  outer loop
    vertex 113.78984845165463 278.12800914501435 131.99999866219972
    vertex 116.0398484518706 278.12800920501564 135.89999866212156
    vertex 113.7251075216039 278.12800914505135 132.4917548478945
  endloop
endfacet
facet normal 6.465177556342031e-09 -1.0 1.219382429737342e-11
  outer loop
    vertex 113.7251075216039 278.12800914505135 132.4917548478945
    vertex 116.0398484518706 278.12800920501564 135.89999866212156
    vertex 113.5352967188451 278.12800914511274 132.9499986621997
  endloop
endfacet
facet normal 6.465177556342031e-09 -1.0 1.219382429737342e-11
  outer loop
    vertex 113.5352967188451 278.12800914511274 132.9499986621997
    vertex 116.0398484518706 278.12800920501564 135.89999866212156
    vertex 113.23335133590909 278.12800914519465 133.34350154645415
  endloop
endfacet
facet normal 6.465177556342031e-09 -1.0 1.219382429737342e-11
  outer loop
    vertex 113.23335133590909 278.12800914519465 133.34350154645415
    vertex 116.0398484518706 278.12800920501564 135.89999866212156
    vertex 112.83984845165466 278.12800914529123 133.64544692939015
  endloop
endfacet
facet normal 6.465177556342031e-09 -1.0 1.219382429737342e-11
  outer loop
    vertex 112.83984845165466 278.12800914529123 133.64544692939015
    vertex 116.0398484518706 278.12800920501564 135.89999866212156
    vertex 112.38160463734943 278.1280091453959 133.83525773214893
  endloop
endfacet
facet normal 6.465177556342031e-09 -1.0 1.219382429737342e-11
  outer loop
    vertex 112.38160463734943 278.1280091453959 133.83525773214893
    vertex 116.0398484518706 278.12800920501564 135.89999866212156
    vertex 111.8898484516547 278.12800914550166 133.89999866219972
  endloop
endfacet
facet normal 6.465177556342031e-09 -1.0 1.219382429737342e-11
  outer loop
    vertex 107.98984845169726 278.1280091440927 128.09999866219974
    vertex 110.24440018446428 278.12800914570937 131.04999866219973
    vertex 107.98984845169726 278.12800914432677 135.89999866219972
  endloop
endfacet
facet normal 6.465177556342031e-09 -1.0 1.219382429737342e-11
  outer loop
    vertex 110.24440018446428 278.12800914570937 131.04999866219973
    vertex 107.98984845169726 278.1280091440927 128.09999866219974
    vertex 110.54634556740022 278.12800914562746 130.65649577794528
  endloop
endfacet
facet normal 6.465177556342031e-09 -1.0 1.219382429737342e-11
  outer loop
    vertex 110.54634556740022 278.12800914562746 130.65649577794528
    vertex 107.98984845169726 278.1280091440927 128.09999866219974
    vertex 110.93984845165464 278.1280091455309 130.35455039500928
  endloop
endfacet
facet normal 6.465177556342031e-09 -1.0 1.219382429737342e-11
  outer loop
    vertex 110.93984845165464 278.1280091455309 130.35455039500928
    vertex 107.98984845169726 278.1280091440927 128.09999866219974
    vertex 116.03984845186902 278.12800920505947 128.0999986622043
  endloop
endfacet
facet normal 6.465177556342031e-09 -1.0 1.219382429737342e-11
  outer loop
    vertex 110.93984845165464 278.1280091455309 130.35455039500928
    vertex 116.03984845186902 278.12800920505947 128.0999986622043
    vertex 111.39809226595989 278.12800914542623 130.1647395922505
  endloop
endfacet
facet normal 6.465177556342031e-09 -1.0 1.219382429737342e-11
  outer loop
    vertex 111.39809226595989 278.12800914542623 130.1647395922505
    vertex 116.03984845186902 278.12800920505947 128.0999986622043
    vertex 111.8898484516547 278.12800914532045 130.0999986621997
  endloop
endfacet
facet normal 6.465177556342031e-09 -1.0 1.219382429737342e-11
  outer loop
    vertex 107.98984845169726 278.12800914432677 135.89999866219972
    vertex 110.24440018446428 278.12800914570937 131.04999866219973
    vertex 110.0545893817055 278.12800914577076 131.50824247650493
  endloop
endfacet
facet normal 6.465177556342031e-09 -1.0 1.219382429737342e-11
  outer loop
    vertex 107.98984845169726 278.12800914432677 135.89999866219972
    vertex 110.0545893817055 278.12800914577076 131.50824247650493
    vertex 109.98984845165468 278.12800914580777 131.99999866219972
  endloop
endfacet
facet normal 6.465177556342031e-09 -1.0 1.219382429737342e-11
  outer loop
    vertex 107.98984845169726 278.12800914432677 135.89999866219972
    vertex 109.98984845165468 278.12800914580777 131.99999866219972
    vertex 110.0545893817055 278.12800914581766 132.4917548478945
  endloop
endfacet
facet normal 6.465177556342031e-09 -1.0 1.219382429737342e-11
  outer loop
    vertex 107.98984845169726 278.12800914432677 135.89999866219972
    vertex 110.0545893817055 278.12800914581766 132.4917548478945
    vertex 110.24440018446428 278.1280091458 132.94999866219973
  endloop
endfacet
facet normal 6.465177556342031e-09 -1.0 1.219382429737342e-11
  outer loop
    vertex 107.98984845169726 278.12800914432677 135.89999866219972
    vertex 110.24440018446428 278.1280091458 132.94999866219973
    vertex 110.54634556740022 278.1280091457556 133.34350154645415
  endloop
endfacet
facet normal 6.465177556342031e-09 -1.0 1.219382429737342e-11
  outer loop
    vertex 107.98984845169726 278.12800914432677 135.89999866219972
    vertex 110.54634556740022 278.1280091457556 133.34350154645415
    vertex 110.93984845165474 278.12800914568794 133.64544692939015
  endloop
endfacet
facet normal 6.465177556342031e-09 -1.0 1.219382429737342e-11
  outer loop
    vertex 107.98984845169726 278.12800914432677 135.89999866219972
    vertex 110.93984845165474 278.12800914568794 133.64544692939015
    vertex 111.39809226595989 278.1280091456013 133.83525773214893
  endloop
endfacet
facet normal 6.465177556342031e-09 -1.0 1.219382429737342e-11
  outer loop
    vertex 107.98984845169726 278.12800914432677 135.89999866219972
    vertex 111.39809226595989 278.1280091456013 133.83525773214893
    vertex 111.8898484516547 278.12800914550166 133.89999866219972
  endloop
endfacet
facet normal 6.465177556342031e-09 -1.0 1.219382429737342e-11
  outer loop
    vertex 107.98984845169726 278.12800914432677 135.89999866219972
    vertex 111.8898484516547 278.12800914550166 133.89999866219972
    vertex 116.0398484518706 278.12800920501564 135.89999866212156
  endloop
endfacet
facet normal 6.4444898023236375e-09 -1.0 -3.3203297653815763e-12
  outer loop
    vertex 136.58984845156343 278.1280091444368 128.09999866219974
    vertex 133.18160463703288 278.12800914374293 130.1647395922505
    vertex 132.68984845133815 278.1280091438425 130.0999986621997
  endloop
endfacet
facet normal 6.4444898023236375e-09 -1.0 -3.3203297653815763e-12
  outer loop
    vertex 133.18160463703288 278.12800914374293 130.1647395922505
    vertex 136.58984845156343 278.1280091444368 128.09999866219974
    vertex 133.6398484513381 278.1280091436563 130.35455039500928
  endloop
endfacet
facet normal 6.4444898023236375e-09 -1.0 -3.3203297653815763e-12
  outer loop
    vertex 133.6398484513381 278.1280091436563 130.35455039500928
    vertex 136.58984845156343 278.1280091444368 128.09999866219974
    vertex 134.03335133559253 278.12800914358843 130.65649577794528
  endloop
endfacet
facet normal 6.4444898023236375e-09 -1.0 -3.3203297653815763e-12
  outer loop
    vertex 134.03335133559253 278.12800914358843 130.65649577794528
    vertex 136.58984845156343 278.1280091444368 128.09999866219974
    vertex 134.33529671852855 278.1280091435442 131.0499986621997
  endloop
endfacet
facet normal 6.4444898023236375e-09 -1.0 -3.3203297653815763e-12
  outer loop
    vertex 134.33529671852855 278.1280091435442 131.0499986621997
    vertex 136.58984845156343 278.1280091444368 128.09999866219974
    vertex 136.58984845156343 278.1280091444368 135.89999866219972
  endloop
endfacet
facet normal 6.4444898023236375e-09 -1.0 -3.3203297653815763e-12
  outer loop
    vertex 134.33529671852855 278.1280091435442 131.0499986621997
    vertex 136.58984845156343 278.1280091444368 135.89999866219972
    vertex 134.52510752128734 278.12800914352636 131.50824247650493
  endloop
endfacet
facet normal 6.4444898023236375e-09 -1.0 -3.3203297653815763e-12
  outer loop
    vertex 134.52510752128734 278.12800914352636 131.50824247650493
    vertex 136.58984845156343 278.1280091444368 135.89999866219972
    vertex 134.58984845133807 278.12800914353625 131.99999866219972
  endloop
endfacet
facet normal 6.4444898023236375e-09 -1.0 -3.3203297653815763e-12
  outer loop
    vertex 134.58984845133807 278.12800914353625 131.99999866219972
    vertex 136.58984845156343 278.1280091444368 135.89999866219972
    vertex 134.52510752128734 278.12800914357325 132.4917548478945
  endloop
endfacet
facet normal 6.4444898023236375e-09 -1.0 -3.3203297653815763e-12
  outer loop
    vertex 134.52510752128734 278.12800914357325 132.4917548478945
    vertex 136.58984845156343 278.1280091444368 135.89999866219972
    vertex 134.33529671852855 278.1280091436348 132.9499986621997
  endloop
endfacet
facet normal 6.4444898023236375e-09 -1.0 -3.3203297653815763e-12
  outer loop
    vertex 134.33529671852855 278.1280091436348 132.9499986621997
    vertex 136.58984845156343 278.1280091444368 135.89999866219972
    vertex 134.03335133559253 278.12800914371655 133.34350154645415
  endloop
endfacet
facet normal 6.4444898023236375e-09 -1.0 -3.3203297653815763e-12
  outer loop
    vertex 134.03335133559253 278.12800914371655 133.34350154645415
    vertex 136.58984845156343 278.1280091444368 135.89999866219972
    vertex 133.6398484513381 278.12800914381313 133.64544692939015
  endloop
endfacet
facet normal 6.4444898023236375e-09 -1.0 -3.3203297653815763e-12
  outer loop
    vertex 133.6398484513381 278.12800914381313 133.64544692939015
    vertex 136.58984845156343 278.1280091444368 135.89999866219972
    vertex 133.18160463703288 278.12800914391795 133.83525773214893
  endloop
endfacet
facet normal 6.4444898023236375e-09 -1.0 -3.3203297653815763e-12
  outer loop
    vertex 133.18160463703288 278.12800914391795 133.83525773214893
    vertex 136.58984845156343 278.1280091444368 135.89999866219972
    vertex 132.68984845133815 278.12800914402374 133.89999866219972
  endloop
endfacet
facet normal 6.4444898023236375e-09 -1.0 -3.3203297653815763e-12
  outer loop
    vertex 132.68984845133815 278.12800914402374 133.89999866219972
    vertex 136.58984845156343 278.1280091444368 135.89999866219972
    vertex 128.5398484517335 278.1280090837779 135.89999866215533
  endloop
endfacet
facet normal 6.4444898023236375e-09 -1.0 -3.3203297653815763e-12
  outer loop
    vertex 128.53984845173528 278.1280090838297 128.0999986621997
    vertex 131.04440018414775 278.12800914423144 131.04999866219973
    vertex 128.5398484517335 278.1280090837779 135.89999866215533
  endloop
endfacet
facet normal 6.4444898023236375e-09 -1.0 -3.3203297653815763e-12
  outer loop
    vertex 131.04440018414775 278.12800914423144 131.04999866219973
    vertex 128.53984845173528 278.1280090838297 128.0999986621997
    vertex 131.34634556708366 278.1280091441497 130.65649577794528
  endloop
endfacet
facet normal 6.4444898023236375e-09 -1.0 -3.3203297653815763e-12
  outer loop
    vertex 131.34634556708366 278.1280091441497 130.65649577794528
    vertex 128.53984845173528 278.1280090838297 128.0999986621997
    vertex 131.7398484513381 278.1280091440531 130.35455039500928
  endloop
endfacet
facet normal 6.4444898023236375e-09 -1.0 -3.3203297653815763e-12
  outer loop
    vertex 131.7398484513381 278.1280091440531 130.35455039500928
    vertex 128.53984845173528 278.1280090838297 128.0999986621997
    vertex 136.58984845156343 278.1280091444368 128.09999866219974
  endloop
endfacet
facet normal 6.4444898023236375e-09 -1.0 -3.3203297653815763e-12
  outer loop
    vertex 131.7398484513381 278.1280091440531 130.35455039500928
    vertex 136.58984845156343 278.1280091444368 128.09999866219974
    vertex 132.19809226564334 278.1280091439483 130.1647395922505
  endloop
endfacet
facet normal 6.4444898023236375e-09 -1.0 -3.3203297653815763e-12
  outer loop
    vertex 132.19809226564334 278.1280091439483 130.1647395922505
    vertex 136.58984845156343 278.1280091444368 128.09999866219974
    vertex 132.68984845133815 278.1280091438425 130.0999986621997
  endloop
endfacet
facet normal 6.4444898023236375e-09 -1.0 -3.3203297653815763e-12
  outer loop
    vertex 128.5398484517335 278.1280090837779 135.89999866215533
    vertex 131.04440018414775 278.12800914423144 131.04999866219973
    vertex 130.85458938138896 278.128009144293 131.50824247650493
  endloop
endfacet
facet normal 6.4444898023236375e-09 -1.0 -3.3203297653815763e-12
  outer loop
    vertex 128.5398484517335 278.1280090837779 135.89999866215533
    vertex 130.85458938138896 278.128009144293 131.50824247650493
    vertex 130.78984845133812 278.12800914433 131.99999866219972
  endloop
endfacet
facet normal 6.4444898023236375e-09 -1.0 -3.3203297653815763e-12
  outer loop
    vertex 128.5398484517335 278.1280090837779 135.89999866215533
    vertex 130.78984845133812 278.12800914433 131.99999866219972
    vertex 130.85458938138896 278.12800914433996 132.4917548478945
  endloop
endfacet
facet normal 6.4444898023236375e-09 -1.0 -3.3203297653815763e-12
  outer loop
    vertex 128.5398484517335 278.1280090837779 135.89999866215533
    vertex 130.85458938138896 278.12800914433996 132.4917548478945
    vertex 131.04440018414775 278.12800914432205 132.94999866219973
  endloop
endfacet
facet normal 6.4444898023236375e-09 -1.0 -3.3203297653815763e-12
  outer loop
    vertex 128.5398484517335 278.1280090837779 135.89999866215533
    vertex 131.04440018414775 278.12800914432205 132.94999866219973
    vertex 131.34634556708366 278.1280091442778 133.34350154645415
  endloop
endfacet
facet normal 6.4444898023236375e-09 -1.0 -3.3203297653815763e-12
  outer loop
    vertex 128.5398484517335 278.1280090837779 135.89999866215533
    vertex 131.34634556708366 278.1280091442778 133.34350154645415
    vertex 131.7398484513382 278.12800914421 133.64544692939015
  endloop
endfacet
facet normal 6.4444898023236375e-09 -1.0 -3.3203297653815763e-12
  outer loop
    vertex 128.5398484517335 278.1280090837779 135.89999866215533
    vertex 131.7398484513382 278.12800914421 133.64544692939015
    vertex 132.19809226564334 278.1280091441234 133.83525773214893
  endloop
endfacet
facet normal 6.4444898023236375e-09 -1.0 -3.3203297653815763e-12
  outer loop
    vertex 128.5398484517335 278.1280090837779 135.89999866215533
    vertex 132.19809226564334 278.1280091441234 133.83525773214893
    vertex 132.68984845133815 278.12800914402374 133.89999866219972
  endloop
endfacet
facet normal 3.290260289535849e-13 -1.0241611327662448e-11 -1.0
  outer loop
    vertex 136.58984845196048 283.128009144437 128.09999866216353
    vertex 116.03984845186902 279.6280090925475 128.0999986622043
    vertex 107.98984845191157 283.1280091440928 128.0999986621372
  endloop
endfacet
facet normal 3.290260289535849e-13 -1.0241611327662448e-11 -1.0
  outer loop
    vertex 116.03984845186902 279.6280090925475 128.0999986622043
    vertex 136.58984845196048 283.128009144437 128.09999866216353
    vertex 128.53984845173528 279.6280090925475 128.0999986622043
  endloop
endfacet
facet normal 3.290260289535849e-13 -1.0241611327662448e-11 -1.0
  outer loop
    vertex 128.53984845173528 279.6280090925475 128.0999986622043
    vertex 136.58984845196048 283.128009144437 128.09999866216353
    vertex 128.53984845173528 278.1280090838297 128.0999986621997
  endloop
endfacet
facet normal 3.290260289535849e-13 -1.0241611327662448e-11 -1.0
  outer loop
    vertex 128.53984845173528 278.1280090838297 128.0999986621997
    vertex 136.58984845196048 283.128009144437 128.09999866216353
    vertex 136.58984845156343 278.1280091444368 128.09999866219974
  endloop
endfacet
facet normal 3.290260289535849e-13 -1.0241611327662448e-11 -1.0
  outer loop
    vertex 107.98984845191157 283.1280091440928 128.0999986621372
    vertex 116.03984845186902 278.12800920505947 128.0999986622043
    vertex 107.98984845169726 278.1280091440927 128.09999866219974
  endloop
endfacet
facet normal 3.290260289535849e-13 -1.0241611327662448e-11 -1.0
  outer loop
    vertex 116.03984845186902 278.12800920505947 128.0999986622043
    vertex 107.98984845191157 283.1280091440928 128.0999986621372
    vertex 116.03984845186902 279.6280090925475 128.0999986622043
  endloop
endfacet
facet normal 1.0 5.263937828927e-13 -1.0122956603977489e-13
  outer loop
    vertex 116.03984845186902 278.12800920505947 128.0999986622043
    vertex 116.03984845186902 279.6280090925475 135.89999866212156
    vertex 116.0398484518706 278.12800920501564 135.89999866212156
  endloop
endfacet
facet normal 1.0 5.263937828927e-13 -1.0122956603977489e-13
  outer loop
    vertex 116.03984845186902 279.6280090925475 135.89999866212156
    vertex 116.03984845186902 278.12800920505947 128.0999986622043
    vertex 116.03984845186902 279.6280090925475 128.0999986622043
  endloop
endfacet
facet normal -1.0 5.940729355375843e-13 -1.1424479595837785e-13
  outer loop
    vertex 128.53984845173528 279.6280090925475 135.89999866215533
    vertex 128.53984845173528 278.1280090838297 128.0999986621997
    vertex 128.5398484517335 278.1280090837779 135.89999866215533
  endloop
endfacet
facet normal -1.0 5.940729355375843e-13 -1.1424479595837785e-13
  outer loop
    vertex 128.53984845173528 278.1280090838297 128.0999986621997
    vertex 128.53984845173528 279.6280090925475 135.89999866215533
    vertex 128.53984845173528 279.6280090925475 128.0999986622043
  endloop
endfacet
facet normal 0.0 -1.0 0.0
  outer loop
    vertex 128.53984845173528 279.6280090925475 135.89999866215533
    vertex 116.03984845186902 279.6280090925475 128.0999986622043
    vertex 128.53984845173528 279.6280090925475 128.0999986622043
  endloop
endfacet
facet normal 0.0 -1.0 0.0
  outer loop
    vertex 116.03984845186902 279.6280090925475 128.0999986622043
    vertex 128.53984845173528 279.6280090925475 135.89999866215533
    vertex 116.03984845186902 279.6280090925475 135.89999866212156
  endloop
endfacet
facet normal -7.261112614905974e-13 3.5598749762019983e-12 1.0
  outer loop
    vertex 116.0398484518706 278.12800920501564 135.89999866212156
    vertex 107.98984845191157 283.1280091443269 135.8999986621372
    vertex 107.98984845169726 278.12800914432677 135.89999866219972
  endloop
endfacet
facet normal -7.261112614905974e-13 3.5598749762019983e-12 1.0
  outer loop
    vertex 107.98984845191157 283.1280091443269 135.8999986621372
    vertex 116.0398484518706 278.12800920501564 135.89999866212156
    vertex 116.03984845186902 279.6280090925475 135.89999866212156
  endloop
endfacet
facet normal -7.261112614905974e-13 3.5598749762019983e-12 1.0
  outer loop
    vertex 136.58984845156343 278.1280091444368 135.89999866219972
    vertex 128.53984845173528 279.6280090925475 135.89999866215533
    vertex 128.5398484517335 278.1280090837779 135.89999866215533
  endloop
endfacet
facet normal -7.261112614905974e-13 3.5598749762019983e-12 1.0
  outer loop
    vertex 116.03984845186902 279.6280090925475 135.89999866212156
    vertex 136.58984845196048 283.128009144437 135.8999986621635
    vertex 107.98984845191157 283.1280091443269 135.8999986621372
  endloop
endfacet
facet normal -7.261112614905974e-13 3.5598749762019983e-12 1.0
  outer loop
    vertex 136.58984845196048 283.128009144437 135.8999986621635
    vertex 116.03984845186902 279.6280090925475 135.89999866212156
    vertex 128.53984845173528 279.6280090925475 135.89999866215533
  endloop
endfacet
facet normal -7.261112614905974e-13 3.5598749762019983e-12 1.0
  outer loop
    vertex 136.58984845196048 283.128009144437 135.8999986621635
    vertex 128.53984845173528 279.6280090925475 135.89999866215533
    vertex 136.58984845156343 278.1280091444368 135.89999866219972
  endloop
endfacet
facet normal -5.698199822203521e-12 1.0 -1.5005113960470275e-11
  outer loop
    vertex 107.98984845191157 283.1280091440928 128.0999986621372
    vertex 111.88984845186901 283.1280091453206 130.0999986621372
    vertex 136.58984845196048 283.128009144437 128.09999866216353
  endloop
endfacet
facet normal -5.698199822203521e-12 1.0 -1.5005113960470275e-11
  outer loop
    vertex 111.88984845186901 283.1280091453206 130.0999986621372
    vertex 107.98984845191157 283.1280091440928 128.0999986621372
    vertex 111.3980922661742 283.12800914542635 130.16473959218797
  endloop
endfacet
facet normal -5.698199822203521e-12 1.0 -1.5005113960470275e-11
  outer loop
    vertex 111.3980922661742 283.12800914542635 130.16473959218797
    vertex 107.98984845191157 283.1280091440928 128.0999986621372
    vertex 110.93984845186897 283.12800914553105 130.35455039494678
  endloop
endfacet
facet normal -5.698199822203521e-12 1.0 -1.5005113960470275e-11
  outer loop
    vertex 110.93984845186897 283.12800914553105 130.35455039494678
    vertex 107.98984845191157 283.1280091440928 128.0999986621372
    vertex 110.54634556761464 283.1280091456276 130.65649577788278
  endloop
endfacet
facet normal -5.698199822203521e-12 1.0 -1.5005113960470275e-11
  outer loop
    vertex 110.54634556761464 283.1280091456276 130.65649577788278
    vertex 107.98984845191157 283.1280091440928 128.0999986621372
    vertex 110.24440018467861 283.12800914570954 131.04999866213723
  endloop
endfacet
facet normal -5.698199822203521e-12 1.0 -1.5005113960470275e-11
  outer loop
    vertex 110.24440018467861 283.12800914570954 131.04999866213723
    vertex 107.98984845191157 283.1280091440928 128.0999986621372
    vertex 107.98984845191157 283.1280091443269 135.8999986621372
  endloop
endfacet
facet normal -5.698199822203521e-12 1.0 -1.5005113960470275e-11
  outer loop
    vertex 110.24440018467861 283.12800914570954 131.04999866213723
    vertex 107.98984845191157 283.1280091443269 135.8999986621372
    vertex 110.05458938191981 283.1280091457709 131.5082424764424
  endloop
endfacet
facet normal -5.698199822203521e-12 1.0 -1.5005113960470275e-11
  outer loop
    vertex 110.05458938191981 283.1280091457709 131.5082424764424
    vertex 107.98984845191157 283.1280091443269 135.8999986621372
    vertex 109.989848451869 283.1280091458079 131.99999866213722
  endloop
endfacet
facet normal -5.698199822203521e-12 1.0 -1.5005113960470275e-11
  outer loop
    vertex 109.989848451869 283.1280091458079 131.99999866213722
    vertex 107.98984845191157 283.1280091443269 135.8999986621372
    vertex 110.05458938191981 283.1280091458178 132.491754847832
  endloop
endfacet
facet normal -5.698199822203521e-12 1.0 -1.5005113960470275e-11
  outer loop
    vertex 110.05458938191981 283.1280091458178 132.491754847832
    vertex 107.98984845191157 283.1280091443269 135.8999986621372
    vertex 110.24440018467861 283.1280091458001 132.9499986621372
  endloop
endfacet
facet normal -5.698199822203521e-12 1.0 -1.5005113960470275e-11
  outer loop
    vertex 110.24440018467861 283.1280091458001 132.9499986621372
    vertex 107.98984845191157 283.1280091443269 135.8999986621372
    vertex 110.54634556761464 283.1280091457557 133.34350154639162
  endloop
endfacet
facet normal -5.698199822203521e-12 1.0 -1.5005113960470275e-11
  outer loop
    vertex 110.54634556761464 283.1280091457557 133.34350154639162
    vertex 107.98984845191157 283.1280091443269 135.8999986621372
    vertex 110.93984845186905 283.12800914568805 133.64544692932765
  endloop
endfacet
facet normal -5.698199822203521e-12 1.0 -1.5005113960470275e-11
  outer loop
    vertex 110.93984845186905 283.12800914568805 133.64544692932765
    vertex 107.98984845191157 283.1280091443269 135.8999986621372
    vertex 111.3980922661742 283.1280091456014 133.83525773208643
  endloop
endfacet
facet normal -5.698199822203521e-12 1.0 -1.5005113960470275e-11
  outer loop
    vertex 111.3980922661742 283.1280091456014 133.83525773208643
    vertex 107.98984845191157 283.1280091443269 135.8999986621372
    vertex 111.88984845186901 283.1280091455018 133.8999986621372
  endloop
endfacet
facet normal -5.698199822203521e-12 1.0 -1.5005113960470275e-11
  outer loop
    vertex 111.88984845186901 283.1280091455018 133.8999986621372
    vertex 107.98984845191157 283.1280091443269 135.8999986621372
    vertex 132.6898484517352 283.12800914402385 133.8999986621635
  endloop
endfacet
facet normal -5.698199822203521e-12 1.0 -1.5005113960470275e-11
  outer loop
    vertex 136.58984845196048 283.128009144437 128.09999866216353
    vertex 134.3352967189256 283.1280091435443 131.0499986621635
    vertex 136.58984845196048 283.128009144437 135.8999986621635
  endloop
endfacet
facet normal -5.698199822203521e-12 1.0 -1.5005113960470275e-11
  outer loop
    vertex 134.3352967189256 283.1280091435443 131.0499986621635
    vertex 136.58984845196048 283.128009144437 128.09999866216353
    vertex 134.03335133598966 283.12800914358854 130.65649577790907
  endloop
endfacet
facet normal -5.698199822203521e-12 1.0 -1.5005113960470275e-11
  outer loop
    vertex 134.03335133598966 283.12800914358854 130.65649577790907
    vertex 136.58984845196048 283.128009144437 128.09999866216353
    vertex 133.63984845173516 283.1280091436564 130.35455039497307
  endloop
endfacet
facet normal -5.698199822203521e-12 1.0 -1.5005113960470275e-11
  outer loop
    vertex 133.63984845173516 283.1280091436564 130.35455039497307
    vertex 136.58984845196048 283.128009144437 128.09999866216353
    vertex 133.18160463743 283.12800914374304 130.1647395922143
  endloop
endfacet
facet normal -5.698199822203521e-12 1.0 -1.5005113960470275e-11
  outer loop
    vertex 133.18160463743 283.12800914374304 130.1647395922143
    vertex 136.58984845196048 283.128009144437 128.09999866216353
    vertex 132.6898484517352 283.12800914384263 130.0999986621635
  endloop
endfacet
facet normal -5.698199822203521e-12 1.0 -1.5005113960470275e-11
  outer loop
    vertex 132.6898484517352 283.12800914384263 130.0999986621635
    vertex 136.58984845196048 283.128009144437 128.09999866216353
    vertex 111.88984845186901 283.1280091453206 130.0999986621372
  endloop
endfacet
facet normal -5.698199822203521e-12 1.0 -1.5005113960470275e-11
  outer loop
    vertex 136.58984845196048 283.128009144437 135.8999986621635
    vertex 134.3352967189256 283.1280091435443 131.0499986621635
    vertex 134.5251075216844 283.12800914352647 131.50824247646872
  endloop
endfacet
facet normal -5.698199822203521e-12 1.0 -1.5005113960470275e-11
  outer loop
    vertex 136.58984845196048 283.128009144437 135.8999986621635
    vertex 134.5251075216844 283.12800914352647 131.50824247646872
    vertex 134.5898484517352 283.12800914353636 131.9999986621635
  endloop
endfacet
facet normal -5.698199822203521e-12 1.0 -1.5005113960470275e-11
  outer loop
    vertex 136.58984845196048 283.128009144437 135.8999986621635
    vertex 134.5898484517352 283.12800914353636 131.9999986621635
    vertex 134.5251075216844 283.12800914357337 132.4917548478583
  endloop
endfacet
facet normal -5.698199822203521e-12 1.0 -1.5005113960470275e-11
  outer loop
    vertex 136.58984845196048 283.128009144437 135.8999986621635
    vertex 134.5251075216844 283.12800914357337 132.4917548478583
    vertex 134.3352967189256 283.1280091436349 132.9499986621635
  endloop
endfacet
facet normal -5.698199822203521e-12 1.0 -1.5005113960470275e-11
  outer loop
    vertex 136.58984845196048 283.128009144437 135.8999986621635
    vertex 134.3352967189256 283.1280091436349 132.9499986621635
    vertex 134.03335133598966 283.12800914371667 133.34350154641794
  endloop
endfacet
facet normal -5.698199822203521e-12 1.0 -1.5005113960470275e-11
  outer loop
    vertex 136.58984845196048 283.128009144437 135.8999986621635
    vertex 134.03335133598966 283.12800914371667 133.34350154641794
    vertex 133.63984845173525 283.12800914381324 133.64544692935394
  endloop
endfacet
facet normal -5.698199822203521e-12 1.0 -1.5005113960470275e-11
  outer loop
    vertex 136.58984845196048 283.128009144437 135.8999986621635
    vertex 133.63984845173525 283.12800914381324 133.64544692935394
    vertex 133.18160463743 283.1280091439181 133.83525773211272
  endloop
endfacet
facet normal -5.698199822203521e-12 1.0 -1.5005113960470275e-11
  outer loop
    vertex 136.58984845196048 283.128009144437 135.8999986621635
    vertex 133.18160463743 283.1280091439181 133.83525773211272
    vertex 132.6898484517352 283.12800914402385 133.8999986621635
  endloop
endfacet
facet normal -5.698199822203521e-12 1.0 -1.5005113960470275e-11
  outer loop
    vertex 136.58984845196048 283.128009144437 135.8999986621635
    vertex 132.6898484517352 283.12800914402385 133.8999986621635
    vertex 107.98984845191157 283.1280091443269 135.8999986621372
  endloop
endfacet
facet normal -5.698199822203521e-12 1.0 -1.5005113960470275e-11
  outer loop
    vertex 112.38160463756383 283.128009145221 130.16473959218797
    vertex 132.6898484517352 283.12800914384263 130.0999986621635
    vertex 111.88984845186901 283.1280091453206 130.0999986621372
  endloop
endfacet
facet normal -5.698199822203521e-12 1.0 -1.5005113960470275e-11
  outer loop
    vertex 132.6898484517352 283.12800914384263 130.0999986621635
    vertex 112.38160463756383 283.128009145221 130.16473959218797
    vertex 132.19809226604048 283.1280091439484 130.1647395922143
  endloop
endfacet
facet normal -5.698199822203521e-12 1.0 -1.5005113960470275e-11
  outer loop
    vertex 132.19809226604048 283.1280091439484 130.1647395922143
    vertex 112.38160463756383 283.128009145221 130.16473959218797
    vertex 112.83984845186899 283.12800914513434 130.35455039494678
  endloop
endfacet
facet normal -5.698199822203521e-12 1.0 -1.5005113960470275e-11
  outer loop
    vertex 132.19809226604048 283.1280091439484 130.1647395922143
    vertex 112.83984845186899 283.12800914513434 130.35455039494678
    vertex 131.73984845173524 283.1280091440533 130.35455039497307
  endloop
endfacet
facet normal -5.698199822203521e-12 1.0 -1.5005113960470275e-11
  outer loop
    vertex 131.73984845173524 283.1280091440533 130.35455039497307
    vertex 112.83984845186899 283.12800914513434 130.35455039494678
    vertex 113.2333513361234 283.12800914506664 130.65649577788278
  endloop
endfacet
facet normal -5.698199822203521e-12 1.0 -1.5005113960470275e-11
  outer loop
    vertex 131.73984845173524 283.1280091440533 130.35455039497307
    vertex 113.2333513361234 283.12800914506664 130.65649577788278
    vertex 131.34634556748082 283.1280091441498 130.65649577790907
  endloop
endfacet
facet normal -5.698199822203521e-12 1.0 -1.5005113960470275e-11
  outer loop
    vertex 131.34634556748082 283.1280091441498 130.65649577790907
    vertex 113.2333513361234 283.12800914506664 130.65649577788278
    vertex 113.53529671905943 283.12800914502225 131.0499986621372
  endloop
endfacet
facet normal -5.698199822203521e-12 1.0 -1.5005113960470275e-11
  outer loop
    vertex 131.34634556748082 283.1280091441498 130.65649577790907
    vertex 113.53529671905943 283.12800914502225 131.0499986621372
    vertex 131.0444001845448 283.1280091442316 131.04999866216352
  endloop
endfacet
facet normal -5.698199822203521e-12 1.0 -1.5005113960470275e-11
  outer loop
    vertex 131.0444001845448 283.1280091442316 131.04999866216352
    vertex 113.53529671905943 283.12800914502225 131.0499986621372
    vertex 113.72510752181822 283.12800914500457 131.5082424764424
  endloop
endfacet
facet normal -5.698199822203521e-12 1.0 -1.5005113960470275e-11
  outer loop
    vertex 131.0444001845448 283.1280091442316 131.04999866216352
    vertex 113.72510752181822 283.12800914500457 131.5082424764424
    vertex 130.854589381786 283.1280091442931 131.50824247646872
  endloop
endfacet
facet normal -5.698199822203521e-12 1.0 -1.5005113960470275e-11
  outer loop
    vertex 130.854589381786 283.1280091442931 131.50824247646872
    vertex 113.72510752181822 283.12800914500457 131.5082424764424
    vertex 113.78984845186903 283.1280091450145 131.99999866213722
  endloop
endfacet
facet normal -5.698199822203521e-12 1.0 -1.5005113960470275e-11
  outer loop
    vertex 130.854589381786 283.1280091442931 131.50824247646872
    vertex 113.78984845186903 283.1280091450145 131.99999866213722
    vertex 130.78984845173528 283.1280091443301 131.9999986621635
  endloop
endfacet
facet normal -5.698199822203521e-12 1.0 -1.5005113960470275e-11
  outer loop
    vertex 130.78984845173528 283.1280091443301 131.9999986621635
    vertex 113.78984845186903 283.1280091450145 131.99999866213722
    vertex 113.72510752181822 283.1280091450515 132.491754847832
  endloop
endfacet
facet normal -5.698199822203521e-12 1.0 -1.5005113960470275e-11
  outer loop
    vertex 130.78984845173528 283.1280091443301 131.9999986621635
    vertex 113.72510752181822 283.1280091450515 132.491754847832
    vertex 130.854589381786 283.12800914434007 132.4917548478583
  endloop
endfacet
facet normal -5.698199822203521e-12 1.0 -1.5005113960470275e-11
  outer loop
    vertex 130.854589381786 283.12800914434007 132.4917548478583
    vertex 113.72510752181822 283.1280091450515 132.491754847832
    vertex 113.53529671905943 283.12800914511286 132.9499986621372
  endloop
endfacet
facet normal -5.698199822203521e-12 1.0 -1.5005113960470275e-11
  outer loop
    vertex 130.854589381786 283.12800914434007 132.4917548478583
    vertex 113.53529671905943 283.12800914511286 132.9499986621372
    vertex 131.0444001845448 283.12800914432216 132.94999866216352
  endloop
endfacet
facet normal -5.698199822203521e-12 1.0 -1.5005113960470275e-11
  outer loop
    vertex 131.0444001845448 283.12800914432216 132.94999866216352
    vertex 113.53529671905943 283.12800914511286 132.9499986621372
    vertex 113.2333513361234 283.1280091451948 133.34350154639162
  endloop
endfacet
facet normal -5.698199822203521e-12 1.0 -1.5005113960470275e-11
  outer loop
    vertex 131.0444001845448 283.12800914432216 132.94999866216352
    vertex 113.2333513361234 283.1280091451948 133.34350154639162
    vertex 131.34634556748082 283.128009144278 133.34350154641794
  endloop
endfacet
facet normal -5.698199822203521e-12 1.0 -1.5005113960470275e-11
  outer loop
    vertex 131.34634556748082 283.128009144278 133.34350154641794
    vertex 113.2333513361234 283.1280091451948 133.34350154639162
    vertex 112.83984845186907 283.12800914529134 133.64544692932765
  endloop
endfacet
facet normal -5.698199822203521e-12 1.0 -1.5005113960470275e-11
  outer loop
    vertex 131.34634556748082 283.128009144278 133.34350154641794
    vertex 112.83984845186907 283.12800914529134 133.64544692932765
    vertex 131.73984845173524 283.1280091442101 133.64544692935394
  endloop
endfacet
facet normal -5.698199822203521e-12 1.0 -1.5005113960470275e-11
  outer loop
    vertex 131.73984845173524 283.1280091442101 133.64544692935394
    vertex 112.83984845186907 283.12800914529134 133.64544692932765
    vertex 112.38160463756383 283.12800914539605 133.83525773208643
  endloop
endfacet
facet normal -5.698199822203521e-12 1.0 -1.5005113960470275e-11
  outer loop
    vertex 131.73984845173524 283.1280091442101 133.64544692935394
    vertex 112.38160463756383 283.12800914539605 133.83525773208643
    vertex 132.19809226604048 283.1280091441235 133.83525773211272
  endloop
endfacet
facet normal -5.698199822203521e-12 1.0 -1.5005113960470275e-11
  outer loop
    vertex 132.19809226604048 283.1280091441235 133.83525773211272
    vertex 112.38160463756383 283.12800914539605 133.83525773208643
    vertex 111.88984845186901 283.1280091455018 133.8999986621372
  endloop
endfacet
facet normal -5.698199822203521e-12 1.0 -1.5005113960470275e-11
  outer loop
    vertex 132.19809226604048 283.1280091441235 133.83525773211272
    vertex 111.88984845186901 283.1280091455018 133.8999986621372
    vertex 132.6898484517352 283.12800914402385 133.8999986621635
  endloop
endfacet
endsolid Design - Rolled - Solid
