solid Design - Rolled
facet normal -0.41875822899708665 5.611863468915203e-05 -0.9080977604299675
  outer loop
    vertex 516.5629729748767 538.5804100003903 -46.740309505171254
    vertex 511.82316460880213 541.9804100286334 -44.554394456132265
    vertex 516.5629446230623 541.9804100286933 -46.74008631783963
  endloop
endfacet
facet normal -0.41875822899708665 5.611863468915203e-05 -0.9080977604299675
  outer loop
    vertex 511.82316460880213 541.9804100286334 -44.554394456132265
    vertex 516.5629729748767 538.5804100003903 -46.740309505171254
    vertex 511.82319296061655 538.5804100003305 -44.55461764346198
  endloop
endfacet
facet normal -0.7016705349509502 4.09199073518061e-05 -0.7125015499682851
  outer loop
    vertex 507.52990426617157 538.5804100002778 -41.58637983559446
    vertex 503.8110025162118 541.9804100285334 -37.923815300644875
    vertex 507.52987591435686 541.9804100285808 -41.58615664826386
  endloop
endfacet
facet normal -0.7016705349509502 4.09199073518061e-05 -0.7125015499682851
  outer loop
    vertex 503.8110025162118 541.9804100285334 -37.923815300644875
    vertex 507.52990426617157 538.5804100002778 -41.58637983559446
    vertex 503.81103086802636 538.5804100002306 -37.924038487975785
  endloop
endfacet
facet normal -0.2563522729972672 6.131209413612294e-05 -0.9665834202850584
  outer loop
    vertex 521.608016557859 538.5804100004528 -48.07832996230454
    vertex 516.5629446230623 541.9804100286933 -46.74008631783963
    vertex 521.6079882060445 541.9804100287558 -48.07810677497394
  endloop
endfacet
facet normal -0.2563522729972672 6.131209413612294e-05 -0.9665834202850584
  outer loop
    vertex 516.5629446230623 541.9804100286933 -46.74008631783963
    vertex 521.608016557859 538.5804100004528 -48.07832996230454
    vertex 516.5629729748767 538.5804100003903 -46.740309505171254
  endloop
endfacet
facet normal -0.08630797632074709 6.467868167065847e-05 -0.9962685024831839
  outer loop
    vertex 526.8080002436591 538.5804100005179 -48.52881099999999
    vertex 521.6079882060445 541.9804100287558 -48.07810677497394
    vertex 526.8079718918447 541.9804100288206 -48.52858781267027
  endloop
endfacet
facet normal -0.08630797632074709 6.467868167065847e-05 -0.9962685024831839
  outer loop
    vertex 521.6079882060445 541.9804100287558 -48.07810677497394
    vertex 526.8080002436591 538.5804100005179 -48.52881099999999
    vertex 521.608016557859 538.5804100004528 -48.07832996230454
  endloop
endfacet
facet normal 0.08630797580517884 6.611808620261493e-05 -0.9962685024333608
  outer loop
    vertex 532.0079839296887 538.5804100005832 -48.07832996495322
    vertex 526.8079718918447 541.9804100288206 -48.52858781267027
    vertex 532.0079555778742 541.9804100288862 -48.07810677762249
  endloop
endfacet
facet normal 0.08630797580517884 6.611808620261493e-05 -0.9962685024333608
  outer loop
    vertex 526.8079718918447 541.9804100288206 -48.52858781267027
    vertex 532.0079839296887 538.5804100005832 -48.07832996495322
    vertex 526.8080002436591 538.5804100005179 -48.52881099999999
  endloop
endfacet
facet normal 0.2563522724355651 6.558741869788931e-05 -0.9665834201533837
  outer loop
    vertex 537.0530275133535 538.5804100006458 -46.74030951038778
    vertex 532.0079555778742 541.9804100288862 -48.07810677762249
    vertex 537.0529991615391 541.9804100289487 -46.740086323057184
  endloop
endfacet
facet normal 0.2563522724355651 6.558741869788931e-05 -0.9665834201533837
  outer loop
    vertex 532.0079555778742 541.9804100288862 -48.07810677762249
    vertex 537.0530275133535 538.5804100006458 -46.74030951038778
    vertex 532.0079839296887 538.5804100005832 -48.07832996495322
  endloop
endfacet
facet normal 1.2489131466594763e-11 -1.0 6.749762240623186e-15
  outer loop
    vertex 521.608016557859 538.5804100004528 -48.07832996230454
    vertex 525.3591115087377 538.580409999024 -41.71816320971268
    vertex 525.3080002481713 538.580409999019 -41.32993464205892
  endloop
endfacet
facet normal 1.2489131466594763e-11 -1.0 6.749762240623186e-15
  outer loop
    vertex 525.3591115087377 538.580409999024 -41.71816320971268
    vertex 521.608016557859 538.5804100004528 -48.07832996230454
    vertex 526.8080002436591 538.5804100005179 -48.52881099999999
  endloop
endfacet
facet normal 1.2489131466594763e-11 -1.0 6.749762240623186e-15
  outer loop
    vertex 525.3591115087377 538.580409999024 -41.71816320971268
    vertex 526.8080002436591 538.5804100005179 -48.52881099999999
    vertex 525.5089621424951 538.5804099990382 -42.07993464205889
  endloop
endfacet
facet normal 1.2489131466594763e-11 -1.0 6.749762240623186e-15
  outer loop
    vertex 525.5089621424951 538.5804099990382 -42.07993464205889
    vertex 526.8080002436591 538.5804100005179 -48.52881099999999
    vertex 525.747340076392 538.580409999058 -42.390594813838696
  endloop
endfacet
facet normal 1.2489131466594763e-11 -1.0 6.749762240623186e-15
  outer loop
    vertex 525.747340076392 538.580409999058 -42.390594813838696
    vertex 526.8080002436591 538.5804100005179 -48.52881099999999
    vertex 526.0580002481717 538.5804099990836 -42.6289727477355
  endloop
endfacet
facet normal 1.2489131466594763e-11 -1.0 6.749762240623186e-15
  outer loop
    vertex 526.0580002481717 538.5804099990836 -42.6289727477355
    vertex 526.8080002436591 538.5804100005179 -48.52881099999999
    vertex 526.419771680518 538.5804099991141 -42.77882338149241
  endloop
endfacet
facet normal 1.2489131466594763e-11 -1.0 6.749762240623186e-15
  outer loop
    vertex 526.419771680518 538.5804099991141 -42.77882338149241
    vertex 526.8080002436591 538.5804100005179 -48.52881099999999
    vertex 526.8080002481718 538.5804099991449 -42.8299346420588
  endloop
endfacet
facet normal 1.2489131466594763e-11 -1.0 6.749762240623186e-15
  outer loop
    vertex 526.8080002481718 538.5804099991449 -42.8299346420588
    vertex 526.8080002436591 538.5804100005179 -48.52881099999999
    vertex 532.0079839296887 538.5804100005832 -48.07832996495322
  endloop
endfacet
facet normal 1.2489131466594763e-11 -1.0 6.749762240623186e-15
  outer loop
    vertex 526.8080002481718 538.5804099991449 -42.8299346420588
    vertex 532.0079839296887 538.5804100005832 -48.07832996495322
    vertex 527.1962288158255 538.5804099991769 -42.77882338149241
  endloop
endfacet
facet normal 1.2489131466594763e-11 -1.0 6.749762240623186e-15
  outer loop
    vertex 527.1962288158255 538.5804099991769 -42.77882338149241
    vertex 532.0079839296887 538.5804100005832 -48.07832996495322
    vertex 527.5580002481718 538.5804099992048 -42.62897274773541
  endloop
endfacet
facet normal 1.2489131466594763e-11 -1.0 6.749762240623186e-15
  outer loop
    vertex 527.5580002481718 538.5804099992048 -42.62897274773541
    vertex 532.0079839296887 538.5804100005832 -48.07832996495322
    vertex 527.8686604199517 538.5804099992303 -42.39059481383856
  endloop
endfacet
facet normal 1.2489131466594763e-11 -1.0 6.749762240623186e-15
  outer loop
    vertex 527.8686604199517 538.5804099992303 -42.39059481383856
    vertex 532.0079839296887 538.5804100005832 -48.07832996495322
    vertex 528.1070383538483 538.5804099992483 -42.079934642058724
  endloop
endfacet
facet normal 1.2489131466594763e-11 -1.0 6.749762240623186e-15
  outer loop
    vertex 528.1070383538483 538.5804099992483 -42.079934642058724
    vertex 532.0079839296887 538.5804100005832 -48.07832996495322
    vertex 528.2568889876051 538.580409999259 -41.71816320971249
  endloop
endfacet
facet normal 1.2489131466594763e-11 -1.0 6.749762240623186e-15
  outer loop
    vertex 528.2568889876051 538.580409999259 -41.71816320971249
    vertex 532.0079839296887 538.5804100005832 -48.07832996495322
    vertex 528.3080002481714 538.5804099992619 -41.32993464205876
  endloop
endfacet
facet normal 1.2489131466594763e-11 -1.0 6.749762240623186e-15
  outer loop
    vertex 503.81103086802636 538.5804100002306 -37.924038487975785
    vertex 552.7291839642816 538.5804100008418 -33.82993464808947
    vertex 500.8868165305228 538.5804100001945 -33.829934634884886
  endloop
endfacet
facet normal 1.2489131466594763e-11 -1.0 6.749762240623186e-15
  outer loop
    vertex 552.7291839642816 538.5804100008418 -33.82993464808947
    vertex 503.81103086802636 538.5804100002306 -37.924038487975785
    vertex 507.52990426617157 538.5804100002778 -41.58637983559446
  endloop
endfacet
facet normal 1.2489131466594763e-11 -1.0 6.749762240623186e-15
  outer loop
    vertex 552.7291839642816 538.5804100008418 -33.82993464808947
    vertex 507.52990426617157 538.5804100002778 -41.58637983559446
    vertex 526.419771680518 538.5804099991043 -39.8810459026252
  endloop
endfacet
facet normal 1.2489131466594763e-11 -1.0 6.749762240623186e-15
  outer loop
    vertex 526.419771680518 538.5804099991043 -39.8810459026252
    vertex 507.52990426617157 538.5804100002778 -41.58637983559446
    vertex 511.82319296061655 538.5804100003305 -44.55461764346198
  endloop
endfacet
facet normal 1.2489131466594763e-11 -1.0 6.749762240623186e-15
  outer loop
    vertex 526.419771680518 538.5804099991043 -39.8810459026252
    vertex 511.82319296061655 538.5804100003305 -44.55461764346198
    vertex 526.0580002481712 538.5804099990755 -40.03089653638218
  endloop
endfacet
facet normal 1.2489131466594763e-11 -1.0 6.749762240623186e-15
  outer loop
    vertex 526.0580002481712 538.5804099990755 -40.03089653638218
    vertex 511.82319296061655 538.5804100003305 -44.55461764346198
    vertex 516.5629729748767 538.5804100003903 -46.740309505171254
  endloop
endfacet
facet normal 1.2489131466594763e-11 -1.0 6.749762240623186e-15
  outer loop
    vertex 526.0580002481712 538.5804099990755 -40.03089653638218
    vertex 516.5629729748767 538.5804100003903 -46.740309505171254
    vertex 525.7473400763914 538.5804099990514 -40.2692744702791
  endloop
endfacet
facet normal 1.2489131466594763e-11 -1.0 6.749762240623186e-15
  outer loop
    vertex 525.7473400763914 538.5804099990514 -40.2692744702791
    vertex 516.5629729748767 538.5804100003903 -46.740309505171254
    vertex 525.5089621424945 538.5804099990333 -40.57993464205891
  endloop
endfacet
facet normal 1.2489131466594763e-11 -1.0 6.749762240623186e-15
  outer loop
    vertex 525.5089621424945 538.5804099990333 -40.57993464205891
    vertex 516.5629729748767 538.5804100003903 -46.740309505171254
    vertex 521.608016557859 538.5804100004528 -48.07832996230454
  endloop
endfacet
facet normal 1.2489131466594763e-11 -1.0 6.749762240623186e-15
  outer loop
    vertex 525.5089621424945 538.5804099990333 -40.57993464205891
    vertex 521.608016557859 538.5804100004528 -48.07832996230454
    vertex 525.3591115087376 538.5804099990219 -40.94170607440512
  endloop
endfacet
facet normal 1.2489131466594763e-11 -1.0 6.749762240623186e-15
  outer loop
    vertex 525.3591115087376 538.5804099990219 -40.94170607440512
    vertex 521.608016557859 538.5804100004528 -48.07832996230454
    vertex 525.3080002481713 538.580409999019 -41.32993464205892
  endloop
endfacet
facet normal 1.2489131466594763e-11 -1.0 6.749762240623186e-15
  outer loop
    vertex 552.7291839642816 538.5804100008418 -33.82993464808947
    vertex 526.419771680518 538.5804099991043 -39.8810459026252
    vertex 526.8080002481718 538.5804099991354 -39.82993464205881
  endloop
endfacet
facet normal 1.2489131466594763e-11 -1.0 6.749762240623186e-15
  outer loop
    vertex 552.7291839642816 538.5804100008418 -33.82993464808947
    vertex 526.8080002481718 538.5804099991354 -39.82993464205881
    vertex 527.1962288158255 538.580409999167 -39.88104590262518
  endloop
endfacet
facet normal 1.2489131466594763e-11 -1.0 6.749762240623186e-15
  outer loop
    vertex 552.7291839642816 538.5804100008418 -33.82993464808947
    vertex 527.1962288158255 538.580409999167 -39.88104590262518
    vertex 527.5580002481713 538.5804099991967 -40.03089653638213
  endloop
endfacet
facet normal 1.2489131466594763e-11 -1.0 6.749762240623186e-15
  outer loop
    vertex 552.7291839642816 538.5804100008418 -33.82993464808947
    vertex 527.5580002481713 538.5804099991967 -40.03089653638213
    vertex 527.8686604199512 538.5804099992229 -40.26927447027896
  endloop
endfacet
facet normal 1.2489131466594763e-11 -1.0 6.749762240623186e-15
  outer loop
    vertex 552.7291839642816 538.5804100008418 -33.82993464808947
    vertex 527.8686604199512 538.5804099992229 -40.26927447027896
    vertex 528.1070383538479 538.580409999243 -40.579934642058745
  endloop
endfacet
facet normal 1.2489131466594763e-11 -1.0 6.749762240623186e-15
  outer loop
    vertex 552.7291839642816 538.5804100008418 -33.82993464808947
    vertex 528.1070383538479 538.580409999243 -40.579934642058745
    vertex 528.2568889876051 538.5804099992567 -40.941706074404934
  endloop
endfacet
facet normal 1.2489131466594763e-11 -1.0 6.749762240623186e-15
  outer loop
    vertex 552.7291839642816 538.5804100008418 -33.82993464808947
    vertex 528.2568889876051 538.5804099992567 -40.941706074404934
    vertex 528.3080002481714 538.5804099992619 -41.32993464205876
  endloop
endfacet
facet normal 1.2489131466594763e-11 -1.0 6.749762240623186e-15
  outer loop
    vertex 552.7291839642816 538.5804100008418 -33.82993464808947
    vertex 528.3080002481714 538.5804099992619 -41.32993464205876
    vertex 532.0079839296887 538.5804100005832 -48.07832996495322
  endloop
endfacet
facet normal 1.2489131466594763e-11 -1.0 6.749762240623186e-15
  outer loop
    vertex 552.7291839642816 538.5804100008418 -33.82993464808947
    vertex 532.0079839296887 538.5804100005832 -48.07832996495322
    vertex 537.0530275133535 538.5804100006458 -46.74030951038778
  endloop
endfacet
facet normal 1.2489131466594763e-11 -1.0 6.749762240623186e-15
  outer loop
    vertex 552.7291839642816 538.5804100008418 -33.82993464808947
    vertex 537.0530275133535 538.5804100006458 -46.74030951038778
    vertex 541.7928075287268 538.580410000705 -44.554617651094176
  endloop
endfacet
facet normal 1.2489131466594763e-11 -1.0 6.749762240623186e-15
  outer loop
    vertex 552.7291839642816 538.5804100008418 -33.82993464808947
    vertex 541.7928075287268 538.580410000705 -44.554617651094176
    vertex 546.086096224683 538.5804100007595 -41.586379845414044
  endloop
endfacet
facet normal 1.2489131466594763e-11 -1.0 6.749762240623186e-15
  outer loop
    vertex 552.7291839642816 538.5804100008418 -33.82993464808947
    vertex 546.086096224683 538.5804100007595 -41.586379845414044
    vertex 549.8049696246941 538.5804100008052 -37.92403849968876
  endloop
endfacet
facet normal -0.13052619222001127 -7.350726787029752e-12 -0.9914448613738157
  outer loop
    vertex 527.1962288158255 538.580409999167 -39.88104590262518
    vertex 526.8080002478966 541.9804100270658 -39.829934642047675
    vertex 527.1962288155504 541.9804100270975 -39.88104590261404
  endloop
endfacet
facet normal -0.13052619222001127 -7.350726787029752e-12 -0.9914448613738157
  outer loop
    vertex 526.8080002478966 541.9804100270658 -39.829934642047675
    vertex 527.1962288158255 538.580409999167 -39.88104590262518
    vertex 526.8080002481718 538.5804099991354 -39.82993464205881
  endloop
endfacet
facet normal -0.3826834323655026 -2.7979270596979885e-11 -0.9238795325111158
  outer loop
    vertex 527.5580002481713 538.5804099991967 -40.03089653638213
    vertex 527.1962288155504 541.9804100270975 -39.88104590261404
    vertex 527.5580002478961 541.980410027127 -40.03089653637099
  endloop
endfacet
facet normal -0.3826834323655026 -2.7979270596979885e-11 -0.9238795325111158
  outer loop
    vertex 527.1962288155504 541.9804100270975 -39.88104590261404
    vertex 527.5580002481713 538.5804099991967 -40.03089653638213
    vertex 527.1962288158255 538.580409999167 -39.88104590262518
  endloop
endfacet
facet normal -0.6087614290086574 -4.6701073353602486e-11 -0.7933533402912837
  outer loop
    vertex 527.8686604199512 538.5804099992229 -40.26927447027896
    vertex 527.5580002478961 541.980410027127 -40.03089653637099
    vertex 527.868660419676 541.9804100271533 -40.269274470267774
  endloop
endfacet
facet normal -0.6087614290086574 -4.6701073353602486e-11 -0.7933533402912837
  outer loop
    vertex 527.5580002478961 541.980410027127 -40.03089653637099
    vertex 527.8686604199512 538.5804099992229 -40.26927447027896
    vertex 527.5580002481713 538.5804099991967 -40.03089653638213
  endloop
endfacet
facet normal -0.7933533402913588 -6.224027513840458e-11 -0.6087614290085596
  outer loop
    vertex 527.8686604199512 538.5804099992229 -40.26927447027896
    vertex 528.1070383535726 541.9804100271733 -40.57993464204752
    vertex 528.1070383538479 538.580409999243 -40.579934642058745
  endloop
endfacet
facet normal -0.7933533402913588 -6.224027513840458e-11 -0.6087614290085596
  outer loop
    vertex 528.1070383535726 541.9804100271733 -40.57993464204752
    vertex 527.8686604199512 538.5804099992229 -40.26927447027896
    vertex 527.868660419676 541.9804100271533 -40.269274470267774
  endloop
endfacet
facet normal -0.9238795325111048 -7.353790502940053e-11 -0.3826834323655294
  outer loop
    vertex 528.1070383538479 538.580409999243 -40.579934642058745
    vertex 528.2568889873298 541.9804100271872 -40.94170607439373
    vertex 528.2568889876051 538.5804099992567 -40.941706074404934
  endloop
endfacet
facet normal -0.9238795325111048 -7.353790502940053e-11 -0.3826834323655294
  outer loop
    vertex 528.2568889873298 541.9804100271872 -40.94170607439373
    vertex 528.1070383538479 538.580409999243 -40.579934642058745
    vertex 528.1070383535726 541.9804100271733 -40.57993464204752
  endloop
endfacet
facet normal -0.9914448613738057 -7.982404821981812e-11 -0.13052619222008727
  outer loop
    vertex 528.2568889876051 538.5804099992567 -40.941706074404934
    vertex 528.3080002478962 541.9804100271923 -41.329934642047526
    vertex 528.3080002481714 538.5804099992619 -41.32993464205876
  endloop
endfacet
facet normal -0.9914448613738057 -7.982404821981812e-11 -0.13052619222008727
  outer loop
    vertex 528.3080002478962 541.9804100271923 -41.329934642047526
    vertex 528.2568889876051 538.5804099992567 -40.941706074404934
    vertex 528.2568889873298 541.9804100271872 -40.94170607439373
  endloop
endfacet
facet normal 0.38268343236456565 3.396924108586734e-11 -0.9238795325115039
  outer loop
    vertex 526.419771680518 538.5804099991043 -39.8810459026252
    vertex 526.0580002478961 541.980410027006 -40.03089653637093
    vertex 526.4197716802429 541.9804100270347 -39.88104590261398
  endloop
endfacet
facet normal 0.38268343236456565 3.396924108586734e-11 -0.9238795325115039
  outer loop
    vertex 526.0580002478961 541.980410027006 -40.03089653637093
    vertex 526.419771680518 538.5804099991043 -39.8810459026252
    vertex 526.0580002481712 538.5804099990755 -40.03089653638218
  endloop
endfacet
facet normal 0.13052619221998146 1.3778756905760115e-11 -0.9914448613738198
  outer loop
    vertex 526.8080002481718 538.5804099991354 -39.82993464205881
    vertex 526.4197716802429 541.9804100270347 -39.88104590261398
    vertex 526.8080002478966 541.9804100270658 -39.829934642047675
  endloop
endfacet
facet normal 0.13052619221998146 1.3778756905760115e-11 -0.9914448613738198
  outer loop
    vertex 526.4197716802429 541.9804100270347 -39.88104590261398
    vertex 526.8080002481718 538.5804099991354 -39.82993464205881
    vertex 526.419771680518 538.5804099991043 -39.8810459026252
  endloop
endfacet
facet normal 0.9238795325108483 7.353790502937781e-11 0.3826834323661482
  outer loop
    vertex 525.5089621422198 541.9804100269687 -42.0799346420476
    vertex 525.3591115087377 538.580409999024 -41.71816320971268
    vertex 525.5089621424951 538.5804099990382 -42.07993464205889
  endloop
endfacet
facet normal 0.9238795325108483 7.353790502937781e-11 0.3826834323661482
  outer loop
    vertex 525.3591115087377 538.580409999024 -41.71816320971268
    vertex 525.5089621422198 541.9804100269687 -42.0799346420476
    vertex 525.3591115084624 541.9804100269545 -41.71816320970139
  endloop
endfacet
facet normal 0.9914448613738477 7.982404821982256e-11 0.13052619221976985
  outer loop
    vertex 525.3591115084624 541.9804100269545 -41.71816320970139
    vertex 525.3080002481713 538.580409999019 -41.32993464205892
    vertex 525.3591115087377 538.580409999024 -41.71816320971268
  endloop
endfacet
facet normal 0.9914448613738477 7.982404821982256e-11 0.13052619221976985
  outer loop
    vertex 525.3080002481713 538.580409999019 -41.32993464205892
    vertex 525.3591115084624 541.9804100269545 -41.71816320970139
    vertex 525.3080002478962 541.9804100269494 -41.32993464204763
  endloop
endfacet
facet normal -0.7933533402914295 -6.618717824239854e-11 0.6087614290084676
  outer loop
    vertex 528.1070383538483 538.5804099992483 -42.079934642058724
    vertex 527.8686604196765 541.9804100271607 -42.39059481382742
    vertex 527.8686604199517 538.5804099992303 -42.39059481383856
  endloop
endfacet
facet normal -0.7933533402914295 -6.618717824239854e-11 0.6087614290084676
  outer loop
    vertex 527.8686604196765 541.9804100271607 -42.39059481382742
    vertex 528.1070383538483 538.5804099992483 -42.079934642058724
    vertex 528.1070383535732 541.9804100271788 -42.07993464204749
  endloop
endfacet
facet normal 0.9238795325112966 7.601903204416052e-11 -0.38268343236506647
  outer loop
    vertex 525.3591115084624 541.9804100269523 -40.94170607439383
    vertex 525.5089621424945 538.5804099990333 -40.57993464205891
    vertex 525.3591115087376 538.5804099990219 -40.94170607440512
  endloop
endfacet
facet normal 0.9238795325112966 7.601903204416052e-11 -0.38268343236506647
  outer loop
    vertex 525.5089621424945 538.5804099990333 -40.57993464205891
    vertex 525.3591115084624 541.9804100269523 -40.94170607439383
    vertex 525.5089621422194 541.9804100269638 -40.57993464204762
  endloop
endfacet
facet normal 0.7933533402910741 6.618717824237128e-11 -0.6087614290089306
  outer loop
    vertex 525.5089621422194 541.9804100269638 -40.57993464204762
    vertex 525.7473400763914 538.5804099990514 -40.2692744702791
    vertex 525.5089621424945 538.5804099990333 -40.57993464205891
  endloop
endfacet
facet normal 0.7933533402910741 6.618717824237128e-11 -0.6087614290089306
  outer loop
    vertex 525.7473400763914 538.5804099990514 -40.2692744702791
    vertex 525.5089621422194 541.9804100269638 -40.57993464204762
    vertex 525.7473400761163 541.9804100269818 -40.2692744702678
  endloop
endfacet
facet normal -0.8137471542235415 3.136750472428772e-05 -0.581219036172395
  outer loop
    vertex 500.8868165305228 538.5804100001945 -33.829934634884886
    vertex 503.8110025162118 541.9804100285334 -37.923815300644875
    vertex 503.81103086802636 538.5804100002306 -37.924038487975785
  endloop
endfacet
facet normal -0.8137471542235415 3.136750472428772e-05 -0.581219036172395
  outer loop
    vertex 503.8110025162118 541.9804100285334 -37.923815300644875
    vertex 500.8868165305228 538.5804100001945 -33.829934634884886
    vertex 500.88678817870846 541.9804100284974 -33.829711447554295
  endloop
endfacet
facet normal 0.6087614290088968 5.184477762288655e-11 -0.7933533402911
  outer loop
    vertex 526.0580002481712 538.5804099990755 -40.03089653638218
    vertex 525.7473400761163 541.9804100269818 -40.2692744702678
    vertex 526.0580002478961 541.980410027006 -40.03089653637093
  endloop
endfacet
facet normal 0.6087614290088968 5.184477762288655e-11 -0.7933533402911
  outer loop
    vertex 525.7473400761163 541.9804100269818 -40.2692744702678
    vertex 526.0580002481712 538.5804099990755 -40.03089653638218
    vertex 525.7473400763914 538.5804099990514 -40.2692744702791
  endloop
endfacet
facet normal -0.92387953251159 -7.601903204418196e-11 0.3826834323643576
  outer loop
    vertex 528.2568889876051 538.580409999259 -41.71816320971249
    vertex 528.1070383535732 541.9804100271788 -42.07993464204749
    vertex 528.1070383538483 538.5804099992483 -42.079934642058724
  endloop
endfacet
facet normal -0.92387953251159 -7.601903204418196e-11 0.3826834323643576
  outer loop
    vertex 528.1070383535732 541.9804100271788 -42.07993464204749
    vertex 528.2568889876051 538.580409999259 -41.71816320971249
    vertex 528.2568889873298 541.9804100271894 -41.71816320970128
  endloop
endfacet
facet normal 0.9914448613738643 8.067031443951983e-11 -0.13052619221964165
  outer loop
    vertex 525.3080002478962 541.9804100269494 -41.32993464204763
    vertex 525.3591115087376 538.5804099990219 -40.94170607440512
    vertex 525.3080002481713 538.580409999019 -41.32993464205892
  endloop
endfacet
facet normal 0.9914448613738643 8.067031443951983e-11 -0.13052619221964165
  outer loop
    vertex 525.3591115087376 538.5804099990219 -40.94170607440512
    vertex 525.3080002478962 541.9804100269494 -41.32993464204763
    vertex 525.3591115084624 541.9804100269523 -40.94170607439383
  endloop
endfacet
facet normal 0.38268343236513247 2.7979270596949415e-11 0.9238795325112692
  outer loop
    vertex 526.0580002478965 541.9804100270139 -42.628972747724205
    vertex 526.419771680518 538.5804099991141 -42.77882338149241
    vertex 526.4197716802429 541.9804100270445 -42.7788233814812
  endloop
endfacet
facet normal 0.38268343236513247 2.7979270596949415e-11 0.9238795325112692
  outer loop
    vertex 526.419771680518 538.5804099991141 -42.77882338149241
    vertex 526.0580002478965 541.9804100270139 -42.628972747724205
    vertex 526.0580002481717 538.5804099990836 -42.6289727477355
  endloop
endfacet
facet normal -0.9914448613738018 -8.067031443951632e-11 0.13052619222011708
  outer loop
    vertex 528.3080002481714 538.5804099992619 -41.32993464205876
    vertex 528.2568889873298 541.9804100271894 -41.71816320970128
    vertex 528.2568889876051 538.580409999259 -41.71816320971249
  endloop
endfacet
facet normal -0.9914448613738018 -8.067031443951632e-11 0.13052619222011708
  outer loop
    vertex 528.2568889873298 541.9804100271894 -41.71816320970128
    vertex 528.3080002481714 538.5804099992619 -41.32993464205876
    vertex 528.3080002478962 541.9804100271923 -41.329934642047526
  endloop
endfacet
facet normal -0.38268343236513247 -3.396924108591246e-11 0.9238795325112692
  outer loop
    vertex 527.1962288155504 541.9804100271073 -42.77882338148127
    vertex 527.5580002481718 538.5804099992048 -42.62897274773541
    vertex 527.5580002478966 541.9804100271351 -42.62897274772427
  endloop
endfacet
facet normal -0.38268343236513247 -3.396924108591246e-11 0.9238795325112692
  outer loop
    vertex 527.5580002481718 538.5804099992048 -42.62897274773541
    vertex 527.1962288155504 541.9804100271073 -42.77882338148127
    vertex 527.1962288158255 538.5804099991769 -42.77882338149241
  endloop
endfacet
facet normal -0.1305261922200679 -1.3778756905767072e-11 0.9914448613738083
  outer loop
    vertex 526.8080002478966 541.9804100270753 -42.82993464204767
    vertex 527.1962288158255 538.5804099991769 -42.77882338149241
    vertex 527.1962288155504 541.9804100271073 -42.77882338148127
  endloop
endfacet
facet normal -0.1305261922200679 -1.3778756905767072e-11 0.9914448613738083
  outer loop
    vertex 527.1962288158255 538.5804099991769 -42.77882338149241
    vertex 526.8080002478966 541.9804100270753 -42.82993464204767
    vertex 526.8080002481718 538.5804099991449 -42.8299346420588
  endloop
endfacet
facet normal -9.59089789757758e-12 1.0 5.952202232898699e-11
  outer loop
    vertex 552.7291556124671 541.9804100291445 -33.829711460757885
    vertex 503.8110025162118 541.9804100285334 -37.923815300644875
    vertex 500.88678817870846 541.9804100284974 -33.829711447554295
  endloop
endfacet
facet normal -9.59089789757758e-12 1.0 5.952202232898699e-11
  outer loop
    vertex 503.8110025162118 541.9804100285334 -37.923815300644875
    vertex 552.7291556124671 541.9804100291445 -33.829711460757885
    vertex 507.52987591435686 541.9804100285808 -41.58615664826386
  endloop
endfacet
facet normal -9.59089789757758e-12 1.0 5.952202232898699e-11
  outer loop
    vertex 507.52987591435686 541.9804100285808 -41.58615664826386
    vertex 552.7291556124671 541.9804100291445 -33.829711460757885
    vertex 526.4197716802429 541.9804100270347 -39.88104590261398
  endloop
endfacet
facet normal -9.59089789757758e-12 1.0 5.952202232898699e-11
  outer loop
    vertex 507.52987591435686 541.9804100285808 -41.58615664826386
    vertex 526.4197716802429 541.9804100270347 -39.88104590261398
    vertex 511.82316460880213 541.9804100286334 -44.554394456132265
  endloop
endfacet
facet normal -9.59089789757758e-12 1.0 5.952202232898699e-11
  outer loop
    vertex 511.82316460880213 541.9804100286334 -44.554394456132265
    vertex 526.4197716802429 541.9804100270347 -39.88104590261398
    vertex 526.0580002478961 541.980410027006 -40.03089653637093
  endloop
endfacet
facet normal -9.59089789757758e-12 1.0 5.952202232898699e-11
  outer loop
    vertex 511.82316460880213 541.9804100286334 -44.554394456132265
    vertex 526.0580002478961 541.980410027006 -40.03089653637093
    vertex 516.5629446230623 541.9804100286933 -46.74008631783963
  endloop
endfacet
facet normal -9.59089789757758e-12 1.0 5.952202232898699e-11
  outer loop
    vertex 516.5629446230623 541.9804100286933 -46.74008631783963
    vertex 526.0580002478961 541.980410027006 -40.03089653637093
    vertex 525.7473400761163 541.9804100269818 -40.2692744702678
  endloop
endfacet
facet normal -9.59089789757758e-12 1.0 5.952202232898699e-11
  outer loop
    vertex 516.5629446230623 541.9804100286933 -46.74008631783963
    vertex 525.7473400761163 541.9804100269818 -40.2692744702678
    vertex 525.5089621422194 541.9804100269638 -40.57993464204762
  endloop
endfacet
facet normal -9.59089789757758e-12 1.0 5.952202232898699e-11
  outer loop
    vertex 516.5629446230623 541.9804100286933 -46.74008631783963
    vertex 525.5089621422194 541.9804100269638 -40.57993464204762
    vertex 521.6079882060445 541.9804100287558 -48.07810677497394
  endloop
endfacet
facet normal -9.59089789757758e-12 1.0 5.952202232898699e-11
  outer loop
    vertex 521.6079882060445 541.9804100287558 -48.07810677497394
    vertex 525.5089621422194 541.9804100269638 -40.57993464204762
    vertex 525.3591115084624 541.9804100269523 -40.94170607439383
  endloop
endfacet
facet normal -9.59089789757758e-12 1.0 5.952202232898699e-11
  outer loop
    vertex 521.6079882060445 541.9804100287558 -48.07810677497394
    vertex 525.3591115084624 541.9804100269523 -40.94170607439383
    vertex 525.3080002478962 541.9804100269494 -41.32993464204763
  endloop
endfacet
facet normal -9.59089789757758e-12 1.0 5.952202232898699e-11
  outer loop
    vertex 526.4197716802429 541.9804100270347 -39.88104590261398
    vertex 552.7291556124671 541.9804100291445 -33.829711460757885
    vertex 526.8080002478966 541.9804100270658 -39.829934642047675
  endloop
endfacet
facet normal -9.59089789757758e-12 1.0 5.952202232898699e-11
  outer loop
    vertex 526.8080002478966 541.9804100270658 -39.829934642047675
    vertex 552.7291556124671 541.9804100291445 -33.829711460757885
    vertex 527.1962288155504 541.9804100270975 -39.88104590261404
  endloop
endfacet
facet normal -9.59089789757758e-12 1.0 5.952202232898699e-11
  outer loop
    vertex 527.1962288155504 541.9804100270975 -39.88104590261404
    vertex 552.7291556124671 541.9804100291445 -33.829711460757885
    vertex 527.5580002478961 541.980410027127 -40.03089653637099
  endloop
endfacet
facet normal -9.59089789757758e-12 1.0 5.952202232898699e-11
  outer loop
    vertex 527.5580002478961 541.980410027127 -40.03089653637099
    vertex 552.7291556124671 541.9804100291445 -33.829711460757885
    vertex 527.868660419676 541.9804100271533 -40.269274470267774
  endloop
endfacet
facet normal -9.59089789757758e-12 1.0 5.952202232898699e-11
  outer loop
    vertex 527.868660419676 541.9804100271533 -40.269274470267774
    vertex 552.7291556124671 541.9804100291445 -33.829711460757885
    vertex 528.1070383535726 541.9804100271733 -40.57993464204752
  endloop
endfacet
facet normal -9.59089789757758e-12 1.0 5.952202232898699e-11
  outer loop
    vertex 528.1070383535726 541.9804100271733 -40.57993464204752
    vertex 552.7291556124671 541.9804100291445 -33.829711460757885
    vertex 528.2568889873298 541.9804100271872 -40.94170607439373
  endloop
endfacet
facet normal -9.59089789757758e-12 1.0 5.952202232898699e-11
  outer loop
    vertex 528.2568889873298 541.9804100271872 -40.94170607439373
    vertex 552.7291556124671 541.9804100291445 -33.829711460757885
    vertex 528.3080002478962 541.9804100271923 -41.329934642047526
  endloop
endfacet
facet normal -9.59089789757758e-12 1.0 5.952202232898699e-11
  outer loop
    vertex 528.3080002478962 541.9804100271923 -41.329934642047526
    vertex 552.7291556124671 541.9804100291445 -33.829711460757885
    vertex 532.0079555778742 541.9804100288862 -48.07810677762249
  endloop
endfacet
facet normal -9.59089789757758e-12 1.0 5.952202232898699e-11
  outer loop
    vertex 532.0079555778742 541.9804100288862 -48.07810677762249
    vertex 552.7291556124671 541.9804100291445 -33.829711460757885
    vertex 537.0529991615391 541.9804100289487 -46.740086323057184
  endloop
endfacet
facet normal -9.59089789757758e-12 1.0 5.952202232898699e-11
  outer loop
    vertex 537.0529991615391 541.9804100289487 -46.740086323057184
    vertex 552.7291556124671 541.9804100291445 -33.829711460757885
    vertex 541.7927791769122 541.9804100290079 -44.55439446376367
  endloop
endfacet
facet normal -9.59089789757758e-12 1.0 5.952202232898699e-11
  outer loop
    vertex 541.7927791769122 541.9804100290079 -44.55439446376367
    vertex 552.7291556124671 541.9804100291445 -33.829711460757885
    vertex 546.0860678728686 541.9804100290623 -41.586156658083134
  endloop
endfacet
facet normal -9.59089789757758e-12 1.0 5.952202232898699e-11
  outer loop
    vertex 546.0860678728686 541.9804100290623 -41.586156658083134
    vertex 552.7291556124671 541.9804100291445 -33.829711460757885
    vertex 549.8049412728797 541.980410029108 -37.923815312358165
  endloop
endfacet
facet normal -9.59089789757758e-12 1.0 5.952202232898699e-11
  outer loop
    vertex 521.6079882060445 541.9804100287558 -48.07810677497394
    vertex 525.3591115084624 541.9804100269545 -41.71816320970139
    vertex 526.8079718918447 541.9804100288206 -48.52858781267027
  endloop
endfacet
facet normal -9.59089789757758e-12 1.0 5.952202232898699e-11
  outer loop
    vertex 525.3591115084624 541.9804100269545 -41.71816320970139
    vertex 521.6079882060445 541.9804100287558 -48.07810677497394
    vertex 525.3080002478962 541.9804100269494 -41.32993464204763
  endloop
endfacet
facet normal -9.59089789757758e-12 1.0 5.952202232898699e-11
  outer loop
    vertex 526.8079718918447 541.9804100288206 -48.52858781267027
    vertex 525.3591115084624 541.9804100269545 -41.71816320970139
    vertex 525.5089621422198 541.9804100269687 -42.0799346420476
  endloop
endfacet
facet normal -9.59089789757758e-12 1.0 5.952202232898699e-11
  outer loop
    vertex 526.8079718918447 541.9804100288206 -48.52858781267027
    vertex 525.5089621422198 541.9804100269687 -42.0799346420476
    vertex 525.7473400761169 541.9804100269884 -42.390594813827406
  endloop
endfacet
facet normal -9.59089789757758e-12 1.0 5.952202232898699e-11
  outer loop
    vertex 526.8079718918447 541.9804100288206 -48.52858781267027
    vertex 525.7473400761169 541.9804100269884 -42.390594813827406
    vertex 526.0580002478965 541.9804100270139 -42.628972747724205
  endloop
endfacet
facet normal -9.59089789757758e-12 1.0 5.952202232898699e-11
  outer loop
    vertex 526.8079718918447 541.9804100288206 -48.52858781267027
    vertex 526.0580002478965 541.9804100270139 -42.628972747724205
    vertex 526.4197716802429 541.9804100270445 -42.7788233814812
  endloop
endfacet
facet normal -9.59089789757758e-12 1.0 5.952202232898699e-11
  outer loop
    vertex 526.8079718918447 541.9804100288206 -48.52858781267027
    vertex 526.4197716802429 541.9804100270445 -42.7788233814812
    vertex 526.8080002478966 541.9804100270753 -42.82993464204767
  endloop
endfacet
facet normal -9.59089789757758e-12 1.0 5.952202232898699e-11
  outer loop
    vertex 526.8079718918447 541.9804100288206 -48.52858781267027
    vertex 526.8080002478966 541.9804100270753 -42.82993464204767
    vertex 532.0079555778742 541.9804100288862 -48.07810677762249
  endloop
endfacet
facet normal -9.59089789757758e-12 1.0 5.952202232898699e-11
  outer loop
    vertex 532.0079555778742 541.9804100288862 -48.07810677762249
    vertex 526.8080002478966 541.9804100270753 -42.82993464204767
    vertex 527.1962288155504 541.9804100271073 -42.77882338148127
  endloop
endfacet
facet normal -9.59089789757758e-12 1.0 5.952202232898699e-11
  outer loop
    vertex 532.0079555778742 541.9804100288862 -48.07810677762249
    vertex 527.1962288155504 541.9804100271073 -42.77882338148127
    vertex 527.5580002478966 541.9804100271351 -42.62897274772427
  endloop
endfacet
facet normal -9.59089789757758e-12 1.0 5.952202232898699e-11
  outer loop
    vertex 532.0079555778742 541.9804100288862 -48.07810677762249
    vertex 527.5580002478966 541.9804100271351 -42.62897274772427
    vertex 527.8686604196765 541.9804100271607 -42.39059481382742
  endloop
endfacet
facet normal -9.59089789757758e-12 1.0 5.952202232898699e-11
  outer loop
    vertex 532.0079555778742 541.9804100288862 -48.07810677762249
    vertex 527.8686604196765 541.9804100271607 -42.39059481382742
    vertex 528.1070383535732 541.9804100271788 -42.07993464204749
  endloop
endfacet
facet normal -9.59089789757758e-12 1.0 5.952202232898699e-11
  outer loop
    vertex 532.0079555778742 541.9804100288862 -48.07810677762249
    vertex 528.1070383535732 541.9804100271788 -42.07993464204749
    vertex 528.2568889873298 541.9804100271894 -41.71816320970128
  endloop
endfacet
facet normal -9.59089789757758e-12 1.0 5.952202232898699e-11
  outer loop
    vertex 532.0079555778742 541.9804100288862 -48.07810677762249
    vertex 528.2568889873298 541.9804100271894 -41.71816320970128
    vertex 528.3080002478962 541.9804100271923 -41.329934642047526
  endloop
endfacet
facet normal 0.13052619222003808 7.350726787031931e-12 0.9914448613738123
  outer loop
    vertex 526.4197716802429 541.9804100270445 -42.7788233814812
    vertex 526.8080002481718 538.5804099991449 -42.8299346420588
    vertex 526.8080002478966 541.9804100270753 -42.82993464204767
  endloop
endfacet
facet normal 0.13052619222003808 7.350726787031931e-12 0.9914448613738123
  outer loop
    vertex 526.8080002481718 538.5804099991449 -42.8299346420588
    vertex 526.4197716802429 541.9804100270445 -42.7788233814812
    vertex 526.419771680518 538.5804099991141 -42.77882338149241
  endloop
endfacet
facet normal 0.6087614290088159 4.670107335361571e-11 0.7933533402911621
  outer loop
    vertex 525.7473400761169 541.9804100269884 -42.390594813827406
    vertex 526.0580002481717 538.5804099990836 -42.6289727477355
    vertex 526.0580002478965 541.9804100270139 -42.628972747724205
  endloop
endfacet
facet normal 0.6087614290088159 4.670107335361571e-11 0.7933533402911621
  outer loop
    vertex 526.0580002481717 538.5804099990836 -42.6289727477355
    vertex 525.7473400761169 541.9804100269884 -42.390594813827406
    vertex 525.747340076392 538.580409999058 -42.390594813838696
  endloop
endfacet
facet normal -0.6087614290086658 -5.184477762286843e-11 0.7933533402912774
  outer loop
    vertex 527.5580002478966 541.9804100271351 -42.62897274772427
    vertex 527.8686604199517 538.5804099992303 -42.39059481383856
    vertex 527.8686604196765 541.9804100271607 -42.39059481382742
  endloop
endfacet
facet normal -0.6087614290086658 -5.184477762286843e-11 0.7933533402912774
  outer loop
    vertex 527.8686604199517 538.5804099992303 -42.39059481383856
    vertex 527.5580002478966 541.9804100271351 -42.62897274772427
    vertex 527.5580002481718 538.5804099992048 -42.62897274773541
  endloop
endfacet
facet normal 0.7933533402910741 6.22402751383804e-11 0.6087614290089306
  outer loop
    vertex 525.7473400761169 541.9804100269884 -42.390594813827406
    vertex 525.5089621424951 538.5804099990382 -42.07993464205889
    vertex 525.747340076392 538.580409999058 -42.390594813838696
  endloop
endfacet
facet normal 0.7933533402910741 6.22402751383804e-11 0.6087614290089306
  outer loop
    vertex 525.5089621424951 538.5804099990382 -42.07993464205889
    vertex 525.7473400761169 541.9804100269884 -42.390594813827406
    vertex 525.5089621422198 541.9804100269687 -42.0799346420476
  endloop
endfacet
facet normal 0.8137471535061557 4.49388036526116e-05 -0.5812190362859196
  outer loop
    vertex 549.8049412728797 541.980410029108 -37.923815312358165
    vertex 552.7291839642816 538.5804100008418 -33.82993464808947
    vertex 549.8049696246941 538.5804100008052 -37.92403849968876
  endloop
endfacet
facet normal 0.8137471535061557 4.49388036526116e-05 -0.5812190362859196
  outer loop
    vertex 552.7291839642816 538.5804100008418 -33.82993464808947
    vertex 549.8049412728797 541.980410029108 -37.923815312358165
    vertex 552.7291556124671 541.9804100291445 -33.829711460757885
  endloop
endfacet
facet normal 0.4187582283601461 6.310249084845163e-05 -0.9080977602652411
  outer loop
    vertex 541.7928075287268 538.580410000705 -44.554617651094176
    vertex 537.0529991615391 541.9804100289487 -46.740086323057184
    vertex 541.7927791769122 541.9804100290079 -44.55439446376367
  endloop
endfacet
facet normal 0.4187582283601461 6.310249084845163e-05 -0.9080977602652411
  outer loop
    vertex 537.0529991615391 541.9804100289487 -46.740086323057184
    vertex 541.7928075287268 538.580410000705 -44.554617651094176
    vertex 537.0530275133535 538.5804100006458 -46.74030951038778
  endloop
endfacet
facet normal 0.5686867523910345 5.8737344361428774e-05 -0.8225541770636526
  outer loop
    vertex 546.086096224683 538.5804100007595 -41.586379845414044
    vertex 541.7927791769122 541.9804100290079 -44.55439446376367
    vertex 546.0860678728686 541.9804100290623 -41.586156658083134
  endloop
endfacet
facet normal 0.5686867523910345 5.8737344361428774e-05 -0.8225541770636526
  outer loop
    vertex 541.7927791769122 541.9804100290079 -44.55439446376367
    vertex 546.086096224683 538.5804100007595 -41.586379845414044
    vertex 541.7928075287268 538.580410000705 -44.554617651094176
  endloop
endfacet
facet normal 0.7016705342040128 5.2622044214246954e-05 -0.7125015499357007
  outer loop
    vertex 549.8049696246941 538.5804100008052 -37.92403849968876
    vertex 546.0860678728686 541.9804100290623 -41.586156658083134
    vertex 549.8049412728797 541.980410029108 -37.923815312358165
  endloop
endfacet
facet normal 0.7016705342040128 5.2622044214246954e-05 -0.7125015499357007
  outer loop
    vertex 546.0860678728686 541.9804100290623 -41.586156658083134
    vertex 549.8049696246941 538.5804100008052 -37.92403849968876
    vertex 546.086096224683 538.5804100007595 -41.586379845414044
  endloop
endfacet
facet normal -0.5686867531012866 4.9253049405366765e-05 -0.8225541771951886
  outer loop
    vertex 511.82319296061655 538.5804100003305 -44.55461764346198
    vertex 507.52987591435686 541.9804100285808 -41.58615664826386
    vertex 511.82316460880213 541.9804100286334 -44.554394456132265
  endloop
endfacet
facet normal -0.5686867531012866 4.9253049405366765e-05 -0.8225541771951886
  outer loop
    vertex 507.52987591435686 541.9804100285808 -41.58615664826386
    vertex 511.82319296061655 538.5804100003305 -44.55461764346198
    vertex 507.52990426617157 538.5804100002778 -41.58637983559446
  endloop
endfacet
facet normal 2.546975005202711e-10 -6.564333197178243e-05 0.9999999978454766
  outer loop
    vertex 498.1867406540779 544.6803589422523 -33.07933728161361
    vertex 555.4291814691906 535.8803589262984 -33.079914957516756
    vertex 555.4291080880245 544.6803589429668 -33.07933729619223
  endloop
endfacet
facet normal 2.546975005202711e-10 -6.564333197178243e-05 0.9999999978454766
  outer loop
    vertex 555.4291814691906 535.8803589262984 -33.079914957516756
    vertex 498.1867406540779 544.6803589422523 -33.07933728161361
    vertex 498.1868140352439 535.8803589255838 -33.079914942936455
  endloop
endfacet
facet normal 1.2466229273831286e-11 -0.9999999976812922 -6.809857426914046e-05
  outer loop
    vertex 555.4291814627461 535.8804100002291 -33.82991495577773
    vertex 498.1868140352439 535.8803589255838 -33.079914942936455
    vertex 498.1868140287996 535.8804099995144 -33.82991494119742
  endloop
endfacet
facet normal 1.2466229273831286e-11 -0.9999999976812922 -6.809857426914046e-05
  outer loop
    vertex 498.1868140352439 535.8803589255838 -33.079914942936455
    vertex 555.4291814627461 535.8804100002291 -33.82991495577773
    vertex 555.4291814691906 535.8803589262984 -33.079914957516756
  endloop
endfacet
facet normal -0.9999999999652326 -8.338769372212405e-06 8.024583808676918e-09
  outer loop
    vertex 498.1868140352439 535.8803589255838 -33.079914942936455
    vertex 498.18674064763354 544.6804100161829 -33.82933727987458
    vertex 498.1868140287996 535.8804099995144 -33.82991494119742
  endloop
endfacet
facet normal -0.9999999999652326 -8.338769372212405e-06 8.024583808676918e-09
  outer loop
    vertex 498.18674064763354 544.6804100161829 -33.82933727987458
    vertex 498.1868140352439 535.8803589255838 -33.079914942936455
    vertex 498.1867406540779 544.6803589422523 -33.07933728161361
  endloop
endfacet
facet normal -1.2466446868733126e-11 0.9999999976812921 6.809857426914044e-05
  outer loop
    vertex 498.1867406540779 544.6803589422523 -33.07933728161361
    vertex 555.4291080815801 544.6804100168976 -33.8293372944532
    vertex 498.18674064763354 544.6804100161829 -33.82933727987458
  endloop
endfacet
facet normal -1.2466446868733126e-11 0.9999999976812921 6.809857426914044e-05
  outer loop
    vertex 555.4291080815801 544.6804100168976 -33.8293372944532
    vertex 498.1867406540779 544.6803589422523 -33.07933728161361
    vertex 555.4291080880245 544.6803589429668 -33.07933729619223
  endloop
endfacet
facet normal 0.9999999999652326 8.33876938246682e-06 -8.024583807978606e-09
  outer loop
    vertex 555.4291080815801 544.6804100168976 -33.8293372944532
    vertex 555.4291814691906 535.8803589262984 -33.079914957516756
    vertex 555.4291814627461 535.8804100002291 -33.82991495577773
  endloop
endfacet
facet normal 0.9999999999652326 8.33876938246682e-06 -8.024583807978606e-09
  outer loop
    vertex 555.4291814691906 535.8803589262984 -33.079914957516756
    vertex 555.4291080815801 544.6804100168976 -33.8293372944532
    vertex 555.4291080880245 544.6803589429668 -33.07933729619223
  endloop
endfacet
facet normal -1.0593241764672888e-08 6.812888519677148e-05 -0.9999999976792275
  outer loop
    vertex 555.4291080815801 544.6804100168976 -33.8293372944532
    vertex 552.7291556124671 541.9804100291445 -33.829711460757885
    vertex 498.18674064763354 544.6804100161829 -33.82933727987458
  endloop
endfacet
facet normal -1.0593241764672888e-08 6.812888519677148e-05 -0.9999999976792275
  outer loop
    vertex 552.7291556124671 541.9804100291445 -33.829711460757885
    vertex 555.4291080815801 544.6804100168976 -33.8293372944532
    vertex 555.4291814627461 535.8804100002291 -33.82991495577773
  endloop
endfacet
facet normal -1.0593241764672888e-08 6.812888519677148e-05 -0.9999999976792275
  outer loop
    vertex 552.7291556124671 541.9804100291445 -33.829711460757885
    vertex 555.4291814627461 535.8804100002291 -33.82991495577773
    vertex 552.7291839642816 538.5804100008418 -33.82993464808947
  endloop
endfacet
facet normal -1.0593241764672888e-08 6.812888519677148e-05 -0.9999999976792275
  outer loop
    vertex 552.7291839642816 538.5804100008418 -33.82993464808947
    vertex 555.4291814627461 535.8804100002291 -33.82991495577773
    vertex 500.8868165305228 538.5804100001945 -33.829934634884886
  endloop
endfacet
facet normal -1.0593241764672888e-08 6.812888519677148e-05 -0.9999999976792275
  outer loop
    vertex 498.18674064763354 544.6804100161829 -33.82933727987458
    vertex 500.88678817870846 541.9804100284974 -33.829711447554295
    vertex 498.1868140287996 535.8804099995144 -33.82991494119742
  endloop
endfacet
facet normal -1.0593241764672888e-08 6.812888519677148e-05 -0.9999999976792275
  outer loop
    vertex 500.88678817870846 541.9804100284974 -33.829711447554295
    vertex 498.18674064763354 544.6804100161829 -33.82933727987458
    vertex 552.7291556124671 541.9804100291445 -33.829711460757885
  endloop
endfacet
facet normal -1.0593241764672888e-08 6.812888519677148e-05 -0.9999999976792275
  outer loop
    vertex 498.1868140287996 535.8804099995144 -33.82991494119742
    vertex 500.88678817870846 541.9804100284974 -33.829711447554295
    vertex 500.8868165305228 538.5804100001945 -33.829934634884886
  endloop
endfacet
facet normal -1.0593241764672888e-08 6.812888519677148e-05 -0.9999999976792275
  outer loop
    vertex 498.1868140287996 535.8804099995144 -33.82991494119742
    vertex 500.8868165305228 538.5804100001945 -33.829934634884886
    vertex 555.4291814627461 535.8804100002291 -33.82991495577773
  endloop
endfacet
endsolid Design - Rolled
