solid Design - Rolled
facet normal 1.070340087388277e-28 -1.0 -2.222239831402036e-14
  outer loop
    vertex 552.1887571174974 699.889761082236 16.699146568388354
    vertex 501.3387571174955 699.8897610822361 14.699146568388173
    vertex 552.1887571174974 699.8897610822361 14.69914656838836
  endloop
endfacet
facet normal 1.070340087388277e-28 -1.0 -2.222239831402036e-14
  outer loop
    vertex 501.3387571174955 699.8897610822361 14.699146568388173
    vertex 552.1887571174974 699.889761082236 16.699146568388354
    vertex 501.3387571174955 699.889761082236 16.69914656838817
  endloop
endfacet
facet normal 1.070340087388277e-28 -1.0 -2.222239831402036e-14
  outer loop
    vertex 501.3387571174955 699.889761082236 16.69914656838817
    vertex 552.1887571174974 699.889761082236 16.699146568388354
    vertex 556.1887571174974 699.889761082236 16.699146568388393
  endloop
endfacet
facet normal 1.070340087388277e-28 -1.0 -2.222239831402036e-14
  outer loop
    vertex 501.3387571174955 699.889761082236 16.69914656838817
    vertex 556.1887571174974 699.889761082236 16.699146568388393
    vertex 556.1887571174973 699.8897610822348 69.39914656838864
  endloop
endfacet
facet normal 1.070340087388277e-28 -1.0 -2.222239831402036e-14
  outer loop
    vertex 501.3387571174955 699.889761082236 16.69914656838817
    vertex 556.1887571174973 699.8897610822348 69.39914656838864
    vertex 526.7637571174963 699.8897610822348 65.69914656838849
  endloop
endfacet
facet normal 1.070340087388277e-28 -1.0 -2.222239831402036e-14
  outer loop
    vertex 526.7637571174963 699.8897610822348 65.69914656838849
    vertex 556.1887571174973 699.8897610822348 69.39914656838864
    vertex 527.2813952077013 699.8897610822348 65.76729491581038
  endloop
endfacet
facet normal 1.070340087388277e-28 -1.0 -2.222239831402036e-14
  outer loop
    vertex 527.2813952077013 699.8897610822348 65.76729491581038
    vertex 556.1887571174973 699.8897610822348 69.39914656838864
    vertex 527.7637571174962 699.8897610822348 65.96709576081955
  endloop
endfacet
facet normal 1.070340087388277e-28 -1.0 -2.222239831402036e-14
  outer loop
    vertex 527.7637571174962 699.8897610822348 65.96709576081955
    vertex 556.1887571174973 699.8897610822348 69.39914656838864
    vertex 528.1779706798694 699.8897610822348 66.28493300601532
  endloop
endfacet
facet normal 1.070340087388277e-28 -1.0 -2.222239831402036e-14
  outer loop
    vertex 528.1779706798694 699.8897610822348 66.28493300601532
    vertex 556.1887571174973 699.8897610822348 69.39914656838864
    vertex 528.4958079250652 699.8897610822348 66.69914656838846
  endloop
endfacet
facet normal 1.070340087388277e-28 -1.0 -2.222239831402036e-14
  outer loop
    vertex 528.4958079250652 699.8897610822348 66.69914656838846
    vertex 556.1887571174973 699.8897610822348 69.39914656838864
    vertex 528.6956087700744 699.8897610822348 67.18150847818345
  endloop
endfacet
facet normal 1.070340087388277e-28 -1.0 -2.222239831402036e-14
  outer loop
    vertex 528.6956087700744 699.8897610822348 67.18150847818345
    vertex 556.1887571174973 699.8897610822348 69.39914656838864
    vertex 528.7637571174963 699.8897610822348 67.69914656838847
  endloop
endfacet
facet normal 1.070340087388277e-28 -1.0 -2.222239831402036e-14
  outer loop
    vertex 528.7637571174963 699.8897610822348 67.69914656838847
    vertex 556.1887571174973 699.8897610822348 69.39914656838864
    vertex 528.6956087700744 699.8897610822348 68.21678465859348
  endloop
endfacet
facet normal 1.070340087388277e-28 -1.0 -2.222239831402036e-14
  outer loop
    vertex 528.6956087700744 699.8897610822348 68.21678465859348
    vertex 556.1887571174973 699.8897610822348 69.39914656838864
    vertex 528.4958079250652 699.8897610822348 68.69914656838846
  endloop
endfacet
facet normal 1.070340087388277e-28 -1.0 -2.222239831402036e-14
  outer loop
    vertex 528.4958079250652 699.8897610822348 68.69914656838846
    vertex 556.1887571174973 699.8897610822348 69.39914656838864
    vertex 528.1779706798694 699.8897610822348 69.11336013076152
  endloop
endfacet
facet normal 1.070340087388277e-28 -1.0 -2.222239831402036e-14
  outer loop
    vertex 528.1779706798694 699.8897610822348 69.11336013076152
    vertex 556.1887571174973 699.8897610822348 69.39914656838864
    vertex 530.7637571174963 699.8897610822348 69.39914656838849
  endloop
endfacet
facet normal 1.070340087388277e-28 -1.0 -2.222239831402036e-14
  outer loop
    vertex 528.1779706798694 699.8897610822348 69.11336013076152
    vertex 530.7637571174963 699.8897610822348 69.39914656838849
    vertex 527.7637571174962 699.8897610822347 69.43119737595728
  endloop
endfacet
facet normal 1.070340087388277e-28 -1.0 -2.222239831402036e-14
  outer loop
    vertex 527.7637571174962 699.8897610822347 69.43119737595728
    vertex 530.7637571174963 699.8897610822348 69.39914656838849
    vertex 530.7637571174963 699.8897610822348 71.69914656838851
  endloop
endfacet
facet normal 1.070340087388277e-28 -1.0 -2.222239831402036e-14
  outer loop
    vertex 527.7637571174962 699.8897610822347 69.43119737595728
    vertex 530.7637571174963 699.8897610822348 71.69914656838851
    vertex 527.2813952077013 699.8897610822347 69.63099822096663
  endloop
endfacet
facet normal 1.070340087388277e-28 -1.0 -2.222239831402036e-14
  outer loop
    vertex 527.2813952077013 699.8897610822347 69.63099822096663
    vertex 530.7637571174963 699.8897610822348 71.69914656838851
    vertex 526.7637571174962 699.8897610822347 69.69914656838854
  endloop
endfacet
facet normal 1.070340087388277e-28 -1.0 -2.222239831402036e-14
  outer loop
    vertex 501.3387571174955 699.889761082236 16.69914656838817
    vertex 497.33875711749533 699.8897610822348 69.39914656838826
    vertex 497.3387571174955 699.889761082236 16.699146568388073
  endloop
endfacet
facet normal 1.070340087388277e-28 -1.0 -2.222239831402036e-14
  outer loop
    vertex 497.33875711749533 699.8897610822348 69.39914656838826
    vertex 501.3387571174955 699.889761082236 16.69914656838817
    vertex 526.7637571174963 699.8897610822348 65.69914656838849
  endloop
endfacet
facet normal 1.070340087388277e-28 -1.0 -2.222239831402036e-14
  outer loop
    vertex 497.33875711749533 699.8897610822348 69.39914656838826
    vertex 526.7637571174963 699.8897610822348 65.69914656838849
    vertex 526.2461190272912 699.8897610822348 65.76729491581037
  endloop
endfacet
facet normal 1.070340087388277e-28 -1.0 -2.222239831402036e-14
  outer loop
    vertex 497.33875711749533 699.8897610822348 69.39914656838826
    vertex 526.2461190272912 699.8897610822348 65.76729491581037
    vertex 525.7637571174963 699.8897610822348 65.96709576081963
  endloop
endfacet
facet normal 1.070340087388277e-28 -1.0 -2.222239831402036e-14
  outer loop
    vertex 497.33875711749533 699.8897610822348 69.39914656838826
    vertex 525.7637571174963 699.8897610822348 65.96709576081963
    vertex 525.3495435551232 699.8897610822348 66.2849330060154
  endloop
endfacet
facet normal 1.070340087388277e-28 -1.0 -2.222239831402036e-14
  outer loop
    vertex 497.33875711749533 699.8897610822348 69.39914656838826
    vertex 525.3495435551232 699.8897610822348 66.2849330060154
    vertex 525.0317063099275 699.8897610822348 66.69914656838847
  endloop
endfacet
facet normal 1.070340087388277e-28 -1.0 -2.222239831402036e-14
  outer loop
    vertex 497.33875711749533 699.8897610822348 69.39914656838826
    vertex 525.0317063099275 699.8897610822348 66.69914656838847
    vertex 524.8319054649181 699.8897610822348 67.1815084781834
  endloop
endfacet
facet normal 1.070340087388277e-28 -1.0 -2.222239831402036e-14
  outer loop
    vertex 497.33875711749533 699.8897610822348 69.39914656838826
    vertex 524.8319054649181 699.8897610822348 67.1815084781834
    vertex 524.7637571174963 699.8897610822348 67.6991465683885
  endloop
endfacet
facet normal 1.070340087388277e-28 -1.0 -2.222239831402036e-14
  outer loop
    vertex 497.33875711749533 699.8897610822348 69.39914656838826
    vertex 524.7637571174963 699.8897610822348 67.6991465683885
    vertex 524.8319054649181 699.8897610822348 68.21678465859353
  endloop
endfacet
facet normal 1.070340087388277e-28 -1.0 -2.222239831402036e-14
  outer loop
    vertex 497.33875711749533 699.8897610822348 69.39914656838826
    vertex 524.8319054649181 699.8897610822348 68.21678465859353
    vertex 525.0317063099275 699.8897610822348 68.6991465683885
  endloop
endfacet
facet normal 1.070340087388277e-28 -1.0 -2.222239831402036e-14
  outer loop
    vertex 497.33875711749533 699.8897610822348 69.39914656838826
    vertex 525.0317063099275 699.8897610822348 68.6991465683885
    vertex 525.3495435551232 699.8897610822348 69.11336013076159
  endloop
endfacet
facet normal 1.070340087388277e-28 -1.0 -2.222239831402036e-14
  outer loop
    vertex 497.33875711749533 699.8897610822348 69.39914656838826
    vertex 525.3495435551232 699.8897610822348 69.11336013076159
    vertex 522.7637571174963 699.8897610822348 69.39914656838846
  endloop
endfacet
facet normal 1.070340087388277e-28 -1.0 -2.222239831402036e-14
  outer loop
    vertex 522.7637571174963 699.8897610822348 69.39914656838846
    vertex 525.3495435551232 699.8897610822348 69.11336013076159
    vertex 525.7637571174963 699.8897610822347 69.43119737595737
  endloop
endfacet
facet normal 1.070340087388277e-28 -1.0 -2.222239831402036e-14
  outer loop
    vertex 522.7637571174963 699.8897610822348 69.39914656838846
    vertex 525.7637571174963 699.8897610822347 69.43119737595737
    vertex 522.7637571174962 699.8897610822348 71.69914656838847
  endloop
endfacet
facet normal 1.070340087388277e-28 -1.0 -2.222239831402036e-14
  outer loop
    vertex 522.7637571174962 699.8897610822348 71.69914656838847
    vertex 525.7637571174963 699.8897610822347 69.43119737595737
    vertex 526.2461190272912 699.8897610822347 69.63099822096662
  endloop
endfacet
facet normal 1.070340087388277e-28 -1.0 -2.222239831402036e-14
  outer loop
    vertex 522.7637571174962 699.8897610822348 71.69914656838847
    vertex 526.2461190272912 699.8897610822347 69.63099822096662
    vertex 526.7637571174962 699.8897610822347 69.69914656838854
  endloop
endfacet
facet normal 1.070340087388277e-28 -1.0 -2.222239831402036e-14
  outer loop
    vertex 522.7637571174962 699.8897610822348 71.69914656838847
    vertex 526.7637571174962 699.8897610822347 69.69914656838854
    vertex 530.7637571174963 699.8897610822348 71.69914656838851
  endloop
endfacet
facet normal 4.166074391844096e-15 2.652578236353859e-14 -1.0
  outer loop
    vertex 497.3387571174955 699.889761082236 16.699146568388073
    vertex 501.3387571174955 702.3697610822358 16.69914656838823
    vertex 501.3387571174955 699.889761082236 16.69914656838817
  endloop
endfacet
facet normal 4.166074391844096e-15 2.652578236353859e-14 -1.0
  outer loop
    vertex 552.1887571174974 699.889761082236 16.699146568388354
    vertex 556.1887571174974 703.1197610822358 16.699146568388368
    vertex 556.1887571174974 699.889761082236 16.699146568388393
  endloop
endfacet
facet normal 4.166074391844096e-15 2.652578236353859e-14 -1.0
  outer loop
    vertex 556.1887571174974 703.1197610822358 16.699146568388368
    vertex 552.1887571174974 699.889761082236 16.699146568388354
    vertex 552.1887571174974 702.3697610822358 16.699146568388507
  endloop
endfacet
facet normal 4.166074391844096e-15 2.652578236353859e-14 -1.0
  outer loop
    vertex 556.1887571174974 703.1197610822358 16.699146568388368
    vertex 552.1887571174974 702.3697610822358 16.699146568388507
    vertex 497.3387571174955 703.1197610822358 16.69914656838823
  endloop
endfacet
facet normal 4.166074391844096e-15 2.652578236353859e-14 -1.0
  outer loop
    vertex 497.3387571174955 703.1197610822358 16.69914656838823
    vertex 552.1887571174974 702.3697610822358 16.699146568388507
    vertex 501.3387571174955 702.3697610822358 16.69914656838823
  endloop
endfacet
facet normal 4.166074391844096e-15 2.652578236353859e-14 -1.0
  outer loop
    vertex 497.3387571174955 703.1197610822358 16.69914656838823
    vertex 501.3387571174955 702.3697610822358 16.69914656838823
    vertex 497.3387571174955 699.889761082236 16.699146568388073
  endloop
endfacet
facet normal -1.0 1.9574069669999709e-28 -3.7947404306782955e-15
  outer loop
    vertex 497.3387571174955 699.889761082236 16.699146568388073
    vertex 497.33875711749533 703.1197610822346 69.39914656838837
    vertex 497.3387571174955 703.1197610822358 16.69914656838823
  endloop
endfacet
facet normal -1.0 1.9574069669999709e-28 -3.7947404306782955e-15
  outer loop
    vertex 497.33875711749533 703.1197610822346 69.39914656838837
    vertex 497.3387571174955 699.889761082236 16.699146568388073
    vertex 497.33875711749533 699.8897610822348 69.39914656838826
  endloop
endfacet
facet normal -5.686849413387472e-29 1.0 2.1748331984759847e-14
  outer loop
    vertex 497.33875711749533 703.1197610822346 69.39914656838837
    vertex 526.7637571174963 703.1197610822346 65.69914656838849
    vertex 497.3387571174955 703.1197610822358 16.69914656838823
  endloop
endfacet
facet normal -5.686849413387472e-29 1.0 2.1748331984759847e-14
  outer loop
    vertex 526.7637571174963 703.1197610822346 65.69914656838849
    vertex 497.33875711749533 703.1197610822346 69.39914656838837
    vertex 526.2461190272912 703.1197610822346 65.76729491581037
  endloop
endfacet
facet normal -5.686849413387472e-29 1.0 2.1748331984759847e-14
  outer loop
    vertex 526.2461190272912 703.1197610822346 65.76729491581037
    vertex 497.33875711749533 703.1197610822346 69.39914656838837
    vertex 525.7637571174963 703.1197610822346 65.96709576081963
  endloop
endfacet
facet normal -5.686849413387472e-29 1.0 2.1748331984759847e-14
  outer loop
    vertex 525.7637571174963 703.1197610822346 65.96709576081963
    vertex 497.33875711749533 703.1197610822346 69.39914656838837
    vertex 525.3495435551232 703.1197610822346 66.2849330060154
  endloop
endfacet
facet normal -5.686849413387472e-29 1.0 2.1748331984759847e-14
  outer loop
    vertex 525.3495435551232 703.1197610822346 66.2849330060154
    vertex 497.33875711749533 703.1197610822346 69.39914656838837
    vertex 525.0317063099275 703.1197610822346 66.6991465683885
  endloop
endfacet
facet normal -5.686849413387472e-29 1.0 2.1748331984759847e-14
  outer loop
    vertex 525.0317063099275 703.1197610822346 66.6991465683885
    vertex 497.33875711749533 703.1197610822346 69.39914656838837
    vertex 524.8319054649181 703.1197610822346 67.18150847818343
  endloop
endfacet
facet normal -5.686849413387472e-29 1.0 2.1748331984759847e-14
  outer loop
    vertex 524.8319054649181 703.1197610822346 67.18150847818343
    vertex 497.33875711749533 703.1197610822346 69.39914656838837
    vertex 524.7637571174963 703.1197610822346 67.6991465683885
  endloop
endfacet
facet normal -5.686849413387472e-29 1.0 2.1748331984759847e-14
  outer loop
    vertex 524.7637571174963 703.1197610822346 67.6991465683885
    vertex 497.33875711749533 703.1197610822346 69.39914656838837
    vertex 524.8319054649181 703.1197610822346 68.21678465859353
  endloop
endfacet
facet normal -5.686849413387472e-29 1.0 2.1748331984759847e-14
  outer loop
    vertex 524.8319054649181 703.1197610822346 68.21678465859353
    vertex 497.33875711749533 703.1197610822346 69.39914656838837
    vertex 525.0317063099275 703.1197610822346 68.6991465683885
  endloop
endfacet
facet normal -5.686849413387472e-29 1.0 2.1748331984759847e-14
  outer loop
    vertex 525.0317063099275 703.1197610822346 68.6991465683885
    vertex 497.33875711749533 703.1197610822346 69.39914656838837
    vertex 525.3495435551232 703.1197610822346 69.11336013076159
  endloop
endfacet
facet normal -5.686849413387472e-29 1.0 2.1748331984759847e-14
  outer loop
    vertex 525.3495435551232 703.1197610822346 69.11336013076159
    vertex 497.33875711749533 703.1197610822346 69.39914656838837
    vertex 522.7637571174963 703.1197610822346 69.39914656838846
  endloop
endfacet
facet normal -5.686849413387472e-29 1.0 2.1748331984759847e-14
  outer loop
    vertex 522.7637571174963 703.1197610822346 69.39914656838846
    vertex 525.7637571174963 703.1197610822345 69.43119737595737
    vertex 525.3495435551232 703.1197610822346 69.11336013076159
  endloop
endfacet
facet normal -5.686849413387472e-29 1.0 2.1748331984759847e-14
  outer loop
    vertex 525.7637571174963 703.1197610822345 69.43119737595737
    vertex 522.7637571174963 703.1197610822346 69.39914656838846
    vertex 522.7637571174962 703.1197610822346 71.69914656838847
  endloop
endfacet
facet normal -5.686849413387472e-29 1.0 2.1748331984759847e-14
  outer loop
    vertex 525.7637571174963 703.1197610822345 69.43119737595737
    vertex 522.7637571174962 703.1197610822346 71.69914656838847
    vertex 526.2461190272912 703.1197610822345 69.63099822096662
  endloop
endfacet
facet normal -5.686849413387472e-29 1.0 2.1748331984759847e-14
  outer loop
    vertex 526.2461190272912 703.1197610822345 69.63099822096662
    vertex 522.7637571174962 703.1197610822346 71.69914656838847
    vertex 526.7637571174962 703.1197610822345 69.69914656838854
  endloop
endfacet
facet normal -5.686849413387472e-29 1.0 2.1748331984759847e-14
  outer loop
    vertex 526.7637571174962 703.1197610822345 69.69914656838854
    vertex 522.7637571174962 703.1197610822346 71.69914656838847
    vertex 530.7637571174963 703.1197610822346 71.69914656838847
  endloop
endfacet
facet normal -5.686849413387472e-29 1.0 2.1748331984759847e-14
  outer loop
    vertex 497.3387571174955 703.1197610822358 16.69914656838823
    vertex 556.1887571174973 703.1197610822346 69.39914656838855
    vertex 556.1887571174974 703.1197610822358 16.699146568388368
  endloop
endfacet
facet normal -5.686849413387472e-29 1.0 2.1748331984759847e-14
  outer loop
    vertex 556.1887571174973 703.1197610822346 69.39914656838855
    vertex 497.3387571174955 703.1197610822358 16.69914656838823
    vertex 526.7637571174963 703.1197610822346 65.69914656838849
  endloop
endfacet
facet normal -5.686849413387472e-29 1.0 2.1748331984759847e-14
  outer loop
    vertex 556.1887571174973 703.1197610822346 69.39914656838855
    vertex 526.7637571174963 703.1197610822346 65.69914656838849
    vertex 527.2813952077013 703.1197610822346 65.76729491581038
  endloop
endfacet
facet normal -5.686849413387472e-29 1.0 2.1748331984759847e-14
  outer loop
    vertex 556.1887571174973 703.1197610822346 69.39914656838855
    vertex 527.2813952077013 703.1197610822346 65.76729491581038
    vertex 527.7637571174962 703.1197610822346 65.96709576081955
  endloop
endfacet
facet normal -5.686849413387472e-29 1.0 2.1748331984759847e-14
  outer loop
    vertex 556.1887571174973 703.1197610822346 69.39914656838855
    vertex 527.7637571174962 703.1197610822346 65.96709576081955
    vertex 528.1779706798694 703.1197610822346 66.28493300601536
  endloop
endfacet
facet normal -5.686849413387472e-29 1.0 2.1748331984759847e-14
  outer loop
    vertex 556.1887571174973 703.1197610822346 69.39914656838855
    vertex 528.1779706798694 703.1197610822346 66.28493300601536
    vertex 528.4958079250652 703.1197610822346 66.69914656838846
  endloop
endfacet
facet normal -5.686849413387472e-29 1.0 2.1748331984759847e-14
  outer loop
    vertex 556.1887571174973 703.1197610822346 69.39914656838855
    vertex 528.4958079250652 703.1197610822346 66.69914656838846
    vertex 528.6956087700744 703.1197610822346 67.18150847818343
  endloop
endfacet
facet normal -5.686849413387472e-29 1.0 2.1748331984759847e-14
  outer loop
    vertex 556.1887571174973 703.1197610822346 69.39914656838855
    vertex 528.6956087700744 703.1197610822346 67.18150847818343
    vertex 528.7637571174963 703.1197610822346 67.69914656838847
  endloop
endfacet
facet normal -5.686849413387472e-29 1.0 2.1748331984759847e-14
  outer loop
    vertex 556.1887571174973 703.1197610822346 69.39914656838855
    vertex 528.7637571174963 703.1197610822346 67.69914656838847
    vertex 528.6956087700744 703.1197610822346 68.21678465859354
  endloop
endfacet
facet normal -5.686849413387472e-29 1.0 2.1748331984759847e-14
  outer loop
    vertex 556.1887571174973 703.1197610822346 69.39914656838855
    vertex 528.6956087700744 703.1197610822346 68.21678465859354
    vertex 528.4958079250652 703.1197610822346 68.69914656838847
  endloop
endfacet
facet normal -5.686849413387472e-29 1.0 2.1748331984759847e-14
  outer loop
    vertex 556.1887571174973 703.1197610822346 69.39914656838855
    vertex 528.4958079250652 703.1197610822346 68.69914656838847
    vertex 528.1779706798694 703.1197610822346 69.11336013076152
  endloop
endfacet
facet normal -5.686849413387472e-29 1.0 2.1748331984759847e-14
  outer loop
    vertex 556.1887571174973 703.1197610822346 69.39914656838855
    vertex 528.1779706798694 703.1197610822346 69.11336013076152
    vertex 530.7637571174963 703.1197610822346 69.39914656838846
  endloop
endfacet
facet normal -5.686849413387472e-29 1.0 2.1748331984759847e-14
  outer loop
    vertex 530.7637571174963 703.1197610822346 69.39914656838846
    vertex 528.1779706798694 703.1197610822346 69.11336013076152
    vertex 527.7637571174962 703.1197610822345 69.43119737595728
  endloop
endfacet
facet normal -5.686849413387472e-29 1.0 2.1748331984759847e-14
  outer loop
    vertex 530.7637571174963 703.1197610822346 69.39914656838846
    vertex 527.7637571174962 703.1197610822345 69.43119737595728
    vertex 530.7637571174963 703.1197610822346 71.69914656838847
  endloop
endfacet
facet normal -5.686849413387472e-29 1.0 2.1748331984759847e-14
  outer loop
    vertex 530.7637571174963 703.1197610822346 71.69914656838847
    vertex 527.7637571174962 703.1197610822345 69.43119737595728
    vertex 527.2813952077013 703.1197610822345 69.63099822096663
  endloop
endfacet
facet normal -5.686849413387472e-29 1.0 2.1748331984759847e-14
  outer loop
    vertex 530.7637571174963 703.1197610822346 71.69914656838847
    vertex 527.2813952077013 703.1197610822345 69.63099822096663
    vertex 526.7637571174962 703.1197610822345 69.69914656838854
  endloop
endfacet
facet normal 1.0 -6.621435025392588e-32 3.7947404306782955e-15
  outer loop
    vertex 556.1887571174973 703.1197610822346 69.39914656838855
    vertex 556.1887571174974 699.889761082236 16.699146568388393
    vertex 556.1887571174974 703.1197610822358 16.699146568388368
  endloop
endfacet
facet normal 1.0 -6.621435025392588e-32 3.7947404306782955e-15
  outer loop
    vertex 556.1887571174974 699.889761082236 16.699146568388393
    vertex 556.1887571174973 703.1197610822346 69.39914656838855
    vertex 556.1887571174973 699.8897610822348 69.39914656838864
  endloop
endfacet
facet normal 4.647498409005827e-15 4.139400341355165e-14 -1.0
  outer loop
    vertex 501.3387571174955 699.8897610822361 14.699146568388173
    vertex 552.1887571174974 702.3697610822359 14.699146568388512
    vertex 552.1887571174974 699.8897610822361 14.69914656838836
  endloop
endfacet
facet normal 4.647498409005827e-15 4.139400341355165e-14 -1.0
  outer loop
    vertex 552.1887571174974 702.3697610822359 14.699146568388512
    vertex 501.3387571174955 699.8897610822361 14.699146568388173
    vertex 501.3387571174955 702.3697610822359 14.699146568388235
  endloop
endfacet
facet normal -2.2444193159642503e-28 1.0 4.139400341355165e-14
  outer loop
    vertex 501.3387571174955 702.3697610822358 16.69914656838823
    vertex 552.1887571174974 702.3697610822359 14.699146568388512
    vertex 501.3387571174955 702.3697610822359 14.699146568388235
  endloop
endfacet
facet normal -2.2444193159642503e-28 1.0 4.139400341355165e-14
  outer loop
    vertex 552.1887571174974 702.3697610822359 14.699146568388512
    vertex 501.3387571174955 702.3697610822358 16.69914656838823
    vertex 552.1887571174974 702.3697610822358 16.699146568388507
  endloop
endfacet
facet normal 1.0 -2.117776038962013e-33 0.0
  outer loop
    vertex 552.1887571174974 702.3697610822358 16.699146568388507
    vertex 552.1887571174974 699.8897610822361 14.69914656838836
    vertex 552.1887571174974 702.3697610822359 14.699146568388512
  endloop
endfacet
facet normal 1.0 -2.117776038962013e-33 0.0
  outer loop
    vertex 552.1887571174974 699.8897610822361 14.69914656838836
    vertex 552.1887571174974 702.3697610822358 16.699146568388507
    vertex 552.1887571174974 699.889761082236 16.699146568388354
  endloop
endfacet
facet normal -1.0 2.117776038962013e-33 0.0
  outer loop
    vertex 501.3387571174955 699.8897610822361 14.699146568388173
    vertex 501.3387571174955 702.3697610822358 16.69914656838823
    vertex 501.3387571174955 702.3697610822359 14.699146568388235
  endloop
endfacet
facet normal -1.0 2.117776038962013e-33 0.0
  outer loop
    vertex 501.3387571174955 702.3697610822358 16.69914656838823
    vertex 501.3387571174955 699.8897610822361 14.699146568388173
    vertex 501.3387571174955 699.889761082236 16.69914656838817
  endloop
endfacet
facet normal -5.32383052752386e-15 -1.3968874216956515e-14 1.0
  outer loop
    vertex 497.33875711749533 703.1197610822346 69.39914656838837
    vertex 522.7637571174963 699.8897610822348 69.39914656838846
    vertex 522.7637571174963 703.1197610822346 69.39914656838846
  endloop
endfacet
facet normal -5.32383052752386e-15 -1.3968874216956515e-14 1.0
  outer loop
    vertex 522.7637571174963 699.8897610822348 69.39914656838846
    vertex 497.33875711749533 703.1197610822346 69.39914656838837
    vertex 497.33875711749533 699.8897610822348 69.39914656838826
  endloop
endfacet
facet normal -4.436525439603208e-15 2.095331132543478e-14 1.0
  outer loop
    vertex 530.7637571174963 703.1197610822346 69.39914656838846
    vertex 556.1887571174973 699.8897610822348 69.39914656838864
    vertex 556.1887571174973 703.1197610822346 69.39914656838855
  endloop
endfacet
facet normal -4.436525439603208e-15 2.095331132543478e-14 1.0
  outer loop
    vertex 556.1887571174973 699.8897610822348 69.39914656838864
    vertex 530.7637571174963 703.1197610822346 69.39914656838846
    vertex 530.7637571174963 699.8897610822348 69.39914656838849
  endloop
endfacet
facet normal -2.8199664825478947e-15 6.98443710847826e-15 1.0
  outer loop
    vertex 522.7637571174962 703.1197610822346 71.69914656838847
    vertex 530.7637571174963 699.8897610822348 71.69914656838851
    vertex 530.7637571174963 703.1197610822346 71.69914656838847
  endloop
endfacet
facet normal -2.8199664825478947e-15 6.98443710847826e-15 1.0
  outer loop
    vertex 530.7637571174963 699.8897610822348 71.69914656838851
    vertex 522.7637571174962 703.1197610822346 71.69914656838847
    vertex 522.7637571174962 699.8897610822348 71.69914656838847
  endloop
endfacet
facet normal 1.0 -2.117776038962013e-33 0.0
  outer loop
    vertex 530.7637571174963 699.8897610822348 71.69914656838851
    vertex 530.7637571174963 703.1197610822346 69.39914656838846
    vertex 530.7637571174963 703.1197610822346 71.69914656838847
  endloop
endfacet
facet normal 1.0 -2.117776038962013e-33 0.0
  outer loop
    vertex 530.7637571174963 703.1197610822346 69.39914656838846
    vertex 530.7637571174963 699.8897610822348 71.69914656838851
    vertex 530.7637571174963 699.8897610822348 69.39914656838849
  endloop
endfacet
facet normal -1.0 1.5731642744942825e-31 -9.808579069731737e-15
  outer loop
    vertex 522.7637571174963 699.8897610822348 69.39914656838846
    vertex 522.7637571174962 703.1197610822346 71.69914656838847
    vertex 522.7637571174963 703.1197610822346 69.39914656838846
  endloop
endfacet
facet normal -1.0 1.5731642744942825e-31 -9.808579069731737e-15
  outer loop
    vertex 522.7637571174962 703.1197610822346 71.69914656838847
    vertex 522.7637571174963 699.8897610822348 69.39914656838846
    vertex 522.7637571174962 699.8897610822348 71.69914656838847
  endloop
endfacet
facet normal 0.9914448613738127 4.842027642478487e-19 -0.13052619222003511
  outer loop
    vertex 524.8319054649181 699.8897610822348 68.21678465859353
    vertex 524.7637571174963 703.1197610822346 67.6991465683885
    vertex 524.8319054649181 703.1197610822346 68.21678465859353
  endloop
endfacet
facet normal 0.9914448613738127 4.842027642478487e-19 -0.13052619222003511
  outer loop
    vertex 524.7637571174963 703.1197610822346 67.6991465683885
    vertex 524.8319054649181 699.8897610822348 68.21678465859353
    vertex 524.7637571174963 699.8897610822348 67.6991465683885
  endloop
endfacet
facet normal 0.9238795325112946 0.0 -0.3826834323650706
  outer loop
    vertex 525.0317063099275 699.8897610822348 68.6991465683885
    vertex 524.8319054649181 703.1197610822346 68.21678465859353
    vertex 525.0317063099275 703.1197610822346 68.6991465683885
  endloop
endfacet
facet normal 0.9238795325112946 0.0 -0.3826834323650706
  outer loop
    vertex 524.8319054649181 703.1197610822346 68.21678465859353
    vertex 525.0317063099275 699.8897610822348 68.6991465683885
    vertex 524.8319054649181 699.8897610822348 68.21678465859353
  endloop
endfacet
facet normal 0.793353340291231 5.950969453761008e-29 -0.6087614290087263
  outer loop
    vertex 525.3495435551232 699.8897610822348 69.11336013076159
    vertex 525.0317063099275 703.1197610822346 68.6991465683885
    vertex 525.3495435551232 703.1197610822346 69.11336013076159
  endloop
endfacet
facet normal 0.793353340291231 5.950969453761008e-29 -0.6087614290087263
  outer loop
    vertex 525.0317063099275 703.1197610822346 68.6991465683885
    vertex 525.3495435551232 699.8897610822348 69.11336013076159
    vertex 525.0317063099275 699.8897610822348 68.6991465683885
  endloop
endfacet
facet normal 0.6087614290087096 1.2378886431522731e-18 -0.7933533402912438
  outer loop
    vertex 525.3495435551232 699.8897610822348 69.11336013076159
    vertex 525.7637571174963 703.1197610822345 69.43119737595737
    vertex 525.7637571174963 699.8897610822347 69.43119737595737
  endloop
endfacet
facet normal 0.6087614290087096 1.2378886431522731e-18 -0.7933533402912438
  outer loop
    vertex 525.7637571174963 703.1197610822345 69.43119737595737
    vertex 525.3495435551232 699.8897610822348 69.11336013076159
    vertex 525.3495435551232 703.1197610822346 69.11336013076159
  endloop
endfacet
facet normal 0.3826834323650935 1.9721522630525295e-31 -0.9238795325112852
  outer loop
    vertex 525.7637571174963 699.8897610822347 69.43119737595737
    vertex 526.2461190272912 703.1197610822345 69.63099822096662
    vertex 526.2461190272912 699.8897610822347 69.63099822096662
  endloop
endfacet
facet normal 0.3826834323650935 1.9721522630525295e-31 -0.9238795325112852
  outer loop
    vertex 526.2461190272912 703.1197610822345 69.63099822096662
    vertex 525.7637571174963 699.8897610822347 69.43119737595737
    vertex 525.7637571174963 703.1197610822345 69.43119737595737
  endloop
endfacet
facet normal 0.13052619222015696 0.0 -0.9914448613737965
  outer loop
    vertex 526.2461190272912 699.8897610822347 69.63099822096662
    vertex 526.7637571174962 703.1197610822345 69.69914656838854
    vertex 526.7637571174962 699.8897610822347 69.69914656838854
  endloop
endfacet
facet normal 0.13052619222015696 0.0 -0.9914448613737965
  outer loop
    vertex 526.7637571174962 703.1197610822345 69.69914656838854
    vertex 526.2461190272912 699.8897610822347 69.63099822096662
    vertex 526.2461190272912 703.1197610822345 69.63099822096662
  endloop
endfacet
facet normal -0.130526192220157 0.0 -0.9914448613737967
  outer loop
    vertex 526.7637571174962 699.8897610822347 69.69914656838854
    vertex 527.2813952077013 703.1197610822345 69.63099822096663
    vertex 527.2813952077013 699.8897610822347 69.63099822096663
  endloop
endfacet
facet normal -0.130526192220157 0.0 -0.9914448613737967
  outer loop
    vertex 527.2813952077013 703.1197610822345 69.63099822096663
    vertex 526.7637571174962 699.8897610822347 69.69914656838854
    vertex 526.7637571174962 703.1197610822345 69.69914656838854
  endloop
endfacet
facet normal -0.382683432365152 0.0 -0.923879532511261
  outer loop
    vertex 527.2813952077013 699.8897610822347 69.63099822096663
    vertex 527.7637571174962 703.1197610822345 69.43119737595728
    vertex 527.7637571174962 699.8897610822347 69.43119737595728
  endloop
endfacet
facet normal -0.382683432365152 0.0 -0.923879532511261
  outer loop
    vertex 527.7637571174962 703.1197610822345 69.43119737595728
    vertex 527.2813952077013 699.8897610822347 69.63099822096663
    vertex 527.2813952077013 703.1197610822345 69.63099822096663
  endloop
endfacet
facet normal -0.608761429008699 3.897445753836408e-18 -0.7933533402912517
  outer loop
    vertex 527.7637571174962 699.8897610822347 69.43119737595728
    vertex 528.1779706798694 703.1197610822346 69.11336013076152
    vertex 528.1779706798694 699.8897610822348 69.11336013076152
  endloop
endfacet
facet normal -0.608761429008699 3.897445753836408e-18 -0.7933533402912517
  outer loop
    vertex 528.1779706798694 703.1197610822346 69.11336013076152
    vertex 527.7637571174962 699.8897610822347 69.43119737595728
    vertex 527.7637571174962 703.1197610822345 69.43119737595728
  endloop
endfacet
facet normal -0.7933533402912198 -4.930380657631325e-32 -0.6087614290087409
  outer loop
    vertex 528.4958079250652 699.8897610822348 68.69914656838846
    vertex 528.1779706798694 703.1197610822346 69.11336013076152
    vertex 528.4958079250652 703.1197610822346 68.69914656838847
  endloop
endfacet
facet normal -0.7933533402912198 -4.930380657631325e-32 -0.6087614290087409
  outer loop
    vertex 528.1779706798694 703.1197610822346 69.11336013076152
    vertex 528.4958079250652 699.8897610822348 68.69914656838846
    vertex 528.1779706798694 699.8897610822348 69.11336013076152
  endloop
endfacet
facet normal -0.9238795325112809 2.6709333561002677e-15 -0.38268343236510444
  outer loop
    vertex 528.6956087700744 699.8897610822348 68.21678465859348
    vertex 528.4958079250652 703.1197610822346 68.69914656838847
    vertex 528.6956087700744 703.1197610822346 68.21678465859354
  endloop
endfacet
facet normal -0.9238795325112809 2.6709333561002677e-15 -0.38268343236510444
  outer loop
    vertex 528.4958079250652 703.1197610822346 68.69914656838847
    vertex 528.6956087700744 699.8897610822348 68.21678465859348
    vertex 528.4958079250652 699.8897610822348 68.69914656838846
  endloop
endfacet
facet normal -0.9914448613738077 9.114898308122985e-16 -0.130526192220072
  outer loop
    vertex 528.7637571174963 699.8897610822348 67.69914656838847
    vertex 528.6956087700744 703.1197610822346 68.21678465859354
    vertex 528.7637571174963 703.1197610822346 67.69914656838847
  endloop
endfacet
facet normal -0.9914448613738077 9.114898308122985e-16 -0.130526192220072
  outer loop
    vertex 528.6956087700744 703.1197610822346 68.21678465859354
    vertex 528.7637571174963 699.8897610822348 67.69914656838847
    vertex 528.6956087700744 699.8897610822348 68.21678465859348
  endloop
endfacet
facet normal -0.9914448613738098 2.9764267365426133e-19 0.13052619222005635
  outer loop
    vertex 528.6956087700744 699.8897610822348 67.18150847818345
    vertex 528.7637571174963 703.1197610822346 67.69914656838847
    vertex 528.6956087700744 703.1197610822346 67.18150847818343
  endloop
endfacet
facet normal -0.9914448613738098 2.9764267365426133e-19 0.13052619222005635
  outer loop
    vertex 528.7637571174963 703.1197610822346 67.69914656838847
    vertex 528.6956087700744 699.8897610822348 67.18150847818345
    vertex 528.7637571174963 699.8897610822348 67.69914656838847
  endloop
endfacet
facet normal -0.9238795325112946 0.0 0.3826834323650706
  outer loop
    vertex 528.4958079250652 699.8897610822348 66.69914656838846
    vertex 528.6956087700744 703.1197610822346 67.18150847818343
    vertex 528.4958079250652 703.1197610822346 66.69914656838846
  endloop
endfacet
facet normal -0.9238795325112946 0.0 0.3826834323650706
  outer loop
    vertex 528.6956087700744 703.1197610822346 67.18150847818343
    vertex 528.4958079250652 699.8897610822348 66.69914656838846
    vertex 528.6956087700744 699.8897610822348 67.18150847818345
  endloop
endfacet
facet normal -0.7933533402912574 -4.2488413898601456e-15 0.6087614290086919
  outer loop
    vertex 528.1779706798694 699.8897610822348 66.28493300601532
    vertex 528.4958079250652 703.1197610822346 66.69914656838846
    vertex 528.1779706798694 703.1197610822346 66.28493300601536
  endloop
endfacet
facet normal -0.7933533402912574 -4.2488413898601456e-15 0.6087614290086919
  outer loop
    vertex 528.4958079250652 703.1197610822346 66.69914656838846
    vertex 528.1779706798694 699.8897610822348 66.28493300601532
    vertex 528.4958079250652 699.8897610822348 66.69914656838846
  endloop
endfacet
facet normal -0.6087614290087263 -5.542043129176148e-15 0.793353340291231
  outer loop
    vertex 527.7637571174962 703.1197610822346 65.96709576081955
    vertex 528.1779706798694 699.8897610822348 66.28493300601532
    vertex 528.1779706798694 703.1197610822346 66.28493300601536
  endloop
endfacet
facet normal -0.6087614290087263 -5.542043129176148e-15 0.793353340291231
  outer loop
    vertex 528.1779706798694 699.8897610822348 66.28493300601532
    vertex 527.7637571174962 703.1197610822346 65.96709576081955
    vertex 527.7637571174962 699.8897610822348 65.96709576081955
  endloop
endfacet
facet normal -0.3826834323650121 0.0 0.9238795325113189
  outer loop
    vertex 527.2813952077013 703.1197610822346 65.76729491581038
    vertex 527.7637571174962 699.8897610822348 65.96709576081955
    vertex 527.7637571174962 703.1197610822346 65.96709576081955
  endloop
endfacet
facet normal -0.3826834323650121 0.0 0.9238795325113189
  outer loop
    vertex 527.7637571174962 699.8897610822348 65.96709576081955
    vertex 527.2813952077013 703.1197610822346 65.76729491581038
    vertex 527.2813952077013 699.8897610822348 65.76729491581038
  endloop
endfacet
facet normal -0.130526192220072 1.972152263052529e-31 0.9914448613738077
  outer loop
    vertex 526.7637571174963 703.1197610822346 65.69914656838849
    vertex 527.2813952077013 699.8897610822348 65.76729491581038
    vertex 527.2813952077013 703.1197610822346 65.76729491581038
  endloop
endfacet
facet normal -0.130526192220072 1.972152263052529e-31 0.9914448613738077
  outer loop
    vertex 527.2813952077013 699.8897610822348 65.76729491581038
    vertex 526.7637571174963 703.1197610822346 65.69914656838849
    vertex 526.7637571174963 699.8897610822348 65.69914656838849
  endloop
endfacet
facet normal 0.130526192220072 0.0 0.9914448613738077
  outer loop
    vertex 526.2461190272912 703.1197610822346 65.76729491581037
    vertex 526.7637571174963 699.8897610822348 65.69914656838849
    vertex 526.7637571174963 703.1197610822346 65.69914656838849
  endloop
endfacet
facet normal 0.130526192220072 0.0 0.9914448613738077
  outer loop
    vertex 526.7637571174963 699.8897610822348 65.69914656838849
    vertex 526.2461190272912 703.1197610822346 65.76729491581037
    vertex 526.2461190272912 699.8897610822348 65.76729491581037
  endloop
endfacet
facet normal 0.3826834323650859 -1.9721522630525295e-31 0.9238795325112884
  outer loop
    vertex 525.7637571174963 703.1197610822346 65.96709576081963
    vertex 526.2461190272912 699.8897610822348 65.76729491581037
    vertex 526.2461190272912 703.1197610822346 65.76729491581037
  endloop
endfacet
facet normal 0.3826834323650859 -1.9721522630525295e-31 0.9238795325112884
  outer loop
    vertex 526.2461190272912 699.8897610822348 65.76729491581037
    vertex 525.7637571174963 703.1197610822346 65.96709576081963
    vertex 525.7637571174963 699.8897610822348 65.96709576081963
  endloop
endfacet
facet normal 0.608761429008699 -2.1856676215069463e-18 0.7933533402912517
  outer loop
    vertex 525.3495435551232 703.1197610822346 66.2849330060154
    vertex 525.7637571174963 699.8897610822348 65.96709576081963
    vertex 525.7637571174963 703.1197610822346 65.96709576081963
  endloop
endfacet
facet normal 0.608761429008699 -2.1856676215069463e-18 0.7933533402912517
  outer loop
    vertex 525.7637571174963 699.8897610822348 65.96709576081963
    vertex 525.3495435551232 703.1197610822346 66.2849330060154
    vertex 525.3495435551232 699.8897610822348 66.2849330060154
  endloop
endfacet
facet normal 0.7933533402912517 5.941108692445745e-29 0.6087614290086991
  outer loop
    vertex 525.0317063099275 699.8897610822348 66.69914656838847
    vertex 525.3495435551232 703.1197610822346 66.2849330060154
    vertex 525.0317063099275 703.1197610822346 66.6991465683885
  endloop
endfacet
facet normal 0.7933533402912517 5.941108692445745e-29 0.6087614290086991
  outer loop
    vertex 525.3495435551232 703.1197610822346 66.2849330060154
    vertex 525.0317063099275 699.8897610822348 66.69914656838847
    vertex 525.3495435551232 699.8897610822348 66.2849330060154
  endloop
endfacet
facet normal 0.9238795325112744 -2.5657380942515464e-18 0.3826834323651196
  outer loop
    vertex 524.8319054649181 699.8897610822348 67.1815084781834
    vertex 525.0317063099275 703.1197610822346 66.6991465683885
    vertex 524.8319054649181 703.1197610822346 67.18150847818343
  endloop
endfacet
facet normal 0.9238795325112744 -2.5657380942515464e-18 0.3826834323651196
  outer loop
    vertex 525.0317063099275 703.1197610822346 66.6991465683885
    vertex 524.8319054649181 699.8897610822348 67.1815084781834
    vertex 525.0317063099275 699.8897610822348 66.69914656838847
  endloop
endfacet
facet normal 0.9914448613738114 2.976426737267626e-19 0.1305261922200452
  outer loop
    vertex 524.7637571174963 699.8897610822348 67.6991465683885
    vertex 524.8319054649181 703.1197610822346 67.18150847818343
    vertex 524.7637571174963 703.1197610822346 67.6991465683885
  endloop
endfacet
facet normal 0.9914448613738114 2.976426737267626e-19 0.1305261922200452
  outer loop
    vertex 524.8319054649181 703.1197610822346 67.18150847818343
    vertex 524.7637571174963 699.8897610822348 67.6991465683885
    vertex 524.8319054649181 699.8897610822348 67.1815084781834
  endloop
endfacet
endsolid Design - Rolled
