solid Design - Rolled
facet normal -2.9547107397048223e-08 -0.9914448613738105 -0.1305261922200477
  outer loop
    vertex 420.1872754931172 97.42966063248385 12.500000000000068
    vertex 409.68727549819465 97.60003181396021 11.205904774487488
    vertex 420.1872754981946 97.60003150103849 11.205904774487465
  endloop
endfacet
facet normal -2.9547107397048223e-08 -0.9914448613738105 -0.1305261922200477
  outer loop
    vertex 409.68727549819465 97.60003181396021 11.205904774487488
    vertex 420.1872754931172 97.42966063248385 12.500000000000068
    vertex 409.68727549311717 97.42966094540556 12.50000000000009
  endloop
endfacet
facet normal 3.889950485745337e-09 0.1305261922200549 -0.99144486137381
  outer loop
    vertex 409.6872756806942 103.7237561709182 7.670370868554741
    vertex 420.1872756421276 102.42966063248386 7.500000000000054
    vertex 409.68727564212753 102.42966094540556 7.500000000000076
  endloop
endfacet
facet normal 3.889950485745337e-09 0.1305261922200549 -0.99144486137381
  outer loop
    vertex 420.1872756421276 102.42966063248386 7.500000000000054
    vertex 409.6872756806942 103.7237561709182 7.670370868554741
    vertex 420.18727568069426 103.72375585799648 7.670370868554718
  endloop
endfacet
facet normal -2.753352085925066e-08 -0.923879532511283 -0.3826834323650978
  outer loop
    vertex 420.1872754981946 97.60003150103849 11.205904774487465
    vertex 409.6872755130808 98.09953392648337 10.000000000000094
    vertex 420.1872755130808 98.09953361356165 10.000000000000071
  endloop
endfacet
facet normal -2.753352085925066e-08 -0.923879532511283 -0.3826834323650978
  outer loop
    vertex 409.6872755130808 98.09953392648337 10.000000000000094
    vertex 420.1872754981946 97.60003150103849 11.205904774487465
    vertex 409.68727549819465 97.60003181396021 11.205904774487488
  endloop
endfacet
facet normal -3.889946971907948e-09 -0.13052619222004627 0.9914448613738112
  outer loop
    vertex 409.6872756213016 101.73084952362876 15.107999730980575
    vertex 402.14727564212757 102.42966117011312 15.200000000000108
    vertex 402.14727562130156 101.73084974833633 15.107999730980596
  endloop
endfacet
facet normal -3.889946971907948e-09 -0.13052619222004627 0.9914448613738112
  outer loop
    vertex 402.14727564212757 102.42966117011312 15.200000000000108
    vertex 409.6872756213016 101.73084952362876 15.107999730980575
    vertex 409.68727564212753 102.42966094540556 15.200000000000085
  endloop
endfacet
facet normal -2.9547107398255504e-08 -0.9914448613738105 0.13052619222004766
  outer loop
    vertex 420.1872754981946 97.60003150103849 13.79409522551267
    vertex 409.68727549311717 97.42966094540556 12.50000000000009
    vertex 420.1872754931172 97.42966063248385 12.500000000000068
  endloop
endfacet
facet normal -2.9547107398255504e-08 -0.9914448613738105 0.13052619222004766
  outer loop
    vertex 409.68727549311717 97.42966094540556 12.50000000000009
    vertex 420.1872754981946 97.60003150103849 13.79409522551267
    vertex 409.68727549819465 97.60003181396021 13.794095225512692
  endloop
endfacet
facet normal -2.3643570371895816e-08 -0.7933533402912388 -0.6087614290087157
  outer loop
    vertex 420.1872755130808 98.09953361356165 10.000000000000071
    vertex 409.6872755367613 98.89412703947282 8.964466094067344
    vertex 420.18727553676126 98.89412672655111 8.96446609406732
  endloop
endfacet
facet normal -2.3643570371895816e-08 -0.7933533402912388 -0.6087614290087157
  outer loop
    vertex 409.6872755367613 98.89412703947282 8.964466094067344
    vertex 420.1872755130808 98.09953361356165 10.000000000000071
    vertex 409.6872755130808 98.09953392648337 10.000000000000094
  endloop
endfacet
facet normal -3.889950351563398e-09 -0.13052619222005546 0.99144486137381
  outer loop
    vertex 420.1872756035609 101.13556540697125 17.329629131445415
    vertex 409.68727564212764 102.42966094540556 17.500000000000103
    vertex 409.68727560356086 101.13556571989297 17.32962913144544
  endloop
endfacet
facet normal -3.889950351563398e-09 -0.13052619222005546 0.99144486137381
  outer loop
    vertex 409.68727564212764 102.42966094540556 17.500000000000103
    vertex 420.1872756035609 101.13556540697125 17.329629131445415
    vertex 420.1872756421276 102.42966063248386 17.50000000000008
  endloop
endfacet
facet normal 2.3643568746524188e-08 0.7933533402912428 0.6087614290087101
  outer loop
    vertex 409.68727577117437 106.75978796432777 15.000000000000085
    vertex 420.1872757474938 105.96519453841664 16.035533905932812
    vertex 420.1872757711743 106.75978765140607 15.000000000000062
  endloop
endfacet
facet normal 2.3643568746524188e-08 0.7933533402912428 0.6087614290087101
  outer loop
    vertex 420.1872757474938 105.96519453841664 16.035533905932812
    vertex 409.68727577117437 106.75978796432777 15.000000000000085
    vertex 409.68727574749386 105.96519485133831 16.035533905932837
  endloop
endfacet
facet normal -0.9999999999999996 2.9802069064049836e-08 4.096441632683469e-15
  outer loop
    vertex 409.68727549819465 97.60003181396021 13.794095225512692
    vertex 409.68727549819465 97.60003181396021 11.205904774487488
    vertex 409.68727549311717 97.42966094540556 12.50000000000009
  endloop
endfacet
facet normal -0.9999999999999996 2.9802069064049836e-08 4.096441632683469e-15
  outer loop
    vertex 409.68727549819465 97.60003181396021 11.205904774487488
    vertex 409.68727549819465 97.60003181396021 13.794095225512692
    vertex 409.6872755130808 98.09953392648337 15.000000000000085
  endloop
endfacet
facet normal -0.9999999999999996 2.9802069064049836e-08 4.096441632683469e-15
  outer loop
    vertex 409.68727549819465 97.60003181396021 11.205904774487488
    vertex 409.6872755130808 98.09953392648337 15.000000000000085
    vertex 409.6872755130808 98.09953392648337 10.000000000000094
  endloop
endfacet
facet normal -0.9999999999999996 2.9802069064049836e-08 4.096441632683469e-15
  outer loop
    vertex 409.6872755130808 98.09953392648337 10.000000000000094
    vertex 409.6872755130808 98.09953392648337 15.000000000000085
    vertex 409.6872755367613 98.89412703947282 16.035533905932837
  endloop
endfacet
facet normal -0.9999999999999996 2.9802069064049836e-08 4.096441632683469e-15
  outer loop
    vertex 409.6872755130808 98.09953392648337 10.000000000000094
    vertex 409.6872755367613 98.89412703947282 16.035533905932837
    vertex 409.6872755367613 98.89412703947282 8.964466094067344
  endloop
endfacet
facet normal -0.9999999999999996 2.9802069064049836e-08 4.096441632683469e-15
  outer loop
    vertex 409.6872755367613 98.89412703947282 8.964466094067344
    vertex 409.6872755367613 98.89412703947282 16.035533905932837
    vertex 409.6872755676224 99.92966094540557 16.83012701892228
  endloop
endfacet
facet normal -0.9999999999999996 2.9802069064049836e-08 4.096441632683469e-15
  outer loop
    vertex 409.6872755367613 98.89412703947282 8.964466094067344
    vertex 409.6872755676224 99.92966094540557 16.83012701892228
    vertex 409.6872755616619 99.72966094540558 12.50000000000009
  endloop
endfacet
facet normal -0.9999999999999996 2.9802069064049836e-08 4.096441632683469e-15
  outer loop
    vertex 409.6872755616619 99.72966094540558 12.50000000000009
    vertex 409.6872755676224 99.92966094540557 16.83012701892228
    vertex 409.68727556440376 99.82166121442509 13.198811421776886
  endloop
endfacet
facet normal -0.9999999999999996 2.9802069064049836e-08 4.096441632683469e-15
  outer loop
    vertex 409.68727556440376 99.82166121442509 13.198811421776886
    vertex 409.6872755676224 99.92966094540557 16.83012701892228
    vertex 409.68727557244233 100.0913923551876 13.8500000000001
  endloop
endfacet
facet normal -0.9999999999999996 2.9802069064049836e-08 4.096441632683469e-15
  outer loop
    vertex 409.68727557244233 100.0913923551876 13.8500000000001
    vertex 409.6872755676224 99.92966094540557 16.83012701892228
    vertex 409.68727560356086 101.13556571989297 17.32962913144544
  endloop
endfacet
facet normal -0.9999999999999996 2.9802069064049836e-08 4.096441632683469e-15
  outer loop
    vertex 409.68727557244233 100.0913923551876 13.8500000000001
    vertex 409.68727560356086 101.13556571989297 17.32962913144544
    vertex 409.6872755852298 100.5204726362019 14.409188309203778
  endloop
endfacet
facet normal -0.9999999999999996 2.9802069064049836e-08 4.096441632683469e-15
  outer loop
    vertex 409.6872755852298 100.5204726362019 14.409188309203778
    vertex 409.68727560356086 101.13556571989297 17.32962913144544
    vertex 409.6872756018948 101.07966094540558 14.838268590218066
  endloop
endfacet
facet normal -0.9999999999999996 2.9802069064049836e-08 4.096441632683469e-15
  outer loop
    vertex 409.6872756018948 101.07966094540558 14.838268590218066
    vertex 409.68727560356086 101.13556571989297 17.32962913144544
    vertex 409.6872756213016 101.73084952362876 15.107999730980575
  endloop
endfacet
facet normal -0.9999999999999996 2.9802069064049836e-08 4.096441632683469e-15
  outer loop
    vertex 409.6872756213016 101.73084952362876 15.107999730980575
    vertex 409.68727560356086 101.13556571989297 17.32962913144544
    vertex 409.68727564212764 102.42966094540556 17.500000000000103
  endloop
endfacet
facet normal -0.9999999999999996 2.9802069064049836e-08 4.096441632683469e-15
  outer loop
    vertex 409.6872756213016 101.73084952362876 15.107999730980575
    vertex 409.68727564212764 102.42966094540556 17.500000000000103
    vertex 409.68727564212753 102.42966094540556 15.200000000000085
  endloop
endfacet
facet normal -0.9999999999999996 2.9802069064049836e-08 4.096441632683469e-15
  outer loop
    vertex 409.68727564212753 102.42966094540556 15.200000000000085
    vertex 409.68727564212764 102.42966094540556 17.500000000000103
    vertex 409.6872756806943 103.7237561709182 17.32962913144544
  endloop
endfacet
facet normal -0.9999999999999996 2.9802069064049836e-08 4.096441632683469e-15
  outer loop
    vertex 409.68727564212753 102.42966094540556 15.200000000000085
    vertex 409.6872756806943 103.7237561709182 17.32962913144544
    vertex 409.6872756629536 103.1284723671824 15.107999730980575
  endloop
endfacet
facet normal -0.9999999999999996 2.9802069064049836e-08 4.096441632683469e-15
  outer loop
    vertex 409.6872756629536 103.1284723671824 15.107999730980575
    vertex 409.6872756806943 103.7237561709182 17.32962913144544
    vertex 409.6872756823604 103.77966094540557 14.838268590218066
  endloop
endfacet
facet normal -0.9999999999999996 2.9802069064049836e-08 4.096441632683469e-15
  outer loop
    vertex 409.6872756823604 103.77966094540557 14.838268590218066
    vertex 409.6872756806943 103.7237561709182 17.32962913144544
    vertex 409.68727571663277 104.92966094540559 16.83012701892228
  endloop
endfacet
facet normal -0.9999999999999996 2.9802069064049836e-08 4.096441632683469e-15
  outer loop
    vertex 409.6872756823604 103.77966094540557 14.838268590218066
    vertex 409.68727571663277 104.92966094540559 16.83012701892228
    vertex 409.68727569902535 104.33884925460924 14.409188309203754
  endloop
endfacet
facet normal -0.9999999999999996 2.9802069064049836e-08 4.096441632683469e-15
  outer loop
    vertex 409.68727569902535 104.33884925460924 14.409188309203754
    vertex 409.68727571663277 104.92966094540559 16.83012701892228
    vertex 409.68727571181284 104.76792953562358 13.8500000000001
  endloop
endfacet
facet normal -0.9999999999999996 2.9802069064049836e-08 4.096441632683469e-15
  outer loop
    vertex 409.68727571181284 104.76792953562358 13.8500000000001
    vertex 409.68727571663277 104.92966094540559 16.83012701892228
    vertex 409.6872757198513 105.0376606763861 13.198811421776886
  endloop
endfacet
facet normal -0.9999999999999996 2.9802069064049836e-08 4.096441632683469e-15
  outer loop
    vertex 409.6872757198513 105.0376606763861 13.198811421776886
    vertex 409.68727571663277 104.92966094540559 16.83012701892228
    vertex 409.68727574749386 105.96519485133831 16.035533905932837
  endloop
endfacet
facet normal -0.9999999999999996 2.9802069064049836e-08 4.096441632683469e-15
  outer loop
    vertex 409.6872757198513 105.0376606763861 13.198811421776886
    vertex 409.68727574749386 105.96519485133831 16.035533905932837
    vertex 409.68727572259314 105.12966094540558 12.50000000000009
  endloop
endfacet
facet normal -0.9999999999999996 2.9802069064049836e-08 4.096441632683469e-15
  outer loop
    vertex 409.6872755616619 99.72966094540558 12.50000000000009
    vertex 409.6872755676224 99.92966094540557 8.1698729810779
    vertex 409.6872755367613 98.89412703947282 8.964466094067344
  endloop
endfacet
facet normal -0.9999999999999996 2.9802069064049836e-08 4.096441632683469e-15
  outer loop
    vertex 409.6872755676224 99.92966094540557 8.1698729810779
    vertex 409.6872755616619 99.72966094540558 12.50000000000009
    vertex 409.68727556440376 99.82166121442509 11.801188578223293
  endloop
endfacet
facet normal -0.9999999999999996 2.9802069064049836e-08 4.096441632683469e-15
  outer loop
    vertex 409.6872755676224 99.92966094540557 8.1698729810779
    vertex 409.68727556440376 99.82166121442509 11.801188578223293
    vertex 409.68727557244233 100.0913923551876 11.15000000000008
  endloop
endfacet
facet normal -0.9999999999999996 2.9802069064049836e-08 4.096441632683469e-15
  outer loop
    vertex 409.6872755676224 99.92966094540557 8.1698729810779
    vertex 409.68727557244233 100.0913923551876 11.15000000000008
    vertex 409.68727560356086 101.13556571989297 7.670370868554741
  endloop
endfacet
facet normal -0.9999999999999996 2.9802069064049836e-08 4.096441632683469e-15
  outer loop
    vertex 409.68727560356086 101.13556571989297 7.670370868554741
    vertex 409.68727557244233 100.0913923551876 11.15000000000008
    vertex 409.6872755852298 100.5204726362019 10.590811690796425
  endloop
endfacet
facet normal -0.9999999999999996 2.9802069064049836e-08 4.096441632683469e-15
  outer loop
    vertex 409.68727560356086 101.13556571989297 7.670370868554741
    vertex 409.6872755852298 100.5204726362019 10.590811690796425
    vertex 409.6872756018948 101.07966094540558 10.161731409782115
  endloop
endfacet
facet normal -0.9999999999999996 2.9802069064049836e-08 4.096441632683469e-15
  outer loop
    vertex 409.68727560356086 101.13556571989297 7.670370868554741
    vertex 409.6872756018948 101.07966094540558 10.161731409782115
    vertex 409.68727562130147 101.73084952362876 9.892000269019606
  endloop
endfacet
facet normal -0.9999999999999996 2.9802069064049836e-08 4.096441632683469e-15
  outer loop
    vertex 409.68727560356086 101.13556571989297 7.670370868554741
    vertex 409.68727562130147 101.73084952362876 9.892000269019606
    vertex 409.68727564212753 102.42966094540556 7.500000000000076
  endloop
endfacet
facet normal -0.9999999999999996 2.9802069064049836e-08 4.096441632683469e-15
  outer loop
    vertex 409.68727564212753 102.42966094540556 7.500000000000076
    vertex 409.68727562130147 101.73084952362876 9.892000269019606
    vertex 409.68727564212753 102.42966094540556 9.800000000000095
  endloop
endfacet
facet normal -0.9999999999999996 2.9802069064049836e-08 4.096441632683469e-15
  outer loop
    vertex 409.68727564212753 102.42966094540556 7.500000000000076
    vertex 409.68727564212753 102.42966094540556 9.800000000000095
    vertex 409.6872756629536 103.1284723671824 9.892000269019606
  endloop
endfacet
facet normal -0.9999999999999996 2.9802069064049836e-08 4.096441632683469e-15
  outer loop
    vertex 409.68727564212753 102.42966094540556 7.500000000000076
    vertex 409.6872756629536 103.1284723671824 9.892000269019606
    vertex 409.6872756806942 103.7237561709182 7.670370868554741
  endloop
endfacet
facet normal -0.9999999999999996 2.9802069064049836e-08 4.096441632683469e-15
  outer loop
    vertex 409.6872756806942 103.7237561709182 7.670370868554741
    vertex 409.6872756629536 103.1284723671824 9.892000269019606
    vertex 409.6872756823603 103.77966094540557 10.161731409782115
  endloop
endfacet
facet normal -0.9999999999999996 2.9802069064049836e-08 4.096441632683469e-15
  outer loop
    vertex 409.6872756806942 103.7237561709182 7.670370868554741
    vertex 409.6872756823603 103.77966094540557 10.161731409782115
    vertex 409.68727571663266 104.92966094540559 8.1698729810779
  endloop
endfacet
facet normal -0.9999999999999996 2.9802069064049836e-08 4.096441632683469e-15
  outer loop
    vertex 409.68727571663266 104.92966094540559 8.1698729810779
    vertex 409.6872756823603 103.77966094540557 10.161731409782115
    vertex 409.68727569902524 104.33884925460924 10.590811690796425
  endloop
endfacet
facet normal -0.9999999999999996 2.9802069064049836e-08 4.096441632683469e-15
  outer loop
    vertex 409.68727571663266 104.92966094540559 8.1698729810779
    vertex 409.68727569902524 104.33884925460924 10.590811690796425
    vertex 409.68727571181284 104.76792953562358 11.15000000000008
  endloop
endfacet
facet normal -0.9999999999999996 2.9802069064049836e-08 4.096441632683469e-15
  outer loop
    vertex 409.68727571663266 104.92966094540559 8.1698729810779
    vertex 409.68727571181284 104.76792953562358 11.15000000000008
    vertex 409.6872757198513 105.0376606763861 11.801188578223293
  endloop
endfacet
facet normal -0.9999999999999996 2.9802069064049836e-08 4.096441632683469e-15
  outer loop
    vertex 409.68727571663266 104.92966094540559 8.1698729810779
    vertex 409.6872757198513 105.0376606763861 11.801188578223293
    vertex 409.68727574749374 105.96519485133831 8.964466094067344
  endloop
endfacet
facet normal -0.9999999999999996 2.9802069064049836e-08 4.096441632683469e-15
  outer loop
    vertex 409.68727574749374 105.96519485133831 8.964466094067344
    vertex 409.6872757198513 105.0376606763861 11.801188578223293
    vertex 409.68727572259314 105.12966094540558 12.50000000000009
  endloop
endfacet
facet normal -0.9999999999999996 2.9802069064049836e-08 4.096441632683469e-15
  outer loop
    vertex 409.68727574749374 105.96519485133831 8.964466094067344
    vertex 409.68727572259314 105.12966094540558 12.50000000000009
    vertex 409.68727574749386 105.96519485133831 16.035533905932837
  endloop
endfacet
facet normal -0.9999999999999996 2.9802069064049836e-08 4.096441632683469e-15
  outer loop
    vertex 409.68727574749374 105.96519485133831 8.964466094067344
    vertex 409.68727574749386 105.96519485133831 16.035533905932837
    vertex 409.68727577117437 106.75978796432777 15.000000000000085
  endloop
endfacet
facet normal -0.9999999999999996 2.9802069064049836e-08 4.096441632683469e-15
  outer loop
    vertex 409.68727574749374 105.96519485133831 8.964466094067344
    vertex 409.68727577117437 106.75978796432777 15.000000000000085
    vertex 409.68727577117426 106.75978796432777 10.000000000000094
  endloop
endfacet
facet normal -0.9999999999999996 2.9802069064049836e-08 4.096441632683469e-15
  outer loop
    vertex 409.68727577117426 106.75978796432777 10.000000000000094
    vertex 409.68727577117437 106.75978796432777 15.000000000000085
    vertex 409.6872757860605 107.25929007685093 13.794095225512692
  endloop
endfacet
facet normal -0.9999999999999996 2.9802069064049836e-08 4.096441632683469e-15
  outer loop
    vertex 409.68727577117426 106.75978796432777 10.000000000000094
    vertex 409.6872757860605 107.25929007685093 13.794095225512692
    vertex 409.6872757860605 107.25929007685093 11.205904774487488
  endloop
endfacet
facet normal -0.9999999999999996 2.9802069064049836e-08 4.096441632683469e-15
  outer loop
    vertex 409.6872757860605 107.25929007685093 11.205904774487488
    vertex 409.6872757860605 107.25929007685093 13.794095225512692
    vertex 409.6872757911379 107.42966094540556 12.50000000000009
  endloop
endfacet
facet normal 1.814234838988123e-08 0.6087614290087094 0.7933533402912435
  outer loop
    vertex 420.1872757166327 104.92966063248387 16.83012701892226
    vertex 409.68727574749386 105.96519485133831 16.035533905932837
    vertex 409.68727571663277 104.92966094540559 16.83012701892228
  endloop
endfacet
facet normal 1.814234838988123e-08 0.6087614290087094 0.7933533402912435
  outer loop
    vertex 409.68727574749386 105.96519485133831 16.035533905932837
    vertex 420.1872757166327 104.92966063248387 16.83012701892226
    vertex 420.1872757474938 105.96519453841664 16.035533905932812
  endloop
endfacet
facet normal 3.889946582105573e-09 0.1305261922200421 -0.9914448613738116
  outer loop
    vertex 402.1472756629535 103.12847259188992 9.892000269019627
    vertex 409.68727564212753 102.42966094540556 9.800000000000095
    vertex 402.14727564212757 102.42966117011312 9.800000000000118
  endloop
endfacet
facet normal 3.889946582105573e-09 0.1305261922200421 -0.9914448613738116
  outer loop
    vertex 409.68727564212753 102.42966094540556 9.800000000000095
    vertex 402.1472756629535 103.12847259188992 9.892000269019627
    vertex 409.6872756629536 103.1284723671824 9.892000269019606
  endloop
endfacet
facet normal 1.1404758546820419e-08 0.38268343236509733 -0.9238795325112836
  outer loop
    vertex 409.68727571663266 104.92966094540559 8.1698729810779
    vertex 420.18727568069426 103.72375585799648 7.670370868554718
    vertex 409.6872756806942 103.7237561709182 7.670370868554741
  endloop
endfacet
facet normal 1.1404758546820419e-08 0.38268343236509733 -0.9238795325112836
  outer loop
    vertex 420.18727568069426 103.72375585799648 7.670370868554718
    vertex 409.68727571663266 104.92966094540559 8.1698729810779
    vertex 420.1872757166327 104.92966063248387 8.169872981077877
  endloop
endfacet
facet normal -2.3643570370442982e-08 -0.7933533402912388 0.6087614290087157
  outer loop
    vertex 420.1872755367614 98.89412672655111 16.035533905932812
    vertex 409.6872755130808 98.09953392648337 15.000000000000085
    vertex 420.1872755130808 98.09953361356165 15.000000000000062
  endloop
endfacet
facet normal -2.3643570370442982e-08 -0.7933533402912388 0.6087614290087157
  outer loop
    vertex 409.6872755130808 98.09953392648337 15.000000000000085
    vertex 420.1872755367614 98.89412672655111 16.035533905932812
    vertex 409.6872755367613 98.89412703947282 16.035533905932837
  endloop
endfacet
facet normal -2.7533520864820586e-08 -0.923879532511283 0.3826834323650978
  outer loop
    vertex 420.1872755130808 98.09953361356165 15.000000000000062
    vertex 409.68727549819465 97.60003181396021 13.794095225512692
    vertex 420.1872754981946 97.60003150103849 13.79409522551267
  endloop
endfacet
facet normal -2.7533520864820586e-08 -0.923879532511283 0.3826834323650978
  outer loop
    vertex 409.68727549819465 97.60003181396021 13.794095225512692
    vertex 420.1872755130808 98.09953361356165 15.000000000000062
    vertex 409.6872755130808 98.09953392648337 15.000000000000085
  endloop
endfacet
facet normal -1.1404757764069666e-08 -0.38268343236509733 0.9238795325112836
  outer loop
    vertex 420.18727556762246 99.92966063248386 16.83012701892226
    vertex 409.68727560356086 101.13556571989297 17.32962913144544
    vertex 409.6872755676224 99.92966094540557 16.83012701892228
  endloop
endfacet
facet normal -1.1404757764069666e-08 -0.38268343236509733 0.9238795325112836
  outer loop
    vertex 409.68727560356086 101.13556571989297 17.32962913144544
    vertex 420.18727556762246 99.92966063248386 16.83012701892226
    vertex 420.1872756035609 101.13556540697125 17.329629131445415
  endloop
endfacet
facet normal 2.7533522755072685e-08 0.9238795325112831 -0.3826834323650978
  outer loop
    vertex 409.68727577117426 106.75978796432777 10.000000000000094
    vertex 420.18727578606047 107.25928976392922 11.205904774487465
    vertex 420.1872757711743 106.75978765140607 10.000000000000071
  endloop
endfacet
facet normal 2.7533522755072685e-08 0.9238795325112831 -0.3826834323650978
  outer loop
    vertex 420.18727578606047 107.25928976392922 11.205904774487465
    vertex 409.68727577117426 106.75978796432777 10.000000000000094
    vertex 409.6872757860605 107.25929007685093 11.205904774487488
  endloop
endfacet
facet normal -1.140475891755095e-08 -0.3826834323650974 -0.9238795325112835
  outer loop
    vertex 402.1472756213015 101.73084974833633 9.892000269019627
    vertex 409.6872756018948 101.07966094540558 10.161731409782115
    vertex 402.1472756018947 101.07966117011314 10.161731409782137
  endloop
endfacet
facet normal -1.140475891755095e-08 -0.3826834323650974 -0.9238795325112835
  outer loop
    vertex 409.6872756018948 101.07966094540558 10.161731409782115
    vertex 402.1472756213015 101.73084974833633 9.892000269019627
    vertex 409.68727562130147 101.73084952362876 9.892000269019606
  endloop
endfacet
facet normal -3.88995035173666e-09 -0.1305261922200555 -0.99144486137381
  outer loop
    vertex 409.68727564212753 102.42966094540556 7.500000000000076
    vertex 420.1872756035608 101.13556540697125 7.670370868554718
    vertex 409.68727560356086 101.13556571989297 7.670370868554741
  endloop
endfacet
facet normal -3.88995035173666e-09 -0.1305261922200555 -0.99144486137381
  outer loop
    vertex 420.1872756035608 101.13556540697125 7.670370868554718
    vertex 409.68727564212753 102.42966094540556 7.500000000000076
    vertex 420.1872756421276 102.42966063248386 7.500000000000054
  endloop
endfacet
facet normal 1.814234945832947e-08 0.6087614290087235 0.793353340291233
  outer loop
    vertex 409.6872756823604 103.77966094540557 14.838268590218066
    vertex 402.14727569902533 104.3388494793168 14.409188309203778
    vertex 402.1472756823604 103.77966117011313 14.838268590218087
  endloop
endfacet
facet normal 1.814234945832947e-08 0.6087614290087235 0.793353340291233
  outer loop
    vertex 402.14727569902533 104.3388494793168 14.409188309203778
    vertex 409.6872756823604 103.77966094540557 14.838268590218066
    vertex 409.68727569902535 104.33884925460924 14.409188309203754
  endloop
endfacet
facet normal 1.1404757771851923e-08 0.382683432365103 0.9238795325112812
  outer loop
    vertex 409.6872756629536 103.1284723671824 15.107999730980575
    vertex 402.1472756823604 103.77966117011313 14.838268590218087
    vertex 402.1472756629536 103.12847259188992 15.107999730980596
  endloop
endfacet
facet normal 1.1404757771851923e-08 0.382683432365103 0.9238795325112812
  outer loop
    vertex 402.1472756823604 103.77966117011313 14.838268590218087
    vertex 409.6872756629536 103.1284723671824 15.107999730980575
    vertex 409.6872756823604 103.77966094540557 14.838268590218066
  endloop
endfacet
facet normal 2.9547105365460452e-08 0.9914448613738116 -0.13052619222003922
  outer loop
    vertex 409.6872757860605 107.25929007685093 11.205904774487488
    vertex 420.1872757911379 107.42966063248389 12.500000000000068
    vertex 420.18727578606047 107.25928976392922 11.205904774487465
  endloop
endfacet
facet normal 2.9547105365460452e-08 0.9914448613738116 -0.13052619222003922
  outer loop
    vertex 420.1872757911379 107.42966063248389 12.500000000000068
    vertex 409.6872757860605 107.25929007685093 11.205904774487488
    vertex 409.6872757911379 107.42966094540556 12.50000000000009
  endloop
endfacet
facet normal -1.814234963905269e-08 -0.6087614290087137 -0.7933533402912405
  outer loop
    vertex 409.6872755676224 99.92966094540557 8.1698729810779
    vertex 420.18727553676126 98.89412672655111 8.96446609406732
    vertex 409.6872755367613 98.89412703947282 8.964466094067344
  endloop
endfacet
facet normal -1.814234963905269e-08 -0.6087614290087137 -0.7933533402912405
  outer loop
    vertex 420.18727553676126 98.89412672655111 8.96446609406732
    vertex 409.6872755676224 99.92966094540557 8.1698729810779
    vertex 420.18727556762235 99.92966063248385 8.169872981077877
  endloop
endfacet
facet normal -1.1404753390245452e-08 -0.38268343236509733 0.9238795325112835
  outer loop
    vertex 409.6872756018948 101.07966094540558 14.838268590218066
    vertex 402.14727562130156 101.73084974833633 15.107999730980596
    vertex 402.14727560189476 101.07966117011314 14.838268590218087
  endloop
endfacet
facet normal -1.1404753390245452e-08 -0.38268343236509733 0.9238795325112835
  outer loop
    vertex 402.14727562130156 101.73084974833633 15.107999730980596
    vertex 409.6872756018948 101.07966094540558 14.838268590218066
    vertex 409.6872756213016 101.73084952362876 15.107999730980575
  endloop
endfacet
facet normal -1.814234963905257e-08 -0.6087614290087096 0.7933533402912435
  outer loop
    vertex 420.1872755367614 98.89412672655111 16.035533905932812
    vertex 409.6872755676224 99.92966094540557 16.83012701892228
    vertex 409.6872755367613 98.89412703947282 16.035533905932837
  endloop
endfacet
facet normal -1.814234963905257e-08 -0.6087614290087096 0.7933533402912435
  outer loop
    vertex 409.6872755676224 99.92966094540557 16.83012701892228
    vertex 420.1872755367614 98.89412672655111 16.035533905932812
    vertex 420.18727556762246 99.92966063248386 16.83012701892226
  endloop
endfacet
facet normal 2.3643566493422133e-08 0.7933533402912204 0.6087614290087395
  outer loop
    vertex 402.14727571181277 104.7679297603311 13.85000000000012
    vertex 409.68727569902535 104.33884925460924 14.409188309203754
    vertex 409.68727571181284 104.76792953562358 13.8500000000001
  endloop
endfacet
facet normal 2.3643566493422133e-08 0.7933533402912204 0.6087614290087395
  outer loop
    vertex 409.68727569902535 104.33884925460924 14.409188309203754
    vertex 402.14727571181277 104.7679297603311 13.85000000000012
    vertex 402.14727569902533 104.3388494793168 14.409188309203778
  endloop
endfacet
facet normal 3.889950485918614e-09 0.13052619222005493 0.99144486137381
  outer loop
    vertex 420.1872756421276 102.42966063248386 17.50000000000008
    vertex 409.6872756806943 103.7237561709182 17.32962913144544
    vertex 409.68727564212764 102.42966094540556 17.500000000000103
  endloop
endfacet
facet normal 3.889950485918614e-09 0.13052619222005493 0.99144486137381
  outer loop
    vertex 409.6872756806943 103.7237561709182 17.32962913144544
    vertex 420.1872756421276 102.42966063248386 17.50000000000008
    vertex 420.18727568069426 103.72375585799648 17.329629131445415
  endloop
endfacet
facet normal 3.889952513833319e-09 0.1305261922200421 0.9914448613738116
  outer loop
    vertex 409.68727564212753 102.42966094540556 15.200000000000085
    vertex 402.1472756629536 103.12847259188992 15.107999730980596
    vertex 402.14727564212757 102.42966117011312 15.200000000000108
  endloop
endfacet
facet normal 3.889952513833319e-09 0.1305261922200421 0.9914448613738116
  outer loop
    vertex 402.1472756629536 103.12847259188992 15.107999730980596
    vertex 409.68727564212753 102.42966094540556 15.200000000000085
    vertex 409.6872756629536 103.1284723671824 15.107999730980575
  endloop
endfacet
facet normal 2.9547105363813254e-08 0.9914448613738116 0.13052619222003922
  outer loop
    vertex 409.6872757911379 107.42966094540556 12.50000000000009
    vertex 420.18727578606047 107.25928976392922 13.79409522551267
    vertex 420.1872757911379 107.42966063248389 12.500000000000068
  endloop
endfacet
facet normal 2.9547105363813254e-08 0.9914448613738116 0.13052619222003922
  outer loop
    vertex 420.18727578606047 107.25928976392922 13.79409522551267
    vertex 409.6872757911379 107.42966094540556 12.50000000000009
    vertex 409.6872757860605 107.25929007685093 13.794095225512692
  endloop
endfacet
facet normal -1.140475775900282e-08 -0.38268343236509417 -0.9238795325112849
  outer loop
    vertex 409.68727560356086 101.13556571989297 7.670370868554741
    vertex 420.18727556762235 99.92966063248385 8.169872981077877
    vertex 409.6872755676224 99.92966094540557 8.1698729810779
  endloop
endfacet
facet normal -1.140475775900282e-08 -0.38268343236509417 -0.9238795325112849
  outer loop
    vertex 420.18727556762235 99.92966063248385 8.169872981077877
    vertex 409.68727560356086 101.13556571989297 7.670370868554741
    vertex 420.1872756035608 101.13556540697125 7.670370868554718
  endloop
endfacet
facet normal 1.1404752244635363e-08 0.38268343236510305 -0.9238795325112812
  outer loop
    vertex 402.1472756823603 103.77966117011313 10.161731409782137
    vertex 409.6872756629536 103.1284723671824 9.892000269019606
    vertex 402.1472756629535 103.12847259188992 9.892000269019627
  endloop
endfacet
facet normal 1.1404752244635363e-08 0.38268343236510305 -0.9238795325112812
  outer loop
    vertex 409.6872756629536 103.1284723671824 9.892000269019606
    vertex 402.1472756823603 103.77966117011313 10.161731409782137
    vertex 409.6872756823603 103.77966094540557 10.161731409782115
  endloop
endfacet
facet normal -2.954710433357598e-08 -0.9914448613738107 0.13052619222004647
  outer loop
    vertex 409.68727556440376 99.82166121442509 13.198811421776886
    vertex 402.14727556166196 99.72966117011315 12.500000000000112
    vertex 409.6872755616619 99.72966094540558 12.50000000000009
  endloop
endfacet
facet normal -2.954710433357598e-08 -0.9914448613738107 0.13052619222004647
  outer loop
    vertex 402.14727556166196 99.72966117011315 12.500000000000112
    vertex 409.68727556440376 99.82166121442509 13.198811421776886
    vertex 402.1472755644038 99.82166143913267 13.19881142177691
  endloop
endfacet
facet normal -2.7533517220098813e-08 -0.9238795325112854 0.38268343236509217
  outer loop
    vertex 409.68727557244233 100.0913923551876 13.8500000000001
    vertex 402.1472755644038 99.82166143913267 13.19881142177691
    vertex 409.68727556440376 99.82166121442509 13.198811421776886
  endloop
endfacet
facet normal -2.7533517220098813e-08 -0.9238795325112854 0.38268343236509217
  outer loop
    vertex 402.1472755644038 99.82166143913267 13.19881142177691
    vertex 409.68727557244233 100.0913923551876 13.8500000000001
    vertex 402.1472755724423 100.09139257989517 13.85000000000012
  endloop
endfacet
facet normal -0.9999999999999996 2.9802064267779618e-08 5.753860059154993e-15
  outer loop
    vertex 402.1472755644038 99.82166143913267 13.19881142177691
    vertex 402.1472755644038 99.82166143913267 11.801188578223316
    vertex 402.14727556166196 99.72966117011315 12.500000000000112
  endloop
endfacet
facet normal -0.9999999999999996 2.9802064267779618e-08 5.753860059154993e-15
  outer loop
    vertex 402.1472755644038 99.82166143913267 11.801188578223316
    vertex 402.1472755644038 99.82166143913267 13.19881142177691
    vertex 402.1472755724423 100.09139257989517 13.85000000000012
  endloop
endfacet
facet normal -0.9999999999999996 2.9802064267779618e-08 5.753860059154993e-15
  outer loop
    vertex 402.1472755644038 99.82166143913267 11.801188578223316
    vertex 402.1472755724423 100.09139257989517 13.85000000000012
    vertex 402.1472755724423 100.09139257989517 11.150000000000103
  endloop
endfacet
facet normal -0.9999999999999996 2.9802064267779618e-08 5.753860059154993e-15
  outer loop
    vertex 402.1472755724423 100.09139257989517 11.150000000000103
    vertex 402.1472755724423 100.09139257989517 13.85000000000012
    vertex 402.14727558522986 100.52047286090948 14.4091883092038
  endloop
endfacet
facet normal -0.9999999999999996 2.9802064267779618e-08 5.753860059154993e-15
  outer loop
    vertex 402.1472755724423 100.09139257989517 11.150000000000103
    vertex 402.14727558522986 100.52047286090948 14.4091883092038
    vertex 402.1472755852298 100.52047286090948 10.590811690796448
  endloop
endfacet
facet normal -0.9999999999999996 2.9802064267779618e-08 5.753860059154993e-15
  outer loop
    vertex 402.1472755852298 100.52047286090948 10.590811690796448
    vertex 402.14727558522986 100.52047286090948 14.4091883092038
    vertex 402.14727560189476 101.07966117011314 14.838268590218087
  endloop
endfacet
facet normal -0.9999999999999996 2.9802064267779618e-08 5.753860059154993e-15
  outer loop
    vertex 402.1472755852298 100.52047286090948 10.590811690796448
    vertex 402.14727560189476 101.07966117011314 14.838268590218087
    vertex 402.1472756018947 101.07966117011314 10.161731409782137
  endloop
endfacet
facet normal -0.9999999999999996 2.9802064267779618e-08 5.753860059154993e-15
  outer loop
    vertex 402.1472756018947 101.07966117011314 10.161731409782137
    vertex 402.14727560189476 101.07966117011314 14.838268590218087
    vertex 402.14727562130156 101.73084974833633 15.107999730980596
  endloop
endfacet
facet normal -0.9999999999999996 2.9802064267779618e-08 5.753860059154993e-15
  outer loop
    vertex 402.1472756018947 101.07966117011314 10.161731409782137
    vertex 402.14727562130156 101.73084974833633 15.107999730980596
    vertex 402.1472756213015 101.73084974833633 9.892000269019627
  endloop
endfacet
facet normal -0.9999999999999996 2.9802064267779618e-08 5.753860059154993e-15
  outer loop
    vertex 402.1472756213015 101.73084974833633 9.892000269019627
    vertex 402.14727562130156 101.73084974833633 15.107999730980596
    vertex 402.14727564212757 102.42966117011312 15.200000000000108
  endloop
endfacet
facet normal -0.9999999999999996 2.9802064267779618e-08 5.753860059154993e-15
  outer loop
    vertex 402.1472756213015 101.73084974833633 9.892000269019627
    vertex 402.14727564212757 102.42966117011312 15.200000000000108
    vertex 402.14727564212757 102.42966117011312 9.800000000000118
  endloop
endfacet
facet normal -0.9999999999999996 2.9802064267779618e-08 5.753860059154993e-15
  outer loop
    vertex 402.14727564212757 102.42966117011312 9.800000000000118
    vertex 402.14727564212757 102.42966117011312 15.200000000000108
    vertex 402.1472756629536 103.12847259188992 15.107999730980596
  endloop
endfacet
facet normal -0.9999999999999996 2.9802064267779618e-08 5.753860059154993e-15
  outer loop
    vertex 402.14727564212757 102.42966117011312 9.800000000000118
    vertex 402.1472756629536 103.12847259188992 15.107999730980596
    vertex 402.1472756629535 103.12847259188992 9.892000269019627
  endloop
endfacet
facet normal -0.9999999999999996 2.9802064267779618e-08 5.753860059154993e-15
  outer loop
    vertex 402.1472756629535 103.12847259188992 9.892000269019627
    vertex 402.1472756629536 103.12847259188992 15.107999730980596
    vertex 402.1472756823604 103.77966117011313 14.838268590218087
  endloop
endfacet
facet normal -0.9999999999999996 2.9802064267779618e-08 5.753860059154993e-15
  outer loop
    vertex 402.1472756629535 103.12847259188992 9.892000269019627
    vertex 402.1472756823604 103.77966117011313 14.838268590218087
    vertex 402.1472756823603 103.77966117011313 10.161731409782137
  endloop
endfacet
facet normal -0.9999999999999996 2.9802064267779618e-08 5.753860059154993e-15
  outer loop
    vertex 402.1472756823603 103.77966117011313 10.161731409782137
    vertex 402.1472756823604 103.77966117011313 14.838268590218087
    vertex 402.14727569902533 104.3388494793168 14.409188309203778
  endloop
endfacet
facet normal -0.9999999999999996 2.9802064267779618e-08 5.753860059154993e-15
  outer loop
    vertex 402.1472756823603 103.77966117011313 10.161731409782137
    vertex 402.14727569902533 104.3388494793168 14.409188309203778
    vertex 402.1472756990253 104.3388494793168 10.590811690796448
  endloop
endfacet
facet normal -0.9999999999999996 2.9802064267779618e-08 5.753860059154993e-15
  outer loop
    vertex 402.1472756990253 104.3388494793168 10.590811690796448
    vertex 402.14727569902533 104.3388494793168 14.409188309203778
    vertex 402.14727571181277 104.7679297603311 13.85000000000012
  endloop
endfacet
facet normal -0.9999999999999996 2.9802064267779618e-08 5.753860059154993e-15
  outer loop
    vertex 402.1472756990253 104.3388494793168 10.590811690796448
    vertex 402.14727571181277 104.7679297603311 13.85000000000012
    vertex 402.14727571181277 104.7679297603311 11.150000000000103
  endloop
endfacet
facet normal -0.9999999999999996 2.9802064267779618e-08 5.753860059154993e-15
  outer loop
    vertex 402.14727571181277 104.7679297603311 11.150000000000103
    vertex 402.14727571181277 104.7679297603311 13.85000000000012
    vertex 402.14727571985134 105.0376609010936 13.19881142177691
  endloop
endfacet
facet normal -0.9999999999999996 2.9802064267779618e-08 5.753860059154993e-15
  outer loop
    vertex 402.14727571181277 104.7679297603311 11.150000000000103
    vertex 402.14727571985134 105.0376609010936 13.19881142177691
    vertex 402.14727571985134 105.0376609010936 11.801188578223316
  endloop
endfacet
facet normal -0.9999999999999996 2.9802064267779618e-08 5.753860059154993e-15
  outer loop
    vertex 402.14727571985134 105.0376609010936 11.801188578223316
    vertex 402.14727571985134 105.0376609010936 13.19881142177691
    vertex 402.1472757225931 105.12966117011314 12.500000000000112
  endloop
endfacet
facet normal 2.364356284993555e-08 0.7933533402912204 -0.6087614290087394
  outer loop
    vertex 402.1472756990253 104.3388494793168 10.590811690796448
    vertex 409.68727571181284 104.76792953562358 11.15000000000008
    vertex 409.68727569902524 104.33884925460924 10.590811690796425
  endloop
endfacet
facet normal 2.364356284993555e-08 0.7933533402912204 -0.6087614290087394
  outer loop
    vertex 409.68727571181284 104.76792953562358 11.15000000000008
    vertex 402.1472756990253 104.3388494793168 10.590811690796448
    vertex 402.14727571181277 104.7679297603311 11.150000000000103
  endloop
endfacet
facet normal 1.81423508876069e-08 0.6087614290087179 -0.7933533402912373
  outer loop
    vertex 409.68727574749374 105.96519485133831 8.964466094067344
    vertex 420.1872757166327 104.92966063248387 8.169872981077877
    vertex 409.68727571663266 104.92966094540559 8.1698729810779
  endloop
endfacet
facet normal 1.81423508876069e-08 0.6087614290087179 -0.7933533402912373
  outer loop
    vertex 420.1872757166327 104.92966063248387 8.169872981077877
    vertex 409.68727574749374 105.96519485133831 8.964466094067344
    vertex 420.18727574749374 105.9651945384166 8.96446609406732
  endloop
endfacet
facet normal -2.9547105113802377e-08 -0.9914448613738107 -0.13052619222004644
  outer loop
    vertex 409.6872755616619 99.72966094540558 12.50000000000009
    vertex 402.1472755644038 99.82166143913267 11.801188578223316
    vertex 409.68727556440376 99.82166121442509 11.801188578223293
  endloop
endfacet
facet normal -2.9547105113802377e-08 -0.9914448613738107 -0.13052619222004644
  outer loop
    vertex 402.1472755644038 99.82166143913267 11.801188578223316
    vertex 409.6872755616619 99.72966094540558 12.50000000000009
    vertex 402.14727556166196 99.72966117011315 12.500000000000112
  endloop
endfacet
facet normal -2.7533519510360458e-08 -0.9238795325112854 -0.38268343236509217
  outer loop
    vertex 409.68727556440376 99.82166121442509 11.801188578223293
    vertex 402.1472755724423 100.09139257989517 11.150000000000103
    vertex 409.68727557244233 100.0913923551876 11.15000000000008
  endloop
endfacet
facet normal -2.7533519510360458e-08 -0.9238795325112854 -0.38268343236509217
  outer loop
    vertex 402.1472755724423 100.09139257989517 11.150000000000103
    vertex 409.68727556440376 99.82166121442509 11.801188578223293
    vertex 402.1472755644038 99.82166143913267 11.801188578223316
  endloop
endfacet
facet normal -2.364357064616034e-08 -0.7933533402912244 -0.6087614290087344
  outer loop
    vertex 409.68727557244233 100.0913923551876 11.15000000000008
    vertex 402.1472755852298 100.52047286090948 10.590811690796448
    vertex 409.6872755852298 100.5204726362019 10.590811690796425
  endloop
endfacet
facet normal -2.364357064616034e-08 -0.7933533402912244 -0.6087614290087344
  outer loop
    vertex 402.1472755852298 100.52047286090948 10.590811690796448
    vertex 409.68727557244233 100.0913923551876 11.15000000000008
    vertex 402.1472755724423 100.09139257989517 11.150000000000103
  endloop
endfacet
facet normal -3.8899529051989595e-09 -0.13052619222004627 -0.9914448613738112
  outer loop
    vertex 402.14727564212757 102.42966117011312 9.800000000000118
    vertex 409.68727562130147 101.73084952362876 9.892000269019606
    vertex 402.1472756213015 101.73084974833633 9.892000269019627
  endloop
endfacet
facet normal -3.8899529051989595e-09 -0.13052619222004627 -0.9914448613738112
  outer loop
    vertex 409.68727562130147 101.73084952362876 9.892000269019606
    vertex 402.14727564212757 102.42966117011312 9.800000000000118
    vertex 409.68727564212753 102.42966094540556 9.800000000000095
  endloop
endfacet
facet normal -2.36435670041721e-08 -0.793353340291236 0.608761429008719
  outer loop
    vertex 409.6872755852298 100.5204726362019 14.409188309203778
    vertex 402.1472755724423 100.09139257989517 13.85000000000012
    vertex 409.68727557244233 100.0913923551876 13.8500000000001
  endloop
endfacet
facet normal -2.36435670041721e-08 -0.793353340291236 0.608761429008719
  outer loop
    vertex 402.1472755724423 100.09139257989517 13.85000000000012
    vertex 409.6872755852298 100.5204726362019 14.409188309203778
    vertex 402.14727558522986 100.52047286090948 14.4091883092038
  endloop
endfacet
facet normal 2.3643571994652217e-08 0.7933533402912345 -0.6087614290087211
  outer loop
    vertex 409.68727574749374 105.96519485133831 8.964466094067344
    vertex 420.1872757711743 106.75978765140607 10.000000000000071
    vertex 420.18727574749374 105.9651945384166 8.96446609406732
  endloop
endfacet
facet normal 2.3643571994652217e-08 0.7933533402912345 -0.6087614290087211
  outer loop
    vertex 420.1872757711743 106.75978765140607 10.000000000000071
    vertex 409.68727574749374 105.96519485133831 8.964466094067344
    vertex 409.68727577117426 106.75978796432777 10.000000000000094
  endloop
endfacet
facet normal 1.8142344714403107e-08 0.6087614290087233 -0.7933533402912328
  outer loop
    vertex 402.1472756990253 104.3388494793168 10.590811690796448
    vertex 409.6872756823603 103.77966094540557 10.161731409782115
    vertex 402.1472756823603 103.77966117011313 10.161731409782137
  endloop
endfacet
facet normal 1.8142344714403107e-08 0.6087614290087233 -0.7933533402912328
  outer loop
    vertex 409.6872756823603 103.77966094540557 10.161731409782115
    vertex 402.1472756990253 104.3388494793168 10.590811690796448
    vertex 409.68727569902524 104.33884925460924 10.590811690796425
  endloop
endfacet
facet normal 2.95471006651615e-08 0.9914448613738107 0.1305261922200464
  outer loop
    vertex 402.1472757225931 105.12966117011314 12.500000000000112
    vertex 409.6872757198513 105.0376606763861 13.198811421776886
    vertex 409.68727572259314 105.12966094540558 12.50000000000009
  endloop
endfacet
facet normal 2.95471006651615e-08 0.9914448613738107 0.1305261922200464
  outer loop
    vertex 409.6872757198513 105.0376606763861 13.198811421776886
    vertex 402.1472757225931 105.12966117011314 12.500000000000112
    vertex 402.14727571985134 105.0376609010936 13.19881142177691
  endloop
endfacet
facet normal 2.7533510309503873e-08 0.9238795325112854 -0.3826834323650922
  outer loop
    vertex 402.14727571181277 104.7679297603311 11.150000000000103
    vertex 409.6872757198513 105.0376606763861 11.801188578223293
    vertex 409.68727571181284 104.76792953562358 11.15000000000008
  endloop
endfacet
facet normal 2.7533510309503873e-08 0.9238795325112854 -0.3826834323650922
  outer loop
    vertex 409.6872757198513 105.0376606763861 11.801188578223293
    vertex 402.14727571181277 104.7679297603311 11.150000000000103
    vertex 402.14727571985134 105.0376609010936 11.801188578223316
  endloop
endfacet
facet normal 2.9547099884026226e-08 0.9914448613738107 -0.1305261922200464
  outer loop
    vertex 402.14727571985134 105.0376609010936 11.801188578223316
    vertex 409.68727572259314 105.12966094540558 12.50000000000009
    vertex 409.6872757198513 105.0376606763861 11.801188578223293
  endloop
endfacet
facet normal 2.9547099884026226e-08 0.9914448613738107 -0.1305261922200464
  outer loop
    vertex 409.68727572259314 105.12966094540558 12.50000000000009
    vertex 402.14727571985134 105.0376609010936 11.801188578223316
    vertex 402.1472757225931 105.12966117011314 12.500000000000112
  endloop
endfacet
facet normal 1.1404758544287034e-08 0.3826834323650973 0.9238795325112836
  outer loop
    vertex 420.18727568069426 103.72375585799648 17.329629131445415
    vertex 409.68727571663277 104.92966094540559 16.83012701892228
    vertex 409.6872756806943 103.7237561709182 17.32962913144544
  endloop
endfacet
facet normal 1.1404758544287034e-08 0.3826834323650973 0.9238795325112836
  outer loop
    vertex 409.68727571663277 104.92966094540559 16.83012701892228
    vertex 420.18727568069426 103.72375585799648 17.329629131445415
    vertex 420.1872757166327 104.92966063248387 16.83012701892226
  endloop
endfacet
facet normal 2.7533522752036138e-08 0.923879532511283 0.3826834323650978
  outer loop
    vertex 409.6872757860605 107.25929007685093 13.794095225512692
    vertex 420.1872757711743 106.75978765140607 15.000000000000062
    vertex 420.18727578606047 107.25928976392922 13.79409522551267
  endloop
endfacet
facet normal 2.7533522752036138e-08 0.923879532511283 0.3826834323650978
  outer loop
    vertex 420.1872757711743 106.75978765140607 15.000000000000062
    vertex 409.6872757860605 107.25929007685093 13.794095225512692
    vertex 409.68727577117437 106.75978796432777 15.000000000000085
  endloop
endfacet
facet normal 2.7533512599676616e-08 0.9238795325112854 0.3826834323650921
  outer loop
    vertex 402.14727571985134 105.0376609010936 13.19881142177691
    vertex 409.68727571181284 104.76792953562358 13.8500000000001
    vertex 409.6872757198513 105.0376606763861 13.198811421776886
  endloop
endfacet
facet normal 2.7533512599676616e-08 0.9238795325112854 0.3826834323650921
  outer loop
    vertex 409.68727571181284 104.76792953562358 13.8500000000001
    vertex 402.14727571985134 105.0376609010936 13.19881142177691
    vertex 402.14727571181277 104.7679297603311 13.85000000000012
  endloop
endfacet
facet normal -1.814234562208507e-08 -0.6087614290087111 0.7933533402912423
  outer loop
    vertex 409.6872755852298 100.5204726362019 14.409188309203778
    vertex 402.14727560189476 101.07966117011314 14.838268590218087
    vertex 402.14727558522986 100.52047286090948 14.4091883092038
  endloop
endfacet
facet normal -1.814234562208507e-08 -0.6087614290087111 0.7933533402912423
  outer loop
    vertex 402.14727560189476 101.07966117011314 14.838268590218087
    vertex 409.6872755852298 100.5204726362019 14.409188309203778
    vertex 409.6872756018948 101.07966094540558 14.838268590218066
  endloop
endfacet
facet normal -1.8142350369916487e-08 -0.6087614290087312 -0.7933533402912268
  outer loop
    vertex 402.1472756018947 101.07966117011314 10.161731409782137
    vertex 409.6872755852298 100.5204726362019 10.590811690796425
    vertex 402.1472755852298 100.52047286090948 10.590811690796448
  endloop
endfacet
facet normal -1.8142350369916487e-08 -0.6087614290087312 -0.7933533402912268
  outer loop
    vertex 409.6872755852298 100.5204726362019 10.590811690796425
    vertex 402.1472756018947 101.07966117011314 10.161731409782137
    vertex 409.6872756018948 101.07966094540558 10.161731409782115
  endloop
endfacet
facet normal 0.9999999999999996 -2.9802068857271027e-08 -3.863102369705648e-15
  outer loop
    vertex 420.1872754981946 97.60003150103849 11.205904774487465
    vertex 420.1872754981946 97.60003150103849 13.79409522551267
    vertex 420.1872754931172 97.42966063248385 12.500000000000068
  endloop
endfacet
facet normal 0.9999999999999996 -2.9802068857271027e-08 -3.863102369705648e-15
  outer loop
    vertex 420.1872754981946 97.60003150103849 13.79409522551267
    vertex 420.1872754981946 97.60003150103849 11.205904774487465
    vertex 420.1872755130808 98.09953361356165 10.000000000000071
  endloop
endfacet
facet normal 0.9999999999999996 -2.9802068857271027e-08 -3.863102369705648e-15
  outer loop
    vertex 420.1872754981946 97.60003150103849 13.79409522551267
    vertex 420.1872755130808 98.09953361356165 10.000000000000071
    vertex 420.1872755130808 98.09953361356165 15.000000000000062
  endloop
endfacet
facet normal 0.9999999999999996 -2.9802068857271027e-08 -3.863102369705648e-15
  outer loop
    vertex 420.1872755130808 98.09953361356165 15.000000000000062
    vertex 420.1872755130808 98.09953361356165 10.000000000000071
    vertex 420.18727553676126 98.89412672655111 8.96446609406732
  endloop
endfacet
facet normal 0.9999999999999996 -2.9802068857271027e-08 -3.863102369705648e-15
  outer loop
    vertex 420.1872755130808 98.09953361356165 15.000000000000062
    vertex 420.18727553676126 98.89412672655111 8.96446609406732
    vertex 420.1872755367614 98.89412672655111 16.035533905932812
  endloop
endfacet
facet normal 0.9999999999999996 -2.9802068857271027e-08 -3.863102369705648e-15
  outer loop
    vertex 420.1872755367614 98.89412672655111 16.035533905932812
    vertex 420.18727553676126 98.89412672655111 8.96446609406732
    vertex 420.18727556762235 99.92966063248385 8.169872981077877
  endloop
endfacet
facet normal 0.9999999999999996 -2.9802068857271027e-08 -3.863102369705648e-15
  outer loop
    vertex 420.1872755367614 98.89412672655111 16.035533905932812
    vertex 420.18727556762235 99.92966063248385 8.169872981077877
    vertex 420.18727556762246 99.92966063248386 16.83012701892226
  endloop
endfacet
facet normal 0.9999999999999996 -2.9802068857271027e-08 -3.863102369705648e-15
  outer loop
    vertex 420.18727556762246 99.92966063248386 16.83012701892226
    vertex 420.18727556762235 99.92966063248385 8.169872981077877
    vertex 420.1872756035608 101.13556540697125 7.670370868554718
  endloop
endfacet
facet normal 0.9999999999999996 -2.9802068857271027e-08 -3.863102369705648e-15
  outer loop
    vertex 420.18727556762246 99.92966063248386 16.83012701892226
    vertex 420.1872756035608 101.13556540697125 7.670370868554718
    vertex 420.1872756035609 101.13556540697125 17.329629131445415
  endloop
endfacet
facet normal 0.9999999999999996 -2.9802068857271027e-08 -3.863102369705648e-15
  outer loop
    vertex 420.1872756035609 101.13556540697125 17.329629131445415
    vertex 420.1872756035608 101.13556540697125 7.670370868554718
    vertex 420.1872756421276 102.42966063248386 7.500000000000054
  endloop
endfacet
facet normal 0.9999999999999996 -2.9802068857271027e-08 -3.863102369705648e-15
  outer loop
    vertex 420.1872756035609 101.13556540697125 17.329629131445415
    vertex 420.1872756421276 102.42966063248386 7.500000000000054
    vertex 420.1872756421276 102.42966063248386 17.50000000000008
  endloop
endfacet
facet normal 0.9999999999999996 -2.9802068857271027e-08 -3.863102369705648e-15
  outer loop
    vertex 420.1872756421276 102.42966063248386 17.50000000000008
    vertex 420.1872756421276 102.42966063248386 7.500000000000054
    vertex 420.18727568069426 103.72375585799648 7.670370868554718
  endloop
endfacet
facet normal 0.9999999999999996 -2.9802068857271027e-08 -3.863102369705648e-15
  outer loop
    vertex 420.1872756421276 102.42966063248386 17.50000000000008
    vertex 420.18727568069426 103.72375585799648 7.670370868554718
    vertex 420.18727568069426 103.72375585799648 17.329629131445415
  endloop
endfacet
facet normal 0.9999999999999996 -2.9802068857271027e-08 -3.863102369705648e-15
  outer loop
    vertex 420.18727568069426 103.72375585799648 17.329629131445415
    vertex 420.18727568069426 103.72375585799648 7.670370868554718
    vertex 420.1872757166327 104.92966063248387 8.169872981077877
  endloop
endfacet
facet normal 0.9999999999999996 -2.9802068857271027e-08 -3.863102369705648e-15
  outer loop
    vertex 420.18727568069426 103.72375585799648 17.329629131445415
    vertex 420.1872757166327 104.92966063248387 8.169872981077877
    vertex 420.1872757166327 104.92966063248387 16.83012701892226
  endloop
endfacet
facet normal 0.9999999999999996 -2.9802068857271027e-08 -3.863102369705648e-15
  outer loop
    vertex 420.1872757166327 104.92966063248387 16.83012701892226
    vertex 420.1872757166327 104.92966063248387 8.169872981077877
    vertex 420.18727574749374 105.9651945384166 8.96446609406732
  endloop
endfacet
facet normal 0.9999999999999996 -2.9802068857271027e-08 -3.863102369705648e-15
  outer loop
    vertex 420.1872757166327 104.92966063248387 16.83012701892226
    vertex 420.18727574749374 105.9651945384166 8.96446609406732
    vertex 420.1872757474938 105.96519453841664 16.035533905932812
  endloop
endfacet
facet normal 0.9999999999999996 -2.9802068857271027e-08 -3.863102369705648e-15
  outer loop
    vertex 420.1872757474938 105.96519453841664 16.035533905932812
    vertex 420.18727574749374 105.9651945384166 8.96446609406732
    vertex 420.1872757711743 106.75978765140607 10.000000000000071
  endloop
endfacet
facet normal 0.9999999999999996 -2.9802068857271027e-08 -3.863102369705648e-15
  outer loop
    vertex 420.1872757474938 105.96519453841664 16.035533905932812
    vertex 420.1872757711743 106.75978765140607 10.000000000000071
    vertex 420.1872757711743 106.75978765140607 15.000000000000062
  endloop
endfacet
facet normal 0.9999999999999996 -2.9802068857271027e-08 -3.863102369705648e-15
  outer loop
    vertex 420.1872757711743 106.75978765140607 15.000000000000062
    vertex 420.1872757711743 106.75978765140607 10.000000000000071
    vertex 420.18727578606047 107.25928976392922 11.205904774487465
  endloop
endfacet
facet normal 0.9999999999999996 -2.9802068857271027e-08 -3.863102369705648e-15
  outer loop
    vertex 420.1872757711743 106.75978765140607 15.000000000000062
    vertex 420.18727578606047 107.25928976392922 11.205904774487465
    vertex 420.18727578606047 107.25928976392922 13.79409522551267
  endloop
endfacet
facet normal 0.9999999999999996 -2.9802068857271027e-08 -3.863102369705648e-15
  outer loop
    vertex 420.18727578606047 107.25928976392922 13.79409522551267
    vertex 420.18727578606047 107.25928976392922 11.205904774487465
    vertex 420.1872757911379 107.42966063248389 12.500000000000068
  endloop
endfacet
endsolid Design - Rolled
