solid NARFSTR Solid
facet normal 1.1426128202684995e-09 -1.0 -6.804413983711849e-11
  outer loop
    vertex 142.9498483000651 -881.7757282653333 101.44999866712455
    vertex 140.7498483006943 -881.7757282657315 100.14999867435417
    vertex 142.94984829913528 -881.7757282653333 100.14999866712455
  endloop
endfacet
facet normal 1.1426128202684995e-09 -1.0 -6.804413983711849e-11
  outer loop
    vertex 140.7498483006943 -881.7757282657315 100.14999867435417
    vertex 142.9498483000651 -881.7757282653333 101.44999866712455
    vertex 140.7498483008282 -881.7757282676456 101.44999867633412
  endloop
endfacet
facet normal 6.261985214089977e-09 0.32487799352177466 0.9457559353899218
  outer loop
    vertex 140.7498483008282 -881.7757282676456 101.44999867633412
    vertex 142.9498482957067 -877.991283828968 100.14999866712455
    vertex 140.74984829176722 -877.9912838281315 100.14999868517386
  endloop
endfacet
facet normal 6.261985214089977e-09 0.32487799352177466 0.9457559353899218
  outer loop
    vertex 142.9498482957067 -877.991283828968 100.14999866712455
    vertex 140.7498483008282 -881.7757282676456 101.44999867633412
    vertex 142.9498483000651 -881.7757282653333 101.44999866712455
  endloop
endfacet
facet normal -2.1470274988808203e-09 -0.3248779929122307 -0.945755935599307
  outer loop
    vertex 142.94984828025446 -872.8324687015179 96.90170274304454
    vertex 140.7498482991181 -876.3258020273934 98.10170274461802
    vertex 140.7498482810176 -872.8324687038303 96.90170275225411
  endloop
endfacet
facet normal -2.1470274988808203e-09 -0.3248779929122307 -0.945755935599307
  outer loop
    vertex 140.7498482991181 -876.3258020273934 98.10170274461802
    vertex 142.94984828025446 -872.8324687015179 96.90170274304454
    vertex 142.94984829730313 -876.3258020273934 98.10170274304453
  endloop
endfacet
facet normal 2.1580254943106282e-09 -0.3248779945752396 0.9457559350280444
  outer loop
    vertex 140.74984824192774 -876.3258020273931 92.00292728852918
    vertex 142.94984823639942 -872.8324687015179 93.20292728695577
    vertex 140.74984823563625 -872.8324686993548 93.20292729616536
  endloop
endfacet
facet normal 2.1580254943106282e-09 -0.3248779945752396 0.9457559350280444
  outer loop
    vertex 142.94984823639942 -872.8324687015179 93.20292728695577
    vertex 140.74984824192774 -876.3258020273931 92.00292728852918
    vertex 142.9498482193507 -876.3258020273931 92.00292728695582
  endloop
endfacet
facet normal -6.2693344966391905e-09 0.32487799395808087 -0.9457559352400456
  outer loop
    vertex 142.94984822175056 -877.991283828968 90.05122321103585
    vertex 140.74984821662903 -881.7757282631703 88.75122322024538
    vertex 140.7498482058709 -877.9912838298045 90.05122322908517
  endloop
endfacet
facet normal -6.2693344966391905e-09 0.32487799395808087 -0.9457559352400456
  outer loop
    vertex 140.74984821662903 -881.7757282631703 88.75122322024538
    vertex 142.94984822175056 -877.991283828968 90.05122321103585
    vertex 142.94984821739217 -881.7757282653333 88.7512232110358
  endloop
endfacet
facet normal -1.1426020937963303e-09 -1.0 -6.804574003500199e-11
  outer loop
    vertex 142.94984821832193 -881.7757282653333 90.05122321103585
    vertex 140.74984821662903 -881.7757282631703 88.75122322024538
    vertex 142.94984821739217 -881.7757282653333 88.7512232110358
  endloop
endfacet
facet normal -1.1426020937963303e-09 -1.0 -6.804574003500199e-11
  outer loop
    vertex 140.74984821662903 -881.7757282631703 88.75122322024538
    vertex 142.94984821832193 -881.7757282653333 90.05122321103585
    vertex 140.74984824302265 -881.7757282650845 90.0512232182654
  endloop
endfacet
facet normal -4.863977325035608e-09 -5.153703657423116e-11 -1.0
  outer loop
    vertex 140.74984824302265 -881.7757282650845 90.0512232182654
    vertex 142.94984829106104 -885.0436863534575 90.05122321103585
    vertex 140.7498482015027 -885.0436863470674 90.05122322867898
  endloop
endfacet
facet normal -4.863977325035608e-09 -5.153703657423116e-11 -1.0
  outer loop
    vertex 142.94984829106104 -885.0436863534575 90.05122321103585
    vertex 140.74984824302265 -881.7757282650845 90.0512232182654
    vertex 142.94984821832193 -881.7757282653333 90.05122321103585
  endloop
endfacet
facet normal 4.875715207673039e-09 5.191943520415233e-11 1.0
  outer loop
    vertex 140.74984830823468 -885.0436863535452 100.14999868484502
    vertex 142.94984829913528 -881.7757282653333 100.14999866712455
    vertex 140.7498483006943 -881.7757282657315 100.14999867435417
  endloop
endfacet
facet normal 4.875715207673039e-09 5.191943520415233e-11 1.0
  outer loop
    vertex 142.94984829913528 -881.7757282653333 100.14999866712455
    vertex 140.74984830823468 -885.0436863535452 100.14999868484502
    vertex 142.9498483079451 -885.0436863534575 100.14999866712455
  endloop
endfacet
facet normal -2.2280923026206167e-11 1.0 -7.5335393373155e-11
  outer loop
    vertex 140.74984820244228 -868.9757282941367 90.05122322908517
    vertex 142.94984829913528 -868.9757282933 100.14999866712455
    vertex 142.94984821832193 -868.9757282933 90.05122321103585
  endloop
endfacet
facet normal -2.2280923026206167e-11 1.0 -7.5335393373155e-11
  outer loop
    vertex 142.94984829913528 -868.9757282933 100.14999866712455
    vertex 140.74984820244228 -868.9757282941367 90.05122322908517
    vertex 140.74984829519582 -868.9757282924635 100.14999868517386
  endloop
endfacet
facet normal -4.738166527342781e-09 -0.7933533402912463 -0.6087614290087062
  outer loop
    vertex 142.9498482549706 -881.5279572912226 94.17591707505797
    vertex 140.74984825413918 -881.2340551406144 93.79289635237598
    vertex 142.94984825271504 -881.2340551408322 93.7928963355368
  endloop
endfacet
facet normal -4.738166527342781e-09 -0.7933533402912463 -0.6087614290087062
  outer loop
    vertex 140.74984825413918 -881.2340551406144 93.79289635237598
    vertex 142.9498482549706 -881.5279572912226 94.17591707505797
    vertex 140.74984825639473 -881.5279572910046 94.17591709189713
  endloop
endfacet
facet normal 2.83758706381143e-09 -0.9238795325112903 0.38268343236508157
  outer loop
    vertex 142.94984826695114 -881.5279572912226 96.02530480310236
    vertex 140.74984826534393 -881.7127119064111 95.57926772171609
    vertex 142.9498482639198 -881.7127119066291 95.57926770487693
  endloop
endfacet
facet normal 2.83758706381143e-09 -0.9238795325112903 0.38268343236508157
  outer loop
    vertex 140.74984826534393 -881.7127119064111 95.57926772171609
    vertex 142.94984826695114 -881.5279572912226 96.02530480310236
    vertex 140.74984826837527 -881.5279572910046 96.02530481994152
  endloop
endfacet
facet normal 7.575753599007445e-09 -0.13052619222008424 0.9914448613738062
  outer loop
    vertex 142.94984827339562 -880.4049973030857 96.88698230842031
    vertex 140.74984827559558 -879.9263405370709 96.94999868396374
    vertex 140.74984827481975 -880.4049973028677 96.88698232525948
  endloop
endfacet
facet normal 7.575753599007445e-09 -0.13052619222008424 0.9914448613738062
  outer loop
    vertex 140.74984827559558 -879.9263405370709 96.94999868396374
    vertex 142.94984827339562 -880.4049973030857 96.88698230842031
    vertex 142.94984827417144 -879.926340537289 96.94999866712458
  endloop
endfacet
facet normal -6.132775055182953e-09 -0.6087614290087356 -0.7933533402912235
  outer loop
    vertex 142.94984825110527 -880.851034401311 93.49899418514654
    vertex 140.74984825413918 -881.2340551406144 93.79289635237598
    vertex 140.74984825252943 -880.8510344010931 93.49899420198571
  endloop
endfacet
facet normal -6.132775055182953e-09 -0.6087614290087356 -0.7933533402912235
  outer loop
    vertex 140.74984825413918 -881.2340551406144 93.79289635237598
    vertex 142.94984825110527 -880.851034401311 93.49899418514654
    vertex 142.94984825271504 -881.2340551408322 93.7928963355368
  endloop
endfacet
facet normal 6.012145036576981e-09 -0.6087614290086906 0.7933533402912584
  outer loop
    vertex 142.9498482696581 -881.2340551408323 96.40832554262354
    vertex 140.74984827328032 -880.8510344010931 96.70222770985298
    vertex 140.74984827108224 -881.2340551406144 96.40832555946271
  endloop
endfacet
facet normal 6.012145036576981e-09 -0.6087614290086906 0.7933533402912584
  outer loop
    vertex 140.74984827328032 -880.8510344010931 96.70222770985298
    vertex 142.9498482696581 -881.2340551408323 96.40832554262354
    vertex 142.94984827185618 -880.851034401311 96.7022276930138
  endloop
endfacet
facet normal -7.109445104132776e-09 -0.38268343236508157 -0.9238795325112903
  outer loop
    vertex 142.94984825025094 -880.4049973030857 93.31423956974004
    vertex 140.74984825252943 -880.8510344010931 93.49899420198571
    vertex 140.74984825167508 -880.4049973028677 93.3142395865792
  endloop
endfacet
facet normal -7.109445104132776e-09 -0.38268343236508157 -0.9238795325112903
  outer loop
    vertex 140.74984825252943 -880.8510344010931 93.49899420198571
    vertex 142.94984825025094 -880.4049973030857 93.31423956974004
    vertex 142.94984825110527 -880.851034401311 93.49899418514654
  endloop
endfacet
facet normal -7.601618208886009e-09 -0.13052619222005055 -0.9914448613738105
  outer loop
    vertex 142.94984824242204 -879.926340537289 93.25122321103579
    vertex 140.74984825167508 -880.4049973028677 93.3142395865792
    vertex 140.7498482438462 -879.9263405370709 93.25122322787496
  endloop
endfacet
facet normal -7.601618208886009e-09 -0.13052619222005055 -0.9914448613738105
  outer loop
    vertex 140.74984825167508 -880.4049973028677 93.3142395865792
    vertex 142.94984824242204 -879.926340537289 93.25122321103579
    vertex 142.94984825025094 -880.4049973030857 93.31423956974004
  endloop
endfacet
facet normal 7.0336138999505334e-09 -0.38268343236508157 0.9238795325112901
  outer loop
    vertex 142.94984827185618 -880.851034401311 96.7022276930138
    vertex 140.74984827481975 -880.4049973028677 96.88698232525948
    vertex 140.74984827328032 -880.8510344010931 96.70222770985298
  endloop
endfacet
facet normal 7.0336138999505334e-09 -0.38268343236508157 0.9238795325112901
  outer loop
    vertex 140.74984827481975 -880.4049973028677 96.88698232525948
    vertex 142.94984827185618 -880.851034401311 96.7022276930138
    vertex 142.94984827339562 -880.4049973030857 96.88698230842031
  endloop
endfacet
facet normal -1.097300065033313e-09 -0.991444861373819 -0.13052619221998632
  outer loop
    vertex 142.94984826077058 -881.7757282653333 95.10061093908016
    vertex 140.74984825914234 -881.7127119064111 94.62195419012257
    vertex 142.94984825771817 -881.7127119066291 94.6219541732834
  endloop
endfacet
facet normal -1.097300065033313e-09 -0.991444861373819 -0.13052619221998632
  outer loop
    vertex 140.74984825914234 -881.7127119064111 94.62195419012257
    vertex 142.94984826077058 -881.7757282653333 95.10061093908016
    vertex 140.74984826219472 -881.7757282651153 95.10061095591934
  endloop
endfacet
facet normal 5.916793195982183e-09 0.006807961828236563 0.9999768255593454
  outer loop
    vertex 142.94984827417144 -879.926340537289 96.94999866712458
    vertex 140.7498482810176 -872.8324687038303 96.90170275225411
    vertex 140.74984827559558 -879.9263405370709 96.94999868396374
  endloop
endfacet
facet normal 5.916793195982183e-09 0.006807961828236563 0.9999768255593454
  outer loop
    vertex 140.7498482810176 -872.8324687038303 96.90170275225411
    vertex 142.94984827417144 -879.926340537289 96.94999866712458
    vertex 142.94984828025446 -872.8324687015179 96.90170274304454
  endloop
endfacet
facet normal -3.02065978933034e-09 -0.9238795325112571 -0.3826834323651612
  outer loop
    vertex 142.94984825771817 -881.7127119066291 94.6219541732834
    vertex 140.74984825639473 -881.5279572910046 94.17591709189713
    vertex 142.9498482549706 -881.5279572912226 94.17591707505797
  endloop
endfacet
facet normal -3.02065978933034e-09 -0.9238795325112571 -0.3826834323651612
  outer loop
    vertex 140.74984825639473 -881.5279572910046 94.17591709189713
    vertex 142.94984825771817 -881.7127119066291 94.6219541732834
    vertex 140.74984825914234 -881.7127119064111 94.62195419012257
  endloop
endfacet
facet normal -5.923717817053968e-09 -0.006807961826085936 -0.9999768255593598
  outer loop
    vertex 142.94984823639942 -872.8324687015179 93.20292728695577
    vertex 140.7498482438462 -879.9263405370709 93.25122322787496
    vertex 140.74984823563625 -872.8324686993548 93.20292729616536
  endloop
endfacet
facet normal -5.923717817053968e-09 -0.006807961826085936 -0.9999768255593598
  outer loop
    vertex 140.7498482438462 -879.9263405370709 93.25122322787496
    vertex 142.94984823639942 -872.8324687015179 93.20292728695577
    vertex 142.94984824242204 -879.926340537289 93.25122321103579
  endloop
endfacet
facet normal 9.00838839864446e-10 -0.991444861373819 0.13052619221998632
  outer loop
    vertex 142.9498482639198 -881.7127119066291 95.57926770487693
    vertex 140.74984826219472 -881.7757282651153 95.10061095591934
    vertex 142.94984826077058 -881.7757282653333 95.10061093908016
  endloop
endfacet
facet normal 9.00838839864446e-10 -0.991444861373819 0.13052619221998632
  outer loop
    vertex 140.74984826219472 -881.7757282651153 95.10061095591934
    vertex 142.9498482639198 -881.7127119066291 95.57926770487693
    vertex 140.74984826534393 -881.7127119064111 95.57926772171609
  endloop
endfacet
facet normal 4.580958424429748e-09 -0.7933533402912635 0.6087614290086837
  outer loop
    vertex 142.9498482696581 -881.2340551408323 96.40832554262354
    vertex 140.74984826837527 -881.5279572910046 96.02530481994152
    vertex 142.94984826695114 -881.5279572912226 96.02530480310236
  endloop
endfacet
facet normal 4.580958424429748e-09 -0.7933533402912635 0.6087614290086837
  outer loop
    vertex 140.74984826837527 -881.5279572910046 96.02530481994152
    vertex 142.9498482696581 -881.2340551408323 96.40832554262354
    vertex 140.74984827108224 -881.2340551406144 96.40832555946271
  endloop
endfacet
facet normal 8.20423614443302e-09 -3.120051369825637e-18 1.0
  outer loop
    vertex 142.9498482957067 -877.991283828968 100.14999866712455
    vertex 140.74984829519582 -868.9757282924635 100.14999868517386
    vertex 140.74984829176722 -877.9912838281315 100.14999868517386
  endloop
endfacet
facet normal 8.20423614443302e-09 -3.120051369825637e-18 1.0
  outer loop
    vertex 140.74984829519582 -868.9757282924635 100.14999868517386
    vertex 142.9498482957067 -877.991283828968 100.14999866712455
    vertex 142.94984829913528 -868.9757282933 100.14999866712455
  endloop
endfacet
facet normal -8.20423609990573e-09 -3.1200821376322632e-18 -1.0
  outer loop
    vertex 142.94984821832193 -868.9757282933 90.05122321103585
    vertex 140.7498482058709 -877.9912838298045 90.05122322908517
    vertex 140.74984820244228 -868.9757282941367 90.05122322908517
  endloop
endfacet
facet normal -8.20423609990573e-09 -3.1200821376322632e-18 -1.0
  outer loop
    vertex 140.7498482058709 -877.9912838298045 90.05122322908517
    vertex 142.94984821832193 -868.9757282933 90.05122321103585
    vertex 142.94984822175056 -877.991283828968 90.05122321103585
  endloop
endfacet
facet normal -1.0 2.911470358154435e-10 9.927197564043619e-09
  outer loop
    vertex 140.74984829176722 -877.9912838281315 100.14999868517386
    vertex 140.7498483006943 -881.7757282657315 100.14999867435417
    vertex 140.7498483008282 -881.7757282676456 101.44999867633412
  endloop
endfacet
facet normal -1.0 2.911470358154435e-10 9.927197564043619e-09
  outer loop
    vertex 140.74984830430634 -888.7075888136923 99.66763677505006
    vertex 140.74984829561612 -888.7075888136923 98.63236059463996
    vertex 140.74984829996347 -888.7757371611141 99.14999868484502
  endloop
endfacet
facet normal -1.0 2.911470358154435e-10 9.927197564043619e-09
  outer loop
    vertex 140.74984829561612 -888.7075888136923 98.63236059463996
    vertex 140.74984830430634 -888.7075888136923 99.66763677505006
    vertex 140.7498483083488 -888.5077879686829 100.14999868484502
  endloop
endfacet
facet normal -1.0 2.911470358154435e-10 9.927197564043619e-09
  outer loop
    vertex 140.74984829561612 -888.7075888136923 98.63236059463996
    vertex 140.7498483083488 -888.5077879686829 100.14999868484502
    vertex 140.7498482915605 -888.5077879686829 98.14999868484502
  endloop
endfacet
facet normal -1.0 2.911470358154435e-10 9.927197564043619e-09
  outer loop
    vertex 140.7498482915605 -888.5077879686829 98.14999868484502
    vertex 140.7498483083488 -888.5077879686829 100.14999868484502
    vertex 140.74984831181527 -888.1899507234872 100.56421224721811
  endloop
endfacet
facet normal -1.0 2.911470358154435e-10 9.927197564043619e-09
  outer loop
    vertex 140.7498482915605 -888.5077879686829 98.14999868484502
    vertex 140.74984831181527 -888.1899507234872 100.56421224721811
    vertex 140.74984828807308 -888.1899507234872 97.73578512247191
  endloop
endfacet
facet normal -1.0 2.911470358154435e-10 9.927197564043619e-09
  outer loop
    vertex 140.74984828807308 -888.1899507234872 97.73578512247191
    vertex 140.74984831181527 -888.1899507234872 100.56421224721811
    vertex 140.7498483144696 -887.7757371611141 100.88204949241388
  endloop
endfacet
facet normal -1.0 2.911470358154435e-10 9.927197564043619e-09
  outer loop
    vertex 140.74984828807308 -888.1899507234872 97.73578512247191
    vertex 140.7498483144696 -887.7757371611141 100.88204949241388
    vertex 140.74984828539147 -887.7757371611141 97.41794787727615
  endloop
endfacet
facet normal -1.0 2.911470358154435e-10 9.927197564043619e-09
  outer loop
    vertex 140.74984828539147 -887.7757371611141 97.41794787727615
    vertex 140.7498483144696 -887.7757371611141 100.88204949241388
    vertex 140.74984831613085 -887.293375251319 101.08185033742315
  endloop
endfacet
facet normal -1.0 2.911470358154435e-10 9.927197564043619e-09
  outer loop
    vertex 140.74984828539147 -887.7757371611141 97.41794787727615
    vertex 140.74984831613085 -887.293375251319 101.08185033742315
    vertex 140.74984828369844 -887.293375251319 97.21814703226688
  endloop
endfacet
facet normal -1.0 2.911470358154435e-10 9.927197564043619e-09
  outer loop
    vertex 140.74984828369844 -887.293375251319 97.21814703226688
    vertex 140.74984831613085 -887.293375251319 101.08185033742315
    vertex 140.74984831668587 -886.775737161114 101.149998684845
  endloop
endfacet
facet normal -1.0 2.911470358154435e-10 9.927197564043619e-09
  outer loop
    vertex 140.74984828369844 -887.293375251319 97.21814703226688
    vertex 140.74984831668587 -886.775737161114 101.149998684845
    vertex 140.74984828310932 -886.775737161114 97.14999868484502
  endloop
endfacet
facet normal -1.0 2.911470358154435e-10 9.927197564043619e-09
  outer loop
    vertex 140.74984828310932 -886.775737161114 97.14999868484502
    vertex 140.74984831668587 -886.775737161114 101.149998684845
    vertex 140.74984831609677 -886.2580990709089 101.08185033742313
  endloop
endfacet
facet normal -1.0 2.911470358154435e-10 9.927197564043619e-09
  outer loop
    vertex 140.74984828310932 -886.775737161114 97.14999868484502
    vertex 140.74984831609677 -886.2580990709089 101.08185033742313
    vertex 140.74984828366433 -886.2580990709089 97.21814703226687
  endloop
endfacet
facet normal -1.0 2.911470358154435e-10 9.927197564043619e-09
  outer loop
    vertex 140.74984828366433 -886.2580990709089 97.21814703226687
    vertex 140.74984831609677 -886.2580990709089 101.08185033742313
    vertex 140.74984831440372 -885.7757371611141 100.88204949241388
  endloop
endfacet
facet normal -1.0 2.911470358154435e-10 9.927197564043619e-09
  outer loop
    vertex 140.74984828366433 -886.2580990709089 97.21814703226687
    vertex 140.74984831440372 -885.7757371611141 100.88204949241388
    vertex 140.74984828532558 -885.7757371611141 97.41794787727615
  endloop
endfacet
facet normal -1.0 2.911470358154435e-10 9.927197564043619e-09
  outer loop
    vertex 140.74984828532558 -885.7757371611141 97.41794787727615
    vertex 140.74984831440372 -885.7757371611141 100.88204949241388
    vertex 140.74984831172213 -885.361523598741 100.56421224721811
  endloop
endfacet
facet normal -1.0 2.911470358154435e-10 9.927197564043619e-09
  outer loop
    vertex 140.74984828532558 -885.7757371611141 97.41794787727615
    vertex 140.74984831172213 -885.361523598741 100.56421224721811
    vertex 140.74984828797992 -885.361523598741 97.73578512247191
  endloop
endfacet
facet normal -1.0 2.911470358154435e-10 9.927197564043619e-09
  outer loop
    vertex 140.74984828797992 -885.361523598741 97.73578512247191
    vertex 140.74984831172213 -885.361523598741 100.56421224721811
    vertex 140.74984830823468 -885.0436863535452 100.14999868484502
  endloop
endfacet
facet normal -1.0 2.911470358154435e-10 9.927197564043619e-09
  outer loop
    vertex 140.74984828797992 -885.361523598741 97.73578512247191
    vertex 140.74984830823468 -885.0436863535452 100.14999868484502
    vertex 140.7498482914464 -885.0436863535452 98.14999868484502
  endloop
endfacet
facet normal -1.0 2.911470358154435e-10 9.927197564043619e-09
  outer loop
    vertex 140.7498482914464 -885.0436863535452 98.14999868484502
    vertex 140.74984830823468 -885.0436863535452 100.14999868484502
    vertex 140.7498483006943 -881.7757282657315 100.14999867435417
  endloop
endfacet
facet normal -1.0 2.911470358154435e-10 9.927197564043619e-09
  outer loop
    vertex 140.7498482914464 -885.0436863535452 98.14999868484502
    vertex 140.7498483006943 -881.7757282657315 100.14999867435417
    vertex 140.7498482991181 -876.3258020273934 98.10170274461802
  endloop
endfacet
facet normal -1.0 2.911470358154435e-10 9.927197564043619e-09
  outer loop
    vertex 140.7498482991181 -876.3258020273934 98.10170274461802
    vertex 140.7498483006943 -881.7757282657315 100.14999867435417
    vertex 140.74984829176722 -877.9912838281315 100.14999868517386
  endloop
endfacet
facet normal -1.0 2.911470358154435e-10 9.927197564043619e-09
  outer loop
    vertex 140.7498482991181 -876.3258020273934 98.10170274461802
    vertex 140.74984829176722 -877.9912838281315 100.14999868517386
    vertex 140.74984829519582 -868.9757282924635 100.14999868517386
  endloop
endfacet
facet normal -1.0 2.911470358154435e-10 9.927197564043619e-09
  outer loop
    vertex 140.7498482991181 -876.3258020273934 98.10170274461802
    vertex 140.74984829519582 -868.9757282924635 100.14999868517386
    vertex 140.7498482810176 -872.8324687038303 96.90170275225411
  endloop
endfacet
facet normal -1.0 2.911470358154435e-10 9.927197564043619e-09
  outer loop
    vertex 140.7498482810176 -872.8324687038303 96.90170275225411
    vertex 140.74984829519582 -868.9757282924635 100.14999868517386
    vertex 140.74984823563625 -872.8324686993548 93.20292729616536
  endloop
endfacet
facet normal -1.0 2.911470358154435e-10 9.927197564043619e-09
  outer loop
    vertex 140.74984823563625 -872.8324686993548 93.20292729616536
    vertex 140.74984829519582 -868.9757282924635 100.14999868517386
    vertex 140.74984820244228 -868.9757282941367 90.05122322908517
  endloop
endfacet
facet normal -1.0 2.911470358154435e-10 9.927197564043619e-09
  outer loop
    vertex 140.74984821458708 -888.7075888072144 91.56886131888402
    vertex 140.74984820593468 -888.7075888072144 90.53358513847392
    vertex 140.7498482102683 -888.7757371546362 91.05122322867898
  endloop
endfacet
facet normal -1.0 2.911470358154435e-10 9.927197564043619e-09
  outer loop
    vertex 140.74984820593468 -888.7075888072144 90.53358513847392
    vertex 140.74984821458708 -888.7075888072144 91.56886131888402
    vertex 140.7498482185966 -888.507787962205 92.05122322867898
  endloop
endfacet
facet normal -1.0 2.911470358154435e-10 9.927197564043619e-09
  outer loop
    vertex 140.74984820593468 -888.7075888072144 90.53358513847392
    vertex 140.7498482185966 -888.507787962205 92.05122322867898
    vertex 140.74984820188146 -888.507787962205 90.05122322867898
  endloop
endfacet
facet normal -1.0 2.911470358154435e-10 9.927197564043619e-09
  outer loop
    vertex 140.74984820188146 -888.507787962205 90.05122322867898
    vertex 140.7498482185966 -888.507787962205 92.05122322867898
    vertex 140.74984822202364 -888.1899507170093 92.46543679105207
  endloop
endfacet
facet normal -1.0 2.911470358154435e-10 9.927197564043619e-09
  outer loop
    vertex 140.74984820188146 -888.507787962205 90.05122322867898
    vertex 140.74984822202364 -888.1899507170093 92.46543679105207
    vertex 140.74984819838488 -888.1899507170093 89.63700966630587
  endloop
endfacet
facet normal -1.0 2.911470358154435e-10 9.927197564043619e-09
  outer loop
    vertex 140.74984819838488 -888.1899507170093 89.63700966630587
    vertex 140.74984822202364 -888.1899507170093 92.46543679105207
    vertex 140.74984822463472 -887.7757371546362 92.78327403624785
  endloop
endfacet
facet normal -1.0 2.911470358154435e-10 9.927197564043619e-09
  outer loop
    vertex 140.74984819838488 -888.1899507170093 89.63700966630587
    vertex 140.74984822463472 -887.7757371546362 92.78327403624785
    vertex 140.74984819568326 -887.7757371546362 89.31917242111011
  endloop
endfacet
facet normal -1.0 2.911470358154435e-10 9.927197564043619e-09
  outer loop
    vertex 140.74984819568326 -887.7757371546362 89.31917242111011
    vertex 140.74984822463472 -887.7757371546362 92.78327403624785
    vertex 140.7498482262518 -887.2933752448414 92.98307488125712
  endloop
endfacet
facet normal -1.0 2.911470358154435e-10 9.927197564043619e-09
  outer loop
    vertex 140.74984819568326 -887.7757371546362 89.31917242111011
    vertex 140.7498482262518 -887.2933752448414 92.98307488125712
    vertex 140.74984819396064 -887.2933752448414 89.11937157610083
  endloop
endfacet
facet normal -1.0 2.911470358154435e-10 9.927197564043619e-09
  outer loop
    vertex 140.74984819396064 -887.2933752448414 89.11937157610083
    vertex 140.7498482262518 -887.2933752448414 92.98307488125712
    vertex 140.74984822676475 -886.7757371546363 93.05122322867896
  endloop
endfacet
facet normal -1.0 2.911470358154435e-10 9.927197564043619e-09
  outer loop
    vertex 140.74984819396064 -887.2933752448414 89.11937157610083
    vertex 140.74984822676475 -886.7757371546363 93.05122322867896
    vertex 140.7498481933345 -886.7757371546363 89.05122322867898
  endloop
endfacet
facet normal -1.0 2.911470358154435e-10 9.927197564043619e-09
  outer loop
    vertex 140.7498481933345 -886.7757371546363 89.05122322867898
    vertex 140.74984822676475 -886.7757371546363 93.05122322867896
    vertex 140.7498482261386 -886.2580990644312 92.9830748812571
  endloop
endfacet
facet normal -1.0 2.911470358154435e-10 9.927197564043619e-09
  outer loop
    vertex 140.7498481933345 -886.7757371546363 89.05122322867898
    vertex 140.7498482261386 -886.2580990644312 92.9830748812571
    vertex 140.74984819384744 -886.2580990644312 89.11937157610083
  endloop
endfacet
facet normal -1.0 2.911470358154435e-10 9.927197564043619e-09
  outer loop
    vertex 140.74984819384744 -886.2580990644312 89.11937157610083
    vertex 140.7498482261386 -886.2580990644312 92.9830748812571
    vertex 140.749848224416 -885.7757371546362 92.78327403624785
  endloop
endfacet
facet normal -1.0 2.911470358154435e-10 9.927197564043619e-09
  outer loop
    vertex 140.74984819384744 -886.2580990644312 89.11937157610083
    vertex 140.749848224416 -885.7757371546362 92.78327403624785
    vertex 140.74984819546458 -885.7757371546362 89.31917242111011
  endloop
endfacet
facet normal -1.0 2.911470358154435e-10 9.927197564043619e-09
  outer loop
    vertex 140.74984819546458 -885.7757371546362 89.31917242111011
    vertex 140.749848224416 -885.7757371546362 92.78327403624785
    vertex 140.74984822171436 -885.3615235922631 92.46543679105207
  endloop
endfacet
facet normal -1.0 2.911470358154435e-10 9.927197564043619e-09
  outer loop
    vertex 140.74984819546458 -885.7757371546362 89.31917242111011
    vertex 140.74984822171436 -885.3615235922631 92.46543679105207
    vertex 140.7498481980756 -885.3615235922631 89.63700966630587
  endloop
endfacet
facet normal -1.0 2.911470358154435e-10 9.927197564043619e-09
  outer loop
    vertex 140.7498481980756 -885.3615235922631 89.63700966630587
    vertex 140.74984822171436 -885.3615235922631 92.46543679105207
    vertex 140.74984821821783 -885.0436863470674 92.05122322867898
  endloop
endfacet
facet normal -1.0 2.911470358154435e-10 9.927197564043619e-09
  outer loop
    vertex 140.7498481980756 -885.3615235922631 89.63700966630587
    vertex 140.74984821821783 -885.0436863470674 92.05122322867898
    vertex 140.7498482015027 -885.0436863470674 90.05122322867898
  endloop
endfacet
facet normal -1.0 2.911470358154435e-10 9.927197564043619e-09
  outer loop
    vertex 140.7498482015027 -885.0436863470674 90.05122322867898
    vertex 140.74984821821783 -885.0436863470674 92.05122322867898
    vertex 140.74984824192774 -876.3258020273931 92.00292728852918
  endloop
endfacet
facet normal -1.0 2.911470358154435e-10 9.927197564043619e-09
  outer loop
    vertex 140.7498482015027 -885.0436863470674 90.05122322867898
    vertex 140.74984824192774 -876.3258020273931 92.00292728852918
    vertex 140.74984824302265 -881.7757282650845 90.0512232182654
  endloop
endfacet
facet normal -1.0 2.911470358154435e-10 9.927197564043619e-09
  outer loop
    vertex 140.74984824302265 -881.7757282650845 90.0512232182654
    vertex 140.74984824192774 -876.3258020273931 92.00292728852918
    vertex 140.74984821662903 -881.7757282631703 88.75122322024538
  endloop
endfacet
facet normal -1.0 2.911470358154435e-10 9.927197564043619e-09
  outer loop
    vertex 140.74984821662903 -881.7757282631703 88.75122322024538
    vertex 140.74984824192774 -876.3258020273931 92.00292728852918
    vertex 140.7498482058709 -877.9912838298045 90.05122322908517
  endloop
endfacet
facet normal -1.0 2.911470358154435e-10 9.927197564043619e-09
  outer loop
    vertex 140.7498482058709 -877.9912838298045 90.05122322908517
    vertex 140.74984824192774 -876.3258020273931 92.00292728852918
    vertex 140.74984820244228 -868.9757282941367 90.05122322908517
  endloop
endfacet
facet normal -1.0 2.911470358154435e-10 9.927197564043619e-09
  outer loop
    vertex 140.74984820244228 -868.9757282941367 90.05122322908517
    vertex 140.74984824192774 -876.3258020273931 92.00292728852918
    vertex 140.74984823563625 -872.8324686993548 93.20292729616536
  endloop
endfacet
facet normal -1.0 2.911470358154435e-10 9.927197564043619e-09
  outer loop
    vertex 140.74984826534393 -881.7127119064111 95.57926772171609
    vertex 140.74984825914234 -881.7127119064111 94.62195419012257
    vertex 140.74984826219472 -881.7757282651153 95.10061095591934
  endloop
endfacet
facet normal -1.0 2.911470358154435e-10 9.927197564043619e-09
  outer loop
    vertex 140.74984825914234 -881.7127119064111 94.62195419012257
    vertex 140.74984826534393 -881.7127119064111 95.57926772171609
    vertex 140.74984826837527 -881.5279572910046 96.02530481994152
  endloop
endfacet
facet normal -1.0 2.911470358154435e-10 9.927197564043619e-09
  outer loop
    vertex 140.74984825914234 -881.7127119064111 94.62195419012257
    vertex 140.74984826837527 -881.5279572910046 96.02530481994152
    vertex 140.74984825639473 -881.5279572910046 94.17591709189713
  endloop
endfacet
facet normal -1.0 2.911470358154435e-10 9.927197564043619e-09
  outer loop
    vertex 140.74984825639473 -881.5279572910046 94.17591709189713
    vertex 140.74984826837527 -881.5279572910046 96.02530481994152
    vertex 140.74984827108224 -881.2340551406144 96.40832555946271
  endloop
endfacet
facet normal -1.0 2.911470358154435e-10 9.927197564043619e-09
  outer loop
    vertex 140.74984825639473 -881.5279572910046 94.17591709189713
    vertex 140.74984827108224 -881.2340551406144 96.40832555946271
    vertex 140.74984825413918 -881.2340551406144 93.79289635237598
  endloop
endfacet
facet normal -1.0 2.911470358154435e-10 9.927197564043619e-09
  outer loop
    vertex 140.74984825413918 -881.2340551406144 93.79289635237598
    vertex 140.74984827108224 -881.2340551406144 96.40832555946271
    vertex 140.74984827328032 -880.8510344010931 96.70222770985298
  endloop
endfacet
facet normal -1.0 2.911470358154435e-10 9.927197564043619e-09
  outer loop
    vertex 140.74984825413918 -881.2340551406144 93.79289635237598
    vertex 140.74984827328032 -880.8510344010931 96.70222770985298
    vertex 140.74984825252943 -880.8510344010931 93.49899420198571
  endloop
endfacet
facet normal -1.0 2.911470358154435e-10 9.927197564043619e-09
  outer loop
    vertex 140.74984825252943 -880.8510344010931 93.49899420198571
    vertex 140.74984827328032 -880.8510344010931 96.70222770985298
    vertex 140.74984827481975 -880.4049973028677 96.88698232525948
  endloop
endfacet
facet normal -1.0 2.911470358154435e-10 9.927197564043619e-09
  outer loop
    vertex 140.74984825252943 -880.8510344010931 93.49899420198571
    vertex 140.74984827481975 -880.4049973028677 96.88698232525948
    vertex 140.74984825167508 -880.4049973028677 93.3142395865792
  endloop
endfacet
facet normal -1.0 2.911470358154435e-10 9.927197564043619e-09
  outer loop
    vertex 140.74984825167508 -880.4049973028677 93.3142395865792
    vertex 140.74984827481975 -880.4049973028677 96.88698232525948
    vertex 140.74984827559558 -879.9263405370709 96.94999868396374
  endloop
endfacet
facet normal -1.0 2.911470358154435e-10 9.927197564043619e-09
  outer loop
    vertex 140.74984825167508 -880.4049973028677 93.3142395865792
    vertex 140.74984827559558 -879.9263405370709 96.94999868396374
    vertex 140.7498482438462 -879.9263405370709 93.25122322787496
  endloop
endfacet
facet normal -1.0 2.911470358154435e-10 9.927197564043619e-09
  outer loop
    vertex 140.7498482438462 -879.9263405370709 93.25122322787496
    vertex 140.74984827559558 -879.9263405370709 96.94999868396374
    vertex 140.74984823563625 -872.8324686993548 93.20292729616536
  endloop
endfacet
facet normal -1.0 2.911470358154435e-10 9.927197564043619e-09
  outer loop
    vertex 140.74984823563625 -872.8324686993548 93.20292729616536
    vertex 140.74984827559558 -879.9263405370709 96.94999868396374
    vertex 140.7498482810176 -872.8324687038303 96.90170275225411
  endloop
endfacet
facet normal 1.0 3.4588486566028157e-09 -2.8078152322514367e-09
  outer loop
    vertex 142.94984822175056 -877.991283828968 90.05122321103585
    vertex 142.94984821832193 -881.7757282653333 90.05122321103585
    vertex 142.94984821739217 -881.7757282653333 88.7512232110358
  endloop
endfacet
facet normal 1.0 3.4588486566028157e-09 -2.8078152322514367e-09
  outer loop
    vertex 142.94984829549304 -888.7075888136045 90.5335851208308
    vertex 142.94984830414546 -888.7075888136045 91.56886130124089
    vertex 142.9498482998267 -888.7757371610263 91.05122321103585
  endloop
endfacet
facet normal 1.0 3.4588486566028157e-09 -2.8078152322514367e-09
  outer loop
    vertex 142.94984830414546 -888.7075888136045 91.56886130124089
    vertex 142.94984829549304 -888.7075888136045 90.5335851208308
    vertex 142.94984829143982 -888.5077879685953 90.05122321103585
  endloop
endfacet
facet normal 1.0 3.4588486566028157e-09 -2.8078152322514367e-09
  outer loop
    vertex 142.94984830414546 -888.7075888136045 91.56886130124089
    vertex 142.94984829143982 -888.5077879685953 90.05122321103585
    vertex 142.94984830815497 -888.5077879685953 92.05122321103585
  endloop
endfacet
facet normal 1.0 3.4588486566028157e-09 -2.8078152322514367e-09
  outer loop
    vertex 142.94984830815497 -888.5077879685953 92.05122321103585
    vertex 142.94984829143982 -888.5077879685953 90.05122321103585
    vertex 142.94984828794327 -888.1899507233994 89.63700964866274
  endloop
endfacet
facet normal 1.0 3.4588486566028157e-09 -2.8078152322514367e-09
  outer loop
    vertex 142.94984830815497 -888.5077879685953 92.05122321103585
    vertex 142.94984828794327 -888.1899507233994 89.63700964866274
    vertex 142.94984831158203 -888.1899507233994 92.46543677340894
  endloop
endfacet
facet normal 1.0 3.4588486566028157e-09 -2.8078152322514367e-09
  outer loop
    vertex 142.94984831158203 -888.1899507233994 92.46543677340894
    vertex 142.94984828794327 -888.1899507233994 89.63700964866274
    vertex 142.94984828524164 -887.7757371610264 89.31917240346698
  endloop
endfacet
facet normal 1.0 3.4588486566028157e-09 -2.8078152322514367e-09
  outer loop
    vertex 142.94984831158203 -888.1899507233994 92.46543677340894
    vertex 142.94984828524164 -887.7757371610264 89.31917240346698
    vertex 142.94984831419308 -887.7757371610264 92.78327401860471
  endloop
endfacet
facet normal 1.0 3.4588486566028157e-09 -2.8078152322514367e-09
  outer loop
    vertex 142.94984831419308 -887.7757371610264 92.78327401860471
    vertex 142.94984828524164 -887.7757371610264 89.31917240346698
    vertex 142.94984828351903 -887.2933752512314 89.1193715584577
  endloop
endfacet
facet normal 1.0 3.4588486566028157e-09 -2.8078152322514367e-09
  outer loop
    vertex 142.94984831419308 -887.7757371610264 92.78327401860471
    vertex 142.94984828351903 -887.2933752512314 89.1193715584577
    vertex 142.9498483158102 -887.2933752512314 92.983074863614
  endloop
endfacet
facet normal 1.0 3.4588486566028157e-09 -2.8078152322514367e-09
  outer loop
    vertex 142.9498483158102 -887.2933752512314 92.983074863614
    vertex 142.94984828351903 -887.2933752512314 89.1193715584577
    vertex 142.94984828289287 -886.7757371610263 89.05122321103585
  endloop
endfacet
facet normal 1.0 3.4588486566028157e-09 -2.8078152322514367e-09
  outer loop
    vertex 142.9498483158102 -887.2933752512314 92.983074863614
    vertex 142.94984828289287 -886.7757371610263 89.05122321103585
    vertex 142.94984831632314 -886.7757371610263 93.05122321103583
  endloop
endfacet
facet normal 1.0 3.4588486566028157e-09 -2.8078152322514367e-09
  outer loop
    vertex 142.94984831632314 -886.7757371610263 93.05122321103583
    vertex 142.94984828289287 -886.7757371610263 89.05122321103585
    vertex 142.94984828340583 -886.2580990708213 89.1193715584577
  endloop
endfacet
facet normal 1.0 3.4588486566028157e-09 -2.8078152322514367e-09
  outer loop
    vertex 142.94984831632314 -886.7757371610263 93.05122321103583
    vertex 142.94984828340583 -886.2580990708213 89.1193715584577
    vertex 142.94984831569698 -886.2580990708213 92.98307486361396
  endloop
endfacet
facet normal 1.0 3.4588486566028157e-09 -2.8078152322514367e-09
  outer loop
    vertex 142.94984831569698 -886.2580990708213 92.98307486361396
    vertex 142.94984828340583 -886.2580990708213 89.1193715584577
    vertex 142.94984828502294 -885.7757371610263 89.31917240346698
  endloop
endfacet
facet normal 1.0 3.4588486566028157e-09 -2.8078152322514367e-09
  outer loop
    vertex 142.94984831569698 -886.2580990708213 92.98307486361396
    vertex 142.94984828502294 -885.7757371610263 89.31917240346698
    vertex 142.9498483139744 -885.7757371610263 92.78327401860471
  endloop
endfacet
facet normal 1.0 3.4588486566028157e-09 -2.8078152322514367e-09
  outer loop
    vertex 142.9498483139744 -885.7757371610263 92.78327401860471
    vertex 142.94984828502294 -885.7757371610263 89.31917240346698
    vertex 142.94984828763398 -885.3615235986533 89.63700964866274
  endloop
endfacet
facet normal 1.0 3.4588486566028157e-09 -2.8078152322514367e-09
  outer loop
    vertex 142.9498483139744 -885.7757371610263 92.78327401860471
    vertex 142.94984828763398 -885.3615235986533 89.63700964866274
    vertex 142.94984831127275 -885.3615235986533 92.46543677340894
  endloop
endfacet
facet normal 1.0 3.4588486566028157e-09 -2.8078152322514367e-09
  outer loop
    vertex 142.94984831127275 -885.3615235986533 92.46543677340894
    vertex 142.94984828763398 -885.3615235986533 89.63700964866274
    vertex 142.94984829106104 -885.0436863534575 90.05122321103585
  endloop
endfacet
facet normal 1.0 3.4588486566028157e-09 -2.8078152322514367e-09
  outer loop
    vertex 142.94984831127275 -885.3615235986533 92.46543677340894
    vertex 142.94984829106104 -885.0436863534575 90.05122321103585
    vertex 142.9498483077762 -885.0436863534575 92.05122321103585
  endloop
endfacet
facet normal 1.0 3.4588486566028157e-09 -2.8078152322514367e-09
  outer loop
    vertex 142.9498483077762 -885.0436863534575 92.05122321103585
    vertex 142.94984829106104 -885.0436863534575 90.05122321103585
    vertex 142.94984821832193 -881.7757282653333 90.05122321103585
  endloop
endfacet
facet normal 1.0 3.4588486566028157e-09 -2.8078152322514367e-09
  outer loop
    vertex 142.9498483077762 -885.0436863534575 92.05122321103585
    vertex 142.94984821832193 -881.7757282653333 90.05122321103585
    vertex 142.9498482193507 -876.3258020273931 92.00292728695582
  endloop
endfacet
facet normal 1.0 3.4588486566028157e-09 -2.8078152322514367e-09
  outer loop
    vertex 142.9498482193507 -876.3258020273931 92.00292728695582
    vertex 142.94984821832193 -881.7757282653333 90.05122321103585
    vertex 142.94984822175056 -877.991283828968 90.05122321103585
  endloop
endfacet
facet normal 1.0 3.4588486566028157e-09 -2.8078152322514367e-09
  outer loop
    vertex 142.9498482193507 -876.3258020273931 92.00292728695582
    vertex 142.94984822175056 -877.991283828968 90.05122321103585
    vertex 142.94984821832193 -868.9757282933 90.05122321103585
  endloop
endfacet
facet normal 1.0 3.4588486566028157e-09 -2.8078152322514367e-09
  outer loop
    vertex 142.9498482193507 -876.3258020273931 92.00292728695582
    vertex 142.94984821832193 -868.9757282933 90.05122321103585
    vertex 142.94984823639942 -872.8324687015179 93.20292728695577
  endloop
endfacet
facet normal 1.0 3.4588486566028157e-09 -2.8078152322514367e-09
  outer loop
    vertex 142.94984823639942 -872.8324687015179 93.20292728695577
    vertex 142.94984821832193 -868.9757282933 90.05122321103585
    vertex 142.94984828025446 -872.8324687015179 96.90170274304454
  endloop
endfacet
facet normal 1.0 3.4588486566028157e-09 -2.8078152322514367e-09
  outer loop
    vertex 142.94984829532652 -888.7075888136045 98.6323605769195
    vertex 142.94984830401677 -888.7075888136045 99.66763675732959
    vertex 142.94984829967387 -888.7757371610263 99.14999866712455
  endloop
endfacet
facet normal 1.0 3.4588486566028157e-09 -2.8078152322514367e-09
  outer loop
    vertex 142.94984830401677 -888.7075888136045 99.66763675732959
    vertex 142.94984829532652 -888.7075888136045 98.6323605769195
    vertex 142.94984829127094 -888.5077879685953 98.14999866712455
  endloop
endfacet
facet normal 1.0 3.4588486566028157e-09 -2.8078152322514367e-09
  outer loop
    vertex 142.94984830401677 -888.7075888136045 99.66763675732959
    vertex 142.94984829127094 -888.5077879685953 98.14999866712455
    vertex 142.9498483080592 -888.5077879685953 100.14999866712455
  endloop
endfacet
facet normal 1.0 3.4588486566028157e-09 -2.8078152322514367e-09
  outer loop
    vertex 142.9498483080592 -888.5077879685953 100.14999866712455
    vertex 142.94984829127094 -888.5077879685953 98.14999866712455
    vertex 142.94984828778348 -888.1899507233994 97.73578510475144
  endloop
endfacet
facet normal 1.0 3.4588486566028157e-09 -2.8078152322514367e-09
  outer loop
    vertex 142.9498483080592 -888.5077879685953 100.14999866712455
    vertex 142.94984828778348 -888.1899507233994 97.73578510475144
    vertex 142.9498483115257 -888.1899507233994 100.56421222949764
  endloop
endfacet
facet normal 1.0 3.4588486566028157e-09 -2.8078152322514367e-09
  outer loop
    vertex 142.9498483115257 -888.1899507233994 100.56421222949764
    vertex 142.94984828778348 -888.1899507233994 97.73578510475144
    vertex 142.94984828510187 -887.7757371610264 97.41794785955568
  endloop
endfacet
facet normal 1.0 3.4588486566028157e-09 -2.8078152322514367e-09
  outer loop
    vertex 142.9498483115257 -888.1899507233994 100.56421222949764
    vertex 142.94984828510187 -887.7757371610264 97.41794785955568
    vertex 142.94984831418003 -887.7757371610264 100.88204947469342
  endloop
endfacet
facet normal 1.0 3.4588486566028157e-09 -2.8078152322514367e-09
  outer loop
    vertex 142.94984831418003 -887.7757371610264 100.88204947469342
    vertex 142.94984828510187 -887.7757371610264 97.41794785955568
    vertex 142.94984828340884 -887.2933752512314 97.21814701454642
  endloop
endfacet
facet normal 1.0 3.4588486566028157e-09 -2.8078152322514367e-09
  outer loop
    vertex 142.94984831418003 -887.7757371610264 100.88204947469342
    vertex 142.94984828340884 -887.2933752512314 97.21814701454642
    vertex 142.94984831584128 -887.2933752512314 101.0818503197027
  endloop
endfacet
facet normal 1.0 3.4588486566028157e-09 -2.8078152322514367e-09
  outer loop
    vertex 142.94984831584128 -887.2933752512314 101.0818503197027
    vertex 142.94984828340884 -887.2933752512314 97.21814701454642
    vertex 142.94984828281974 -886.7757371610263 97.14999866712455
  endloop
endfacet
facet normal 1.0 3.4588486566028157e-09 -2.8078152322514367e-09
  outer loop
    vertex 142.94984831584128 -887.2933752512314 101.0818503197027
    vertex 142.94984828281974 -886.7757371610263 97.14999866712455
    vertex 142.9498483163963 -886.7757371610263 101.14999866712454
  endloop
endfacet
facet normal 1.0 3.4588486566028157e-09 -2.8078152322514367e-09
  outer loop
    vertex 142.9498483163963 -886.7757371610263 101.14999866712454
    vertex 142.94984828281974 -886.7757371610263 97.14999866712455
    vertex 142.94984828337476 -886.2580990708213 97.2181470145464
  endloop
endfacet
facet normal 1.0 3.4588486566028157e-09 -2.8078152322514367e-09
  outer loop
    vertex 142.9498483163963 -886.7757371610263 101.14999866712454
    vertex 142.94984828337476 -886.2580990708213 97.2181470145464
    vertex 142.94984831580717 -886.2580990708213 101.08185031970267
  endloop
endfacet
facet normal 1.0 3.4588486566028157e-09 -2.8078152322514367e-09
  outer loop
    vertex 142.94984831580717 -886.2580990708213 101.08185031970267
    vertex 142.94984828337476 -886.2580990708213 97.2181470145464
    vertex 142.949848285036 -885.7757371610263 97.41794785955568
  endloop
endfacet
facet normal 1.0 3.4588486566028157e-09 -2.8078152322514367e-09
  outer loop
    vertex 142.94984831580717 -886.2580990708213 101.08185031970267
    vertex 142.949848285036 -885.7757371610263 97.41794785955568
    vertex 142.94984831411415 -885.7757371610263 100.88204947469342
  endloop
endfacet
facet normal 1.0 3.4588486566028157e-09 -2.8078152322514367e-09
  outer loop
    vertex 142.94984831411415 -885.7757371610263 100.88204947469342
    vertex 142.949848285036 -885.7757371610263 97.41794785955568
    vertex 142.94984828769034 -885.3615235986533 97.73578510475144
  endloop
endfacet
facet normal 1.0 3.4588486566028157e-09 -2.8078152322514367e-09
  outer loop
    vertex 142.94984831411415 -885.7757371610263 100.88204947469342
    vertex 142.94984828769034 -885.3615235986533 97.73578510475144
    vertex 142.94984831143253 -885.3615235986533 100.56421222949764
  endloop
endfacet
facet normal 1.0 3.4588486566028157e-09 -2.8078152322514367e-09
  outer loop
    vertex 142.94984831143253 -885.3615235986533 100.56421222949764
    vertex 142.94984828769034 -885.3615235986533 97.73578510475144
    vertex 142.94984829115683 -885.0436863534575 98.14999866712455
  endloop
endfacet
facet normal 1.0 3.4588486566028157e-09 -2.8078152322514367e-09
  outer loop
    vertex 142.94984831143253 -885.3615235986533 100.56421222949764
    vertex 142.94984829115683 -885.0436863534575 98.14999866712455
    vertex 142.9498483079451 -885.0436863534575 100.14999866712455
  endloop
endfacet
facet normal 1.0 3.4588486566028157e-09 -2.8078152322514367e-09
  outer loop
    vertex 142.9498483079451 -885.0436863534575 100.14999866712455
    vertex 142.94984829115683 -885.0436863534575 98.14999866712455
    vertex 142.94984829730313 -876.3258020273934 98.10170274304453
  endloop
endfacet
facet normal 1.0 3.4588486566028157e-09 -2.8078152322514367e-09
  outer loop
    vertex 142.9498483079451 -885.0436863534575 100.14999866712455
    vertex 142.94984829730313 -876.3258020273934 98.10170274304453
    vertex 142.94984829913528 -881.7757282653333 100.14999866712455
  endloop
endfacet
facet normal 1.0 3.4588486566028157e-09 -2.8078152322514367e-09
  outer loop
    vertex 142.94984829913528 -881.7757282653333 100.14999866712455
    vertex 142.94984829730313 -876.3258020273934 98.10170274304453
    vertex 142.9498483000651 -881.7757282653333 101.44999866712455
  endloop
endfacet
facet normal 1.0 3.4588486566028157e-09 -2.8078152322514367e-09
  outer loop
    vertex 142.9498483000651 -881.7757282653333 101.44999866712455
    vertex 142.94984829730313 -876.3258020273934 98.10170274304453
    vertex 142.9498482957067 -877.991283828968 100.14999866712455
  endloop
endfacet
facet normal 1.0 3.4588486566028157e-09 -2.8078152322514367e-09
  outer loop
    vertex 142.9498482957067 -877.991283828968 100.14999866712455
    vertex 142.94984829730313 -876.3258020273934 98.10170274304453
    vertex 142.94984829913528 -868.9757282933 100.14999866712455
  endloop
endfacet
facet normal 1.0 3.4588486566028157e-09 -2.8078152322514367e-09
  outer loop
    vertex 142.94984829913528 -868.9757282933 100.14999866712455
    vertex 142.94984829730313 -876.3258020273934 98.10170274304453
    vertex 142.94984828025446 -872.8324687015179 96.90170274304454
  endloop
endfacet
facet normal 1.0 3.4588486566028157e-09 -2.8078152322514367e-09
  outer loop
    vertex 142.94984829913528 -868.9757282933 100.14999866712455
    vertex 142.94984828025446 -872.8324687015179 96.90170274304454
    vertex 142.94984821832193 -868.9757282933 90.05122321103585
  endloop
endfacet
facet normal 1.0 3.4588486566028157e-09 -2.8078152322514367e-09
  outer loop
    vertex 142.94984825771817 -881.7127119066291 94.6219541732834
    vertex 142.9498482639198 -881.7127119066291 95.57926770487693
    vertex 142.94984826077058 -881.7757282653333 95.10061093908016
  endloop
endfacet
facet normal 1.0 3.4588486566028157e-09 -2.8078152322514367e-09
  outer loop
    vertex 142.9498482639198 -881.7127119066291 95.57926770487693
    vertex 142.94984825771817 -881.7127119066291 94.6219541732834
    vertex 142.9498482549706 -881.5279572912226 94.17591707505797
  endloop
endfacet
facet normal 1.0 3.4588486566028157e-09 -2.8078152322514367e-09
  outer loop
    vertex 142.9498482639198 -881.7127119066291 95.57926770487693
    vertex 142.9498482549706 -881.5279572912226 94.17591707505797
    vertex 142.94984826695114 -881.5279572912226 96.02530480310236
  endloop
endfacet
facet normal 1.0 3.4588486566028157e-09 -2.8078152322514367e-09
  outer loop
    vertex 142.94984826695114 -881.5279572912226 96.02530480310236
    vertex 142.9498482549706 -881.5279572912226 94.17591707505797
    vertex 142.9498482696581 -881.2340551408323 96.40832554262354
  endloop
endfacet
facet normal 1.0 3.4588486566028157e-09 -2.8078152322514367e-09
  outer loop
    vertex 142.9498482696581 -881.2340551408323 96.40832554262354
    vertex 142.9498482549706 -881.5279572912226 94.17591707505797
    vertex 142.94984825271504 -881.2340551408322 93.7928963355368
  endloop
endfacet
facet normal 1.0 3.4588486566028157e-09 -2.8078152322514367e-09
  outer loop
    vertex 142.9498482696581 -881.2340551408323 96.40832554262354
    vertex 142.94984825271504 -881.2340551408322 93.7928963355368
    vertex 142.94984827185618 -880.851034401311 96.7022276930138
  endloop
endfacet
facet normal 1.0 3.4588486566028157e-09 -2.8078152322514367e-09
  outer loop
    vertex 142.94984827185618 -880.851034401311 96.7022276930138
    vertex 142.94984825271504 -881.2340551408322 93.7928963355368
    vertex 142.94984825110527 -880.851034401311 93.49899418514654
  endloop
endfacet
facet normal 1.0 3.4588486566028157e-09 -2.8078152322514367e-09
  outer loop
    vertex 142.94984827185618 -880.851034401311 96.7022276930138
    vertex 142.94984825110527 -880.851034401311 93.49899418514654
    vertex 142.94984825025094 -880.4049973030857 93.31423956974004
  endloop
endfacet
facet normal 1.0 3.4588486566028157e-09 -2.8078152322514367e-09
  outer loop
    vertex 142.94984827185618 -880.851034401311 96.7022276930138
    vertex 142.94984825025094 -880.4049973030857 93.31423956974004
    vertex 142.94984827339562 -880.4049973030857 96.88698230842031
  endloop
endfacet
facet normal 1.0 3.4588486566028157e-09 -2.8078152322514367e-09
  outer loop
    vertex 142.94984827339562 -880.4049973030857 96.88698230842031
    vertex 142.94984825025094 -880.4049973030857 93.31423956974004
    vertex 142.94984824242204 -879.926340537289 93.25122321103579
  endloop
endfacet
facet normal 1.0 3.4588486566028157e-09 -2.8078152322514367e-09
  outer loop
    vertex 142.94984827339562 -880.4049973030857 96.88698230842031
    vertex 142.94984824242204 -879.926340537289 93.25122321103579
    vertex 142.94984827417144 -879.926340537289 96.94999866712458
  endloop
endfacet
facet normal 1.0 3.4588486566028157e-09 -2.8078152322514367e-09
  outer loop
    vertex 142.94984827417144 -879.926340537289 96.94999866712458
    vertex 142.94984824242204 -879.926340537289 93.25122321103579
    vertex 142.94984823639942 -872.8324687015179 93.20292728695577
  endloop
endfacet
facet normal 1.0 3.4588486566028157e-09 -2.8078152322514367e-09
  outer loop
    vertex 142.94984827417144 -879.926340537289 96.94999866712458
    vertex 142.94984823639942 -872.8324687015179 93.20292728695577
    vertex 142.94984828025446 -872.8324687015179 96.90170274304454
  endloop
endfacet
facet normal 4.375363090944045e-09 0.005539783419786594 0.9999846552821009
  outer loop
    vertex 142.9498483077762 -885.0436863534575 92.05122321103585
    vertex 140.74984824192774 -876.3258020273931 92.00292728852918
    vertex 140.74984821821783 -885.0436863470674 92.05122322867898
  endloop
endfacet
facet normal 4.375363090944045e-09 0.005539783419786594 0.9999846552821009
  outer loop
    vertex 140.74984824192774 -876.3258020273931 92.00292728852918
    vertex 142.9498483077762 -885.0436863534575 92.05122321103585
    vertex 142.9498482193507 -876.3258020273931 92.00292728695582
  endloop
endfacet
facet normal -4.935039738295404e-09 0.7933533402912517 -0.608761429008699
  outer loop
    vertex 140.74984828797992 -885.361523598741 97.73578512247191
    vertex 142.94984829115683 -885.0436863534575 98.14999866712455
    vertex 142.94984828769034 -885.3615235986533 97.73578510475144
  endloop
endfacet
facet normal -4.935039738295404e-09 0.7933533402912517 -0.608761429008699
  outer loop
    vertex 142.94984829115683 -885.0436863534575 98.14999866712455
    vertex 140.74984828797992 -885.361523598741 97.73578512247191
    vertex 140.7498482914464 -885.0436863535452 98.14999868484502
  endloop
endfacet
facet normal -6.414493074165621e-09 0.6087614290086991 -0.7933533402912518
  outer loop
    vertex 140.74984828797992 -885.361523598741 97.73578512247191
    vertex 142.949848285036 -885.7757371610263 97.41794785955568
    vertex 140.74984828532558 -885.7757371611141 97.41794787727615
  endloop
endfacet
facet normal -6.414493074165621e-09 0.6087614290086991 -0.7933533402912518
  outer loop
    vertex 142.949848285036 -885.7757371610263 97.41794785955568
    vertex 140.74984828797992 -885.361523598741 97.73578512247191
    vertex 142.94984828769034 -885.3615235986533 97.73578510475144
  endloop
endfacet
facet normal -7.456842802615823e-09 0.38268343236510755 -0.9238795325112795
  outer loop
    vertex 140.74984828532558 -885.7757371611141 97.41794787727615
    vertex 142.94984828337476 -886.2580990708213 97.2181470145464
    vertex 140.74984828366433 -886.2580990709089 97.21814703226687
  endloop
endfacet
facet normal -7.456842802615823e-09 0.38268343236510755 -0.9238795325112795
  outer loop
    vertex 142.94984828337476 -886.2580990708213 97.2181470145464
    vertex 140.74984828532558 -885.7757371611141 97.41794787727615
    vertex 142.949848285036 -885.7757371610263 97.41794785955568
  endloop
endfacet
facet normal -7.991021017083404e-09 0.13052619222003511 -0.9914448613738126
  outer loop
    vertex 140.74984828366433 -886.2580990709089 97.21814703226687
    vertex 142.94984828281974 -886.7757371610263 97.14999866712455
    vertex 140.74984828310932 -886.775737161114 97.14999868484502
  endloop
endfacet
facet normal -7.991021017083404e-09 0.13052619222003511 -0.9914448613738126
  outer loop
    vertex 142.94984828281974 -886.7757371610263 97.14999866712455
    vertex 140.74984828366433 -886.2580990709089 97.21814703226687
    vertex 142.94984828337476 -886.2580990708213 97.2181470145464
  endloop
endfacet
facet normal -7.980624355023252e-09 -0.13052619222007758 -0.9914448613738069
  outer loop
    vertex 142.94984828281974 -886.7757371610263 97.14999866712455
    vertex 140.74984828369844 -887.293375251319 97.21814703226688
    vertex 140.74984828310932 -886.775737161114 97.14999868484502
  endloop
endfacet
facet normal -7.980624355023252e-09 -0.13052619222007758 -0.9914448613738069
  outer loop
    vertex 140.74984828369844 -887.293375251319 97.21814703226688
    vertex 142.94984828281974 -886.7757371610263 97.14999866712455
    vertex 142.94984828340884 -887.2933752512314 97.21814701454642
  endloop
endfacet
facet normal -7.426361331773727e-09 -0.38268343236507063 -0.9238795325112947
  outer loop
    vertex 142.94984828340884 -887.2933752512314 97.21814701454642
    vertex 140.74984828539147 -887.7757371611141 97.41794787727615
    vertex 140.74984828369844 -887.293375251319 97.21814703226688
  endloop
endfacet
facet normal -7.426361331773727e-09 -0.38268343236507063 -0.9238795325112947
  outer loop
    vertex 140.74984828539147 -887.7757371611141 97.41794787727615
    vertex 142.94984828340884 -887.2933752512314 97.21814701454642
    vertex 142.94984828510187 -887.7757371610264 97.41794785955568
  endloop
endfacet
facet normal -6.366004056406176e-09 -0.6087614290086991 -0.7933533402912518
  outer loop
    vertex 142.94984828510187 -887.7757371610264 97.41794785955568
    vertex 140.74984828807308 -888.1899507234872 97.73578512247191
    vertex 140.74984828539147 -887.7757371611141 97.41794787727615
  endloop
endfacet
facet normal -6.366004056406176e-09 -0.6087614290086991 -0.7933533402912518
  outer loop
    vertex 140.74984828807308 -888.1899507234872 97.73578512247191
    vertex 142.94984828510187 -887.7757371610264 97.41794785955568
    vertex 142.94984828778348 -888.1899507233994 97.73578510475144
  endloop
endfacet
facet normal -4.871814124913295e-09 -0.7933533402912518 -0.6087614290086991
  outer loop
    vertex 142.94984829127094 -888.5077879685953 98.14999866712455
    vertex 140.74984828807308 -888.1899507234872 97.73578512247191
    vertex 142.94984828778348 -888.1899507233994 97.73578510475144
  endloop
endfacet
facet normal -4.871814124913295e-09 -0.7933533402912518 -0.6087614290086991
  outer loop
    vertex 140.74984828807308 -888.1899507234872 97.73578512247191
    vertex 142.94984829127094 -888.5077879685953 98.14999866712455
    vertex 140.7498482915605 -888.5077879686829 98.14999868484502
  endloop
endfacet
facet normal -3.0456181118615213e-09 -0.9238795325112884 -0.38268343236508595
  outer loop
    vertex 142.94984829532652 -888.7075888136045 98.6323605769195
    vertex 140.7498482915605 -888.5077879686829 98.14999868484502
    vertex 142.94984829127094 -888.5077879685953 98.14999866712455
  endloop
endfacet
facet normal -3.0456181118615213e-09 -0.9238795325112884 -0.38268343236508595
  outer loop
    vertex 140.7498482915605 -888.5077879686829 98.14999868484502
    vertex 142.94984829532652 -888.7075888136045 98.6323605769195
    vertex 140.74984829561612 -888.7075888136923 98.63236059463996
  endloop
endfacet
facet normal -1.011868257608339e-09 -0.9914448613738077 -0.13052619222007197
  outer loop
    vertex 142.94984829967387 -888.7757371610263 99.14999866712455
    vertex 140.74984829561612 -888.7075888136923 98.63236059463996
    vertex 142.94984829532652 -888.7075888136045 98.6323605769195
  endloop
endfacet
facet normal -1.011868257608339e-09 -0.9914448613738077 -0.13052619222007197
  outer loop
    vertex 140.74984829561612 -888.7075888136923 98.63236059463996
    vertex 142.94984829967387 -888.7757371610263 99.14999866712455
    vertex 140.74984829996347 -888.7757371611141 99.14999868484502
  endloop
endfacet
facet normal 1.0908387462100046e-09 -0.9914448613738077 0.13052619222007197
  outer loop
    vertex 142.94984830401677 -888.7075888136045 99.66763675732959
    vertex 140.74984829996347 -888.7757371611141 99.14999868484502
    vertex 142.94984829967387 -888.7757371610263 99.14999866712455
  endloop
endfacet
facet normal 1.0908387462100046e-09 -0.9914448613738077 0.13052619222007197
  outer loop
    vertex 140.74984829996347 -888.7757371611141 99.14999868484502
    vertex 142.94984830401677 -888.7075888136045 99.66763675732959
    vertex 140.74984830430634 -888.7075888136923 99.66763677505006
  endloop
endfacet
facet normal 3.1192068921698867e-09 -0.9238795325112884 0.38268343236508595
  outer loop
    vertex 142.9498483080592 -888.5077879685953 100.14999866712455
    vertex 140.74984830430634 -888.7075888136923 99.66763677505006
    vertex 142.94984830401677 -888.7075888136045 99.66763675732959
  endloop
endfacet
facet normal 3.1192068921698867e-09 -0.9238795325112884 0.38268343236508595
  outer loop
    vertex 140.74984830430634 -888.7075888136923 99.66763677505006
    vertex 142.9498483080592 -888.5077879685953 100.14999866712455
    vertex 140.7498483083488 -888.5077879686829 100.14999868484502
  endloop
endfacet
facet normal 4.935006243161555e-09 -0.7933533402912518 0.6087614290086991
  outer loop
    vertex 142.9498483115257 -888.1899507233994 100.56421222949764
    vertex 140.7498483083488 -888.5077879686829 100.14999868484502
    vertex 142.9498483080592 -888.5077879685953 100.14999866712455
  endloop
endfacet
facet normal 4.935006243161555e-09 -0.7933533402912518 0.6087614290086991
  outer loop
    vertex 140.7498483083488 -888.5077879686829 100.14999868484502
    vertex 142.9498483115257 -888.1899507233994 100.56421222949764
    vertex 140.74984831181527 -888.1899507234872 100.56421224721811
  endloop
endfacet
facet normal 6.414493074165621e-09 -0.6087614290086991 0.7933533402912518
  outer loop
    vertex 142.9498483115257 -888.1899507233994 100.56421222949764
    vertex 140.7498483144696 -887.7757371611141 100.88204949241388
    vertex 140.74984831181527 -888.1899507234872 100.56421224721811
  endloop
endfacet
facet normal 6.414493074165621e-09 -0.6087614290086991 0.7933533402912518
  outer loop
    vertex 140.7498483144696 -887.7757371611141 100.88204949241388
    vertex 142.9498483115257 -888.1899507233994 100.56421222949764
    vertex 142.94984831418003 -887.7757371610264 100.88204947469342
  endloop
endfacet
facet normal 7.456842802615823e-09 -0.38268343236510755 0.9238795325112795
  outer loop
    vertex 142.94984831418003 -887.7757371610264 100.88204947469342
    vertex 140.74984831613085 -887.293375251319 101.08185033742315
    vertex 140.7498483144696 -887.7757371611141 100.88204949241388
  endloop
endfacet
facet normal 7.456842802615823e-09 -0.38268343236510755 0.9238795325112795
  outer loop
    vertex 140.74984831613085 -887.293375251319 101.08185033742315
    vertex 142.94984831418003 -887.7757371610264 100.88204947469342
    vertex 142.94984831584128 -887.2933752512314 101.0818503197027
  endloop
endfacet
facet normal 7.991021017083404e-09 -0.13052619222003511 0.9914448613738126
  outer loop
    vertex 142.94984831584128 -887.2933752512314 101.0818503197027
    vertex 140.74984831668587 -886.775737161114 101.149998684845
    vertex 140.74984831613085 -887.293375251319 101.08185033742315
  endloop
endfacet
facet normal 7.991021017083404e-09 -0.13052619222003511 0.9914448613738126
  outer loop
    vertex 140.74984831668587 -886.775737161114 101.149998684845
    vertex 142.94984831584128 -887.2933752512314 101.0818503197027
    vertex 142.9498483163963 -886.7757371610263 101.14999866712454
  endloop
endfacet
facet normal 7.980624355023252e-09 0.13052619222007758 0.9914448613738069
  outer loop
    vertex 140.74984831668587 -886.775737161114 101.149998684845
    vertex 142.94984831580717 -886.2580990708213 101.08185031970267
    vertex 140.74984831609677 -886.2580990709089 101.08185033742313
  endloop
endfacet
facet normal 7.980624355023252e-09 0.13052619222007758 0.9914448613738069
  outer loop
    vertex 142.94984831580717 -886.2580990708213 101.08185031970267
    vertex 140.74984831668587 -886.775737161114 101.149998684845
    vertex 142.9498483163963 -886.7757371610263 101.14999866712454
  endloop
endfacet
facet normal 7.426361331773727e-09 0.38268343236507063 0.9238795325112947
  outer loop
    vertex 140.74984831609677 -886.2580990709089 101.08185033742313
    vertex 142.94984831411415 -885.7757371610263 100.88204947469342
    vertex 140.74984831440372 -885.7757371611141 100.88204949241388
  endloop
endfacet
facet normal 7.426361331773727e-09 0.38268343236507063 0.9238795325112947
  outer loop
    vertex 142.94984831411415 -885.7757371610263 100.88204947469342
    vertex 140.74984831609677 -886.2580990709089 101.08185033742313
    vertex 142.94984831580717 -886.2580990708213 101.08185031970267
  endloop
endfacet
facet normal 6.366004056406176e-09 0.6087614290086991 0.7933533402912518
  outer loop
    vertex 140.74984831440372 -885.7757371611141 100.88204949241388
    vertex 142.94984831143253 -885.3615235986533 100.56421222949764
    vertex 140.74984831172213 -885.361523598741 100.56421224721811
  endloop
endfacet
facet normal 6.366004056406176e-09 0.6087614290086991 0.7933533402912518
  outer loop
    vertex 142.94984831143253 -885.3615235986533 100.56421222949764
    vertex 140.74984831440372 -885.7757371611141 100.88204949241388
    vertex 142.94984831411415 -885.7757371610263 100.88204947469342
  endloop
endfacet
facet normal 4.8718115501476005e-09 0.7933533402912517 0.608761429008699
  outer loop
    vertex 140.74984830823468 -885.0436863535452 100.14999868484502
    vertex 142.94984831143253 -885.3615235986533 100.56421222949764
    vertex 142.9498483079451 -885.0436863534575 100.14999866712455
  endloop
endfacet
facet normal 4.8718115501476005e-09 0.7933533402912517 0.608761429008699
  outer loop
    vertex 142.94984831143253 -885.3615235986533 100.56421222949764
    vertex 140.74984830823468 -885.0436863535452 100.14999868484502
    vertex 140.74984831172213 -885.361523598741 100.56421224721811
  endloop
endfacet
facet normal -4.384813822133336e-09 -0.005539783422156005 -0.9999846552820878
  outer loop
    vertex 140.7498482991181 -876.3258020273934 98.10170274461802
    vertex 142.94984829115683 -885.0436863534575 98.14999866712455
    vertex 140.7498482914464 -885.0436863535452 98.14999868484502
  endloop
endfacet
facet normal -4.384813822133336e-09 -0.005539783422156005 -0.9999846552820878
  outer loop
    vertex 142.94984829115683 -885.0436863534575 98.14999866712455
    vertex 140.7498482991181 -876.3258020273934 98.10170274461802
    vertex 142.94984829730313 -876.3258020273934 98.10170274304453
  endloop
endfacet
facet normal -2.5776469913760734e-09 0.7933533402912517 -0.6087614290086991
  outer loop
    vertex 140.7498481980756 -885.3615235922631 89.63700966630587
    vertex 142.94984829106104 -885.0436863534575 90.05122321103585
    vertex 142.94984828763398 -885.3615235986533 89.63700964866274
  endloop
endfacet
facet normal -2.5776469913760734e-09 0.7933533402912517 -0.6087614290086991
  outer loop
    vertex 142.94984829106104 -885.0436863534575 90.05122321103585
    vertex 140.7498481980756 -885.3615235922631 89.63700966630587
    vertex 140.7498482015027 -885.0436863470674 90.05122322867898
  endloop
endfacet
facet normal -4.5941655374353915e-09 0.6087614290086991 -0.7933533402912518
  outer loop
    vertex 140.7498481980756 -885.3615235922631 89.63700966630587
    vertex 142.94984828502294 -885.7757371610263 89.31917240346698
    vertex 140.74984819546458 -885.7757371546362 89.31917242111011
  endloop
endfacet
facet normal -4.5941655374353915e-09 0.6087614290086991 -0.7933533402912518
  outer loop
    vertex 142.94984828502294 -885.7757371610263 89.31917240346698
    vertex 140.7498481980756 -885.3615235922631 89.63700966630587
    vertex 142.94984828763398 -885.3615235986533 89.63700964866274
  endloop
endfacet
facet normal -6.297617560202839e-09 0.38268343236510755 -0.9238795325112795
  outer loop
    vertex 140.74984819546458 -885.7757371546362 89.31917242111011
    vertex 142.94984828340583 -886.2580990708213 89.1193715584577
    vertex 140.74984819384744 -886.2580990644312 89.11937157610083
  endloop
endfacet
facet normal -6.297617560202839e-09 0.38268343236510755 -0.9238795325112795
  outer loop
    vertex 142.94984828340583 -886.2580990708213 89.1193715584577
    vertex 140.74984819546458 -885.7757371546362 89.31917242111011
    vertex 142.94984828502294 -885.7757371610263 89.31917240346698
  endloop
endfacet
facet normal -7.571897353548029e-09 0.13052619222003511 -0.9914448613738126
  outer loop
    vertex 140.74984819384744 -886.2580990644312 89.11937157610083
    vertex 142.94984828289287 -886.7757371610263 89.05122321103585
    vertex 140.7498481933345 -886.7757371546363 89.05122322867898
  endloop
endfacet
facet normal -7.571897353548029e-09 0.13052619222003511 -0.9914448613738126
  outer loop
    vertex 142.94984828289287 -886.7757371610263 89.05122321103585
    vertex 140.74984819384744 -886.2580990644312 89.11937157610083
    vertex 142.94984828340583 -886.2580990708213 89.1193715584577
  endloop
endfacet
facet normal -8.33016485540067e-09 -0.13052619222003511 -0.9914448613738126
  outer loop
    vertex 142.94984828289287 -886.7757371610263 89.05122321103585
    vertex 140.74984819396064 -887.2933752448414 89.11937157610083
    vertex 140.7498481933345 -886.7757371546363 89.05122322867898
  endloop
endfacet
facet normal -8.33016485540067e-09 -0.13052619222003511 -0.9914448613738126
  outer loop
    vertex 140.74984819396064 -887.2933752448414 89.11937157610083
    vertex 142.94984828289287 -886.7757371610263 89.05122321103585
    vertex 142.94984828351903 -887.2933752512314 89.1193715584577
  endloop
endfacet
facet normal -8.520745388606187e-09 -0.38268343236510743 -0.9238795325112793
  outer loop
    vertex 142.94984828351903 -887.2933752512314 89.1193715584577
    vertex 140.74984819568326 -887.7757371546362 89.31917242111011
    vertex 140.74984819396064 -887.2933752448414 89.11937157610083
  endloop
endfacet
facet normal -8.520745388606187e-09 -0.38268343236510743 -0.9238795325112793
  outer loop
    vertex 140.74984819568326 -887.7757371546362 89.31917242111011
    vertex 142.94984828351903 -887.2933752512314 89.1193715584577
    vertex 142.94984828524164 -887.7757371610264 89.31917240346698
  endloop
endfacet
facet normal -8.130651204775785e-09 -0.6087614290086991 -0.7933533402912518
  outer loop
    vertex 142.94984828524164 -887.7757371610264 89.31917240346698
    vertex 140.74984819838488 -888.1899507170093 89.63700966630587
    vertex 140.74984819568326 -887.7757371546362 89.31917242111011
  endloop
endfacet
facet normal -8.130651204775785e-09 -0.6087614290086991 -0.7933533402912518
  outer loop
    vertex 140.74984819838488 -888.1899507170093 89.63700966630587
    vertex 142.94984828524164 -887.7757371610264 89.31917240346698
    vertex 142.94984828794327 -888.1899507233994 89.63700964866274
  endloop
endfacet
facet normal -7.1864665778760615e-09 -0.7933533402912518 -0.6087614290086991
  outer loop
    vertex 142.94984829143982 -888.5077879685953 90.05122321103585
    vertex 140.74984819838488 -888.1899507170093 89.63700966630587
    vertex 142.94984828794327 -888.1899507233994 89.63700964866274
  endloop
endfacet
facet normal -7.1864665778760615e-09 -0.7933533402912518 -0.6087614290086991
  outer loop
    vertex 140.74984819838488 -888.1899507170093 89.63700966630587
    vertex 142.94984829143982 -888.5077879685953 90.05122321103585
    vertex 140.74984820188146 -888.507787962205 90.05122322867898
  endloop
endfacet
facet normal -5.752536129891915e-09 -0.9238795325112884 -0.38268343236508595
  outer loop
    vertex 142.94984829549304 -888.7075888136045 90.5335851208308
    vertex 140.74984820188146 -888.507787962205 90.05122322867898
    vertex 142.94984829143982 -888.5077879685953 90.05122321103585
  endloop
endfacet
facet normal -5.752536129891915e-09 -0.9238795325112884 -0.38268343236508595
  outer loop
    vertex 140.74984820188146 -888.507787962205 90.05122322867898
    vertex 142.94984829549304 -888.7075888136045 90.5335851208308
    vertex 140.74984820593468 -888.7075888072144 90.53358513847392
  endloop
endfacet
facet normal -3.926579851171155e-09 -0.9914448613738077 -0.13052619222007197
  outer loop
    vertex 142.9498482998267 -888.7757371610263 91.05122321103585
    vertex 140.74984820593468 -888.7075888072144 90.53358513847392
    vertex 142.94984829549304 -888.7075888136045 90.5335851208308
  endloop
endfacet
facet normal -3.926579851171155e-09 -0.9914448613738077 -0.13052619222007197
  outer loop
    vertex 140.74984820593468 -888.7075888072144 90.53358513847392
    vertex 142.9498482998267 -888.7757371610263 91.05122321103585
    vertex 140.7498482102683 -888.7757371546362 91.05122322867898
  endloop
endfacet
facet normal -1.833033644572595e-09 -0.9914448613738077 0.130526192220072
  outer loop
    vertex 142.94984830414546 -888.7075888136045 91.56886130124089
    vertex 140.7498482102683 -888.7757371546362 91.05122322867898
    vertex 142.9498482998267 -888.7757371610263 91.05122321103585
  endloop
endfacet
facet normal -1.833033644572595e-09 -0.9914448613738077 0.130526192220072
  outer loop
    vertex 140.7498482102683 -888.7757371546362 91.05122322867898
    vertex 142.94984830414546 -888.7075888136045 91.56886130124089
    vertex 140.74984821458708 -888.7075888072144 91.56886131888402
  endloop
endfacet
facet normal 3.8543077567173985e-10 -0.9238795325112884 0.38268343236508595
  outer loop
    vertex 142.94984830815497 -888.5077879685953 92.05122321103585
    vertex 140.74984821458708 -888.7075888072144 91.56886131888402
    vertex 142.94984830414546 -888.7075888136045 91.56886130124089
  endloop
endfacet
facet normal 3.8543077567173985e-10 -0.9238795325112884 0.38268343236508595
  outer loop
    vertex 140.74984821458708 -888.7075888072144 91.56886131888402
    vertex 142.94984830815497 -888.5077879685953 92.05122321103585
    vertex 140.7498482185966 -888.507787962205 92.05122322867898
  endloop
endfacet
facet normal 2.577628725508538e-09 -0.7933533402912518 0.6087614290086991
  outer loop
    vertex 142.94984831158203 -888.1899507233994 92.46543677340894
    vertex 140.7498482185966 -888.507787962205 92.05122322867898
    vertex 142.94984830815497 -888.5077879685953 92.05122321103585
  endloop
endfacet
facet normal 2.577628725508538e-09 -0.7933533402912518 0.6087614290086991
  outer loop
    vertex 140.7498482185966 -888.507787962205 92.05122322867898
    vertex 142.94984831158203 -888.1899507233994 92.46543677340894
    vertex 140.74984822202364 -888.1899507170093 92.46543679105207
  endloop
endfacet
facet normal 4.5941655374353915e-09 -0.6087614290086991 0.7933533402912518
  outer loop
    vertex 142.94984831158203 -888.1899507233994 92.46543677340894
    vertex 140.74984822463472 -887.7757371546362 92.78327403624785
    vertex 140.74984822202364 -888.1899507170093 92.46543679105207
  endloop
endfacet
facet normal 4.5941655374353915e-09 -0.6087614290086991 0.7933533402912518
  outer loop
    vertex 140.74984822463472 -887.7757371546362 92.78327403624785
    vertex 142.94984831158203 -888.1899507233994 92.46543677340894
    vertex 142.94984831419308 -887.7757371610264 92.78327401860471
  endloop
endfacet
facet normal 6.297617560202839e-09 -0.38268343236510755 0.9238795325112795
  outer loop
    vertex 142.94984831419308 -887.7757371610264 92.78327401860471
    vertex 140.7498482262518 -887.2933752448414 92.98307488125712
    vertex 140.74984822463472 -887.7757371546362 92.78327403624785
  endloop
endfacet
facet normal 6.297617560202839e-09 -0.38268343236510755 0.9238795325112795
  outer loop
    vertex 140.7498482262518 -887.2933752448414 92.98307488125712
    vertex 142.94984831419308 -887.7757371610264 92.78327401860471
    vertex 142.9498483158102 -887.2933752512314 92.983074863614
  endloop
endfacet
facet normal 7.571897353548029e-09 -0.13052619222003511 0.9914448613738126
  outer loop
    vertex 142.9498483158102 -887.2933752512314 92.983074863614
    vertex 140.74984822676475 -886.7757371546363 93.05122322867896
    vertex 140.7498482262518 -887.2933752448414 92.98307488125712
  endloop
endfacet
facet normal 7.571897353548029e-09 -0.13052619222003511 0.9914448613738126
  outer loop
    vertex 140.74984822676475 -886.7757371546363 93.05122322867896
    vertex 142.9498483158102 -887.2933752512314 92.983074863614
    vertex 142.94984831632314 -886.7757371610263 93.05122321103583
  endloop
endfacet
facet normal 8.330164855400748e-09 0.13052619222007758 0.9914448613738069
  outer loop
    vertex 140.74984822676475 -886.7757371546363 93.05122322867896
    vertex 142.94984831569698 -886.2580990708213 92.98307486361396
    vertex 140.7498482261386 -886.2580990644312 92.9830748812571
  endloop
endfacet
facet normal 8.330164855400748e-09 0.13052619222007758 0.9914448613738069
  outer loop
    vertex 142.94984831569698 -886.2580990708213 92.98307486361396
    vertex 140.74984822676475 -886.7757371546363 93.05122322867896
    vertex 142.94984831632314 -886.7757371610263 93.05122321103583
  endloop
endfacet
facet normal 8.520745388606203e-09 0.38268343236507063 0.9238795325112947
  outer loop
    vertex 140.7498482261386 -886.2580990644312 92.9830748812571
    vertex 142.9498483139744 -885.7757371610263 92.78327401860471
    vertex 140.749848224416 -885.7757371546362 92.78327403624785
  endloop
endfacet
facet normal 8.520745388606203e-09 0.38268343236507063 0.9238795325112947
  outer loop
    vertex 142.9498483139744 -885.7757371610263 92.78327401860471
    vertex 140.7498482261386 -886.2580990644312 92.9830748812571
    vertex 142.94984831569698 -886.2580990708213 92.98307486361396
  endloop
endfacet
facet normal 8.130651204775785e-09 0.6087614290086991 0.7933533402912518
  outer loop
    vertex 140.749848224416 -885.7757371546362 92.78327403624785
    vertex 142.94984831127275 -885.3615235986533 92.46543677340894
    vertex 140.74984822171436 -885.3615235922631 92.46543679105207
  endloop
endfacet
facet normal 8.130651204775785e-09 0.6087614290086991 0.7933533402912518
  outer loop
    vertex 142.94984831127275 -885.3615235986533 92.46543677340894
    vertex 140.749848224416 -885.7757371546362 92.78327403624785
    vertex 142.9498483139744 -885.7757371610263 92.78327401860471
  endloop
endfacet
facet normal 7.186405330135968e-09 0.7933533402912517 0.608761429008699
  outer loop
    vertex 140.74984821821783 -885.0436863470674 92.05122322867898
    vertex 142.94984831127275 -885.3615235986533 92.46543677340894
    vertex 142.9498483077762 -885.0436863534575 92.05122321103585
  endloop
endfacet
facet normal 7.186405330135968e-09 0.7933533402912517 0.608761429008699
  outer loop
    vertex 142.94984831127275 -885.3615235986533 92.46543677340894
    vertex 140.74984821821783 -885.0436863470674 92.05122322867898
    vertex 140.74984822171436 -885.3615235922631 92.46543679105207
  endloop
endfacet
endsolid NARFSTR Solid
