<?xml version="1.0" encoding="UTF-8" standalone="no"?>
<svg
   xmlns:dc="http://purl.org/dc/elements/1.1/"
   xmlns:cc="http://creativecommons.org/ns#"
   xmlns:rdf="http://www.w3.org/1999/02/22-rdf-syntax-ns#"
   xmlns:svg="http://www.w3.org/2000/svg"
   xmlns="http://www.w3.org/2000/svg"
   xmlns:sodipodi="http://sodipodi.sourceforge.net/DTD/sodipodi-0.dtd"
   xmlns:inkscape="http://www.inkscape.org/namespaces/inkscape"
   viewBox="0 0 204.875 91.25"
   height="91.25"
   width="204.875"
   xml:space="preserve"
   version="1.1"
   id="svg2"
   inkscape:version="0.48.5 r10040"
   sodipodi:docname="nistident_cent_vec.svg"><sodipodi:namedview
     pagecolor="#ffffff"
     bordercolor="#666666"
     borderopacity="1"
     objecttolerance="10"
     gridtolerance="10"
     guidetolerance="10"
     inkscape:pageopacity="0"
     inkscape:pageshadow="2"
     inkscape:window-width="1920"
     inkscape:window-height="1137"
     id="namedview78"
     showgrid="false"
     inkscape:zoom="6.1696156"
     inkscape:cx="101.47493"
     inkscape:cy="26.512224"
     inkscape:window-x="-8"
     inkscape:window-y="-8"
     inkscape:window-maximized="1"
     inkscape:current-layer="svg2" /><metadata
     id="metadata8"><rdf:RDF><cc:Work
         rdf:about=""><dc:format>image/svg+xml</dc:format><dc:type
           rdf:resource="http://purl.org/dc/dcmitype/StillImage" /><dc:title></dc:title></cc:Work></rdf:RDF></metadata><defs
     id="defs6"><clipPath
       id="clipPath18"
       clipPathUnits="userSpaceOnUse"><path
         id="path20"
         d="M 0,729.98 0,0 l 1638.98,0 0,729.98 -1638.98,0 z" /></clipPath></defs><g
     transform="matrix(1.25,0,0,-1.25,0,91.25)"
     id="g10"><g
       transform="scale(0.1,0.1)"
       id="g12"><g
         id="g14"><g
           clip-path="url(#clipPath18)"
           id="g16"><path
             id="path22"
             style="fill:#231f20;fill-opacity:1;fill-rule:nonzero;stroke:none"
             d="m 208.336,409.836 23.172,0 42.441,-54.504 0.239,0 0,54.504 23.175,0 0,-89.145 -23.175,0 -42.442,54.629 -0.238,0 0,-54.629 -23.172,0 0,89.145" /><path
             id="path24"
             style="fill:#231f20;fill-opacity:1;fill-rule:nonzero;stroke:none"
             d="m 329.883,350.965 c 0,-7.684 5.078,-13.594 13.84,-13.594 8.742,0 13.82,5.91 13.82,13.594 0,7.441 -5.078,13.703 -13.82,13.703 -8.762,0 -13.84,-6.262 -13.84,-13.703 z m 48.48,-30.274 -21.515,0 0,6.739 -0.243,0 c -3.793,-6.024 -11.222,-8.739 -18.335,-8.739 -17.958,0 -30.618,15.02 -30.618,32.395 0,17.371 12.422,32.273 30.379,32.273 6.985,0 14.324,-2.609 18.817,-7.929 l 0,5.925 21.515,0 0,-60.664" /><path
             id="path26"
             style="fill:#231f20;fill-opacity:1;fill-rule:nonzero;stroke:none"
             d="m 416.188,320.691 -21.516,0 0,42.922 -6.977,0 0,17.742 6.977,0 0,18.204 21.516,0 0,-18.204 12.187,0 0,-17.742 -12.187,0 0,-42.922" /><path
             id="path28"
             style="fill:#231f20;fill-opacity:1;fill-rule:nonzero;stroke:none"
             d="m 456.754,320.691 -21.52,0 0,60.664 21.52,0 0,-60.664 z m 1.281,83.954 c 0,-6.633 -5.43,-12.063 -12.051,-12.063 -6.625,0 -12.058,5.43 -12.058,12.063 0,6.621 5.433,12.05 12.058,12.05 6.621,0 12.051,-5.429 12.051,-12.05" /><path
             id="path30"
             style="fill:#231f20;fill-opacity:1;fill-rule:nonzero;stroke:none"
             d="m 489.145,350.965 c 0,-7.684 5.085,-13.594 13.824,-13.594 8.761,0 13.843,5.91 13.843,13.594 0,7.441 -5.082,13.703 -13.843,13.703 -8.739,0 -13.824,-6.262 -13.824,-13.703 z m 50.359,0 c 0,-20.574 -17.024,-32.274 -36.535,-32.274 -19.379,0 -36.531,11.571 -36.531,32.274 0,20.676 17.019,32.394 36.531,32.394 19.511,0 36.535,-11.718 36.535,-32.394" /><path
             id="path32"
             style="fill:#231f20;fill-opacity:1;fill-rule:nonzero;stroke:none"
             d="m 570.723,373.551 0.238,0 c 4.973,7.328 11.004,9.808 19.398,9.808 16.305,0 22.805,-10.289 22.805,-25.187 l 0,-37.481 -21.516,0 0,29.563 c 0,5.789 0.954,15.957 -9.683,15.957 -8.762,0 -11.242,-6.504 -11.242,-14.063 l 0,-31.457 -21.52,0 0,60.664 21.52,0 0,-7.804" /><path
             id="path34"
             style="fill:#231f20;fill-opacity:1;fill-rule:nonzero;stroke:none"
             d="m 645.203,350.965 c 0,-7.684 5.102,-13.594 13.844,-13.594 8.746,0 13.84,5.91 13.84,13.594 0,7.441 -5.094,13.703 -13.84,13.703 -8.742,0 -13.844,-6.262 -13.844,-13.703 z m 48.485,-30.274 -21.516,0 0,6.739 -0.238,0 c -3.782,-6.024 -11.231,-8.739 -18.329,-8.739 -17.968,0 -30.613,15.02 -30.613,32.395 0,17.371 12.403,32.273 30.391,32.273 6.972,0 14.297,-2.609 18.789,-7.929 l 0,5.925 21.516,0 0,-60.664" /><path
             id="path36"
             style="fill:#231f20;fill-opacity:1;fill-rule:nonzero;stroke:none"
             d="m 707.988,320.691 21.5391,0 0,98.1406 -21.5391,0 0,-98.1406 z" /><path
             id="path38"
             style="fill:#231f20;fill-opacity:1;fill-rule:nonzero;stroke:none"
             d="m 784.723,320.691 23.1875,0 0,89.1445 -23.1875,0 0,-89.1445 z" /><path
             id="path40"
             style="fill:#231f20;fill-opacity:1;fill-rule:nonzero;stroke:none"
             d="m 844.082,373.551 0.234,0 c 4.969,7.328 10.996,9.808 19.407,9.808 16.304,0 22.8,-10.289 22.8,-25.187 l 0,-37.481 -21.511,0 0,29.563 c 0,5.789 0.957,15.957 -9.7,15.957 -8.75,0 -11.23,-6.504 -11.23,-14.063 l 0,-31.457 -21.52,0 0,60.664 21.52,0 0,-7.804" /><path
             id="path42"
             style="fill:#231f20;fill-opacity:1;fill-rule:nonzero;stroke:none"
             d="m 940.801,365.75 c -3.313,1.77 -7.918,2.941 -11.59,2.941 -2.473,0 -6.738,-1.066 -6.738,-4.121 0,-4.14 6.738,-4.746 9.695,-5.343 10.051,-2 17.617,-6.727 17.617,-17.957 0,-15.969 -14.543,-22.579 -28.601,-22.579 -8.633,0 -17.161,2.469 -24.485,6.973 l 7.805,15.02 c 4.375,-3.098 11.707,-6.153 17.027,-6.153 2.727,0 6.731,1.309 6.731,4.61 0,4.726 -6.731,4.968 -13.465,6.726 -6.738,1.789 -13.488,5.098 -13.488,15.957 0,14.914 13.488,21.535 26.718,21.535 6.868,0 13.719,-1.058 19.993,-3.918 l -7.219,-13.691" /><path
             id="path44"
             style="fill:#231f20;fill-opacity:1;fill-rule:nonzero;stroke:none"
             d="m 984.902,320.691 -21.511,0 0,42.922 -6.985,0 0,17.742 6.985,0 0,18.204 21.511,0 0,-18.204 12.188,0 0,-17.742 -12.188,0 0,-42.922" /><path
             id="path46"
             style="fill:#231f20;fill-opacity:1;fill-rule:nonzero;stroke:none"
             d="m 1025.46,320.691 -21.52,0 0,60.664 21.52,0 0,-60.664 z m 1.29,83.954 c 0,-6.633 -5.44,-12.063 -12.05,-12.063 -6.62,0 -12.07,5.43 -12.07,12.063 0,6.621 5.45,12.05 12.07,12.05 6.61,0 12.05,-5.429 12.05,-12.05" /><path
             id="path48"
             style="fill:#231f20;fill-opacity:1;fill-rule:nonzero;stroke:none"
             d="m 1063.16,320.691 -21.52,0 0,42.922 -6.97,0 0,17.742 6.97,0 0,18.204 21.52,0 0,-18.204 12.19,0 0,-17.742 -12.19,0 0,-42.922" /><path
             id="path50"
             style="fill:#231f20;fill-opacity:1;fill-rule:nonzero;stroke:none"
             d="m 1103.38,381.355 0,-32.39 c 0,-7.695 1.88,-13.125 10.74,-13.125 8.88,0 10.77,5.43 10.77,13.125 l 0,32.39 21.52,0 0,-36.531 c 0,-19.988 -14.08,-26.133 -32.29,-26.133 -18.19,0 -32.27,6.145 -32.27,26.133 l 0,36.531 21.53,0" /><path
             id="path52"
             style="fill:#231f20;fill-opacity:1;fill-rule:nonzero;stroke:none"
             d="m 1183.65,320.691 -21.52,0 0,42.922 -6.97,0 0,17.742 6.97,0 0,18.204 21.52,0 0,-18.204 12.18,0 0,-17.742 -12.18,0 0,-42.922" /><path
             id="path54"
             style="fill:#231f20;fill-opacity:1;fill-rule:nonzero;stroke:none"
             d="m 1245.02,359.824 c -1.06,5.801 -6.4,9.59 -12.18,9.59 -6.27,0 -11.46,-3.312 -12.77,-9.59 l 24.95,0 z m 19.98,-12.402 -45.28,0 c 0,-8.75 4.6,-13.496 13.47,-13.496 4.6,0 7.92,1.543 10.3,5.574 l 20.68,0 c -3.43,-14.316 -17.03,-20.809 -30.87,-20.809 -20.09,0 -35.11,11.348 -35.11,32.274 0,20.215 13.84,32.394 33.59,32.394 21.03,0 33.22,-13.007 33.22,-33.703 l 0,-2.234" /><path
             id="path56"
             style="fill:#231f20;fill-opacity:1;fill-rule:nonzero;stroke:none"
             d="m 1333.57,350.965 c 0,-7.684 5.09,-13.594 13.84,-13.594 8.75,0 13.84,5.91 13.84,13.594 0,7.441 -5.09,13.703 -13.84,13.703 -8.75,0 -13.84,-6.262 -13.84,-13.703 z m 50.37,0 c 0,-20.574 -17.03,-32.274 -36.53,-32.274 -19.39,0 -36.55,11.571 -36.55,32.274 0,20.676 17.03,32.394 36.55,32.394 19.5,0 36.53,-11.718 36.53,-32.394" /><path
             id="path58"
             style="fill:#231f20;fill-opacity:1;fill-rule:nonzero;stroke:none"
             d="m 1417.29,320.691 -21.52,0 0,42.922 -7.58,0 0,17.742 7.58,0 0,7.676 c 0,8.391 0.23,14.543 6.14,21.281 5.33,6.27 13,9.696 21.18,9.696 3.3,0 6.25,-0.586 9.21,-2.121 l 0,-18.567 c -2.49,1.071 -4.72,2.008 -7.57,2.008 -5.55,0 -7.44,-3.316 -7.44,-10.16 l 0,-9.813 15.01,0 0,-17.742 -15.01,0 0,-42.922" /><path
             id="path60"
             style="fill:#231f20;fill-opacity:1;fill-rule:nonzero;stroke:none"
             d="m 52.9727,244.199 c -4.2539,3.555 -9.6993,5.926 -15.3711,5.926 -4.2539,0 -9.9414,-2.488 -9.9414,-7.449 0,-5.215 6.2812,-7.215 10.2929,-8.528 l 5.9102,-1.765 c 12.4219,-3.664 21.9922,-9.942 21.9922,-24.356 0,-8.867 -2.1172,-17.98 -9.2227,-23.996 -6.9766,-5.926 -16.3086,-8.398 -25.3047,-8.398 -11.2304,0 -22.21482,3.769 -31.3281,10.16 l 9.94141,18.687 c 5.78129,-5.078 12.64059,-9.226 20.56249,-9.226 5.4375,0 11.2383,2.723 11.2383,8.984 0,6.504 -9.1094,8.75 -14.082,10.184 -14.5391,4.121 -24.10942,7.902 -24.10942,25.176 0,18.097 12.89062,29.902 30.74222,29.902 8.9804,0 19.9843,-2.832 27.8984,-7.324 l -9.2187,-17.977" /><path
             id="path62"
             style="fill:#231f20;fill-opacity:1;fill-rule:nonzero;stroke:none"
             d="m 99.9062,177.988 -21.5117,0 0,42.93 -6.9843,0 0,17.734 6.9843,0 0,18.211 21.5117,0 0,-18.211 12.1838,0 0,-17.734 -12.1838,0 0,-42.93" /><path
             id="path64"
             style="fill:#231f20;fill-opacity:1;fill-rule:nonzero;stroke:none"
             d="m 136.809,208.262 c 0,-7.688 5.078,-13.594 13.828,-13.594 8.738,0 13.836,5.906 13.836,13.594 0,7.441 -5.098,13.711 -13.836,13.711 -8.75,0 -13.828,-6.27 -13.828,-13.711 z m 48.461,-30.274 -21.516,0 0,6.746 -0.238,0 c -3.77,-6.035 -11.231,-8.75 -18.313,-8.75 -17.98,0 -30.629,15.02 -30.629,32.395 0,17.383 12.406,32.285 30.391,32.285 6.973,0 14.297,-2.617 18.789,-7.93 l 0,5.918 21.516,0 0,-60.664" /><path
             id="path66"
             style="fill:#231f20;fill-opacity:1;fill-rule:nonzero;stroke:none"
             d="m 221.109,230.848 0.239,0 c 4.953,7.324 10.992,9.816 19.379,9.816 16.324,0 22.824,-10.293 22.824,-25.195 l 0,-37.481 -21.52,0 0,29.559 c 0,5.801 0.938,15.957 -9.691,15.957 -8.75,0 -11.231,-6.492 -11.231,-14.063 l 0,-31.453 -21.519,0 0,60.664 21.519,0 0,-7.804" /><path
             id="path68"
             style="fill:#231f20;fill-opacity:1;fill-rule:nonzero;stroke:none"
             d="m 296.422,208.262 c 0,-7.688 5.082,-13.594 13.82,-13.594 8.762,0 13.84,5.906 13.84,13.594 0,7.441 -5.078,13.711 -13.84,13.711 -8.738,0 -13.82,-6.27 -13.82,-13.711 z m 26.945,-23.528 -0.222,0 c -3.79,-6.035 -11.243,-8.75 -18.333,-8.75 -17.98,0 -30.624,15.02 -30.624,32.395 0,17.383 12.421,32.285 30.386,32.285 6.981,0 14.309,-2.617 18.793,-7.93 l 0,43.399 21.535,0 0,-98.145 -21.535,0 0,6.746" /><path
             id="path70"
             style="fill:#231f20;fill-opacity:1;fill-rule:nonzero;stroke:none"
             d="m 376.227,208.262 c 0,-7.688 5.082,-13.594 13.835,-13.594 8.75,0 13.833,5.906 13.833,13.594 0,7.441 -5.083,13.711 -13.833,13.711 -8.753,0 -13.835,-6.27 -13.835,-13.711 z m 48.48,-30.274 -21.516,0 0,6.746 -0.238,0 c -3.789,-6.035 -11.242,-8.75 -18.328,-8.75 -17.969,0 -30.633,15.02 -30.633,32.395 0,17.383 12.426,32.285 30.395,32.285 6.968,0 14.301,-2.617 18.804,-7.93 l 0,5.918 21.516,0 0,-60.664" /><path
             id="path72"
             style="fill:#231f20;fill-opacity:1;fill-rule:nonzero;stroke:none"
             d="m 460.527,228.719 0.239,0 c 4.14,7.453 11.23,10.754 19.621,10.754 l 4.14,0 0,-20.696 c -2.949,1.661 -5.797,2.004 -9.093,2.004 -11.95,0 -14.907,-7.91 -14.907,-18.312 l 0,-24.481 -21.519,0 0,60.664 21.519,0 0,-9.933" /><path
             id="path74"
             style="fill:#231f20;fill-opacity:1;fill-rule:nonzero;stroke:none"
             d="m 511.25,208.262 c 0,-7.688 5.082,-13.594 13.84,-13.594 8.75,0 13.832,5.906 13.832,13.594 0,7.441 -5.082,13.711 -13.832,13.711 -8.758,0 -13.84,-6.27 -13.84,-13.711 z m 26.969,-23.528 -0.239,0 c -3.792,-6.035 -11.246,-8.75 -18.332,-8.75 -17.968,0 -30.628,15.02 -30.628,32.395 0,17.383 12.421,32.285 30.39,32.285 6.973,0 14.313,-2.617 18.809,-7.93 l 0,43.399 21.511,0 0,-98.145 -21.511,0 0,6.746" /><path
             id="path76"
             style="fill:#231f20;fill-opacity:1;fill-rule:nonzero;stroke:none"
             d="m 613.293,223.047 c -3.313,1.765 -7.934,2.949 -11.594,2.949 -2.484,0 -6.738,-1.066 -6.738,-4.152 0,-4.129 6.738,-4.727 9.703,-5.313 10.047,-2.011 17.609,-6.738 17.609,-17.957 0,-15.969 -14.539,-22.59 -28.621,-22.59 -8.629,0 -17.132,2.481 -24.464,6.977 l 7.808,15.016 c 4.367,-3.075 11.703,-6.141 17.027,-6.141 2.711,0 6.739,1.277 6.739,4.598 0,4.726 -6.739,4.972 -13.492,6.738 -6.739,1.789 -13.477,5.09 -13.477,15.976 0,14.895 13.477,21.516 26.73,21.516 6.86,0 13.711,-1.066 19.981,-3.898 l -7.211,-13.719" /><path
             id="path78"
             style="fill:#231f20;fill-opacity:1;fill-rule:nonzero;stroke:none"
             d="m 692.273,208.262 c 0,-7.688 5.082,-13.594 13.821,-13.594 8.761,0 13.844,5.906 13.844,13.594 0,7.441 -5.083,13.711 -13.844,13.711 -8.739,0 -13.821,-6.27 -13.821,-13.711 z m 48.473,-30.274 -21.527,0 0,6.746 -0.227,0 c -3.789,-6.035 -11.242,-8.75 -18.328,-8.75 -17.976,0 -30.629,15.02 -30.629,32.395 0,17.383 12.426,32.285 30.391,32.285 6.972,0 14.301,-2.617 18.793,-7.93 l 0,5.918 21.527,0 0,-60.664" /><path
             id="path80"
             style="fill:#231f20;fill-opacity:1;fill-rule:nonzero;stroke:none"
             d="m 776.566,230.848 0.243,0 c 4.968,7.324 10.988,9.816 19.382,9.816 16.325,0 22.825,-10.293 22.825,-25.195 l 0,-37.481 -21.516,0 0,29.559 c 0,5.801 0.938,15.957 -9.703,15.957 -8.742,0 -11.231,-6.492 -11.231,-14.063 l 0,-31.453 -21.515,0 0,60.664 21.515,0 0,-7.804" /><path
             id="path82"
             style="fill:#231f20;fill-opacity:1;fill-rule:nonzero;stroke:none"
             d="m 851.887,208.262 c 0,-7.688 5.078,-13.594 13.836,-13.594 8.75,0 13.828,5.906 13.828,13.594 0,7.441 -5.078,13.711 -13.828,13.711 -8.758,0 -13.836,-6.27 -13.836,-13.711 z m 26.961,-23.528 -0.235,0 c -3.789,-6.035 -11.23,-8.75 -18.332,-8.75 -17.969,0 -30.633,15.02 -30.633,32.395 0,17.383 12.422,32.285 30.391,32.285 6.973,0 14.316,-2.617 18.809,-7.93 l 0,43.399 21.511,0 0,-98.145 -21.511,0 0,6.746" /><path
             id="path84"
             style="fill:#231f20;fill-opacity:1;fill-rule:nonzero;stroke:none"
             d="m 990.332,177.988 -23.176,0 0,69.52 -19.136,0 0,19.621 61.47,0 0,-19.621 -19.158,0 0,-69.52" /><path
             id="path86"
             style="fill:#231f20;fill-opacity:1;fill-rule:nonzero;stroke:none"
             d="m 1051,217.117 c -1.08,5.801 -6.39,9.594 -12.18,9.594 -6.26,0 -11.48,-3.313 -12.78,-9.594 l 24.96,0 z m 19.98,-12.402 -45.29,0 c 0,-8.758 4.61,-13.496 13.48,-13.496 4.61,0 7.93,1.543 10.28,5.566 l 20.71,0 c -3.44,-14.297 -17.04,-20.801 -30.86,-20.801 -20.1,0 -35.12,11.352 -35.12,32.278 0,20.222 13.84,32.402 33.56,32.402 21.06,0 33.24,-13.008 33.24,-33.711 l 0,-2.238" /><path
             id="path88"
             style="fill:#231f20;fill-opacity:1;fill-rule:nonzero;stroke:none"
             d="m 1124.53,218.906 c -3.19,2.352 -6.98,4.246 -11.1,4.246 -8.28,0 -14.78,-6.386 -14.78,-14.773 0,-8.742 6.26,-14.895 15.12,-14.895 3.78,0 7.92,1.536 10.76,4.133 l 0,-18.215 c -4.72,-2.343 -9.93,-3.418 -15.14,-3.418 -17.95,0 -32.97,13.36 -32.97,31.672 0,19.52 14.88,33.008 33.93,33.008 4.95,0 9.93,-1.191 14.18,-3.555 l 0,-18.203" /><path
             id="path90"
             style="fill:#231f20;fill-opacity:1;fill-rule:nonzero;stroke:none"
             d="m 1159.4,276.133 0,-45.176 0.25,0 c 4.97,6.629 11,9.707 19.4,9.707 15.35,0 22.83,-10.176 22.83,-25.547 l 0,-37.129 -21.54,0 0,31.102 c 0,7.09 -1.05,14.414 -9.69,14.414 -8.52,0 -11.25,-7.324 -11.25,-14.414 l 0,-31.102 -21.51,0 0,98.145 21.51,0" /><path
             id="path92"
             style="fill:#231f20;fill-opacity:1;fill-rule:nonzero;stroke:none"
             d="m 1237.58,230.848 0.23,0 c 4.95,7.324 10.99,9.816 19.39,9.816 16.33,0 22.82,-10.293 22.82,-25.195 l 0,-37.481 -21.51,0 0,29.559 c 0,5.801 0.93,15.957 -9.71,15.957 -8.74,0 -11.22,-6.492 -11.22,-14.063 l 0,-31.453 -21.52,0 0,60.664 21.52,0 0,-7.804" /><path
             id="path94"
             style="fill:#231f20;fill-opacity:1;fill-rule:nonzero;stroke:none"
             d="m 1312.41,208.262 c 0,-7.688 5.09,-13.594 13.85,-13.594 8.73,0 13.81,5.906 13.81,13.594 0,7.441 -5.08,13.711 -13.81,13.711 -8.76,0 -13.85,-6.27 -13.85,-13.711 z m 50.38,0 c 0,-20.578 -17.03,-32.278 -36.53,-32.278 -19.4,0 -36.55,11.582 -36.55,32.278 0,20.703 17.03,32.402 36.55,32.402 19.5,0 36.53,-11.699 36.53,-32.402" /><path
             id="path96"
             style="fill:#231f20;fill-opacity:1;fill-rule:nonzero;stroke:none"
             d="m 1372.47,177.988 21.5312,0 0,98.1445 -21.5312,0 0,-98.1445 z" /><path
             id="path98"
             style="fill:#231f20;fill-opacity:1;fill-rule:nonzero;stroke:none"
             d="m 1426.4,208.262 c 0,-7.688 5.07,-13.594 13.82,-13.594 8.76,0 13.84,5.906 13.84,13.594 0,7.441 -5.08,13.711 -13.84,13.711 -8.75,0 -13.82,-6.27 -13.82,-13.711 z m 50.36,0 c 0,-20.578 -17.03,-32.278 -36.54,-32.278 -19.38,0 -36.53,11.582 -36.53,32.278 0,20.703 17.01,32.402 36.53,32.402 19.51,0 36.54,-11.699 36.54,-32.402" /><path
             id="path100"
             style="fill:#231f20;fill-opacity:1;fill-rule:nonzero;stroke:none"
             d="m 1504.55,208.73 c 0,-7.675 5.08,-13.605 13.82,-13.605 8.76,0 13.84,5.93 13.84,13.605 0,7.45 -5.08,13.711 -13.84,13.711 -8.74,0 -13.82,-6.261 -13.82,-13.711 z m 48.47,-24.824 c 0,-25.773 -12.77,-36.183 -35.11,-36.183 -13.95,0 -32.63,7.199 -34.53,23.183 l 24.12,0 c 0.58,-2.136 2.13,-3.679 4.02,-4.617 1.9,-0.949 4.14,-1.426 6.15,-1.426 11.59,0 13.82,7.567 13.82,17.383 l 0,2.832 c -5.55,-5.547 -11.23,-8.262 -19.26,-8.262 -17.74,0 -29.92,13.477 -29.92,30.965 0,17.735 12.53,32.883 31.11,32.883 7.09,0 13.58,-2.375 17.86,-8.398 l 0.21,0 0,6.386 21.53,0 0,-54.746" /><path
             id="path102"
             style="fill:#231f20;fill-opacity:1;fill-rule:nonzero;stroke:none"
             d="m 1557.64,238.652 24.81,0 16.2,-31.105 15.85,31.105 24.48,0 -48.61,-90.929 -24.1,0 20.68,38.547 -29.31,52.382" /><path
             id="path104"
             style="fill:#231f20;fill-opacity:1;fill-rule:nonzero;stroke:none"
             d="m 49.8984,67.2734 c 0,-6.6093 -0.2422,-14.1875 3.8985,-19.8515 3.9023,-5.4414 11.4687,-8.5157 17.9648,-8.5157 6.3945,0 13.3672,2.9493 17.5,7.918 4.7305,5.6758 4.3828,13.4766 4.3828,20.4492 l 0,53.0976 9.9295,0 0,-55.8124 c 0,-9.6836 -0.703,-17.3906 -7.8084,-24.707 C 89.6133,33.2305 80.7461,29.668 71.7617,29.668 c -8.3867,0 -17.0195,3.2109 -23.0586,9.1093 -7.8008,7.461 -8.7422,15.6172 -8.7422,25.7813 l 0,55.8124 9.9375,0 0,-53.0976" /><path
             id="path106"
             style="fill:#231f20;fill-opacity:1;fill-rule:nonzero;stroke:none"
             d="m 137.031,36.4258 c 0,-3.6641 -2.949,-6.7578 -6.625,-6.7578 -3.664,0 -6.613,3.0937 -6.613,6.7578 0,3.5234 2.949,6.4922 6.613,6.4922 3.676,0 6.625,-2.9688 6.625,-6.4922" /><path
             id="path108"
             style="fill:#231f20;fill-opacity:1;fill-rule:nonzero;stroke:none"
             d="m 198.047,102.977 c -3.551,6.152 -7.809,9.707 -15.371,9.707 -7.93,0 -14.781,-5.684 -14.781,-13.8285 0,-7.7032 7.917,-11.25 13.953,-13.9727 l 5.91,-2.5898 c 11.594,-5.0782 21.402,-10.875 21.402,-25.0664 0,-15.6172 -12.535,-27.5586 -28.031,-27.5586 -14.305,0 -24.941,9.2382 -27.774,23.0664 l 9.68,2.7148 c 1.313,-9.1015 8.281,-16.543 17.856,-16.543 9.589,0 18.332,7.3321 18.332,17.3711 0,10.4102 -8.153,13.9649 -16.434,17.7344 l -5.43,2.375 c -10.421,4.7266 -19.398,10.0391 -19.398,22.8125 0,13.8358 11.703,22.6958 24.953,22.6958 9.922,0 18.316,-5.079 23.043,-13.821 l -7.91,-5.097" /><path
             id="path110"
             style="fill:#231f20;fill-opacity:1;fill-rule:nonzero;stroke:none"
             d="m 239.551,36.4258 c 0,-3.6641 -2.965,-6.7578 -6.629,-6.7578 -3.664,0 -6.621,3.0937 -6.621,6.7578 0,3.5234 2.957,6.4922 6.621,6.4922 3.664,0 6.629,-2.9688 6.629,-6.4922" /><path
             id="path112"
             style="fill:#231f20;fill-opacity:1;fill-rule:nonzero;stroke:none"
             d="m 313.684,40.4297 c 10.863,0 19.968,1.5508 28.128,9.2265 7.344,6.8672 11.114,16.2032 11.114,26.1446 0,10.1562 -3.903,19.9687 -11.574,26.7192 -8.168,7.207 -17.157,8.632 -27.668,8.632 l -7.215,0 0,-70.7223 7.215,0 z m -17.153,79.9413 16.789,0 c 13.36,0 24.242,-1.777 34.766,-10.762 10.16,-8.75 14.781,-20.691 14.781,-33.9371 0,-12.9961 -4.73,-24.4727 -14.543,-33.2305 -10.636,-9.4648 -21.293,-11.2226 -35.242,-11.2226 l -16.551,0 0,89.1522" /><path
             id="path114"
             style="fill:#231f20;fill-opacity:1;fill-rule:nonzero;stroke:none"
             d="m 415.117,65.0273 c -1.285,8.0391 -8.043,14.543 -16.305,14.543 -8.167,0 -15.738,-6.5039 -16.917,-14.543 l 33.222,0 z m -33.695,-8.0468 c 0.125,-10.2617 7.449,-18.5547 18.223,-18.5547 8.043,0 13.23,4.8437 16.894,11.4648 l 8.039,-4.6094 C 419.262,35.3516 410.277,29.668 398.926,29.668 c -16.555,0 -27.192,12.6679 -27.192,28.625 0,16.4336 9.575,30.0351 26.954,30.0351 17.851,0 27.308,-14.7851 26.371,-31.3476 l -43.637,0" /><path
             id="path116"
             style="fill:#231f20;fill-opacity:1;fill-rule:nonzero;stroke:none"
             d="m 446.578,59.5977 c 0,-10.8868 6.383,-21.1719 18.203,-21.1719 12.176,0 18.571,9.8047 18.571,21.0469 0,11.1132 -6.973,20.0976 -18.684,20.0976 -11.012,0 -18.09,-9.582 -18.09,-19.9726 z m 0.477,19.2695 0.242,0 c 4.598,6.1406 11.465,9.4609 19.141,9.4609 16.32,0 26.609,-14.0781 26.609,-29.4531 0,-15.8398 -10.051,-29.207 -26.719,-29.207 -7.566,0 -14.543,3.3086 -19.031,9.3554 l -0.242,0 0,-39.0234 -9.461,0 0,86.7773 9.461,0 0,-7.9101" /><path
             id="path118"
             style="fill:#231f20;fill-opacity:1;fill-rule:nonzero;stroke:none"
             d="m 511.25,59.5977 c 0,-10.8868 6.387,-21.1719 18.207,-21.1719 12.184,0 18.57,9.8047 18.57,21.0469 0,11.1132 -6.976,20.0976 -18.687,20.0976 -11,0 -18.09,-9.582 -18.09,-19.9726 z m 45.762,-28.3789 -9.461,0 0,7.6874 -0.242,0 c -4.836,-6.1445 -11.356,-9.2382 -19.141,-9.2382 -16.328,0 -26.613,13.8359 -26.613,29.207 0,15.8516 10.047,29.4531 26.722,29.4531 7.563,0 14.434,-3.5547 19.032,-9.4609 l 0.242,0 0,7.9101 9.461,0 0,-55.5585" /><path
             id="path120"
             style="fill:#231f20;fill-opacity:1;fill-rule:nonzero;stroke:none"
             d="m 583.492,80.7617 0.238,0 c 3.313,4.3633 6.153,7.5664 12.301,7.5664 3.184,0 5.789,-1.0742 8.5,-2.6172 l -4.488,-8.6132 c -1.898,1.289 -3.188,2.4726 -5.672,2.4726 -10.402,0 -10.879,-13.3594 -10.879,-20.5664 l 0,-27.7851 -9.461,0 0,55.5585 9.461,0 0,-6.0156" /><path
             id="path122"
             style="fill:#231f20;fill-opacity:1;fill-rule:nonzero;stroke:none"
             d="m 626.418,31.2188 -9.465,0 0,46.8164 -5.793,0 0,8.7421 5.793,0 0,19.9887 9.465,0 0,-19.9887 9.922,0 0,-8.7421 -9.922,0 0,-46.8164" /><path
             id="path124"
             style="fill:#231f20;fill-opacity:1;fill-rule:nonzero;stroke:none"
             d="m 654.316,80.7617 0.231,0 c 2.957,4.5977 7.687,7.5664 13.359,7.5664 6.508,0 12.422,-3.4453 15.379,-9.2265 3.301,6.1601 9.922,9.2265 16.66,9.2265 14.192,0 17.743,-11.6015 17.743,-23.3008 l 0,-33.8085 -9.461,0 0,32.2773 c 0,7.2266 -0.477,16.0742 -10.161,16.0742 -10.875,0 -12.07,-10.5078 -12.07,-18.9062 l 0,-29.4453 -9.457,0 0,31.5546 c 0,6.875 -0.832,16.7969 -9.922,16.7969 -11.121,0 -12.301,-11.2305 -12.301,-19.6211 l 0,-28.7304 -9.461,0 0,55.5585 9.461,0 0,-6.0156" /><path
             id="path126"
             style="fill:#231f20;fill-opacity:1;fill-rule:nonzero;stroke:none"
             d="m 774.086,65.0273 c -1.309,8.0391 -8.047,14.543 -16.309,14.543 -8.168,0 -15.734,-6.5039 -16.918,-14.543 l 33.227,0 z m -33.699,-8.0468 c 0.121,-10.2617 7.449,-18.5547 18.222,-18.5547 8.024,0 13.231,4.8437 16.895,11.4648 l 8.047,-4.6094 c -5.324,-9.9296 -14.313,-15.6132 -25.66,-15.6132 -16.551,0 -27.203,12.6679 -27.203,28.625 0,16.4336 9.585,30.0351 26.957,30.0351 17.859,0 27.316,-14.7851 26.375,-31.3476 l -43.633,0" /><path
             id="path128"
             style="fill:#231f20;fill-opacity:1;fill-rule:nonzero;stroke:none"
             d="m 806.48,80.0469 0.239,0 c 3.902,5.3125 8.984,8.2812 15.843,8.2812 15.368,0 18.922,-11.1133 18.922,-24.1289 l 0,-32.9804 -9.464,0 0,31.3203 c 0,8.9921 -0.711,17.0312 -11.7,17.0312 -13.011,0 -13.84,-12.0625 -13.84,-21.9844 l 0,-26.3671 -9.46,0 0,55.5585 9.46,0 0,-6.7304" /><path
             id="path130"
             style="fill:#231f20;fill-opacity:1;fill-rule:nonzero;stroke:none"
             d="m 869.395,31.2188 -9.461,0 0,46.8164 -5.801,0 0,8.7421 5.801,0 0,19.9887 9.461,0 0,-19.9887 9.921,0 0,-8.7421 -9.921,0 0,-46.8164" /><path
             id="path132"
             style="fill:#231f20;fill-opacity:1;fill-rule:nonzero;stroke:none"
             d="m 928.738,59.0039 c 0,-11.3477 8.039,-20.5781 19.739,-20.5781 11.711,0 19.746,9.2304 19.746,20.5781 0,11.2383 -8.035,20.5664 -19.746,20.5664 -11.7,0 -19.739,-9.3281 -19.739,-20.5664 z m -9.453,-0.1289 c 0,16.3281 12.883,29.4531 29.192,29.4531 16.328,0 29.211,-13.125 29.211,-29.4531 0,-16.3086 -13.008,-29.207 -29.211,-29.207 -16.192,0 -29.192,12.8984 -29.192,29.207" /><path
             id="path134"
             style="fill:#231f20;fill-opacity:1;fill-rule:nonzero;stroke:none"
             d="m 1000.99,31.2188 -9.467,0 0,46.8164 -5.207,0 0,8.7421 5.207,0 0,22.1287 c 0,4.61 0,10.399 2.493,14.414 3.074,4.961 8.634,6.973 14.304,6.973 2.24,0 4.48,-0.469 6.73,-1.184 l 0,-9.566 c -2.14,0.691 -4.01,1.285 -6.39,1.285 -7.67,0 -7.67,-5.43 -7.67,-15.234 l 0,-18.8167 14.06,0 0,-8.7421 -14.06,0 0,-46.8164" /><path
             id="path136"
             style="fill:#231f20;fill-opacity:1;fill-rule:nonzero;stroke:none"
             d="m 1127.49,100.859 c -7.08,7.325 -16.91,11.825 -27.18,11.825 -19.88,0 -35.95,-17.266 -35.95,-36.8832 0,-19.6485 16.2,-36.8946 36.17,-36.8946 10.05,0 19.88,4.7266 26.96,11.8165 l 0,-12.2969 c -7.68,-5.5469 -17.14,-8.7578 -26.6,-8.7578 -25.19,0 -46.47,20.4687 -46.47,45.7812 0,25.5158 20.93,46.4458 46.47,46.4458 9.93,0 18.69,-2.825 26.6,-8.731 l 0,-12.305" /><path
             id="path138"
             style="fill:#231f20;fill-opacity:1;fill-rule:nonzero;stroke:none"
             d="m 1148.77,59.0039 c 0,-11.3477 8.05,-20.5781 19.75,-20.5781 11.69,0 19.74,9.2304 19.74,20.5781 0,11.2383 -8.05,20.5664 -19.74,20.5664 -11.7,0 -19.75,-9.3281 -19.75,-20.5664 z m -9.44,-0.1289 c 0,16.3281 12.88,29.4531 29.19,29.4531 16.32,0 29.2,-13.125 29.2,-29.4531 0,-16.3086 -13,-29.207 -29.2,-29.207 -16.21,0 -29.19,12.8984 -29.19,29.207" /><path
             id="path140"
             style="fill:#231f20;fill-opacity:1;fill-rule:nonzero;stroke:none"
             d="m 1220.19,80.7617 0.23,0 c 2.97,4.5977 7.7,7.5664 13.36,7.5664 6.51,0 12.43,-3.4453 15.37,-9.2265 3.32,6.1601 9.94,9.2265 16.68,9.2265 14.19,0 17.73,-11.6015 17.73,-23.3008 l 0,-33.8085 -9.45,0 0,32.2773 c 0,7.2266 -0.48,16.0742 -10.17,16.0742 -10.89,0 -12.06,-10.5078 -12.06,-18.9062 l 0,-29.4453 -9.47,0 0,31.5546 c 0,6.875 -0.82,16.7969 -9.92,16.7969 -11.11,0 -12.3,-11.2305 -12.3,-19.6211 l 0,-28.7304 -9.46,0 0,55.5585 9.46,0 0,-6.0156" /><path
             id="path142"
             style="fill:#231f20;fill-opacity:1;fill-rule:nonzero;stroke:none"
             d="m 1311,80.7617 0.24,0 c 2.94,4.5977 7.67,7.5664 13.36,7.5664 6.49,0 12.4,-3.4453 15.37,-9.2265 3.3,6.1601 9.93,9.2265 16.66,9.2265 14.19,0 17.74,-11.6015 17.74,-23.3008 l 0,-33.8085 -9.47,0 0,32.2773 c 0,7.2266 -0.46,16.0742 -10.15,16.0742 -10.88,0 -12.06,-10.5078 -12.06,-18.9062 l 0,-29.4453 -9.46,0 0,31.5546 c 0,6.875 -0.83,16.7969 -9.94,16.7969 -11.12,0 -12.29,-11.2305 -12.29,-19.6211 l 0,-28.7304 -9.47,0 0,55.5585 9.47,0 0,-6.0156" /><path
             id="path144"
             style="fill:#231f20;fill-opacity:1;fill-rule:nonzero;stroke:none"
             d="m 1430.76,65.0273 c -1.3,8.0391 -8.03,14.543 -16.32,14.543 -8.14,0 -15.7,-6.5039 -16.9,-14.543 l 33.22,0 z m -33.68,-8.0468 c 0.11,-10.2617 7.44,-18.5547 18.19,-18.5547 8.05,0 13.25,4.8437 16.93,11.4648 l 8.02,-4.6094 c -5.33,-9.9296 -14.3,-15.6132 -25.66,-15.6132 -16.54,0 -27.19,12.6679 -27.19,28.625 0,16.4336 9.58,30.0351 26.98,30.0351 17.85,0 27.29,-14.7851 26.35,-31.3476 l -43.62,0" /><path
             id="path146"
             style="fill:#231f20;fill-opacity:1;fill-rule:nonzero;stroke:none"
             d="m 1462.7,80.7617 0.23,0 c 3.31,4.3633 6.15,7.5664 12.29,7.5664 3.2,0 5.8,-1.0742 8.51,-2.6172 l -4.48,-8.6132 c -1.91,1.289 -3.2,2.4726 -5.69,2.4726 -10.39,0 -10.86,-13.3594 -10.86,-20.5664 l 0,-27.7851 -9.47,0 0,55.5585 9.47,0 0,-6.0156" /><path
             id="path148"
             style="fill:#231f20;fill-opacity:1;fill-rule:nonzero;stroke:none"
             d="m 1534.58,70.2422 -0.23,0 c -4.38,5.5586 -9.82,9.3281 -17.27,9.3281 -11.46,0 -19.62,-9.4648 -19.62,-20.5664 0,-11.0039 7.56,-20.5781 19.14,-20.5781 7.93,0 13.5,3.5547 18.1,9.5742 l 0.23,0 0,-12.6484 c -5.44,-3.6524 -11,-5.6836 -17.62,-5.6836 -16.77,0 -29.56,12.539 -29.56,29.3359 0,16.5508 13.37,29.3242 29.68,29.3242 6.05,0 12.19,-2.0117 17.15,-5.5547 l 0,-12.5312" /><path
             id="path150"
             style="fill:#231f20;fill-opacity:1;fill-rule:nonzero;stroke:none"
             d="m 1588.02,65.0273 c -1.29,8.0391 -8.04,14.543 -16.31,14.543 -8.17,0 -15.73,-6.5039 -16.92,-14.543 l 33.23,0 z m -33.7,-8.0468 c 0.12,-10.2617 7.45,-18.5547 18.22,-18.5547 8.05,0 13.23,4.8437 16.89,11.4648 l 8.04,-4.6094 c -5.31,-9.9296 -14.3,-15.6132 -25.64,-15.6132 -16.56,0 -27.19,12.6679 -27.19,28.625 0,16.4336 9.56,30.0351 26.94,30.0351 17.85,0 27.32,-14.7851 26.37,-31.3476 l -43.63,0" /><path
             id="path152"
             style="fill:#231f20;fill-opacity:1;fill-rule:nonzero;stroke:none"
             d="m 425.094,475.242 -52.067,0 0,201.028 c 0,-0.231 0,37.929 38.094,50.64 34.359,11.024 57.336,-11.18 57.371,-11.113 L 640.129,530.191 c 8.617,-5.324 12.121,0.219 12.039,5.317 l 0,191.402 52.543,0 0,-199.605 c -0.231,-16.993 -14.285,-38.082 -34.215,-46.301 -20.434,-7.93 -42.855,-7.863 -69.422,14.48 L 440.523,669.988 c -4.218,4.559 -15.253,5.051 -15.429,-3.851 l 0,-190.895" /><path
             id="path154"
             style="fill:#231f20;fill-opacity:1;fill-rule:nonzero;stroke:none"
             d="m 738.473,726.91 52.543,0 0,-180.34 c -0.161,-19.187 15.886,-19.187 31.82,-19.265 l 233.334,0 c 9.73,0.078 20.8,11.547 20.73,23.125 0.07,12.019 -11.19,24.164 -21.69,24.113 l -151.87,0 c -26.121,-0.953 -80.348,23.156 -80.504,74.266 0.156,62.367 51.394,76.445 74.742,78.101 l 429.552,0 0,-53.039 -107.54,0 0,-198.629 -52.04,0 0,198.629 -263.253,0 c -25.067,2.168 -43.125,-41.019 -1.926,-47.266 l 161.509,0 c 24.27,0.227 64.43,-20.894 64.59,-73.277 -0.16,-53.051 -31.27,-78.168 -64.59,-78.086 l -238.638,0 c -39.418,-0.082 -53.547,8.887 -67.5,22.168 -12.93,12.774 -15.097,19.942 -19.269,46.285 l 0,183.215" /></g></g></g></g></svg>