<?xml version="1.0" encoding="UTF-8" standalone="no"?>
<!-- Created with Inkscape (http://www.inkscape.org/) -->

<svg
   xmlns:dc="http://purl.org/dc/elements/1.1/"
   xmlns:cc="http://creativecommons.org/ns#"
   xmlns:rdf="http://www.w3.org/1999/02/22-rdf-syntax-ns#"
   xmlns:svg="http://www.w3.org/2000/svg"
   xmlns="http://www.w3.org/2000/svg"
   xmlns:sodipodi="http://sodipodi.sourceforge.net/DTD/sodipodi-0.dtd"
   xmlns:inkscape="http://www.inkscape.org/namespaces/inkscape"
   width="21.099979"
   height="28.40052"
   id="svg3902"
   version="1.1"
   inkscape:version="0.48.5 r10040"
   inkscape:export-filename="testrollfinger1.png"
   inkscape:export-xdpi="1000"
   inkscape:export-ydpi="1000"
   sodipodi:docname="FGen1.dxf">
  <defs
     id="defs3904">
    <clipPath
       clipPathUnits="userSpaceOnUse"
       id="clipPath3925">
      <rect
         style="fill:#000000;fill-opacity:1;stroke:none"
         id="rect3927"
         width="305.71429"
         height="345"
         x="219.19009"
         y="373.68109" />
    </clipPath>
  </defs>
  <sodipodi:namedview
     id="base"
     pagecolor="#ffffff"
     bordercolor="#666666"
     borderopacity="1.0"
     inkscape:pageopacity="0.0"
     inkscape:pageshadow="2"
     inkscape:zoom="5.6568542"
     inkscape:cx="-2.6629989"
     inkscape:cy="1.5456601"
     inkscape:document-units="px"
     inkscape:current-layer="layer1"
     showgrid="false"
     inkscape:snap-global="true"
     fit-margin-top="0"
     fit-margin-left="0"
     fit-margin-right="0"
     fit-margin-bottom="0"
     inkscape:window-width="1920"
     inkscape:window-height="1137"
     inkscape:window-x="-8"
     inkscape:window-y="-8"
     inkscape:window-maximized="1"
     units="mm" />
  <metadata
     id="metadata3907">
    <rdf:RDF>
      <cc:Work
         rdf:about="">
        <dc:format>image/svg+xml</dc:format>
        <dc:type
           rdf:resource="http://purl.org/dc/dcmitype/StillImage" />
        <dc:title></dc:title>
      </cc:Work>
    </rdf:RDF>
  </metadata>
  <g
     inkscape:label="Layer 1"
     inkscape:groupmode="layer"
     id="layer1"
     transform="translate(121.66718,-1151.0598)">
    <path
       style="fill:#000000"
       d="m -111.80092,1179.4591 c -0.38998,-0.012 -0.72685,-0.038 -0.74859,-0.064 -0.0527,-0.063 1.48576,-0.3497 2.62424,-0.4893 0.61477,-0.076 1.00372,-0.1535 1.19081,-0.2392 0.35623,-0.163 1.44486,-0.4577 2.13792,-0.5788 0.5502,-0.096 1.53415,-0.1239 1.89084,-0.053 l 0.1982,0.039 -0.22356,0.1077 c -0.16084,0.078 -0.36622,0.1089 -0.7321,0.1113 -0.66654,0 -1.18638,0.084 -2.2072,0.3351 -0.91091,0.2247 -1.01225,0.2587 -1.01225,0.3402 0,0.085 0.60003,0.06 0.98906,-0.041 0.8702,-0.2277 1.03926,-0.262 1.44554,-0.2936 l 0.43114,-0.033 -0.25361,0.09 c -0.95159,0.3387 -2.21177,0.5909 -2.91646,0.5837 -0.32081,0 -0.92565,0.04 -1.3441,0.098 -0.46728,0.064 -1.03438,0.097 -1.46988,0.086 z m -2.30883,-0.2454 c -0.0976,-0.022 -0.1547,-0.058 -0.1268,-0.078 0.21159,-0.1565 2.33499,-0.693 3.67726,-0.9292 1.03868,-0.1827 1.22358,-0.2349 1.49627,-0.4219 0.40175,-0.2754 1.7128,-0.7236 3.0179,-1.0315 0.37661,-0.089 0.84451,-0.2133 1.03978,-0.2765 0.58168,-0.1882 1.36284,-0.2981 2.35852,-0.332 l 0.93835,-0.032 -0.15216,0.154 c -0.14442,0.1462 -0.18966,0.1555 -0.88762,0.1816 -0.90621,0.034 -1.72251,0.1619 -2.25709,0.3538 -0.22317,0.081 -0.56553,0.1791 -0.76081,0.2196 -0.98089,0.2038 -1.70974,0.3967 -2.40863,0.6373 -0.42387,0.1459 -0.78419,0.2814 -0.80072,0.3011 -0.0165,0.02 -0.005,0.066 0.0261,0.103 0.041,0.049 0.27236,0 0.85888,-0.1783 0.94189,-0.2877 1.3909,-0.3927 2.25067,-0.5258 0.42551,-0.066 0.68919,-0.1382 0.80795,-0.2214 0.0969,-0.068 0.3252,-0.161 0.50721,-0.2067 0.33969,-0.085 2.07196,-0.238 2.11531,-0.1863 0.0133,0.015 -0.0746,0.096 -0.19538,0.1783 -0.19337,0.1317 -0.30119,0.1539 -0.90428,0.1857 -0.64083,0.034 -1.28206,0.1253 -1.37926,0.197 -0.0234,0.018 -0.0279,0.06 -0.01,0.095 0.0219,0.043 0.29472,0.051 0.82504,0.025 l 0.79226,-0.038 -0.25361,0.1646 -0.25361,0.1648 -1.29337,0.012 c -1.42464,0.012 -1.58167,0.031 -3.01791,0.4527 -0.48819,0.1433 -1.05403,0.2641 -1.42018,0.3032 -0.90144,0.096 -2.2853,0.3408 -3.11934,0.5513 -0.7881,0.1989 -1.18769,0.2488 -1.47091,0.1835 z m -1.06514,-0.235 c -0.0697,-0.015 -0.14419,-0.047 -0.16544,-0.071 -0.0436,-0.05 1.55005,-0.6335 2.47324,-0.9059 1.02258,-0.3018 2.99287,-0.7339 3.3459,-0.7339 0.1411,0 0.61717,-0.15 1.2557,-0.3954 1.74569,-0.671 3.46252,-1.138 4.77381,-1.2982 0.65792,-0.081 2.15914,-0.091 2.22252,-0.015 0.0261,0.031 -1e-4,0.1018 -0.0624,0.1696 -0.0967,0.1041 -0.1761,0.1136 -0.80005,0.097 -1.22304,-0.032 -2.27042,0.1554 -4.69964,0.8412 -0.36266,0.103 -1.09597,0.3606 -1.62958,0.5738 -0.82088,0.328 -1.12143,0.4161 -1.95276,0.5726 -1.61422,0.3038 -2.6107,0.5619 -3.8598,0.9998 -0.58788,0.206 -0.65317,0.218 -0.90146,0.1648 z m -0.93834,-0.2811 -0.20289,-0.073 1.39483,-0.553 c 1.45207,-0.5758 2.73163,-0.9852 3.93495,-1.2591 0.54276,-0.1236 0.95818,-0.2729 1.79652,-0.6455 2.10416,-0.9355 2.44539,-1.0771 3.46642,-1.4385 0.93753,-0.3318 1.07166,-0.3644 1.50317,-0.3644 0.26059,0 0.81821,-0.044 1.23916,-0.097 0.72834,-0.092 1.67313,-0.085 2.22361,0.017 0.16493,0.031 0.19021,0.057 0.19021,0.1969 l 0,0.1615 -0.44381,-0.052 c -0.89768,-0.1065 -3.08526,0.043 -3.96892,0.2706 -1.23732,0.3189 -4.2799,1.5353 -4.70434,1.8807 -0.22909,0.1865 -0.35668,0.2283 -1.43107,0.4681 -1.09137,0.2437 -2.53219,0.6885 -3.72049,1.1484 -0.52489,0.2034 -0.98138,0.3796 -1.01441,0.3918 -0.033,0.012 -0.15136,-0.012 -0.26294,-0.051 z m -0.82422,-0.2952 c -0.23006,-0.088 -0.20566,-0.1522 0.0761,-0.2002 0.13251,-0.022 0.51483,-0.1634 0.84958,-0.3129 1.05356,-0.4707 1.73299,-0.7338 3.19542,-1.2379 1.10927,-0.3824 1.52568,-0.4994 1.90204,-0.5347 0.55779,-0.052 0.99429,-0.209 2.56141,-0.9191 0.58583,-0.2654 1.51893,-0.6849 2.07356,-0.9322 0.55463,-0.2474 1.26219,-0.583 1.57235,-0.7458 0.7636,-0.4009 1.64358,-0.5757 2.89709,-0.5757 1.03274,2e-4 1.24266,0.039 1.24267,0.2276 l 10e-6,0.1335 -1.22999,0 c -1.51133,0 -2.09106,0.1112 -2.68742,0.499 -0.20268,0.1317 -0.76795,0.3963 -1.25614,0.588 -0.48819,0.1917 -1.48105,0.6134 -2.20636,0.9373 -1.87092,0.8354 -2.35987,1.0224 -2.93871,1.1242 -0.96952,0.1704 -2.92249,0.8201 -4.6268,1.5393 -0.62814,0.2651 -1.16859,0.4791 -1.201,0.4757 -0.0324,0 -0.13313,-0.034 -0.22379,-0.07 z m -0.82214,-0.3547 c -0.12155,-0.058 -0.11806,-0.064 0.13667,-0.2375 0.14377,-0.098 0.44735,-0.3291 0.6746,-0.5137 0.52328,-0.4249 1.1356,-0.792 1.96304,-1.1766 0.3974,-0.1848 0.77877,-0.411 0.97885,-0.5807 0.49244,-0.4175 1.6348,-1.0808 2.1048,-1.2221 0.45631,-0.1372 1.52856,-0.6939 2.71791,-1.4112 0.626,-0.3774 0.8442,-0.5425 1.03978,-0.7863 0.13612,-0.1697 0.50999,-0.5597 0.8308,-0.8668 1.03479,-0.9905 1.25346,-1.324 1.50559,-2.2965 0.46746,-1.8031 0.43907,-1.5932 0.45919,-3.3956 0.0255,-2.2826 0.0273,-2.2289 -0.0943,-2.8069 -0.18755,-0.8911 -0.36514,-1.3636 -0.71043,-1.8903 -0.0734,-0.1124 -0.21748,-0.4595 -0.32027,-0.7725 -0.75541,-2.3003 -1.97288,-3.7716 -4.21002,-5.0876 -0.98953,-0.5821 -1.92624,-0.7993 -2.87729,-0.6674 -1.17223,0.1625 -2.42097,0.6936 -3.56692,1.5168 -0.47384,0.3404 -1.40489,1.2171 -1.64679,1.5506 -0.56277,0.776 -1.32228,1.7744 -1.83082,2.4068 -0.32258,0.4011 -0.69614,0.9198 -0.83013,1.1526 -0.13398,0.2329 -0.23286,0.3824 -0.21973,0.3326 0.23772,-0.9035 0.20022,-0.8401 1.46392,-2.4732 0.5133,-0.6634 1.08511,-1.4078 1.27069,-1.6544 0.59098,-0.7852 1.98833,-1.9823 2.75655,-2.3616 1.41856,-0.7005 2.88039,-0.9743 3.97962,-0.7455 0.91264,0.19 1.67911,0.573 2.74092,1.3698 1.02814,0.7716 1.70675,1.4888 2.29365,2.4241 0.34515,0.5501 0.80552,1.567 0.97183,2.1465 0.0658,0.2293 0.2362,0.645 0.3786,0.9237 0.30921,0.605 0.50927,1.2034 0.71301,2.1326 0.083,0.3786 0.20733,0.838 0.2763,1.021 0.12827,0.3405 0.25489,1.2374 0.31599,2.2385 0.061,0.9995 -0.18172,2.2257 -0.5633,2.8458 -0.16879,0.2742 -0.20174,0.3023 -0.25408,0.217 -0.0815,-0.133 -0.12505,-0.1233 -0.12505,0.027 0,0.1568 -0.48951,0.8775 -0.92204,1.3575 -0.17934,0.1991 -0.59037,0.5859 -0.91341,0.8596 -0.56838,0.4816 -0.69938,0.6385 -0.59638,0.7144 0.10849,0.08 1.40296,-0.9527 1.87561,-1.4964 0.60176,-0.6922 1.30944,-1.6814 1.44206,-2.0158 0.24919,-0.6283 0.30497,-1.008 0.30199,-2.0559 -0.003,-1.1665 -0.0885,-1.8219 -0.40513,-3.1159 -0.40685,-1.6627 -0.52865,-2.0232 -1.00108,-2.9618 -0.19066,-0.3788 -0.25451,-0.5635 -0.24613,-0.7118 0.008,-0.146 -0.0742,-0.393 -0.30388,-0.9103 -0.49237,-1.109 -0.73041,-1.5023 -1.38595,-2.2895 -0.52422,-0.6295 -0.74184,-0.8363 -1.54829,-1.4711 -1.27818,-1.0062 -1.72954,-1.2482 -2.82298,-1.5133 -1.48885,-0.361 -3.54991,0.103 -4.98596,1.1212 -0.89406,0.6343 -2.03276,1.7608 -2.35502,2.3297 -0.14255,0.2517 -1.80619,2.3481 -1.80619,2.276 0,-0.017 0.0699,-0.2083 0.15541,-0.4262 0.12943,-0.33 0.26076,-0.5158 0.78617,-1.1125 0.34693,-0.3939 0.63077,-0.7496 0.63077,-0.7904 0,-0.1489 -0.13517,-0.064 -0.52454,0.3273 l -0.39775,0.4003 0.13863,-0.2648 c 0.26607,-0.508 0.32423,-0.5787 0.64164,-0.7791 0.17575,-0.1113 0.58206,-0.4627 0.9029,-0.7815 1.51812,-1.5085 2.28779,-2.0258 3.59918,-2.4195 1.65428,-0.4965 2.77816,-0.4734 4.26223,0.088 0.62421,0.2362 0.91699,0.404 1.22434,0.7017 0.14971,0.145 0.4548,0.3981 0.67797,0.5623 0.6471,0.4763 1.13348,0.9223 1.61455,1.4805 0.63017,0.7311 0.96081,1.2335 1.16699,1.7732 0.20795,0.5443 0.4208,0.9342 0.72571,1.3292 0.30975,0.4013 0.84426,1.3946 1.107,2.057 0.32355,0.8158 0.51233,1.5575 0.73693,2.8949 0.51466,3.0649 0.47425,4.1322 -0.19984,5.2792 -0.6185,1.0526 -1.17611,1.6873 -2.07256,2.3594 -0.64093,0.4805 -1.10416,0.735 -2.97733,1.6363 -0.8648,0.4161 -1.76636,0.8564 -2.00348,0.9784 -1.41961,0.7307 -2.27236,1.0971 -2.76429,1.1875 -0.88803,0.1632 -3.27151,1.3947 -3.27151,1.6903 0,0.1088 0.14458,0.052 0.76622,-0.3025 0.71056,-0.4054 1.86245,-0.891 2.74473,-1.1571 0.73127,-0.2206 1.41555,-0.5123 2.13388,-0.9102 0.30106,-0.1667 1.09991,-0.5584 1.77523,-0.8705 1.90792,-0.8817 2.34518,-1.0984 3.05382,-1.5134 1.24244,-0.7275 1.95407,-1.3985 2.64732,-2.496 0.9719,-1.5386 1.02931,-2.2803 0.44798,-5.7882 -0.24709,-1.4909 -0.41017,-2.1434 -0.75208,-3.0093 -0.23642,-0.5988 -0.79888,-1.6297 -1.42442,-2.6108 -0.39491,-0.6194 -0.53896,-0.9489 -0.41485,-0.9489 0.0928,0 0.35731,0.36 0.886,1.2054 1.0927,1.7476 1.68553,3.2374 1.9054,4.7882 0.0446,0.314 0.14784,0.9655 0.22962,1.4481 0.30075,1.7742 0.37659,3.0458 0.22683,3.8036 -0.0846,0.4284 -0.18762,0.6289 -0.53947,1.0508 -0.13145,0.1577 -0.40569,0.5252 -0.60944,0.8168 -0.40894,0.5853 -0.53206,0.7233 -0.9497,1.0645 -0.82629,0.675 -2.39365,1.5121 -4.79789,2.5625 -0.64162,0.2803 -1.31669,0.6173 -1.50016,0.7489 -0.3588,0.2575 -1.16114,0.6009 -2.17711,0.9321 -0.95692,0.3118 -1.93959,0.7075 -2.64144,1.0636 -0.50269,0.255 -0.69158,0.3216 -0.93439,0.3293 -0.17078,0 -0.37555,0.055 -0.46665,0.1113 -0.1829,0.1136 -0.24114,0.1188 -0.41889,0.034 z m 4.90813,-2.6309 c 0.38196,-0.1862 0.8765,-0.4192 1.09897,-0.5179 0.22248,-0.098 1.10122,-0.5347 1.95275,-0.9692 0.85155,-0.4344 1.72256,-0.8667 1.9356,-0.9604 1.03862,-0.4572 2.02187,-1.1987 2.759,-2.0806 1.16674,-1.396 1.4682,-2.1389 1.46225,-3.6037 -0.006,-1.4651 -0.44841,-4.0009 -0.9316,-5.3392 -0.40441,-1.1201 -1.11558,-2.3712 -1.11558,-1.9626 0,0.05 0.14771,0.3829 0.32823,0.7415 0.40624,0.8067 0.61194,1.3868 0.88351,2.4913 0.48861,1.9873 0.66624,3.7214 0.49216,4.8048 -0.15692,0.9767 -0.40162,1.4455 -1.35924,2.604 -0.83872,1.0147 -1.75925,1.741 -2.55103,2.0125 -0.16738,0.057 -0.82928,0.3906 -1.4709,0.7404 -1.29075,0.7038 -2.05064,1.0827 -2.58677,1.2899 -0.46198,0.1786 -1.80059,0.9389 -1.80059,1.0228 0,0.1265 0.21724,0.06 0.90324,-0.2736 z m 7.64981,-6.6691 c 0.32241,-0.7702 0.44731,-1.5707 0.40758,-2.6122 -0.0277,-0.7265 -0.0765,-1.2484 -0.16555,-1.7697 -0.0162,-0.095 -0.062,-0.1663 -0.10659,-0.1663 -0.0688,0 -0.0728,0.1005 -0.034,0.8319 0.0916,1.7245 0.0321,2.4343 -0.29166,3.4829 -0.27414,0.8879 -0.14839,1.0422 0.19022,0.2334 z m -13.11648,9.0064 c -0.0411,-0.031 -0.0639,-0.067 -0.0507,-0.08 0.0897,-0.091 0.74444,-0.589 1.3536,-1.03 0.83125,-0.6019 1.393,-0.9471 1.78963,-1.1001 0.15343,-0.059 0.37027,-0.162 0.48185,-0.2287 0.48306,-0.2886 1.96882,-1.3629 2.42967,-1.7567 0.27625,-0.2361 0.91477,-0.6843 1.41895,-0.9961 2.49163,-1.5406 3.63106,-2.8959 4.20783,-5.0049 0.22424,-0.8198 0.28715,-1.4374 0.28715,-2.8182 0,-1.3001 -0.043,-1.7334 -0.21091,-2.1295 -0.0534,-0.1258 -0.1536,-0.6294 -0.22282,-1.1193 -0.21737,-1.5384 -0.47588,-2.2378 -1.24886,-3.3792 -0.58967,-0.8706 -1.39823,-1.6167 -2.39831,-2.213 -0.28013,-0.1671 -0.63703,-0.3971 -0.7931,-0.5113 -0.1984,-0.1452 -0.42728,-0.2429 -0.76082,-0.3251 -1.23958,-0.305 -2.41284,-0.022 -4.05288,0.9749 -0.37661,0.2291 -0.77704,0.4439 -0.88987,0.4771 -0.25443,0.076 -1.11414,0.8842 -1.63467,1.5384 -0.46673,0.5865 -1.156,1.6219 -1.36009,2.0429 -0.58457,1.2061 -0.84823,1.6945 -1.22569,2.2708 -0.2355,0.3597 -0.43737,0.6653 -0.44859,0.6792 -0.0112,0.014 -0.0204,-0.098 -0.0204,-0.2495 0,-0.2484 0.0275,-0.3115 0.28706,-0.6585 0.38371,-0.513 0.96519,-1.5743 1.03487,-1.889 0.0654,-0.295 0.40967,-0.8508 1.16365,-1.8781 0.97314,-1.3259 1.56239,-1.8771 2.7562,-2.5778 1.59492,-0.9361 2.87268,-1.3155 3.888,-1.1542 0.74539,0.1183 1.14652,0.2828 1.97906,0.8112 1.02706,0.6519 1.5748,1.0872 2.07643,1.65 0.7964,0.8937 1.27404,1.7225 1.65807,2.8771 0.18366,0.5521 0.23075,0.7715 0.2442,1.1378 0.0113,0.3072 0.0775,0.6882 0.20504,1.1798 0.18388,0.7086 0.18937,0.7578 0.22982,2.057 0.0466,1.4992 0.006,2.1671 -0.18569,3.051 -0.25563,1.1786 -0.60431,1.9505 -1.2432,2.752 -0.90154,1.1312 -1.74485,1.8288 -3.38354,2.7987 -0.65426,0.3874 -0.9533,0.6015 -1.16659,0.8358 -0.16461,0.1808 -0.58798,0.5153 -0.99369,0.7853 -0.38879,0.2587 -0.8681,0.59 -1.06514,0.7364 -0.19704,0.1464 -0.59791,0.3779 -0.89083,0.5143 -0.82839,0.386 -1.25013,0.6551 -2.48532,1.586 -0.53914,0.4063 -0.62506,0.4452 -0.75935,0.3439 z m -0.44781,-0.2681 c -0.11044,-0.071 -0.11159,-0.078 -0.0249,-0.168 0.14615,-0.1517 1.24178,-1.0068 2.11971,-1.6547 0.44634,-0.3293 0.91424,-0.7238 1.03978,-0.8764 0.12553,-0.1526 0.31955,-0.3605 0.43113,-0.4618 0.47743,-0.4338 2.99856,-2.3418 3.62655,-2.7446 1.29224,-0.8289 2.1297,-1.575 2.76825,-2.4662 0.86132,-1.2022 1.38171,-2.6787 1.31648,-3.735 -0.0165,-0.2663 0.005,-0.9742 0.0469,-1.5732 0.0981,-1.3909 0.0976,-1.9514 -0.002,-2.5797 -0.32291,-2.0317 -1.70303,-3.9743 -3.34326,-4.7057 -0.31267,-0.1394 -1.5634,-0.368 -2.01371,-0.368 -0.40953,0 -1.22926,0.2282 -1.71248,0.4767 -0.94962,0.4883 -1.91931,1.4396 -2.4909,2.4434 -0.17497,0.3074 -0.48303,0.831 -0.68459,1.1638 -0.20155,0.3327 -0.60066,1.0678 -0.88693,1.6336 -0.28626,0.5656 -0.7428,1.4253 -1.01452,1.9104 -0.27173,0.485 -0.57923,1.084 -0.68332,1.331 -0.23099,0.5481 -0.3718,0.7982 -0.9461,1.6805 l -0.4471,0.6868 0,-0.2721 c 0,-0.2468 0.0391,-0.3341 0.42045,-0.9404 0.23124,-0.3675 0.55449,-0.949 0.71832,-1.292 0.16383,-0.343 0.52064,-1.0214 0.79292,-1.5077 0.27227,-0.4861 0.69375,-1.2756 0.93664,-1.7545 0.24288,-0.4788 0.65323,-1.2245 0.9119,-1.6572 0.25866,-0.4325 0.53134,-0.9406 0.60594,-1.129 0.1003,-0.2534 0.28334,-0.5143 0.70243,-1.0018 1.19205,-1.3864 2.32484,-2.0159 3.66077,-2.034 1.01369,-0.014 1.77918,0.075 2.15563,0.2476 1.53471,0.7072 2.92603,2.4073 3.41151,4.1688 0.20988,0.7616 0.31408,1.5792 0.27249,2.1383 -0.0161,0.2163 -0.0519,1.0603 -0.0795,1.8755 -0.0276,0.8153 -0.0768,1.6714 -0.10923,1.9025 -0.17778,1.2659 -0.73534,2.4461 -1.68885,3.5748 -0.62416,0.7387 -1.20319,1.2301 -2.21221,1.8776 -0.7305,0.4687 -0.87224,0.5734 -3.73231,2.7566 -0.30417,0.2322 -0.56589,0.5125 -0.52423,0.5613 0.0803,0.095 1.4217,-0.8347 2.85903,-1.98 0.33328,-0.2656 0.92672,-0.6867 1.31874,-0.9359 1.75217,-1.1137 2.67847,-2.0121 3.39056,-3.2887 0.74778,-1.3405 0.9474,-2.367 0.94834,-4.8766 3.6e-4,-0.988 0.0118,-1.1646 0.0756,-1.1646 0.13099,0 0.15322,0.293 0.14923,1.9664 -0.004,1.556 -0.01,1.6609 -0.13429,2.2127 -0.29169,1.2955 -0.76097,2.2579 -1.56145,3.2021 -0.71676,0.8454 -1.37691,1.3853 -2.68205,2.1936 -0.37972,0.2351 -0.96431,0.6499 -1.29907,0.9216 -0.66077,0.5363 -2.10781,1.5808 -2.57124,1.8559 -0.15884,0.095 -0.34143,0.1715 -0.40577,0.1715 -0.28293,1e-4 -1.3711,0.7501 -3.26209,2.2481 -0.0282,0.022 -0.10326,0.012 -0.16695,-0.033 z m -0.53505,-0.3474 c -0.11561,-0.081 -0.0831,-0.1089 1.59005,-1.4308 0.65557,-0.5177 1.46752,-1.193 1.80433,-1.5004 1.05222,-0.9606 3.0693,-2.5463 3.7688,-2.9626 1.3352,-0.7948 2.31235,-1.6946 3.01902,-2.7799 0.55659,-0.855 0.73408,-1.2509 1.0644,-2.3736 0.23741,-0.8069 0.23578,-0.8028 0.31555,-0.8028 0.11711,0 0.084,0.4088 -0.0834,1.0309 -0.57575,2.1393 -1.78203,3.6775 -3.96575,5.0571 -0.82047,0.5184 -3.33976,2.4892 -3.90238,3.0529 -0.40632,0.407 -0.76158,0.7014 -1.69254,1.4026 -0.33566,0.2529 -0.85697,0.6658 -1.15847,0.9175 -0.30151,0.2518 -0.57466,0.457 -0.60702,0.4559 -0.0323,0 -0.10103,-0.031 -0.15261,-0.067 z m 9.70541,-0.2024 c 0,-0.05 0.0628,-0.1077 0.13948,-0.1309 0.0767,-0.022 0.67585,-0.2656 1.33142,-0.5401 1.5475,-0.6477 3.14698,-1.1295 4.23752,-1.2764 0.91663,-0.1236 2.97429,-0.154 3.06536,-0.045 0.0369,0.044 0.0181,0.1017 -0.0618,0.1886 -0.10806,0.1184 -0.14607,0.1225 -0.64738,0.073 -0.5676,-0.056 -1.6548,0.012 -2.59152,0.1554 -0.94016,0.1468 -2.54127,0.6214 -3.90101,1.1565 -1.30846,0.5147 -1.57209,0.585 -1.57209,0.4193 z m -10.1534,-0.1414 -0.12789,-0.1018 1.29727,-1.0587 c 0.71349,-0.5823 1.64637,-1.3644 2.07305,-1.7379 0.42668,-0.3736 1.11198,-0.9496 1.52288,-1.2803 1.14712,-0.9228 1.9586,-1.6595 2.28061,-2.0699 0.16085,-0.205 0.47505,-0.5379 0.69822,-0.7398 1.25628,-1.136 2.10498,-2.1427 2.55105,-3.0261 0.21444,-0.4247 0.24208,-0.5238 0.14595,-0.5238 -0.043,0 -0.29399,0.3198 -0.55779,0.7109 -0.58345,0.8647 -1.07661,1.439 -1.91095,2.2251 -0.34871,0.3285 -0.86711,0.8499 -1.152,1.1586 -0.53401,0.5787 -1.43286,1.403 -1.96735,1.8042 -0.55099,0.4136 -1.04758,0.8253 -1.82441,1.5122 -0.7864,0.6954 -2.77359,2.3647 -3.15934,2.6539 -0.20558,0.1542 -0.22205,0.1572 -0.34237,0.063 -0.0695,-0.054 -0.12638,-0.1089 -0.12638,-0.1209 0,-0.012 0.0856,-0.075 0.1902,-0.1387 0.28072,-0.172 1.84304,-1.4867 2.80233,-2.3581 1.55273,-1.4105 1.69814,-1.5328 2.13028,-1.7939 0.42412,-0.256 1.22158,-0.9738 1.97812,-1.7804 0.20923,-0.2231 0.59725,-0.6054 0.86226,-0.8497 0.79193,-0.7296 1.43484,-1.415 1.91008,-2.0362 0.24664,-0.3223 0.6544,-0.8471 0.90613,-1.1663 0.41573,-0.5269 0.47762,-0.6374 0.67531,-1.2056 0.40381,-1.1606 0.53406,-2.2309 0.38871,-3.1938 -0.13236,-0.877 -0.33257,-1.4596 -0.70408,-2.049 -0.71112,-1.1283 -1.33364,-1.6878 -2.26496,-2.0359 -0.32692,-0.1223 -0.48251,-0.1414 -1.13944,-0.1408 -0.67414,0 -0.79837,0.017 -1.0905,0.1446 -1.09938,0.48 -1.96709,1.3848 -3.17006,3.3055 -0.47525,0.7589 -1.88959,3.6683 -2.14095,4.4042 -0.0664,0.1943 -0.17364,0.453 -0.23831,0.5748 -0.11811,0.2223 -1.27444,1.971 -1.99978,3.0242 l -0.38873,0.5646 -0.0153,-0.2401 c -0.0147,-0.2309 0.0242,-0.2987 1.01442,-1.7647 0.56635,-0.8385 1.06181,-1.5971 1.10102,-1.6857 0.0392,-0.089 0.0906,-0.1702 0.11413,-0.1812 0.0235,-0.012 0.0428,-0.072 0.0428,-0.1362 0,-0.083 -0.0356,-0.1159 -0.12679,-0.1159 -0.0697,0 -0.12681,0.034 -0.12681,0.077 0,0.043 -0.04,0.1195 -0.0888,0.1712 -0.0488,0.052 -0.49959,0.7134 -1.00173,1.4708 l -0.91298,1.3769 -0.0157,-0.2499 c -0.0149,-0.2375 0.0142,-0.2955 0.58774,-1.1699 0.83152,-1.268 0.91522,-1.414 0.99587,-1.7381 0.0392,-0.1575 0.35146,-0.7921 0.70213,-1.4269 0.3473,-0.6289 0.76445,-1.4156 0.92698,-1.7483 0.6161,-1.2615 1.78362,-3.2232 2.23256,-3.7514 1.05378,-1.2397 2.34846,-1.9689 3.4891,-1.9649 0.33497,0 1.08073,0.1228 1.45376,0.2372 1.64793,0.5053 3.09701,2.3084 3.5348,4.3983 0.0651,0.3108 0.0865,0.6666 0.0852,1.4135 -0.002,1.2667 -0.10903,2.1278 -0.32514,2.6226 -0.085,0.1945 -0.26821,0.696 -0.40715,1.1145 -0.13895,0.4183 -0.32296,0.9072 -0.40889,1.0864 -0.24897,0.519 -0.70683,1.2238 -1.0861,1.6718 -0.63941,0.7552 -1.9113,1.8103 -2.42247,2.0096 -0.145,0.057 -0.33211,0.1436 -0.4158,0.1937 -0.23439,0.1401 -2.43639,1.9468 -3.37294,2.7676 -0.4603,0.4034 -1.24774,1.0622 -1.74988,1.4639 -0.50214,0.4019 -1.1088,0.895 -1.34815,1.0958 -0.42901,0.36 -0.43701,0.3638 -0.56308,0.2635 z m 7.92951,-6.4139 c 1.3014,-1.0248 2.2228,-2.0869 2.75422,-3.1749 0.15993,-0.3274 0.73364,-1.9682 0.91382,-2.6133 0.26473,-0.948 0.30228,-2.7423 0.0766,-3.6603 -0.36352,-1.4788 -1.34668,-2.8732 -2.50981,-3.5598 -0.57451,-0.3391 -1.1406,-0.499 -1.90268,-0.5375 -0.54748,-0.027 -0.69717,-0.013 -1.08982,0.1042 -0.81686,0.2441 -1.70203,0.8721 -2.42423,1.7198 -0.46835,0.5498 -1.50463,2.2689 -2.22655,3.6935 -0.69275,1.3671 -1.34408,2.5751 -1.42303,2.6392 -0.0746,0.06 -0.10293,0.4176 -0.033,0.4176 0.15168,0 0.56265,-0.6959 1.4151,-2.3963 1.39852,-2.7894 2.29575,-4.1288 3.32324,-4.9602 1.06786,-0.8642 1.95459,-1.1068 3.09178,-0.8461 1.13673,0.2607 1.9434,0.8574 2.71416,2.0077 0.39244,0.5856 0.63184,1.1159 0.7811,1.7303 0.33884,1.3948 0.23992,2.7445 -0.31786,4.3368 -0.13535,0.3865 -0.2962,0.8848 -0.35746,1.1074 -0.29184,1.0606 -1.1749,2.2362 -2.64117,3.516 -0.50465,0.4404 -0.81153,0.7583 -0.81153,0.8405 0,0.1183 0.17767,0.021 0.66721,-0.3646 z m -8.87382,5.5386 -0.10849,-0.1378 0.3942,-0.2591 c 0.54579,-0.3589 1.77457,-1.4156 2.95025,-2.537 1.00644,-0.9601 2.76795,-2.9577 3.31967,-3.7645 0.29015,-0.4243 0.87739,-1.543 1.14348,-2.1781 0.0906,-0.2163 0.31463,-0.679 0.49781,-1.0283 0.1832,-0.3492 0.46505,-0.9666 0.62635,-1.3717 0.32358,-0.813 0.72601,-2.1376 0.64942,-2.1376 -0.0268,0 -0.0488,-0.057 -0.0488,-0.126 0,-0.2959 -0.13051,-0.031 -0.30998,0.6302 -0.24304,0.8946 -0.72689,2.099 -1.21967,3.0358 -0.20987,0.3989 -0.57657,1.1201 -0.8149,1.6026 -0.6089,1.2328 -0.79953,1.5175 -1.86304,2.7832 -1.47931,1.7605 -4.06391,4.2099 -5.0484,4.7844 -0.49808,0.2906 -0.50824,0.2937 -0.60317,0.1805 -0.0949,-0.1136 -0.092,-0.1216 0.17693,-0.4967 0.6218,-0.8673 0.90824,-1.1667 3.08851,-3.2283 0.3487,-0.3298 1.11584,-1.1725 1.70473,-1.8727 1.18103,-1.4043 1.44974,-1.8256 2.07157,-3.2478 0.3122,-0.714 0.33542,-0.7945 0.35126,-1.2177 0.0181,-0.4824 0.0516,-0.5857 0.77704,-2.3969 0.42815,-1.069 0.87776,-1.5286 1.40128,-1.4327 0.26991,0.05 0.45654,0.3421 0.54429,0.8537 0.0596,0.3472 0.0553,0.3832 -0.11909,1.0028 -0.21939,0.7793 -0.82591,2.2396 -1.24782,3.0042 -0.29247,0.5301 -0.36748,0.7395 -0.26491,0.7395 0.071,0 0.40154,-0.4612 0.62189,-0.8678 0.30105,-0.5556 0.92295,-2.0521 1.11027,-2.6716 0.27897,-0.9225 0.21745,-1.6709 -0.17272,-2.1015 -0.42064,-0.4642 -1.2193,-0.2272 -1.68589,0.5003 -0.23057,0.3595 -0.26417,0.433 -0.77432,1.692 -0.21942,0.5416 -0.44879,1.0092 -0.59934,1.2218 -0.13412,0.1895 -0.42433,0.734 -0.64489,1.2101 -0.73423,1.5845 -1.30582,2.4892 -1.97323,3.1231 -0.19919,0.1892 -0.60289,0.6297 -0.89712,0.9792 -0.30559,0.3629 -0.79543,0.8553 -1.14247,1.1484 -0.71319,0.6024 -1.16779,1.0688 -2.10868,2.1634 -0.37929,0.4413 -0.70453,0.8023 -0.72276,0.8023 -0.0183,0 -0.0331,-0.089 -0.0331,-0.1983 0,-0.1777 0.0884,-0.299 0.84958,-1.1661 1.06126,-1.2087 1.34862,-1.5005 1.88935,-1.9188 0.44919,-0.3474 0.89333,-0.8233 1.26348,-1.3538 0.11939,-0.1711 0.33238,-0.386 0.4733,-0.4775 0.55081,-0.3576 1.28721,-1.4466 2.04411,-3.023 0.27162,-0.5656 0.65388,-1.3123 0.84947,-1.6593 0.19558,-0.3471 0.45747,-0.8915 0.58197,-1.2101 0.59333,-1.5181 1.05333,-2.1409 1.77499,-2.403 0.69439,-0.2522 1.40952,0.3557 1.50637,1.2805 0.0738,0.7047 -0.16714,1.565 -0.91554,3.2688 -0.50814,1.1568 -0.80341,1.633 -1.19977,1.9347 -0.27818,0.212 -0.58101,0.6605 -0.87901,1.3021 -0.20281,0.4366 -0.36515,0.6618 -1.11015,1.54 -0.47993,0.5656 -0.9446,1.1554 -1.0326,1.3106 -0.29845,0.5262 -3.65595,3.5933 -4.78086,4.3673 l -0.2323,0.1599 -0.1085,-0.1377 z m 1.02696,-1.7194 c 1.95181,-1.7737 3.39832,-3.2429 4.32115,-4.3888 0.66513,-0.8261 0.94609,-1.2724 1.47616,-2.3447 0.23849,-0.4826 0.58104,-1.1333 0.76122,-1.4463 0.63226,-1.0979 1.50755,-3.4537 1.40348,-3.7771 -0.0332,-0.103 0.11591,-0.2218 0.27945,-0.2218 0.15272,0 0.14373,-0.2396 -0.009,-0.249 -0.22453,-0.014 -0.32055,0.02 -0.57062,0.2024 -0.42079,0.3063 -0.4023,0.2704 -1.08459,2.1102 -0.4382,1.1816 -0.52702,1.506 -0.41239,1.506 0.11536,0 0.32901,-0.5014 1.11629,-2.62 0.14907,-0.401 0.26783,-0.6333 0.36687,-0.7174 0.0806,-0.069 0.16161,-0.1065 0.18012,-0.084 0.0186,0.022 0.0104,0.059 -0.0181,0.083 -0.0285,0.024 -0.0814,0.1629 -0.11759,0.3107 -0.0889,0.3626 -0.7335,2.1305 -0.9278,2.5447 -0.0859,0.1829 -0.26756,0.5004 -0.40375,0.7055 -0.13619,0.205 -0.44452,0.7768 -0.68518,1.2706 -0.62657,1.2856 -0.99994,1.8447 -2.05747,3.0814 -0.69197,0.8093 -1.3384,1.4777 -2.47859,2.563 -1.4686,1.3979 -2.02433,1.967 -2.02433,2.0726 0,0.1469 0.24833,-0.021 0.88499,-0.6 z m 8.65056,1.6177 c 0,-0.09 0.11421,-0.1473 1.14613,-0.5794 1.8989,-0.7949 4.10969,-1.8875 4.88966,-2.4165 0.3074,-0.2085 0.59617,-0.4649 0.79762,-0.7083 0.55835,-0.6749 1.25769,-1.5849 1.40935,-1.8337 0.0811,-0.1332 0.17418,-0.2692 0.20689,-0.3026 0.0327,-0.033 0.10185,-0.2646 0.15368,-0.5142 0.17173,-0.8272 0.0903,-1.9774 -0.28486,-4.0234 -0.0793,-0.4326 -0.16811,-1.0253 -0.19733,-1.3173 -0.0664,-0.663 -0.33212,-1.6274 -0.68734,-2.4942 -0.51148,-1.2482 -1.57368,-3.067 -2.07971,-3.5611 -0.14114,-0.1379 -0.59901,-0.6625 -1.01745,-1.1659 -0.7997,-0.9622 -1.3352,-1.4685 -2.32049,-2.1936 -0.53988,-0.3974 -0.72283,-0.6119 -0.52169,-0.6119 0.18884,0 1.47319,0.9261 2.12415,1.5317 0.53707,0.4996 2.27754,2.592 2.65495,3.1917 0.84098,1.3365 1.51081,2.7707 1.94758,4.1703 0.18554,0.5945 0.21613,0.7574 0.21024,1.1193 -0.005,0.2942 0.0459,0.6914 0.16625,1.3007 0.45904,2.326 0.56484,3.3353 0.4027,3.8418 -0.0897,0.28 -0.10761,0.604 -0.071,1.2814 0.0153,0.2837 -7.8e-4,0.3404 -0.17025,0.5999 -0.17886,0.2738 -0.24266,0.5086 -0.1382,0.5086 0.0991,0 0.38801,-0.3594 0.49407,-0.6146 0.0996,-0.2396 0.10667,-0.327 0.0803,-0.9941 -0.0332,-0.8404 0.0248,-1.1227 0.15416,-0.7508 0.095,0.2731 0.20593,1.449 0.16014,1.6978 -0.0194,0.1053 -0.11596,0.2979 -0.21461,0.4281 -0.0986,0.1303 -0.164,0.2551 -0.14524,0.2775 0.0188,0.022 0.13641,0.012 0.26144,-0.032 0.27908,-0.089 0.59519,-0.092 0.84722,-0.012 0.16636,0.056 0.19021,0.086 0.19021,0.2465 0,0.1748 -0.008,0.1815 -0.16147,0.1412 -0.23438,-0.062 -1.18314,-0.1529 -1.53768,-0.1483 -0.16738,0 -0.49834,0.07 -0.73546,0.1498 -0.23712,0.08 -0.52242,0.1741 -0.63401,0.2088 -0.22643,0.07 -0.52854,0.3303 -0.46812,0.403 0.0215,0.026 0.34104,-0.046 0.71009,-0.1609 0.61494,-0.1905 0.73245,-0.2079 1.40646,-0.2079 0.4045,0 0.88952,0.022 1.07782,0.05 0.33433,0.048 0.34237,0.054 0.34237,0.2256 0,0.1754 -3.6e-4,0.1755 -0.24093,0.1314 -0.13251,-0.025 -0.62894,-0.043 -1.10318,-0.041 -0.68269,0 -0.97486,0.03 -1.40297,0.1345 -0.29738,0.072 -0.61739,0.1287 -0.71111,0.1246 -0.21283,-0.012 -0.47981,0.092 -0.90382,0.3452 -0.5715,0.3407 -3.63307,1.7766 -4.71705,2.2123 -0.97721,0.3928 -1.36946,0.4958 -1.36946,0.3596 z m 7.86892,-4.0964 c 0.35955,-0.2335 0.83356,-0.9248 0.86487,-1.2614 0.0249,-0.2679 -0.0724,-0.2306 -0.26055,0.099 -0.096,0.1687 -0.36426,0.5127 -0.59596,0.7643 -0.23172,0.2516 -0.4213,0.4803 -0.4213,0.5081 0,0.095 0.1633,0.051 0.41294,-0.1112 z m -18.34256,3.1267 -0.1012,-0.1334 0.78593,-0.9177 c 0.78714,-0.9191 1.52388,-1.6665 2.35805,-2.3921 0.43195,-0.3758 1.5772,-1.6157 2.35703,-2.5518 0.48622,-0.5838 0.96293,-1.3844 1.39932,-2.3504 0.50994,-1.1286 0.6813,-1.4562 0.76172,-1.4562 0.12934,0 0.0779,0.2122 -0.2365,0.9748 -0.40035,0.9713 -0.74663,1.6585 -1.14563,2.2735 -0.45503,0.7014 -2.30328,2.7791 -3.17153,3.5653 -1.06204,0.9616 -1.71988,1.641 -2.34806,2.4251 l -0.55793,0.6963 -0.1012,-0.1334 z m 17.22571,-0.7182 c -0.40411,-0.3189 2.00923,-0.6853 3.38468,-0.5138 0.30279,0.038 0.31177,0.044 0.31177,0.2144 0,0.1707 -0.005,0.1744 -0.19021,0.1302 -0.10461,-0.025 -0.62387,-0.045 -1.1539,-0.043 -0.86463,0 -1.45937,0.067 -2.15564,0.2365 -0.0698,0.017 -0.15826,0.012 -0.1967,-0.025 z m -7.86794,-0.1529 c 0,-0.046 0.0598,-0.1018 0.13302,-0.124 0.20023,-0.06 2.15569,-1.2288 2.72028,-1.6261 0.79717,-0.5609 2.0226,-1.84 2.4552,-2.5627 0.4336,-0.7245 0.83085,-2.1344 0.926,-3.2867 0.0281,-0.34 0.0306,-1.1558 0.006,-1.9965 -0.0395,-1.3527 -0.0493,-1.4527 -0.20317,-2.0571 -0.26714,-1.0496 -0.30476,-1.2356 -0.2605,-1.2883 0.11338,-0.1353 0.39775,0.5954 0.62143,1.5966 0.10541,0.472 0.11377,0.6408 0.11648,2.3537 0.003,2.0594 -0.008,2.1669 -0.3821,3.5394 -0.32087,1.1783 -0.50352,1.4781 -1.57515,2.5863 -1.05068,1.0867 -1.21074,1.2131 -2.50329,1.9767 -1.56428,0.9243 -2.0542,1.1363 -2.0542,0.8887 z m -9.53554,-0.7235 c 0,-0.216 0.05,-0.2874 0.90739,-1.2986 0.68139,-0.8035 0.98677,-1.2132 1.22615,-1.6449 0.85771,-1.5464 1.36462,-2.4124 1.93485,-3.3052 0.7056,-1.1047 1.03202,-1.8008 1.52833,-3.2591 0.18119,-0.5324 0.39737,-1.1451 0.48039,-1.3613 0.083,-0.2163 0.17678,-0.5077 0.20833,-0.6477 0.0831,-0.3685 0.52735,-1.1306 0.95107,-1.6316 0.27295,-0.3227 0.46842,-0.4911 0.76243,-0.6568 0.21746,-0.1225 0.43502,-0.2471 0.48346,-0.2769 0.12221,-0.074 0.24161,-0.067 0.24161,0.015 0,0.05 0.11379,0.058 0.39806,0.03 0.33218,-0.033 0.4728,-0.015 0.84958,0.1065 0.24834,0.08 0.5703,0.2024 0.71547,0.2717 0.47807,0.2279 0.34384,-0.098 -0.16252,-0.3945 -0.36208,-0.2122 -0.88882,-0.3303 -1.44554,-0.3243 -0.26502,0 -0.52385,0 -0.57518,0 -0.0513,0 -0.3024,0.116 -0.55793,0.2638 -0.5239,0.3041 -0.98399,0.7673 -1.40843,1.4181 -0.14572,0.2234 -0.45141,0.624 -0.67931,0.8902 -0.47967,0.5603 -0.72918,1.0514 -1.29411,2.5474 -0.58289,1.5435 -0.83634,2.0414 -1.71362,3.3668 -0.28089,0.4244 -0.70906,1.1149 -0.95148,1.5344 -0.51032,0.8833 -1.02665,1.6319 -1.5382,2.2301 l -0.3608,0.4218 0,-0.2334 c 0,-0.2036 0.044,-0.2915 0.34237,-0.6839 0.57118,-0.7513 0.81191,-1.1043 1.26993,-1.8625 0.24124,-0.3993 0.66603,-1.0663 0.94398,-1.4822 0.71417,-1.0688 0.91345,-1.4597 1.65015,-3.2369 0.73723,-1.7784 1.01986,-2.327 1.54114,-2.9912 0.20037,-0.2554 0.51078,-0.6633 0.6898,-0.9065 0.45329,-0.6158 0.91903,-1.0589 1.42438,-1.3553 l 0.43113,-0.2526 0.78618,0 c 0.68717,0 0.82838,0.018 1.12136,0.1382 0.44864,0.185 0.74713,0.4198 0.98664,0.7763 0.1092,0.1625 0.32045,0.4589 0.46943,0.6585 0.8762,1.1741 0.96909,2.7487 0.26437,4.4811 -0.35592,0.875 -0.74277,1.4585 -1.50147,2.2648 -0.89312,0.9491 -1.7461,1.9664 -1.7461,2.0824 0,0.052 0.0321,0.096 0.0715,0.096 0.0855,0 2.01755,-2.0654 2.40993,-2.5762 0.71235,-0.9274 1.09326,-1.6941 1.35308,-2.7237 0.18814,-0.7456 0.20023,-1.7316 0.0288,-2.3476 -0.2261,-0.8121 -0.52124,-1.3649 -1.14488,-2.1439 -0.4937,-0.6167 -0.98482,-0.9032 -1.77106,-1.0333 -0.53513,-0.089 -0.78061,-0.083 -1.2336,0.028 -0.84033,0.207 -1.53326,0.8099 -2.56846,2.2348 -0.83899,1.1548 -1.11165,1.6576 -1.86895,3.4466 -0.73945,1.7469 -1.02412,2.3247 -1.46105,2.9654 -0.18203,0.2668 -0.61672,0.938 -0.96596,1.4915 -0.34925,0.5533 -0.829,1.2672 -1.06613,1.5864 l -0.43113,0.58 -0.0158,-0.2459 c -0.0145,-0.225 0.009,-0.2798 0.28285,-0.6485 0.16427,-0.2215 0.46682,-0.6614 0.67231,-0.9775 0.2055,-0.3161 0.62737,-0.9559 0.93748,-1.4218 0.75238,-1.1302 0.71213,-1.0548 1.36381,-2.5553 1.1098,-2.5554 1.44191,-3.1866 2.36105,-4.4889 0.58689,-0.8315 0.93505,-1.2182 1.5076,-1.6748 0.74256,-0.5922 1.32731,-0.7937 2.11326,-0.7285 0.60746,0.051 1.03555,0.1766 1.50418,0.443 0.31056,0.1766 0.47538,0.3302 0.88968,0.8292 0.80138,0.9654 1.10561,1.6285 1.27091,2.7701 0.0677,0.4676 0.072,0.6558 0.0253,1.0911 -0.10699,0.9962 -0.42366,2.0415 -0.79609,2.6278 -0.67394,1.0611 -2.23207,2.8687 -3.09629,3.5921 -0.17889,0.1498 -0.56979,0.5284 -0.86866,0.8415 -1.34623,1.4099 -1.74039,1.7743 -1.81853,1.681 -0.0601,-0.072 0.12545,-0.325 0.67507,-0.922 0.95357,-1.0358 1.32498,-1.5108 1.38323,-1.7688 0.0812,-0.3596 0.39513,-0.8324 0.98745,-1.4868 0.57962,-0.6404 0.79005,-0.9572 0.89013,-1.3397 0.0348,-0.1332 0.14949,-0.4189 0.25483,-0.6352 0.32202,-0.6613 0.65337,-1.4862 0.79543,-1.9804 0.17021,-0.5921 0.19466,-1.4458 0.0551,-1.9222 -0.10328,-0.3527 -0.37989,-0.7231 -0.70003,-0.9376 -0.18846,-0.1263 -0.29265,-0.1512 -0.63147,-0.1512 -0.36204,0 -0.43855,0.021 -0.71009,0.1973 -0.65017,0.4215 -1.04493,0.9983 -1.62074,2.3682 -0.15951,0.3795 -0.41085,0.8968 -0.55851,1.1495 -0.14767,0.2528 -0.46489,0.8738 -0.70494,1.3801 -0.24003,0.5063 -0.54224,1.1189 -0.67156,1.3612 -0.42994,0.806 -1.33017,2.0441 -1.48618,2.0441 -0.12922,0 -0.0355,-0.2441 0.25597,-0.6673 0.76903,-1.116 1.1795,-1.8546 1.84486,-3.3196 0.21543,-0.4743 0.47706,-0.9801 0.58137,-1.1238 0.10432,-0.1438 0.34205,-0.6068 0.5283,-1.0291 0.6985,-1.5833 1.07616,-2.1055 1.84583,-2.5521 l 0.4842,-0.2809 0.36785,0.069 c 0.45774,0.085 0.88477,0.3212 1.09371,0.6051 0.0878,0.1193 0.23053,0.3952 0.31707,0.6131 0.14696,0.3699 0.15724,0.4401 0.15536,1.0616 -0.002,0.5898 -0.0207,0.7303 -0.16677,1.2355 -0.19185,0.6636 -0.45273,1.2812 -0.8448,2 -0.29885,0.5479 -0.31907,0.6063 -0.20962,0.6063 0.17718,0 0.77072,-0.9971 1.10067,-1.849 0.62792,-1.6212 0.52826,-3.0723 -0.2751,-4.0058 -0.22592,-0.2626 -0.32072,-0.3246 -0.69286,-0.4535 -1.31181,-0.4543 -1.41847,-0.4717 -1.95276,-0.3179 -0.16738,0.049 -0.38545,0.089 -0.4846,0.09 -0.32804,0 -0.88765,0.5603 -1.32342,1.3159 -0.22728,0.394 -0.59784,1.3633 -0.93184,2.4373 -0.51307,1.6501 -0.89749,2.4748 -1.84699,3.9629 -0.29726,0.4659 -0.6928,1.133 -0.879,1.4823 -0.18619,0.3494 -0.47603,0.8395 -0.64408,1.089 -0.16806,0.2496 -0.30572,0.4878 -0.30592,0.5295 -0.002,0.3961 0.82416,-0.6634 1.35861,-1.7427 0.14011,-0.283 0.44235,-0.7997 0.67164,-1.148 0.97266,-1.4783 1.63424,-2.9022 1.92609,-4.1458 0.2382,-1.0148 0.76845,-2.2294 1.25547,-2.8755 0.36957,-0.4904 0.77291,-0.8019 0.77291,-0.597 0,0.035 -0.15524,0.2595 -0.34498,0.4991 -0.70105,0.8849 -1.27656,2.1572 -1.3856,3.063 -0.10061,0.8359 -1.00366,2.7552 -2.02318,4.2998 -0.2306,0.3495 -0.48497,0.809 -0.56526,1.0213 -0.28432,0.7514 -0.98049,1.6328 -1.53755,1.9468 -0.27611,0.1556 -0.49359,0.3685 -1.15982,1.1348 -0.45101,0.5187 -0.92841,1.066 -1.06092,1.2162 l -0.24093,0.2728 0,-0.2284 z m 0,-0.9488 c 0,-0.2664 0.0123,-0.2869 0.56147,-0.9369 0.66995,-0.7928 0.88289,-1.1046 1.56917,-2.298 0.28705,-0.4992 0.76187,-1.2751 1.05513,-1.7243 0.89011,-1.3635 1.21774,-2.0341 1.84906,-3.7847 0.41877,-1.1613 0.91418,-2.0866 1.03805,-1.9389 0.0168,0.02 -0.10899,0.3835 -0.27949,0.8079 -0.17051,0.4242 -0.46027,1.1934 -0.64391,1.7091 -0.48417,1.3599 -0.79474,1.9718 -1.67327,3.2974 -0.19849,0.2995 -0.65427,1.0618 -1.01284,1.6941 -0.82867,1.461 -0.99322,1.7042 -1.80051,2.6611 l -0.66286,0.7856 0,-0.2724 z m 20.8546,-1.1469 c -0.26839,-0.2325 -0.39844,-0.5584 -0.46329,-1.1611 -0.0262,-0.2436 -0.0954,-0.6062 -0.15384,-0.8059 -0.0584,-0.1996 -0.15122,-0.677 -0.20628,-1.0606 -0.10205,-0.7113 -0.30986,-1.7815 -0.6126,-3.1549 -0.17062,-0.7741 -0.16765,-0.9902 0.01,-0.7144 0.19669,0.3055 1.06286,3.873 1.06286,4.3775 0,0.4 0.16865,0.8813 0.40544,1.157 0.16175,0.1885 0.20318,0.2806 0.20307,0.4513 l -1.6e-4,0.2147 -0.20058,-0.2723 c -0.17187,-0.2334 -0.20089,-0.2533 -0.20275,-0.1401 -0.003,0.21 0.0932,0.4576 0.25802,0.6615 0.12373,0.153 0.14947,0.231 0.13637,0.4133 l -0.0162,0.2246 -0.21997,-0.1906 z m 0.0914,-1.846 c -0.28054,-0.5279 -0.34901,-0.9591 -0.12233,-0.7704 0.14703,0.1224 0.28176,0.5029 0.26662,0.7531 l -0.0157,0.2594 -0.1286,-0.2421 z m -0.0327,-1.0471 c -0.10758,-0.1736 -0.23966,-0.5567 -0.39626,-1.1495 -0.63329,-2.397 -0.69959,-2.6194 -0.89682,-3.0095 -0.11297,-0.2234 -0.3412,-0.8042 -0.5072,-1.2906 -0.50148,-1.4696 -1.1534,-2.8479 -1.96326,-4.1507 -0.45902,-0.7385 -1.88176,-2.4781 -2.5491,-3.117 -0.83924,-0.8035 -2.06478,-1.6333 -2.41225,-1.6333 -0.0922,0 -0.36729,-0.083 -0.61133,-0.184 -1.57185,-0.6521 -2.81002,-0.8446 -4.06433,-0.632 -1.96056,0.3324 -2.95314,0.9107 -4.91499,2.8637 -0.31483,0.3134 -0.58185,0.5586 -0.59338,0.5448 -0.058,-0.07 0.86952,-1.2862 1.22532,-1.6077 1.3524,-1.2222 2.266,-1.7352 3.58325,-2.0119 1.81374,-0.3809 2.75354,-0.2821 4.97978,0.5239 0.8853,0.3204 1.59768,0.7312 2.48534,1.4328 0.51459,0.4067 0.76989,0.6737 1.65213,1.7269 1.09912,1.3124 1.49317,1.8887 2.17428,3.1799 0.41513,0.7871 0.99553,2.0992 1.24534,2.8153 0.0754,0.2164 0.28536,0.7729 0.46647,1.2366 0.18111,0.4639 0.47276,1.3487 0.6481,1.9664 0.17535,0.6176 0.39133,1.3462 0.47997,1.6192 0.12386,0.3813 0.15759,0.5704 0.14573,0.8167 l -0.0154,0.3206 -0.16137,-0.2606 z m -0.0882,-2.2943 c -0.13727,-0.4582 -0.39111,-1.228 -0.56412,-1.7105 -0.173,-0.4824 -0.41047,-1.1472 -0.52771,-1.4772 -0.58884,-1.6571 -1.61698,-3.7508 -2.4091,-4.9056 -0.15976,-0.233 -0.72254,-0.9467 -1.25062,-1.5859 -0.7912,-0.958 -1.06041,-1.2421 -1.52998,-1.6146 -1.64387,-1.3041 -3.41592,-2.0506 -5.40464,-2.2771 -1.27883,-0.1457 -3.01574,0.1782 -4.11744,0.7675 -0.46633,0.2495 -0.33361,0.1124 0.39278,-0.4046 0.42949,-0.3059 0.59739,-0.3891 0.96834,-0.4797 1.58364,-0.3871 3.4413,-0.2868 5.04996,0.2726 1.51966,0.5285 3.52213,1.8369 4.24032,2.7708 0.18133,0.2357 0.59544,0.7428 0.92026,1.1268 0.9648,1.1405 1.35683,1.7488 2.18496,3.3904 0.56226,1.1146 1.2839,2.8119 1.40485,3.3043 0.0581,0.2368 0.23855,0.7812 0.40087,1.2099 0.51041,1.3485 0.52238,1.3945 0.50572,1.9499 l -0.0149,0.496 -0.24957,-0.833 z m -20.82474,0.1827 c -2e-4,-0.2148 0.0546,-0.3521 0.3501,-0.8773 0.57826,-1.0276 1.95435,-3.5655 2.10906,-3.8896 0.23417,-0.4908 0.79991,-1.4786 1.13334,-1.9791 0.31364,-0.4708 0.46148,-0.6154 0.59376,-0.581 0.0506,0.013 -0.006,0.1389 -0.18495,0.4122 -0.45422,0.6929 -0.93334,1.5239 -1.29087,2.2385 -0.19144,0.3827 -0.65711,1.2606 -1.03485,1.9509 -0.37773,0.6902 -0.85329,1.5615 -1.05681,1.936 -0.20352,0.3746 -0.42595,0.7627 -0.49428,0.8625 l -0.12424,0.1815 -2.6e-4,-0.2546 z m -2e-5,-1.0662 c -2.1e-4,-0.2773 0.0413,-0.3661 0.80604,-1.7243 0.44345,-0.7876 1.01095,-1.8311 1.26112,-2.3191 0.60641,-1.1827 1.10214,-1.9574 1.57026,-2.4542 0.21237,-0.2254 0.72035,-0.7949 1.12887,-1.2657 0.73377,-0.8455 0.75097,-0.8606 1.42445,-1.2523 0.37495,-0.2181 0.82696,-0.4519 1.00447,-0.5195 0.8147,-0.3104 1.6371,-0.3828 2.39678,-0.2109 0.54372,0.1231 0.79507,0.2436 0.71274,0.3418 -0.0462,0.056 -0.19678,0.048 -0.65566,-0.032 -0.32759,-0.057 -0.73255,-0.1029 -0.89993,-0.1006 -0.88714,0.012 -2.09386,0.5014 -2.98586,1.2235 -0.16372,0.1325 -0.58597,0.5724 -0.93834,0.9773 -0.35238,0.405 -0.7478,0.8104 -0.87871,0.9009 -0.36425,0.2519 -0.95328,1.1562 -1.70261,2.6139 -0.22237,0.4326 -0.8181,1.5353 -1.32385,2.4504 l -0.91954,1.6637 -2.1e-4,-0.2923 z m 20.73197,-1.0453 c -0.1883,-0.4652 -0.34237,-0.8921 -0.34237,-0.9489 0,-0.2706 0.2205,0.018 0.53027,0.694 0.16223,0.3541 0.18321,0.4471 0.16979,0.7523 l -0.0154,0.3483 -0.34236,-0.8457 z m -20.7322,-0.059 c 0,-0.325 0.0757,-0.4801 0.88346,-1.8095 0.16174,-0.2663 0.44292,-0.7835 0.62484,-1.1495 0.74026,-1.4895 1.40321,-2.4942 2.17842,-3.3015 0.91547,-0.9533 1.18249,-1.1659 1.18249,-0.942 0,0.079 -0.67728,0.8485 -1.28101,1.4548 -0.512,0.5142 -1.16694,1.5523 -1.91978,3.0431 -0.19817,0.3925 -0.51666,0.9755 -0.70774,1.2958 -0.19107,0.3202 -0.4854,0.8367 -0.65405,1.1478 l -0.30663,0.5655 0,-0.3045 z m 6.79661,-0.4322 c 0,-0.2335 0.6365,-1.759 0.9407,-2.2546 0.45388,-0.7395 0.81909,-1.1872 1.07496,-1.3179 0.35463,-0.181 0.68723,-0.2286 0.76974,-0.11 0.0565,0.082 0.0463,0.1041 -0.0696,0.1563 -0.0746,0.034 -0.15948,0.062 -0.18862,0.062 -0.15244,0 -0.6873,0.4245 -0.93187,0.7396 -0.38728,0.4991 -0.64522,0.9689 -1.08676,1.9796 -0.3894,0.8912 -0.50854,1.0659 -0.50854,0.7455 z m 14.22033,-0.1416 c -0.0316,-0.084 -0.20539,-0.3445 -0.38598,-0.5792 -0.237,-0.308 -0.48376,-0.7533 -0.88689,-1.6005 -1.40749,-2.9574 -1.73018,-3.5036 -2.85561,-4.834 -0.40821,-0.4824 -0.8364,-1.0312 -0.95154,-1.2192 -0.53698,-0.8773 -3.00959,-2.4682 -4.67686,-3.0091 -1.00256,-0.3252 -1.52761,-0.3986 -2.85845,-0.3993 l -1.26075,0 0.44921,-0.1815 c 0.42398,-0.1713 0.49193,-0.1811 1.21002,-0.1759 1.2176,0.012 2.44376,0.3095 3.67727,0.9016 0.81294,0.3901 2.07777,1.1769 2.90247,1.8054 0.38286,0.2918 0.7937,0.5704 0.91298,0.6191 0.35189,0.1438 0.71042,0.5096 2.21726,2.262 1.29493,1.5059 2.00564,2.4485 2.23271,2.9608 0.0702,0.1586 0.35991,1.156 0.33568,1.156 -0.008,0 -0.20513,-0.3335 -0.43748,-0.7411 -0.79796,-1.4 -1.13965,-1.8888 -1.37647,-1.9694 -0.0686,-0.024 -0.33003,-0.3269 -0.58373,-0.6776 -0.80733,-1.1159 -2.24834,-2.7225 -2.442,-2.7225 -0.15512,0 0.004,0.2286 0.7522,1.0808 1.01204,1.1528 1.56635,1.9347 1.85011,2.6098 0.30896,0.735 1.53879,3.1257 1.93178,3.7552 0.31457,0.504 0.332,0.5492 0.31728,0.8226 -0.0146,0.2706 -0.0194,0.2794 -0.0732,0.1368 z m -0.46763,-1.9716 c -1.17591,-2.1452 -1.47585,-2.7176 -1.477,-2.8186 -0.004,-0.3359 0.34182,0.1548 1.25851,1.7868 0.76946,1.3698 0.77419,1.3803 0.75902,1.6843 l -0.0153,0.306 -0.52525,-0.9585 z m -20.54931,0.46 c 0,-0.069 0.0648,-0.2249 0.14398,-0.3478 0.0792,-0.1228 0.2789,-0.4513 0.44381,-0.73 0.28329,-0.4787 0.4868,-0.7337 0.58564,-0.7337 0.0924,0 0.0303,0.1354 -0.39315,0.8579 -0.59972,1.023 -0.78028,1.2437 -0.78028,0.9536 z m 18.8682,-4.8827 c -1.61329,-1.9155 -1.87247,-2.1819 -2.56141,-2.6325 -0.27897,-0.1825 -0.81534,-0.5552 -1.19194,-0.8284 -1.70482,-1.2367 -3.53546,-2.0877 -5.09746,-2.3698 l -0.45648,-0.083 0.5072,-0.031 c 0.27897,-0.017 0.65557,-0.012 0.8369,0.012 0.84737,0.1053 2.89122,1.1397 4.48881,2.2728 0.41844,0.2967 0.91185,0.6388 1.09645,0.7601 0.57212,0.3761 0.92217,0.7345 2.19058,2.2431 1.07317,1.2763 1.25068,1.5144 1.41487,1.8981 0.10325,0.2412 0.18313,0.4333 0.17751,0.4268 -0.006,-0.012 -0.63787,-0.7571 -1.40503,-1.6679 z m -0.49084,-1.4387 c -0.85349,-1.0857 -0.95511,-1.1744 -2.8821,-2.512 -0.80963,-0.562 -1.71257,-1.0975 -2.5979,-1.5406 -0.25719,-0.1287 -0.45962,-0.2436 -0.44984,-0.2552 0.0268,-0.032 0.9677,0.2618 1.39136,0.4344 0.65731,0.2678 2.69063,1.638 3.27084,2.2043 0.63039,0.6151 2.01306,2.3675 1.868,2.3675 -0.0283,0 -0.29845,-0.3143 -0.60036,-0.6984 z"
       id="path3921"
       inkscape:connector-curvature="0"
       clip-path="none" />
  </g>
</svg>
