solid OpenSCAD_Model
  facet normal -1 0 0
    outer loop
      vertex -84.365 -15 0
      vertex -84.365 15 2.4
      vertex -84.365 15 0
    endloop
  endfacet
  facet normal -1 -0 0
    outer loop
      vertex -84.365 15 2.4
      vertex -84.365 -15 0
      vertex -84.365 -15 2.4
    endloop
  endfacet
  facet normal -0 0 1
    outer loop
      vertex -82.565 15 0.4
      vertex -15 -15 0.4
      vertex -15 15 0.4
    endloop
  endfacet
  facet normal 0 0 1
    outer loop
      vertex -15 -15 0.4
      vertex -82.565 15 0.4
      vertex -82.565 -15 0.4
    endloop
  endfacet
  facet normal 1 -0 0
    outer loop
      vertex -15 -15 0.4
      vertex -15 15 0
      vertex -15 15 0.4
    endloop
  endfacet
  facet normal 1 0 0
    outer loop
      vertex -15 15 0
      vertex -15 -15 0.4
      vertex -15 -15 0
    endloop
  endfacet
  facet normal 0 0 -1
    outer loop
      vertex -84.365 -15 0
      vertex -15 15 0
      vertex -15 -15 0
    endloop
  endfacet
  facet normal -0 0 -1
    outer loop
      vertex -15 15 0
      vertex -84.365 -15 0
      vertex -84.365 15 0
    endloop
  endfacet
  facet normal 0 -1 0
    outer loop
      vertex -84.365 -15 2.4
      vertex -82.565 -15 0.4
      vertex -82.565 -15 2.4
    endloop
  endfacet
  facet normal 0 -1 0
    outer loop
      vertex -84.365 -15 0
      vertex -82.565 -15 0.4
      vertex -84.365 -15 2.4
    endloop
  endfacet
  facet normal 0 -1 0
    outer loop
      vertex -15 -15 0
      vertex -82.565 -15 0.4
      vertex -84.365 -15 0
    endloop
  endfacet
  facet normal 0 -1 0
    outer loop
      vertex -82.565 -15 0.4
      vertex -15 -15 0
      vertex -15 -15 0.4
    endloop
  endfacet
  facet normal 0 1 0
    outer loop
      vertex -15 15 0.4
      vertex -15 15 0
      vertex -82.565 15 0.4
    endloop
  endfacet
  facet normal 0 1 -0
    outer loop
      vertex -82.565 15 0.4
      vertex -84.365 15 2.4
      vertex -82.565 15 2.4
    endloop
  endfacet
  facet normal 0 1 0
    outer loop
      vertex -82.565 15 0.4
      vertex -84.365 15 0
      vertex -84.365 15 2.4
    endloop
  endfacet
  facet normal 0 1 0
    outer loop
      vertex -84.365 15 0
      vertex -82.565 15 0.4
      vertex -15 15 0
    endloop
  endfacet
  facet normal -0 0 1
    outer loop
      vertex -84.365 15 2.4
      vertex -82.565 -15 2.4
      vertex -82.565 15 2.4
    endloop
  endfacet
  facet normal 0 0 1
    outer loop
      vertex -82.565 -15 2.4
      vertex -84.365 15 2.4
      vertex -84.365 -15 2.4
    endloop
  endfacet
  facet normal 1 -0 0
    outer loop
      vertex -82.565 -15 2.4
      vertex -82.565 15 0.4
      vertex -82.565 15 2.4
    endloop
  endfacet
  facet normal 1 0 0
    outer loop
      vertex -82.565 15 0.4
      vertex -82.565 -15 2.4
      vertex -82.565 -15 0.4
    endloop
  endfacet
endsolid OpenSCAD_Model
