solid Design
facet normal -2.387644772772073e-14 -1.0 -8.45989944764423e-15
  outer loop
    vertex 416.9867175306571 697.4318348441157 2.058575532259965e-13
    vertex 288.4867175306572 697.4318348441186 12.000000000000597
    vertex 288.4867175306572 697.4318348441187 0.0
  endloop
endfacet
facet normal -2.387644772772073e-14 -1.0 -8.45989944764423e-15
  outer loop
    vertex 288.4867175306572 697.4318348441186 12.000000000000597
    vertex 416.9867175306571 697.4318348441157 2.058575532259965e-13
    vertex 416.9867175306571 697.4318348441155 12.000000000000803
  endloop
endfacet
facet normal -1.206989545059513e-15 -8.459899447644201e-15 1.0
  outer loop
    vertex 416.9867175306571 697.4318348441155 12.000000000000803
    vertex 288.4867175306575 709.4318348441155 12.00000000000075
    vertex 288.4867175306572 697.4318348441186 12.000000000000597
  endloop
endfacet
facet normal -1.206989545059513e-15 -8.459899447644201e-15 1.0
  outer loop
    vertex 288.4867175306575 709.4318348441155 12.00000000000075
    vertex 416.9867175306571 697.4318348441155 12.000000000000803
    vertex 416.9867175306574 709.4318348441155 12.000000000000854
  endloop
endfacet
facet normal -3.6892342744394045e-30 1.0 9.086558665987118e-15
  outer loop
    vertex 288.4867175306575 709.4318348441155 12.00000000000075
    vertex 416.9867175306574 709.4318348441155 3.0000000000002567
    vertex 288.4867175306575 709.4318348441155 3.0000000000002567
  endloop
endfacet
facet normal -3.6892342744394045e-30 1.0 9.086558665987118e-15
  outer loop
    vertex 416.9867175306574 709.4318348441155 3.0000000000002567
    vertex 288.4867175306575 709.4318348441155 12.00000000000075
    vertex 416.9867175306574 709.4318348441155 12.000000000000854
  endloop
endfacet
facet normal 1.5850307177878165e-12 -1.0 9.086558665987118e-15
  outer loop
    vertex 416.98671753067583 813.9223484756199 12.000000000000952
    vertex 288.4867175306759 813.9223484754161 3.0000000000004596
    vertex 416.98671753067583 813.9223484756197 3.0000000000004596
  endloop
endfacet
facet normal 1.5850307177878165e-12 -1.0 9.086558665987118e-15
  outer loop
    vertex 288.4867175306759 813.9223484754161 3.0000000000004596
    vertex 416.98671753067583 813.9223484756199 12.000000000000952
    vertex 288.4867175306759 813.9223484754161 12.000000000001057
  endloop
endfacet
facet normal 1.2208108383062497e-27 -1.9427336990567433e-15 1.0
  outer loop
    vertex 416.9867175306574 709.4318348441155 3.0000000000002567
    vertex 288.4867175306759 813.9223484754161 3.0000000000004596
    vertex 288.4867175306575 709.4318348441155 3.0000000000002567
  endloop
endfacet
facet normal 1.2208108383062497e-27 -1.9427336990567433e-15 1.0
  outer loop
    vertex 288.4867175306759 813.9223484754161 3.0000000000004596
    vertex 416.9867175306574 709.4318348441155 3.0000000000002567
    vertex 416.98671753067583 813.9223484756197 3.0000000000004596
  endloop
endfacet
facet normal 1.0 -7.051503777624841e-14 -2.374075714276399e-13
  outer loop
    vertex 416.9867175306571 697.4318348441157 2.058575532259965e-13
    vertex 416.9867175306574 709.4318348441155 12.000000000000854
    vertex 416.9867175306571 697.4318348441155 12.000000000000803
  endloop
endfacet
facet normal 1.0 -7.051503777624841e-14 -2.374075714276399e-13
  outer loop
    vertex 416.9867175306574 709.4318348441155 12.000000000000854
    vertex 416.9867175306571 697.4318348441157 2.058575532259965e-13
    vertex 416.9867175306574 709.4318348441155 3.0000000000002567
  endloop
endfacet
facet normal 1.0 -7.051503777624841e-14 -2.374075714276399e-13
  outer loop
    vertex 416.9867175306574 709.4318348441155 3.0000000000002567
    vertex 416.9867175306571 697.4318348441157 2.058575532259965e-13
    vertex 416.9867175306571 825.9223484756167 2.0303758674344862e-13
  endloop
endfacet
facet normal 1.0 -7.051503777624841e-14 -2.374075714276399e-13
  outer loop
    vertex 416.9867175306574 709.4318348441155 3.0000000000002567
    vertex 416.9867175306571 825.9223484756167 2.0303758674344862e-13
    vertex 416.98671753067583 813.9223484756197 3.0000000000004596
  endloop
endfacet
facet normal 1.0 -7.051503777624841e-14 -2.374075714276399e-13
  outer loop
    vertex 416.98671753067583 813.9223484756197 3.0000000000004596
    vertex 416.9867175306571 825.9223484756167 2.0303758674344862e-13
    vertex 416.98671753067583 813.9223484756199 12.000000000000952
  endloop
endfacet
facet normal 1.0 -7.051503777624841e-14 -2.374075714276399e-13
  outer loop
    vertex 416.98671753067583 813.9223484756199 12.000000000000952
    vertex 416.9867175306571 825.9223484756167 2.0303758674344862e-13
    vertex 416.9867175306571 825.9223484756168 12.0000000000008
  endloop
endfacet
facet normal 2.706582616185818e-16 1.5798560641512191e-15 -1.0
  outer loop
    vertex 416.9867175306571 825.9223484756167 2.0303758674344862e-13
    vertex 288.4867175306572 697.4318348441187 0.0
    vertex 288.4867175306572 825.9223484754161 4.0889513996944515e-13
  endloop
endfacet
facet normal 2.706582616185818e-16 1.5798560641512191e-15 -1.0
  outer loop
    vertex 288.4867175306572 697.4318348441187 0.0
    vertex 416.9867175306571 825.9223484756167 2.0303758674344862e-13
    vertex 416.9867175306571 697.4318348441157 2.058575532259965e-13
  endloop
endfacet
facet normal -1.0 7.013179300577454e-14 2.371156294329841e-13
  outer loop
    vertex 288.4867175306575 709.4318348441155 12.00000000000075
    vertex 288.4867175306572 697.4318348441187 0.0
    vertex 288.4867175306572 697.4318348441186 12.000000000000597
  endloop
endfacet
facet normal -1.0 7.013179300577454e-14 2.371156294329841e-13
  outer loop
    vertex 288.4867175306572 697.4318348441187 0.0
    vertex 288.4867175306575 709.4318348441155 12.00000000000075
    vertex 288.4867175306575 709.4318348441155 3.0000000000002567
  endloop
endfacet
facet normal -1.0 7.013179300577454e-14 2.371156294329841e-13
  outer loop
    vertex 288.4867175306572 697.4318348441187 0.0
    vertex 288.4867175306575 709.4318348441155 3.0000000000002567
    vertex 288.4867175306572 825.9223484754161 4.0889513996944515e-13
  endloop
endfacet
facet normal -1.0 7.013179300577454e-14 2.371156294329841e-13
  outer loop
    vertex 288.4867175306572 825.9223484754161 4.0889513996944515e-13
    vertex 288.4867175306575 709.4318348441155 3.0000000000002567
    vertex 288.4867175306759 813.9223484754161 3.0000000000004596
  endloop
endfacet
facet normal -1.0 7.013179300577454e-14 2.371156294329841e-13
  outer loop
    vertex 288.4867175306572 825.9223484754161 4.0889513996944515e-13
    vertex 288.4867175306759 813.9223484754161 3.0000000000004596
    vertex 288.4867175306759 813.9223484754161 12.000000000001057
  endloop
endfacet
facet normal -1.0 7.013179300577454e-14 2.371156294329841e-13
  outer loop
    vertex 288.4867175306572 825.9223484754161 4.0889513996944515e-13
    vertex 288.4867175306759 813.9223484754161 12.000000000001057
    vertex 288.4867175306572 825.9223484754164 12.000000000001005
  endloop
endfacet
facet normal 1.2069895450461038e-15 8.459899447646115e-15 1.0
  outer loop
    vertex 288.4867175306759 813.9223484754161 12.000000000001057
    vertex 416.9867175306571 825.9223484756168 12.0000000000008
    vertex 288.4867175306572 825.9223484754164 12.000000000001005
  endloop
endfacet
facet normal 1.2069895450461038e-15 8.459899447646115e-15 1.0
  outer loop
    vertex 416.9867175306571 825.9223484756168 12.0000000000008
    vertex 288.4867175306759 813.9223484754161 12.000000000001057
    vertex 416.98671753067583 813.9223484756199 12.000000000000952
  endloop
endfacet
facet normal -1.5611542700600957e-12 1.0 -8.45989944764423e-15
  outer loop
    vertex 288.4867175306572 825.9223484754161 4.0889513996944515e-13
    vertex 416.9867175306571 825.9223484756168 12.0000000000008
    vertex 416.9867175306571 825.9223484756167 2.0303758674344862e-13
  endloop
endfacet
facet normal -1.5611542700600957e-12 1.0 -8.45989944764423e-15
  outer loop
    vertex 416.9867175306571 825.9223484756168 12.0000000000008
    vertex 288.4867175306572 825.9223484754161 4.0889513996944515e-13
    vertex 288.4867175306572 825.9223484754164 12.000000000001005
  endloop
endfacet
endsolid Design
