solid Design
facet normal 1.0 1.666732805042721e-17 -1.4902041789940385e-08
  outer loop
    vertex -23.494954152217254 173.2897126552863 43.936790428632044
    vertex -23.494954270333366 120.78046730250645 36.01062074107945
    vertex -23.494954270333366 173.2897126552863 36.01062074107945
  endloop
endfacet
facet normal 1.0 1.666732805042721e-17 -1.4902041789940385e-08
  outer loop
    vertex -23.494954270333366 120.78046730250645 36.01062074107945
    vertex -23.494954152217254 173.2897126552863 43.936790428632044
    vertex -23.494954180921116 120.78046730250645 42.01062074108063
  endloop
endfacet
facet normal 1.0 1.666732805042721e-17 -1.4902041789940385e-08
  outer loop
    vertex -23.494954180921116 120.78046730250645 42.01062074108063
    vertex -23.494954152217254 173.2897126552863 43.936790428632044
    vertex -23.494954152217254 120.78046730250645 43.936790428632044
  endloop
endfacet
facet normal 0.0 -1.0 0.0
  outer loop
    vertex -48.494954152217254 99.28971265528631 43.93679080118305
    vertex -23.494954180921116 99.28971265528631 42.01062074108063
    vertex -23.494954152217254 99.28971265528631 43.936790428632044
  endloop
endfacet
facet normal 0.0 -1.0 0.0
  outer loop
    vertex -23.494954180921116 99.28971265528631 42.01062074108063
    vertex -48.494954152217254 99.28971265528631 43.93679080118305
    vertex -48.49495418092111 99.28971265528631 42.010621113631636
  endloop
endfacet
facet normal 0.0 1.0 0.0
  outer loop
    vertex -23.494954270333366 173.2897126552863 36.01062074107945
    vertex -48.494954152217254 173.2897126552863 43.93679080118305
    vertex -23.494954152217254 173.2897126552863 43.936790428632044
  endloop
endfacet
facet normal 0.0 1.0 0.0
  outer loop
    vertex -48.494954152217254 173.2897126552863 43.93679080118305
    vertex -23.494954270333366 173.2897126552863 36.01062074107945
    vertex -48.494954270333366 173.2897126552863 36.01062111363046
  endloop
endfacet
facet normal 1.0 0.0 -1.4902040310071918e-08
  outer loop
    vertex -23.494954152217254 120.78046730250645 43.936790428632044
    vertex -23.494954180921116 99.28971265528631 42.01062074108063
    vertex -23.494954180921116 120.78046730250645 42.01062074108063
  endloop
endfacet
facet normal 1.0 0.0 -1.4902040310071918e-08
  outer loop
    vertex -23.494954180921116 99.28971265528631 42.01062074108063
    vertex -23.494954152217254 120.78046730250645 43.936790428632044
    vertex -23.494954152217254 99.28971265528631 43.936790428632044
  endloop
endfacet
facet normal 1.4902040310071918e-08 0.0 1.0
  outer loop
    vertex -23.494954152217254 120.78046730250645 43.936790428632044
    vertex -48.494954152217254 99.28971265528631 43.93679080118305
    vertex -23.494954152217254 99.28971265528631 43.936790428632044
  endloop
endfacet
facet normal 1.4902040310071918e-08 0.0 1.0
  outer loop
    vertex -48.494954152217254 99.28971265528631 43.93679080118305
    vertex -23.494954152217254 120.78046730250645 43.936790428632044
    vertex -48.494954152217254 173.2897126552863 43.93679080118305
  endloop
endfacet
facet normal 1.4902040310071918e-08 0.0 1.0
  outer loop
    vertex -48.494954152217254 173.2897126552863 43.93679080118305
    vertex -23.494954152217254 120.78046730250645 43.936790428632044
    vertex -23.494954152217254 173.2897126552863 43.936790428632044
  endloop
endfacet
facet normal 1.0 0.0 -1.490203983956201e-08
  outer loop
    vertex 31.452456542512824 120.78046730250645 42.010619922252125
    vertex 31.45245645310058 71.78046730250651 36.010619922250896
    vertex 31.45245645310058 120.78046730250645 36.010619922250896
  endloop
endfacet
facet normal 1.0 0.0 -1.490203983956201e-08
  outer loop
    vertex 31.45245645310058 71.78046730250651 36.010619922250896
    vertex 31.452456542512824 120.78046730250645 42.010619922252125
    vertex 31.452456542512824 71.7804673025065 42.010619922252125
  endloop
endfacet
facet normal 6.86093946056825e-24 -1.0 4.604026910282287e-16
  outer loop
    vertex -48.49495418092113 71.7804673025065 42.010621113631665
    vertex 31.45245645310058 71.78046730250651 36.010619922250896
    vertex 31.452456542512824 71.7804673025065 42.010619922252125
  endloop
endfacet
facet normal 6.86093946056825e-24 -1.0 4.604026910282287e-16
  outer loop
    vertex 31.45245645310058 71.78046730250651 36.010619922250896
    vertex -48.49495418092113 71.7804673025065 42.010621113631665
    vertex -48.49495427033339 71.78046730250651 36.01062111363043
  endloop
endfacet
facet normal -1.682985844287141e-17 1.0 1.2533184369385073e-15
  outer loop
    vertex -23.494954270333366 120.78046730250645 36.01062074107945
    vertex 31.452456542512824 120.78046730250645 42.010619922252125
    vertex 31.45245645310058 120.78046730250645 36.010619922250896
  endloop
endfacet
facet normal -1.682985844287141e-17 1.0 1.2533184369385073e-15
  outer loop
    vertex 31.452456542512824 120.78046730250645 42.010619922252125
    vertex -23.494954270333366 120.78046730250645 36.01062074107945
    vertex -23.494954180921116 120.78046730250645 42.01062074108063
  endloop
endfacet
facet normal -1.4902040153374634e-08 2.704030681645804e-16 -1.0
  outer loop
    vertex -48.49495427033339 71.78046730250651 36.01062111363043
    vertex -23.494954270333366 120.78046730250645 36.01062074107945
    vertex 31.45245645310058 71.78046730250651 36.010619922250896
  endloop
endfacet
facet normal -1.4902040153374634e-08 2.704030681645804e-16 -1.0
  outer loop
    vertex -23.494954270333366 120.78046730250645 36.01062074107945
    vertex -48.49495427033339 71.78046730250651 36.01062111363043
    vertex -48.494954270333366 173.2897126552863 36.01062111363046
  endloop
endfacet
facet normal -1.4902040153374634e-08 2.704030681645804e-16 -1.0
  outer loop
    vertex -23.494954270333366 120.78046730250645 36.01062074107945
    vertex -48.494954270333366 173.2897126552863 36.01062111363046
    vertex -23.494954270333366 173.2897126552863 36.01062074107945
  endloop
endfacet
facet normal -1.4902040153374634e-08 2.704030681645804e-16 -1.0
  outer loop
    vertex 31.45245645310058 120.78046730250645 36.010619922250896
    vertex 31.45245645310058 71.78046730250651 36.010619922250896
    vertex -23.494954270333366 120.78046730250645 36.01062074107945
  endloop
endfacet
facet normal -1.0 1.1492604705908086e-16 1.4902043710873325e-08
  outer loop
    vertex -48.49495418092113 71.7804673025065 42.010621113631665
    vertex -48.494954270333366 173.2897126552863 36.01062111363046
    vertex -48.49495427033339 71.78046730250651 36.01062111363043
  endloop
endfacet
facet normal -1.0 1.1492604705908086e-16 1.4902043710873325e-08
  outer loop
    vertex -48.494954270333366 173.2897126552863 36.01062111363046
    vertex -48.49495418092113 71.7804673025065 42.010621113631665
    vertex -48.49495418092111 99.28971265528631 42.010621113631636
  endloop
endfacet
facet normal -1.0 1.1492604705908086e-16 1.4902043710873325e-08
  outer loop
    vertex -48.49495418092111 99.28971265528631 42.010621113631636
    vertex -48.494954152217254 173.2897126552863 43.93679080118305
    vertex -48.494954270333366 173.2897126552863 36.01062111363046
  endloop
endfacet
facet normal -1.0 1.1492604705908086e-16 1.4902043710873325e-08
  outer loop
    vertex -48.494954152217254 173.2897126552863 43.93679080118305
    vertex -48.49495418092111 99.28971265528631 42.010621113631636
    vertex -48.494954152217254 99.28971265528631 43.93679080118305
  endloop
endfacet
facet normal 1.4902040103539454e-08 2.980249638590305e-16 1.0
  outer loop
    vertex 31.452456542512824 120.78046730250645 42.010619922252125
    vertex -48.49495418092113 71.7804673025065 42.010621113631665
    vertex 31.452456542512824 71.7804673025065 42.010619922252125
  endloop
endfacet
facet normal 1.4902040103539454e-08 2.980249638590305e-16 1.0
  outer loop
    vertex -48.49495418092113 71.7804673025065 42.010621113631665
    vertex 31.452456542512824 120.78046730250645 42.010619922252125
    vertex -23.494954180921116 99.28971265528631 42.01062074108063
  endloop
endfacet
facet normal 1.4902040103539454e-08 2.980249638590305e-16 1.0
  outer loop
    vertex -23.494954180921116 99.28971265528631 42.01062074108063
    vertex 31.452456542512824 120.78046730250645 42.010619922252125
    vertex -23.494954180921116 120.78046730250645 42.01062074108063
  endloop
endfacet
facet normal 1.4902040103539454e-08 2.980249638590305e-16 1.0
  outer loop
    vertex -48.49495418092111 99.28971265528631 42.010621113631636
    vertex -48.49495418092113 71.7804673025065 42.010621113631665
    vertex -23.494954180921116 99.28971265528631 42.01062074108063
  endloop
endfacet
endsolid Design
